<?xml version="1.0" encoding="UTF-8" standalone="no"?>
<svg
   xmlns:dc="http://purl.org/dc/elements/1.1/"
   xmlns:cc="http://creativecommons.org/ns#"
   xmlns:rdf="http://www.w3.org/1999/02/22-rdf-syntax-ns#"
   xmlns:svg="http://www.w3.org/2000/svg"
   xmlns="http://www.w3.org/2000/svg"
   xmlns:sodipodi="http://sodipodi.sourceforge.net/DTD/sodipodi-0.dtd"
   xmlns:inkscape="http://www.inkscape.org/namespaces/inkscape"
   width="210mm"
   height="297mm"
   viewBox="0 0 210 297"
   version="1.1"
   id="svg8"
   inkscape:version="1.0.1 (3bc2e813f5, 2020-09-07)"
   sodipodi:docname="01v.svg">
  <defs
     id="defs2">
    <pattern
       id="EMFhbasepattern"
       patternUnits="userSpaceOnUse"
       width="6"
       height="6"
       x="0"
       y="0" />
  </defs>
  <sodipodi:namedview
     id="base"
     pagecolor="#ffffff"
     bordercolor="#666666"
     borderopacity="1.0"
     inkscape:pageopacity="0.0"
     inkscape:pageshadow="2"
     inkscape:zoom="1.0636576"
     inkscape:cx="351.05133"
     inkscape:cy="270.29157"
     inkscape:document-units="mm"
     inkscape:current-layer="layer1"
     inkscape:document-rotation="0"
     showgrid="false"
     inkscape:window-width="1920"
     inkscape:window-height="1017"
     inkscape:window-x="-8"
     inkscape:window-y="-8"
     inkscape:window-maximized="1" />
  <metadata
     id="metadata5">
    <rdf:RDF>
      <cc:Work
         rdf:about="">
        <dc:format>image/svg+xml</dc:format>
        <dc:type
           rdf:resource="http://purl.org/dc/dcmitype/StillImage" />
        <dc:title></dc:title>
      </cc:Work>
    </rdf:RDF>
  </metadata>
  <g
     inkscape:label="Warstwa 1"
     inkscape:groupmode="layer"
     id="layer1">
    <g
       id="g23"
       transform="translate(-50.383108,-84.944535)">
      <path
         style="fill:#80afdd;stroke-width:0.264562"
         d="m 83.723706,179.31039 v -7.67355 h 8.598282 8.598282 v -21.02905 -21.02905 l -8.532142,-0.0698 -8.53214,-0.0698 v -7.14319 -7.14319 l 3.412115,-0.18971 c 5.724815,-0.31829 9.375061,-1.19673 11.424566,-2.74933 2.401041,-1.81892 3.450861,-3.5637 4.083691,-6.78699 l 0.29932,-1.5246 9.30637,0.0695 9.30638,0.0695 0.0671,33.79414 0.0671,33.79415 8.39885,0.0699 8.39886,0.0699 v 7.54003 7.54003 l -27.44836,0.0674 -27.448364,0.0674 z m 53.970754,0.002 v -6.61035 l -8.39986,-0.0699 -8.39986,-0.0698 -0.0671,-33.79786 -0.0671,-33.79786 h -8.41207 -8.41206 l -0.31837,1.52124 c -0.51992,2.4843 -1.40245,4.04029 -3.22919,5.69339 -2.564076,2.32036 -6.219242,3.41226 -12.630475,3.77308 l -3.240891,0.18239 v 6.18437 6.18437 l 8.664422,0.0697 8.664424,0.0698 v 21.95869 21.95868 l -8.664424,0.0698 -8.664422,0.0697 v 6.61045 6.61045 h 26.588536 26.58853 v -6.61035 z"
         id="path37" />
      <path
         style="fill:#52c8ec;stroke-width:0.264562"
         d="m 85.575644,179.22097 v -5.73219 h 2.649175 2.649176 l -0.373502,0.85983 c -0.833533,1.91886 -4.727014,10.39177 -4.822357,10.49431 -0.05637,0.0606 -0.102492,-2.46925 -0.102492,-5.62195 z m 17.196566,-41.52131 v -9.42106 l -0.588,-0.41185 c -0.50074,-0.35073 -1.77653,-0.41184 -8.598278,-0.41184 h -8.010288 v -5.13572 -5.13571 l 0.992109,-0.14465 c 0.545661,-0.0796 2.004061,-0.2206 3.240891,-0.31343 4.151763,-0.3116 7.834161,-1.32733 9.856533,-2.71876 2.504283,-1.72299 4.371713,-4.49463 4.821313,-7.15579 l 0.18416,-1.09007 h 7.64906 7.64906 v 1.92993 1.92993 l -8.48821,18.63981 c -4.66851,10.25189 -8.53774,18.68941 -8.59828,18.75004 -0.0605,0.0606 -0.11007,-4.12925 -0.11007,-9.31083 z"
         id="path35" />
      <path
         style="fill:#42bded;stroke-width:0.264562"
         d="m 86.13518,183.93187 c 0.291382,-0.65872 1.469637,-3.24812 2.618346,-5.75424 l 2.088563,-4.55657 5.613746,-0.0715 c 3.597215,-0.0458 5.739945,-0.17627 5.965055,-0.3631 0.28325,-0.23507 0.35048,-2.75844 0.34699,-13.02431 l -0.004,-12.73274 8.53648,-18.76373 8.53647,-18.76373 0.0672,31.43692 c 0.0485,22.69732 0.14948,31.53604 0.3631,31.79344 0.23624,0.28464 1.91576,0.3565 8.33263,0.3565 h 8.03677 v 5.82038 5.82037 H 111.1208 85.605397 Z"
         id="path33" />
      <path
         style="fill:#00b3b3;stroke-width:0.264562"
         d="m 103.96274,202.74833 c -6.99359,-0.7437 -14.523973,-2.90042 -20.791332,-5.95471 -3.917363,-1.90905 -5.968223,-3.64351 -9.917776,-8.38768 -7.197362,-8.64541 -11.472163,-17.98531 -13.366233,-29.20353 -0.792211,-4.69212 -0.852449,-12.59056 -0.13115,-17.19657 2.091446,-13.35536 7.671606,-24.4771 16.880868,-33.645 8.918391,-8.878345 19.632969,-14.334358 32.484593,-16.541611 2.2035,-0.37845 4.14553,-0.472627 9.39197,-0.455458 6.34977,0.02078 6.7832,0.05565 10.84706,0.87272 4.96878,0.999009 10.55373,2.862225 15.10429,5.039003 2.69618,1.289731 3.58024,1.873717 5.36931,3.546836 9.92593,9.28262 16.19166,21.37571 18.18546,35.09858 0.68589,4.72079 0.62996,12.17269 -0.12634,16.83398 -2.11244,13.01963 -7.57969,23.79747 -16.69615,32.91393 -4.95038,4.95039 -9.38083,8.12415 -15.85583,11.35835 -9.18006,4.58535 -21.29239,6.79374 -31.37874,5.72116 z m 35.26618,-15.29065 c 0.45348,-0.45348 0.45348,-15.84357 0,-16.29705 -0.23318,-0.23318 -2.48101,-0.31747 -8.466,-0.31747 h -8.14853 v -33.54653 c 0,-25.73899 -0.0739,-33.62041 -0.31747,-33.864 -0.37629,-0.37629 -19.15989,-0.45676 -19.74706,-0.0846 -0.19505,0.12362 -0.51438,1.06316 -0.70963,2.08786 -0.43239,2.26928 -1.07416,3.57863 -2.447844,4.99412 -2.12522,2.18989 -5.123057,3.08729 -12.126717,3.63013 -3.050247,0.23643 -4.16497,0.41728 -4.347129,0.70528 -0.134739,0.21303 -0.246805,3.59239 -0.249033,7.50969 -0.0036,6.25982 0.04897,7.18094 0.433798,7.60617 0.406151,0.44879 1.028576,0.48381 8.598281,0.48381 h 8.160433 v 20.23904 20.23903 h -8.324411 c -7.959332,0 -8.33642,0.0224 -8.598282,0.51173 -0.370787,0.69282 -0.370787,15.21571 0,15.90853 0.268105,0.50096 0.860151,0.51174 28.122994,0.51174 21.30768,0 27.9237,-0.0746 28.1666,-0.31748 z"
         id="path31" />
      <path
         style="fill:#2762ae;stroke-width:0.264562"
         d="m 82.939326,187.26342 c -0.370787,-0.69282 -0.370787,-15.21571 0,-15.90853 0.261862,-0.48929 0.63895,-0.51173 8.598282,-0.51173 h 8.324411 v -20.23903 -20.23904 h -8.160433 c -7.569705,0 -8.19213,-0.035 -8.598281,-0.48381 -0.384825,-0.42523 -0.437359,-1.34635 -0.433798,-7.60617 0.0021,-3.9173 0.114294,-7.29666 0.249033,-7.50969 0.182159,-0.288 1.296882,-0.46885 4.347129,-0.70528 7.00366,-0.54284 10.001497,-1.44024 12.126717,-3.63013 1.373684,-1.41549 2.015454,-2.72484 2.447844,-4.99412 0.19525,-1.0247 0.51458,-1.96424 0.70963,-2.08786 0.58717,-0.37216 19.37077,-0.29169 19.74706,0.0846 0.24359,0.24359 0.31747,8.12501 0.31747,33.864 v 33.54653 h 8.14853 c 5.98499,0 8.23282,0.0843 8.466,0.31747 0.45348,0.45348 0.45348,15.84357 0,16.29705 -0.2429,0.2429 -6.85892,0.31748 -28.1666,0.31748 -27.262843,0 -27.854889,-0.0108 -28.122994,-0.51174 z m 55.681104,-7.95426 v -7.54003 l -8.39886,-0.0699 -8.39885,-0.0699 -0.0671,-33.79415 -0.0671,-33.79414 -9.30638,-0.0695 -9.30637,-0.0695 -0.29932,1.5246 c -0.63283,3.22329 -1.68265,4.96807 -4.083691,6.78699 -2.049505,1.5526 -5.699751,2.43104 -11.424566,2.74933 l -3.412115,0.18971 v 7.14319 7.14319 l 8.53214,0.0698 8.532142,0.0698 v 21.02905 21.02905 h -8.598282 -8.598282 v 7.67355 7.67354 l 27.448364,-0.0674 27.44836,-0.0674 z m -54.103036,0.004 v -6.61044 l 8.664422,-0.0698 8.664424,-0.0698 v -21.95868 -21.95869 l -8.664424,-0.0698 -8.664422,-0.0697 v -6.18437 -6.18437 l 3.240891,-0.18239 c 6.411233,-0.36082 10.066399,-1.45272 12.630475,-3.77307 1.82674,-1.65311 2.70927,-3.2091 3.22919,-5.6934 l 0.31837,-1.52123 h 8.41206 8.41207 l 0.0671,33.79785 0.0671,33.79786 8.39986,0.0699 8.39986,0.0699 v 6.61034 6.61035 H 111.10593 84.517394 Z m 52.118816,-0.004 v -5.82038 h -8.01625 c -5.8821,0 -8.10076,-0.0845 -8.33372,-0.31747 -0.24358,-0.24359 -0.31747,-8.12501 -0.31747,-33.864 v -33.54653 h -7.64906 -7.64906 l -0.18416,1.09007 c -0.4496,2.66116 -2.31703,5.4328 -4.821313,7.15579 -2.022372,1.39143 -5.70477,2.40716 -9.856533,2.71876 -1.23683,0.0928 -2.69523,0.23387 -3.240891,0.31343 l -0.992109,0.14465 v 5.13571 5.13572 h 8.010288 c 6.821748,0 8.097538,0.0611 8.598278,0.41184 l 0.588,0.41185 v 22.28761 c 0,16.98207 -0.0756,22.3632 -0.31748,22.6051 -0.2334,0.2334 -2.510403,0.31747 -8.59828,0.31747 h -8.280806 v 5.82038 5.82037 h 25.530286 25.53028 z"
         id="path29" />
      <path
         style="fill:#00827e;stroke-width:0.264562"
         d="m 77.139738,193.35195 c -2.815916,-1.87402 -5.250685,-4.14591 -8.055405,-7.51653 -7.267725,-8.73409 -11.618696,-18.03203 -13.453343,-28.74951 -0.766037,-4.47497 -0.934373,-12.11298 -0.367503,-16.67499 1.68096,-13.5279 7.413065,-25.28651 16.969244,-34.81004 18.727969,-18.663992 47.030749,-22.626146 70.356129,-9.849281 3.51142,1.923436 4.08015,2.512197 1.09087,1.129279 -4.11387,-1.90318 -9.70533,-3.716779 -14.31899,-4.644387 -4.06386,-0.817067 -4.49729,-0.851939 -10.84706,-0.87272 -5.24644,-0.01717 -7.18847,0.07701 -9.39197,0.455458 -12.851624,2.207253 -23.566202,7.663266 -32.484593,16.541611 -9.209262,9.1679 -14.789422,20.28964 -16.880868,33.645 -0.721299,4.60601 -0.661061,12.50445 0.13115,17.19657 1.892675,11.20995 6.174183,20.56875 13.350529,29.18244 1.357211,1.62905 3.264138,3.70598 4.237614,4.61542 0.973479,0.90943 1.735842,1.65321 1.694142,1.65284 -0.0417,-2.6e-4 -0.955177,-0.58589 -2.029946,-1.30116 z"
         id="path27" />
      <path
         style="fill:#005a53;stroke-width:0.264562"
         d="m 74.165709,191.28061 c -0.329081,-0.41961 -0.319724,-0.42897 0.09989,-0.0999 0.254642,0.19971 0.462984,0.40805 0.462984,0.46299 0,0.21774 -0.217256,0.0776 -0.562872,-0.3631 z m -2.215034,-1.68719 C 60.791347,180.2032 53.711919,167.78757 51.151982,153.11747 c -0.777291,-4.45438 -0.839635,-12.93805 -0.128317,-17.46113 2.069395,-13.15872 7.688213,-24.39902 16.698824,-33.40557 9.001571,-8.997512 20.409882,-14.757151 33.197781,-16.760346 4.12647,-0.646401 12.97823,-0.659423 16.99044,-0.02499 6.68241,1.056653 11.78986,2.656343 17.62918,5.521578 3.52956,1.731883 8.90702,5.101473 10.75285,6.737886 l 0.79369,0.703641 -0.79369,-0.488994 c -2.91479,-1.795808 -4.02405,-2.412745 -6.61406,-3.67852 -14.2746,-6.976188 -31.43212,-7.829215 -46.166161,-2.295262 -8.438787,3.169522 -14.991193,7.368004 -21.279788,13.635117 -9.556179,9.52353 -15.288284,21.28214 -16.969244,34.81004 -0.56687,4.56201 -0.398534,12.20002 0.367503,16.67499 2.066838,12.07388 7.697555,23.06939 16.42701,32.0782 0.951732,0.98219 1.674088,1.78112 1.605236,1.77541 -0.06885,-0.006 -0.839505,-0.61146 -1.712561,-1.3461 z"
         id="path25" />
    </g>
  </g>
</svg>
