<?xml version="1.0" encoding="UTF-8" standalone="no"?>
<svg
   xmlns:dc="http://purl.org/dc/elements/1.1/"
   xmlns:cc="http://creativecommons.org/ns#"
   xmlns:rdf="http://www.w3.org/1999/02/22-rdf-syntax-ns#"
   xmlns:svg="http://www.w3.org/2000/svg"
   xmlns="http://www.w3.org/2000/svg"
   xmlns:sodipodi="http://sodipodi.sourceforge.net/DTD/sodipodi-0.dtd"
   xmlns:inkscape="http://www.inkscape.org/namespaces/inkscape"
   width="210mm"
   height="297mm"
   viewBox="0 0 210 297"
   version="1.1"
   id="svg8"
   inkscape:version="1.0.1 (3bc2e813f5, 2020-09-07)"
   sodipodi:docname="02v.svg">
  <defs
     id="defs2">
    <pattern
       id="EMFhbasepattern"
       patternUnits="userSpaceOnUse"
       width="6"
       height="6"
       x="0"
       y="0" />
    <pattern
       id="EMFhbasepattern-8"
       patternUnits="userSpaceOnUse"
       width="6"
       height="6"
       x="0"
       y="0" />
  </defs>
  <sodipodi:namedview
     id="base"
     pagecolor="#ffffff"
     bordercolor="#666666"
     borderopacity="1.0"
     inkscape:pageopacity="0.0"
     inkscape:pageshadow="2"
     inkscape:zoom="1.0636576"
     inkscape:cx="351.05133"
     inkscape:cy="270.29157"
     inkscape:document-units="mm"
     inkscape:current-layer="layer1"
     inkscape:document-rotation="0"
     showgrid="false"
     inkscape:window-width="1920"
     inkscape:window-height="1017"
     inkscape:window-x="-8"
     inkscape:window-y="-8"
     inkscape:window-maximized="1" />
  <metadata
     id="metadata5">
    <rdf:RDF>
      <cc:Work
         rdf:about="">
        <dc:format>image/svg+xml</dc:format>
        <dc:type
           rdf:resource="http://purl.org/dc/dcmitype/StillImage" />
        <dc:title></dc:title>
      </cc:Work>
    </rdf:RDF>
  </metadata>
  <g
     inkscape:label="Warstwa 1"
     inkscape:groupmode="layer"
     id="layer1">
    <g
       id="g52"
       transform="translate(-32.395083,-17.492288)">
      <path
         style="fill:#d9afd2;stroke-width:0.264562"
         d="m 67.215547,111.7776 v -5.4326 l 3.229683,-2.6292 c 10.648972,-8.669044 19.226535,-16.684748 24.188063,-22.60367 5.0369,-6.008838 7.101287,-9.869247 7.922717,-14.8155 0.47135,-2.838229 0.46673,-4.420278 -0.0196,-6.715794 -0.9392,-4.433107 -3.607521,-7.407557 -7.967736,-8.88184 -2.282608,-0.7718 -7.193624,-1.03882 -10.003693,-0.543919 -4.063881,0.715721 -10.513595,3.395723 -14.083987,5.852218 -0.611608,0.420797 -1.181677,0.765085 -1.266823,0.765085 -0.08515,0 -0.123223,-3.407049 -0.08461,-7.57122 l 0.0702,-7.571221 1.322812,-0.519894 c 2.146208,-0.843505 8.748656,-2.527992 12.169875,-3.104908 5.417655,-0.913573 9.518999,-1.173335 13.439698,-0.851214 11.147344,0.915854 17.937994,4.426332 21.875904,11.308922 0.6145,1.074 1.13059,2.222238 1.14687,2.551645 0.0207,0.41867 -7.64092,10.312842 -25.457444,32.875547 -14.017887,17.752143 -25.710909,32.511423 -25.984493,32.798403 -0.487655,0.51152 -0.49743,0.41502 -0.49743,-4.91084 z"
         id="path66" />
      <path
         style="fill:#c597b3;stroke-width:0.264562"
         d="m 65.363609,112.36406 v -7.10964 l 3.505453,-2.86592 C 82.790055,91.007244 93.116985,80.795637 97.342017,74.233505 c 1.473118,-2.287981 2.889053,-5.841918 3.365883,-8.44821 1.01882,-5.568768 -1.093953,-10.575487 -5.302981,-12.566674 -6.172487,-2.920056 -14.758556,-1.320712 -23.609793,4.397841 -2.058296,1.32981 -2.585977,1.558072 -3.439312,1.487757 l -1.007986,-0.08306 -0.06954,-9.333776 -0.06953,-9.333775 1.175227,-0.503762 c 3.14433,-1.347817 9.844725,-3.111106 15.234434,-4.009124 2.926374,-0.487584 4.599168,-0.595239 9.259688,-0.595918 5.201944,-7.68e-4 5.993351,0.0624 9.259693,0.738941 6.36892,1.319171 10.72826,3.426845 14.052,6.793935 4.17522,4.229661 6.54498,10.560274 6.57564,17.566291 0.0183,4.174172 -1.64737,10.890179 -3.71839,14.992834 -3.50019,6.933844 -11.62984,15.778999 -22.941288,24.960395 l -3.25413,2.64134 16.680678,0.0681 16.68067,0.0681 v 8.19947 8.19946 H 95.788296 65.363609 Z m 60.055691,-1.08989 v -7.14127 l -17.25911,-0.0681 c -15.190876,-0.0599 -17.268369,-0.11621 -17.336464,-0.46991 -0.04759,-0.24718 1.37655,-1.57029 3.700274,-3.43775 11.53873,-9.273121 19.22211,-17.477607 23.32829,-24.910458 1.31968,-2.388844 2.91082,-7.231287 3.47309,-10.569984 0.96395,-5.723683 -0.0201,-11.924244 -2.6614,-16.769783 -1.4857,-2.725539 -4.48197,-5.909996 -6.86965,-7.3011 -2.50081,-1.457008 -6.28613,-2.85369 -9.76409,-3.602684 -2.921385,-0.629134 -3.728362,-0.689188 -9.284412,-0.690929 -5.463126,-0.0017 -6.474985,0.07009 -9.901855,0.702663 -4.339203,0.800981 -8.870029,1.962991 -12.255255,3.143077 l -2.314921,0.80698 v 8.565115 c 0,7.54832 0.04853,8.565116 0.408791,8.565116 0.224836,0 1.266551,-0.577558 2.314922,-1.283461 6.449023,-4.342344 14.418733,-6.700755 19.984046,-5.913716 5.761793,0.814824 9.036454,3.310971 10.427814,7.94872 0.43566,1.452165 0.50382,2.282002 0.40484,4.92873 -0.1258,3.36418 -0.73796,5.761089 -2.231725,8.738383 -3.374375,6.725623 -14.418304,18.03871 -29.919735,30.648921 l -3.505454,2.85164 v 6.20052 6.20051 h 29.631 29.631004 z"
         id="path64" />
      <path
         style="fill:#ca71ad;stroke-width:0.264562"
         d="m 67.259641,117.40436 c 0.153497,-0.3784 51.935489,-65.901766 52.089709,-65.912745 0.25281,-0.01799 1.02649,3.593307 1.34081,6.258454 0.74305,6.300452 -1.69854,14.729681 -6.07732,20.980999 -4.41429,6.302032 -11.47621,13.364208 -20.881125,20.881892 -3.968663,3.17229 -4.477678,3.84567 -3.621864,4.79133 0.456654,0.5046 0.920964,0.51847 17.360199,0.51847 h 16.891 v 6.3495 6.3495 H 95.766251 c -15.727141,0 -28.555115,-0.0978 -28.50661,-0.2174 z"
         id="path62" />
      <path
         style="fill:#3a98dd;stroke-width:0.264562"
         d="m 85.734921,135.24172 c -7.280466,-0.81828 -14.397372,-2.86608 -20.846633,-5.99834 -2.810262,-1.36488 -3.562911,-1.87641 -5.527631,-3.75677 C 50.05411,116.57963 44.122805,105.35744 41.780113,92.223755 40.981492,87.746496 40.90964,78.269126 41.640713,73.836662 43.322575,63.6396 47.127774,54.723537 53.252538,46.628684 55.51441,43.63926 61.264708,37.956883 64.43764,35.575696 c 6.300678,-4.728459 13.281297,-8.099882 20.731245,-10.012547 5.769409,-1.481212 7.993954,-1.730639 15.249255,-1.709825 6.4175,0.01841 6.73986,0.04496 10.84706,0.893475 5.08243,1.049985 10.66328,2.926569 15.18875,5.107285 3.26214,1.571945 3.39881,1.673445 6.64632,4.935795 7.63568,7.670559 12.82194,16.790981 15.43381,27.14147 1.34888,5.345438 1.62033,7.759756 1.62109,14.418656 8e-4,6.655422 -0.30055,9.388879 -1.61166,14.620351 -4.59593,18.338294 -18.2047,33.685964 -35.95105,40.544774 -8.27332,3.19756 -18.696606,4.64384 -26.857539,3.72659 z m 41.262439,-15.48607 c 0.1719,-0.32119 0.27387,-3.56639 0.27387,-8.71556 0,-8.17769 -0.002,-8.20514 -0.58799,-8.61568 -0.51572,-0.36122 -2.46808,-0.41184 -15.88379,-0.41184 H 95.503648 l 2.457246,-2.031739 c 10.550576,-8.723575 17.538036,-16.375003 21.617046,-23.671134 1.36395,-2.439708 3.09792,-7.732162 3.56637,-10.885348 2.36433,-15.91458 -5.03807,-27.051355 -20.1141,-30.261291 -3.220235,-0.685643 -3.780454,-0.724873 -10.284382,-0.720178 -6.31239,0.0046 -7.190248,0.06295 -10.664224,0.709319 -5.913024,1.100184 -14.150969,3.500798 -15.307715,4.460811 -0.487161,0.404307 -0.520181,19.53102 -0.03455,20.016645 0.174611,0.174612 0.953832,0.317475 1.731604,0.317475 1.25374,0 1.630319,-0.14585 3.320259,-1.285956 6.192509,-4.177727 13.817602,-6.550509 18.78606,-5.845855 2.64876,0.375663 3.051598,0.49337 4.770233,1.393829 2.991988,1.567623 4.663015,4.620629 4.670675,8.53344 0.01,4.986138 -1.909446,9.37451 -6.775849,15.493436 -4.023122,5.058604 -14.704442,15.083613 -25.100801,23.558496 l -3.703875,3.01931 -0.07041,7.20707 c -0.04561,4.66816 0.02757,7.39014 0.207731,7.72677 0.274026,0.51202 0.735728,0.51971 31.213335,0.51971 30.313959,0 30.940699,-0.0103 31.209069,-0.51173 z"
         id="path60" />
      <path
         style="fill:#147dc9;stroke-width:0.264562"
         d="m 58.220421,125.38928 c -0.94581,-0.6655 -2.023802,-1.49491 -2.395539,-1.84314 -0.371734,-0.34822 -0.768591,-0.63313 -0.8819,-0.63313 -0.41971,0 -4.85375,-3.99037 -6.517747,-5.86558 -3.293969,-3.71208 -4.419376,-5.13087 -6.259806,-7.89167 -4.550125,-6.82558 -7.595333,-14.510054 -9.121174,-23.016942 -0.803991,-4.482419 -0.874849,-14.1955 -0.136067,-18.651656 2.139611,-12.905608 7.67071,-23.767695 16.701221,-32.798207 9.05503,-9.05503 19.995867,-14.579436 33.083044,-16.704768 3.978586,-0.646115 12.816958,-0.657852 17.021491,-0.0226 7.060496,1.066745 13.634226,3.232936 19.586906,6.454321 2.49189,1.348523 7.55755,4.652601 7.84417,5.116352 0.41927,0.678396 -0.27856,0.541037 -2.45312,-0.482865 -3.53214,-1.663128 -8.73731,-3.33052 -13.4267,-4.301034 -4.10976,-0.850554 -4.42555,-0.876611 -10.84706,-0.895033 -7.255301,-0.02081 -9.479846,0.228613 -15.249255,1.709825 -7.449948,1.912665 -14.430567,5.284088 -20.731245,10.012547 -3.172932,2.381187 -8.92323,8.063564 -11.185102,11.052988 -6.124764,8.094853 -9.929963,17.010916 -11.611825,27.207978 -0.731073,4.432464 -0.659221,13.909834 0.1394,18.387093 2.263812,12.691461 7.560685,23.045731 16.410061,32.078201 1.247399,1.27321 2.151425,2.31096 2.00895,2.30612 -0.142475,-0.005 -1.032892,-0.5533 -1.978703,-1.2188 z"
         id="path58" />
      <path
         style="fill:#8d2f68;stroke-width:0.264562"
         d="m 64.574961,119.74767 c -0.180159,-0.33663 -0.253337,-3.05861 -0.207731,-7.72677 l 0.07041,-7.20707 3.703875,-3.01931 c 7.468761,-6.088371 12.55884,-10.618509 17.886941,-15.91927 7.491005,-7.452567 11.000699,-11.974625 12.628838,-16.271588 2.654596,-7.005999 1.379286,-12.937707 -3.309804,-15.394514 -1.718635,-0.900459 -2.121473,-1.018166 -4.770233,-1.393829 -4.968458,-0.704654 -12.593551,1.668128 -18.78606,5.845855 -1.68994,1.140106 -2.066519,1.285957 -3.320259,1.285957 -0.777772,0 -1.556993,-0.142864 -1.731604,-0.317475 -0.485626,-0.485626 -0.452606,-19.612339 0.03455,-20.016646 1.156746,-0.960013 9.394691,-3.360627 15.307715,-4.460811 3.473976,-0.646372 4.351834,-0.704762 10.664224,-0.709319 6.503928,-0.0047 7.064147,0.03453 10.284387,0.720178 15.07603,3.209936 22.47843,14.346711 20.1141,30.261291 -0.46845,3.153186 -2.20242,8.44564 -3.56637,10.885348 -4.07901,7.296131 -11.06647,14.947559 -21.617051,23.671134 l -2.457246,2.031739 h 15.295807 c 13.41571,0 15.36807,0.0506 15.88379,0.41184 0.58612,0.41054 0.58799,0.43799 0.58799,8.61568 0,5.14917 -0.10197,8.39437 -0.27387,8.71556 -0.26837,0.50145 -0.89511,0.51173 -31.209069,0.51173 -30.477607,0 -30.939309,-0.008 -31.213335,-0.51971 z m 61.638019,-8.47344 v -8.19947 l -16.68067,-0.0681 -16.680676,-0.0681 3.25413,-2.64134 c 11.311446,-9.181393 19.441096,-18.026548 22.941286,-24.960392 2.07102,-4.102655 3.73666,-10.818662 3.71839,-14.992834 -0.0307,-7.006017 -2.40042,-13.33663 -6.57564,-17.566291 -3.32374,-3.36709 -7.68308,-5.474764 -14.052,-6.793935 -3.26634,-0.676544 -4.057747,-0.7397 -9.259691,-0.738941 -4.66052,6.87e-4 -6.333314,0.108334 -9.259688,0.595918 -5.389709,0.898018 -12.090104,2.661307 -15.234434,4.009124 l -1.175227,0.503762 0.06953,9.333775 0.06954,9.333776 1.007986,0.08306 c 0.853335,0.07032 1.381016,-0.157947 3.439312,-1.487757 7.319786,-4.729121 14.618263,-6.699064 20.33244,-5.48796 5.137762,1.088934 7.949542,4.061733 8.713012,9.211965 0.25493,1.71972 0.23329,2.444439 -0.13268,4.444828 -0.47683,2.606292 -1.892763,6.160229 -3.365881,8.44821 -4.225032,6.562132 -14.551962,16.773739 -28.472955,28.154992 l -3.505453,2.86592 v 7.10964 7.10963 h 30.424687 30.424682 z m -60.055684,0.9407 v -6.20052 l 3.505454,-2.85164 C 82.99707,92.315477 93.275061,82.200181 97.847638,75.424037 c 2.665482,-3.95 3.803682,-7.292528 3.966572,-11.648571 0.099,-2.646728 0.0308,-3.476565 -0.40484,-4.92873 -1.39136,-4.637749 -4.666021,-7.133896 -10.427814,-7.94872 -5.565313,-0.787039 -13.535023,1.571372 -19.984046,5.913716 -1.048371,0.705903 -2.090086,1.283461 -2.314922,1.283461 -0.360263,0 -0.408791,-1.016796 -0.408791,-8.565116 v -8.565115 l 2.314921,-0.80698 c 3.385226,-1.180086 7.916052,-2.342096 12.255255,-3.143077 3.42687,-0.632571 4.438729,-0.704376 9.901855,-0.702663 5.55605,0.0017 6.363027,0.0618 9.284412,0.690929 3.47796,0.748994 7.26328,2.145676 9.76409,3.602684 2.38768,1.391104 5.38395,4.575561 6.86965,7.3011 2.6413,4.845539 3.62535,11.0461 2.6614,16.769783 -0.56227,3.338697 -2.15341,8.18114 -3.47309,10.569984 -4.10618,7.432851 -11.78956,15.637337 -23.32829,24.910458 -2.323724,1.86746 -3.747867,3.19057 -3.700274,3.43775 0.06809,0.3537 2.145588,0.41001 17.336464,0.46991 l 17.25911,0.0681 v 7.14127 7.14127 h -29.631004 -29.631 z m 58.203754,-0.94267 v -6.3495 h -16.891 c -16.439235,0 -16.903545,-0.0139 -17.360199,-0.51847 -0.855814,-0.94566 -0.346799,-1.61904 3.621864,-4.79133 11.607275,-9.278107 19.460295,-17.657534 23.289215,-24.85033 2.46359,-4.627973 4.15545,-11.862649 3.77343,-16.135873 -0.39594,-4.428914 -1.34733,-7.75788 -3.01814,-10.560541 -3.93674,-6.60362 -10.69926,-10.013079 -21.644069,-10.912293 -3.9207,-0.322121 -8.022043,-0.06236 -13.439698,0.851214 -3.421219,0.576916 -10.023668,2.261403 -12.169875,3.104908 l -1.322813,0.519894 -0.0702,7.571221 c -0.03861,4.164171 -5.32e-4,7.57122 0.08461,7.57122 0.08515,0 0.655216,-0.344288 1.266823,-0.765085 3.570393,-2.456495 10.020107,-5.136497 14.083988,-5.852218 2.810069,-0.494901 7.721084,-0.227881 10.003693,0.543919 4.360214,1.474283 7.028531,4.448733 7.967731,8.88184 0.48632,2.295516 0.49094,3.877565 0.0196,6.715794 -0.82143,4.946253 -2.885812,8.806662 -7.922712,14.8155 -4.961528,5.918922 -13.539092,13.934626 -24.188063,22.60367 l -3.229694,2.6292 v 5.63838 5.63838 h 28.572749 28.57275 z"
         id="path56" />
      <path
         style="fill:#986128;stroke-width:0.264562"
         d="m 55.276486,123.24371 c -0.329081,-0.41961 -0.319723,-0.42897 0.09989,-0.0999 0.440695,0.34562 0.580841,0.56287 0.363096,0.56287 -0.05494,0 -0.26328,-0.20834 -0.462985,-0.46298 z M 128.26593,30.767403 c -0.54423,-0.320954 -0.99068,-0.672844 -0.99211,-0.781976 -0.005,-0.366469 0.38822,-0.189274 1.32023,0.595266 1.10116,0.926924 1.01255,0.977346 -0.32812,0.18671 z"
         id="path54" />
    </g>
  </g>
</svg>
