<?xml version="1.0" encoding="UTF-8" standalone="no"?>
<svg
   xmlns:dc="http://purl.org/dc/elements/1.1/"
   xmlns:cc="http://creativecommons.org/ns#"
   xmlns:rdf="http://www.w3.org/1999/02/22-rdf-syntax-ns#"
   xmlns:svg="http://www.w3.org/2000/svg"
   xmlns="http://www.w3.org/2000/svg"
   xmlns:sodipodi="http://sodipodi.sourceforge.net/DTD/sodipodi-0.dtd"
   xmlns:inkscape="http://www.inkscape.org/namespaces/inkscape"
   width="210mm"
   height="297mm"
   viewBox="0 0 210 297"
   version="1.1"
   id="svg8"
   inkscape:version="1.0.1 (3bc2e813f5, 2020-09-07)"
   sodipodi:docname="03v.svg">
  <defs
     id="defs2">
    <pattern
       id="EMFhbasepattern"
       patternUnits="userSpaceOnUse"
       width="6"
       height="6"
       x="0"
       y="0" />
    <pattern
       id="EMFhbasepattern-8"
       patternUnits="userSpaceOnUse"
       width="6"
       height="6"
       x="0"
       y="0" />
    <pattern
       id="EMFhbasepattern-9"
       patternUnits="userSpaceOnUse"
       width="6"
       height="6"
       x="0"
       y="0" />
  </defs>
  <sodipodi:namedview
     id="base"
     pagecolor="#ffffff"
     bordercolor="#666666"
     borderopacity="1.0"
     inkscape:pageopacity="0.0"
     inkscape:pageshadow="2"
     inkscape:zoom="1.0636576"
     inkscape:cx="351.05133"
     inkscape:cy="270.29157"
     inkscape:document-units="mm"
     inkscape:current-layer="layer1"
     inkscape:document-rotation="0"
     showgrid="false"
     inkscape:window-width="1920"
     inkscape:window-height="1017"
     inkscape:window-x="-8"
     inkscape:window-y="-8"
     inkscape:window-maximized="1" />
  <metadata
     id="metadata5">
    <rdf:RDF>
      <cc:Work
         rdf:about="">
        <dc:format>image/svg+xml</dc:format>
        <dc:type
           rdf:resource="http://purl.org/dc/dcmitype/StillImage" />
        <dc:title></dc:title>
      </cc:Work>
    </rdf:RDF>
  </metadata>
  <g
     inkscape:label="Warstwa 1"
     inkscape:groupmode="layer"
     id="layer1">
    <g
       id="g140"
       transform="translate(-23.744808,-14.281868)">
      <path
         style="fill:#f05320;stroke-width:0.264562"
         d="m 59.80053,101.36469 c 0,-3.887184 0.06133,-7.067603 0.136289,-7.067603 0.07496,0 0.792193,0.37017 1.593855,0.822599 0.801658,0.452428 2.584108,1.329958 3.961,1.950066 l 2.503436,1.127468 -3.733122,4.73014 c -2.053217,2.60157 -3.896998,4.90446 -4.09729,5.11753 -0.309761,0.32952 -0.364168,-0.66849 -0.364168,-6.6802 z M 77.79078,71.321792 v -5.778733 l 4.486824,-0.169402 c 2.467754,-0.09317 5.414319,-0.357173 6.547922,-0.586673 4.157557,-0.8417 6.856515,-2.688434 8.239172,-5.637565 0.625817,-1.334834 0.700125,-1.804697 0.696569,-4.404426 -0.0036,-2.643506 -0.06932,-3.034749 -0.71697,-4.26947 -1.308618,-2.494832 -3.907932,-4.216631 -7.482954,-4.956748 -7.267106,-1.504466 -14.763056,-0.215888 -23.08061,3.967634 l -4.299141,2.162359 v -7.462874 -7.462875 l 2.976329,-0.968429 c 9.090494,-2.957838 17.493346,-4.169314 25.242537,-3.639329 7.176933,0.490847 10.985632,1.384451 15.657752,3.673651 1.99046,0.975265 2.94574,1.655919 4.60966,3.284433 1.28849,1.261082 2.04374,2.197903 1.95608,2.42635 -0.0785,0.204669 -6.40704,8.298585 -14.063323,17.986478 L 84.640102,77.100524 H 81.215441 77.79078 Z"
         id="path154" />
      <path
         style="fill:#1ccd43;stroke-width:0.264562"
         d="m 77.129374,132.0086 c -7.214022,-0.79904 -14.728856,-2.96781 -20.991905,-6.05825 -2.912378,-1.43708 -3.557784,-1.88599 -5.570051,-3.8742 -9.229431,-9.1191 -15.132953,-20.21454 -17.24372,-32.408907 -1.167319,-6.743865 -1.228177,-12.277753 -0.20948,-19.0485 3.22542,-21.43769 17.938564,-39.328222 38.424368,-46.722332 3.915959,-1.413419 7.23571,-2.220749 11.940288,-2.903756 3.443469,-0.49992 4.703395,-0.557114 9.52425,-0.432345 5.001493,0.129444 6.004547,0.236796 10.053376,1.075956 5.12556,1.062324 10.95593,3.046786 15.12641,5.148523 7.8365,3.949246 16.81705,16.144211 20.68771,28.092485 0.97889,3.021727 1.67751,6.01117 2.31851,9.921094 0.65775,4.012133 0.65328,12.832554 -0.009,16.932 -2.13003,13.192809 -7.55735,23.962422 -16.67666,33.092032 -9.25481,9.26526 -20.14745,14.79111 -33.088129,16.78564 -4.332272,0.66772 -10.35077,0.83647 -14.286375,0.40056 z m 18.524058,-15.57009 c 3.425116,-0.64744 5.392148,-1.22068 8.064468,-2.35019 9.77447,-4.13134 15.22601,-11.07667 16.5729,-21.114046 1.26287,-9.411313 -2.12616,-16.754968 -9.71068,-21.041997 -0.92085,-0.520492 -2.18677,-1.083423 -2.81315,-1.250954 -0.62638,-0.167532 -1.13888,-0.374163 -1.13888,-0.459183 0,-0.08502 0.62503,-0.465556 1.38896,-0.845645 3.29822,-1.641012 6.51535,-5.115673 8.3829,-9.053934 2.43049,-5.125399 2.68696,-10.645281 0.76717,-16.51151 -2.30837,-7.053586 -9.26783,-11.928173 -19.79335,-13.863783 -2.597564,-0.477684 -4.103129,-0.563162 -10.191021,-0.578591 -6.315321,-0.01601 -7.557122,0.05289 -10.714782,0.594443 -5.328201,0.913813 -13.812736,3.245664 -16.204453,4.453558 l -0.727547,0.367434 v 9.596825 c 0,7.111448 0.08222,9.679046 0.317475,9.9143 0.596959,0.596959 3.138947,0.3782 4.44465,-0.382499 7.870616,-4.585395 15.444874,-6.65361 21.896545,-5.979031 3.389694,0.354421 5.557664,1.095646 6.990339,2.389981 1.349229,1.218948 1.802366,2.359972 1.802366,4.538456 0,3.575877 -1.972906,5.856768 -5.98866,6.92354 -1.669987,0.443624 -3.170816,0.580651 -7.606347,0.694466 -4.924487,0.126363 -5.579496,0.19544 -6.018796,0.634741 -0.457358,0.457357 -0.492947,1.026497 -0.492947,7.883473 0,4.064791 0.10968,7.679006 0.243734,8.031591 l 0.243731,0.641067 6.304191,0.190993 c 8.390655,0.254204 11.051903,0.786729 13.260555,2.653477 1.536127,1.29833 2.013276,2.577135 2.026826,5.432095 0.01601,3.369359 -0.410354,4.722411 -2.055108,6.522034 -2.200173,2.407342 -4.594006,3.325924 -9.899429,3.7987 -2.35927,0.21024 -3.828552,0.208472 -5.423531,-0.0065 -5.131962,-0.691747 -10.820085,-2.614505 -16.087556,-5.438085 -2.264568,-1.213911 -2.89483,-1.436829 -4.062354,-1.436829 -2.440415,0 -2.293847,-0.691711 -2.214328,10.450223 l 0.06986,9.78881 2.509555,1.00418 c 5.381564,2.15338 11.433439,3.53421 18.655445,4.2565 2.644022,0.26444 15.156058,-0.0615 17.201246,-0.4481 z"
         id="path152" />
      <path
         style="fill:#e61c24;stroke-width:0.264562"
         d="m 80.436405,114.11184 c -6.387748,-0.38344 -12.132789,-1.52803 -17.924109,-3.57105 -2.208079,-0.77895 -2.711766,-1.05425 -2.711766,-1.48214 0,-0.3836 5.077187,-7.13133 8.094956,-10.758436 0.04466,-0.05368 0.950021,0.214131 2.011919,0.595125 1.061896,0.380997 3.240303,1.017174 4.840906,1.413731 2.647496,0.65593 3.363928,0.72154 7.936875,0.72684 5.782416,0.007 7.945299,-0.36263 10.962198,-1.871921 2.136278,-1.068737 4.276549,-3.23208 5.207614,-5.263746 0.814712,-1.77778 1.259522,-4.832975 1.035153,-7.109985 -0.596086,-6.049322 -4.432419,-8.948445 -12.737136,-9.625477 L 84.742221,76.968243 98.347776,59.771681 c 7.483054,-9.45811 13.771214,-17.423862 13.973684,-17.701674 0.54837,-0.752442 1.01428,-0.218171 1.95264,2.239144 2.66422,6.976867 1.15259,14.442234 -3.97009,19.606811 -2.07842,2.095425 -4.75794,3.718413 -7.37979,4.469948 -1.74446,0.500033 -1.88756,0.675756 -1.79815,2.207978 l 0.0785,1.344956 1.85194,0.476435 c 4.23738,1.090121 5.45098,1.558503 7.37842,2.847655 5.53443,3.701653 8.05363,9.83245 7.07025,17.206388 -1.22332,9.173238 -6.43908,15.543318 -15.77148,19.261958 -3.274938,1.30495 -6.824938,2.03509 -11.640754,2.39421 -4.044676,0.30161 -4.413341,0.30109 -9.656531,-0.0137 z"
         id="path150" />
      <path
         style="fill:#19ad39;stroke-width:0.264562"
         d="M 49.710309,122.2244 C 46.547221,120.10245 41.047321,114.06264 37.77058,109.11259 33.268694,102.31175 30.28233,94.639365 28.811568,86.095649 27.999889,81.380579 27.926078,72.491936 28.661079,67.973118 30.770435,55.004706 36.382696,43.907614 45.384688,34.90562 64.408029,15.882279 93.86011,12.13842 117.16911,25.780604 c 1.79883,1.052809 1.60704,1.320479 -0.26292,0.366953 -2.91221,-1.484991 -9.32212,-3.572908 -13.84969,-4.511291 -4.048829,-0.83916 -5.051883,-0.946512 -10.053376,-1.075956 -4.820855,-0.124769 -6.080781,-0.06758 -9.52425,0.432345 -2.182641,0.316874 -5.115181,0.866351 -6.516757,1.221058 -18.904988,4.784437 -34.509041,18.958211 -41.056692,37.293405 -2.743288,7.681948 -3.975417,16.394197 -3.367417,23.810625 1.230482,15.009509 6.814547,27.244927 17.43974,38.212757 0.995551,1.02765 1.736588,1.86846 1.646753,1.86846 -0.08984,0 -0.951221,-0.52855 -1.914192,-1.17456 z"
         id="path148" />
      <path
         style="fill:#00ae2b;stroke-width:0.264562"
         d="m 80.304124,116.08245 c -3.168895,-0.25267 -7.116234,-0.72054 -8.862844,-1.0505 -3.67808,-0.69484 -9.222911,-2.32669 -12.236016,-3.60108 l -1.256672,-0.5315 v -9.22711 -9.227111 h 1.410015 c 1.191487,0 1.837279,0.222394 4.16686,1.434969 3.901619,2.030837 7.573342,3.448583 11.51808,4.447422 3.226988,0.817099 3.648322,0.861458 7.906202,0.832393 4.889797,-0.03338 7.228284,-0.455827 9.834825,-1.776661 1.596391,-0.808953 3.644399,-2.962116 4.390647,-4.616089 0.852072,-1.888511 0.965042,-6.001143 0.222752,-8.109076 -0.665449,-1.88972 -1.446872,-2.754641 -3.456346,-3.82568 C 91.319713,79.43496 89.706535,79.180753 82.486764,79.027341 L 75.938842,78.888208 V 71.289814 63.69142 l 5.002893,-0.173974 c 5.797536,-0.201607 8.500412,-0.644752 10.789801,-1.76902 2.814842,-1.382313 4.10456,-3.564734 4.138734,-7.003433 0.01677,-1.688385 -0.0953,-2.338187 -0.554105,-3.212463 -1.171176,-2.231767 -3.711085,-3.741687 -7.263902,-4.318232 -2.148378,-0.348635 -6.742963,-0.346024 -8.938671,0.0051 -4.387586,0.701593 -10.245942,2.95566 -15.061807,5.795196 -1.086169,0.640427 -1.660646,0.813189 -2.500034,0.751832 l -1.089815,-0.07966 -0.06967,-9.109612 c -0.05438,-7.110249 0.0037,-9.157042 0.264563,-9.325726 0.183828,-0.118864 1.77336,-0.687753 3.532293,-1.264198 11.471454,-3.759474 21.833605,-4.778933 32.388844,-3.186509 7.758094,1.17043 13.765074,4.202047 17.270594,8.716154 1.50797,1.941826 1.80131,2.515199 2.71509,5.307047 0.66237,2.023734 0.73783,2.632686 0.75401,6.084938 0.0211,4.497129 -0.30926,6.017109 -2.09865,9.656531 -2.18946,4.453119 -5.85512,7.647645 -10.77387,9.389146 l -1.25698,0.445039 2.71207,0.725481 c 5.01097,1.340435 8.51028,3.912802 11.28254,8.293849 1.37999,2.180818 2.14901,4.999938 2.32655,8.528704 0.40351,8.020514 -2.06486,14.63275 -7.34139,19.66605 -5.04242,4.80998 -11.81141,7.5549 -20.6199,8.36167 -2.790764,0.2556 -8.678282,0.3117 -11.243906,0.10714 z m 14.550937,-1.52015 c 11.683429,-2.02052 19.968579,-8.45624 22.563529,-17.526814 1.90607,-6.662631 1.62236,-11.817216 -0.90629,-16.466103 -2.45747,-4.518005 -6.12143,-7.205121 -11.81501,-8.665014 -2.85473,-0.731984 -2.85672,-0.733058 -2.7779,-1.503604 0.0698,-0.682725 0.24562,-0.823086 1.53395,-1.224753 4.83336,-1.506911 8.75563,-4.872056 10.96127,-9.404331 1.63692,-3.363616 2.11225,-5.771484 1.9282,-9.76759 -0.12845,-2.788668 -0.26337,-3.504839 -1.05867,-5.619521 -2.48301,-6.602258 -8.85559,-10.887445 -18.709423,-12.580994 -4.838313,-0.831547 -14.224298,-0.818962 -19.313062,0.0259 -4.100803,0.680832 -10.535773,2.302586 -13.624969,3.43379 l -2.1165,0.775022 -0.06986,8.361245 c -0.06316,7.559664 -0.02877,8.361246 0.358709,8.361246 0.235712,0 1.354052,-0.520455 2.4852,-1.156566 7.420928,-4.173236 14.168721,-5.98537 20.984759,-5.635496 6.085681,0.312382 9.285032,1.785508 10.964576,5.04859 0.593538,1.153146 0.690865,1.669731 0.677393,3.59541 -0.01979,2.829054 -0.699868,4.737309 -2.273708,6.379858 -2.225299,2.322452 -4.769538,3.040892 -12.292775,3.471232 l -5.357391,0.306448 v 6.521114 6.521111 l 5.886516,0.166788 c 7.88482,0.223405 10.170142,0.706025 12.916415,2.727714 1.277358,0.940337 1.750708,1.497641 2.286465,2.691987 1.302704,2.904076 1.038268,8.745507 -0.497679,10.993855 -2.505216,3.667177 -5.635297,5.17925 -11.948288,5.771946 -7.214323,0.67732 -13.91263,-0.907139 -22.690187,-5.367282 -1.687078,-0.857257 -3.26618,-1.558646 -3.509117,-1.558646 -0.404863,0 -0.435883,0.710345 -0.371898,8.516348 l 0.06981,8.51635 1.587375,0.62199 c 5.363325,2.10157 11.595742,3.45997 19.0485,4.15176 2.553499,0.23702 12.81759,-0.0917 15.080062,-0.48299 z"
         id="path146" />
      <path
         style="fill:#146a27;stroke-width:0.264562"
         d="m 44.700047,118.4588 c -5.417682,-4.48409 -11.296714,-11.89723 -14.504374,-18.28924 -4.459426,-8.886446 -6.458947,-17.267058 -6.45084,-27.037473 0.0048,-5.739559 0.50528,-9.704499 1.892543,-14.992111 C 31.064,37.456164 47.378104,21.289511 68.134249,16.027193 c 5.358621,-1.358574 8.412024,-1.72811 14.418656,-1.745006 10.115068,-0.02845 18.067645,1.847125 27.117655,6.395574 3.24936,1.633095 9.60712,5.764362 9.31719,6.054295 -0.0609,0.06085 -0.81301,-0.317837 -1.67145,-0.841536 -9.12517,-5.566888 -21.356439,-8.694082 -32.219489,-8.237629 -15.353356,0.645133 -29.058775,6.599382 -39.712123,17.252729 -9.001992,9.001994 -14.614253,20.099086 -16.723609,33.067498 -0.735001,4.518818 -0.66119,13.407461 0.150489,18.122531 2.108457,12.248109 7.384835,22.823081 15.605652,31.277011 1.926749,1.98138 2.081229,2.57463 0.282827,1.08614 z m 33.752139,-1.57219 c -7.222006,-0.72229 -13.273881,-2.10312 -18.655445,-4.2565 l -2.509555,-1.00418 -0.06986,-9.78881 c -0.07952,-11.141932 -0.226087,-10.450221 2.214328,-10.450221 1.167524,0 1.797786,0.222918 4.062354,1.436821 5.267471,2.82358 10.955594,4.746338 16.087556,5.438085 1.594979,0.214988 3.064261,0.216756 5.423531,0.0065 5.305423,-0.472776 7.699256,-1.391358 9.899429,-3.7987 1.644754,-1.799623 2.071104,-3.152675 2.055108,-6.522034 -0.01355,-2.85496 -0.490699,-4.133765 -2.026826,-5.432095 -2.208652,-1.866748 -4.8699,-2.399273 -13.260555,-2.653477 L 75.36806,79.671006 75.124329,79.029939 c -0.134054,-0.352577 -0.243734,-3.966792 -0.243734,-8.031583 0,-6.856976 0.03559,-7.426116 0.492947,-7.883473 0.4393,-0.439301 1.094309,-0.508378 6.018796,-0.634741 4.435531,-0.113815 5.93636,-0.250842 7.606347,-0.694466 4.015754,-1.066772 5.98866,-3.347663 5.98866,-6.92354 0,-2.178484 -0.453137,-3.319508 -1.802366,-4.538456 -1.432675,-1.294335 -3.600645,-2.03556 -6.990339,-2.389981 -6.451671,-0.674579 -14.025929,1.393636 -21.896545,5.979031 -1.305703,0.760699 -3.847691,0.979458 -4.44465,0.382499 -0.235254,-0.235254 -0.317475,-2.802852 -0.317475,-9.9143 v -9.596825 l 0.727547,-0.367434 c 2.391717,-1.207894 10.876252,-3.539745 16.204453,-4.453558 3.15766,-0.541555 4.399461,-0.610448 10.714782,-0.594443 6.087892,0.01543 7.593457,0.100907 10.191021,0.578591 10.525517,1.93561 17.484977,6.810197 19.793347,13.863783 1.91979,5.866229 1.66332,11.386111 -0.76717,16.51151 -1.86755,3.938261 -5.08468,7.412922 -8.3829,9.053934 -0.76393,0.380089 -1.38896,0.760628 -1.38896,0.845645 0,0.08502 0.5125,0.291651 1.13888,0.459183 1.42401,0.380864 4.06588,1.861877 5.84113,3.274498 6.64443,5.287168 8.70778,14.747454 5.39084,24.716598 -3.0467,9.156929 -11.38988,15.506159 -23.345505,17.766089 -2.045188,0.38659 -14.557224,0.71254 -17.201246,0.4481 z m 13.095844,-0.9113 c 11.30704,-1.03561 19.79876,-5.5515 24.41211,-12.98234 4.30826,-6.939429 4.87189,-17.807093 1.22263,-23.574087 -2.77226,-4.381047 -6.27157,-6.953414 -11.28254,-8.293849 l -2.71207,-0.725481 1.25698,-0.445039 c 4.91875,-1.741501 8.58441,-4.936027 10.77387,-9.389146 1.78939,-3.639422 2.11973,-5.159402 2.09865,-9.656531 -0.0162,-3.452252 -0.0916,-4.061204 -0.75401,-6.084938 -0.91378,-2.791848 -1.20712,-3.365221 -2.71509,-5.307047 -3.50552,-4.514107 -9.5125,-7.545724 -17.270594,-8.716154 -10.555239,-1.592424 -20.91739,-0.572965 -32.388844,3.186509 -1.758933,0.576445 -3.348465,1.145334 -3.532293,1.264198 -0.260877,0.168684 -0.318943,2.215477 -0.264563,9.325726 l 0.06967,9.109612 1.089815,0.07966 c 0.839388,0.06136 1.413865,-0.111405 2.500034,-0.751832 4.815865,-2.839536 10.674221,-5.093603 15.061807,-5.795196 2.195708,-0.351104 6.790293,-0.353715 8.938671,-0.0051 3.552817,0.576545 6.092726,2.086465 7.263902,4.318232 0.458801,0.874276 0.57088,1.524078 0.554105,3.212463 -0.03417,3.438699 -1.323892,5.62112 -4.138734,7.003433 -2.289389,1.124268 -4.992265,1.567413 -10.789801,1.76902 l -5.002893,0.173974 v 7.598394 7.598394 l 6.547922,0.139133 c 7.219771,0.153412 8.832949,0.407619 11.454863,1.805086 2.009474,1.071039 2.790897,1.93596 3.456346,3.82568 0.74229,2.107933 0.62932,6.220565 -0.222752,8.109076 -0.746248,1.653973 -2.794256,3.807136 -4.390647,4.616089 -2.606541,1.320834 -4.945028,1.743282 -9.834825,1.776661 -4.25788,0.02907 -4.679214,-0.01529 -7.906202,-0.832393 -3.944738,-0.998839 -7.616461,-2.416585 -11.51808,-4.447422 -2.329581,-1.212575 -2.975373,-1.434969 -4.16686,-1.434969 h -1.410015 v 9.227114 9.22711 l 1.256672,0.5315 c 3.013105,1.27439 8.557936,2.90624 12.236016,3.60108 1.74661,0.32996 5.693949,0.79783 8.862844,1.0505 2.565624,0.20456 8.453142,0.14846 11.243906,-0.10714 z m -11.773031,-0.93002 c -7.452758,-0.69179 -13.685175,-2.05019 -19.0485,-4.15176 l -1.587375,-0.62199 -0.06981,-8.51635 c -0.06399,-7.806008 -0.03296,-8.516353 0.371898,-8.516353 0.242937,0 1.822039,0.701389 3.509117,1.558646 8.777557,4.460143 15.475864,6.044607 22.690187,5.367287 6.312991,-0.592701 9.443072,-2.104774 11.948288,-5.771951 1.535947,-2.248348 1.800383,-8.089779 0.497679,-10.993855 -0.535757,-1.194346 -1.009107,-1.75165 -2.286465,-2.691987 -2.746268,-2.021689 -5.03159,-2.504309 -12.91641,-2.727714 L 76.997092,77.812475 V 71.291364 64.77025 l 5.357391,-0.306448 c 7.523237,-0.43034 10.067476,-1.14878 12.292775,-3.471232 1.57384,-1.642549 2.253919,-3.550804 2.273708,-6.379858 0.01347,-1.925679 -0.08386,-2.442264 -0.677393,-3.59541 -1.679544,-3.263082 -4.878895,-4.736208 -10.964576,-5.04859 -6.816038,-0.349874 -13.563831,1.46226 -20.984759,5.635496 -1.131148,0.636111 -2.249488,1.156566 -2.4852,1.156566 -0.387481,0 -0.421868,-0.801582 -0.358709,-8.361246 l 0.06986,-8.361244 2.1165,-0.775023 c 3.089196,-1.131204 9.524166,-2.752958 13.624969,-3.43379 5.088764,-0.844857 14.474749,-0.857442 19.313062,-0.0259 9.85383,1.693549 16.22641,5.978736 18.70942,12.580994 0.7953,2.114682 0.93022,2.830853 1.05867,5.619522 0.18405,3.996105 -0.29128,6.403973 -1.9282,9.767589 -2.20564,4.532276 -6.12791,7.897421 -10.96127,9.404332 -1.28833,0.401666 -1.46413,0.542027 -1.53395,1.224752 -0.0788,0.770546 -0.0768,0.77162 2.7779,1.503604 5.69358,1.459893 9.35754,4.147009 11.81501,8.665015 2.52865,4.648886 2.81236,9.803471 0.90629,16.466102 -2.59495,9.070569 -10.8801,15.506289 -22.563526,17.526809 -2.262472,0.39127 -12.526563,0.72001 -15.080062,0.48299 z m 10.317937,-0.9198 c 6.941903,-0.51766 11.702434,-1.91128 16.715304,-4.89331 4.50347,-2.67899 8.09043,-7.15743 9.61188,-12.000733 2.95599,-9.409921 0.76439,-17.454108 -5.9852,-21.968513 -1.92744,-1.289152 -3.14104,-1.757534 -7.37842,-2.847655 l -1.85194,-0.476435 -0.0785,-1.344956 c -0.0894,-1.532222 0.0537,-1.707945 1.79815,-2.207978 2.62185,-0.751535 5.30137,-2.374523 7.37979,-4.469948 4.06963,-4.102914 5.84516,-9.428182 5.07446,-15.219611 -0.78778,-5.919851 -3.9444,-10.247746 -9.46257,-12.973715 -4.46416,-2.205288 -8.402152,-3.120881 -15.515442,-3.607375 -7.749191,-0.529985 -16.152043,0.681491 -25.242537,3.639329 l -2.976329,0.968429 v 7.462875 7.462874 l 4.299141,-2.162359 c 8.317554,-4.183522 15.813504,-5.4721 23.08061,-3.967634 3.575022,0.740117 6.174336,2.461916 7.482954,4.956748 0.647652,1.234721 0.713354,1.625964 0.71697,4.26947 0.0035,2.599729 -0.07075,3.069592 -0.696569,4.404426 -1.382657,2.949131 -4.081615,4.795865 -8.239172,5.637565 -1.133603,0.2295 -4.080168,0.493502 -6.547922,0.586673 l -4.486824,0.169402 v 5.745025 5.745022 l 6.018797,0.143327 c 4.178667,0.0995 6.525156,0.270835 7.675029,0.560396 3.761616,0.947247 6.706117,3.154302 7.679644,5.756285 1.12743,3.013314 0.9921,7.567463 -0.309252,10.407129 -0.931065,2.031666 -3.071336,4.195009 -5.207614,5.263746 -3.015455,1.508571 -5.179928,1.878431 -10.962198,1.873221 -4.776874,-0.004 -5.194803,-0.0469 -8.409455,-0.85639 -3.766698,-0.948534 -8.052317,-2.611473 -11.801474,-4.5793 -1.366883,-0.717438 -2.527651,-1.304433 -2.579485,-1.304433 -0.05183,0 -0.09424,3.43959 -0.09424,7.643533 v 7.64353 l 2.711766,0.95664 c 5.79132,2.04302 11.536361,3.18761 17.924109,3.57105 5.24319,0.31474 5.611855,0.31526 9.656531,0.0136 z"
         id="path144" />
      <path
         style="fill:#482d18;stroke-width:0.264562"
         d="m 47.067782,120.29035 c -0.329081,-0.41961 -0.319723,-0.42897 0.09989,-0.0999 0.254641,0.19971 0.462984,0.40805 0.462984,0.46299 0,0.21774 -0.217256,0.0776 -0.562873,-0.3631 z M 119.32709,27.362774 c -0.7357,-0.40278 -0.81208,-0.509225 -0.37171,-0.518035 0.30485,-0.0061 0.76975,0.227017 1.03312,0.518035 0.58381,0.645108 0.51692,0.645108 -0.66141,0 z"
         id="path142" />
    </g>
  </g>
</svg>
