<?xml version="1.0" encoding="UTF-8" standalone="no"?>
<svg
   xmlns:dc="http://purl.org/dc/elements/1.1/"
   xmlns:cc="http://creativecommons.org/ns#"
   xmlns:rdf="http://www.w3.org/1999/02/22-rdf-syntax-ns#"
   xmlns:svg="http://www.w3.org/2000/svg"
   xmlns="http://www.w3.org/2000/svg"
   xmlns:sodipodi="http://sodipodi.sourceforge.net/DTD/sodipodi-0.dtd"
   xmlns:inkscape="http://www.inkscape.org/namespaces/inkscape"
   width="210mm"
   height="297mm"
   viewBox="0 0 210 297"
   version="1.1"
   id="svg8"
   inkscape:version="1.0.1 (3bc2e813f5, 2020-09-07)"
   sodipodi:docname="04v.svg">
  <defs
     id="defs2">
    <pattern
       id="EMFhbasepattern"
       patternUnits="userSpaceOnUse"
       width="6"
       height="6"
       x="0"
       y="0" />
    <pattern
       id="EMFhbasepattern-8"
       patternUnits="userSpaceOnUse"
       width="6"
       height="6"
       x="0"
       y="0" />
    <pattern
       id="EMFhbasepattern-9"
       patternUnits="userSpaceOnUse"
       width="6"
       height="6"
       x="0"
       y="0" />
    <pattern
       id="EMFhbasepattern-1"
       patternUnits="userSpaceOnUse"
       width="6"
       height="6"
       x="0"
       y="0" />
  </defs>
  <sodipodi:namedview
     id="base"
     pagecolor="#ffffff"
     bordercolor="#666666"
     borderopacity="1.0"
     inkscape:pageopacity="0.0"
     inkscape:pageshadow="2"
     inkscape:zoom="1.0636576"
     inkscape:cx="351.05133"
     inkscape:cy="270.29157"
     inkscape:document-units="mm"
     inkscape:current-layer="layer1"
     inkscape:document-rotation="0"
     showgrid="false"
     inkscape:window-width="1920"
     inkscape:window-height="1017"
     inkscape:window-x="-8"
     inkscape:window-y="-8"
     inkscape:window-maximized="1" />
  <metadata
     id="metadata5">
    <rdf:RDF>
      <cc:Work
         rdf:about="">
        <dc:format>image/svg+xml</dc:format>
        <dc:type
           rdf:resource="http://purl.org/dc/dcmitype/StillImage" />
        <dc:title></dc:title>
      </cc:Work>
    </rdf:RDF>
  </metadata>
  <g
     inkscape:label="Warstwa 1"
     inkscape:groupmode="layer"
     id="layer1">
    <g
       id="g169"
       transform="translate(-33.8932,-28.752784)">
      <path
         style="fill:#c5b9f2;stroke-width:0.264562"
         d="m 96.647662,132.62332 c -0.09701,-0.097 -0.176376,-4.38208 -0.176376,-9.52239 v -9.34601 l -17.791828,-0.068 -17.791828,-0.068 -0.06988,-8.07775 -0.06988,-8.077743 17.65905,-23.735894 17.659047,-23.735891 h 10.652873 10.65288 V 73.92917 97.866709 l 5.48968,0.07151 5.48967,0.07151 v 7.804591 7.80459 l -5.48967,0.0715 -5.48968,0.0715 v 9.51888 9.51888 h -10.27384 c -5.65061,0 -10.35321,-0.0794 -10.450215,-0.17637 z m 19.728658,-10.2077 0.0694,-9.59039 5.48967,-0.0715 5.48967,-0.0715 v -6.86789 -6.86789 l -5.48967,-0.07151 -5.48967,-0.07151 -0.0676,-23.876765 -0.0675,-23.876766 -9.85355,0.0095 -9.853542,0.0095 -17.527266,23.584888 -17.527266,23.584889 v 7.227124 7.22712 h 17.990251 17.990249 v 9.65653 9.65653 h 9.388674 9.38866 l 0.0695,-9.59039 z M 75.967693,98.671132 c -0.08993,-0.145509 -0.07245,-0.413379 0.03886,-0.595266 1.193103,-1.949775 20.865171,-27.977484 21.145729,-27.977484 0.32202,0 0.377258,2.111137 0.377258,14.418656 V 98.935694 H 86.83037 c -6.847399,0 -10.758032,-0.09524 -10.862677,-0.264562 z m 20.503593,-13.5456 c 0,-7.013552 -0.099,-12.638812 -0.220002,-12.500578 -0.585074,0.668399 -18.563935,24.987859 -18.563935,25.110875 0,0.07789 4.226386,0.141615 9.391969,0.141615 h 9.391968 z"
         id="path183" />
      <path
         style="fill:#b0acf7;stroke-width:0.264562"
         d="m 62.668961,104.90379 0.07061,-6.730911 17.196562,-23.150367 17.196563,-23.150364 9.193544,-0.01429 9.19355,-0.01429 -0.004,10.251797 -0.004,10.251797 -8.39539,9.350525 -8.395379,9.350525 -0.132282,-10.594228 c -0.09139,-7.319463 -0.224105,-10.68597 -0.429342,-10.89103 -0.163386,-0.16324 -0.692434,-0.258369 -1.175668,-0.211391 -0.827012,0.0804 -1.496763,0.91659 -11.405131,14.239506 -10.536291,14.167223 -11.06048,14.978803 -10.218446,15.820837 0.232241,0.232241 2.364869,0.317475 7.943367,0.317475 h 7.625893 l -5.345105,5.952659 -5.345104,5.95265 h -8.819948 -8.819947 z"
         id="path181" />
      <path
         style="fill:#f05094;stroke-width:0.264562"
         d="m 86.814755,146.54778 c -6.46986,-0.73363 -14.342973,-3.04351 -20.371312,-5.9767 -2.797979,-1.3614 -3.469264,-1.82787 -5.656384,-3.93051 -9.292926,-8.93399 -15.096688,-19.96371 -17.403866,-33.07503 -0.60747,-3.45216 -0.697994,-4.691227 -0.695825,-9.524252 0.0027,-6.047629 0.461461,-9.794675 1.846235,-15.080062 5.424114,-20.702685 21.903464,-36.99376 42.677996,-42.190407 13.662901,-3.417707 27.698391,-1.897897 40.740571,4.411523 3.52048,1.703104 3.61343,1.770965 6.76287,4.937361 9.07806,9.126937 14.66744,20.350805 16.68412,33.502929 0.68868,4.491337 0.6236,12.4972 -0.13864,17.055249 -1.08115,6.465039 -2.57342,11.296519 -5.15076,16.676469 -8.31071,17.34783 -24.51569,29.44588 -43.8181,32.71297 -3.513256,0.59465 -12.114961,0.86168 -15.476905,0.48046 z m 31.203375,-13.27783 c 0.3533,-0.50441 0.41184,-1.87698 0.41184,-9.65653 v -9.06854 h 5.10606 c 3.61863,0 5.19854,-0.0925 5.42353,-0.31747 0.45381,-0.45381 0.45381,-16.372369 0,-16.826178 -0.22499,-0.224992 -1.8049,-0.317475 -5.42353,-0.317475 h -5.10606 V 73.537694 c 0,-23.193312 -0.008,-23.553989 -0.52912,-24.075187 -0.51162,-0.511623 -0.88188,-0.529125 -11.19334,-0.529125 -8.12902,0 -10.764944,0.07862 -11.087924,0.330703 -0.353321,0.275764 -24.562888,32.676559 -33.327843,44.604206 l -2.594644,3.530877 v 8.157112 c 0,7.06281 0.05577,8.21289 0.415741,8.57286 0.369602,0.3696 2.366173,0.41574 17.99025,0.41574 h 17.574509 v 9.17272 c 0,8.16404 0.04815,9.22592 0.437848,9.65653 0.410204,0.45327 1.102438,0.48381 10.964343,0.48381 h 10.52649 z M 79.472074,96.753054 c 0.144176,-0.181887 3.745494,-5.033302 8.002923,-10.780922 4.257433,-5.74762 7.844694,-10.563319 7.971694,-10.701553 0.131829,-0.143491 0.230908,4.482437 0.230908,10.780922 v 11.032256 h -8.233831 c -6.550498,0 -8.18024,-0.06761 -7.971694,-0.330703 z"
         id="path179" />
      <path
         style="fill:#665ded;stroke-width:0.264562"
         d="m 98.587786,121.87092 c 0,-7.4184 -0.06856,-9.17068 -0.37525,-9.59039 -0.354794,-0.48556 -0.851801,-0.52076 -9.117966,-0.64584 l -8.742719,-0.13228 5.289421,-5.88651 5.289422,-5.886518 h 3.554675 c 3.243637,0 3.578639,-0.04478 3.828548,-0.511733 0.150724,-0.281634 0.278224,-2.214724 0.283552,-4.29914 l 0.0097,-3.787408 8.390171,-9.33322 8.39018,-9.33322 0.0686,13.277527 c 0.0479,9.268629 0.15752,13.384661 0.36309,13.63236 0.2282,0.27496 1.47828,0.354834 5.55334,0.354834 h 5.25886 v 5.952658 5.95265 h -5.11796 c -4.62221,0 -5.16038,0.0469 -5.55582,0.48382 -0.3897,0.43061 -0.43784,1.49249 -0.43784,9.65653 v 9.17272 h -8.466 -8.466 z"
         id="path177" />
      <path
         style="fill:#d72f77;stroke-width:0.264562"
         d="m 59.82938,136.74312 c -3.295321,-2.21879 -8.500893,-7.97601 -11.948702,-13.21494 -4.444258,-6.75303 -7.335595,-14.09553 -8.857049,-22.49231 -0.807147,-4.454583 -0.883198,-14.415462 -0.144302,-18.899894 3.553707,-21.56776 17.917836,-38.99534 38.278897,-46.44267 14.196291,-5.192484 30.018036,-4.656155 43.981546,1.490896 2.74078,1.206552 7.98372,4.054041 7.80098,4.236782 -0.06,0.06002 -1.11016,-0.352609 -2.33363,-0.91696 -21.63765,-9.980807 -46.949074,-6.175964 -64.530816,9.700347 -10.151261,9.166586 -16.475946,20.881094 -18.81115,34.841792 -0.880742,5.265405 -0.830626,13.128258 0.118039,18.519377 2.22017,12.61687 7.386258,22.79333 16.150224,31.81364 1.307711,1.34596 2.266435,2.44395 2.130498,2.43997 -0.135938,-0.004 -0.961479,-0.48819 -1.834535,-1.07603 z"
         id="path175" />
      <path
         style="fill:#b72b67;stroke-width:0.264562"
         d="m 55.993224,133.95089 c -3.403398,-2.81288 -5.462016,-4.82585 -7.916203,-7.74071 C 40.796919,117.56357 36.42118,108.0722 34.527109,96.819194 33.68725,91.829448 33.681218,83.992495 34.513263,78.828944 c 3.09688,-19.218796 14.80867,-35.251256 32.094769,-43.935053 13.992312,-7.029139 30.942569,-8.082999 45.958638,-2.857418 3.13359,1.090487 9.17461,4.076202 12.19763,6.02856 2.359,1.523507 6.36467,4.462769 6.36467,4.67023 0,0.160882 -1.97843,-1.046352 -2.07137,-1.263947 -0.1511,-0.353754 -5.2314,-3.104487 -7.91783,-4.287114 C 99.694597,27.743557 74.841725,31.795879 57.501445,47.560589 47.5992,56.5631 41.106756,68.617515 38.879327,82.135976 c -0.738896,4.484432 -0.662845,14.445311 0.144302,18.899894 2.242256,12.37484 7.554807,22.72059 16.276788,31.69768 1.307711,1.34597 2.325962,2.44108 2.262779,2.43358 -0.06318,-0.007 -0.76967,-0.5548 -1.569972,-1.21624 z"
         id="path173" />
      <path
         style="fill:#3905f8;stroke-width:0.264562"
         d="m 96.115447,133.37413 c -0.3897,-0.43061 -0.437848,-1.49249 -0.437848,-9.65653 v -9.17272 H 78.10309 c -15.624077,0 -17.620648,-0.0461 -17.99025,-0.41574 -0.359969,-0.35997 -0.415741,-1.51005 -0.415741,-8.57286 v -8.157112 l 2.594644,-3.530877 C 71.056698,81.940644 95.266265,49.539849 95.619586,49.264085 95.942566,49.012 98.57849,48.933382 106.70751,48.933382 c 10.31146,0 10.68172,0.0175 11.19334,0.529125 0.5212,0.521198 0.52912,0.881875 0.52912,24.075187 v 23.546063 h 5.10606 c 3.61863,0 5.19854,0.09248 5.42353,0.317475 0.45381,0.453809 0.45381,16.372368 0,16.826178 -0.22499,0.22499 -1.8049,0.31747 -5.42353,0.31747 h -5.10606 v 9.06854 c 0,7.77955 -0.0585,9.15212 -0.41184,9.65653 l -0.41185,0.58799 h -10.52649 c -9.861905,0 -10.554139,-0.0305 -10.964343,-0.48381 z m 21.256273,-10.09332 v -9.51888 l 5.48968,-0.0715 5.48967,-0.0715 v -7.80459 -7.804594 l -5.48967,-0.07151 -5.48968,-0.07151 V 73.92917 49.991632 H 106.71884 96.065964 l -17.659047,23.735891 -17.65905,23.735894 0.06988,8.077743 0.06988,8.07775 17.791828,0.068 17.791828,0.068 v 9.34601 c 0,5.14031 0.07937,9.42538 0.176376,9.52239 0.09701,0.097 4.799611,0.17637 10.450221,0.17637 h 10.27384 z m -19.842184,-0.93133 v -9.65654 H 79.539287 61.549036 v -7.22712 -7.227121 L 79.076302,74.65381 96.603568,51.068923 l 9.853542,-0.0095 9.85355,-0.0095 0.0675,23.876766 0.0676,23.876765 5.48967,0.07151 5.48967,0.07151 v 6.867886 6.86789 l -5.48967,0.0715 -5.48967,0.0715 -0.0694,9.59039 -0.0695,9.59039 h -9.38866 -9.388674 v -9.65653 z m 17.990254,-0.57444 c 0,-8.16404 0.0481,-9.22592 0.43784,-9.65653 0.39544,-0.43695 0.93361,-0.48382 5.55582,-0.48382 h 5.11796 v -5.95265 -5.952658 h -5.23834 c -3.72151,0 -5.33026,-0.09193 -5.55581,-0.317475 -0.24218,-0.242186 -0.31747,-5.920321 -0.31747,-23.942906 V 51.843569 l -9.19355,0.01429 -9.193547,0.01429 -17.196563,23.150365 -17.196562,23.150367 -0.07061,6.730909 -0.07061,6.73091 h 17.465591 c 17.112841,0 17.476276,0.0107 17.994715,0.52912 0.508677,0.50868 0.529125,0.88188 0.529125,9.65654 v 9.1274 h 8.466001 8.466 v -9.17271 z M 75.359199,99.411907 C 74.517165,98.569873 75.041354,97.758293 85.577645,83.59107 95.579729,70.142143 96.148981,69.432642 97.003597,69.350011 c 1.630745,-0.157676 1.584189,-0.601506 1.584189,15.102704 0,9.319159 -0.0948,14.43035 -0.273869,14.764934 -0.264137,0.493544 -0.67132,0.511733 -11.455557,0.511733 -8.344118,0 -11.262251,-0.08057 -11.499161,-0.317475 z M 97.529536,84.517038 c 0,-12.307519 -0.05524,-14.418656 -0.377258,-14.418656 -0.280558,0 -19.952626,26.027709 -21.145729,27.977484 -0.111301,0.181887 -0.128786,0.449757 -0.03886,0.595266 0.104645,0.169317 4.015278,0.264562 10.862677,0.264562 h 10.69917 z M 77.687349,97.735829 c 0,-0.123016 17.978861,-24.442476 18.563935,-25.110875 0.121001,-0.138234 0.220002,5.487026 0.220002,12.500578 v 12.751912 h -9.391968 c -5.165583,0 -9.391969,-0.06373 -9.391969,-0.141615 z m 17.99025,-11.684328 c 0,-6.298485 -0.09908,-10.924413 -0.230908,-10.780922 -0.127,0.138234 -3.714261,4.953933 -7.971694,10.701553 -4.257429,5.74762 -7.858747,10.599035 -8.002923,10.780922 -0.208546,0.263094 1.421196,0.330703 7.971694,0.330703 h 8.233831 z"
         id="path171" />
    </g>
  </g>
</svg>
