<?xml version="1.0" encoding="UTF-8" standalone="no"?>
<svg
   xmlns:dc="http://purl.org/dc/elements/1.1/"
   xmlns:cc="http://creativecommons.org/ns#"
   xmlns:rdf="http://www.w3.org/1999/02/22-rdf-syntax-ns#"
   xmlns:svg="http://www.w3.org/2000/svg"
   xmlns="http://www.w3.org/2000/svg"
   xmlns:sodipodi="http://sodipodi.sourceforge.net/DTD/sodipodi-0.dtd"
   xmlns:inkscape="http://www.inkscape.org/namespaces/inkscape"
   width="210mm"
   height="297mm"
   viewBox="0 0 210 297"
   version="1.1"
   id="svg8"
   inkscape:version="1.0.1 (3bc2e813f5, 2020-09-07)"
   sodipodi:docname="05v.svg">
  <defs
     id="defs2">
    <pattern
       id="EMFhbasepattern"
       patternUnits="userSpaceOnUse"
       width="6"
       height="6"
       x="0"
       y="0" />
    <pattern
       id="EMFhbasepattern-8"
       patternUnits="userSpaceOnUse"
       width="6"
       height="6"
       x="0"
       y="0" />
    <pattern
       id="EMFhbasepattern-9"
       patternUnits="userSpaceOnUse"
       width="6"
       height="6"
       x="0"
       y="0" />
    <pattern
       id="EMFhbasepattern-1"
       patternUnits="userSpaceOnUse"
       width="6"
       height="6"
       x="0"
       y="0" />
    <pattern
       id="EMFhbasepattern-3"
       patternUnits="userSpaceOnUse"
       width="6"
       height="6"
       x="0"
       y="0" />
  </defs>
  <sodipodi:namedview
     id="base"
     pagecolor="#ffffff"
     bordercolor="#666666"
     borderopacity="1.0"
     inkscape:pageopacity="0.0"
     inkscape:pageshadow="2"
     inkscape:zoom="1.0636576"
     inkscape:cx="351.05133"
     inkscape:cy="270.29157"
     inkscape:document-units="mm"
     inkscape:current-layer="layer1"
     inkscape:document-rotation="0"
     showgrid="false"
     inkscape:window-width="1920"
     inkscape:window-height="1017"
     inkscape:window-x="-8"
     inkscape:window-y="-8"
     inkscape:window-maximized="1" />
  <metadata
     id="metadata5">
    <rdf:RDF>
      <cc:Work
         rdf:about="">
        <dc:format>image/svg+xml</dc:format>
        <dc:type
           rdf:resource="http://purl.org/dc/dcmitype/StillImage" />
        <dc:title></dc:title>
      </cc:Work>
    </rdf:RDF>
  </metadata>
  <g
     inkscape:label="Warstwa 1"
     inkscape:groupmode="layer"
     id="layer1">
    <g
       id="g198"
       transform="translate(-46.811503,-28.965028)">
      <path
         style="fill:#a5a0f7;stroke-width:0.264562"
         d="m 99.749682,146.77806 c -9.270267,-1.05634 -20.755999,-5.12015 -25.143017,-8.89593 -1.02164,-0.8793 -3.103511,-3.05906 -4.626383,-4.8439 C 62.569568,124.35266 58.221614,115.1704 56.197413,103.93075 55.391352,99.454992 55.320423,90.044922 56.057822,85.411377 58.076066,72.729473 63.792616,61.473183 72.778379,52.487418 83.344072,41.921726 96.969503,35.96457 112.21044,35.247383 c 9.19452,-0.432663 19.78277,1.861239 28.75482,6.22962 3.04957,1.484799 3.41552,1.750887 6.28086,4.566847 9.37971,9.218085 15.32623,21.308366 17.07344,34.713185 0.5436,4.170552 0.40318,12.633502 -0.27476,16.559654 -2.20472,12.768271 -7.63229,23.379381 -16.50413,32.266251 -9.06549,9.08083 -19.85098,14.63788 -32.44636,16.71745 -3.64902,0.60248 -11.97485,0.86166 -15.344628,0.47767 z m 13.095848,-13.07523 c 4.90447,-0.52508 8.2518,-1.42512 11.89774,-3.19911 4.6883,-2.28116 7.3824,-4.31641 10.21504,-7.71687 1.50203,-1.80314 3.89356,-5.80117 4.55343,-7.61219 0.70569,-1.9368 1.61074,-6.05102 1.90197,-8.64614 0.67752,-6.03718 -0.67209,-13.374174 -3.22742,-17.545549 -2.43274,-3.971255 -5.15292,-6.508494 -9.19391,-8.575606 -5.34802,-2.735693 -10.73753,-3.813102 -18.9909,-3.796432 l -5.35739,0.01082 v -5.26172 -5.26172 h 16.74085 c 14.72359,0 16.81171,-0.04963 17.32884,-0.411844 0.58662,-0.410881 0.588,-0.431501 0.588,-8.809931 0,-6.179096 -0.0839,-8.481972 -0.31748,-8.715562 -0.46067,-0.460669 -55.785317,-0.460669 -56.245986,0 -0.24221,0.242209 -0.317475,5.947648 -0.317475,24.06588 0,23.208581 0.01164,23.754628 0.511732,24.022275 0.836198,0.447518 2.362403,0.319888 6.391227,-0.534477 5.811494,-1.232401 10.904522,-1.66617 15.301162,-1.303187 4.1709,0.344349 6.44834,0.843711 8.49611,1.862906 3.7975,1.890053 5.45868,5.312207 4.76448,9.815197 -0.91152,5.91261 -4.95069,8.66592 -13.39446,9.13033 -3.63163,0.19974 -6.29998,-0.16816 -10.234836,-1.41113 -3.456295,-1.09179 -6.317607,-2.34369 -9.409078,-4.1167 -1.943215,-1.11447 -2.386777,-1.26376 -3.755013,-1.26376 -2.470857,0 -2.3752,-0.41673 -2.3752,10.3475 0,8.34405 0.04177,9.22227 0.462985,9.73418 0.946742,1.15057 10.016035,3.85113 15.675328,4.66763 6.291664,0.90773 12.676354,1.09413 17.990254,0.52521 z"
         id="path212" />
      <path
         style="fill:#9dd3ae;stroke-width:0.264562"
         d="m 81.627151,118.63731 v -7.25214 l 3.817507,1.89474 c 2.099629,1.04211 3.825899,1.9799 3.836156,2.08398 0.02105,0.21359 -7.367446,10.52555 -7.541533,10.52555 -0.06167,0 -0.11213,-3.26346 -0.11213,-7.25213 z M 85.066463,72.050971 V 50.489127 h 25.561687 25.56168 l -0.64207,0.859828 c -0.35314,0.472906 -2.41438,3.330181 -4.58054,6.3495 l -3.93847,5.489672 h -12.23169 c -10.76695,0 -12.28146,0.04978 -12.64742,0.415741 -0.35805,0.358049 -0.41574,1.438488 -0.41574,7.785697 0,6.453901 0.0535,7.423457 0.43043,7.800384 0.37921,0.379211 1.03243,0.411458 5.48967,0.271007 2.78259,-0.08768 5.602,-0.06453 6.26537,0.05145 l 1.20612,0.210875 -4.27452,5.922396 -4.27454,5.922395 -4.33934,-0.04406 c -4.789752,-0.04863 -9.134644,0.39941 -13.932157,1.436665 -1.658931,0.358672 -3.066239,0.65213 -3.127353,0.65213 -0.06111,0 -0.111117,-9.702829 -0.111117,-21.561843 z"
         id="path210" />
      <path
         style="fill:#80cecf;stroke-width:0.264562"
         d="m 98.42687,132.74753 c -5.281737,-0.5374 -11.930703,-2.09219 -16.574052,-3.87566 l -1.945323,-0.74718 v -9.3852 -9.38521 l 1.094796,-0.0799 c 0.917358,-0.067 1.512835,0.1556 3.674117,1.37319 7.381723,4.15858 15.004795,6.13514 21.029502,5.45265 6.18565,-0.70072 9.21237,-2.10507 11.40304,-5.29084 1.38975,-2.02104 1.91851,-4.13079 1.76828,-7.05537 -0.15918,-3.09841 -0.846,-4.665355 -2.86376,-6.533439 -2.5954,-2.402886 -6.34435,-3.521842 -12.71673,-3.795583 -4.242733,-0.182257 -8.042845,0.172524 -13.53838,1.263948 -2.148509,0.426699 -4.500454,0.775816 -5.226546,0.775816 H 83.21165 l 0.06758,-23.347641 0.06758,-23.34764 h 27.5145 27.5145 v 8.069156 8.069156 l -17.39499,0.06804 -17.39498,0.06804 1.4e-4,6.281457 1.4e-4,6.281457 6.28322,0.0057 c 8.83332,0.008 13.10793,0.818972 18.45309,3.500837 6.80688,3.415258 10.59028,8.77389 11.9256,16.890852 0.61792,3.756124 0.4005,9.033334 -0.53847,13.069774 -1.89667,8.15334 -7.29918,14.81269 -14.95872,18.4387 -5.77687,2.73476 -8.70325,3.30525 -17.46113,3.40404 -3.56498,0.0402 -7.553253,-0.0359 -8.862837,-0.16915 z m 15.1372,-1.05963 c 7.78086,-0.91386 15.36862,-4.79215 19.75354,-10.0965 3.94794,-4.77575 5.90531,-10.20966 6.17289,-17.13672 0.17686,-4.578504 -0.28665,-7.871897 -1.5985,-11.357889 -1.76448,-4.68882 -5.1947,-8.539983 -9.60897,-10.78815 -5.69833,-2.902134 -9.11832,-3.575824 -18.61225,-3.66635 l -7.01091,-0.06685 -0.0706,-6.933632 c -0.0498,-4.893388 0.0181,-7.040498 0.23082,-7.296814 0.24984,-0.30104 3.23833,-0.363184 17.46558,-0.363184 h 17.16417 V 56.838627 49.695439 H 110.86131 84.272776 v 22.522428 22.522428 l 0.859828,-0.15997 c 0.472906,-0.08798 2.583929,-0.517685 4.691167,-0.954896 9.777619,-2.02866 19.634389,-1.584526 24.694939,1.112721 1.96894,1.049432 4.1252,3.409178 4.81492,5.26929 0.69431,1.87252 0.7223,6.54467 0.052,8.68544 -1.34867,4.30743 -5.02414,7.05779 -10.78708,8.07198 -2.58793,0.45544 -7.81408,0.51347 -10.303982,0.11441 -3.315915,-0.53143 -8.35364,-2.32565 -12.631486,-4.4988 -2.273862,-1.15512 -4.290748,-2.10022 -4.481966,-2.10022 -0.280045,0 -0.347673,1.6698 -0.347673,8.58431 v 8.5843 l 3.240891,1.05258 c 9.946092,3.2303 19.930746,4.30917 29.489716,3.18646 z"
         id="path208" />
      <path
         style="fill:#93cd96;stroke-width:0.264562"
         d="m 74.748526,138.32388 c -0.363773,-0.28455 -0.53104,-0.52001 -0.371708,-0.52324 0.159336,-0.003 0.505182,0.23222 0.768552,0.52324 0.603245,0.66658 0.455328,0.66658 -0.396844,0 z m 26.456254,-7.31308 c -3.348979,-0.2034 -9.333811,-1.19809 -12.516337,-2.08024 -4.792994,-1.32854 -6.929011,-2.11047 -6.929011,-2.53651 0,-0.20478 1.726271,-2.78472 3.836156,-5.73319 2.632863,-3.67931 3.960636,-5.32361 4.233,-5.24211 0.218265,0.0653 1.89989,0.59409 3.736948,1.17507 3.985227,1.26035 7.751164,1.76792 11.277804,1.52003 8.04654,-0.56562 12.40947,-2.83359 14.81511,-7.70132 1.04273,-2.10991 1.52621,-5.65912 1.12436,-8.25378 -0.92037,-5.942675 -5.43135,-9.391789 -13.67444,-10.455542 -0.50758,-0.0655 -0.0779,-0.769134 3.51886,-5.762706 2.25337,-3.128452 4.25688,-5.849712 4.45224,-6.047245 0.2991,-0.302438 0.78789,-0.287228 3.0952,0.09631 10.44113,1.735607 17.23775,7.092005 19.53437,15.39499 1.85574,6.709063 0.98887,15.288043 -2.14216,21.199933 -1.84377,3.48131 -4.31233,6.33072 -7.39239,8.53285 -5.88032,4.20422 -11.14933,5.75379 -20.09109,5.90859 -2.83743,0.0491 -5.93281,0.0423 -6.87862,-0.0151 z m 26.09767,-68.153376 c 0.52308,-0.857323 8.87711,-12.368297 8.97622,-12.368297 0.0621,0 0.11292,2.857275 0.11292,6.3495 v 6.3495 h -4.64546 c -3.6476,0 -4.60211,-0.07104 -4.44368,-0.330703 z m 14.38039,-21.09886 c -0.23845,-0.154097 -0.27108,-0.258077 -0.0818,-0.260511 0.1733,-0.0022 0.38867,0.115002 0.4786,0.260511 0.203,0.328461 0.11141,0.328461 -0.39684,0 z"
         id="path206" />
      <path
         style="fill:#5e56db;stroke-width:0.264562"
         d="m 72.712932,137.02343 c -2.1625,-1.42302 -4.049343,-2.9542 -4.049343,-3.28607 0,-0.18501 -0.429059,-0.74665 -0.953463,-1.2481 -1.770411,-1.69291 -4.766595,-5.39304 -6.629603,-8.1872 -4.8558,-7.28277 -7.681911,-14.43027 -9.257782,-23.41378 -0.892554,-5.088142 -0.999059,-12.743811 -0.244758,-17.593403 2.069492,-13.305295 7.677079,-24.498935 16.849728,-33.634755 6.03808,-6.013836 13.212414,-10.660497 20.824983,-13.487889 14.766656,-5.484501 30.909966,-4.975265 45.154676,1.424391 2.46013,1.10525 7.07076,3.661155 6.90443,3.827476 -0.0726,0.07259 -0.94147,-0.249523 -1.93083,-0.715816 -7.80129,-3.676785 -18.66863,-5.860971 -27.17053,-5.460901 -15.240937,0.717187 -28.866368,6.674343 -39.432061,17.240035 -8.985763,8.985765 -14.702313,20.242055 -16.720557,32.923959 -0.737399,4.633545 -0.66647,14.043615 0.139591,18.519373 2.255535,12.52416 7.268525,22.28971 16.531088,32.20337 1.69079,1.80964 1.687285,2.00985 -0.01558,0.88931 z M 142.47653,41.999488 c -0.56981,-0.466073 -0.58101,-0.501702 -0.0809,-0.257257 0.31929,0.156058 0.65371,0.402154 0.74316,0.546881 0.23879,0.386367 0.0784,0.316235 -0.66228,-0.289624 z"
         id="path204" />
      <path
         style="fill:#4439e6;stroke-width:0.264562"
         d="M 65.401605,131.16204 C 55.877103,122.13618 49.820914,110.85591 47.443665,97.713533 46.66434,93.405114 46.590268,83.309775 47.306813,79.061877 49.323401,67.106922 54.309652,56.746144 62.209924,48.095156 76.564322,32.376746 98.346456,25.659311 119.19834,30.52039 c 5.46943,1.275057 10.88807,3.402531 15.80795,6.206546 2.98502,1.701267 7.06358,4.468216 6.87066,4.66114 -0.0623,0.06231 -1.25344,-0.53241 -2.64697,-1.321594 -9.15311,-5.183612 -18.70805,-7.663124 -29.42692,-7.636304 -15.638946,0.03913 -30.205741,6.105185 -41.375349,17.229944 -9.172649,9.13582 -14.780236,20.32946 -16.849728,33.634755 -0.754301,4.849592 -0.647796,12.505261 0.244758,17.593403 1.575871,8.98351 4.401982,16.13101 9.257782,23.41378 1.863008,2.79416 4.859192,6.49429 6.629603,8.1872 0.935047,0.89412 1.176286,1.33705 0.728206,1.33705 -0.123892,0 -1.490419,-1.19892 -3.036727,-2.66427 z"
         id="path202" />
      <path
         style="fill:#0ea1a1;stroke-width:0.264562"
         d="m 100.80793,133.81481 c -1.600601,-0.10903 -4.279296,-0.39577 -5.952654,-0.63719 -5.659293,-0.8165 -14.728586,-3.51706 -15.675328,-4.66763 -0.421213,-0.51191 -0.462985,-1.39013 -0.462985,-9.73418 0,-10.76423 -0.09566,-10.3475 2.3752,-10.3475 1.368236,0 1.811798,0.14929 3.755013,1.26376 4.586011,2.63016 10.349174,4.75851 14.547334,5.37236 2.53289,0.37036 7.17018,0.18202 9.82303,-0.39896 3.72838,-0.81652 6.51167,-2.78126 7.83787,-5.5328 0.79447,-1.64833 1.18727,-4.65708 0.85457,-6.54585 -0.36222,-2.05636 -0.92269,-3.182613 -2.23869,-4.498616 -2.19266,-2.192662 -5.20168,-3.194203 -11.04633,-3.676736 -4.39664,-0.362983 -9.489668,0.07079 -15.301162,1.303187 -4.028824,0.854365 -5.555029,0.981995 -6.391227,0.534477 -0.5001,-0.267647 -0.511732,-0.813694 -0.511732,-24.022275 0,-18.118232 0.07527,-23.823671 0.317475,-24.06588 0.460669,-0.460669 55.785316,-0.460669 56.245986,0 0.23359,0.23359 0.31748,2.536466 0.31748,8.715562 0,8.37843 -0.001,8.39905 -0.588,8.809931 -0.51713,0.362218 -2.60525,0.411844 -17.32884,0.411844 h -16.74085 v 5.26172 5.26172 l 5.35739,-0.01082 c 8.25337,-0.01667 13.64288,1.060739 18.9909,3.796432 6.07208,3.106083 9.83279,7.854303 11.61749,14.668086 1.3114,5.006768 1.25088,11.314198 -0.16111,16.792178 -0.85349,3.31123 -0.99682,3.67851 -2.55374,6.54409 -2.95571,5.44009 -6.86201,9.03163 -13.15175,12.092 -6.14475,2.98982 -13.57095,4.01712 -23.93534,3.31109 z m 15.77649,-1.54166 c 12.01048,-2.43554 20.5898,-10.30035 23.12514,-21.19921 1.73237,-7.44707 0.88627,-15.922224 -2.12617,-21.297282 -2.11694,-3.777238 -5.11807,-6.584701 -9.26096,-8.66334 -5.34516,-2.681864 -9.61977,-3.492822 -18.45309,-3.500836 l -6.28322,-0.0057 -1.4e-4,-6.281457 -1.4e-4,-6.281457 17.39498,-0.06804 17.39499,-0.06804 v -8.069156 -8.069156 h -27.5145 -27.514503 l -0.06758,23.34764 -0.06758,23.347641 h 1.320164 c 0.726092,0 3.078037,-0.349117 5.226546,-0.775816 9.518049,-1.890305 17.597833,-1.736356 23.031343,0.43883 2.21528,0.886834 4.53022,3.002625 5.35895,4.897919 0.8321,1.90301 1.01818,5.4415 0.40475,7.69676 -0.85368,3.13848 -3.41221,5.91108 -6.48135,7.02362 -7.99401,2.89779 -17.501653,1.4754 -27.395645,-4.0985 -2.161282,-1.21759 -2.756759,-1.44015 -3.674117,-1.37319 l -1.094796,0.0799 v 9.38521 9.3852 l 1.945323,0.74718 c 4.643349,1.78347 11.292315,3.33826 16.574052,3.87566 1.309584,0.13325 5.297863,0.20936 8.862843,0.16915 5.38845,-0.0608 6.95626,-0.16933 9.29471,-0.64353 z m -14.58596,-0.311 c -6.832357,-0.47149 -11.487964,-1.37038 -17.924106,-3.46071 l -3.240891,-1.05258 v -8.5843 c 0,-6.91451 0.06763,-8.58431 0.347673,-8.58431 0.191218,0 2.208104,0.9451 4.481966,2.10022 4.277846,2.17315 9.315571,3.96737 12.631487,4.4988 2.489901,0.39906 7.716051,0.34103 10.303981,-0.11441 5.76294,-1.01419 9.43841,-3.76455 10.78708,-8.07198 0.67028,-2.14077 0.64229,-6.81292 -0.052,-8.68544 -0.68972,-1.860112 -2.84598,-4.219858 -4.81492,-5.26929 -5.06055,-2.697247 -14.91732,-3.141381 -24.694939,-1.112721 -2.107238,0.437211 -4.218261,0.866913 -4.691167,0.954896 l -0.859828,0.15997 V 72.217867 49.695439 h 26.588534 26.58853 v 7.143188 7.143187 h -17.16417 c -14.22725,0 -17.21574,0.06214 -17.46558,0.363184 -0.21273,0.256316 -0.28064,2.403426 -0.23082,7.296814 l 0.0706,6.933632 7.01091,0.06685 c 9.49393,0.09053 12.91392,0.764216 18.61225,3.66635 4.41427,2.248167 7.84449,6.09933 9.60897,10.78815 1.31185,3.485992 1.77536,6.779385 1.5985,11.357886 -0.43754,11.32701 -5.62481,19.37293 -15.62725,24.23926 -5.70511,2.77561 -13.06386,3.87555 -21.86479,3.26821 z m 13.87148,-1.55961 c 4.85239,-0.9863 8.45792,-2.53499 12.30455,-5.2852 3.08006,-2.20213 5.54862,-5.05154 7.39239,-8.53285 3.13103,-5.91189 3.9979,-14.49087 2.14216,-21.199932 -1.85199,-6.695511 -6.76732,-11.600484 -14.14873,-14.118936 -4.04133,-1.378852 -7.10863,-1.75606 -14.49438,-1.78249 -5.75777,-0.02061 -6.86122,-0.08632 -7.073,-0.421255 -0.14233,-0.225087 -0.25268,-3.566141 -0.25498,-7.719555 -0.003,-6.307893 0.0536,-7.380329 0.41169,-7.738454 0.36928,-0.369276 2.30605,-0.415741 17.32885,-0.415741 h 16.9131 v -6.3495 -6.3495 H 110.72903 85.066463 v 21.561844 c 0,11.859014 0.05,21.561843 0.111117,21.561843 0.06111,0 1.478708,-0.295682 3.150214,-0.657072 5.330104,-1.152403 9.544947,-1.541931 14.861196,-1.373442 5.27428,0.167158 7.66701,0.575709 10.6697,1.821812 3.76202,1.561225 6.30873,4.781208 6.92412,8.754638 0.40185,2.59466 -0.0816,6.14387 -1.12436,8.25378 -2.00146,4.04989 -5.36186,6.26821 -11.06457,7.30414 -2.40962,0.43772 -8.803402,0.44772 -10.96056,0.0171 -3.315368,-0.66175 -8.528178,-2.55122 -12.240117,-4.43662 l -3.773978,-1.91692 0.0701,7.69315 0.0701,7.69316 1.851938,0.63501 c 5.430764,1.86216 12.41328,3.29459 17.593407,3.60921 4.17204,0.25339 12.02932,-0.0725 14.66516,-0.60827 z"
         id="path200" />
    </g>
  </g>
</svg>
