<?xml version="1.0" encoding="UTF-8" standalone="no"?>
<svg
   xmlns:dc="http://purl.org/dc/elements/1.1/"
   xmlns:cc="http://creativecommons.org/ns#"
   xmlns:rdf="http://www.w3.org/1999/02/22-rdf-syntax-ns#"
   xmlns:svg="http://www.w3.org/2000/svg"
   xmlns="http://www.w3.org/2000/svg"
   xmlns:sodipodi="http://sodipodi.sourceforge.net/DTD/sodipodi-0.dtd"
   xmlns:inkscape="http://www.inkscape.org/namespaces/inkscape"
   width="210mm"
   height="297mm"
   viewBox="0 0 210 297"
   version="1.1"
   id="svg8"
   inkscape:version="1.0.1 (3bc2e813f5, 2020-09-07)"
   sodipodi:docname="06v.svg">
  <defs
     id="defs2">
    <pattern
       id="EMFhbasepattern"
       patternUnits="userSpaceOnUse"
       width="6"
       height="6"
       x="0"
       y="0" />
    <pattern
       id="EMFhbasepattern-8"
       patternUnits="userSpaceOnUse"
       width="6"
       height="6"
       x="0"
       y="0" />
    <pattern
       id="EMFhbasepattern-9"
       patternUnits="userSpaceOnUse"
       width="6"
       height="6"
       x="0"
       y="0" />
    <pattern
       id="EMFhbasepattern-1"
       patternUnits="userSpaceOnUse"
       width="6"
       height="6"
       x="0"
       y="0" />
    <pattern
       id="EMFhbasepattern-3"
       patternUnits="userSpaceOnUse"
       width="6"
       height="6"
       x="0"
       y="0" />
    <pattern
       id="EMFhbasepattern-4"
       patternUnits="userSpaceOnUse"
       width="6"
       height="6"
       x="0"
       y="0" />
  </defs>
  <sodipodi:namedview
     id="base"
     pagecolor="#ffffff"
     bordercolor="#666666"
     borderopacity="1.0"
     inkscape:pageopacity="0.0"
     inkscape:pageshadow="2"
     inkscape:zoom="1.0636576"
     inkscape:cx="351.05133"
     inkscape:cy="270.29157"
     inkscape:document-units="mm"
     inkscape:current-layer="layer1"
     inkscape:document-rotation="0"
     showgrid="false"
     inkscape:window-width="1920"
     inkscape:window-height="1017"
     inkscape:window-x="-8"
     inkscape:window-y="-8"
     inkscape:window-maximized="1" />
  <metadata
     id="metadata5">
    <rdf:RDF>
      <cc:Work
         rdf:about="">
        <dc:format>image/svg+xml</dc:format>
        <dc:type
           rdf:resource="http://purl.org/dc/dcmitype/StillImage" />
        <dc:title></dc:title>
      </cc:Work>
    </rdf:RDF>
  </metadata>
  <g
     inkscape:label="Warstwa 1"
     inkscape:groupmode="layer"
     id="layer1">
    <g
       id="g227"
       transform="translate(-52.617884,-34.953697)">
      <path
         style="fill:#5bc9e8;stroke-width:0.264562"
         d="m 90.130773,117.23135 c -1.639891,-5.37636 -2.408667,-12.16664 -2.175738,-19.217434 0.509309,-15.417028 4.359847,-25.897253 12.221105,-33.262872 5.36069,-5.022714 12.06973,-7.974017 20.96527,-9.222613 2.49272,-0.349885 4.2738,-0.404648 8.9338,-0.274689 5.01217,0.139779 9.93849,0.607833 10.28904,0.977571 0.058,0.06122 -1.82482,2.543238 -4.18413,5.515592 l -4.28967,5.404279 -3.8178,0.05609 c -12.63129,0.18559 -19.72909,6.194712 -22.08002,18.693335 -0.46911,2.493986 -0.46907,2.588993 10e-4,3.10861 0.68251,0.754167 1.29874,0.673063 3.0724,-0.404376 3.32238,-2.018239 10.06874,-4.730862 9.28741,-3.734345 -0.13344,0.170191 -2.21445,2.81472 -4.62447,5.876732 l -4.38185,5.567295 -1.54135,0.481191 c -2.01339,0.628548 -2.20277,0.809906 -2.20277,2.109471 0,0.601557 -0.10559,1.461913 -0.23464,1.911893 -0.20252,0.70616 -13.656722,18.08378 -14.316747,18.4917 -0.132983,0.0822 -0.547441,-0.85265 -0.921019,-2.07743 z"
         id="path241" />
      <path
         style="fill:#80afdd;stroke-width:0.264562"
         d="m 112.74637,138.76146 c -7.19102,-0.93831 -13.64491,-4.10901 -17.826299,-8.75781 -3.869679,-4.30223 -6.650707,-10.44411 -7.944767,-17.54593 -1.526454,-8.3772 -1.153093,-21.095247 0.868019,-29.567903 2.348294,-9.844241 7.693062,-17.994311 14.981957,-22.845509 6.53257,-4.347828 13.20592,-6.313137 23.41378,-6.895392 4.26183,-0.243094 15.18458,0.799104 16.07589,1.533886 0.25925,0.213724 0.31872,2.126071 0.26456,8.507789 l -0.0699,8.232098 -0.96368,0.08042 c -0.57975,0.04838 -2.05539,-0.279605 -3.70388,-0.823244 -3.95461,-1.304153 -6.13791,-1.598953 -10.59053,-1.429987 -4.3189,0.163894 -6.35345,0.62409 -9.59907,2.171227 -2.58519,1.232317 -5.33021,3.890908 -6.84812,6.632479 -1.37199,2.478027 -3.54513,9.106638 -2.8839,8.796608 0.10783,-0.05056 1.68422,-0.826118 3.50309,-1.723463 5.27663,-2.603242 10.43211,-3.593463 15.8161,-3.037823 6.21131,0.641021 10.64157,2.498284 14.31487,6.001108 2.37234,2.262245 4.70992,5.56527 5.7654,8.146559 1.65509,4.047697 2.4923,10.907317 1.95412,16.010927 -1.14486,10.85698 -6.38015,18.94768 -15.1009,23.3372 -1.88637,0.9495 -3.87658,1.6861 -6.21444,2.30004 -3.21817,0.84513 -3.76251,0.90956 -8.466,1.00215 -2.76468,0.0544 -5.80053,-0.002 -6.74634,-0.12543 z m 9.65653,-0.92577 c 11.10508,-1.34472 18.50074,-6.21598 22.97673,-15.13397 1.75918,-3.50498 3.08372,-9.50844 3.08193,-13.96878 -0.002,-3.94855 -0.96451,-9.292207 -2.19426,-12.176814 -1.59559,-3.742758 -5.52337,-8.365966 -8.63901,-10.168571 -4.21838,-2.440615 -7.54961,-3.272839 -13.10889,-3.274921 -5.78122,-0.0021 -9.30678,0.983681 -15.04245,4.2063 -1.1434,0.642419 -2.2616,1.168036 -2.4849,1.168036 -0.98698,0 0.51108,-6.262652 2.39555,-10.014529 3.41335,-6.795823 8.78212,-9.895191 17.79173,-10.271089 4.3142,-0.179998 7.41238,0.236924 11.2064,1.508038 1.29252,0.433031 2.54081,0.78733 2.77399,0.78733 0.37895,0 0.42396,-0.797447 0.42396,-7.51135 v -7.511351 l -0.59695,-0.149825 c -4.352,-1.092284 -15.55694,-1.425767 -20.68894,-0.615748 -8.97549,1.416663 -15.56732,4.433304 -21.061863,9.638609 -2.856722,2.706342 -5.109715,5.86394 -7.104829,9.957513 -3.447247,7.073052 -4.725909,13.177422 -4.971055,23.731976 -0.255853,11.015496 0.971267,18.241336 4.183222,24.632666 2.898653,5.76791 6.460556,9.40526 11.948845,12.20195 2.99536,1.52635 6.26531,2.4394 10.64479,2.97229 3.61028,0.43929 4.78305,0.43821 8.466,-0.008 z m -6.64488,-12.94804 c -2.71916,-0.65989 -4.96559,-2.5121 -6.34264,-5.22957 -2.24783,-4.43589 -2.83029,-7.59987 -2.86231,-15.5483 l -0.0239,-5.939026 2.33029,-0.743765 c 3.63845,-1.161289 6.70482,-1.45676 9.82548,-0.946771 5.26876,0.861037 8.30257,3.395509 9.59146,8.012782 0.55385,1.98408 0.73742,7.27997 0.34755,10.02652 -0.54699,3.85335 -2.80027,7.73459 -5.35939,9.23147 -2.40753,1.40821 -4.85839,1.77933 -7.50653,1.13666 z m 4.69854,-1.06329 c 2.53426,-0.76914 4.21862,-2.28318 5.76249,-5.17978 1.14866,-2.15511 1.59893,-4.39688 1.60347,-7.9832 0.0107,-8.44926 -2.90352,-12.34762 -9.89006,-13.230036 -2.82439,-0.356731 -5.68782,-0.04224 -8.6254,0.94733 l -1.71966,0.579291 -0.0816,4.487175 c -0.12925,7.11009 0.76281,11.82094 3.00915,15.89092 2.15767,3.90934 6.05369,5.66827 9.94158,4.4883 z"
         id="path239" />
      <path
         style="fill:#42bded;stroke-width:0.264562"
         d="m 113.54006,136.91167 c -8.38938,-1.08589 -15.013439,-4.81808 -19.038117,-10.72664 -1.472409,-2.16163 -3.515673,-6.11913 -3.398403,-6.58222 0.04454,-0.17589 3.235893,-4.31389 7.091891,-9.19555 l 7.010909,-8.87574 0.31014,4.78777 c 0.35666,5.50575 0.81103,8.25844 1.79363,10.86626 2.24153,5.94903 5.29442,8.57957 10.23617,8.82004 4.82191,0.23464 8.14483,-1.84928 10.5734,-6.63094 1.21165,-2.38566 1.61451,-4.59127 1.63093,-8.92899 0.012,-3.17159 -0.0861,-4.19711 -0.56629,-5.9197 -1.74569,-6.262533 -6.10363,-9.172688 -13.71072,-9.155772 -1.13621,0.0026 -2.89098,0.179397 -3.89951,0.393047 -1.00853,0.213648 -1.86635,0.355794 -1.90627,0.315877 -0.19706,-0.197062 8.94225,-11.435428 9.47372,-11.649578 0.33866,-0.136456 2.3421,-0.305197 4.45211,-0.374981 5.79877,-0.191781 9.84864,0.804006 14.08383,3.462941 3.32504,2.087536 7.05179,6.93703 8.24101,10.723758 1.21702,3.875258 1.35357,4.951558 1.34692,10.617028 -0.006,5.26513 -0.0311,5.51471 -0.85307,8.54516 -2.62245,9.6685 -9.96903,16.66708 -19.77644,18.83964 -3.49137,0.77341 -9.79832,1.09541 -13.09584,0.66859 z m 24.73659,-68.183754 c -1.01857,-0.350225 -2.88053,-0.839602 -4.1377,-1.0875 l -2.28577,-0.450727 4.08898,-5.158969 c 2.24894,-2.837433 4.2002,-5.272069 4.33613,-5.410303 0.15326,-0.155861 0.24714,2.230965 0.24714,6.283359 0,3.594082 -0.0893,6.518095 -0.19842,6.497806 -0.10913,-0.02029 -1.03179,-0.323438 -2.05036,-0.673666 z"
         id="path237" />
      <path
         style="fill:#149999;stroke-width:0.264562"
         d="m 105.60318,152.76034 c -6.468221,-0.70908 -14.562934,-3.06987 -20.489306,-5.97562 -2.700069,-1.32386 -3.503818,-1.87606 -5.527954,-3.79788 C 70.223379,134.09758 64.140116,122.33962 61.928691,108.85828 61.112452,103.88231 61.112379,96.444002 61.92852,91.538471 64.141573,78.236607 69.463442,67.716647 78.603242,58.576843 89.338379,47.84171 102.7155,41.958365 118.03762,41.233348 c 9.27497,-0.438876 20.26255,1.951554 28.94091,6.296313 2.81734,1.410479 3.50148,1.894726 5.67635,4.017838 9.5001,9.274012 15.34334,20.698847 17.40429,34.029283 0.69856,4.518392 0.63988,12.998792 -0.12175,17.593408 -2.09459,12.63586 -7.7098,23.64213 -16.59478,32.52711 -8.90615,8.90616 -19.72055,14.4435 -32.39483,16.58726 -3.54689,0.59993 -11.86069,0.85771 -15.34463,0.47578 z m 17.72569,-13.07121 c 9.56179,-1.16602 16.53957,-5.09466 21.51934,-12.11585 3.44356,-4.85523 5.12515,-10.21818 5.38764,-17.18245 0.3826,-10.15075 -2.07725,-17.269744 -7.89404,-22.845962 -2.22288,-2.130948 -4.25539,-3.433754 -7.10763,-4.555882 -3.61373,-1.421717 -5.74349,-1.773276 -10.71478,-1.768696 -5.41268,0.005 -7.9183,0.513608 -12.41508,2.520162 -1.59448,0.711485 -2.93504,1.257613 -2.97904,1.213619 -0.044,-0.044 0.26636,-1.104628 0.68968,-2.356963 2.17093,-6.422485 6.17235,-10.309612 12.23779,-11.888241 1.79842,-0.468069 2.9538,-0.573341 6.30281,-0.574272 4.41707,-0.0013 6.68374,0.389936 10.42963,1.799887 2.06779,0.778314 3.22384,0.854265 4.06244,0.266894 0.58733,-0.411387 0.58799,-0.421538 0.58799,-9.108512 0,-7.553306 -0.0547,-8.75132 -0.41574,-9.112403 -0.22866,-0.228657 -0.437,-0.416289 -0.46299,-0.41696 -0.026,-6.61e-4 -1.65446,-0.241708 -3.61883,-0.535639 -7.3371,-1.097858 -15.60958,-0.984005 -22.05912,0.303595 -9.98757,1.993941 -18.480375,7.292486 -23.416569,14.60928 -5.144801,7.626008 -7.502288,15.515508 -8.246365,27.597038 -0.586678,9.525905 0.582024,19.080715 3.088312,25.248735 3.097754,7.62362 7.479184,12.55948 14.136082,15.92487 5.42648,2.74336 13.4413,3.88591 20.88847,2.97775 z m -6.52312,-16.5529 c -3.11535,-0.62351 -5.28339,-2.87689 -6.79216,-7.05954 -1.03941,-2.8815 -1.5057,-6.06611 -1.68302,-11.4945 l -0.16128,-4.937508 1.82556,-0.536869 c 3.1353,-0.922045 5.74251,-1.149683 8.3313,-0.727412 5.69722,0.929305 8.14519,3.950749 8.59633,10.610159 0.3908,5.7688 -1.2625,10.53728 -4.45533,12.85015 -1.57099,1.13802 -3.84653,1.65874 -5.6614,1.29552 z"
         id="path235" />
      <path
         style="fill:#2762ae;stroke-width:0.264562"
         d="m 113.01093,139.67112 c -9.46716,-1.1865 -16.474906,-5.20941 -21.152262,-12.14281 -4.053603,-6.00878 -5.927478,-12.34848 -6.640543,-22.46629 -0.54257,-7.698639 0.419017,-18.047179 2.265359,-24.379644 2.377469,-8.154094 6.65721,-14.989368 12.153321,-19.410355 6.376825,-5.129417 13.204475,-7.751014 22.882265,-8.786052 3.93489,-0.420835 11.69707,-0.164652 16.41899,0.541893 1.96437,0.293931 3.59285,0.534969 3.61883,0.535639 0.026,6.62e-4 0.23433,0.188303 0.46299,0.41696 0.36108,0.361083 0.41574,1.559097 0.41574,9.112403 0,8.686974 -5.3e-4,8.697125 -0.58799,9.108512 -0.8386,0.587371 -1.99465,0.51142 -4.06244,-0.266894 -3.74589,-1.409951 -6.01256,-1.801117 -10.42963,-1.799887 -3.34901,0.0011 -4.50439,0.106203 -6.30281,0.574272 -6.06544,1.578629 -10.06686,5.465756 -12.23779,11.888241 -0.42332,1.252335 -0.73367,2.312966 -0.68968,2.356963 0.044,0.04399 1.38456,-0.502134 2.97904,-1.213619 4.49678,-2.006554 7.0024,-2.515175 12.41508,-2.520162 4.97129,-0.0046 7.10105,0.346979 10.71478,1.768696 2.85224,1.122128 4.88475,2.424934 7.10763,4.555882 5.81679,5.576218 8.27664,12.695212 7.89404,22.845962 -0.12806,3.3976 -0.30569,4.75617 -0.9739,7.44854 -2.0618,8.30755 -7.22965,14.79396 -14.95374,18.76916 -5.5459,2.85419 -13.65533,4.02035 -21.29728,3.06259 z m 14.94778,-1.78638 c 12.38366,-3.25206 19.90932,-12.30363 21.31534,-25.63724 0.53818,-5.10361 -0.29903,-11.96323 -1.95412,-16.010931 -1.05548,-2.581289 -3.39306,-5.884314 -5.7654,-8.146559 -3.6733,-3.502824 -8.10356,-5.360087 -14.31487,-6.001108 -5.38399,-0.55564 -10.53947,0.434581 -15.8161,3.037823 -1.81887,0.897345 -3.39526,1.672902 -3.50309,1.723463 -0.66123,0.31003 1.51191,-6.318581 2.8839,-8.796608 1.51791,-2.741571 4.26293,-5.400162 6.84812,-6.632479 3.24562,-1.547137 5.28017,-2.007333 9.59907,-2.171227 4.45262,-0.168966 6.63592,0.125834 10.59053,1.429987 1.64849,0.543639 3.12413,0.871622 3.70388,0.823244 l 0.96368,-0.08042 0.0699,-8.232098 c 0.0542,-6.381718 -0.005,-8.294065 -0.26456,-8.507789 -0.89131,-0.734782 -11.81406,-1.77698 -16.07589,-1.533886 -10.20786,0.582255 -16.88121,2.547564 -23.41378,6.895392 -7.288895,4.851198 -12.633663,13.001268 -14.981957,22.845509 -2.021112,8.472656 -2.394473,21.190707 -0.868019,29.567907 1.29406,7.10182 4.075088,13.2437 7.944767,17.54593 3.269305,3.63476 8.353609,6.62967 13.328739,7.85131 4.05074,0.99466 5.65556,1.14195 11.2439,1.03193 4.70349,-0.0926 5.24783,-0.15702 8.466,-1.00215 z m -14.02181,-0.0413 c -4.37948,-0.53289 -7.64943,-1.44594 -10.64479,-2.97229 -9.443678,-4.81225 -14.541089,-13.57942 -15.955694,-27.44265 -0.420514,-4.12106 -0.18954,-14.627203 0.404789,-18.412415 1.022396,-6.511537 2.015582,-9.839921 4.389893,-14.711527 5.433087,-11.147595 14.469122,-17.43414 28.166692,-19.596122 5.132,-0.810019 16.33694,-0.476536 20.68894,0.615748 l 0.59695,0.149825 v 7.511351 c 0,6.713903 -0.045,7.51135 -0.42396,7.51135 -0.23318,0 -1.48147,-0.354299 -2.77399,-0.78733 -3.79402,-1.271114 -6.8922,-1.688036 -11.2064,-1.508038 -9.00961,0.375898 -14.37838,3.475266 -17.79173,10.271089 -1.88447,3.751877 -3.38253,10.014529 -2.39555,10.014529 0.2233,0 1.3415,-0.525617 2.4849,-1.168036 5.73567,-3.222619 9.26123,-4.208467 15.04245,-4.2063 7.35743,0.0028 12.5623,1.943503 16.77157,6.253639 3.16332,3.239112 5.0426,6.529209 6.07131,10.629166 2.26942,9.044871 0.81607,18.933901 -3.81041,25.927121 -4.49634,6.79651 -11.50697,10.74557 -21.14897,11.91313 -3.68295,0.44597 -4.85572,0.44705 -8.466,0.008 z m 12.699,-1.60037 c 9.80741,-2.17256 17.15399,-9.17114 19.77644,-18.83964 0.82197,-3.03045 0.84688,-3.28003 0.85307,-8.54516 0.007,-5.66547 -0.1299,-6.74177 -1.34692,-10.617028 -0.71625,-2.280698 -2.56927,-5.289261 -4.82246,-7.829722 -2.57051,-2.898245 -6.69695,-5.077626 -11.41745,-6.030136 -3.06382,-0.618224 -9.00449,-0.422924 -12.01064,0.394846 -2.28298,0.621045 -6.1684,2.350434 -8.60173,3.828606 -1.77366,1.077439 -2.38989,1.158543 -3.0724,0.404376 -0.47025,-0.519617 -0.47029,-0.614624 -10e-4,-3.10861 1.56973,-8.345454 5.36391,-13.838116 11.54405,-16.71181 5.77586,-2.685711 15.88329,-2.634256 22.52577,0.114675 0.43372,0.179495 0.46298,-0.227844 0.46298,-6.445724 v -6.637327 l -0.59527,-0.127468 c -2.31786,-0.496313 -5.04294,-0.729731 -9.98735,-0.855459 -6.23941,-0.158659 -9.70724,0.167043 -14.35733,1.348456 -9.3351,2.371694 -16.835328,7.79427 -21.197456,15.32551 -4.14894,7.163165 -6.050047,14.891779 -6.420098,26.099755 -0.322219,9.75926 1.106069,18.03613 4.160809,24.11171 2.956687,5.88055 6.633796,9.61102 11.948795,12.12216 4.54826,2.1489 8.88358,2.94183 15.28278,2.79522 3.20954,-0.0735 4.79066,-0.24679 7.27547,-0.79723 z m -11.64075,-10.55831 c -4.61239,-1.45871 -7.6208,-5.91939 -8.86483,-13.14421 -0.56815,-3.29961 -0.89756,-10.44534 -0.60257,-13.071156 0.2411,-2.146023 0.15745,-2.078014 3.91159,-3.180131 6.34961,-1.864081 13.22611,-0.829258 16.52537,2.486847 2.80074,2.81505 3.80765,5.91872 3.7859,11.66954 -0.017,4.49206 -0.43635,6.64517 -1.7995,9.23924 -1.68174,3.20036 -3.4924,4.86045 -6.38779,5.85661 -1.7313,0.59565 -4.91794,0.66516 -6.56817,0.14326 z m 5.70622,-0.84933 c 3.11221,-0.92201 4.84473,-2.49031 6.5802,-5.95648 1.29812,-2.59269 1.73639,-5.44313 1.51948,-9.88256 -0.22768,-4.65995 -0.9281,-6.75117 -3.0779,-9.18966 -1.51211,-1.71517 -3.80262,-2.797749 -7.03822,-3.326522 -3.12066,-0.509989 -6.18703,-0.214518 -9.82548,0.946771 l -2.3303,0.743765 0.0239,5.939026 c 0.032,7.94843 0.61448,11.11241 2.86231,15.5483 2.20603,4.35338 6.86031,6.4885 11.28598,5.17736 z m -4.91253,-1.00089 c -2.30614,-0.72558 -3.97909,-2.15257 -5.27386,-4.49849 -2.24634,-4.06998 -3.1384,-8.78083 -3.00915,-15.89092 l 0.0816,-4.487175 1.71966,-0.579291 c 5.69036,-1.916883 11.86799,-1.253672 15.04327,1.614997 2.4405,2.204849 3.47886,5.395039 3.47219,10.667709 -0.006,4.66862 -0.94044,7.70955 -3.21868,10.47345 -2.07091,2.51237 -5.79013,3.65144 -8.815,2.69972 z m 4.65521,-0.97541 c 0.52323,-0.13313 1.43363,-0.59141 2.0231,-1.01843 3.19283,-2.31287 4.84613,-7.08135 4.45533,-12.85015 -0.27613,-4.07596 -1.16058,-6.4499 -3.03341,-8.14188 -1.55947,-1.408889 -3.00774,-2.05149 -5.56292,-2.468279 -2.58879,-0.422271 -5.196,-0.194633 -8.3313,0.727412 l -1.82556,0.536869 0.16128,4.937508 c 0.22856,6.99687 1.15685,11.43199 3.02516,14.45338 2.24449,3.62972 5.11068,4.83557 9.08832,3.82357 z"
         id="path233" />
      <path
         style="fill:#167672;stroke-width:0.264562"
         d="m 78.750088,143.08721 c -2.640112,-1.82916 -4.793237,-3.90645 -7.919332,-7.6404 C 63.869306,127.13175 59.635558,117.9773 57.677613,107.00634 56.883629,102.55741 56.815017,93.079103 57.544512,88.619251 60.437605,70.93201 70.285731,56.167918 85.36415,46.912669 c 9.9351,-6.098241 22.91147,-9.290112 34.26084,-8.427336 9.49472,0.721785 16.98638,2.909444 25.00116,7.300651 3.54797,1.94389 4.56358,2.807272 1.56243,1.328232 -8.01549,-3.950227 -19.26903,-6.301146 -28.15096,-5.880868 -15.32212,0.725017 -28.699241,6.608362 -39.434378,17.343495 -9.1398,9.139804 -14.461669,19.659764 -16.674722,32.961628 -0.816141,4.905531 -0.816068,12.343839 1.71e-4,17.319809 2.153841,13.13029 7.463554,23.69255 16.657902,33.13646 1.381226,1.41871 2.459273,2.57484 2.395656,2.56917 -0.06361,-0.006 -1.068086,-0.67018 -2.232161,-1.4767 z"
         id="path231" />
      <path
         style="fill:#104640;stroke-width:0.264562"
         d="m 73.456192,139.08054 c -9.230632,-7.973 -15.67222,-18.07296 -18.769053,-29.42857 -1.551373,-5.68864 -2.077754,-9.693192 -2.069152,-15.741469 0.01076,-7.562902 1.06317,-13.522273 3.606805,-20.423801 5.847138,-15.864769 18.674507,-28.807086 34.408827,-34.717168 14.396911,-5.407726 30.225351,-5.056703 44.336001,0.983228 3.09979,1.326837 6.76068,3.308238 9.46246,5.121418 2.74241,1.840453 6.16625,4.522875 4.16251,3.261146 -2.7289,-1.718352 -4.04549,-2.452381 -6.87863,-3.834989 -7.00465,-3.418357 -13.6805,-5.175641 -22.09097,-5.815002 -11.34937,-0.862776 -24.32574,2.329095 -34.26084,8.427336 -15.078419,9.255249 -24.926545,24.019341 -27.819638,41.706582 -0.729495,4.459852 -0.660883,13.938159 0.133101,18.387089 2.236458,12.53156 7.654539,23.12288 16.409867,32.07821 1.102515,1.1277 1.946646,2.05036 1.875849,2.05036 -0.0708,0 -1.199008,-0.92447 -2.507137,-2.05437 z"
         id="path229" />
    </g>
  </g>
</svg>
