<?xml version="1.0" encoding="UTF-8" standalone="no"?>
<svg
   xmlns:dc="http://purl.org/dc/elements/1.1/"
   xmlns:cc="http://creativecommons.org/ns#"
   xmlns:rdf="http://www.w3.org/1999/02/22-rdf-syntax-ns#"
   xmlns:svg="http://www.w3.org/2000/svg"
   xmlns="http://www.w3.org/2000/svg"
   xmlns:sodipodi="http://sodipodi.sourceforge.net/DTD/sodipodi-0.dtd"
   xmlns:inkscape="http://www.inkscape.org/namespaces/inkscape"
   width="210mm"
   height="297mm"
   viewBox="0 0 210 297"
   version="1.1"
   id="svg8"
   inkscape:version="1.0.1 (3bc2e813f5, 2020-09-07)"
   sodipodi:docname="07v.svg">
  <defs
     id="defs2">
    <pattern
       id="EMFhbasepattern"
       patternUnits="userSpaceOnUse"
       width="6"
       height="6"
       x="0"
       y="0" />
    <pattern
       id="EMFhbasepattern-8"
       patternUnits="userSpaceOnUse"
       width="6"
       height="6"
       x="0"
       y="0" />
    <pattern
       id="EMFhbasepattern-9"
       patternUnits="userSpaceOnUse"
       width="6"
       height="6"
       x="0"
       y="0" />
    <pattern
       id="EMFhbasepattern-1"
       patternUnits="userSpaceOnUse"
       width="6"
       height="6"
       x="0"
       y="0" />
    <pattern
       id="EMFhbasepattern-3"
       patternUnits="userSpaceOnUse"
       width="6"
       height="6"
       x="0"
       y="0" />
    <pattern
       id="EMFhbasepattern-4"
       patternUnits="userSpaceOnUse"
       width="6"
       height="6"
       x="0"
       y="0" />
    <pattern
       id="EMFhbasepattern-0"
       patternUnits="userSpaceOnUse"
       width="6"
       height="6"
       x="0"
       y="0" />
  </defs>
  <sodipodi:namedview
     id="base"
     pagecolor="#ffffff"
     bordercolor="#666666"
     borderopacity="1.0"
     inkscape:pageopacity="0.0"
     inkscape:pageshadow="2"
     inkscape:zoom="1.0636576"
     inkscape:cx="351.05133"
     inkscape:cy="270.29157"
     inkscape:document-units="mm"
     inkscape:current-layer="layer1"
     inkscape:document-rotation="0"
     showgrid="false"
     inkscape:window-width="1920"
     inkscape:window-height="1017"
     inkscape:window-x="-8"
     inkscape:window-y="-8"
     inkscape:window-maximized="1" />
  <metadata
     id="metadata5">
    <rdf:RDF>
      <cc:Work
         rdf:about="">
        <dc:format>image/svg+xml</dc:format>
        <dc:type
           rdf:resource="http://purl.org/dc/dcmitype/StillImage" />
        <dc:title></dc:title>
      </cc:Work>
    </rdf:RDF>
  </metadata>
  <g
     inkscape:label="Warstwa 1"
     inkscape:groupmode="layer"
     id="layer1">
    <g
       id="g256"
       transform="translate(-27.432207,-34.19309)">
      <path
         style="fill:#f4b8d4;stroke-width:0.264562"
         d="m 81.199477,105.73097 c 0.294368,-0.50928 4.319615,-7.812622 8.944993,-16.229646 7.51207,-13.670079 8.383412,-15.37865 8.16279,-16.006031 l -0.246985,-0.70235 -19.372851,-0.06786 -19.372851,-0.06786 V 66.30944 59.961657 h 28.705032 28.705035 l -0.008,3.373172 -0.008,3.373172 -17.464586,19.445344 C 89.639227,96.848288 81.529085,105.8368 81.222216,106.12782 l -0.557943,0.52912 0.535215,-0.92597 z"
         id="path270" />
      <path
         style="fill:#c597b3;stroke-width:0.264562"
         d="m 60.169531,140.19299 c 0.06717,-0.40167 8.16043,-15.31431 17.985022,-33.1392 L 96.017446,74.64488 76.806181,74.512599 57.594917,74.380318 57.524954,66.245021 57.45499,58.109724 h 30.560792 30.560788 l -0.002,8.532141 -0.002,8.53214 -17.43786,32.805755 -17.437858,32.80575 -11.824529,0.0689 -11.824528,0.0689 0.12213,-0.73029 z m 40.086089,-32.8599 17.2627,-32.513318 V 66.993873 59.167974 H 88.019605 58.520886 v 7.143187 7.143188 h 19.476186 19.476184 l -0.118137,0.618007 c -0.06498,0.339905 -8.038941,15.013203 -17.719921,32.607324 -9.680979,17.59413 -17.741497,32.25719 -17.912262,32.58459 l -0.31048,0.59527 10.790232,-0.007 10.790229,-0.007 17.262703,-32.51331 z"
         id="path268" />
      <path
         style="fill:#f0637d;stroke-width:0.264562"
         d="m 63.103286,138.60286 c 0.06383,-0.10913 4.002113,-7.2592 8.751733,-15.88903 l 8.635671,-15.69062 18.050833,-20.108355 18.050827,-20.108356 0.0736,3.758894 0.0736,3.75889 -17.13095,32.238497 -17.130945,32.23851 h -9.745258 c -5.359891,0 -9.693028,-0.0893 -9.629191,-0.19843 z"
         id="path266" />
      <path
         style="fill:#f05f5f;stroke-width:0.264562"
         d="M 80.215011,151.91122 C 73.221468,151.07855 66.064314,148.94941 59.65719,145.79558 56.384144,144.18446 56.014474,143.922 53.80007,141.63703 44.35586,131.89187 38.971024,121.35877 36.796343,108.3766 36.009294,103.67816 35.951159,95.769889 36.669929,91.180036 38.736396,77.984175 44.394371,66.693774 53.474105,57.647565 64.164711,46.996433 77.949594,41.011293 93.046292,40.466059 c 5.022365,-0.181389 8.931658,0.155547 14.189068,1.222932 3.98068,0.80818 10.05325,2.798533 12.8549,4.213345 0.90529,0.45716 1.83448,0.8312 2.06488,0.8312 1.18862,0 6.89614,5.171978 10.07253,9.127407 6.89009,8.579957 10.97229,17.974617 12.70291,29.234156 0.6884,4.478794 0.62509,12.486818 -0.13492,17.064281 -2.15388,12.97276 -7.56552,23.58207 -16.67588,32.69243 -9.13217,9.13217 -19.93558,14.64221 -32.692425,16.67406 -4.234603,0.67447 -11.284231,0.85305 -15.212344,0.38535 z m 4.011942,-10.53045 c 0.225058,-0.18189 8.283899,-15.16459 17.908537,-33.2949 l 17.49933,-32.964201 v -8.505972 c 0,-8.153224 -0.0219,-8.527916 -0.52912,-9.035098 -0.52302,-0.523014 -0.88188,-0.529125 -31.067198,-0.529125 -27.409132,0 -30.580668,0.0426 -30.953812,0.415741 -0.360477,0.360475 -0.415742,1.5316 -0.415742,8.809932 0,6.176063 0.08389,8.47808 0.317475,8.711664 0.240903,0.240903 4.803281,0.317475 18.916219,0.317475 10.229309,0 18.598744,0.04017 18.598744,0.08926 0,0.04909 -7.976559,14.580513 -17.725687,32.292044 -9.749129,17.71154 -17.725688,32.42546 -17.725688,32.6976 0,0.27214 0.187083,0.68189 0.415741,0.91054 0.365692,0.3657 1.856504,0.41574 12.383872,0.41574 9.17989,0 12.063463,-0.077 12.377329,-0.3307 z"
         id="path264" />
      <path
         style="fill:#e93737;stroke-width:0.264562"
         d="m 53.283538,142.09543 c -2.051468,-1.38154 -4.84024,-4.10085 -7.583773,-7.39486 C 38.72273,126.32361 34.511625,117.26744 32.536504,106.39238 31.74742,102.04767 31.682537,92.025266 32.414899,87.608443 34.535688,74.818124 40.11631,63.836896 49.020692,54.932515 65.536007,38.417201 89.708635,33.183937 111.69795,41.363175 c 3.84439,1.429975 11.42521,5.34975 10.37653,5.365335 -0.18603,0.0028 -1.07893,-0.369014 -1.98422,-0.826174 -2.80165,-1.414812 -8.87422,-3.405165 -12.8549,-4.213345 -5.25741,-1.067385 -9.166703,-1.404321 -14.189068,-1.222932 -15.096698,0.545234 -28.881581,6.530374 -39.572187,17.181506 -9.079734,9.046209 -14.737709,20.33661 -16.804176,33.532471 -0.71877,4.589853 -0.660635,12.498124 0.126414,17.196564 2.127179,12.6986 7.600966,23.57807 16.40572,32.60733 1.099657,1.12769 1.881529,2.05036 1.737491,2.05036 -0.144039,0 -0.889245,-0.42249 -1.656016,-0.93886 z"
         id="path262" />
      <path
         style="fill:#8d2f68;stroke-width:0.264562"
         d="m 59.465752,141.29573 c -0.228658,-0.22865 -0.415741,-0.6384 -0.415741,-0.91054 0,-0.27214 7.976559,-14.98606 17.725688,-32.6976 9.749128,-17.711535 17.725687,-32.242958 17.725687,-32.292048 0,-0.04909 -8.369435,-0.08926 -18.598744,-0.08926 -14.112938,0 -18.675316,-0.07657 -18.916219,-0.317475 -0.233584,-0.233584 -0.317475,-2.535601 -0.317475,-8.711664 0,-7.278332 0.05526,-8.449457 0.415742,-8.809932 0.373144,-0.373144 3.54468,-0.415741 30.953812,-0.415741 30.185318,0 30.544178,0.0061 31.067198,0.529125 0.50718,0.507182 0.52912,0.881874 0.52912,9.035098 v 8.505972 l -17.49933,32.964205 c -9.624638,18.13031 -17.683479,33.11301 -17.908537,33.2949 -0.313866,0.25366 -3.197439,0.3307 -12.377329,0.3307 -10.527368,0 -12.01818,-0.05 -12.383872,-0.41574 z m 41.668568,-33.31597 17.43786,-32.805755 0.002,-8.53214 0.002,-8.532141 H 88.015782 57.45499 l 0.06996,8.135297 0.06996,8.135297 19.211264,0.132281 19.211265,0.132281 -17.862893,32.40891 c -9.824592,17.82489 -17.917852,32.73753 -17.985022,33.1392 l -0.12213,0.73029 11.824528,-0.0689 11.824529,-0.0689 z m -39.411384,31.28451 c 0.170765,-0.3274 8.231283,-14.99046 17.912262,-32.58459 9.68098,-17.594121 17.654944,-32.267419 17.719921,-32.607324 l 0.118137,-0.618007 H 77.997072 58.520886 v -7.143188 -7.143187 h 29.498719 29.498715 v 7.825899 7.825899 l -17.2627,32.513318 -17.262703,32.51331 -10.790229,0.007 -10.790232,0.007 0.31048,-0.59527 z M 99.601185,106.57689 116.72464,74.352499 v -7.19542 -7.195418 H 88.019605 59.314573 v 6.347783 6.347783 l 19.372851,0.06786 19.372851,0.06786 0.247049,0.702535 c 0.221791,0.630704 -1.500096,3.876679 -16.841049,31.747498 -9.398453,17.07473 -17.404215,31.61047 -17.790579,32.30163 l -0.702485,1.25668 h 9.752261 9.752263 z m -49.439154,33.21651 -0.503989,-0.59527 0.595266,0.50399 c 0.559401,0.47362 0.715705,0.68654 0.503989,0.68654 -0.0502,0 -0.318073,-0.26787 -0.595266,-0.59526 z M 123.3387,47.239023 c -0.56981,-0.466074 -0.58101,-0.501702 -0.0809,-0.257257 0.3193,0.156057 0.65372,0.402154 0.74316,0.546881 0.23879,0.386366 0.0784,0.316235 -0.66228,-0.289624 z"
         id="path260" />
      <path
         style="fill:#f70b0b;stroke-width:0.264562"
         d="M 46.204569,136.35408 C 36.214546,126.82568 30.381028,115.86802 28.070787,102.29166 27.22646,97.329892 27.218365,89.218118 28.052702,84.16913 30.34407,70.30292 36.709214,58.521412 46.878278,49.324094 55.411311,41.60647 65.576527,36.775818 77.437105,34.802117 c 4.459568,-0.742111 12.541093,-0.818519 16.959102,-0.160343 9.557623,1.423854 17.401793,4.456519 25.317313,9.788022 3.2043,2.158259 4.07005,3.092212 1.32577,1.430207 C 109.63226,38.951622 95.252818,36.161948 81.867265,38.260458 69.141552,40.255522 58.086361,45.866845 49.020692,54.932515 40.11631,63.836896 34.535688,74.818124 32.414899,87.608443 c -0.732362,4.416823 -0.667479,14.439227 0.121605,18.783937 2.206164,12.14719 7.586158,22.77398 15.905277,31.4168 2.540897,2.63976 1.016549,1.64832 -2.237212,-1.4551 z"
         id="path258" />
    </g>
  </g>
</svg>
