<?xml version="1.0" encoding="UTF-8" standalone="no"?>
<svg
   xmlns:dc="http://purl.org/dc/elements/1.1/"
   xmlns:cc="http://creativecommons.org/ns#"
   xmlns:rdf="http://www.w3.org/1999/02/22-rdf-syntax-ns#"
   xmlns:svg="http://www.w3.org/2000/svg"
   xmlns="http://www.w3.org/2000/svg"
   xmlns:sodipodi="http://sodipodi.sourceforge.net/DTD/sodipodi-0.dtd"
   xmlns:inkscape="http://www.inkscape.org/namespaces/inkscape"
   width="210mm"
   height="297mm"
   viewBox="0 0 210 297"
   version="1.1"
   id="svg8"
   inkscape:version="1.0.2-2 (e86c870879, 2021-01-15)"
   sodipodi:docname="08v.svg">
  <defs
     id="defs2">
    <pattern
       id="EMFhbasepattern"
       patternUnits="userSpaceOnUse"
       width="6"
       height="6"
       x="0"
       y="0" />
    <pattern
       id="EMFhbasepattern-8"
       patternUnits="userSpaceOnUse"
       width="6"
       height="6"
       x="0"
       y="0" />
    <pattern
       id="EMFhbasepattern-9"
       patternUnits="userSpaceOnUse"
       width="6"
       height="6"
       x="0"
       y="0" />
    <pattern
       id="EMFhbasepattern-1"
       patternUnits="userSpaceOnUse"
       width="6"
       height="6"
       x="0"
       y="0" />
    <pattern
       id="EMFhbasepattern-3"
       patternUnits="userSpaceOnUse"
       width="6"
       height="6"
       x="0"
       y="0" />
    <pattern
       id="EMFhbasepattern-4"
       patternUnits="userSpaceOnUse"
       width="6"
       height="6"
       x="0"
       y="0" />
    <pattern
       id="EMFhbasepattern-0"
       patternUnits="userSpaceOnUse"
       width="6"
       height="6"
       x="0"
       y="0" />
    <pattern
       id="EMFhbasepattern-48"
       patternUnits="userSpaceOnUse"
       width="6"
       height="6"
       x="0"
       y="0" />
  </defs>
  <sodipodi:namedview
     id="base"
     pagecolor="#ffffff"
     bordercolor="#666666"
     borderopacity="1.0"
     inkscape:pageopacity="0.0"
     inkscape:pageshadow="2"
     inkscape:zoom="1.0636576"
     inkscape:cx="351.05133"
     inkscape:cy="270.29157"
     inkscape:document-units="mm"
     inkscape:current-layer="g285"
     inkscape:document-rotation="0"
     showgrid="false"
     inkscape:window-width="1920"
     inkscape:window-height="1017"
     inkscape:window-x="-8"
     inkscape:window-y="-8"
     inkscape:window-maximized="1" />
  <metadata
     id="metadata5">
    <rdf:RDF>
      <cc:Work
         rdf:about="">
        <dc:format>image/svg+xml</dc:format>
        <dc:type
           rdf:resource="http://purl.org/dc/dcmitype/StillImage" />
        <dc:title />
      </cc:Work>
    </rdf:RDF>
  </metadata>
  <g
     inkscape:label="Warstwa 1"
     inkscape:groupmode="layer"
     id="layer1">
    <g
       id="g285"
       transform="translate(-28.138118,-13.802747)">
      <path
         style="fill:#e6af7f;stroke-width:0.264562"
         d="m 85.707569,120.11546 c -6.781562,-0.70299 -12.21039,-2.356 -16.667437,-5.07504 -6.883289,-4.19918 -10.759609,-11.94583 -10.231444,-20.447089 0.188072,-3.027183 0.698276,-5.029455 1.955016,-7.672366 1.623382,-3.413951 5.936579,-7.285493 10.892848,-9.777462 l 1.690454,-0.849947 -1.425892,-0.81086 C 68.369866,73.4632 64.818196,69.990881 63.379241,67.131653 61.414126,63.226944 60.480347,57.974558 61.068374,54.133322 62.33048,45.888711 67.193301,40.231909 76.081931,36.668408 c 4.039425,-1.619426 8.277222,-2.408347 13.858639,-2.579966 14.09723,-0.433465 24.2954,3.368323 29.36411,10.946671 1.81481,2.713355 2.66405,5.47575 2.84356,9.249465 0.16917,3.556484 -0.27998,5.795963 -1.79663,8.958044 -1.85374,3.864866 -5.10616,6.997492 -10.19795,9.822332 l -1.01418,0.562648 1.71059,0.860111 c 3.08739,1.552381 5.37966,3.201651 7.67227,5.520131 2.55709,2.585948 4.0424,5.198063 5.05923,8.89734 0.85677,3.116996 0.85887,9.127459 0.004,12.302156 -1.14455,4.25191 -3.16932,7.62796 -6.42613,10.71478 -4.99969,4.73872 -12.18667,7.51018 -21.576606,8.32041 -3.919004,0.33816 -5.595629,0.31659 -9.875565,-0.12707 z m 10.100666,-0.92166 c 11.320395,-1.07351 19.382585,-5.17905 24.059325,-12.25182 2.21386,-3.34808 3.15254,-6.37616 3.33592,-10.761327 0.19395,-4.637977 -0.62962,-8.360323 -2.61125,-11.802226 -2.03918,-3.541854 -6.05186,-6.950705 -10.88214,-9.244597 -1.65042,-0.783779 -2.04383,-1.084537 -2.04383,-1.562464 0,-0.440994 0.28659,-0.720104 1.12439,-1.095018 1.9966,-0.893481 5.57812,-3.40792 7.27734,-5.109128 1.87747,-1.879669 3.44988,-4.38138 4.33846,-6.902505 0.51491,-1.460938 0.60716,-2.256993 0.61315,-5.29125 0.006,-3.234276 -0.0631,-3.775836 -0.73553,-5.734162 -0.83818,-2.440964 -2.56232,-5.052606 -4.72042,-7.150267 -1.34574,-1.308042 -4.99982,-3.619789 -6.70686,-4.243077 -5.31051,-1.939018 -7.81219,-2.482773 -13.680267,-2.97349 -10.212094,-0.853984 -20.982692,2.132007 -26.74898,7.415761 -3.944659,3.614564 -6.094033,7.936034 -6.431993,12.931969 -0.188768,2.790476 0.364778,6.186363 1.480314,9.081407 1.142815,2.965843 1.424629,3.43305 3.243841,5.377793 1.976207,2.112572 3.999817,3.702328 6.373572,5.007108 1.098935,0.604049 1.76723,1.140365 1.76723,1.418221 0,0.293715 -0.702604,0.794394 -2.050359,1.4611 -3.334554,1.649531 -5.612728,3.262047 -8.030676,5.684204 -3.814335,3.820973 -5.208402,7.689422 -4.913754,13.635366 0.45813,9.245042 5.278715,15.632822 14.672208,19.442212 5.623083,2.28036 14.114621,3.34476 21.270309,2.66619 z m -7.984166,-13.4619 c -4.771358,-1.55323 -7.286104,-4.07239 -8.609461,-8.62458 -0.624177,-2.147094 -0.412625,-6.698654 0.422969,-9.100283 0.609605,-1.752097 3.131211,-5.770434 4.315626,-6.877218 l 0.67652,-0.632177 5.102625,2.046348 c 7.86452,3.153974 11.940722,5.667776 13.203202,8.14243 0.29613,0.580463 0.71464,1.90054 0.93002,2.933506 1.22539,5.877026 -1.81953,10.672444 -7.758922,12.219464 -2.121899,0.55268 -6.426175,0.49682 -8.282579,-0.10749 z m 8.193475,-0.98815 c 2.069003,-0.58657 3.194208,-1.22115 4.616786,-2.60373 1.83224,-1.78074 2.3754,-3.180768 2.36337,-6.091648 -0.0136,-3.28053 -0.67425,-4.95556 -2.64875,-6.715406 -1.78841,-1.593979 -6.261604,-3.91797 -11.564661,-6.00827 L 84.850101,81.77396 83.95542,82.826228 c -4.24039,4.987284 -5.341835,11.448866 -2.799193,16.421368 1.372349,2.683834 4.550573,5.001164 7.726092,5.633304 0.800302,0.15932 1.6932,0.34254 1.984219,0.40717 0.850386,0.18884 3.583756,-0.1 5.151006,-0.54432 z m -2.33133,-36.872729 c -9.1455,-3.548458 -12.013397,-5.997219 -12.398119,-10.586167 -0.199612,-2.380978 0.241821,-4.030898 1.538593,-5.750721 3.299613,-4.376052 12.323855,-4.991432 16.71091,-1.139547 0.536032,0.47064 1.356142,1.630736 1.822472,2.577989 1.99748,4.057452 1.08636,9.891516 -2.35401,15.073078 -0.516431,0.777803 -1.011401,1.41105 -1.099932,1.407213 -0.08853,-0.0038 -1.987491,-0.715665 -4.219914,-1.581845 z m 4.672057,-0.858384 c 2.034059,-2.967116 2.948019,-5.828418 2.954579,-9.249764 0.009,-4.585466 -2.154071,-7.358977 -6.677865,-8.563285 -3.904162,-1.039349 -8.864288,0.303999 -10.882625,2.947333 -1.245364,1.631004 -1.574861,2.752921 -1.424333,4.849771 0.296048,4.123948 2.865804,6.357638 11.037492,9.594034 2.117786,0.838748 3.934089,1.52979 4.036232,1.535651 0.102142,0.0058 0.532574,-0.495325 0.95652,-1.11374 z"
         id="path299" />
      <path
         style="fill:#ffd42a;stroke-width:0.264562"
         d="M 80.945444,131.51037 C 73.805802,130.653 66.584839,128.53858 60.479985,125.51772 57.658756,124.12169 56.981347,123.64763 54.922969,121.62888 45.592497,112.47802 39.696673,101.30378 37.516725,88.639188 36.66872,83.712621 36.660307,74.30108 37.499561,69.43599 39.655023,56.940931 45.209084,46.180198 54.083067,37.306213 64.839969,26.549311 78.407359,20.640384 93.644444,20.076271 c 7.563026,-0.280001 14.617796,0.807738 21.951516,3.384591 5.7905,2.034612 9.45939,3.988218 12.11159,6.449162 9.67588,8.978138 16.12508,21.808697 17.93892,35.689162 0.54466,4.168081 0.40503,12.62833 -0.27331,16.559654 -2.18243,12.648284 -7.7216,23.45632 -16.5419,32.27663 -9.045,9.04499 -20.02079,14.62871 -32.805753,16.68928 -4.320224,0.6963 -11.058162,0.8686 -15.080063,0.38562 z m 15.713714,-10.47006 c 11.042812,-1.04716 19.835902,-5.46163 24.486082,-12.29294 1.68908,-2.48132 2.20769,-3.55726 2.99675,-6.21722 2.64455,-8.91483 0.56784,-17.970368 -5.43857,-23.71503 -1.99488,-1.907949 -4.64071,-3.810118 -6.59791,-4.743442 l -0.95242,-0.454177 2.0266,-1.318379 c 5.9371,-3.862308 9.0325,-8.559647 9.85214,-14.950821 0.56481,-4.404209 -0.58146,-9.335873 -3.00312,-12.920462 -2.16063,-3.198196 -4.62442,-5.296354 -8.44202,-7.189211 -3.9866,-1.976653 -6.4937,-2.78405 -10.79906,-3.477768 -11.377813,-1.833298 -22.285388,-0.196058 -30.086466,4.516017 -4.61188,2.785706 -7.973041,6.901502 -9.632448,11.79509 -0.845952,2.494714 -0.87748,2.736204 -0.87326,6.688873 0.0051,4.761564 0.456277,6.882758 2.233161,10.498758 1.298981,2.643459 4.196327,5.841289 6.978204,7.701925 l 1.902932,1.272758 -1.846488,1.044201 c -4.697151,2.656274 -8.321562,6.353884 -10.042578,10.245408 -1.465009,3.312645 -1.994714,7.776333 -1.388345,11.699232 0.857675,5.548708 2.595464,9.283468 6.031658,12.962908 6.205697,6.645 19.062725,10.13754 32.595158,8.85428 z m -8.173682,-17.13897 c -1.949654,-0.58504 -2.589178,-0.91704 -4.065297,-2.11045 -3.466795,-2.802824 -4.650183,-8.168215 -2.878262,-13.049809 0.644818,-1.776452 2.915978,-5.467142 3.502955,-5.692385 0.467911,-0.179556 8.491832,3.116086 11.20291,4.601337 1.296988,0.710549 2.937869,1.892768 3.781758,2.724674 1.25141,1.233647 1.54309,1.703671 1.81714,2.928265 0.17955,0.80231 0.28119,2.355101 0.22587,3.450649 -0.0833,1.648433 -0.23789,2.213983 -0.89685,3.279819 -1.652428,2.67274 -4.518354,4.08981 -8.589506,4.24711 -1.881512,0.0727 -2.912393,-0.0226 -4.100718,-0.37921 z m 5.820375,-37.900321 c -7.055914,-2.733166 -10.293593,-5.058832 -10.970428,-7.8802 -0.655507,-2.732455 0.183519,-5.035381 2.426509,-6.660195 3.090936,-2.239064 8.902232,-2.195255 11.898,0.08969 3.327738,2.538147 3.756238,7.607013 1.087772,12.867299 -0.696908,1.373794 -1.386156,2.522646 -1.531666,2.553007 -0.145509,0.03036 -1.455094,-0.405961 -2.910187,-0.969603 z"
         id="path297" />
      <path
         style="fill:#99ff55;stroke-width:0.264562"
         d="m 63.591996,106.81431 c -1.356972,-2.30376 -1.538393,-2.74851 -2.249789,-5.51522 -1.100625,-4.280499 -0.733145,-9.721147 0.871797,-12.907162 1.970832,-3.912359 5.356645,-6.942364 10.818522,-9.681631 1.223654,-0.613692 2.315424,-1.249595 2.426154,-1.413115 0.110733,-0.163521 0.170259,-0.707406 0.132281,-1.208636 -0.06434,-0.849134 -0.229539,-1.002591 -2.42095,-2.248781 -6.174347,-3.511168 -8.974688,-7.539698 -10.062283,-14.475458 -0.395307,-2.520944 -0.401339,-3.051956 -0.05855,-5.154185 0.489073,-2.999316 1.209633,-4.885155 2.786552,-7.292927 3.463782,-5.288801 9.436939,-8.724666 18.152178,-10.441454 1.875767,-0.369504 3.616228,-0.463297 8.201438,-0.441981 5.179123,0.02407 6.19082,0.103322 9.182764,0.719258 1.84932,0.380708 4.19287,1.021754 5.2079,1.424548 l 1.84551,0.732348 -3.69114,5.858157 -3.69116,5.858158 -0.72306,-0.720595 c -1.88825,-1.881804 -4.913552,-2.933606 -8.43794,-2.933606 -4.008476,0 -6.966597,1.027539 -9.086719,3.156381 -2.140326,2.149134 -2.922222,4.735762 -2.38834,7.900977 0.601284,3.564821 2.874992,6.101131 7.462945,8.324882 1.27244,0.616746 2.318364,1.210826 2.324274,1.32018 0.0059,0.109357 -5.744638,9.355401 -12.778998,20.546771 l -12.78974,20.347941 z"
         id="path295" />
      <path
         style="fill:#55d400;stroke-width:0.264562"
         d="m 85.046163,118.14473 c -5.630474,-0.678 -11.200507,-2.49036 -15.074432,-4.90488 -2.193459,-1.36712 -5.23425,-4.29452 -5.078703,-4.88932 0.07451,-0.28491 25.006005,-40.155261 25.437345,-40.679296 0.03122,-0.03792 1.677887,0.541654 3.659273,1.287951 2.383634,0.897806 3.815954,1.303335 4.233352,1.198574 0.691537,-0.173564 2.019052,-2.013271 3.337672,-4.625447 2.24929,-4.455817 2.30758,-10.730213 0.12951,-13.939782 l -0.64957,-0.957201 3.64352,-5.797876 c 2.00395,-3.188833 3.78321,-5.798871 3.95392,-5.800088 0.79894,-0.0057 4.59529,2.383851 6.21538,3.912159 2.34479,2.211962 3.75765,4.361049 4.58143,6.968786 2.76662,8.757878 -1.07458,16.524023 -10.65009,21.53239 -1.37797,0.720731 -1.96935,1.187192 -2.08393,1.643729 -0.29033,1.156741 0.27559,1.778148 2.66233,2.923387 7.91077,3.795852 11.91469,8.900615 12.87761,16.418182 0.57273,4.47135 -0.47002,9.679472 -2.68951,13.433032 -0.49812,0.84241 -1.85169,2.52645 -3.00793,3.74232 -3.61858,3.80516 -8.82483,6.49644 -15.22658,7.87111 -2.868032,0.61587 -4.044558,0.72176 -8.862847,0.79771 -3.055697,0.0482 -6.389184,-0.0128 -7.40775,-0.13544 z m 10.5825,-11.25218 c 3.793147,-0.79992 7.171397,-3.24414 8.532187,-6.17318 1.24422,-2.678166 1.0865,-7.562283 -0.33479,-10.367063 -1.44265,-2.846931 -5.431983,-5.335268 -14.170887,-8.839055 -2.380677,-0.95451 -4.650282,-1.735474 -5.043564,-1.735474 -0.806601,0 -2.356419,1.651492 -4.047748,4.313295 -3.119803,4.909928 -3.581862,11.267484 -1.170689,16.107737 1.510427,3.03207 5.260955,5.85033 8.69546,6.53403 0.800302,0.15932 1.6932,0.33655 1.984219,0.39386 1.21971,0.24019 3.827735,0.13027 5.555812,-0.23415 z"
         id="path293" />
      <path
         style="fill:#ffcc00;stroke-width:0.264562"
         d="M 54.224632,121.93638 C 51.19659,119.98379 45.572796,113.87451 42.337979,109.02358 37.523517,101.80381 34.525256,94.083945 33.034454,85.069028 32.217195,80.12704 32.20938,72.447637 33.016545,67.471021 35.138788,54.386215 40.572741,43.662793 49.712506,34.523027 c 9.085885,-9.085885 19.958092,-14.639152 32.555751,-16.62871 13.374185,-2.112196 26.847843,0.378832 38.683503,7.151857 1.29496,0.741053 2.30023,1.401623 2.23392,1.467935 -0.0663,0.06631 -0.93638,-0.289935 -1.93348,-0.791659 -2.87384,-1.446069 -9.1697,-3.542097 -13.21527,-4.399653 -5.15431,-1.092581 -9.165934,-1.440025 -14.392486,-1.246526 -15.237085,0.564113 -28.804475,6.47304 -39.561377,17.229942 -8.873983,8.873985 -14.428044,19.634718 -16.583506,32.129777 -0.839254,4.86509 -0.830841,14.276631 0.01716,19.203198 1.434004,8.330967 4.399315,15.861572 8.959725,22.753812 2.549042,3.85241 4.164281,5.85265 7.317218,9.06126 1.322603,1.34596 2.288032,2.44118 2.145395,2.43381 -0.142636,-0.007 -0.914129,-0.43563 -1.714431,-0.95169 z"
         id="path291" />
      <path
         style="fill:#447821;stroke-width:0.264562"
         d="m 85.443007,121.02065 c -8.829829,-0.77527 -17.008929,-4.15518 -21.379007,-8.83462 -3.436194,-3.67944 -5.173983,-7.4142 -6.031658,-12.962908 -0.606369,-3.922899 -0.07666,-8.386587 1.388345,-11.699232 1.721016,-3.891524 5.345427,-7.589134 10.042578,-10.245408 l 1.846488,-1.044201 -1.902932,-1.272758 c -2.781877,-1.860636 -5.679223,-5.058466 -6.978204,-7.701925 -1.776884,-3.616 -2.228076,-5.737194 -2.233161,-10.498758 -0.0042,-3.952669 0.02731,-4.194159 0.87326,-6.688873 1.659407,-4.893588 5.020568,-9.009384 9.632448,-11.79509 7.801078,-4.712075 18.708653,-6.349315 30.086466,-4.516017 4.30536,0.693718 6.81246,1.501115 10.79906,3.477768 3.8176,1.892857 6.28139,3.991015 8.44202,7.189211 2.42166,3.584589 3.56793,8.516253 3.00312,12.920462 -0.81964,6.391174 -3.91504,11.088513 -9.85214,14.950821 l -2.0266,1.318379 0.95242,0.454177 c 1.9572,0.933324 4.60303,2.835493 6.59791,4.743442 6.00641,5.744662 8.08312,14.8002 5.43857,23.71503 -0.78906,2.65996 -1.30767,3.7359 -2.99675,6.21722 -6.22513,9.14499 -19.47079,13.69842 -35.702233,12.27328 z m 10.140128,-0.77812 c 7.289665,-0.62901 12.440035,-2.17116 17.638695,-5.28147 3.66115,-2.19043 7.42148,-6.36432 9.14098,-10.14629 1.35418,-2.97845 1.82946,-5.551946 1.81446,-9.824648 -0.0163,-4.647834 -0.48861,-6.805659 -2.2873,-10.450219 -1.86214,-3.77314 -5.94422,-7.490008 -11.0399,-10.05219 l -1.71059,-0.860111 1.01418,-0.562648 c 1.69145,-0.938387 4.45361,-2.841372 5.71403,-3.936674 2.88338,-2.505634 5.05697,-6.134157 5.95991,-9.949296 0.65499,-2.767488 0.43368,-7.052818 -0.51721,-10.014926 -2.65601,-8.273692 -11.23867,-13.621977 -23.96207,-14.931965 -4.366964,-0.449619 -11.382998,-0.137618 -15.313733,0.680997 -5.706531,1.18844 -11.035677,3.69799 -14.400732,6.781453 -3.688842,3.380154 -5.7874,7.356028 -6.565481,12.438779 -0.588027,3.841236 0.345752,9.093622 2.310867,12.998331 1.438955,2.859228 4.990625,6.331547 8.541873,8.351043 l 1.425892,0.81086 -1.690454,0.849947 c -4.956269,2.491969 -9.269466,6.363511 -10.892848,9.777462 -1.25674,2.642911 -1.766944,4.645183 -1.955016,7.672366 -0.528165,8.501259 3.348155,16.247909 10.231444,20.447089 4.457047,2.71904 9.885875,4.37205 16.667437,5.07504 4.279937,0.44366 5.956562,0.46523 9.875566,0.12707 z m -9.346441,-1.08392 C 72.648447,117.90645 63.534557,111.972 60.699357,102.53015 c -0.943308,-3.14142 -1.173509,-7.820925 -0.52814,-10.736002 0.779954,-3.522988 1.999021,-5.730339 4.608255,-8.344116 2.417948,-2.422157 4.696122,-4.034673 8.030676,-5.684204 1.347755,-0.666706 2.050359,-1.167385 2.050359,-1.4611 0,-0.277856 -0.668295,-0.814172 -1.76723,-1.418221 -2.373755,-1.30478 -4.397365,-2.894536 -6.373572,-5.007108 -1.819212,-1.944743 -2.101026,-2.41195 -3.243841,-5.377793 -4.398269,-11.414422 0.797682,-22.017894 13.188763,-26.914541 5.131733,-2.027932 12.447714,-3.021712 18.511896,-2.514596 5.868077,0.490717 8.369757,1.034472 13.680267,2.97349 1.70704,0.623288 5.36112,2.935035 6.70686,4.243077 2.1581,2.097661 3.88224,4.709303 4.72042,7.150267 0.67246,1.958326 0.74193,2.499886 0.73553,5.734162 -0.006,3.034257 -0.0982,3.830312 -0.61315,5.29125 -0.88858,2.521125 -2.46099,5.022836 -4.33846,6.902505 -1.69922,1.701208 -5.28074,4.215647 -7.27734,5.109128 -0.8378,0.374914 -1.12439,0.654024 -1.12439,1.095018 0,0.477927 0.39341,0.778685 2.04383,1.562464 4.83028,2.293892 8.84296,5.702743 10.88214,9.244597 1.98163,3.441903 2.8052,7.164249 2.61125,11.802226 -0.1144,2.735563 -0.2812,3.74939 -0.96528,5.866917 -1.04104,3.22249 -3.16696,6.51613 -5.86995,9.09418 -6.40726,6.11111 -17.830529,9.15041 -30.131556,8.01686 z m 15.080066,-1.67615 c 6.40175,-1.37467 11.608,-4.06595 15.22658,-7.87111 1.15624,-1.21587 2.50981,-2.89991 3.00793,-3.74232 2.21949,-3.75356 3.26224,-8.961682 2.68951,-13.433032 -0.96292,-7.517567 -4.96684,-12.62233 -12.87761,-16.418182 -2.38674,-1.145239 -2.95266,-1.766646 -2.66233,-2.923387 0.11458,-0.456537 0.70596,-0.922998 2.08393,-1.643729 7.97478,-4.171122 11.98868,-10.208674 11.47334,-17.257754 -0.65592,-8.97197 -7.23889,-15.040976 -18.92536,-17.447762 -2.947166,-0.606956 -3.981351,-0.687426 -9.143399,-0.711424 -4.58521,-0.02132 -6.325671,0.07248 -8.201438,0.441981 -8.715239,1.716788 -14.688396,5.152653 -18.152178,10.441454 -1.576919,2.407772 -2.297479,4.293611 -2.786552,7.292927 -0.342794,2.102229 -0.336762,2.633241 0.05855,5.154185 1.087595,6.93576 3.887936,10.96429 10.062283,14.475458 2.191411,1.24619 2.356614,1.399647 2.42095,2.248781 0.03798,0.50123 -0.02153,1.045115 -0.132281,1.208636 -0.11073,0.16352 -1.2025,0.799423 -2.426154,1.413115 -8.64971,4.338045 -12.259925,9.353684 -12.289373,17.073512 -0.02273,5.954691 1.770132,10.595771 5.614323,14.533611 3.091593,3.16689 8.212663,5.74667 13.794281,6.94896 4.512111,0.97191 6.18945,1.11014 12.302156,1.01379 4.818289,-0.0759 5.994815,-0.18184 8.862852,-0.79771 z M 90.072851,107.1267 c -0.291019,-0.0573 -1.183917,-0.23454 -1.984219,-0.39386 -3.434505,-0.6837 -7.185033,-3.50196 -8.69546,-6.53403 -2.411173,-4.840253 -1.949114,-11.197809 1.170689,-16.107737 1.691329,-2.661803 3.241147,-4.313295 4.047748,-4.313295 0.393282,0 2.662887,0.780964 5.043564,1.735474 8.738904,3.503787 12.728237,5.992124 14.170887,8.839055 1.42129,2.80478 1.57901,7.688897 0.33479,10.367063 -1.36079,2.92904 -4.73904,5.37326 -8.532187,6.17318 -1.728077,0.36442 -4.336102,0.47434 -5.555812,0.23415 z m 6.033797,-1.28731 c 3.26985,-0.85169 6.083762,-3.02344 7.201462,-5.55802 1.17928,-2.674204 1.01625,-6.872642 -0.37256,-9.59495 -1.26248,-2.474654 -5.338682,-4.988456 -13.203202,-8.14243 l -5.102625,-2.046348 -0.67652,0.632177 c -1.184415,1.106784 -3.706021,5.125121 -4.315626,6.877218 -0.835594,2.401629 -1.047146,6.953189 -0.422969,9.100283 1.323357,4.55219 3.838103,7.07135 8.609461,8.62458 1.856404,0.60431 6.16068,0.66017 8.282579,0.10749 z m -5.24011,-0.55132 c -0.291019,-0.0646 -1.183917,-0.24785 -1.984219,-0.40717 -3.175519,-0.63214 -6.353743,-2.94947 -7.726092,-5.633304 -1.48523,-2.904584 -1.773712,-6.796042 -0.74709,-10.077849 0.624529,-1.996439 2.111034,-4.655467 3.546283,-6.343519 l 0.894681,-1.052268 3.934188,1.550736 c 8.529653,3.362124 12.492451,5.931351 13.615941,8.82771 0.82297,2.121645 0.84463,5.750136 0.0449,7.525649 -0.63665,1.413475 -2.5869,3.434315 -4.019865,4.165365 -1.962977,1.00144 -6.043052,1.78123 -7.558747,1.44465 z m 5.762783,-1.68892 c 2.021186,-0.77197 3.570309,-1.98694 4.546379,-3.56571 0.65896,-1.065836 0.8136,-1.631386 0.89685,-3.279819 0.0553,-1.095548 -0.0463,-2.648339 -0.22587,-3.450649 -0.65696,-2.935588 -4.091096,-5.372132 -12.182798,-8.643767 -2.361056,-0.954621 -4.43961,-1.679351 -4.61901,-1.610509 -0.586977,0.225243 -2.858137,3.915933 -3.502955,5.692385 -2.07666,5.72114 -0.08435,11.803949 4.694777,14.333809 2.667693,1.41216 7.437908,1.6528 10.392627,0.52426 z M 93.776726,68.90586 c -9.2987,-3.550112 -12.584712,-6.223362 -13.36956,-10.876474 -0.533882,-3.165215 0.248014,-5.751843 2.38834,-7.900977 2.120122,-2.128842 5.078243,-3.156381 9.086719,-3.156381 5.318865,0 9.148565,2.332227 10.785305,6.568079 0.72125,1.866591 0.78691,5.867549 0.14078,8.578129 -0.59821,2.509542 -2.849973,6.803982 -4.092284,7.804589 -0.640541,0.515915 -1.256392,0.389118 -4.9393,-1.016965 z m 5.229334,-0.860207 c 2.49752,-3.761541 3.52388,-7.216069 3.3167,-11.163397 -0.19803,-3.772997 -1.96052,-6.519659 -5.108272,-7.960752 -4.798722,-2.196924 -11.707227,-0.942435 -14.3878,2.612629 -1.296772,1.719823 -1.738205,3.369743 -1.538593,5.750721 0.384722,4.588948 3.252619,7.037709 12.398119,10.586167 2.232423,0.86618 4.131384,1.578009 4.219914,1.581845 0.08853,0.0038 0.583501,-0.62941 1.099932,-1.407213 z m -5.640541,-1.454927 c -6.143472,-2.43312 -9.149217,-4.393595 -10.354275,-6.753497 -0.677627,-1.327014 -0.936112,-4.202922 -0.497272,-5.532621 0.53508,-1.621316 2.034438,-3.305587 3.683898,-4.138231 3.444233,-1.738644 7.45154,-1.746174 11.015893,-0.02069 4.998747,2.41985 5.543617,10.44989 1.144508,16.86696 -0.423946,0.618415 -0.854378,1.119597 -0.95652,1.113739 -0.102143,-0.0059 -1.918446,-0.696903 -4.036232,-1.53565 z m 5.382185,-2.173111 c 3.340236,-6.584508 1.764616,-12.569957 -3.731884,-14.176703 -5.433857,-1.588433 -11.268465,0.994591 -11.851273,5.246645 -0.461619,3.367875 1.455247,6.009976 5.983581,8.247429 2.751225,1.359383 7.648028,3.323246 8.06791,3.235636 0.14551,-0.03036 0.834758,-1.179213 1.531666,-2.553007 z M 51.280697,119.79286 c -0.329081,-0.41962 -0.319724,-0.42897 0.09989,-0.0999 0.254642,0.1997 0.462984,0.40805 0.462984,0.46298 0,0.21775 -0.217256,0.0776 -0.562872,-0.36309 z M 124.14736,27.202925 c -0.46626,-0.23221 -0.90898,-0.581756 -0.98381,-0.776768 -0.21069,-0.549052 0.15936,-0.405554 1.16015,0.449873 1.03581,0.885365 1.01659,0.921007 -0.17634,0.326895 z"
         id="path289" />
      <path
         style="fill:#d4aa00;stroke-width:0.264562"
         d="M 48.933382,117.96578 C 43.275314,113.13108 38.221821,106.75542 34.601767,99.884528 31.832584,94.628594 29.977067,89.058678 28.78491,82.423403 27.98309,77.960662 27.913335,68.248054 28.650955,63.771747 32.560866,40.044139 49.740019,21.204192 72.639981,15.530089 c 5.383032,-1.333796 8.682245,-1.729812 14.390401,-1.72733 9.908678,0.0043 18.050698,1.93677 26.853098,6.373426 3.39399,1.710667 9.31447,5.531963 9.02279,5.823641 -0.0655,0.06546 -0.98328,-0.385747 -2.03961,-1.002676 -11.3588,-6.6339 -25.310873,-9.201343 -38.598403,-7.102833 -12.597659,1.989558 -23.469866,7.542825 -32.555751,16.62871 -9.139765,9.139766 -14.573718,19.863188 -16.695961,32.947994 -0.807165,4.976616 -0.79935,12.656019 0.01791,17.598007 2.108221,12.748468 7.444687,23.446912 16.132814,32.342762 1.101365,1.1277 1.886223,2.0443 1.744126,2.03688 -0.142096,-0.007 -1.032201,-0.67472 -1.978012,-1.48289 z"
         id="path287" />
    </g>
  </g>
</svg>
