<?xml version="1.0" encoding="UTF-8" standalone="no"?>
<svg
   xmlns:dc="http://purl.org/dc/elements/1.1/"
   xmlns:cc="http://creativecommons.org/ns#"
   xmlns:rdf="http://www.w3.org/1999/02/22-rdf-syntax-ns#"
   xmlns:svg="http://www.w3.org/2000/svg"
   xmlns="http://www.w3.org/2000/svg"
   xmlns:sodipodi="http://sodipodi.sourceforge.net/DTD/sodipodi-0.dtd"
   xmlns:inkscape="http://www.inkscape.org/namespaces/inkscape"
   width="210mm"
   height="297mm"
   viewBox="0 0 210 297"
   version="1.1"
   id="svg8"
   inkscape:version="1.0.1 (3bc2e813f5, 2020-09-07)"
   sodipodi:docname="09v.svg">
  <defs
     id="defs2">
    <pattern
       id="EMFhbasepattern"
       patternUnits="userSpaceOnUse"
       width="6"
       height="6"
       x="0"
       y="0" />
    <pattern
       id="EMFhbasepattern-8"
       patternUnits="userSpaceOnUse"
       width="6"
       height="6"
       x="0"
       y="0" />
    <pattern
       id="EMFhbasepattern-9"
       patternUnits="userSpaceOnUse"
       width="6"
       height="6"
       x="0"
       y="0" />
    <pattern
       id="EMFhbasepattern-1"
       patternUnits="userSpaceOnUse"
       width="6"
       height="6"
       x="0"
       y="0" />
    <pattern
       id="EMFhbasepattern-3"
       patternUnits="userSpaceOnUse"
       width="6"
       height="6"
       x="0"
       y="0" />
    <pattern
       id="EMFhbasepattern-4"
       patternUnits="userSpaceOnUse"
       width="6"
       height="6"
       x="0"
       y="0" />
    <pattern
       id="EMFhbasepattern-0"
       patternUnits="userSpaceOnUse"
       width="6"
       height="6"
       x="0"
       y="0" />
    <pattern
       id="EMFhbasepattern-48"
       patternUnits="userSpaceOnUse"
       width="6"
       height="6"
       x="0"
       y="0" />
    <pattern
       id="EMFhbasepattern-5"
       patternUnits="userSpaceOnUse"
       width="6"
       height="6"
       x="0"
       y="0" />
  </defs>
  <sodipodi:namedview
     id="base"
     pagecolor="#ffffff"
     bordercolor="#666666"
     borderopacity="1.0"
     inkscape:pageopacity="0.0"
     inkscape:pageshadow="2"
     inkscape:zoom="1.0636576"
     inkscape:cx="351.05133"
     inkscape:cy="270.29157"
     inkscape:document-units="mm"
     inkscape:current-layer="layer1"
     inkscape:document-rotation="0"
     showgrid="false"
     inkscape:window-width="1920"
     inkscape:window-height="1017"
     inkscape:window-x="-8"
     inkscape:window-y="-8"
     inkscape:window-maximized="1" />
  <metadata
     id="metadata5">
    <rdf:RDF>
      <cc:Work
         rdf:about="">
        <dc:format>image/svg+xml</dc:format>
        <dc:type
           rdf:resource="http://purl.org/dc/dcmitype/StillImage" />
        <dc:title></dc:title>
      </cc:Work>
    </rdf:RDF>
  </metadata>
  <g
     inkscape:label="Warstwa 1"
     inkscape:groupmode="layer"
     id="layer1">
    <g
       id="g314"
       transform="translate(-5.8209577,-31.195263)">
      <path
         style="fill:#b0acf7;stroke-width:0.264562"
         d="m 54.072662,105.11335 c -3.437453,-1.39694 -6.534686,-4.06899 -8.972296,-7.740577 -2.792243,-4.20575 -3.775209,-8.022086 -3.798964,-14.749347 -0.02169,-6.144297 0.900769,-10.213355 3.317915,-14.635531 3.643039,-6.664954 9.718553,-11.230543 17.557788,-13.194216 3.305934,-0.828115 3.63938,-0.861135 8.598282,-0.851508 4.679412,0.0091 5.45408,0.07826 8.333718,0.744223 4.482827,1.036717 7.571655,2.559779 11.454265,5.647951 l 0.607206,0.482962 -4.791222,6.074794 c -2.635172,3.341136 -4.872789,6.09643 -4.972484,6.122876 -0.09969,0.02646 -0.597951,-0.806929 -1.107233,-1.851938 -2.190025,-4.493768 -5.373921,-6.419836 -10.289632,-6.224624 -2.003127,0.07955 -2.542488,0.211341 -4.098066,1.001351 -3.067136,1.557667 -5.336204,4.789888 -6.424096,9.150939 -0.585961,2.348953 -0.654318,8.82526 -0.115809,10.972034 0.764739,3.048641 2.799608,6.142221 4.828527,7.340731 0.417737,0.246763 0.728616,0.524768 0.690844,0.617788 -0.224444,0.552748 -9.111172,11.598702 -9.328362,11.594892 -0.14551,-0.003 -0.816181,-0.22881 -1.490381,-0.5028 z"
         id="path328" />
      <path
         style="fill:#9a94e9;stroke-width:0.264562"
         d="m 53.975668,137.53209 c -3.428775,-0.32965 -6.490763,-0.77318 -7.606172,-1.10175 -0.428425,-0.1262 -0.462984,-0.76701 -0.462984,-8.58455 v -8.44818 h 1.173681 c 0.670451,0 2.060021,0.34131 3.24089,0.79603 2.89928,1.11644 5.700465,1.58504 9.47496,1.58504 5.288496,0 9.176726,-0.982 12.722877,-3.21325 2.652741,-1.66911 5.551492,-5.38737 6.813166,-8.73934 0.609142,-1.61833 1.599212,-5.4983 1.441284,-5.64822 -0.04229,-0.0401 -1.684107,0.72154 -3.648483,1.69262 -6.425888,3.1766 -12.362985,3.89682 -19.543042,2.37073 -6.045052,-1.28485 -10.652278,-4.40809 -13.983588,-9.479481 -1.795787,-2.733798 -2.538475,-4.361374 -3.22375,-7.064761 -0.886454,-3.497026 -1.164083,-6.518245 -1.003975,-10.925489 0.274611,-7.559199 2.18531,-12.822535 6.731772,-18.543776 1.922779,-2.419617 5.222482,-5.030058 8.432607,-6.671152 3.19447,-1.633091 3.768319,-1.848242 7.257896,-2.72115 2.903473,-0.726298 3.283869,-0.757562 9.114861,-0.74915 5.942124,0.0086 6.162552,0.02841 9.391969,0.845182 8.866507,2.242487 15.114823,7.623656 18.813317,16.202391 2.777356,6.442134 4.070686,16.14716 3.433826,25.767187 -0.78381,11.839959 -3.161356,19.911139 -8.003752,27.170809 -3.399004,5.09576 -9.265235,9.85446 -15.331101,12.43664 -6.123111,2.60654 -16.56353,3.85744 -25.236259,3.02362 z m 14.286375,-1.31793 c 6.952358,-0.96586 11.622315,-2.71254 16.928918,-6.33183 7.081052,-4.82954 12.312712,-12.92851 14.548646,-22.52231 3.265753,-14.012481 2.390193,-29.738327 -2.170823,-38.989755 -2.140607,-4.341945 -4.239468,-7.012208 -7.489706,-9.528729 -4.521897,-3.501109 -9.066123,-5.142474 -16.238492,-5.865304 -8.227052,-0.829121 -17.336516,1.69596 -23.342664,6.470427 -4.148782,3.297988 -7.624262,8.716527 -9.10499,14.195365 -0.716154,2.649845 -0.835819,3.591399 -0.956533,7.526309 -0.22431,7.311891 0.769644,11.778788 3.631829,16.321675 2.316269,3.676412 4.898571,6.067112 8.463016,7.835092 3.90144,1.93512 6.63977,2.52183 11.762361,2.52019 5.907353,-0.002 9.183552,-0.96026 15.255415,-4.46251 1.126827,-0.64995 2.101113,-1.18173 2.165079,-1.18173 0.64562,0 0.09552,3.40443 -1.18387,7.32662 -1.281847,3.92975 -3.986012,7.62704 -7.109217,9.72012 -3.437279,2.30357 -6.749874,3.2682 -12.069286,3.51461 -4.206748,0.19487 -7.731789,-0.25848 -10.947462,-1.40792 -1.382444,-0.49415 -2.721877,-0.89849 -2.976518,-0.89854 -0.430068,-7e-5 -0.462984,0.53395 -0.462984,7.51127 v 7.51135 l 0.59695,0.14983 c 0.703911,0.17667 6.364628,0.90502 8.265893,1.06354 2.279696,0.19009 9.671543,-0.0939 12.434438,-0.47777 z m 1.322812,-41.785767 c -4.950229,-0.81063 -8.133818,-3.729032 -9.292226,-8.518198 -0.588212,-2.431824 -0.584022,-7.497921 0.0084,-10.165394 1.554236,-6.998125 6.208824,-10.846184 11.933383,-9.865609 0.926299,0.158669 2.219021,0.5556 2.872712,0.88207 3.168369,1.582359 5.6714,6.014405 6.642368,11.761446 0.496883,2.940996 0.809591,9.963625 0.550986,12.373792 -0.187599,1.748385 -0.215444,1.801072 -1.162665,2.199755 -3.136777,1.320267 -8.117992,1.894635 -11.552963,1.332138 z m 8.333719,-1.447792 c 1.09132,-0.286934 2.327465,-0.654329 2.746989,-0.816437 l 0.762774,-0.294738 -0.14502,-5.482828 c -0.201779,-7.628911 -0.95011,-11.24915 -3.103154,-15.012276 -3.69711,-6.461873 -12.192932,-6.040304 -15.467356,0.767503 -1.347599,2.801773 -1.81438,5.053446 -1.816391,8.761945 -0.0039,7.282123 2.692315,11.232705 8.493383,12.444565 2.27674,0.475617 5.918382,0.318602 8.528775,-0.367734 z"
         id="path326" />
      <path
         style="fill:#f05094;stroke-width:0.264562"
         d="m 58.737793,148.9142 c -7.120856,-0.87172 -14.036665,-2.89447 -20.311696,-5.94081 -3.808721,-1.84902 -5.678549,-3.43236 -9.687909,-8.20359 -8.466103,-10.07483 -12.886896,-20.89153 -14.063667,-34.41069 -0.48549,-5.57747 0.182598,-12.458603 1.837541,-18.926215 4.731185,-18.489728 18.651416,-33.806302 36.762216,-40.449844 5.913996,-2.169417 11.662119,-3.281696 18.162515,-3.5145 9.851641,-0.352824 19.475527,1.717588 28.572747,6.146932 3.34901,1.630599 3.5206,1.756577 6.53519,4.798207 3.62252,3.655004 4.74171,5.013315 7.45946,9.053224 4.69709,6.982188 7.83452,15.139557 9.31935,24.230544 0.70971,4.345174 0.64924,13.116016 -0.12171,17.655083 -2.19446,12.920199 -7.8472,23.908999 -16.87547,32.805559 -9.021225,8.88962 -19.876836,14.35506 -32.508505,16.36697 -4.201755,0.66924 -11.296456,0.85231 -15.080062,0.38913 z m 9.921094,-10.72899 c 5.131078,-0.73735 9.045116,-1.89053 12.831281,-3.78045 8.574835,-4.28025 14.278242,-10.53296 17.956952,-19.68642 1.47447,-3.66882 2.07382,-5.83873 2.90932,-10.53307 1.65792,-9.315243 1.65924,-19.076946 0.004,-27.376689 -0.82431,-4.132535 -1.64777,-6.626783 -3.187189,-9.653949 -2.322959,-4.567958 -4.300394,-7.109527 -7.510106,-9.652635 -3.203125,-2.537889 -6.823705,-4.347256 -10.569521,-5.282064 -14.229777,-3.551192 -28.545442,0.360218 -36.036135,9.846003 -5.046675,6.390825 -7.37524,14.754188 -6.570801,23.599959 0.570815,6.276812 1.586711,9.452112 4.353982,13.608878 2.879509,4.325357 6.109761,6.931357 10.894948,8.789447 3.456647,1.34222 5.356444,1.6431 10.426006,1.65124 5.610495,0.009 8.151012,-0.5053 12.402732,-2.51083 1.519248,-0.71662 2.820835,-1.24439 2.892417,-1.1728 0.07158,0.0716 -0.215399,1.17104 -0.637733,2.44325 -1.230176,3.70567 -3.759129,7.2392 -6.525759,9.11798 -3.435064,2.33271 -6.83488,3.21741 -12.364657,3.21754 -4.43511,1e-4 -6.250702,-0.29603 -9.561831,-1.55961 -1.313878,-0.50139 -2.846367,-0.91163 -3.405528,-0.91163 -1.890519,0 -1.848141,-0.22164 -1.848141,9.66612 0,8.41406 0.02397,8.84747 0.50351,9.10411 0.668838,0.35795 4.546597,1.01032 7.830209,1.31731 3.204,0.29954 12.470465,0.15232 15.212344,-0.24169 z m 1.05825,-45.669347 c -5.209662,-0.962955 -7.936875,-4.876932 -7.936875,-11.390649 0,-9.351107 4.764241,-14.891876 11.257951,-13.092888 3.179616,0.880866 5.884955,5.343112 6.841227,11.284069 0.506068,3.144016 0.787346,8.426583 0.55519,10.426845 l -0.185816,1.600997 -1.760386,0.553677 c -1.724601,0.542422 -7.122504,0.922712 -8.771291,0.617949 z"
         id="path324" />
      <path
         style="fill:#665ded;stroke-width:0.264562"
         d="m 54.504793,135.62868 c -0.436528,-0.0509 -1.924692,-0.21874 -3.307031,-0.373 -1.38234,-0.15426 -2.721687,-0.34091 -2.976329,-0.41478 -0.424966,-0.12329 -0.462984,-0.67597 -0.462984,-6.73055 0,-3.62793 0.06906,-6.59624 0.153457,-6.59624 0.0844,0 1.126115,0.34231 2.314922,0.76067 3.004774,1.05746 5.541724,1.4349 9.701496,1.44338 4.133482,0.008 7.245862,-0.50711 10.238537,-1.69593 6.479157,-2.57379 10.735084,-8.24803 12.389586,-16.51849 0.26629,-1.33112 0.397421,-2.70325 0.296696,-3.10458 -0.273078,-1.08803 -1.261037,-1.21474 -2.771665,-0.3555 -3.391818,1.92927 -7.181305,3.68019 -8.999876,4.15838 -1.362391,0.35824 -3.282226,0.5808 -5.862028,0.67958 -3.267254,0.1251 -4.245125,0.0633 -6.593874,-0.41676 -1.516744,-0.31001 -2.79655,-0.60248 -2.844012,-0.64995 -0.08811,-0.0881 8.056071,-10.505262 8.881389,-11.360116 0.429655,-0.445031 0.51159,-0.446497 1.49762,-0.0268 3.713497,1.580652 9.335008,1.521367 14.403502,-0.151904 2.682024,-0.885422 2.645625,-0.791791 2.645625,-6.80559 0,-5.55245 -0.472448,-9.926676 -1.362063,-12.610885 -0.316734,-0.955671 -0.421718,-1.663256 -0.274769,-1.851937 1.114403,-1.4309 9.414591,-11.976065 9.506995,-12.078382 0.210229,-0.23278 2.21428,2.176218 3.770526,4.532411 3.81846,5.781244 5.500537,12.395494 5.743687,22.585246 0.27127,11.368375 -1.322165,20.542547 -4.824853,27.779067 -1.944368,4.01705 -3.82286,6.74737 -6.47031,9.40437 -7.332408,7.35885 -16.463722,10.63913 -29.313668,10.53046 -2.577789,-0.0218 -5.044048,-0.0813 -5.480576,-0.13217 z"
         id="path322" />
      <path
         style="fill:#d72f77;stroke-width:0.264562"
         d="m 31.752418,139.13057 c -2.044859,-1.35435 -4.716449,-3.9401 -7.387673,-7.1503 -7.18753,-8.63776 -11.445854,-17.76052 -13.409395,-28.72743 -0.492515,-2.75083 -0.594403,-4.314077 -0.611719,-9.385507 -0.02272,-6.653655 0.26868,-9.205378 1.706984,-14.947782 4.622895,-18.456824 18.64572,-34.03854 36.581314,-40.647986 13.396564,-4.936767 27.637159,-4.954548 41.191958,-0.05143 3.34535,1.210098 11.074533,5.10876 10.757253,5.426043 -0.0626,0.06254 -1.169167,-0.359649 -2.459158,-0.938207 C 85.851803,37.204827 72.362105,35.968214 59.266918,39.146092 38.630887,44.153945 21.788615,60.811838 16.512062,81.432895 c -2.228325,8.708419 -2.546518,16.428178 -1.039238,25.213265 2.019727,11.77185 7.634665,22.6037 16.381384,31.60153 0.954774,0.98219 1.620096,1.77977 1.478489,1.7724 -0.141607,-0.007 -0.852732,-0.40765 -1.580279,-0.88952 z"
         id="path320" />
      <path
         style="fill:#b72b67;stroke-width:0.264562"
         d="m 34.001199,140.53898 c -0.569807,-0.46608 -0.581006,-0.50171 -0.08087,-0.25726 0.319292,0.15605 0.653713,0.40215 0.743159,0.54688 0.238788,0.38637 0.07842,0.31623 -0.662285,-0.28962 z m -6.746344,-4.77217 C 11.189714,122.24851 3.3947652,101.85441 6.4875689,81.432895 8.4184627,68.683372 14.018606,57.601269 23.139573,48.480301 c 9.07779,-9.077788 19.728428,-14.508362 32.714258,-16.680426 4.003394,-0.669624 12.490731,-0.814086 16.244368,-0.276494 9.537769,1.365991 17.353268,4.234722 25.056773,9.197255 2.053899,1.323105 5.632478,4.002911 5.632478,4.217861 0,0.165853 -1.96556,-1.033048 -2.24878,-1.371653 -0.766151,-0.915965 -7.807252,-4.34104 -11.689307,-5.686147 -6.664192,-2.309101 -12.291984,-3.236857 -19.661351,-3.241225 -13.302587,-0.0079 -25.092685,3.968385 -35.762361,12.061035 -12.175308,9.23463 -20.013312,22.461453 -22.61994,38.171701 -0.731928,4.411357 -0.65478,13.887743 0.149639,18.380632 2.212771,12.35893 7.710424,23.10996 16.406831,32.08466 0.951731,0.98219 1.674087,1.78113 1.605235,1.77542 -0.06885,-0.006 -0.839504,-0.61146 -1.712561,-1.34611 z"
         id="path318" />
      <path
         style="fill:#2518f2;stroke-width:0.264562"
         d="m 53.446543,138.4269 c -3.283612,-0.30699 -7.161371,-0.95936 -7.830209,-1.31731 -0.479541,-0.25664 -0.50351,-0.69005 -0.50351,-9.10411 0,-9.88776 -0.04238,-9.66612 1.848141,-9.66612 0.559161,0 2.09165,0.41024 3.405528,0.91163 3.311129,1.26358 5.126721,1.55971 9.561831,1.55961 8.464852,-2e-4 13.155847,-2.31313 17.09628,-8.42946 0.966307,-1.49991 2.715181,-6.066 2.431869,-6.34931 -0.07158,-0.0716 -1.373169,0.45618 -2.892417,1.1728 -4.25172,2.00553 -6.792237,2.51984 -12.402732,2.51083 -5.069562,-0.008 -6.969359,-0.30902 -10.426006,-1.65124 -4.785187,-1.85809 -8.015439,-4.46409 -10.894948,-8.789447 -2.767271,-4.156766 -3.783167,-7.332066 -4.353982,-13.608878 -0.804439,-8.845771 1.524126,-17.209134 6.570801,-23.599959 7.490693,-9.485785 21.806358,-13.397195 36.036135,-9.846003 4.988553,1.244947 10.982087,4.822686 13.774468,8.222436 2.466246,3.002676 5.003586,7.555024 6.172848,11.074962 2.81656,8.478985 3.33409,21.327928 1.3158,32.667939 -0.8355,4.69434 -1.43485,6.86425 -2.90932,10.53307 -3.67871,9.15346 -9.382117,15.40617 -17.956952,19.68642 -3.786165,1.88992 -7.700203,3.0431 -12.831281,3.78045 -2.741879,0.39401 -12.008344,0.54123 -15.212344,0.24169 z m 14.947781,-1.17789 c 5.771664,-0.75907 10.743759,-2.36596 14.815897,-4.78824 7.715378,-4.58944 12.634605,-10.59847 15.994364,-19.53773 2.589135,-6.88888 3.958115,-18.131524 3.328735,-27.336897 C 102.04246,78.406967 101.04748,73.621008 99.112954,69.133834 95.41446,60.555099 89.166144,55.17393 80.299637,52.931443 77.07022,52.11467 76.849792,52.094834 70.907668,52.086261 c -5.830992,-0.0084 -6.211388,0.02285 -9.114861,0.74915 -3.489577,0.872908 -4.063426,1.088059 -7.257896,2.72115 -7.103202,3.631332 -12.090591,9.938997 -14.1845,17.939459 -1.758206,6.717792 -1.249262,16.222126 1.158805,21.640271 1.001705,2.253834 3.451514,5.762519 5.238432,7.502639 5.73698,5.5867 15.279863,7.68588 24.821426,5.46003 1.173165,-0.27367 3.444117,-1.18457 5.555813,-2.22847 1.964376,-0.97108 3.606193,-1.73276 3.648483,-1.69262 0.157928,0.14992 -0.832142,4.02989 -1.441284,5.64822 -1.261674,3.35197 -4.160425,7.07023 -6.813166,8.73934 -3.546151,2.23125 -7.434381,3.21325 -12.722877,3.21325 -3.774495,0 -6.57568,-0.4686 -9.47496,-1.58504 -1.180869,-0.45472 -2.570439,-0.79603 -3.24089,-0.79603 h -1.173681 v 8.44818 c 0,7.81754 0.03456,8.45835 0.462984,8.58455 4.460637,1.314 15.218116,1.71386 22.024828,0.81867 z m -12.566719,-0.55708 c -1.901265,-0.15852 -7.561982,-0.88687 -8.265893,-1.06354 l -0.59695,-0.14983 v -7.51135 c 0,-6.97732 0.03292,-7.51134 0.462984,-7.51127 0.254641,5e-5 1.594074,0.40439 2.976518,0.89854 5.742914,2.0528 14.392275,1.93783 19.642232,-0.26109 4.941599,-2.06977 8.760495,-6.2828 10.483733,-11.56572 1.279387,-3.92219 1.82949,-7.32662 1.18387,-7.32662 -0.06397,0 -1.038252,0.53178 -2.165079,1.18173 -6.071863,3.50225 -9.348062,4.4606 -15.255415,4.46251 -5.122591,0.002 -7.860921,-0.58507 -11.762361,-2.52019 -3.564445,-1.76798 -6.146747,-4.15868 -8.463016,-7.835092 -2.862185,-4.542887 -3.856139,-9.009784 -3.631829,-16.321675 0.120714,-3.93491 0.240379,-4.876464 0.956533,-7.526309 3.174073,-11.744389 12.679962,-19.267007 26.098154,-20.653143 5.856369,-0.604979 13.248208,0.580234 17.825867,2.858212 9.754385,4.854074 14.823397,13.763922 16.136747,28.363709 0.65786,7.31311 0.0438,15.60675 -1.714093,23.149218 -3.402829,14.60064 -13.274992,24.86639 -26.980002,28.05564 -4.198535,0.97703 -12.771199,1.62321 -16.932,1.27627 z m 11.830076,-1.30483 c 9.375273,-1.2982 15.835878,-4.33029 21.641356,-10.15671 5.147733,-5.1663 8.520899,-12.22977 10.175902,-21.30852 0.371239,-2.03649 0.806191,-5.131876 0.966561,-6.878628 0.38349,-4.176998 0.14719,-14.035589 -0.41538,-17.330003 -1.612442,-9.442484 -5.153032,-16.126436 -10.807619,-20.402703 -2.958361,-2.237251 -6.2147,-3.727291 -10.109396,-4.625873 -2.876672,-0.663705 -3.659127,-0.733417 -8.333718,-0.742492 -4.958902,-0.0096 -5.292348,0.02339 -8.598282,0.851508 -7.839235,1.963673 -13.914749,6.529262 -17.557788,13.194216 -2.417146,4.422176 -3.339612,8.491234 -3.317915,14.635531 0.02376,6.727261 1.006721,10.543597 3.798964,14.749347 3.443553,5.186767 7.714322,7.993917 13.984157,9.191697 3.18787,0.60901 8.956713,0.43419 11.997079,-0.36356 1.818303,-0.4771 5.605177,-2.22634 8.999876,-4.15725 1.510628,-0.85924 2.498587,-0.73253 2.771665,0.3555 0.100725,0.40133 -0.03041,1.77346 -0.296696,3.10458 -1.654502,8.27046 -5.910429,13.9447 -12.389586,16.51849 -2.992675,1.18882 -6.105055,1.70436 -10.238537,1.69593 -4.159772,-0.008 -6.696722,-0.38592 -9.701496,-1.44338 -1.188807,-0.41836 -2.230521,-0.76067 -2.314922,-0.76067 -0.0844,0 -0.153457,2.96831 -0.153457,6.59624 0,6.05458 0.03802,6.60726 0.462984,6.73055 0.254642,0.0739 1.593989,0.26052 2.976329,0.41478 1.382339,0.15426 2.870503,0.32211 3.307031,0.373 2.403592,0.28021 10.452256,0.13237 13.152888,-0.24158 z m 0.936718,-40.186933 c -2.135527,-0.467419 -4.666932,-1.781043 -5.995764,-3.111385 -1.297494,-1.298973 -2.696021,-3.910879 -3.226601,-6.026043 -0.538509,-2.146774 -0.470152,-8.623081 0.115809,-10.972034 1.087892,-4.361051 3.35696,-7.593272 6.424096,-9.150939 1.555578,-0.79001 2.094939,-0.921802 4.098066,-1.001351 4.745481,-0.188453 7.807929,1.564867 10.09516,5.779699 2.251765,4.14948 3.104659,8.751598 3.104659,16.752391 0,6.013799 0.0364,5.920168 -2.645625,6.80559 -3.900765,1.287766 -8.637479,1.653442 -11.9698,0.924072 z m 9.456456,-1.183481 c 1.164075,-0.281579 2.553208,-0.695773 3.086963,-0.920431 0.947221,-0.398683 0.975066,-0.45137 1.162665,-2.199755 0.258605,-2.410167 -0.0541,-9.432796 -0.550986,-12.373792 -0.970968,-5.747041 -3.473999,-10.179087 -6.642368,-11.761446 -2.557139,-1.277099 -6.160473,-1.329808 -8.694807,-0.127186 -1.829531,0.86817 -3.523554,2.688571 -4.629833,4.975238 -1.403604,2.901237 -1.920909,5.39566 -1.92752,9.294456 -0.0085,5.034516 1.017359,8.157221 3.493299,10.633161 2.92904,2.929041 8.771493,3.914435 14.702587,2.479755 z m -8.661056,-0.668351 c -5.801068,-1.21186 -8.49733,-5.162442 -8.493383,-12.444565 0.0021,-3.708499 0.468792,-5.960172 1.816391,-8.761945 3.274424,-6.807807 11.770246,-7.229376 15.467356,-0.767503 2.153044,3.763126 2.901375,7.383365 3.103154,15.012276 l 0.14502,5.482828 -0.762774,0.294738 c -3.398498,1.313201 -8.229486,1.820547 -11.275764,1.184171 z m 9.098629,-1.450421 1.760386,-0.553677 0.185816,-1.600997 c 0.232156,-2.000262 -0.04912,-7.282829 -0.55519,-10.426845 -0.956272,-5.940957 -3.661611,-10.403203 -6.841227,-11.284069 -6.49371,-1.798988 -11.257951,3.741781 -11.257951,13.092888 0,6.513717 2.727213,10.427694 7.936875,11.390649 1.648787,0.304763 7.04669,-0.07553 8.771291,-0.617949 z"
         id="path316" />
    </g>
  </g>
</svg>
