<?xml version="1.0" encoding="UTF-8" standalone="no"?>
<svg
   xmlns:dc="http://purl.org/dc/elements/1.1/"
   xmlns:cc="http://creativecommons.org/ns#"
   xmlns:rdf="http://www.w3.org/1999/02/22-rdf-syntax-ns#"
   xmlns:svg="http://www.w3.org/2000/svg"
   xmlns="http://www.w3.org/2000/svg"
   xmlns:sodipodi="http://sodipodi.sourceforge.net/DTD/sodipodi-0.dtd"
   xmlns:inkscape="http://www.inkscape.org/namespaces/inkscape"
   width="210mm"
   height="297mm"
   viewBox="0 0 210 297"
   version="1.1"
   id="svg8"
   inkscape:version="1.0.2-2 (e86c870879, 2021-01-15)"
   sodipodi:docname="a1.svg">
  <defs
     id="defs2">
    <pattern
       id="EMFhbasepattern"
       patternUnits="userSpaceOnUse"
       width="6"
       height="6"
       x="0"
       y="0" />
    <pattern
       id="EMFhbasepattern-7"
       patternUnits="userSpaceOnUse"
       width="6"
       height="6"
       x="0"
       y="0" />
    <pattern
       id="EMFhbasepattern-3"
       patternUnits="userSpaceOnUse"
       width="6"
       height="6"
       x="0"
       y="0" />
    <pattern
       id="EMFhbasepattern-8"
       patternUnits="userSpaceOnUse"
       width="6"
       height="6"
       x="0"
       y="0" />
    <pattern
       id="EMFhbasepattern-9"
       patternUnits="userSpaceOnUse"
       width="6"
       height="6"
       x="0"
       y="0" />
    <pattern
       id="EMFhbasepattern-30"
       patternUnits="userSpaceOnUse"
       width="6"
       height="6"
       x="0"
       y="0" />
    <pattern
       id="EMFhbasepattern-4"
       patternUnits="userSpaceOnUse"
       width="6"
       height="6"
       x="0"
       y="0" />
    <pattern
       id="EMFhbasepattern-1"
       patternUnits="userSpaceOnUse"
       width="6"
       height="6"
       x="0"
       y="0" />
    <pattern
       id="EMFhbasepattern-73"
       patternUnits="userSpaceOnUse"
       width="6"
       height="6"
       x="0"
       y="0" />
    <pattern
       id="EMFhbasepattern-8-4"
       patternUnits="userSpaceOnUse"
       width="6"
       height="6"
       x="0"
       y="0" />
    <pattern
       id="EMFhbasepattern-9-4"
       patternUnits="userSpaceOnUse"
       width="6"
       height="6"
       x="0"
       y="0" />
  </defs>
  <sodipodi:namedview
     id="base"
     pagecolor="#ffffff"
     bordercolor="#666666"
     borderopacity="1.0"
     inkscape:pageopacity="0.0"
     inkscape:pageshadow="2"
     inkscape:zoom="0.98994949"
     inkscape:cx="407.95419"
     inkscape:cy="383.04576"
     inkscape:document-units="mm"
     inkscape:current-layer="layer2"
     inkscape:document-rotation="0"
     showgrid="false"
     inkscape:window-width="1920"
     inkscape:window-height="1017"
     inkscape:window-x="-8"
     inkscape:window-y="-8"
     inkscape:window-maximized="1" />
  <metadata
     id="metadata5">
    <rdf:RDF>
      <cc:Work
         rdf:about="">
        <dc:format>image/svg+xml</dc:format>
        <dc:type
           rdf:resource="http://purl.org/dc/dcmitype/StillImage" />
        <dc:title></dc:title>
      </cc:Work>
    </rdf:RDF>
  </metadata>
  <g
     inkscape:groupmode="layer"
     id="layer4"
     inkscape:label="Warstwa 3"
     style="display:inline">
    <g
       id="g978"
       transform="translate(-0.23034879,-0.2545802)" />
    <g
       id="g1191"
       transform="translate(-76.311058,-75.560668)">
      <path
         style="fill:#c0ebc0;stroke-width:0.264638"
         d="m 112.14043,88.461496 c -0.0809,-0.327489 -0.59775,-2.91763 -1.14867,-5.755869 -0.70232,-3.618278 -0.9143,-5.214078 -0.70935,-5.339939 0.43953,-0.269919 5.77218,-1.236431 8.47856,-1.536692 9.88353,-1.096535 21.1087,1.210736 29.83826,6.133083 2.79647,1.576847 6.18749,3.957052 8.00493,5.618765 l 1.58783,1.451777 -22.95228,0.01215 -22.95228,0.01216 z"
         id="path1205" />
      <path
         style="fill:#ace4ac;stroke-width:0.264638"
         d="m 76.40773,121.41591 c -0.492887,-6.57419 0.915257,-13.90768 3.851959,-20.06067 1.942695,-4.070346 4.547088,-7.618663 8.449234,-11.511537 5.628328,-5.614956 10.966457,-8.91831 18.619767,-11.52233 1.82898,-0.622305 2.62436,-0.788765 2.69813,-0.564673 0.0575,0.174772 0.53311,2.580419 1.05685,5.345883 0.52373,2.765464 1.01438,5.235866 1.09033,5.489782 0.12977,0.433852 1.52811,0.465828 23.21036,0.530748 l 23.07226,0.06908 -23.42119,0.06469 -23.4212,0.06469 -17.332248,17.333767 c -9.53274,9.53357 -17.410797,17.33376 -17.506793,17.33376 -0.096,0 -0.261353,-1.15794 -0.367459,-2.57319 z"
         id="path1203" />
      <path
         style="fill:#9ce19c;stroke-width:0.264638"
         d="m 79.13485,133.18811 c -0.95592,-2.43708 -2.317912,-7.45254 -2.318614,-8.53816 -2.25e-4,-0.34873 5.951643,-6.4815 17.400332,-17.92921 L 111.61724,89.321569 h 23.46292 23.46293 l 2.03312,2.183261 c 5.03528,5.407108 8.748,12.78317 10.09024,20.0463 0.88993,4.81559 0.56467,12.78679 -0.70431,17.26085 l -0.27956,0.98562 -11.53623,-11.63729 -11.53623,-11.63729 h -2.4925 -2.4925 l -0.41141,-0.98465 c -0.49856,-1.19323 -0.2394,-1.73878 0.85169,-1.79285 0.42768,-0.0212 1.07532,-0.20454 1.43919,-0.40744 0.36388,-0.20291 0.72114,-0.37736 0.79392,-0.38767 0.87307,-0.12375 1.83101,-1.47531 1.99034,-2.80819 0.028,-0.234549 0.1327,-0.752059 0.23258,-1.150024 0.10876,-0.433322 0.0551,-0.876021 -0.1338,-1.103614 -0.2409,-0.290274 -0.2436,-0.619715 -0.0114,-1.394737 0.58341,-1.947248 0.18029,-3.317434 -1.32419,-4.500863 -0.76739,-0.603627 -2.93762,-1.21606 -3.51887,-0.993013 -0.21635,0.08302 -0.46178,0.04026 -0.54539,-0.09503 -0.18564,-0.300374 -2.62359,-0.1369 -4.01124,0.26897 -1.58533,0.463691 -2.51929,1.126268 -3.48741,2.474064 -0.92477,1.28743 -0.94413,1.401768 -0.88069,5.200552 0.009,0.509428 0.005,1.242245 -0.009,1.628475 -0.0458,1.34036 1.39765,2.57718 3.95794,3.39134 0.9124,0.29014 1.12471,0.47783 1.12471,0.99429 0,0.35015 -0.12327,0.86698 -0.27394,1.14851 -0.25984,0.48551 -0.62115,0.51188 -7.0129,0.51188 -3.70643,0 -6.73895,-0.0655 -6.73895,-0.14546 0,-0.08 0.18741,-0.50788 0.41647,-0.95083 0.22905,-0.44295 0.35996,-0.86187 0.29089,-0.93093 -0.0691,-0.0691 -0.0105,-0.54247 0.13023,-1.05201 0.18137,-0.65686 0.16563,-1.03509 -0.0541,-1.29982 -0.23106,-0.2784 -0.23549,-0.58677 -0.0174,-1.2123 0.63932,-1.833957 0.15788,-3.529598 -1.33575,-4.704485 -0.76739,-0.603628 -2.93762,-1.21606 -3.51887,-0.993013 -0.21635,0.08302 -0.46191,0.04004 -0.54569,-0.09552 -0.19134,-0.309592 -3.27213,-0.08707 -3.69896,0.267168 -0.17394,0.144354 -0.3803,0.198406 -0.45859,0.120118 -0.0783,-0.07829 -0.63372,0.113774 -1.23428,0.426806 -2.18794,1.140417 -3.68938,4.303576 -2.99215,6.303676 0.19475,0.55865 0.19042,1.07271 -0.0147,1.74088 -0.25486,0.83041 -0.21858,1.0461 0.29218,1.73693 l 0.58318,0.78879 -1.26495,-0.003 -1.26496,-0.003 -14.422751,14.59601 -14.422754,14.59601 z"
         id="path1201" />
      <path
         style="fill:#93de93;stroke-width:0.264638"
         d="m 162.55483,122.73208 -3.56893,-3.63877 3.63877,3.56893 c 2.00132,1.96291 3.63877,3.60036 3.63877,3.63877 0,0.18973 -0.3933,-0.18875 -3.70861,-3.56893 z m -60.86667,-8.86537 c 3.31531,-3.38018 3.7086,-3.75866 3.7086,-3.56893 0,0.0384 -1.63744,1.67586 -3.63876,3.63877 l -3.638772,3.56893 z m 8.88605,-8.58931 c -0.14361,-0.37716 -0.11321,-0.40756 0.14815,-0.14814 0.18086,0.17951 0.26217,0.39305 0.18069,0.47453 -0.0815,0.0815 -0.22946,-0.0654 -0.32884,-0.32639 z m 13.89736,-2.61368 c 0.0127,-0.30829 0.0754,-0.371 0.15989,-0.15989 0.0764,0.19104 0.067,0.41929 -0.0209,0.50723 -0.0879,0.0879 -0.15049,-0.0684 -0.139,-0.34734 z m 8.44221,-1.0429 c -0.18412,-0.22184 -0.2835,-0.4546 -0.22087,-0.51724 0.0626,-0.0626 0.25925,0.11887 0.43691,0.40336 0.38421,0.61521 0.25608,0.68275 -0.21604,0.11388 z m 13.52272,-3.191304 c 0.0127,-0.308288 0.0754,-0.370996 0.15988,-0.159886 0.0764,0.191035 0.067,0.419285 -0.0209,0.507222 -0.0879,0.08794 -0.15048,-0.06836 -0.13899,-0.347336 z m -9.86211,-7.171624 c 0.19104,-0.07645 0.41929,-0.06704 0.50723,0.02089 0.0879,0.08794 -0.0684,0.150483 -0.34734,0.138993 -0.30829,-0.0127 -0.371,-0.07541 -0.15989,-0.159886 z"
         id="path1199" />
      <path
         style="fill:#86d986;stroke-width:0.264638"
         d="m 85.548937,130.20809 c 2.981128,-2.98379 5.479775,-5.42507 5.552551,-5.42507 0.07277,0 -2.306786,2.44128 -5.287913,5.42507 -2.981127,2.98379 -5.479775,5.42507 -5.55255,5.42507 -0.07278,0 2.306785,-2.44128 5.287912,-5.42507 z m 67.083593,-17.39993 -6.34924,-6.41746 6.41746,6.34924 c 5.96332,5.89991 6.53677,6.48569 6.34924,6.48569 -0.0375,0 -2.92538,-2.88786 -6.41746,-6.41747 z m -45.51562,-4.43268 c 1.01105,-1.01885 1.89781,-1.85246 1.97059,-1.85246 0.0728,0 -0.6949,0.83361 -1.70595,1.85246 -1.01105,1.01886 -1.89781,1.85247 -1.97059,1.85247 -0.0728,0 0.6949,-0.83361 1.70595,-1.85247 z m 30.43334,-4.2342 c -0.09,-0.14555 -0.0375,-0.26464 0.1167,-0.26464 0.15414,0 0.28025,0.11909 0.28025,0.26464 0,0.14555 -0.0525,0.26464 -0.1167,0.26464 -0.0642,0 -0.1903,-0.11909 -0.28025,-0.26464 z m 5.61913,-0.82675 c 0.17952,-0.18086 0.39306,-0.26217 0.47453,-0.18069 0.0815,0.0815 -0.0654,0.22945 -0.32638,0.32883 -0.37716,0.14361 -0.40756,0.11322 -0.14815,-0.14814 z m -31.95059,-5.095196 c 0,-0.05495 0.20841,-0.263355 0.46312,-0.463115 0.41973,-0.329176 0.42909,-0.319815 0.0999,0.09991 -0.34572,0.440819 -0.56304,0.581006 -0.56304,0.3632 z m 6.22086,-3.072705 c -0.0927,-0.150013 0.0135,-0.194378 0.24902,-0.104006 0.45847,0.175929 0.54235,0.365612 0.16169,0.365612 -0.13696,0 -0.32178,-0.117723 -0.41071,-0.261606 z m 2.18139,0.08634 c 0.18194,-0.07341 0.47966,-0.07341 0.6616,0 0.18193,0.07341 0.0331,0.133479 -0.3308,0.133479 -0.36388,0 -0.51274,-0.06006 -0.3308,-0.133479 z m 13.56268,-1.247839 c 0,-0.05495 0.20841,-0.263356 0.46312,-0.463116 0.41973,-0.329175 0.42909,-0.319815 0.0999,0.09992 -0.34572,0.44082 -0.56304,0.581006 -0.56304,0.363201 z m 11.34567,-2.215665 c -0.32918,-0.41973 -0.31982,-0.42909 0.0999,-0.09992 0.44082,0.345714 0.58101,0.563031 0.3632,0.563031 -0.055,0 -0.26335,-0.208402 -0.46311,-0.463116 z"
         id="path1197" />
      <path
         style="fill:#77d377;stroke-width:0.264638"
         d="m 167.71185,128.15715 -1.84537,-1.91863 1.91862,1.84537 c 1.05525,1.01495 1.91863,1.87833 1.91863,1.91862 0,0.19412 -0.27791,-0.0633 -1.99188,-1.84536 z m -73.032912,-7.07906 c 2.03381,-2.03771 3.757382,-3.70493 3.830157,-3.70493 0.07277,0 -1.53171,1.66722 -3.565519,3.70493 -2.033811,2.03771 -3.757381,3.70493 -3.830156,3.70493 -0.07278,0 1.531708,-1.66722 3.565518,-3.70493 z m 15.021832,-14.48033 c 0.40226,-0.0608 0.9977,-0.0592 1.32318,0.004 0.32549,0.0628 -0.004,0.11258 -0.73139,0.11059 -0.72775,-0.002 -0.99406,-0.0534 -0.59179,-0.11421 z m 13.69102,-0.009 c -1.9e-4,-0.10916 2.05406,-0.1679 4.565,-0.13053 8.5434,0.12715 9.34221,0.21906 2.38208,0.27409 -3.82071,0.0302 -6.9469,-0.0344 -6.94708,-0.14356 z m 19.2616,0.003 c 0.76902,-0.0536 1.95989,-0.0531 2.64638,0.001 0.68648,0.0543 0.0573,0.0982 -1.39822,0.0975 -1.45551,-8e-4 -2.01718,-0.0451 -1.24816,-0.0988 z m -32.17692,-5.4943 c 0.005,-0.43666 0.0647,-0.58325 0.1318,-0.32577 0.0671,0.25749 0.0627,0.61475 -0.01,0.79392 -0.0725,0.17917 -0.12738,-0.0315 -0.12199,-0.46815 z m 13.59427,-0.2099 c 0.0994,-0.26099 0.24735,-0.40786 0.32883,-0.32638 0.0815,0.0815 1.7e-4,0.29501 -0.18069,0.47453 -0.26136,0.25941 -0.29176,0.22901 -0.14814,-0.14815 z m 22.10112,-1.664621 c 0.0127,-0.308288 0.0754,-0.370996 0.15989,-0.159886 0.0764,0.191036 0.067,0.419286 -0.0209,0.507223 -0.0879,0.08794 -0.15049,-0.06837 -0.139,-0.347337 z m -21.70029,-0.529276 c 0.0127,-0.308288 0.0754,-0.370995 0.15989,-0.159885 0.0764,0.191035 0.067,0.419285 -0.0209,0.507222 -0.0879,0.08794 -0.15049,-0.06837 -0.139,-0.347337 z m 7.96983,-1.83041 c 0.005,-0.436653 0.0647,-0.583245 0.1318,-0.325761 0.0671,0.257484 0.0627,0.614745 -0.01,0.793913 -0.0725,0.179168 -0.12737,-0.0315 -0.12198,-0.468152 z m -11.29869,-1.19087 c -0.43147,-0.185408 -0.44658,-0.230875 -0.0818,-0.246038 0.24612,-0.01023 0.5211,0.100487 0.61105,0.246038 0.18807,0.304301 0.17887,0.304301 -0.52927,0 z M 146.4365,94.45995 c 0.0127,-0.308287 0.0754,-0.370995 0.15988,-0.159885 0.0764,0.191035 0.067,0.419285 -0.0209,0.507222 -0.0879,0.08794 -0.15048,-0.06837 -0.13899,-0.347337 z m -3.04897,-2.9966 c -0.0816,-0.131977 0.09,-0.177631 0.38134,-0.101454 0.61792,0.161591 0.69603,0.341412 0.1483,0.341412 -0.20974,0 -0.44808,-0.107981 -0.52964,-0.239958 z m -3.98295,-0.550924 c -0.0927,-0.150013 0.0135,-0.194378 0.24902,-0.104006 0.45847,0.175929 0.54235,0.365612 0.16168,0.365612 -0.13696,0 -0.32177,-0.117723 -0.4107,-0.261606 z"
         id="path1195" />
      <path
         style="fill:#6fd16f;stroke-width:0.264638"
         d="m 118.23169,161.29623 c -6.4521,-0.72775 -13.3879,-2.86856 -18.656954,-5.75867 -7.55475,-4.14382 -14.40004,-10.84828 -18.500225,-18.1196 l -0.858894,-1.52317 14.36851,-14.55357 14.368513,-14.55356 h 1.2654 c 1.3696,0 1.49955,-0.19053 0.82849,-1.2147 -0.36272,-0.55358 -0.3863,-0.83169 -0.13884,-1.63797 0.19368,-0.63108 0.20767,-1.06155 0.0399,-1.22928 -0.43727,-0.43727 -0.30251,-3.012091 0.19889,-3.800336 0.25135,-0.395144 0.53124,-0.777987 0.62198,-0.850762 0.0907,-0.07278 0.30123,-0.391217 0.46778,-0.707648 0.30977,-0.588565 1.40618,-1.258081 2.81976,-1.721868 1.08175,-0.354915 3.79587,-0.497915 3.97418,-0.20939 0.0796,0.128728 0.32359,0.165386 0.5423,0.08146 0.54925,-0.210769 2.75808,0.426258 3.52844,1.017607 1.01363,0.778079 1.41019,1.783363 1.23379,3.127663 -0.15825,1.205914 -0.18301,1.898254 -0.10647,2.977174 0.0648,0.91282 -0.24159,2.75766 -0.55522,3.34369 -0.15451,0.28871 -0.28093,0.59229 -0.28093,0.67464 0,0.0823 3.08168,0.14972 6.84818,0.14972 7.62781,0 7.37805,0.0603 7.63321,-1.84209 0.13053,-0.97319 0.0903,-1.06893 -0.44907,-1.06893 -0.85764,0 -3.97609,-1.54997 -3.97609,-1.97625 0,-0.19876 -0.1309,-0.40501 -0.29089,-0.45834 -0.37576,-0.12526 -0.52082,-1.836446 -0.19038,-2.245814 0.16281,-0.2017 0.15222,-0.50287 -0.0296,-0.842674 -0.3556,-0.664439 -0.37061,-3.125152 -0.0217,-3.551933 0.14373,-0.175795 0.64985,-0.845277 1.12472,-1.487739 0.69754,-0.943736 1.18908,-1.284912 2.559,-1.776187 0.9326,-0.334441 1.78775,-0.551142 1.90034,-0.481557 0.11259,0.06959 0.28308,-2.91e-4 0.37888,-0.155287 0.12316,-0.199282 0.27368,-0.199209 0.51401,2.49e-4 0.18692,0.15513 0.52788,0.209903 0.75768,0.121719 0.22981,-0.08818 0.56907,-0.06686 0.75392,0.04738 0.18486,0.114245 0.77388,0.176109 1.30894,0.137477 0.53507,-0.03863 1.05153,0.05708 1.14771,0.212689 0.0962,0.155611 0.37623,0.287212 0.62236,0.292447 0.57998,0.01234 1.6915,0.989791 2.14042,1.882269 0.22677,0.450821 0.29375,1.111802 0.18772,1.852464 -0.0907,0.633351 -0.16315,1.389721 -0.16108,1.680822 0.0129,1.807595 -0.008,2.45443 -0.0966,3.043335 -0.055,0.36387 -0.13001,0.69137 -0.16678,0.72776 -0.0368,0.0364 -0.092,0.15547 -0.12279,0.26463 -0.19284,0.68427 -0.51019,1.1247 -0.81039,1.1247 -0.19063,0 -0.38629,0.0893 -0.43481,0.19849 -0.19002,0.42757 -1.89833,1.1247 -2.75603,1.1247 -0.85527,0 -0.90479,0.05 -0.90479,0.91378 0,0.50258 0.13821,1.2171 0.30712,1.58783 0.2984,0.65492 0.38,0.67405 2.8762,0.67405 h 2.56909 l 11.44099,11.54333 c 10.87307,10.97033 11.43314,11.58262 11.28274,12.33462 -0.087,0.43521 -0.70629,2.08963 -1.3761,3.6765 -3.47268,8.22721 -11.23825,16.4587 -20.01505,21.2159 -4.45373,2.41401 -10.00771,4.31954 -15.28875,5.24546 -3.49352,0.61251 -11.06703,0.87126 -14.42276,0.49276 z"
         id="path1193" />
    </g>
    <path
       style="fill:#f4eed7;fill-rule:evenodd;stroke:none;stroke-width:0.257637"
       id="path1216"
       sodipodi:type="arc"
       sodipodi:cx="39.956795"
       sodipodi:cy="74.434563"
       sodipodi:rx="10.022607"
       sodipodi:ry="9.4880695"
       sodipodi:start="0"
       sodipodi:end="6.2686642"
       sodipodi:open="true"
       sodipodi:arc-type="arc"
       d="m 49.979402,74.434563 a 10.022607,9.4880695 0 0 1 -9.986223,9.488007 10.022607,9.4880695 0 0 1 -10.058727,-9.419119 10.022607,9.4880695 0 0 1 9.91319,-9.556395 10.022607,9.4880695 0 0 1 10.130703,9.349734" />
  </g>
  <g
     inkscape:groupmode="layer"
     id="layer2"
     inkscape:label="Warstwa 2">
    <g
       id="g23"
       transform="matrix(0.25467462,0,0,0.25467462,-6.6339669,21.042899)">
      <path
         style="fill:#80afdd;stroke-width:0.264562"
         d="m 83.723706,179.31039 v -7.67355 h 8.598282 8.598282 v -21.02905 -21.02905 l -8.532142,-0.0698 -8.53214,-0.0698 v -7.14319 -7.14319 l 3.412115,-0.18971 c 5.724815,-0.31829 9.375061,-1.19673 11.424566,-2.74933 2.401041,-1.81892 3.450861,-3.5637 4.083691,-6.78699 l 0.29932,-1.5246 9.30637,0.0695 9.30638,0.0695 0.0671,33.79414 0.0671,33.79415 8.39885,0.0699 8.39886,0.0699 v 7.54003 7.54003 l -27.44836,0.0674 -27.448364,0.0674 z m 53.970754,0.002 v -6.61035 l -8.39986,-0.0699 -8.39986,-0.0698 -0.0671,-33.79786 -0.0671,-33.79786 h -8.41207 -8.41206 l -0.31837,1.52124 c -0.51992,2.4843 -1.40245,4.04029 -3.22919,5.69339 -2.564076,2.32036 -6.219242,3.41226 -12.630475,3.77308 l -3.240891,0.18239 v 6.18437 6.18437 l 8.664422,0.0697 8.664424,0.0698 v 21.95869 21.95868 l -8.664424,0.0698 -8.664422,0.0697 v 6.61045 6.61045 h 26.588536 26.58853 v -6.61035 z"
         id="path37" />
      <path
         style="fill:#52c8ec;stroke-width:0.264562"
         d="m 85.575644,179.22097 v -5.73219 h 2.649175 2.649176 l -0.373502,0.85983 c -0.833533,1.91886 -4.727014,10.39177 -4.822357,10.49431 -0.05637,0.0606 -0.102492,-2.46925 -0.102492,-5.62195 z m 17.196566,-41.52131 v -9.42106 l -0.588,-0.41185 c -0.50074,-0.35073 -1.77653,-0.41184 -8.598278,-0.41184 h -8.010288 v -5.13572 -5.13571 l 0.992109,-0.14465 c 0.545661,-0.0796 2.004061,-0.2206 3.240891,-0.31343 4.151763,-0.3116 7.834161,-1.32733 9.856533,-2.71876 2.504283,-1.72299 4.371713,-4.49463 4.821313,-7.15579 l 0.18416,-1.09007 h 7.64906 7.64906 v 1.92993 1.92993 l -8.48821,18.63981 c -4.66851,10.25189 -8.53774,18.68941 -8.59828,18.75004 -0.0605,0.0606 -0.11007,-4.12925 -0.11007,-9.31083 z"
         id="path35" />
      <path
         style="fill:#42bded;stroke-width:0.264562"
         d="m 86.13518,183.93187 c 0.291382,-0.65872 1.469637,-3.24812 2.618346,-5.75424 l 2.088563,-4.55657 5.613746,-0.0715 c 3.597215,-0.0458 5.739945,-0.17627 5.965055,-0.3631 0.28325,-0.23507 0.35048,-2.75844 0.34699,-13.02431 l -0.004,-12.73274 8.53648,-18.76373 8.53647,-18.76373 0.0672,31.43692 c 0.0485,22.69732 0.14948,31.53604 0.3631,31.79344 0.23624,0.28464 1.91576,0.3565 8.33263,0.3565 h 8.03677 v 5.82038 5.82037 H 111.1208 85.605397 Z"
         id="path33" />
      <path
         style="fill:#00b3b3;stroke-width:0.264562"
         d="m 103.96274,202.74833 c -6.99359,-0.7437 -14.523973,-2.90042 -20.791332,-5.95471 -3.917363,-1.90905 -5.968223,-3.64351 -9.917776,-8.38768 -7.197362,-8.64541 -11.472163,-17.98531 -13.366233,-29.20353 -0.792211,-4.69212 -0.852449,-12.59056 -0.13115,-17.19657 2.091446,-13.35536 7.671606,-24.4771 16.880868,-33.645 8.918391,-8.878345 19.632969,-14.334358 32.484593,-16.541611 2.2035,-0.37845 4.14553,-0.472627 9.39197,-0.455458 6.34977,0.02078 6.7832,0.05565 10.84706,0.87272 4.96878,0.999009 10.55373,2.862225 15.10429,5.039003 2.69618,1.289731 3.58024,1.873717 5.36931,3.546836 9.92593,9.28262 16.19166,21.37571 18.18546,35.09858 0.68589,4.72079 0.62996,12.17269 -0.12634,16.83398 -2.11244,13.01963 -7.57969,23.79747 -16.69615,32.91393 -4.95038,4.95039 -9.38083,8.12415 -15.85583,11.35835 -9.18006,4.58535 -21.29239,6.79374 -31.37874,5.72116 z m 35.26618,-15.29065 c 0.45348,-0.45348 0.45348,-15.84357 0,-16.29705 -0.23318,-0.23318 -2.48101,-0.31747 -8.466,-0.31747 h -8.14853 v -33.54653 c 0,-25.73899 -0.0739,-33.62041 -0.31747,-33.864 -0.37629,-0.37629 -19.15989,-0.45676 -19.74706,-0.0846 -0.19505,0.12362 -0.51438,1.06316 -0.70963,2.08786 -0.43239,2.26928 -1.07416,3.57863 -2.447844,4.99412 -2.12522,2.18989 -5.123057,3.08729 -12.126717,3.63013 -3.050247,0.23643 -4.16497,0.41728 -4.347129,0.70528 -0.134739,0.21303 -0.246805,3.59239 -0.249033,7.50969 -0.0036,6.25982 0.04897,7.18094 0.433798,7.60617 0.406151,0.44879 1.028576,0.48381 8.598281,0.48381 h 8.160433 v 20.23904 20.23903 h -8.324411 c -7.959332,0 -8.33642,0.0224 -8.598282,0.51173 -0.370787,0.69282 -0.370787,15.21571 0,15.90853 0.268105,0.50096 0.860151,0.51174 28.122994,0.51174 21.30768,0 27.9237,-0.0746 28.1666,-0.31748 z"
         id="path31" />
      <path
         style="fill:#2762ae;stroke-width:0.264562"
         d="m 82.939326,187.26342 c -0.370787,-0.69282 -0.370787,-15.21571 0,-15.90853 0.261862,-0.48929 0.63895,-0.51173 8.598282,-0.51173 h 8.324411 v -20.23903 -20.23904 h -8.160433 c -7.569705,0 -8.19213,-0.035 -8.598281,-0.48381 -0.384825,-0.42523 -0.437359,-1.34635 -0.433798,-7.60617 0.0021,-3.9173 0.114294,-7.29666 0.249033,-7.50969 0.182159,-0.288 1.296882,-0.46885 4.347129,-0.70528 7.00366,-0.54284 10.001497,-1.44024 12.126717,-3.63013 1.373684,-1.41549 2.015454,-2.72484 2.447844,-4.99412 0.19525,-1.0247 0.51458,-1.96424 0.70963,-2.08786 0.58717,-0.37216 19.37077,-0.29169 19.74706,0.0846 0.24359,0.24359 0.31747,8.12501 0.31747,33.864 v 33.54653 h 8.14853 c 5.98499,0 8.23282,0.0843 8.466,0.31747 0.45348,0.45348 0.45348,15.84357 0,16.29705 -0.2429,0.2429 -6.85892,0.31748 -28.1666,0.31748 -27.262843,0 -27.854889,-0.0108 -28.122994,-0.51174 z m 55.681104,-7.95426 v -7.54003 l -8.39886,-0.0699 -8.39885,-0.0699 -0.0671,-33.79415 -0.0671,-33.79414 -9.30638,-0.0695 -9.30637,-0.0695 -0.29932,1.5246 c -0.63283,3.22329 -1.68265,4.96807 -4.083691,6.78699 -2.049505,1.5526 -5.699751,2.43104 -11.424566,2.74933 l -3.412115,0.18971 v 7.14319 7.14319 l 8.53214,0.0698 8.532142,0.0698 v 21.02905 21.02905 h -8.598282 -8.598282 v 7.67355 7.67354 l 27.448364,-0.0674 27.44836,-0.0674 z m -54.103036,0.004 v -6.61044 l 8.664422,-0.0698 8.664424,-0.0698 v -21.95868 -21.95869 l -8.664424,-0.0698 -8.664422,-0.0697 v -6.18437 -6.18437 l 3.240891,-0.18239 c 6.411233,-0.36082 10.066399,-1.45272 12.630475,-3.77307 1.82674,-1.65311 2.70927,-3.2091 3.22919,-5.6934 l 0.31837,-1.52123 h 8.41206 8.41207 l 0.0671,33.79785 0.0671,33.79786 8.39986,0.0699 8.39986,0.0699 v 6.61034 6.61035 H 111.10593 84.517394 Z m 52.118816,-0.004 v -5.82038 h -8.01625 c -5.8821,0 -8.10076,-0.0845 -8.33372,-0.31747 -0.24358,-0.24359 -0.31747,-8.12501 -0.31747,-33.864 v -33.54653 h -7.64906 -7.64906 l -0.18416,1.09007 c -0.4496,2.66116 -2.31703,5.4328 -4.821313,7.15579 -2.022372,1.39143 -5.70477,2.40716 -9.856533,2.71876 -1.23683,0.0928 -2.69523,0.23387 -3.240891,0.31343 l -0.992109,0.14465 v 5.13571 5.13572 h 8.010288 c 6.821748,0 8.097538,0.0611 8.598278,0.41184 l 0.588,0.41185 v 22.28761 c 0,16.98207 -0.0756,22.3632 -0.31748,22.6051 -0.2334,0.2334 -2.510403,0.31747 -8.59828,0.31747 h -8.280806 v 5.82038 5.82037 h 25.530286 25.53028 z"
         id="path29" />
      <path
         style="fill:#00827e;stroke-width:0.264562"
         d="m 77.139738,193.35195 c -2.815916,-1.87402 -5.250685,-4.14591 -8.055405,-7.51653 -7.267725,-8.73409 -11.618696,-18.03203 -13.453343,-28.74951 -0.766037,-4.47497 -0.934373,-12.11298 -0.367503,-16.67499 1.68096,-13.5279 7.413065,-25.28651 16.969244,-34.81004 18.727969,-18.663992 47.030749,-22.626146 70.356129,-9.849281 3.51142,1.923436 4.08015,2.512197 1.09087,1.129279 -4.11387,-1.90318 -9.70533,-3.716779 -14.31899,-4.644387 -4.06386,-0.817067 -4.49729,-0.851939 -10.84706,-0.87272 -5.24644,-0.01717 -7.18847,0.07701 -9.39197,0.455458 -12.851624,2.207253 -23.566202,7.663266 -32.484593,16.541611 -9.209262,9.1679 -14.789422,20.28964 -16.880868,33.645 -0.721299,4.60601 -0.661061,12.50445 0.13115,17.19657 1.892675,11.20995 6.174183,20.56875 13.350529,29.18244 1.357211,1.62905 3.264138,3.70598 4.237614,4.61542 0.973479,0.90943 1.735842,1.65321 1.694142,1.65284 -0.0417,-2.6e-4 -0.955177,-0.58589 -2.029946,-1.30116 z"
         id="path27" />
      <path
         style="fill:#005a53;stroke-width:0.264562"
         d="m 74.165709,191.28061 c -0.329081,-0.41961 -0.319724,-0.42897 0.09989,-0.0999 0.254642,0.19971 0.462984,0.40805 0.462984,0.46299 0,0.21774 -0.217256,0.0776 -0.562872,-0.3631 z m -2.215034,-1.68719 C 60.791347,180.2032 53.711919,167.78757 51.151982,153.11747 c -0.777291,-4.45438 -0.839635,-12.93805 -0.128317,-17.46113 2.069395,-13.15872 7.688213,-24.39902 16.698824,-33.40557 9.001571,-8.997512 20.409882,-14.757151 33.197781,-16.760346 4.12647,-0.646401 12.97823,-0.659423 16.99044,-0.02499 6.68241,1.056653 11.78986,2.656343 17.62918,5.521578 3.52956,1.731883 8.90702,5.101473 10.75285,6.737886 l 0.79369,0.703641 -0.79369,-0.488994 c -2.91479,-1.795808 -4.02405,-2.412745 -6.61406,-3.67852 -14.2746,-6.976188 -31.43212,-7.829215 -46.166161,-2.295262 -8.438787,3.169522 -14.991193,7.368004 -21.279788,13.635117 -9.556179,9.52353 -15.288284,21.28214 -16.969244,34.81004 -0.56687,4.56201 -0.398534,12.20002 0.367503,16.67499 2.066838,12.07388 7.697555,23.06939 16.42701,32.0782 0.951732,0.98219 1.674088,1.78112 1.605236,1.77541 -0.06885,-0.006 -0.839505,-0.61146 -1.712561,-1.3461 z"
         id="path25" />
    </g>
    <path
       style="fill:#ff6600;stroke-width:0.0813169"
       d="m 38.9206,84.53535 c -3.92943,-0.42082 -7.145171,-2.94545 -8.444641,-6.62977 -0.728434,-2.0653 -0.716536,-4.49024 0.03223,-6.56835 0.981737,-2.72471 3.248808,-4.991803 5.972915,-5.972993 1.558166,-0.56123 3.586556,-0.72768 5.145306,-0.42223 5.70363,1.1177 9.22508,6.730543 7.73978,12.336443 -0.24977,0.94268 -1.01541,2.51836 -1.59779,3.28823 -0.98097,1.29677 -2.10834,2.22543 -3.60287,2.96782 -1.64443,0.81686 -3.5563,1.18169 -5.24493,1.00085 z m 2.69023,-2.46948 c 1.46472,-0.34718 3.0724,-1.35159 4.05659,-2.5344 0.63245,-0.7601 1.3244,-2.14017 1.56027,-3.11195 0.23392,-0.96372 0.25053,-2.40802 0.0382,-3.32513 -0.63342,-2.73647 -2.57495,-4.851193 -5.21959,-5.685233 -3.90825,-1.23254 -8.195362,1.00767 -9.463207,4.944963 -0.958791,2.97752 0.02962,6.26906 2.468434,8.22037 1.198969,0.95929 2.401393,1.45896 4.072333,1.69226 0.47763,0.0667 1.81323,-0.0412 2.48694,-0.20088 z m -2.08035,-2.24752 c -0.29136,-0.0773 -0.62585,-0.36782 -0.74105,-0.64353 -0.0827,-0.19805 -0.11278,-0.68194 -0.11278,-1.81754 v -1.54763 l -1.56534,-1.7e-4 c -1.328436,-8e-5 -1.608008,-0.0216 -1.847191,-0.1423 -0.781397,-0.39418 -0.783782,-1.56601 -0.004,-1.98294 0.248257,-0.1327 0.477311,-0.15146 1.849951,-0.15146 h 1.56662 v -1.56662 c 0,-1.37264 0.0187,-1.60169 0.1515,-1.84995 0.41693,-0.77975 1.58875,-0.77736 1.98293,0.004 0.12066,0.23918 0.1422,0.51875 0.14231,1.84719 l 1.6e-4,1.56534 h 1.54763 c 1.72923,0 1.96284,0.0506 2.27781,0.49289 0.24893,0.34959 0.26158,0.95563 0.0266,1.27607 -0.33408,0.45565 -0.56824,0.50764 -2.28673,0.50778 l -1.56534,1.7e-4 -3.1e-4,1.60601 c -2.4e-4,1.44842 -0.0158,1.6315 -0.15875,1.86586 -0.0872,0.14293 -0.24253,0.31403 -0.34529,0.38024 -0.2165,0.13948 -0.68338,0.21906 -0.9187,0.1566 z"
       id="path852-9" />
    <path
       style="fill:#ff55dd;stroke-width:0.0470029"
       d="M 62.653231,81.867641 C 60.841142,81.694865 59.028351,81.090847 57.488338,80.14671 55.939937,79.19743 54.448321,77.705815 53.499041,76.157414 51.335765,72.628823 51.14821,68.218389 53.003798,64.51155 c 0.976283,-1.950285 2.618832,-3.738539 4.48454,-4.882351 3.528591,-2.163276 7.939024,-2.350831 11.645863,-0.495243 1.950287,0.976283 3.738541,2.618832 4.882354,4.484539 2.163277,3.528593 2.350831,7.939026 0.495243,11.645866 -0.976284,1.950283 -2.618833,3.738539 -4.48454,4.882349 -2.184143,1.339034 -4.851227,1.96147 -7.374027,1.720931 z m 7.810782,-9.234343 c 0.07299,-0.05408 0.18216,-0.170411 0.242613,-0.258515 0.09176,-0.133724 0.106786,-0.204944 0.09096,-0.431085 -0.02017,-0.288241 -0.106887,-0.447832 -0.336486,-0.619252 -0.12965,-0.0968 -0.13744,-0.09691 -6.703306,-0.09691 -6.565862,0 -6.573653,9.4e-5 -6.703302,0.09691 -0.206686,0.154312 -0.308646,0.322821 -0.334587,0.552963 -0.03123,0.277096 0.0054,0.412947 0.161382,0.598309 0.247293,0.293891 -0.187715,0.277193 6.931822,0.266082 l 6.518204,-0.01017 z m 0.03559,-4.737408 c 0.441775,-0.336973 0.410607,-0.965611 -0.06372,-1.285263 l -0.158592,-0.106875 h -6.519494 -6.519491 l -0.158591,0.106875 c -0.237555,0.160086 -0.372342,0.388193 -0.372342,0.630128 0,0.354156 0.134381,0.576899 0.446632,0.740313 0.126343,0.06612 0.814015,0.07253 6.654461,0.06201 l 6.513559,-0.01173 z"
       id="path846" />
    <g
       id="g140"
       transform="matrix(0.24589849,0,0,0.24583016,6.4111054,5.8543467)">
      <path
         style="fill:#f05320;stroke-width:0.264562"
         d="m 59.80053,101.36469 c 0,-3.887184 0.06133,-7.067603 0.136289,-7.067603 0.07496,0 0.792193,0.37017 1.593855,0.822599 0.801658,0.452428 2.584108,1.329958 3.961,1.950066 l 2.503436,1.127468 -3.733122,4.73014 c -2.053217,2.60157 -3.896998,4.90446 -4.09729,5.11753 -0.309761,0.32952 -0.364168,-0.66849 -0.364168,-6.6802 z M 77.79078,71.321792 v -5.778733 l 4.486824,-0.169402 c 2.467754,-0.09317 5.414319,-0.357173 6.547922,-0.586673 4.157557,-0.8417 6.856515,-2.688434 8.239172,-5.637565 0.625817,-1.334834 0.700125,-1.804697 0.696569,-4.404426 -0.0036,-2.643506 -0.06932,-3.034749 -0.71697,-4.26947 -1.308618,-2.494832 -3.907932,-4.216631 -7.482954,-4.956748 -7.267106,-1.504466 -14.763056,-0.215888 -23.08061,3.967634 l -4.299141,2.162359 v -7.462874 -7.462875 l 2.976329,-0.968429 c 9.090494,-2.957838 17.493346,-4.169314 25.242537,-3.639329 7.176933,0.490847 10.985632,1.384451 15.657752,3.673651 1.99046,0.975265 2.94574,1.655919 4.60966,3.284433 1.28849,1.261082 2.04374,2.197903 1.95608,2.42635 -0.0785,0.204669 -6.40704,8.298585 -14.063323,17.986478 L 84.640102,77.100524 H 81.215441 77.79078 Z"
         id="path154" />
      <path
         style="fill:#1ccd43;stroke-width:0.264562"
         d="m 77.129374,132.0086 c -7.214022,-0.79904 -14.728856,-2.96781 -20.991905,-6.05825 -2.912378,-1.43708 -3.557784,-1.88599 -5.570051,-3.8742 -9.229431,-9.1191 -15.132953,-20.21454 -17.24372,-32.408907 -1.167319,-6.743865 -1.228177,-12.277753 -0.20948,-19.0485 3.22542,-21.43769 17.938564,-39.328222 38.424368,-46.722332 3.915959,-1.413419 7.23571,-2.220749 11.940288,-2.903756 3.443469,-0.49992 4.703395,-0.557114 9.52425,-0.432345 5.001493,0.129444 6.004547,0.236796 10.053376,1.075956 5.12556,1.062324 10.95593,3.046786 15.12641,5.148523 7.8365,3.949246 16.81705,16.144211 20.68771,28.092485 0.97889,3.021727 1.67751,6.01117 2.31851,9.921094 0.65775,4.012133 0.65328,12.832554 -0.009,16.932 -2.13003,13.192809 -7.55735,23.962422 -16.67666,33.092032 -9.25481,9.26526 -20.14745,14.79111 -33.088129,16.78564 -4.332272,0.66772 -10.35077,0.83647 -14.286375,0.40056 z m 18.524058,-15.57009 c 3.425116,-0.64744 5.392148,-1.22068 8.064468,-2.35019 9.77447,-4.13134 15.22601,-11.07667 16.5729,-21.114046 1.26287,-9.411313 -2.12616,-16.754968 -9.71068,-21.041997 -0.92085,-0.520492 -2.18677,-1.083423 -2.81315,-1.250954 -0.62638,-0.167532 -1.13888,-0.374163 -1.13888,-0.459183 0,-0.08502 0.62503,-0.465556 1.38896,-0.845645 3.29822,-1.641012 6.51535,-5.115673 8.3829,-9.053934 2.43049,-5.125399 2.68696,-10.645281 0.76717,-16.51151 -2.30837,-7.053586 -9.26783,-11.928173 -19.79335,-13.863783 -2.597564,-0.477684 -4.103129,-0.563162 -10.191021,-0.578591 -6.315321,-0.01601 -7.557122,0.05289 -10.714782,0.594443 -5.328201,0.913813 -13.812736,3.245664 -16.204453,4.453558 l -0.727547,0.367434 v 9.596825 c 0,7.111448 0.08222,9.679046 0.317475,9.9143 0.596959,0.596959 3.138947,0.3782 4.44465,-0.382499 7.870616,-4.585395 15.444874,-6.65361 21.896545,-5.979031 3.389694,0.354421 5.557664,1.095646 6.990339,2.389981 1.349229,1.218948 1.802366,2.359972 1.802366,4.538456 0,3.575877 -1.972906,5.856768 -5.98866,6.92354 -1.669987,0.443624 -3.170816,0.580651 -7.606347,0.694466 -4.924487,0.126363 -5.579496,0.19544 -6.018796,0.634741 -0.457358,0.457357 -0.492947,1.026497 -0.492947,7.883473 0,4.064791 0.10968,7.679006 0.243734,8.031591 l 0.243731,0.641067 6.304191,0.190993 c 8.390655,0.254204 11.051903,0.786729 13.260555,2.653477 1.536127,1.29833 2.013276,2.577135 2.026826,5.432095 0.01601,3.369359 -0.410354,4.722411 -2.055108,6.522034 -2.200173,2.407342 -4.594006,3.325924 -9.899429,3.7987 -2.35927,0.21024 -3.828552,0.208472 -5.423531,-0.0065 -5.131962,-0.691747 -10.820085,-2.614505 -16.087556,-5.438085 -2.264568,-1.213911 -2.89483,-1.436829 -4.062354,-1.436829 -2.440415,0 -2.293847,-0.691711 -2.214328,10.450223 l 0.06986,9.78881 2.509555,1.00418 c 5.381564,2.15338 11.433439,3.53421 18.655445,4.2565 2.644022,0.26444 15.156058,-0.0615 17.201246,-0.4481 z"
         id="path152" />
      <path
         style="fill:#e61c24;stroke-width:0.264562"
         d="m 80.436405,114.11184 c -6.387748,-0.38344 -12.132789,-1.52803 -17.924109,-3.57105 -2.208079,-0.77895 -2.711766,-1.05425 -2.711766,-1.48214 0,-0.3836 5.077187,-7.13133 8.094956,-10.758436 0.04466,-0.05368 0.950021,0.214131 2.011919,0.595125 1.061896,0.380997 3.240303,1.017174 4.840906,1.413731 2.647496,0.65593 3.363928,0.72154 7.936875,0.72684 5.782416,0.007 7.945299,-0.36263 10.962198,-1.871921 2.136278,-1.068737 4.276549,-3.23208 5.207614,-5.263746 0.814712,-1.77778 1.259522,-4.832975 1.035153,-7.109985 -0.596086,-6.049322 -4.432419,-8.948445 -12.737136,-9.625477 L 84.742221,76.968243 98.347776,59.771681 c 7.483054,-9.45811 13.771214,-17.423862 13.973684,-17.701674 0.54837,-0.752442 1.01428,-0.218171 1.95264,2.239144 2.66422,6.976867 1.15259,14.442234 -3.97009,19.606811 -2.07842,2.095425 -4.75794,3.718413 -7.37979,4.469948 -1.74446,0.500033 -1.88756,0.675756 -1.79815,2.207978 l 0.0785,1.344956 1.85194,0.476435 c 4.23738,1.090121 5.45098,1.558503 7.37842,2.847655 5.53443,3.701653 8.05363,9.83245 7.07025,17.206388 -1.22332,9.173238 -6.43908,15.543318 -15.77148,19.261958 -3.274938,1.30495 -6.824938,2.03509 -11.640754,2.39421 -4.044676,0.30161 -4.413341,0.30109 -9.656531,-0.0137 z"
         id="path150" />
      <path
         style="fill:#19ad39;stroke-width:0.264562"
         d="M 49.710309,122.2244 C 46.547221,120.10245 41.047321,114.06264 37.77058,109.11259 33.268694,102.31175 30.28233,94.639365 28.811568,86.095649 27.999889,81.380579 27.926078,72.491936 28.661079,67.973118 30.770435,55.004706 36.382696,43.907614 45.384688,34.90562 64.408029,15.882279 93.86011,12.13842 117.16911,25.780604 c 1.79883,1.052809 1.60704,1.320479 -0.26292,0.366953 -2.91221,-1.484991 -9.32212,-3.572908 -13.84969,-4.511291 -4.048829,-0.83916 -5.051883,-0.946512 -10.053376,-1.075956 -4.820855,-0.124769 -6.080781,-0.06758 -9.52425,0.432345 -2.182641,0.316874 -5.115181,0.866351 -6.516757,1.221058 -18.904988,4.784437 -34.509041,18.958211 -41.056692,37.293405 -2.743288,7.681948 -3.975417,16.394197 -3.367417,23.810625 1.230482,15.009509 6.814547,27.244927 17.43974,38.212757 0.995551,1.02765 1.736588,1.86846 1.646753,1.86846 -0.08984,0 -0.951221,-0.52855 -1.914192,-1.17456 z"
         id="path148" />
      <path
         style="fill:#00ae2b;stroke-width:0.264562"
         d="m 80.304124,116.08245 c -3.168895,-0.25267 -7.116234,-0.72054 -8.862844,-1.0505 -3.67808,-0.69484 -9.222911,-2.32669 -12.236016,-3.60108 l -1.256672,-0.5315 v -9.22711 -9.227111 h 1.410015 c 1.191487,0 1.837279,0.222394 4.16686,1.434969 3.901619,2.030837 7.573342,3.448583 11.51808,4.447422 3.226988,0.817099 3.648322,0.861458 7.906202,0.832393 4.889797,-0.03338 7.228284,-0.455827 9.834825,-1.776661 1.596391,-0.808953 3.644399,-2.962116 4.390647,-4.616089 0.852072,-1.888511 0.965042,-6.001143 0.222752,-8.109076 -0.665449,-1.88972 -1.446872,-2.754641 -3.456346,-3.82568 C 91.319713,79.43496 89.706535,79.180753 82.486764,79.027341 L 75.938842,78.888208 V 71.289814 63.69142 l 5.002893,-0.173974 c 5.797536,-0.201607 8.500412,-0.644752 10.789801,-1.76902 2.814842,-1.382313 4.10456,-3.564734 4.138734,-7.003433 0.01677,-1.688385 -0.0953,-2.338187 -0.554105,-3.212463 -1.171176,-2.231767 -3.711085,-3.741687 -7.263902,-4.318232 -2.148378,-0.348635 -6.742963,-0.346024 -8.938671,0.0051 -4.387586,0.701593 -10.245942,2.95566 -15.061807,5.795196 -1.086169,0.640427 -1.660646,0.813189 -2.500034,0.751832 l -1.089815,-0.07966 -0.06967,-9.109612 c -0.05438,-7.110249 0.0037,-9.157042 0.264563,-9.325726 0.183828,-0.118864 1.77336,-0.687753 3.532293,-1.264198 11.471454,-3.759474 21.833605,-4.778933 32.388844,-3.186509 7.758094,1.17043 13.765074,4.202047 17.270594,8.716154 1.50797,1.941826 1.80131,2.515199 2.71509,5.307047 0.66237,2.023734 0.73783,2.632686 0.75401,6.084938 0.0211,4.497129 -0.30926,6.017109 -2.09865,9.656531 -2.18946,4.453119 -5.85512,7.647645 -10.77387,9.389146 l -1.25698,0.445039 2.71207,0.725481 c 5.01097,1.340435 8.51028,3.912802 11.28254,8.293849 1.37999,2.180818 2.14901,4.999938 2.32655,8.528704 0.40351,8.020514 -2.06486,14.63275 -7.34139,19.66605 -5.04242,4.80998 -11.81141,7.5549 -20.6199,8.36167 -2.790764,0.2556 -8.678282,0.3117 -11.243906,0.10714 z m 14.550937,-1.52015 c 11.683429,-2.02052 19.968579,-8.45624 22.563529,-17.526814 1.90607,-6.662631 1.62236,-11.817216 -0.90629,-16.466103 -2.45747,-4.518005 -6.12143,-7.205121 -11.81501,-8.665014 -2.85473,-0.731984 -2.85672,-0.733058 -2.7779,-1.503604 0.0698,-0.682725 0.24562,-0.823086 1.53395,-1.224753 4.83336,-1.506911 8.75563,-4.872056 10.96127,-9.404331 1.63692,-3.363616 2.11225,-5.771484 1.9282,-9.76759 -0.12845,-2.788668 -0.26337,-3.504839 -1.05867,-5.619521 -2.48301,-6.602258 -8.85559,-10.887445 -18.709423,-12.580994 -4.838313,-0.831547 -14.224298,-0.818962 -19.313062,0.0259 -4.100803,0.680832 -10.535773,2.302586 -13.624969,3.43379 l -2.1165,0.775022 -0.06986,8.361245 c -0.06316,7.559664 -0.02877,8.361246 0.358709,8.361246 0.235712,0 1.354052,-0.520455 2.4852,-1.156566 7.420928,-4.173236 14.168721,-5.98537 20.984759,-5.635496 6.085681,0.312382 9.285032,1.785508 10.964576,5.04859 0.593538,1.153146 0.690865,1.669731 0.677393,3.59541 -0.01979,2.829054 -0.699868,4.737309 -2.273708,6.379858 -2.225299,2.322452 -4.769538,3.040892 -12.292775,3.471232 l -5.357391,0.306448 v 6.521114 6.521111 l 5.886516,0.166788 c 7.88482,0.223405 10.170142,0.706025 12.916415,2.727714 1.277358,0.940337 1.750708,1.497641 2.286465,2.691987 1.302704,2.904076 1.038268,8.745507 -0.497679,10.993855 -2.505216,3.667177 -5.635297,5.17925 -11.948288,5.771946 -7.214323,0.67732 -13.91263,-0.907139 -22.690187,-5.367282 -1.687078,-0.857257 -3.26618,-1.558646 -3.509117,-1.558646 -0.404863,0 -0.435883,0.710345 -0.371898,8.516348 l 0.06981,8.51635 1.587375,0.62199 c 5.363325,2.10157 11.595742,3.45997 19.0485,4.15176 2.553499,0.23702 12.81759,-0.0917 15.080062,-0.48299 z"
         id="path146" />
      <path
         style="fill:#146a27;stroke-width:0.264562"
         d="m 44.700047,118.4588 c -5.417682,-4.48409 -11.296714,-11.89723 -14.504374,-18.28924 -4.459426,-8.886446 -6.458947,-17.267058 -6.45084,-27.037473 0.0048,-5.739559 0.50528,-9.704499 1.892543,-14.992111 C 31.064,37.456164 47.378104,21.289511 68.134249,16.027193 c 5.358621,-1.358574 8.412024,-1.72811 14.418656,-1.745006 10.115068,-0.02845 18.067645,1.847125 27.117655,6.395574 3.24936,1.633095 9.60712,5.764362 9.31719,6.054295 -0.0609,0.06085 -0.81301,-0.317837 -1.67145,-0.841536 -9.12517,-5.566888 -21.356439,-8.694082 -32.219489,-8.237629 -15.353356,0.645133 -29.058775,6.599382 -39.712123,17.252729 -9.001992,9.001994 -14.614253,20.099086 -16.723609,33.067498 -0.735001,4.518818 -0.66119,13.407461 0.150489,18.122531 2.108457,12.248109 7.384835,22.823081 15.605652,31.277011 1.926749,1.98138 2.081229,2.57463 0.282827,1.08614 z m 33.752139,-1.57219 c -7.222006,-0.72229 -13.273881,-2.10312 -18.655445,-4.2565 l -2.509555,-1.00418 -0.06986,-9.78881 c -0.07952,-11.141932 -0.226087,-10.450221 2.214328,-10.450221 1.167524,0 1.797786,0.222918 4.062354,1.436821 5.267471,2.82358 10.955594,4.746338 16.087556,5.438085 1.594979,0.214988 3.064261,0.216756 5.423531,0.0065 5.305423,-0.472776 7.699256,-1.391358 9.899429,-3.7987 1.644754,-1.799623 2.071104,-3.152675 2.055108,-6.522034 -0.01355,-2.85496 -0.490699,-4.133765 -2.026826,-5.432095 -2.208652,-1.866748 -4.8699,-2.399273 -13.260555,-2.653477 L 75.36806,79.671006 75.124329,79.029939 c -0.134054,-0.352577 -0.243734,-3.966792 -0.243734,-8.031583 0,-6.856976 0.03559,-7.426116 0.492947,-7.883473 0.4393,-0.439301 1.094309,-0.508378 6.018796,-0.634741 4.435531,-0.113815 5.93636,-0.250842 7.606347,-0.694466 4.015754,-1.066772 5.98866,-3.347663 5.98866,-6.92354 0,-2.178484 -0.453137,-3.319508 -1.802366,-4.538456 -1.432675,-1.294335 -3.600645,-2.03556 -6.990339,-2.389981 -6.451671,-0.674579 -14.025929,1.393636 -21.896545,5.979031 -1.305703,0.760699 -3.847691,0.979458 -4.44465,0.382499 -0.235254,-0.235254 -0.317475,-2.802852 -0.317475,-9.9143 v -9.596825 l 0.727547,-0.367434 c 2.391717,-1.207894 10.876252,-3.539745 16.204453,-4.453558 3.15766,-0.541555 4.399461,-0.610448 10.714782,-0.594443 6.087892,0.01543 7.593457,0.100907 10.191021,0.578591 10.525517,1.93561 17.484977,6.810197 19.793347,13.863783 1.91979,5.866229 1.66332,11.386111 -0.76717,16.51151 -1.86755,3.938261 -5.08468,7.412922 -8.3829,9.053934 -0.76393,0.380089 -1.38896,0.760628 -1.38896,0.845645 0,0.08502 0.5125,0.291651 1.13888,0.459183 1.42401,0.380864 4.06588,1.861877 5.84113,3.274498 6.64443,5.287168 8.70778,14.747454 5.39084,24.716598 -3.0467,9.156929 -11.38988,15.506159 -23.345505,17.766089 -2.045188,0.38659 -14.557224,0.71254 -17.201246,0.4481 z m 13.095844,-0.9113 c 11.30704,-1.03561 19.79876,-5.5515 24.41211,-12.98234 4.30826,-6.939429 4.87189,-17.807093 1.22263,-23.574087 -2.77226,-4.381047 -6.27157,-6.953414 -11.28254,-8.293849 l -2.71207,-0.725481 1.25698,-0.445039 c 4.91875,-1.741501 8.58441,-4.936027 10.77387,-9.389146 1.78939,-3.639422 2.11973,-5.159402 2.09865,-9.656531 -0.0162,-3.452252 -0.0916,-4.061204 -0.75401,-6.084938 -0.91378,-2.791848 -1.20712,-3.365221 -2.71509,-5.307047 -3.50552,-4.514107 -9.5125,-7.545724 -17.270594,-8.716154 -10.555239,-1.592424 -20.91739,-0.572965 -32.388844,3.186509 -1.758933,0.576445 -3.348465,1.145334 -3.532293,1.264198 -0.260877,0.168684 -0.318943,2.215477 -0.264563,9.325726 l 0.06967,9.109612 1.089815,0.07966 c 0.839388,0.06136 1.413865,-0.111405 2.500034,-0.751832 4.815865,-2.839536 10.674221,-5.093603 15.061807,-5.795196 2.195708,-0.351104 6.790293,-0.353715 8.938671,-0.0051 3.552817,0.576545 6.092726,2.086465 7.263902,4.318232 0.458801,0.874276 0.57088,1.524078 0.554105,3.212463 -0.03417,3.438699 -1.323892,5.62112 -4.138734,7.003433 -2.289389,1.124268 -4.992265,1.567413 -10.789801,1.76902 l -5.002893,0.173974 v 7.598394 7.598394 l 6.547922,0.139133 c 7.219771,0.153412 8.832949,0.407619 11.454863,1.805086 2.009474,1.071039 2.790897,1.93596 3.456346,3.82568 0.74229,2.107933 0.62932,6.220565 -0.222752,8.109076 -0.746248,1.653973 -2.794256,3.807136 -4.390647,4.616089 -2.606541,1.320834 -4.945028,1.743282 -9.834825,1.776661 -4.25788,0.02907 -4.679214,-0.01529 -7.906202,-0.832393 -3.944738,-0.998839 -7.616461,-2.416585 -11.51808,-4.447422 -2.329581,-1.212575 -2.975373,-1.434969 -4.16686,-1.434969 h -1.410015 v 9.227114 9.22711 l 1.256672,0.5315 c 3.013105,1.27439 8.557936,2.90624 12.236016,3.60108 1.74661,0.32996 5.693949,0.79783 8.862844,1.0505 2.565624,0.20456 8.453142,0.14846 11.243906,-0.10714 z m -11.773031,-0.93002 c -7.452758,-0.69179 -13.685175,-2.05019 -19.0485,-4.15176 l -1.587375,-0.62199 -0.06981,-8.51635 c -0.06399,-7.806008 -0.03296,-8.516353 0.371898,-8.516353 0.242937,0 1.822039,0.701389 3.509117,1.558646 8.777557,4.460143 15.475864,6.044607 22.690187,5.367287 6.312991,-0.592701 9.443072,-2.104774 11.948288,-5.771951 1.535947,-2.248348 1.800383,-8.089779 0.497679,-10.993855 -0.535757,-1.194346 -1.009107,-1.75165 -2.286465,-2.691987 -2.746268,-2.021689 -5.03159,-2.504309 -12.91641,-2.727714 L 76.997092,77.812475 V 71.291364 64.77025 l 5.357391,-0.306448 c 7.523237,-0.43034 10.067476,-1.14878 12.292775,-3.471232 1.57384,-1.642549 2.253919,-3.550804 2.273708,-6.379858 0.01347,-1.925679 -0.08386,-2.442264 -0.677393,-3.59541 -1.679544,-3.263082 -4.878895,-4.736208 -10.964576,-5.04859 -6.816038,-0.349874 -13.563831,1.46226 -20.984759,5.635496 -1.131148,0.636111 -2.249488,1.156566 -2.4852,1.156566 -0.387481,0 -0.421868,-0.801582 -0.358709,-8.361246 l 0.06986,-8.361244 2.1165,-0.775023 c 3.089196,-1.131204 9.524166,-2.752958 13.624969,-3.43379 5.088764,-0.844857 14.474749,-0.857442 19.313062,-0.0259 9.85383,1.693549 16.22641,5.978736 18.70942,12.580994 0.7953,2.114682 0.93022,2.830853 1.05867,5.619522 0.18405,3.996105 -0.29128,6.403973 -1.9282,9.767589 -2.20564,4.532276 -6.12791,7.897421 -10.96127,9.404332 -1.28833,0.401666 -1.46413,0.542027 -1.53395,1.224752 -0.0788,0.770546 -0.0768,0.77162 2.7779,1.503604 5.69358,1.459893 9.35754,4.147009 11.81501,8.665015 2.52865,4.648886 2.81236,9.803471 0.90629,16.466102 -2.59495,9.070569 -10.8801,15.506289 -22.563526,17.526809 -2.262472,0.39127 -12.526563,0.72001 -15.080062,0.48299 z m 10.317937,-0.9198 c 6.941903,-0.51766 11.702434,-1.91128 16.715304,-4.89331 4.50347,-2.67899 8.09043,-7.15743 9.61188,-12.000733 2.95599,-9.409921 0.76439,-17.454108 -5.9852,-21.968513 -1.92744,-1.289152 -3.14104,-1.757534 -7.37842,-2.847655 l -1.85194,-0.476435 -0.0785,-1.344956 c -0.0894,-1.532222 0.0537,-1.707945 1.79815,-2.207978 2.62185,-0.751535 5.30137,-2.374523 7.37979,-4.469948 4.06963,-4.102914 5.84516,-9.428182 5.07446,-15.219611 -0.78778,-5.919851 -3.9444,-10.247746 -9.46257,-12.973715 -4.46416,-2.205288 -8.402152,-3.120881 -15.515442,-3.607375 -7.749191,-0.529985 -16.152043,0.681491 -25.242537,3.639329 l -2.976329,0.968429 v 7.462875 7.462874 l 4.299141,-2.162359 c 8.317554,-4.183522 15.813504,-5.4721 23.08061,-3.967634 3.575022,0.740117 6.174336,2.461916 7.482954,4.956748 0.647652,1.234721 0.713354,1.625964 0.71697,4.26947 0.0035,2.599729 -0.07075,3.069592 -0.696569,4.404426 -1.382657,2.949131 -4.081615,4.795865 -8.239172,5.637565 -1.133603,0.2295 -4.080168,0.493502 -6.547922,0.586673 l -4.486824,0.169402 v 5.745025 5.745022 l 6.018797,0.143327 c 4.178667,0.0995 6.525156,0.270835 7.675029,0.560396 3.761616,0.947247 6.706117,3.154302 7.679644,5.756285 1.12743,3.013314 0.9921,7.567463 -0.309252,10.407129 -0.931065,2.031666 -3.071336,4.195009 -5.207614,5.263746 -3.015455,1.508571 -5.179928,1.878431 -10.962198,1.873221 -4.776874,-0.004 -5.194803,-0.0469 -8.409455,-0.85639 -3.766698,-0.948534 -8.052317,-2.611473 -11.801474,-4.5793 -1.366883,-0.717438 -2.527651,-1.304433 -2.579485,-1.304433 -0.05183,0 -0.09424,3.43959 -0.09424,7.643533 v 7.64353 l 2.711766,0.95664 c 5.79132,2.04302 11.536361,3.18761 17.924109,3.57105 5.24319,0.31474 5.611855,0.31526 9.656531,0.0136 z"
         id="path144" />
      <path
         style="fill:#482d18;stroke-width:0.264562"
         d="m 47.067782,120.29035 c -0.329081,-0.41961 -0.319723,-0.42897 0.09989,-0.0999 0.254641,0.19971 0.462984,0.40805 0.462984,0.46299 0,0.21774 -0.217256,0.0776 -0.562873,-0.3631 z M 119.32709,27.362774 c -0.7357,-0.40278 -0.81208,-0.509225 -0.37171,-0.518035 0.30485,-0.0061 0.76975,0.227017 1.03312,0.518035 0.58381,0.645108 0.51692,0.645108 -0.66141,0 z"
         id="path142" />
    </g>
  </g>
  <g
     inkscape:label="Warstwa 1"
     inkscape:groupmode="layer"
     id="layer1">
    <g
       id="g52"
       transform="matrix(0.24778414,0,0,0.24778414,37.583185,2.7052313)">
      <path
         style="fill:#d9afd2;stroke-width:0.264562"
         d="m 67.215547,111.7776 v -5.4326 l 3.229683,-2.6292 c 10.648972,-8.669044 19.226535,-16.684748 24.188063,-22.60367 5.0369,-6.008838 7.101287,-9.869247 7.922717,-14.8155 0.47135,-2.838229 0.46673,-4.420278 -0.0196,-6.715794 -0.9392,-4.433107 -3.607521,-7.407557 -7.967736,-8.88184 -2.282608,-0.7718 -7.193624,-1.03882 -10.003693,-0.543919 -4.063881,0.715721 -10.513595,3.395723 -14.083987,5.852218 -0.611608,0.420797 -1.181677,0.765085 -1.266823,0.765085 -0.08515,0 -0.123223,-3.407049 -0.08461,-7.57122 l 0.0702,-7.571221 1.322812,-0.519894 c 2.146208,-0.843505 8.748656,-2.527992 12.169875,-3.104908 5.417655,-0.913573 9.518999,-1.173335 13.439698,-0.851214 11.147344,0.915854 17.937994,4.426332 21.875904,11.308922 0.6145,1.074 1.13059,2.222238 1.14687,2.551645 0.0207,0.41867 -7.64092,10.312842 -25.457444,32.875547 -14.017887,17.752143 -25.710909,32.511423 -25.984493,32.798403 -0.487655,0.51152 -0.49743,0.41502 -0.49743,-4.91084 z"
         id="path66" />
      <path
         style="fill:#c597b3;stroke-width:0.264562"
         d="m 65.363609,112.36406 v -7.10964 l 3.505453,-2.86592 C 82.790055,91.007244 93.116985,80.795637 97.342017,74.233505 c 1.473118,-2.287981 2.889053,-5.841918 3.365883,-8.44821 1.01882,-5.568768 -1.093953,-10.575487 -5.302981,-12.566674 -6.172487,-2.920056 -14.758556,-1.320712 -23.609793,4.397841 -2.058296,1.32981 -2.585977,1.558072 -3.439312,1.487757 l -1.007986,-0.08306 -0.06954,-9.333776 -0.06953,-9.333775 1.175227,-0.503762 c 3.14433,-1.347817 9.844725,-3.111106 15.234434,-4.009124 2.926374,-0.487584 4.599168,-0.595239 9.259688,-0.595918 5.201944,-7.68e-4 5.993351,0.0624 9.259693,0.738941 6.36892,1.319171 10.72826,3.426845 14.052,6.793935 4.17522,4.229661 6.54498,10.560274 6.57564,17.566291 0.0183,4.174172 -1.64737,10.890179 -3.71839,14.992834 -3.50019,6.933844 -11.62984,15.778999 -22.941288,24.960395 l -3.25413,2.64134 16.680678,0.0681 16.68067,0.0681 v 8.19947 8.19946 H 95.788296 65.363609 Z m 60.055691,-1.08989 v -7.14127 l -17.25911,-0.0681 c -15.190876,-0.0599 -17.268369,-0.11621 -17.336464,-0.46991 -0.04759,-0.24718 1.37655,-1.57029 3.700274,-3.43775 11.53873,-9.273121 19.22211,-17.477607 23.32829,-24.910458 1.31968,-2.388844 2.91082,-7.231287 3.47309,-10.569984 0.96395,-5.723683 -0.0201,-11.924244 -2.6614,-16.769783 -1.4857,-2.725539 -4.48197,-5.909996 -6.86965,-7.3011 -2.50081,-1.457008 -6.28613,-2.85369 -9.76409,-3.602684 -2.921385,-0.629134 -3.728362,-0.689188 -9.284412,-0.690929 -5.463126,-0.0017 -6.474985,0.07009 -9.901855,0.702663 -4.339203,0.800981 -8.870029,1.962991 -12.255255,3.143077 l -2.314921,0.80698 v 8.565115 c 0,7.54832 0.04853,8.565116 0.408791,8.565116 0.224836,0 1.266551,-0.577558 2.314922,-1.283461 6.449023,-4.342344 14.418733,-6.700755 19.984046,-5.913716 5.761793,0.814824 9.036454,3.310971 10.427814,7.94872 0.43566,1.452165 0.50382,2.282002 0.40484,4.92873 -0.1258,3.36418 -0.73796,5.761089 -2.231725,8.738383 -3.374375,6.725623 -14.418304,18.03871 -29.919735,30.648921 l -3.505454,2.85164 v 6.20052 6.20051 h 29.631 29.631004 z"
         id="path64" />
      <path
         style="fill:#ca71ad;stroke-width:0.264562"
         d="m 67.259641,117.40436 c 0.153497,-0.3784 51.935489,-65.901766 52.089709,-65.912745 0.25281,-0.01799 1.02649,3.593307 1.34081,6.258454 0.74305,6.300452 -1.69854,14.729681 -6.07732,20.980999 -4.41429,6.302032 -11.47621,13.364208 -20.881125,20.881892 -3.968663,3.17229 -4.477678,3.84567 -3.621864,4.79133 0.456654,0.5046 0.920964,0.51847 17.360199,0.51847 h 16.891 v 6.3495 6.3495 H 95.766251 c -15.727141,0 -28.555115,-0.0978 -28.50661,-0.2174 z"
         id="path62" />
      <path
         style="fill:#3a98dd;stroke-width:0.264562"
         d="m 85.734921,135.24172 c -7.280466,-0.81828 -14.397372,-2.86608 -20.846633,-5.99834 -2.810262,-1.36488 -3.562911,-1.87641 -5.527631,-3.75677 C 50.05411,116.57963 44.122805,105.35744 41.780113,92.223755 40.981492,87.746496 40.90964,78.269126 41.640713,73.836662 43.322575,63.6396 47.127774,54.723537 53.252538,46.628684 55.51441,43.63926 61.264708,37.956883 64.43764,35.575696 c 6.300678,-4.728459 13.281297,-8.099882 20.731245,-10.012547 5.769409,-1.481212 7.993954,-1.730639 15.249255,-1.709825 6.4175,0.01841 6.73986,0.04496 10.84706,0.893475 5.08243,1.049985 10.66328,2.926569 15.18875,5.107285 3.26214,1.571945 3.39881,1.673445 6.64632,4.935795 7.63568,7.670559 12.82194,16.790981 15.43381,27.14147 1.34888,5.345438 1.62033,7.759756 1.62109,14.418656 8e-4,6.655422 -0.30055,9.388879 -1.61166,14.620351 -4.59593,18.338294 -18.2047,33.685964 -35.95105,40.544774 -8.27332,3.19756 -18.696606,4.64384 -26.857539,3.72659 z m 41.262439,-15.48607 c 0.1719,-0.32119 0.27387,-3.56639 0.27387,-8.71556 0,-8.17769 -0.002,-8.20514 -0.58799,-8.61568 -0.51572,-0.36122 -2.46808,-0.41184 -15.88379,-0.41184 H 95.503648 l 2.457246,-2.031739 c 10.550576,-8.723575 17.538036,-16.375003 21.617046,-23.671134 1.36395,-2.439708 3.09792,-7.732162 3.56637,-10.885348 2.36433,-15.91458 -5.03807,-27.051355 -20.1141,-30.261291 -3.220235,-0.685643 -3.780454,-0.724873 -10.284382,-0.720178 -6.31239,0.0046 -7.190248,0.06295 -10.664224,0.709319 -5.913024,1.100184 -14.150969,3.500798 -15.307715,4.460811 -0.487161,0.404307 -0.520181,19.53102 -0.03455,20.016645 0.174611,0.174612 0.953832,0.317475 1.731604,0.317475 1.25374,0 1.630319,-0.14585 3.320259,-1.285956 6.192509,-4.177727 13.817602,-6.550509 18.78606,-5.845855 2.64876,0.375663 3.051598,0.49337 4.770233,1.393829 2.991988,1.567623 4.663015,4.620629 4.670675,8.53344 0.01,4.986138 -1.909446,9.37451 -6.775849,15.493436 -4.023122,5.058604 -14.704442,15.083613 -25.100801,23.558496 l -3.703875,3.01931 -0.07041,7.20707 c -0.04561,4.66816 0.02757,7.39014 0.207731,7.72677 0.274026,0.51202 0.735728,0.51971 31.213335,0.51971 30.313959,0 30.940699,-0.0103 31.209069,-0.51173 z"
         id="path60" />
      <path
         style="fill:#147dc9;stroke-width:0.264562"
         d="m 58.220421,125.38928 c -0.94581,-0.6655 -2.023802,-1.49491 -2.395539,-1.84314 -0.371734,-0.34822 -0.768591,-0.63313 -0.8819,-0.63313 -0.41971,0 -4.85375,-3.99037 -6.517747,-5.86558 -3.293969,-3.71208 -4.419376,-5.13087 -6.259806,-7.89167 -4.550125,-6.82558 -7.595333,-14.510054 -9.121174,-23.016942 -0.803991,-4.482419 -0.874849,-14.1955 -0.136067,-18.651656 2.139611,-12.905608 7.67071,-23.767695 16.701221,-32.798207 9.05503,-9.05503 19.995867,-14.579436 33.083044,-16.704768 3.978586,-0.646115 12.816958,-0.657852 17.021491,-0.0226 7.060496,1.066745 13.634226,3.232936 19.586906,6.454321 2.49189,1.348523 7.55755,4.652601 7.84417,5.116352 0.41927,0.678396 -0.27856,0.541037 -2.45312,-0.482865 -3.53214,-1.663128 -8.73731,-3.33052 -13.4267,-4.301034 -4.10976,-0.850554 -4.42555,-0.876611 -10.84706,-0.895033 -7.255301,-0.02081 -9.479846,0.228613 -15.249255,1.709825 -7.449948,1.912665 -14.430567,5.284088 -20.731245,10.012547 -3.172932,2.381187 -8.92323,8.063564 -11.185102,11.052988 -6.124764,8.094853 -9.929963,17.010916 -11.611825,27.207978 -0.731073,4.432464 -0.659221,13.909834 0.1394,18.387093 2.263812,12.691461 7.560685,23.045731 16.410061,32.078201 1.247399,1.27321 2.151425,2.31096 2.00895,2.30612 -0.142475,-0.005 -1.032892,-0.5533 -1.978703,-1.2188 z"
         id="path58" />
      <path
         style="fill:#8d2f68;stroke-width:0.264562"
         d="m 64.574961,119.74767 c -0.180159,-0.33663 -0.253337,-3.05861 -0.207731,-7.72677 l 0.07041,-7.20707 3.703875,-3.01931 c 7.468761,-6.088371 12.55884,-10.618509 17.886941,-15.91927 7.491005,-7.452567 11.000699,-11.974625 12.628838,-16.271588 2.654596,-7.005999 1.379286,-12.937707 -3.309804,-15.394514 -1.718635,-0.900459 -2.121473,-1.018166 -4.770233,-1.393829 -4.968458,-0.704654 -12.593551,1.668128 -18.78606,5.845855 -1.68994,1.140106 -2.066519,1.285957 -3.320259,1.285957 -0.777772,0 -1.556993,-0.142864 -1.731604,-0.317475 -0.485626,-0.485626 -0.452606,-19.612339 0.03455,-20.016646 1.156746,-0.960013 9.394691,-3.360627 15.307715,-4.460811 3.473976,-0.646372 4.351834,-0.704762 10.664224,-0.709319 6.503928,-0.0047 7.064147,0.03453 10.284387,0.720178 15.07603,3.209936 22.47843,14.346711 20.1141,30.261291 -0.46845,3.153186 -2.20242,8.44564 -3.56637,10.885348 -4.07901,7.296131 -11.06647,14.947559 -21.617051,23.671134 l -2.457246,2.031739 h 15.295807 c 13.41571,0 15.36807,0.0506 15.88379,0.41184 0.58612,0.41054 0.58799,0.43799 0.58799,8.61568 0,5.14917 -0.10197,8.39437 -0.27387,8.71556 -0.26837,0.50145 -0.89511,0.51173 -31.209069,0.51173 -30.477607,0 -30.939309,-0.008 -31.213335,-0.51971 z m 61.638019,-8.47344 v -8.19947 l -16.68067,-0.0681 -16.680676,-0.0681 3.25413,-2.64134 c 11.311446,-9.181393 19.441096,-18.026548 22.941286,-24.960392 2.07102,-4.102655 3.73666,-10.818662 3.71839,-14.992834 -0.0307,-7.006017 -2.40042,-13.33663 -6.57564,-17.566291 -3.32374,-3.36709 -7.68308,-5.474764 -14.052,-6.793935 -3.26634,-0.676544 -4.057747,-0.7397 -9.259691,-0.738941 -4.66052,6.87e-4 -6.333314,0.108334 -9.259688,0.595918 -5.389709,0.898018 -12.090104,2.661307 -15.234434,4.009124 l -1.175227,0.503762 0.06953,9.333775 0.06954,9.333776 1.007986,0.08306 c 0.853335,0.07032 1.381016,-0.157947 3.439312,-1.487757 7.319786,-4.729121 14.618263,-6.699064 20.33244,-5.48796 5.137762,1.088934 7.949542,4.061733 8.713012,9.211965 0.25493,1.71972 0.23329,2.444439 -0.13268,4.444828 -0.47683,2.606292 -1.892763,6.160229 -3.365881,8.44821 -4.225032,6.562132 -14.551962,16.773739 -28.472955,28.154992 l -3.505453,2.86592 v 7.10964 7.10963 h 30.424687 30.424682 z m -60.055684,0.9407 v -6.20052 l 3.505454,-2.85164 C 82.99707,92.315477 93.275061,82.200181 97.847638,75.424037 c 2.665482,-3.95 3.803682,-7.292528 3.966572,-11.648571 0.099,-2.646728 0.0308,-3.476565 -0.40484,-4.92873 -1.39136,-4.637749 -4.666021,-7.133896 -10.427814,-7.94872 -5.565313,-0.787039 -13.535023,1.571372 -19.984046,5.913716 -1.048371,0.705903 -2.090086,1.283461 -2.314922,1.283461 -0.360263,0 -0.408791,-1.016796 -0.408791,-8.565116 v -8.565115 l 2.314921,-0.80698 c 3.385226,-1.180086 7.916052,-2.342096 12.255255,-3.143077 3.42687,-0.632571 4.438729,-0.704376 9.901855,-0.702663 5.55605,0.0017 6.363027,0.0618 9.284412,0.690929 3.47796,0.748994 7.26328,2.145676 9.76409,3.602684 2.38768,1.391104 5.38395,4.575561 6.86965,7.3011 2.6413,4.845539 3.62535,11.0461 2.6614,16.769783 -0.56227,3.338697 -2.15341,8.18114 -3.47309,10.569984 -4.10618,7.432851 -11.78956,15.637337 -23.32829,24.910458 -2.323724,1.86746 -3.747867,3.19057 -3.700274,3.43775 0.06809,0.3537 2.145588,0.41001 17.336464,0.46991 l 17.25911,0.0681 v 7.14127 7.14127 h -29.631004 -29.631 z m 58.203754,-0.94267 v -6.3495 h -16.891 c -16.439235,0 -16.903545,-0.0139 -17.360199,-0.51847 -0.855814,-0.94566 -0.346799,-1.61904 3.621864,-4.79133 11.607275,-9.278107 19.460295,-17.657534 23.289215,-24.85033 2.46359,-4.627973 4.15545,-11.862649 3.77343,-16.135873 -0.39594,-4.428914 -1.34733,-7.75788 -3.01814,-10.560541 -3.93674,-6.60362 -10.69926,-10.013079 -21.644069,-10.912293 -3.9207,-0.322121 -8.022043,-0.06236 -13.439698,0.851214 -3.421219,0.576916 -10.023668,2.261403 -12.169875,3.104908 l -1.322813,0.519894 -0.0702,7.571221 c -0.03861,4.164171 -5.32e-4,7.57122 0.08461,7.57122 0.08515,0 0.655216,-0.344288 1.266823,-0.765085 3.570393,-2.456495 10.020107,-5.136497 14.083988,-5.852218 2.810069,-0.494901 7.721084,-0.227881 10.003693,0.543919 4.360214,1.474283 7.028531,4.448733 7.967731,8.88184 0.48632,2.295516 0.49094,3.877565 0.0196,6.715794 -0.82143,4.946253 -2.885812,8.806662 -7.922712,14.8155 -4.961528,5.918922 -13.539092,13.934626 -24.188063,22.60367 l -3.229694,2.6292 v 5.63838 5.63838 h 28.572749 28.57275 z"
         id="path56" />
      <path
         style="fill:#986128;stroke-width:0.264562"
         d="m 55.276486,123.24371 c -0.329081,-0.41961 -0.319723,-0.42897 0.09989,-0.0999 0.440695,0.34562 0.580841,0.56287 0.363096,0.56287 -0.05494,0 -0.26328,-0.20834 -0.462985,-0.46298 z M 128.26593,30.767403 c -0.54423,-0.320954 -0.99068,-0.672844 -0.99211,-0.781976 -0.005,-0.366469 0.38822,-0.189274 1.32023,0.595266 1.10116,0.926924 1.01255,0.977346 -0.32812,0.18671 z"
         id="path54" />
    </g>
    <g
       id="g1291"
       transform="matrix(0.60727985,0,0,0.60727985,-4.2394895,-19.060849)">
      <path
         style="fill:#f0dbe7;stroke-width:0.264779"
         d="m 131.92493,127.29767 c -12.42753,-2.0009 -18.36179,-13.08896 -12.97795,-24.24907 0.63228,-1.31066 1.65294,-2.95458 2.26813,-3.653157 l 1.11852,-1.270149 -0.80684,-1.774807 c -1.00073,-2.201287 -1.753,-4.654929 -2.35058,-7.666768 -0.6781,-3.417631 -0.60959,-10.308191 0.14394,-14.477604 0.314,-1.737425 0.60569,-3.19374 0.64821,-3.236256 0.0425,-0.04252 1.32173,0.857457 2.84269,1.999942 3.26908,2.455588 6.58254,5.832491 7.50061,7.644209 0.70419,1.389647 1.51814,5.18266 2.03014,9.460433 l 0.31691,2.647786 h 2.73628 2.73628 l 0.16368,-1.456282 c 0.32222,-2.866909 1.17225,-7.83482 1.56507,-9.146843 0.53545,-1.788414 1.60652,-3.337182 3.77357,-5.456566 1.73083,-1.692769 6.98555,-5.851696 7.16578,-5.671468 0.31121,0.311214 1.15031,6.442105 1.28911,9.418952 0.25462,5.46055 -0.81798,11.521806 -2.79156,15.77512 l -0.7468,1.609462 1.30089,1.567882 c 3.48161,4.196134 5.06813,10.847024 3.78723,15.876494 -1.40038,5.4986 -5.8622,9.75709 -12.04993,11.50079 -2.20401,0.62108 -7.40572,0.9214 -9.66338,0.5579 z"
         id="path1305" />
      <path
         style="fill:#e9cbd7;stroke-width:0.264779"
         d="m 132.11459,127.27456 c -5.76508,-0.81028 -10.72589,-3.91995 -13.09226,-8.20686 -1.10904,-2.00913 -1.85578,-4.40808 -1.7374,-5.58151 l 0.0834,-0.82652 1.77897,2.01928 c 0.97843,1.1106 2.32612,2.49284 2.99486,3.07163 l 1.2159,1.05235 2.83026,-0.0148 2.83027,-0.0148 -3.16178,-0.99762 c -1.73898,-0.54869 -3.2085,-1.13779 -3.2656,-1.3091 -0.16361,-0.49081 0.33901,-0.3867 4.70632,0.97482 2.62257,0.81759 4.10407,1.40779 4.10407,1.63497 0,0.22245 -0.74329,0.53849 -1.98584,0.84436 -2.8815,0.70932 -2.89405,0.71618 -2.09006,1.14174 0.87572,0.46352 4.40412,1.44733 5.19082,1.44733 0.55101,0 0.58409,-0.087 0.43813,-1.15183 -0.0924,-0.67416 -0.0315,-1.38789 0.14677,-1.72106 0.27241,-0.50899 0.52685,-0.56924 2.40425,-0.56924 1.87739,0 2.13184,0.0602 2.40424,0.56924 0.18154,0.33921 0.23886,1.04923 0.14184,1.75703 l -0.16281,1.1878 1.1389,-0.1561 c 1.41403,-0.19382 5.57988,-1.4932 5.39142,-1.68166 -0.0762,-0.0761 -1.18944,-0.40262 -2.47399,-0.7255 -1.48549,-0.37339 -2.33553,-0.71636 -2.33553,-0.94234 0,-0.22689 1.48321,-0.81768 4.10406,-1.63474 4.36731,-1.36152 4.86993,-1.46563 4.70633,-0.97482 -0.0571,0.17131 -1.52663,0.76041 -3.26561,1.3091 l -3.16178,0.99762 2.91844,0.0148 c 2.89908,0.0147 2.92521,0.009 3.94182,-0.82877 3.67697,-3.03086 3.95085,-12.25069 0.53593,-18.040884 -1.24685,-2.114115 -1.13933,-2.342158 0.31335,-0.664589 2.56359,2.960443 4.34254,7.964163 4.33398,12.190273 -0.0148,7.28437 -5.02278,13.37109 -12.5948,15.30769 -2.35939,0.60343 -6.93004,0.85959 -9.32685,0.52272 z m -5.21425,-7.52634 1.32389,-0.36839 -1.98584,-0.0152 c -1.80126,-0.0139 -1.93806,0.0209 -1.47187,0.37349 0.61665,0.46641 0.49618,0.46584 2.13382,0.0101 z m 19.46123,-0.0186 c 0.61388,-0.35092 0.50812,-0.37719 -1.45628,-0.36179 l -2.11823,0.0166 1.1915,0.34518 c 1.54234,0.44682 1.60139,0.44682 2.38301,0 z m -16.5607,-5.8131 c -0.55298,-0.55297 -0.64991,-0.8996 -0.64991,-2.32409 0,-2.01291 0.46706,-2.85112 1.58867,-2.85112 1.12161,0 1.58867,0.83821 1.58867,2.85112 0,1.42449 -0.0969,1.77112 -0.64991,2.32409 -0.35745,0.35746 -0.77989,0.64992 -0.93876,0.64992 -0.15887,0 -0.58131,-0.29246 -0.93876,-0.64992 z m 9.53203,0 c -0.55298,-0.55297 -0.64991,-0.8996 -0.64991,-2.32409 0,-2.01291 0.46706,-2.85112 1.58867,-2.85112 1.12162,0 1.58867,0.83821 1.58867,2.85112 0,1.42449 -0.0969,1.77112 -0.64991,2.32409 -0.35745,0.35746 -0.77989,0.64992 -0.93876,0.64992 -0.15887,0 -0.58131,-0.29246 -0.93876,-0.64992 z M 125.30399,97.212706 c -1.39447,-0.688303 -3.1313,-4.567236 -3.8483,-8.594546 -0.60143,-3.378139 -0.19224,-11.591021 0.60195,-12.081858 0.47134,-0.291303 4.75976,3.514935 6.05514,5.374316 0.4228,0.606886 0.94486,1.779643 1.16014,2.606128 0.54168,2.07966 1.26692,8.55131 1.07444,9.587777 -0.21224,1.142886 -1.33371,2.424264 -2.64173,3.018416 -1.29271,0.587198 -1.38675,0.590712 -2.40164,0.08977 z m 18.15293,0.113338 c -1.13246,-0.451961 -2.30001,-1.494432 -2.76044,-2.464719 -0.3895,-0.820808 -0.40958,-1.286107 -0.16347,-3.788041 0.38525,-3.916512 1.00116,-7.123913 1.5856,-8.25718 0.26941,-0.52239 0.94245,-1.474776 1.49566,-2.116413 0.99717,-1.156579 4.71432,-4.261348 5.10184,-4.261348 0.22147,0 0.72501,3.052746 0.98266,5.957519 0.17964,2.025131 -0.21676,5.97203 -0.85096,8.472917 -0.22157,0.873769 -0.87958,2.581067 -1.46223,3.793995 -0.87749,1.826686 -1.21399,2.269925 -1.95991,2.581591 -1.03233,0.431335 -1.08696,0.433602 -1.96875,0.08168 z"
         id="path1303" />
      <path
         style="fill:#e1b5c3;stroke-width:0.264779"
         d="m 132.50799,127.2755 c -7.52373,-0.93449 -12.92779,-5.16873 -14.84537,-11.63178 -0.89316,-3.0103 -0.68308,-2.9918 2.44358,0.21518 l 2.87028,2.94403 3.02104,-0.0274 3.02105,-0.0274 -3.24354,-1.0482 c -1.78394,-0.57651 -3.24354,-1.15991 -3.24354,-1.29645 0,-0.13655 0.0923,-0.24826 0.20514,-0.24826 0.36728,0 8.57791,2.60488 8.74858,2.77554 0.27988,0.27989 -0.427,0.56767 -2.63063,1.07096 -1.16191,0.26538 -2.16773,0.57174 -2.23513,0.68081 -0.15303,0.2476 2.3649,1.20197 4.49935,1.70539 2.09232,0.49348 2.33127,0.48507 2.17719,-0.0766 -0.74857,-2.72876 -0.39788,-3.24354 2.20966,-3.24354 2.61384,0 2.9627,0.51854 2.20084,3.27132 -0.12241,0.44229 -0.0213,0.47324 1.01604,0.3112 1.36442,-0.21313 5.22749,-1.35522 5.76488,-1.70435 0.3914,-0.25429 0.41527,-0.24561 -3.24854,-1.1812 -1.59859,-0.40821 -1.95868,-0.58809 -1.69839,-0.84838 0.16089,-0.16089 8.38615,-2.76115 8.73418,-2.76115 0.11283,0 0.20514,0.11171 0.20514,0.24826 0,0.13654 -1.45959,0.71994 -3.24354,1.29645 l -3.24354,1.0482 3.04496,0.0262 3.04495,0.0262 0.86498,-0.81069 c 1.77313,-1.66184 2.96047,-5.17873 2.96972,-8.79625 0.007,-2.86544 -0.66342,-5.59569 -2.09508,-8.52795 l -1.29276,-2.647788 1.05072,1.177902 c 1.46872,1.646496 2.87414,4.266256 3.62766,6.762106 0.85891,2.84491 0.95731,7.72602 0.20023,9.93255 -1.56297,4.55534 -4.35286,7.63383 -8.76759,9.67456 -3.26299,1.50833 -8.17969,2.20154 -12.13252,1.71058 z m -5.34287,-7.52728 1.32389,-0.36839 -2.23503,-0.0237 c -2.01933,-0.0214 -2.18543,0.0138 -1.72106,0.36507 0.64045,0.48441 0.97597,0.48785 2.6322,0.027 z m 19.34443,-0.0101 c 0.46444,-0.35129 0.29709,-0.38706 -1.73665,-0.37118 l -2.25062,0.0176 1.1915,0.34518 c 1.60897,0.46612 2.18833,0.46786 2.79577,0.008 z m -16.45842,-5.63903 c -0.5774,-0.38554 -0.90017,-1.37732 -0.90017,-2.76599 0,-1.74174 0.52102,-2.59172 1.58867,-2.59172 1.06765,0 1.58867,0.84998 1.58867,2.59172 0,1.89363 -0.57251,2.96052 -1.58867,2.96052 -0.21844,0 -0.52827,-0.0875 -0.6885,-0.19453 z m 9.53203,0 c -0.5774,-0.38554 -0.90017,-1.37732 -0.90017,-2.76599 0,-1.74174 0.52102,-2.59172 1.58867,-2.59172 1.06765,0 1.58867,0.84998 1.58867,2.59172 0,1.89363 -0.57251,2.96052 -1.58867,2.96052 -0.21844,0 -0.52827,-0.0875 -0.6885,-0.19453 z M 124.74968,96.685547 c -0.7685,-0.768504 -1.9621,-3.291264 -2.56418,-5.4196 -1.05207,-3.719053 -1.2355,-9.411949 -0.42843,-13.296564 l 0.31453,-1.513914 1.16747,0.83841 c 1.87629,1.347454 4.77324,4.373322 5.37286,5.611968 0.75099,1.551357 1.80747,8.890117 1.631,11.329646 -0.0439,0.607189 -1.51757,2.258666 -2.44202,2.73672 -1.13964,0.58933 -2.28262,0.481947 -3.05123,-0.286666 z m 17.88425,0.06826 c -0.49136,-0.331129 -1.1771,-1.016244 -1.52386,-1.522478 -0.58986,-0.861144 -0.62014,-1.082428 -0.47011,-3.435821 0.24398,-3.827168 0.8967,-7.395643 1.6289,-8.905248 0.63799,-1.315375 3.68319,-4.506291 5.59557,-5.863323 l 0.84092,-0.596715 0.34803,1.526539 c 0.21932,0.961941 0.34099,3.191347 0.32897,6.027777 -0.0211,4.969917 -0.4268,7.129234 -1.95216,10.389036 -1.39457,2.980277 -2.84081,3.698006 -4.79626,2.380233 z"
         id="path1301" />
      <path
         style="fill:#caa8b5;stroke-width:0.264779"
         d="m 132.99025,127.24572 c -3.96067,-0.31805 -7.70591,-1.78108 -10.4961,-4.10015 -1.48936,-1.23789 -1.64037,-1.66008 -0.28853,-0.8067 1.25264,0.79076 3.64523,1.80028 5.48906,2.31603 0.88941,0.24879 2.75767,0.37032 5.69274,0.37032 2.93507,0 4.80332,-0.12153 5.69274,-0.37032 2.04013,-0.57066 4.32695,-1.57244 5.92918,-2.59738 l 1.45526,-0.93092 -1.04123,-0.35795 c -0.57268,-0.19688 -2.14482,-0.62401 -3.49364,-0.94918 -1.34882,-0.32517 -2.4524,-0.66469 -2.4524,-0.75448 0,-0.21483 8.80025,-2.93555 8.96435,-2.77145 0.21201,0.21201 0.0181,0.29126 -3.404,1.39093 l -3.30974,1.06358 3.47608,0.0274 3.47607,0.0274 0.94398,-1.39009 c 1.68255,-2.47769 2.15195,-4.31559 2.14708,-8.40672 -0.004,-3.16227 -0.0858,-3.81881 -0.71169,-5.69275 -0.38909,-1.16502 -1.13402,-2.82663 -1.6554,-3.692468 -1.2706,-2.110021 -0.22773,-1.172125 1.29839,1.167698 2.77518,4.25486 3.84517,9.42806 2.90448,14.04265 -1.30422,6.39794 -7.83123,11.81116 -14.87183,12.33406 -0.97524,0.0724 -2.13062,0.16321 -2.56751,0.20173 -0.43688,0.0385 -1.86669,-0.0161 -3.17734,-0.12132 z m 14.56282,-7.38368 c 0.47658,-0.52661 0.46316,-0.52941 -2.40816,-0.50395 l -2.88741,0.0256 1.72106,0.47834 c 2.28251,0.63439 3.0004,0.63439 3.57451,0 z m -13.39426,3.63229 c -0.23106,-0.17741 -0.55873,-0.58281 -0.72814,-0.9009 -0.40237,-0.75547 -0.39618,-2.80211 0.01,-3.20799 0.18294,-0.18294 1.05912,-0.31774 2.06528,-0.31774 1.00616,0 1.88233,0.1348 2.06527,0.31774 0.40588,0.40588 0.41207,2.45252 0.01,3.20799 -0.16942,0.31809 -0.49708,0.72349 -0.72814,0.9009 -0.54169,0.41589 -2.15199,0.41589 -2.69368,0 z m -11.62732,-2.27389 c 0,-0.15906 0.32767,-0.37237 0.72814,-0.47402 0.40048,-0.10165 1.8005,-0.44834 3.11115,-0.77041 l 2.38301,-0.58559 -3.64071,-0.029 c -2.2313,-0.0178 -3.6407,-0.13148 -3.6407,-0.29376 0,-0.16331 1.49664,-0.27529 3.90548,-0.29221 l 3.90549,-0.0274 -3.30973,-1.06358 c -3.42206,-1.09967 -3.61602,-1.17892 -3.404,-1.39093 0.16591,-0.16592 8.96435,2.55787 8.96435,2.77515 0,0.0918 -0.92342,0.38334 -2.05204,0.64779 -1.12862,0.26445 -2.73381,0.69724 -3.56709,0.96175 -2.19343,0.69626 -3.38335,0.88696 -3.38335,0.54221 z m 7.26785,-7.4633 c -0.33765,-0.3731 -0.52642,-1.07253 -0.59959,-2.22161 -0.0915,-1.43766 -0.0271,-1.75682 0.45177,-2.23564 0.72123,-0.72123 1.45539,-0.70858 2.15953,0.0372 0.47729,0.50551 0.54728,0.84416 0.46208,2.23563 -0.10562,1.72503 -0.66977,2.72897 -1.5335,2.72897 -0.24611,0 -0.66924,-0.24505 -0.94029,-0.54455 z m 9.53203,0 c -0.33638,-0.3717 -0.52467,-1.06504 -0.59321,-2.18442 -0.0852,-1.39147 -0.0152,-1.73012 0.46208,-2.23563 0.30937,-0.32766 0.79151,-0.59575 1.07142,-0.59575 0.27991,0 0.76205,0.26809 1.07142,0.59575 0.47729,0.50551 0.54728,0.84416 0.46208,2.23563 -0.10562,1.72503 -0.66977,2.72897 -1.5335,2.72897 -0.24611,0 -0.66924,-0.24505 -0.94029,-0.54455 z"
         id="path1299" />
      <path
         style="fill:#df7c97;stroke-width:0.264779"
         d="m 131.02432,127.00337 c -3.16688,-0.66299 -6.7127,-2.31377 -8.56615,-3.98804 l -1.11818,-1.01009 2.03294,1.05258 c 3.25998,1.68789 5.50658,2.17606 10.01449,2.17606 3.05843,0 4.25049,-0.11168 5.86104,-0.54912 2.11653,-0.57485 5.05695,-1.94686 6.51275,-3.03887 l 0.85593,-0.64203 -3.56991,-0.89769 c -1.96345,-0.49373 -3.5699,-0.96472 -3.5699,-1.04664 0,-0.0819 1.87661,-0.72509 4.17026,-1.42925 2.29364,-0.70417 4.3192,-1.33689 4.50124,-1.40605 0.18203,-0.0692 0.33097,-0.0182 0.33097,0.11332 0,0.13149 -1.57874,0.7326 -3.50832,1.3358 l -3.50831,1.09671 3.59769,0.0165 3.5977,0.0164 2.49221,-2.94336 c 2.72162,-3.21429 3.08147,-3.26497 2.22335,-0.31313 -1.52222,5.23624 -5.51329,9.0739 -11.3814,10.94391 -1.50049,0.47817 -2.60979,0.60661 -5.82513,0.67447 -2.18442,0.0461 -4.4989,-0.0265 -5.14327,-0.16144 z m 16.66114,-7.00894 0.62187,-0.66195 -3.1573,0.0295 -3.15731,0.0295 2.38301,0.61335 c 1.31066,0.33735 2.4516,0.62195 2.53544,0.63246 0.0838,0.0105 0.43227,-0.27877 0.77429,-0.64284 z m -13.14564,3.5863 c -0.84935,-0.35766 -1.01823,-0.80482 -0.3075,-0.81418 0.59155,-0.008 0.59421,-0.0179 0.0818,-0.31175 -0.81351,-0.46655 -1.17385,-1.05866 -1.18308,-1.94405 -0.0124,-1.18579 0.41095,-1.44305 2.37459,-1.44305 1.96363,0 2.38695,0.25726 2.37458,1.44305 -0.009,0.88539 -0.36957,1.4775 -1.18308,1.94405 -0.50535,0.28982 -0.49972,0.30407 0.12293,0.31175 0.57561,0.007 0.60639,0.0542 0.26124,0.39931 -0.50627,0.50627 -1.81654,0.72015 -2.5415,0.41487 z m -12.00833,-2.34247 c 0,-0.15082 1.4596,-0.62863 3.24354,-1.06181 l 3.24354,-0.78759 -3.7731,-0.0282 c -2.32008,-0.0173 -3.77309,-0.13015 -3.77309,-0.29297 0,-0.16422 1.53343,-0.27102 4.03787,-0.2812 l 4.03788,-0.0165 -3.50832,-1.09672 c -1.92957,-0.60318 -3.50832,-1.20429 -3.50832,-1.33578 0,-0.13149 0.14894,-0.18248 0.33098,-0.11332 0.18203,0.0692 2.20759,0.70188 4.50123,1.40605 2.29365,0.70416 4.17006,1.34544 4.16981,1.42506 -2.5e-4,0.0796 -1.75772,0.59492 -3.90549,1.14513 -2.14776,0.55021 -4.17311,1.0705 -4.50078,1.15619 -0.33461,0.0875 -0.59575,0.0356 -0.59575,-0.1184 z m 7.31712,-8.27968 c -0.53954,-0.42441 -0.69765,-0.78163 -0.69765,-1.57622 0,-1.87609 0.85243,-2.91038 2.07805,-2.52139 1.18115,0.37489 1.50812,3.11088 0.48648,4.07067 -0.75942,0.71343 -0.98991,0.71676 -1.86688,0.0269 z m 9.48429,-0.10114 c -1.03878,-1.03878 -0.74897,-3.61612 0.44939,-3.99647 1.22561,-0.38899 2.07804,0.6453 2.07804,2.52139 0,0.79459 -0.15811,1.15181 -0.69765,1.57622 -0.88674,0.6975 -1.03958,0.68906 -1.82978,-0.10114 z"
         id="path1297" />
      <path
         style="fill:#b5919c;stroke-width:0.264779"
         d="m 131.02432,127.00337 c -3.16688,-0.66299 -6.7127,-2.31377 -8.56615,-3.98804 l -1.11818,-1.01009 2.03294,1.05258 c 3.25998,1.68789 5.50658,2.17606 10.01449,2.17606 3.05959,0 4.2503,-0.11163 5.86313,-0.54965 2.17346,-0.59028 4.84593,-1.82408 6.27256,-2.89585 0.72532,-0.5449 1.06743,-0.63352 1.91965,-0.49724 1.15436,0.18459 1.43325,-0.21313 0.34158,-0.48713 l -0.69546,-0.17455 0.60922,-0.64849 c 0.33508,-0.35667 0.88634,-0.64849 1.22502,-0.64849 0.6772,0 0.84825,-0.43992 0.22409,-0.57634 -0.26271,-0.0574 0.41305,-1.03223 2.05204,-2.96018 2.67235,-3.1435 3.02803,-3.1843 2.17487,-0.24953 -1.52222,5.23625 -5.51329,9.07391 -11.3814,10.94391 -1.50049,0.47817 -2.60979,0.60661 -5.82513,0.67448 -2.18442,0.0461 -4.4989,-0.0266 -5.14327,-0.16145 z m 3.5155,-3.42264 c -1.26752,-0.53375 -0.9273,-0.80612 1.00694,-0.80612 1.69891,0 1.87971,0.0461 1.53456,0.39125 -0.50627,0.50627 -1.81654,0.72015 -2.5415,0.41487 z m -4.69121,-10.62215 c -0.53954,-0.42441 -0.69765,-0.78163 -0.69765,-1.57622 0,-1.87609 0.85243,-2.91038 2.07805,-2.52139 1.18115,0.37489 1.50812,3.11088 0.48648,4.07067 -0.75942,0.71343 -0.98991,0.71676 -1.86688,0.0269 z m 9.48429,-0.10114 c -1.03878,-1.03878 -0.74897,-3.61612 0.44939,-3.99647 1.22561,-0.38899 2.07804,0.6453 2.07804,2.52139 0,0.79459 -0.15811,1.15181 -0.69765,1.57622 -0.88674,0.6975 -1.03958,0.68906 -1.82978,-0.10114 z"
         id="path1295" />
      <path
         style="fill:#060506;stroke-width:0.264779"
         d="m 129.56314,112.6541 c -0.64441,-0.92002 -0.52962,-2.49551 0.23773,-3.26285 0.35745,-0.35745 0.77989,-0.64991 0.93876,-0.64991 0.15887,0 0.58131,0.29246 0.93876,0.64991 1.2692,1.2692 0.63981,3.85132 -0.93876,3.85132 -0.48965,0 -0.91242,-0.21146 -1.17649,-0.58847 z m 9.53203,0 c -0.6444,-0.92002 -0.52961,-2.49551 0.23773,-3.26285 0.35745,-0.35745 0.77989,-0.64991 0.93876,-0.64991 0.15887,0 0.58131,0.29246 0.93876,0.64991 1.2692,1.2692 0.63981,3.85132 -0.93876,3.85132 -0.48965,0 -0.91242,-0.21146 -1.17649,-0.58847 z"
         id="path1293" />
    </g>
  </g>
</svg>
