<?xml version="1.0" encoding="UTF-8" standalone="no"?>
<svg
   xmlns:dc="http://purl.org/dc/elements/1.1/"
   xmlns:cc="http://creativecommons.org/ns#"
   xmlns:rdf="http://www.w3.org/1999/02/22-rdf-syntax-ns#"
   xmlns:svg="http://www.w3.org/2000/svg"
   xmlns="http://www.w3.org/2000/svg"
   xmlns:sodipodi="http://sodipodi.sourceforge.net/DTD/sodipodi-0.dtd"
   xmlns:inkscape="http://www.inkscape.org/namespaces/inkscape"
   width="210mm"
   height="297mm"
   viewBox="0 0 210 297"
   version="1.1"
   id="svg8"
   inkscape:version="1.0.2-2 (e86c870879, 2021-01-15)"
   sodipodi:docname="a4.svg">
  <defs
     id="defs2">
    <pattern
       id="EMFhbasepattern"
       patternUnits="userSpaceOnUse"
       width="6"
       height="6"
       x="0"
       y="0" />
    <pattern
       id="EMFhbasepattern-7"
       patternUnits="userSpaceOnUse"
       width="6"
       height="6"
       x="0"
       y="0" />
    <pattern
       id="EMFhbasepattern-3"
       patternUnits="userSpaceOnUse"
       width="6"
       height="6"
       x="0"
       y="0" />
    <pattern
       id="EMFhbasepattern-8"
       patternUnits="userSpaceOnUse"
       width="6"
       height="6"
       x="0"
       y="0" />
    <pattern
       id="EMFhbasepattern-9"
       patternUnits="userSpaceOnUse"
       width="6"
       height="6"
       x="0"
       y="0" />
    <pattern
       id="EMFhbasepattern-30"
       patternUnits="userSpaceOnUse"
       width="6"
       height="6"
       x="0"
       y="0" />
    <pattern
       id="EMFhbasepattern-4"
       patternUnits="userSpaceOnUse"
       width="6"
       height="6"
       x="0"
       y="0" />
    <pattern
       id="EMFhbasepattern-1"
       patternUnits="userSpaceOnUse"
       width="6"
       height="6"
       x="0"
       y="0" />
    <pattern
       id="EMFhbasepattern-73"
       patternUnits="userSpaceOnUse"
       width="6"
       height="6"
       x="0"
       y="0" />
    <pattern
       id="EMFhbasepattern-8-4"
       patternUnits="userSpaceOnUse"
       width="6"
       height="6"
       x="0"
       y="0" />
    <pattern
       id="EMFhbasepattern-9-4"
       patternUnits="userSpaceOnUse"
       width="6"
       height="6"
       x="0"
       y="0" />
    <pattern
       id="EMFhbasepattern-0"
       patternUnits="userSpaceOnUse"
       width="6"
       height="6"
       x="0"
       y="0" />
    <pattern
       id="EMFhbasepattern-8-44"
       patternUnits="userSpaceOnUse"
       width="6"
       height="6"
       x="0"
       y="0" />
    <pattern
       id="EMFhbasepattern-9-9"
       patternUnits="userSpaceOnUse"
       width="6"
       height="6"
       x="0"
       y="0" />
    <pattern
       id="EMFhbasepattern-1-8"
       patternUnits="userSpaceOnUse"
       width="6"
       height="6"
       x="0"
       y="0" />
    <pattern
       id="EMFhbasepattern-45"
       patternUnits="userSpaceOnUse"
       width="6"
       height="6"
       x="0"
       y="0" />
    <pattern
       id="EMFhbasepattern-8-47"
       patternUnits="userSpaceOnUse"
       width="6"
       height="6"
       x="0"
       y="0" />
    <pattern
       id="EMFhbasepattern-9-0"
       patternUnits="userSpaceOnUse"
       width="6"
       height="6"
       x="0"
       y="0" />
    <pattern
       id="EMFhbasepattern-1-80"
       patternUnits="userSpaceOnUse"
       width="6"
       height="6"
       x="0"
       y="0" />
    <pattern
       id="EMFhbasepattern-3-0"
       patternUnits="userSpaceOnUse"
       width="6"
       height="6"
       x="0"
       y="0" />
    <pattern
       id="EMFhbasepattern-85"
       patternUnits="userSpaceOnUse"
       width="6"
       height="6"
       x="0"
       y="0" />
    <pattern
       id="EMFhbasepattern-8-0"
       patternUnits="userSpaceOnUse"
       width="6"
       height="6"
       x="0"
       y="0" />
    <pattern
       id="EMFhbasepattern-9-6"
       patternUnits="userSpaceOnUse"
       width="6"
       height="6"
       x="0"
       y="0" />
    <pattern
       id="EMFhbasepattern-1-9"
       patternUnits="userSpaceOnUse"
       width="6"
       height="6"
       x="0"
       y="0" />
    <pattern
       id="EMFhbasepattern-3-8"
       patternUnits="userSpaceOnUse"
       width="6"
       height="6"
       x="0"
       y="0" />
    <pattern
       id="EMFhbasepattern-4-8"
       patternUnits="userSpaceOnUse"
       width="6"
       height="6"
       x="0"
       y="0" />
    <pattern
       id="EMFhbasepattern-35"
       patternUnits="userSpaceOnUse"
       width="6"
       height="6"
       x="0"
       y="0" />
    <pattern
       id="EMFhbasepattern-8-8"
       patternUnits="userSpaceOnUse"
       width="6"
       height="6"
       x="0"
       y="0" />
    <pattern
       id="EMFhbasepattern-9-08"
       patternUnits="userSpaceOnUse"
       width="6"
       height="6"
       x="0"
       y="0" />
    <pattern
       id="EMFhbasepattern-1-2"
       patternUnits="userSpaceOnUse"
       width="6"
       height="6"
       x="0"
       y="0" />
  </defs>
  <sodipodi:namedview
     id="base"
     pagecolor="#ffffff"
     bordercolor="#666666"
     borderopacity="1.0"
     inkscape:pageopacity="0.0"
     inkscape:pageshadow="2"
     inkscape:zoom="0.98994949"
     inkscape:cx="407.95419"
     inkscape:cy="383.04576"
     inkscape:document-units="mm"
     inkscape:current-layer="layer2"
     inkscape:document-rotation="0"
     showgrid="false"
     inkscape:window-width="1920"
     inkscape:window-height="1017"
     inkscape:window-x="-8"
     inkscape:window-y="-8"
     inkscape:window-maximized="1" />
  <metadata
     id="metadata5">
    <rdf:RDF>
      <cc:Work
         rdf:about="">
        <dc:format>image/svg+xml</dc:format>
        <dc:type
           rdf:resource="http://purl.org/dc/dcmitype/StillImage" />
        <dc:title></dc:title>
      </cc:Work>
    </rdf:RDF>
  </metadata>
  <g
     inkscape:groupmode="layer"
     id="layer4"
     inkscape:label="Warstwa 3"
     style="display:inline">
    <g
       id="g978"
       transform="translate(-0.23034879,-0.2545802)" />
    <g
       id="g1191"
       transform="translate(-76.311058,-75.560668)">
      <path
         style="fill:#c0ebc0;stroke-width:0.264638"
         d="m 112.14043,88.461496 c -0.0809,-0.327489 -0.59775,-2.91763 -1.14867,-5.755869 -0.70232,-3.618278 -0.9143,-5.214078 -0.70935,-5.339939 0.43953,-0.269919 5.77218,-1.236431 8.47856,-1.536692 9.88353,-1.096535 21.1087,1.210736 29.83826,6.133083 2.79647,1.576847 6.18749,3.957052 8.00493,5.618765 l 1.58783,1.451777 -22.95228,0.01215 -22.95228,0.01216 z"
         id="path1205" />
      <path
         style="fill:#ace4ac;stroke-width:0.264638"
         d="m 76.40773,121.41591 c -0.492887,-6.57419 0.915257,-13.90768 3.851959,-20.06067 1.942695,-4.070346 4.547088,-7.618663 8.449234,-11.511537 5.628328,-5.614956 10.966457,-8.91831 18.619767,-11.52233 1.82898,-0.622305 2.62436,-0.788765 2.69813,-0.564673 0.0575,0.174772 0.53311,2.580419 1.05685,5.345883 0.52373,2.765464 1.01438,5.235866 1.09033,5.489782 0.12977,0.433852 1.52811,0.465828 23.21036,0.530748 l 23.07226,0.06908 -23.42119,0.06469 -23.4212,0.06469 -17.332248,17.333767 c -9.53274,9.53357 -17.410797,17.33376 -17.506793,17.33376 -0.096,0 -0.261353,-1.15794 -0.367459,-2.57319 z"
         id="path1203" />
      <path
         style="fill:#9ce19c;stroke-width:0.264638"
         d="m 79.13485,133.18811 c -0.95592,-2.43708 -2.317912,-7.45254 -2.318614,-8.53816 -2.25e-4,-0.34873 5.951643,-6.4815 17.400332,-17.92921 L 111.61724,89.321569 h 23.46292 23.46293 l 2.03312,2.183261 c 5.03528,5.407108 8.748,12.78317 10.09024,20.0463 0.88993,4.81559 0.56467,12.78679 -0.70431,17.26085 l -0.27956,0.98562 -11.53623,-11.63729 -11.53623,-11.63729 h -2.4925 -2.4925 l -0.41141,-0.98465 c -0.49856,-1.19323 -0.2394,-1.73878 0.85169,-1.79285 0.42768,-0.0212 1.07532,-0.20454 1.43919,-0.40744 0.36388,-0.20291 0.72114,-0.37736 0.79392,-0.38767 0.87307,-0.12375 1.83101,-1.47531 1.99034,-2.80819 0.028,-0.234549 0.1327,-0.752059 0.23258,-1.150024 0.10876,-0.433322 0.0551,-0.876021 -0.1338,-1.103614 -0.2409,-0.290274 -0.2436,-0.619715 -0.0114,-1.394737 0.58341,-1.947248 0.18029,-3.317434 -1.32419,-4.500863 -0.76739,-0.603627 -2.93762,-1.21606 -3.51887,-0.993013 -0.21635,0.08302 -0.46178,0.04026 -0.54539,-0.09503 -0.18564,-0.300374 -2.62359,-0.1369 -4.01124,0.26897 -1.58533,0.463691 -2.51929,1.126268 -3.48741,2.474064 -0.92477,1.28743 -0.94413,1.401768 -0.88069,5.200552 0.009,0.509428 0.005,1.242245 -0.009,1.628475 -0.0458,1.34036 1.39765,2.57718 3.95794,3.39134 0.9124,0.29014 1.12471,0.47783 1.12471,0.99429 0,0.35015 -0.12327,0.86698 -0.27394,1.14851 -0.25984,0.48551 -0.62115,0.51188 -7.0129,0.51188 -3.70643,0 -6.73895,-0.0655 -6.73895,-0.14546 0,-0.08 0.18741,-0.50788 0.41647,-0.95083 0.22905,-0.44295 0.35996,-0.86187 0.29089,-0.93093 -0.0691,-0.0691 -0.0105,-0.54247 0.13023,-1.05201 0.18137,-0.65686 0.16563,-1.03509 -0.0541,-1.29982 -0.23106,-0.2784 -0.23549,-0.58677 -0.0174,-1.2123 0.63932,-1.833957 0.15788,-3.529598 -1.33575,-4.704485 -0.76739,-0.603628 -2.93762,-1.21606 -3.51887,-0.993013 -0.21635,0.08302 -0.46191,0.04004 -0.54569,-0.09552 -0.19134,-0.309592 -3.27213,-0.08707 -3.69896,0.267168 -0.17394,0.144354 -0.3803,0.198406 -0.45859,0.120118 -0.0783,-0.07829 -0.63372,0.113774 -1.23428,0.426806 -2.18794,1.140417 -3.68938,4.303576 -2.99215,6.303676 0.19475,0.55865 0.19042,1.07271 -0.0147,1.74088 -0.25486,0.83041 -0.21858,1.0461 0.29218,1.73693 l 0.58318,0.78879 -1.26495,-0.003 -1.26496,-0.003 -14.422751,14.59601 -14.422754,14.59601 z"
         id="path1201" />
      <path
         style="fill:#93de93;stroke-width:0.264638"
         d="m 162.55483,122.73208 -3.56893,-3.63877 3.63877,3.56893 c 2.00132,1.96291 3.63877,3.60036 3.63877,3.63877 0,0.18973 -0.3933,-0.18875 -3.70861,-3.56893 z m -60.86667,-8.86537 c 3.31531,-3.38018 3.7086,-3.75866 3.7086,-3.56893 0,0.0384 -1.63744,1.67586 -3.63876,3.63877 l -3.638772,3.56893 z m 8.88605,-8.58931 c -0.14361,-0.37716 -0.11321,-0.40756 0.14815,-0.14814 0.18086,0.17951 0.26217,0.39305 0.18069,0.47453 -0.0815,0.0815 -0.22946,-0.0654 -0.32884,-0.32639 z m 13.89736,-2.61368 c 0.0127,-0.30829 0.0754,-0.371 0.15989,-0.15989 0.0764,0.19104 0.067,0.41929 -0.0209,0.50723 -0.0879,0.0879 -0.15049,-0.0684 -0.139,-0.34734 z m 8.44221,-1.0429 c -0.18412,-0.22184 -0.2835,-0.4546 -0.22087,-0.51724 0.0626,-0.0626 0.25925,0.11887 0.43691,0.40336 0.38421,0.61521 0.25608,0.68275 -0.21604,0.11388 z m 13.52272,-3.191304 c 0.0127,-0.308288 0.0754,-0.370996 0.15988,-0.159886 0.0764,0.191035 0.067,0.419285 -0.0209,0.507222 -0.0879,0.08794 -0.15048,-0.06836 -0.13899,-0.347336 z m -9.86211,-7.171624 c 0.19104,-0.07645 0.41929,-0.06704 0.50723,0.02089 0.0879,0.08794 -0.0684,0.150483 -0.34734,0.138993 -0.30829,-0.0127 -0.371,-0.07541 -0.15989,-0.159886 z"
         id="path1199" />
      <path
         style="fill:#86d986;stroke-width:0.264638"
         d="m 85.548937,130.20809 c 2.981128,-2.98379 5.479775,-5.42507 5.552551,-5.42507 0.07277,0 -2.306786,2.44128 -5.287913,5.42507 -2.981127,2.98379 -5.479775,5.42507 -5.55255,5.42507 -0.07278,0 2.306785,-2.44128 5.287912,-5.42507 z m 67.083593,-17.39993 -6.34924,-6.41746 6.41746,6.34924 c 5.96332,5.89991 6.53677,6.48569 6.34924,6.48569 -0.0375,0 -2.92538,-2.88786 -6.41746,-6.41747 z m -45.51562,-4.43268 c 1.01105,-1.01885 1.89781,-1.85246 1.97059,-1.85246 0.0728,0 -0.6949,0.83361 -1.70595,1.85246 -1.01105,1.01886 -1.89781,1.85247 -1.97059,1.85247 -0.0728,0 0.6949,-0.83361 1.70595,-1.85247 z m 30.43334,-4.2342 c -0.09,-0.14555 -0.0375,-0.26464 0.1167,-0.26464 0.15414,0 0.28025,0.11909 0.28025,0.26464 0,0.14555 -0.0525,0.26464 -0.1167,0.26464 -0.0642,0 -0.1903,-0.11909 -0.28025,-0.26464 z m 5.61913,-0.82675 c 0.17952,-0.18086 0.39306,-0.26217 0.47453,-0.18069 0.0815,0.0815 -0.0654,0.22945 -0.32638,0.32883 -0.37716,0.14361 -0.40756,0.11322 -0.14815,-0.14814 z m -31.95059,-5.095196 c 0,-0.05495 0.20841,-0.263355 0.46312,-0.463115 0.41973,-0.329176 0.42909,-0.319815 0.0999,0.09991 -0.34572,0.440819 -0.56304,0.581006 -0.56304,0.3632 z m 6.22086,-3.072705 c -0.0927,-0.150013 0.0135,-0.194378 0.24902,-0.104006 0.45847,0.175929 0.54235,0.365612 0.16169,0.365612 -0.13696,0 -0.32178,-0.117723 -0.41071,-0.261606 z m 2.18139,0.08634 c 0.18194,-0.07341 0.47966,-0.07341 0.6616,0 0.18193,0.07341 0.0331,0.133479 -0.3308,0.133479 -0.36388,0 -0.51274,-0.06006 -0.3308,-0.133479 z m 13.56268,-1.247839 c 0,-0.05495 0.20841,-0.263356 0.46312,-0.463116 0.41973,-0.329175 0.42909,-0.319815 0.0999,0.09992 -0.34572,0.44082 -0.56304,0.581006 -0.56304,0.363201 z m 11.34567,-2.215665 c -0.32918,-0.41973 -0.31982,-0.42909 0.0999,-0.09992 0.44082,0.345714 0.58101,0.563031 0.3632,0.563031 -0.055,0 -0.26335,-0.208402 -0.46311,-0.463116 z"
         id="path1197" />
      <path
         style="fill:#77d377;stroke-width:0.264638"
         d="m 167.71185,128.15715 -1.84537,-1.91863 1.91862,1.84537 c 1.05525,1.01495 1.91863,1.87833 1.91863,1.91862 0,0.19412 -0.27791,-0.0633 -1.99188,-1.84536 z m -73.032912,-7.07906 c 2.03381,-2.03771 3.757382,-3.70493 3.830157,-3.70493 0.07277,0 -1.53171,1.66722 -3.565519,3.70493 -2.033811,2.03771 -3.757381,3.70493 -3.830156,3.70493 -0.07278,0 1.531708,-1.66722 3.565518,-3.70493 z m 15.021832,-14.48033 c 0.40226,-0.0608 0.9977,-0.0592 1.32318,0.004 0.32549,0.0628 -0.004,0.11258 -0.73139,0.11059 -0.72775,-0.002 -0.99406,-0.0534 -0.59179,-0.11421 z m 13.69102,-0.009 c -1.9e-4,-0.10916 2.05406,-0.1679 4.565,-0.13053 8.5434,0.12715 9.34221,0.21906 2.38208,0.27409 -3.82071,0.0302 -6.9469,-0.0344 -6.94708,-0.14356 z m 19.2616,0.003 c 0.76902,-0.0536 1.95989,-0.0531 2.64638,0.001 0.68648,0.0543 0.0573,0.0982 -1.39822,0.0975 -1.45551,-8e-4 -2.01718,-0.0451 -1.24816,-0.0988 z m -32.17692,-5.4943 c 0.005,-0.43666 0.0647,-0.58325 0.1318,-0.32577 0.0671,0.25749 0.0627,0.61475 -0.01,0.79392 -0.0725,0.17917 -0.12738,-0.0315 -0.12199,-0.46815 z m 13.59427,-0.2099 c 0.0994,-0.26099 0.24735,-0.40786 0.32883,-0.32638 0.0815,0.0815 1.7e-4,0.29501 -0.18069,0.47453 -0.26136,0.25941 -0.29176,0.22901 -0.14814,-0.14815 z m 22.10112,-1.664621 c 0.0127,-0.308288 0.0754,-0.370996 0.15989,-0.159886 0.0764,0.191036 0.067,0.419286 -0.0209,0.507223 -0.0879,0.08794 -0.15049,-0.06837 -0.139,-0.347337 z m -21.70029,-0.529276 c 0.0127,-0.308288 0.0754,-0.370995 0.15989,-0.159885 0.0764,0.191035 0.067,0.419285 -0.0209,0.507222 -0.0879,0.08794 -0.15049,-0.06837 -0.139,-0.347337 z m 7.96983,-1.83041 c 0.005,-0.436653 0.0647,-0.583245 0.1318,-0.325761 0.0671,0.257484 0.0627,0.614745 -0.01,0.793913 -0.0725,0.179168 -0.12737,-0.0315 -0.12198,-0.468152 z m -11.29869,-1.19087 c -0.43147,-0.185408 -0.44658,-0.230875 -0.0818,-0.246038 0.24612,-0.01023 0.5211,0.100487 0.61105,0.246038 0.18807,0.304301 0.17887,0.304301 -0.52927,0 z M 146.4365,94.45995 c 0.0127,-0.308287 0.0754,-0.370995 0.15988,-0.159885 0.0764,0.191035 0.067,0.419285 -0.0209,0.507222 -0.0879,0.08794 -0.15048,-0.06837 -0.13899,-0.347337 z m -3.04897,-2.9966 c -0.0816,-0.131977 0.09,-0.177631 0.38134,-0.101454 0.61792,0.161591 0.69603,0.341412 0.1483,0.341412 -0.20974,0 -0.44808,-0.107981 -0.52964,-0.239958 z m -3.98295,-0.550924 c -0.0927,-0.150013 0.0135,-0.194378 0.24902,-0.104006 0.45847,0.175929 0.54235,0.365612 0.16168,0.365612 -0.13696,0 -0.32177,-0.117723 -0.4107,-0.261606 z"
         id="path1195" />
      <path
         style="fill:#6fd16f;stroke-width:0.264638"
         d="m 118.23169,161.29623 c -6.4521,-0.72775 -13.3879,-2.86856 -18.656954,-5.75867 -7.55475,-4.14382 -14.40004,-10.84828 -18.500225,-18.1196 l -0.858894,-1.52317 14.36851,-14.55357 14.368513,-14.55356 h 1.2654 c 1.3696,0 1.49955,-0.19053 0.82849,-1.2147 -0.36272,-0.55358 -0.3863,-0.83169 -0.13884,-1.63797 0.19368,-0.63108 0.20767,-1.06155 0.0399,-1.22928 -0.43727,-0.43727 -0.30251,-3.012091 0.19889,-3.800336 0.25135,-0.395144 0.53124,-0.777987 0.62198,-0.850762 0.0907,-0.07278 0.30123,-0.391217 0.46778,-0.707648 0.30977,-0.588565 1.40618,-1.258081 2.81976,-1.721868 1.08175,-0.354915 3.79587,-0.497915 3.97418,-0.20939 0.0796,0.128728 0.32359,0.165386 0.5423,0.08146 0.54925,-0.210769 2.75808,0.426258 3.52844,1.017607 1.01363,0.778079 1.41019,1.783363 1.23379,3.127663 -0.15825,1.205914 -0.18301,1.898254 -0.10647,2.977174 0.0648,0.91282 -0.24159,2.75766 -0.55522,3.34369 -0.15451,0.28871 -0.28093,0.59229 -0.28093,0.67464 0,0.0823 3.08168,0.14972 6.84818,0.14972 7.62781,0 7.37805,0.0603 7.63321,-1.84209 0.13053,-0.97319 0.0903,-1.06893 -0.44907,-1.06893 -0.85764,0 -3.97609,-1.54997 -3.97609,-1.97625 0,-0.19876 -0.1309,-0.40501 -0.29089,-0.45834 -0.37576,-0.12526 -0.52082,-1.836446 -0.19038,-2.245814 0.16281,-0.2017 0.15222,-0.50287 -0.0296,-0.842674 -0.3556,-0.664439 -0.37061,-3.125152 -0.0217,-3.551933 0.14373,-0.175795 0.64985,-0.845277 1.12472,-1.487739 0.69754,-0.943736 1.18908,-1.284912 2.559,-1.776187 0.9326,-0.334441 1.78775,-0.551142 1.90034,-0.481557 0.11259,0.06959 0.28308,-2.91e-4 0.37888,-0.155287 0.12316,-0.199282 0.27368,-0.199209 0.51401,2.49e-4 0.18692,0.15513 0.52788,0.209903 0.75768,0.121719 0.22981,-0.08818 0.56907,-0.06686 0.75392,0.04738 0.18486,0.114245 0.77388,0.176109 1.30894,0.137477 0.53507,-0.03863 1.05153,0.05708 1.14771,0.212689 0.0962,0.155611 0.37623,0.287212 0.62236,0.292447 0.57998,0.01234 1.6915,0.989791 2.14042,1.882269 0.22677,0.450821 0.29375,1.111802 0.18772,1.852464 -0.0907,0.633351 -0.16315,1.389721 -0.16108,1.680822 0.0129,1.807595 -0.008,2.45443 -0.0966,3.043335 -0.055,0.36387 -0.13001,0.69137 -0.16678,0.72776 -0.0368,0.0364 -0.092,0.15547 -0.12279,0.26463 -0.19284,0.68427 -0.51019,1.1247 -0.81039,1.1247 -0.19063,0 -0.38629,0.0893 -0.43481,0.19849 -0.19002,0.42757 -1.89833,1.1247 -2.75603,1.1247 -0.85527,0 -0.90479,0.05 -0.90479,0.91378 0,0.50258 0.13821,1.2171 0.30712,1.58783 0.2984,0.65492 0.38,0.67405 2.8762,0.67405 h 2.56909 l 11.44099,11.54333 c 10.87307,10.97033 11.43314,11.58262 11.28274,12.33462 -0.087,0.43521 -0.70629,2.08963 -1.3761,3.6765 -3.47268,8.22721 -11.23825,16.4587 -20.01505,21.2159 -4.45373,2.41401 -10.00771,4.31954 -15.28875,5.24546 -3.49352,0.61251 -11.06703,0.87126 -14.42276,0.49276 z"
         id="path1193" />
    </g>
    <path
       style="fill:#f4eed7;fill-rule:evenodd;stroke:none;stroke-width:0.257637"
       id="path1216"
       sodipodi:type="arc"
       sodipodi:cx="42.656609"
       sodipodi:cy="75.23407"
       sodipodi:rx="10.022607"
       sodipodi:ry="9.4880695"
       sodipodi:start="0"
       sodipodi:end="6.2686642"
       sodipodi:open="true"
       sodipodi:arc-type="arc"
       d="m 52.679215,75.23407 a 10.022607,9.4880695 0 0 1 -9.986222,9.488007 10.022607,9.4880695 0 0 1 -10.058727,-9.419119 10.022607,9.4880695 0 0 1 9.91319,-9.556395 10.022607,9.4880695 0 0 1 10.130703,9.349734" />
  </g>
  <g
     inkscape:groupmode="layer"
     id="layer2"
     inkscape:label="Warstwa 2">
    <path
       style="fill:#ff6600;stroke-width:0.0813169"
       d="m 41.860565,85.337159 c -3.92943,-0.42082 -7.145171,-2.94545 -8.444641,-6.62977 -0.728434,-2.0653 -0.716536,-4.49024 0.03223,-6.56835 0.981737,-2.72471 3.248808,-4.991803 5.972915,-5.972993 1.558166,-0.56123 3.586556,-0.72768 5.145306,-0.42223 5.70363,1.1177 9.22508,6.730543 7.73978,12.336443 -0.24977,0.94268 -1.01541,2.51836 -1.59779,3.28823 -0.98097,1.29677 -2.10834,2.22543 -3.60287,2.96782 -1.64443,0.81686 -3.5563,1.18169 -5.24493,1.00085 z m 2.69023,-2.46948 c 1.46472,-0.34718 3.0724,-1.35159 4.05659,-2.5344 0.63245,-0.7601 1.3244,-2.14017 1.56027,-3.11195 0.23392,-0.96372 0.25053,-2.40802 0.0382,-3.32513 -0.63342,-2.73647 -2.57495,-4.851193 -5.21959,-5.685233 -3.90825,-1.23254 -8.195362,1.00767 -9.463207,4.944963 -0.958791,2.97752 0.02962,6.26906 2.468434,8.22037 1.198969,0.95929 2.401393,1.45896 4.072333,1.69226 0.47763,0.0667 1.81323,-0.0412 2.48694,-0.20088 z m -2.08035,-2.24752 c -0.29136,-0.0773 -0.62585,-0.36782 -0.74105,-0.64353 -0.0827,-0.19805 -0.11278,-0.68194 -0.11278,-1.81754 v -1.54763 l -1.56534,-1.7e-4 c -1.328436,-8e-5 -1.608008,-0.0216 -1.847191,-0.1423 -0.781397,-0.39418 -0.783782,-1.56601 -0.004,-1.98294 0.248257,-0.1327 0.477311,-0.15146 1.849951,-0.15146 h 1.56662 v -1.56662 c 0,-1.37264 0.0187,-1.60169 0.1515,-1.84995 0.41693,-0.77975 1.58875,-0.77736 1.98293,0.004 0.12066,0.23918 0.1422,0.51875 0.14231,1.84719 l 1.6e-4,1.56534 h 1.54763 c 1.72923,0 1.96284,0.0506 2.27781,0.49289 0.24893,0.34959 0.26158,0.95563 0.0266,1.27607 -0.33408,0.45565 -0.56824,0.50764 -2.28673,0.50778 l -1.56534,1.7e-4 -3.1e-4,1.60601 c -2.4e-4,1.44842 -0.0158,1.6315 -0.15875,1.86586 -0.0872,0.14293 -0.24253,0.31403 -0.34529,0.38024 -0.2165,0.13948 -0.68338,0.21906 -0.9187,0.1566 z"
       id="path852-9" />
    <path
       style="fill:#ff55dd;stroke-width:0.0470029"
       d="M 62.653231,81.867641 C 60.841142,81.694865 59.028351,81.090847 57.488338,80.14671 55.939937,79.19743 54.448321,77.705815 53.499041,76.157414 51.335765,72.628823 51.14821,68.218389 53.003798,64.51155 c 0.976283,-1.950285 2.618832,-3.738539 4.48454,-4.882351 3.528591,-2.163276 7.939024,-2.350831 11.645863,-0.495243 1.950287,0.976283 3.738541,2.618832 4.882354,4.484539 2.163277,3.528593 2.350831,7.939026 0.495243,11.645866 -0.976284,1.950283 -2.618833,3.738539 -4.48454,4.882349 -2.184143,1.339034 -4.851227,1.96147 -7.374027,1.720931 z m 7.810782,-9.234343 c 0.07299,-0.05408 0.18216,-0.170411 0.242613,-0.258515 0.09176,-0.133724 0.106786,-0.204944 0.09096,-0.431085 -0.02017,-0.288241 -0.106887,-0.447832 -0.336486,-0.619252 -0.12965,-0.0968 -0.13744,-0.09691 -6.703306,-0.09691 -6.565862,0 -6.573653,9.4e-5 -6.703302,0.09691 -0.206686,0.154312 -0.308646,0.322821 -0.334587,0.552963 -0.03123,0.277096 0.0054,0.412947 0.161382,0.598309 0.247293,0.293891 -0.187715,0.277193 6.931822,0.266082 l 6.518204,-0.01017 z m 0.03559,-4.737408 c 0.441775,-0.336973 0.410607,-0.965611 -0.06372,-1.285263 l -0.158592,-0.106875 h -6.519494 -6.519491 l -0.158591,0.106875 c -0.237555,0.160086 -0.372342,0.388193 -0.372342,0.630128 0,0.354156 0.134381,0.576899 0.446632,0.740313 0.126343,0.06612 0.814015,0.07253 6.654461,0.06201 l 6.513559,-0.01173 z"
       id="path846" />
    <g
       id="g198"
       transform="matrix(0.24609244,0,0,0.24577538,-2.5157454,39.245339)">
      <path
         style="fill:#a5a0f7;stroke-width:0.264562"
         d="m 99.749682,146.77806 c -9.270267,-1.05634 -20.755999,-5.12015 -25.143017,-8.89593 -1.02164,-0.8793 -3.103511,-3.05906 -4.626383,-4.8439 C 62.569568,124.35266 58.221614,115.1704 56.197413,103.93075 55.391352,99.454992 55.320423,90.044922 56.057822,85.411377 58.076066,72.729473 63.792616,61.473183 72.778379,52.487418 83.344072,41.921726 96.969503,35.96457 112.21044,35.247383 c 9.19452,-0.432663 19.78277,1.861239 28.75482,6.22962 3.04957,1.484799 3.41552,1.750887 6.28086,4.566847 9.37971,9.218085 15.32623,21.308366 17.07344,34.713185 0.5436,4.170552 0.40318,12.633502 -0.27476,16.559654 -2.20472,12.768271 -7.63229,23.379381 -16.50413,32.266251 -9.06549,9.08083 -19.85098,14.63788 -32.44636,16.71745 -3.64902,0.60248 -11.97485,0.86166 -15.344628,0.47767 z m 13.095848,-13.07523 c 4.90447,-0.52508 8.2518,-1.42512 11.89774,-3.19911 4.6883,-2.28116 7.3824,-4.31641 10.21504,-7.71687 1.50203,-1.80314 3.89356,-5.80117 4.55343,-7.61219 0.70569,-1.9368 1.61074,-6.05102 1.90197,-8.64614 0.67752,-6.03718 -0.67209,-13.374174 -3.22742,-17.545549 -2.43274,-3.971255 -5.15292,-6.508494 -9.19391,-8.575606 -5.34802,-2.735693 -10.73753,-3.813102 -18.9909,-3.796432 l -5.35739,0.01082 v -5.26172 -5.26172 h 16.74085 c 14.72359,0 16.81171,-0.04963 17.32884,-0.411844 0.58662,-0.410881 0.588,-0.431501 0.588,-8.809931 0,-6.179096 -0.0839,-8.481972 -0.31748,-8.715562 -0.46067,-0.460669 -55.785317,-0.460669 -56.245986,0 -0.24221,0.242209 -0.317475,5.947648 -0.317475,24.06588 0,23.208581 0.01164,23.754628 0.511732,24.022275 0.836198,0.447518 2.362403,0.319888 6.391227,-0.534477 5.811494,-1.232401 10.904522,-1.66617 15.301162,-1.303187 4.1709,0.344349 6.44834,0.843711 8.49611,1.862906 3.7975,1.890053 5.45868,5.312207 4.76448,9.815197 -0.91152,5.91261 -4.95069,8.66592 -13.39446,9.13033 -3.63163,0.19974 -6.29998,-0.16816 -10.234836,-1.41113 -3.456295,-1.09179 -6.317607,-2.34369 -9.409078,-4.1167 -1.943215,-1.11447 -2.386777,-1.26376 -3.755013,-1.26376 -2.470857,0 -2.3752,-0.41673 -2.3752,10.3475 0,8.34405 0.04177,9.22227 0.462985,9.73418 0.946742,1.15057 10.016035,3.85113 15.675328,4.66763 6.291664,0.90773 12.676354,1.09413 17.990254,0.52521 z"
         id="path212" />
      <path
         style="fill:#9dd3ae;stroke-width:0.264562"
         d="m 81.627151,118.63731 v -7.25214 l 3.817507,1.89474 c 2.099629,1.04211 3.825899,1.9799 3.836156,2.08398 0.02105,0.21359 -7.367446,10.52555 -7.541533,10.52555 -0.06167,0 -0.11213,-3.26346 -0.11213,-7.25213 z M 85.066463,72.050971 V 50.489127 h 25.561687 25.56168 l -0.64207,0.859828 c -0.35314,0.472906 -2.41438,3.330181 -4.58054,6.3495 l -3.93847,5.489672 h -12.23169 c -10.76695,0 -12.28146,0.04978 -12.64742,0.415741 -0.35805,0.358049 -0.41574,1.438488 -0.41574,7.785697 0,6.453901 0.0535,7.423457 0.43043,7.800384 0.37921,0.379211 1.03243,0.411458 5.48967,0.271007 2.78259,-0.08768 5.602,-0.06453 6.26537,0.05145 l 1.20612,0.210875 -4.27452,5.922396 -4.27454,5.922395 -4.33934,-0.04406 c -4.789752,-0.04863 -9.134644,0.39941 -13.932157,1.436665 -1.658931,0.358672 -3.066239,0.65213 -3.127353,0.65213 -0.06111,0 -0.111117,-9.702829 -0.111117,-21.561843 z"
         id="path210" />
      <path
         style="fill:#80cecf;stroke-width:0.264562"
         d="m 98.42687,132.74753 c -5.281737,-0.5374 -11.930703,-2.09219 -16.574052,-3.87566 l -1.945323,-0.74718 v -9.3852 -9.38521 l 1.094796,-0.0799 c 0.917358,-0.067 1.512835,0.1556 3.674117,1.37319 7.381723,4.15858 15.004795,6.13514 21.029502,5.45265 6.18565,-0.70072 9.21237,-2.10507 11.40304,-5.29084 1.38975,-2.02104 1.91851,-4.13079 1.76828,-7.05537 -0.15918,-3.09841 -0.846,-4.665355 -2.86376,-6.533439 -2.5954,-2.402886 -6.34435,-3.521842 -12.71673,-3.795583 -4.242733,-0.182257 -8.042845,0.172524 -13.53838,1.263948 -2.148509,0.426699 -4.500454,0.775816 -5.226546,0.775816 H 83.21165 l 0.06758,-23.347641 0.06758,-23.34764 h 27.5145 27.5145 v 8.069156 8.069156 l -17.39499,0.06804 -17.39498,0.06804 1.4e-4,6.281457 1.4e-4,6.281457 6.28322,0.0057 c 8.83332,0.008 13.10793,0.818972 18.45309,3.500837 6.80688,3.415258 10.59028,8.77389 11.9256,16.890852 0.61792,3.756124 0.4005,9.033334 -0.53847,13.069774 -1.89667,8.15334 -7.29918,14.81269 -14.95872,18.4387 -5.77687,2.73476 -8.70325,3.30525 -17.46113,3.40404 -3.56498,0.0402 -7.553253,-0.0359 -8.862837,-0.16915 z m 15.1372,-1.05963 c 7.78086,-0.91386 15.36862,-4.79215 19.75354,-10.0965 3.94794,-4.77575 5.90531,-10.20966 6.17289,-17.13672 0.17686,-4.578504 -0.28665,-7.871897 -1.5985,-11.357889 -1.76448,-4.68882 -5.1947,-8.539983 -9.60897,-10.78815 -5.69833,-2.902134 -9.11832,-3.575824 -18.61225,-3.66635 l -7.01091,-0.06685 -0.0706,-6.933632 c -0.0498,-4.893388 0.0181,-7.040498 0.23082,-7.296814 0.24984,-0.30104 3.23833,-0.363184 17.46558,-0.363184 h 17.16417 V 56.838627 49.695439 H 110.86131 84.272776 v 22.522428 22.522428 l 0.859828,-0.15997 c 0.472906,-0.08798 2.583929,-0.517685 4.691167,-0.954896 9.777619,-2.02866 19.634389,-1.584526 24.694939,1.112721 1.96894,1.049432 4.1252,3.409178 4.81492,5.26929 0.69431,1.87252 0.7223,6.54467 0.052,8.68544 -1.34867,4.30743 -5.02414,7.05779 -10.78708,8.07198 -2.58793,0.45544 -7.81408,0.51347 -10.303982,0.11441 -3.315915,-0.53143 -8.35364,-2.32565 -12.631486,-4.4988 -2.273862,-1.15512 -4.290748,-2.10022 -4.481966,-2.10022 -0.280045,0 -0.347673,1.6698 -0.347673,8.58431 v 8.5843 l 3.240891,1.05258 c 9.946092,3.2303 19.930746,4.30917 29.489716,3.18646 z"
         id="path208" />
      <path
         style="fill:#93cd96;stroke-width:0.264562"
         d="m 74.748526,138.32388 c -0.363773,-0.28455 -0.53104,-0.52001 -0.371708,-0.52324 0.159336,-0.003 0.505182,0.23222 0.768552,0.52324 0.603245,0.66658 0.455328,0.66658 -0.396844,0 z m 26.456254,-7.31308 c -3.348979,-0.2034 -9.333811,-1.19809 -12.516337,-2.08024 -4.792994,-1.32854 -6.929011,-2.11047 -6.929011,-2.53651 0,-0.20478 1.726271,-2.78472 3.836156,-5.73319 2.632863,-3.67931 3.960636,-5.32361 4.233,-5.24211 0.218265,0.0653 1.89989,0.59409 3.736948,1.17507 3.985227,1.26035 7.751164,1.76792 11.277804,1.52003 8.04654,-0.56562 12.40947,-2.83359 14.81511,-7.70132 1.04273,-2.10991 1.52621,-5.65912 1.12436,-8.25378 -0.92037,-5.942675 -5.43135,-9.391789 -13.67444,-10.455542 -0.50758,-0.0655 -0.0779,-0.769134 3.51886,-5.762706 2.25337,-3.128452 4.25688,-5.849712 4.45224,-6.047245 0.2991,-0.302438 0.78789,-0.287228 3.0952,0.09631 10.44113,1.735607 17.23775,7.092005 19.53437,15.39499 1.85574,6.709063 0.98887,15.288043 -2.14216,21.199933 -1.84377,3.48131 -4.31233,6.33072 -7.39239,8.53285 -5.88032,4.20422 -11.14933,5.75379 -20.09109,5.90859 -2.83743,0.0491 -5.93281,0.0423 -6.87862,-0.0151 z m 26.09767,-68.153376 c 0.52308,-0.857323 8.87711,-12.368297 8.97622,-12.368297 0.0621,0 0.11292,2.857275 0.11292,6.3495 v 6.3495 h -4.64546 c -3.6476,0 -4.60211,-0.07104 -4.44368,-0.330703 z m 14.38039,-21.09886 c -0.23845,-0.154097 -0.27108,-0.258077 -0.0818,-0.260511 0.1733,-0.0022 0.38867,0.115002 0.4786,0.260511 0.203,0.328461 0.11141,0.328461 -0.39684,0 z"
         id="path206" />
      <path
         style="fill:#5e56db;stroke-width:0.264562"
         d="m 72.712932,137.02343 c -2.1625,-1.42302 -4.049343,-2.9542 -4.049343,-3.28607 0,-0.18501 -0.429059,-0.74665 -0.953463,-1.2481 -1.770411,-1.69291 -4.766595,-5.39304 -6.629603,-8.1872 -4.8558,-7.28277 -7.681911,-14.43027 -9.257782,-23.41378 -0.892554,-5.088142 -0.999059,-12.743811 -0.244758,-17.593403 2.069492,-13.305295 7.677079,-24.498935 16.849728,-33.634755 6.03808,-6.013836 13.212414,-10.660497 20.824983,-13.487889 14.766656,-5.484501 30.909966,-4.975265 45.154676,1.424391 2.46013,1.10525 7.07076,3.661155 6.90443,3.827476 -0.0726,0.07259 -0.94147,-0.249523 -1.93083,-0.715816 -7.80129,-3.676785 -18.66863,-5.860971 -27.17053,-5.460901 -15.240937,0.717187 -28.866368,6.674343 -39.432061,17.240035 -8.985763,8.985765 -14.702313,20.242055 -16.720557,32.923959 -0.737399,4.633545 -0.66647,14.043615 0.139591,18.519373 2.255535,12.52416 7.268525,22.28971 16.531088,32.20337 1.69079,1.80964 1.687285,2.00985 -0.01558,0.88931 z M 142.47653,41.999488 c -0.56981,-0.466073 -0.58101,-0.501702 -0.0809,-0.257257 0.31929,0.156058 0.65371,0.402154 0.74316,0.546881 0.23879,0.386367 0.0784,0.316235 -0.66228,-0.289624 z"
         id="path204" />
      <path
         style="fill:#4439e6;stroke-width:0.264562"
         d="M 65.401605,131.16204 C 55.877103,122.13618 49.820914,110.85591 47.443665,97.713533 46.66434,93.405114 46.590268,83.309775 47.306813,79.061877 49.323401,67.106922 54.309652,56.746144 62.209924,48.095156 76.564322,32.376746 98.346456,25.659311 119.19834,30.52039 c 5.46943,1.275057 10.88807,3.402531 15.80795,6.206546 2.98502,1.701267 7.06358,4.468216 6.87066,4.66114 -0.0623,0.06231 -1.25344,-0.53241 -2.64697,-1.321594 -9.15311,-5.183612 -18.70805,-7.663124 -29.42692,-7.636304 -15.638946,0.03913 -30.205741,6.105185 -41.375349,17.229944 -9.172649,9.13582 -14.780236,20.32946 -16.849728,33.634755 -0.754301,4.849592 -0.647796,12.505261 0.244758,17.593403 1.575871,8.98351 4.401982,16.13101 9.257782,23.41378 1.863008,2.79416 4.859192,6.49429 6.629603,8.1872 0.935047,0.89412 1.176286,1.33705 0.728206,1.33705 -0.123892,0 -1.490419,-1.19892 -3.036727,-2.66427 z"
         id="path202" />
      <path
         style="fill:#0ea1a1;stroke-width:0.264562"
         d="m 100.80793,133.81481 c -1.600601,-0.10903 -4.279296,-0.39577 -5.952654,-0.63719 -5.659293,-0.8165 -14.728586,-3.51706 -15.675328,-4.66763 -0.421213,-0.51191 -0.462985,-1.39013 -0.462985,-9.73418 0,-10.76423 -0.09566,-10.3475 2.3752,-10.3475 1.368236,0 1.811798,0.14929 3.755013,1.26376 4.586011,2.63016 10.349174,4.75851 14.547334,5.37236 2.53289,0.37036 7.17018,0.18202 9.82303,-0.39896 3.72838,-0.81652 6.51167,-2.78126 7.83787,-5.5328 0.79447,-1.64833 1.18727,-4.65708 0.85457,-6.54585 -0.36222,-2.05636 -0.92269,-3.182613 -2.23869,-4.498616 -2.19266,-2.192662 -5.20168,-3.194203 -11.04633,-3.676736 -4.39664,-0.362983 -9.489668,0.07079 -15.301162,1.303187 -4.028824,0.854365 -5.555029,0.981995 -6.391227,0.534477 -0.5001,-0.267647 -0.511732,-0.813694 -0.511732,-24.022275 0,-18.118232 0.07527,-23.823671 0.317475,-24.06588 0.460669,-0.460669 55.785316,-0.460669 56.245986,0 0.23359,0.23359 0.31748,2.536466 0.31748,8.715562 0,8.37843 -0.001,8.39905 -0.588,8.809931 -0.51713,0.362218 -2.60525,0.411844 -17.32884,0.411844 h -16.74085 v 5.26172 5.26172 l 5.35739,-0.01082 c 8.25337,-0.01667 13.64288,1.060739 18.9909,3.796432 6.07208,3.106083 9.83279,7.854303 11.61749,14.668086 1.3114,5.006768 1.25088,11.314198 -0.16111,16.792178 -0.85349,3.31123 -0.99682,3.67851 -2.55374,6.54409 -2.95571,5.44009 -6.86201,9.03163 -13.15175,12.092 -6.14475,2.98982 -13.57095,4.01712 -23.93534,3.31109 z m 15.77649,-1.54166 c 12.01048,-2.43554 20.5898,-10.30035 23.12514,-21.19921 1.73237,-7.44707 0.88627,-15.922224 -2.12617,-21.297282 -2.11694,-3.777238 -5.11807,-6.584701 -9.26096,-8.66334 -5.34516,-2.681864 -9.61977,-3.492822 -18.45309,-3.500836 l -6.28322,-0.0057 -1.4e-4,-6.281457 -1.4e-4,-6.281457 17.39498,-0.06804 17.39499,-0.06804 v -8.069156 -8.069156 h -27.5145 -27.514503 l -0.06758,23.34764 -0.06758,23.347641 h 1.320164 c 0.726092,0 3.078037,-0.349117 5.226546,-0.775816 9.518049,-1.890305 17.597833,-1.736356 23.031343,0.43883 2.21528,0.886834 4.53022,3.002625 5.35895,4.897919 0.8321,1.90301 1.01818,5.4415 0.40475,7.69676 -0.85368,3.13848 -3.41221,5.91108 -6.48135,7.02362 -7.99401,2.89779 -17.501653,1.4754 -27.395645,-4.0985 -2.161282,-1.21759 -2.756759,-1.44015 -3.674117,-1.37319 l -1.094796,0.0799 v 9.38521 9.3852 l 1.945323,0.74718 c 4.643349,1.78347 11.292315,3.33826 16.574052,3.87566 1.309584,0.13325 5.297863,0.20936 8.862843,0.16915 5.38845,-0.0608 6.95626,-0.16933 9.29471,-0.64353 z m -14.58596,-0.311 c -6.832357,-0.47149 -11.487964,-1.37038 -17.924106,-3.46071 l -3.240891,-1.05258 v -8.5843 c 0,-6.91451 0.06763,-8.58431 0.347673,-8.58431 0.191218,0 2.208104,0.9451 4.481966,2.10022 4.277846,2.17315 9.315571,3.96737 12.631487,4.4988 2.489901,0.39906 7.716051,0.34103 10.303981,-0.11441 5.76294,-1.01419 9.43841,-3.76455 10.78708,-8.07198 0.67028,-2.14077 0.64229,-6.81292 -0.052,-8.68544 -0.68972,-1.860112 -2.84598,-4.219858 -4.81492,-5.26929 -5.06055,-2.697247 -14.91732,-3.141381 -24.694939,-1.112721 -2.107238,0.437211 -4.218261,0.866913 -4.691167,0.954896 l -0.859828,0.15997 V 72.217867 49.695439 h 26.588534 26.58853 v 7.143188 7.143187 h -17.16417 c -14.22725,0 -17.21574,0.06214 -17.46558,0.363184 -0.21273,0.256316 -0.28064,2.403426 -0.23082,7.296814 l 0.0706,6.933632 7.01091,0.06685 c 9.49393,0.09053 12.91392,0.764216 18.61225,3.66635 4.41427,2.248167 7.84449,6.09933 9.60897,10.78815 1.31185,3.485992 1.77536,6.779385 1.5985,11.357886 -0.43754,11.32701 -5.62481,19.37293 -15.62725,24.23926 -5.70511,2.77561 -13.06386,3.87555 -21.86479,3.26821 z m 13.87148,-1.55961 c 4.85239,-0.9863 8.45792,-2.53499 12.30455,-5.2852 3.08006,-2.20213 5.54862,-5.05154 7.39239,-8.53285 3.13103,-5.91189 3.9979,-14.49087 2.14216,-21.199932 -1.85199,-6.695511 -6.76732,-11.600484 -14.14873,-14.118936 -4.04133,-1.378852 -7.10863,-1.75606 -14.49438,-1.78249 -5.75777,-0.02061 -6.86122,-0.08632 -7.073,-0.421255 -0.14233,-0.225087 -0.25268,-3.566141 -0.25498,-7.719555 -0.003,-6.307893 0.0536,-7.380329 0.41169,-7.738454 0.36928,-0.369276 2.30605,-0.415741 17.32885,-0.415741 h 16.9131 v -6.3495 -6.3495 H 110.72903 85.066463 v 21.561844 c 0,11.859014 0.05,21.561843 0.111117,21.561843 0.06111,0 1.478708,-0.295682 3.150214,-0.657072 5.330104,-1.152403 9.544947,-1.541931 14.861196,-1.373442 5.27428,0.167158 7.66701,0.575709 10.6697,1.821812 3.76202,1.561225 6.30873,4.781208 6.92412,8.754638 0.40185,2.59466 -0.0816,6.14387 -1.12436,8.25378 -2.00146,4.04989 -5.36186,6.26821 -11.06457,7.30414 -2.40962,0.43772 -8.803402,0.44772 -10.96056,0.0171 -3.315368,-0.66175 -8.528178,-2.55122 -12.240117,-4.43662 l -3.773978,-1.91692 0.0701,7.69315 0.0701,7.69316 1.851938,0.63501 c 5.430764,1.86216 12.41328,3.29459 17.593407,3.60921 4.17204,0.25339 12.02932,-0.0725 14.66516,-0.60827 z"
         id="path200" />
    </g>
    <g
       id="g169"
       transform="matrix(0.24579726,0,0,0.24582035,-0.74248932,8.7220261)">
      <path
         style="fill:#c5b9f2;stroke-width:0.264562"
         d="m 96.647662,132.62332 c -0.09701,-0.097 -0.176376,-4.38208 -0.176376,-9.52239 v -9.34601 l -17.791828,-0.068 -17.791828,-0.068 -0.06988,-8.07775 -0.06988,-8.077743 17.65905,-23.735894 17.659047,-23.735891 h 10.652873 10.65288 V 73.92917 97.866709 l 5.48968,0.07151 5.48967,0.07151 v 7.804591 7.80459 l -5.48967,0.0715 -5.48968,0.0715 v 9.51888 9.51888 h -10.27384 c -5.65061,0 -10.35321,-0.0794 -10.450215,-0.17637 z m 19.728658,-10.2077 0.0694,-9.59039 5.48967,-0.0715 5.48967,-0.0715 v -6.86789 -6.86789 l -5.48967,-0.07151 -5.48967,-0.07151 -0.0676,-23.876765 -0.0675,-23.876766 -9.85355,0.0095 -9.853542,0.0095 -17.527266,23.584888 -17.527266,23.584889 v 7.227124 7.22712 h 17.990251 17.990249 v 9.65653 9.65653 h 9.388674 9.38866 l 0.0695,-9.59039 z M 75.967693,98.671132 c -0.08993,-0.145509 -0.07245,-0.413379 0.03886,-0.595266 1.193103,-1.949775 20.865171,-27.977484 21.145729,-27.977484 0.32202,0 0.377258,2.111137 0.377258,14.418656 V 98.935694 H 86.83037 c -6.847399,0 -10.758032,-0.09524 -10.862677,-0.264562 z m 20.503593,-13.5456 c 0,-7.013552 -0.099,-12.638812 -0.220002,-12.500578 -0.585074,0.668399 -18.563935,24.987859 -18.563935,25.110875 0,0.07789 4.226386,0.141615 9.391969,0.141615 h 9.391968 z"
         id="path183" />
      <path
         style="fill:#b0acf7;stroke-width:0.264562"
         d="m 62.668961,104.90379 0.07061,-6.730911 17.196562,-23.150367 17.196563,-23.150364 9.193544,-0.01429 9.19355,-0.01429 -0.004,10.251797 -0.004,10.251797 -8.39539,9.350525 -8.395379,9.350525 -0.132282,-10.594228 c -0.09139,-7.319463 -0.224105,-10.68597 -0.429342,-10.89103 -0.163386,-0.16324 -0.692434,-0.258369 -1.175668,-0.211391 -0.827012,0.0804 -1.496763,0.91659 -11.405131,14.239506 -10.536291,14.167223 -11.06048,14.978803 -10.218446,15.820837 0.232241,0.232241 2.364869,0.317475 7.943367,0.317475 h 7.625893 l -5.345105,5.952659 -5.345104,5.95265 h -8.819948 -8.819947 z"
         id="path181" />
      <path
         style="fill:#f05094;stroke-width:0.264562"
         d="m 86.814755,146.54778 c -6.46986,-0.73363 -14.342973,-3.04351 -20.371312,-5.9767 -2.797979,-1.3614 -3.469264,-1.82787 -5.656384,-3.93051 -9.292926,-8.93399 -15.096688,-19.96371 -17.403866,-33.07503 -0.60747,-3.45216 -0.697994,-4.691227 -0.695825,-9.524252 0.0027,-6.047629 0.461461,-9.794675 1.846235,-15.080062 5.424114,-20.702685 21.903464,-36.99376 42.677996,-42.190407 13.662901,-3.417707 27.698391,-1.897897 40.740571,4.411523 3.52048,1.703104 3.61343,1.770965 6.76287,4.937361 9.07806,9.126937 14.66744,20.350805 16.68412,33.502929 0.68868,4.491337 0.6236,12.4972 -0.13864,17.055249 -1.08115,6.465039 -2.57342,11.296519 -5.15076,16.676469 -8.31071,17.34783 -24.51569,29.44588 -43.8181,32.71297 -3.513256,0.59465 -12.114961,0.86168 -15.476905,0.48046 z m 31.203375,-13.27783 c 0.3533,-0.50441 0.41184,-1.87698 0.41184,-9.65653 v -9.06854 h 5.10606 c 3.61863,0 5.19854,-0.0925 5.42353,-0.31747 0.45381,-0.45381 0.45381,-16.372369 0,-16.826178 -0.22499,-0.224992 -1.8049,-0.317475 -5.42353,-0.317475 h -5.10606 V 73.537694 c 0,-23.193312 -0.008,-23.553989 -0.52912,-24.075187 -0.51162,-0.511623 -0.88188,-0.529125 -11.19334,-0.529125 -8.12902,0 -10.764944,0.07862 -11.087924,0.330703 -0.353321,0.275764 -24.562888,32.676559 -33.327843,44.604206 l -2.594644,3.530877 v 8.157112 c 0,7.06281 0.05577,8.21289 0.415741,8.57286 0.369602,0.3696 2.366173,0.41574 17.99025,0.41574 h 17.574509 v 9.17272 c 0,8.16404 0.04815,9.22592 0.437848,9.65653 0.410204,0.45327 1.102438,0.48381 10.964343,0.48381 h 10.52649 z M 79.472074,96.753054 c 0.144176,-0.181887 3.745494,-5.033302 8.002923,-10.780922 4.257433,-5.74762 7.844694,-10.563319 7.971694,-10.701553 0.131829,-0.143491 0.230908,4.482437 0.230908,10.780922 v 11.032256 h -8.233831 c -6.550498,0 -8.18024,-0.06761 -7.971694,-0.330703 z"
         id="path179" />
      <path
         style="fill:#665ded;stroke-width:0.264562"
         d="m 98.587786,121.87092 c 0,-7.4184 -0.06856,-9.17068 -0.37525,-9.59039 -0.354794,-0.48556 -0.851801,-0.52076 -9.117966,-0.64584 l -8.742719,-0.13228 5.289421,-5.88651 5.289422,-5.886518 h 3.554675 c 3.243637,0 3.578639,-0.04478 3.828548,-0.511733 0.150724,-0.281634 0.278224,-2.214724 0.283552,-4.29914 l 0.0097,-3.787408 8.390171,-9.33322 8.39018,-9.33322 0.0686,13.277527 c 0.0479,9.268629 0.15752,13.384661 0.36309,13.63236 0.2282,0.27496 1.47828,0.354834 5.55334,0.354834 h 5.25886 v 5.952658 5.95265 h -5.11796 c -4.62221,0 -5.16038,0.0469 -5.55582,0.48382 -0.3897,0.43061 -0.43784,1.49249 -0.43784,9.65653 v 9.17272 h -8.466 -8.466 z"
         id="path177" />
      <path
         style="fill:#d72f77;stroke-width:0.264562"
         d="m 59.82938,136.74312 c -3.295321,-2.21879 -8.500893,-7.97601 -11.948702,-13.21494 -4.444258,-6.75303 -7.335595,-14.09553 -8.857049,-22.49231 -0.807147,-4.454583 -0.883198,-14.415462 -0.144302,-18.899894 3.553707,-21.56776 17.917836,-38.99534 38.278897,-46.44267 14.196291,-5.192484 30.018036,-4.656155 43.981546,1.490896 2.74078,1.206552 7.98372,4.054041 7.80098,4.236782 -0.06,0.06002 -1.11016,-0.352609 -2.33363,-0.91696 -21.63765,-9.980807 -46.949074,-6.175964 -64.530816,9.700347 -10.151261,9.166586 -16.475946,20.881094 -18.81115,34.841792 -0.880742,5.265405 -0.830626,13.128258 0.118039,18.519377 2.22017,12.61687 7.386258,22.79333 16.150224,31.81364 1.307711,1.34596 2.266435,2.44395 2.130498,2.43997 -0.135938,-0.004 -0.961479,-0.48819 -1.834535,-1.07603 z"
         id="path175" />
      <path
         style="fill:#b72b67;stroke-width:0.264562"
         d="m 55.993224,133.95089 c -3.403398,-2.81288 -5.462016,-4.82585 -7.916203,-7.74071 C 40.796919,117.56357 36.42118,108.0722 34.527109,96.819194 33.68725,91.829448 33.681218,83.992495 34.513263,78.828944 c 3.09688,-19.218796 14.80867,-35.251256 32.094769,-43.935053 13.992312,-7.029139 30.942569,-8.082999 45.958638,-2.857418 3.13359,1.090487 9.17461,4.076202 12.19763,6.02856 2.359,1.523507 6.36467,4.462769 6.36467,4.67023 0,0.160882 -1.97843,-1.046352 -2.07137,-1.263947 -0.1511,-0.353754 -5.2314,-3.104487 -7.91783,-4.287114 C 99.694597,27.743557 74.841725,31.795879 57.501445,47.560589 47.5992,56.5631 41.106756,68.617515 38.879327,82.135976 c -0.738896,4.484432 -0.662845,14.445311 0.144302,18.899894 2.242256,12.37484 7.554807,22.72059 16.276788,31.69768 1.307711,1.34597 2.325962,2.44108 2.262779,2.43358 -0.06318,-0.007 -0.76967,-0.5548 -1.569972,-1.21624 z"
         id="path173" />
      <path
         style="fill:#3905f8;stroke-width:0.264562"
         d="m 96.115447,133.37413 c -0.3897,-0.43061 -0.437848,-1.49249 -0.437848,-9.65653 v -9.17272 H 78.10309 c -15.624077,0 -17.620648,-0.0461 -17.99025,-0.41574 -0.359969,-0.35997 -0.415741,-1.51005 -0.415741,-8.57286 v -8.157112 l 2.594644,-3.530877 C 71.056698,81.940644 95.266265,49.539849 95.619586,49.264085 95.942566,49.012 98.57849,48.933382 106.70751,48.933382 c 10.31146,0 10.68172,0.0175 11.19334,0.529125 0.5212,0.521198 0.52912,0.881875 0.52912,24.075187 v 23.546063 h 5.10606 c 3.61863,0 5.19854,0.09248 5.42353,0.317475 0.45381,0.453809 0.45381,16.372368 0,16.826178 -0.22499,0.22499 -1.8049,0.31747 -5.42353,0.31747 h -5.10606 v 9.06854 c 0,7.77955 -0.0585,9.15212 -0.41184,9.65653 l -0.41185,0.58799 h -10.52649 c -9.861905,0 -10.554139,-0.0305 -10.964343,-0.48381 z m 21.256273,-10.09332 v -9.51888 l 5.48968,-0.0715 5.48967,-0.0715 v -7.80459 -7.804594 l -5.48967,-0.07151 -5.48968,-0.07151 V 73.92917 49.991632 H 106.71884 96.065964 l -17.659047,23.735891 -17.65905,23.735894 0.06988,8.077743 0.06988,8.07775 17.791828,0.068 17.791828,0.068 v 9.34601 c 0,5.14031 0.07937,9.42538 0.176376,9.52239 0.09701,0.097 4.799611,0.17637 10.450221,0.17637 h 10.27384 z m -19.842184,-0.93133 v -9.65654 H 79.539287 61.549036 v -7.22712 -7.227121 L 79.076302,74.65381 96.603568,51.068923 l 9.853542,-0.0095 9.85355,-0.0095 0.0675,23.876766 0.0676,23.876765 5.48967,0.07151 5.48967,0.07151 v 6.867886 6.86789 l -5.48967,0.0715 -5.48967,0.0715 -0.0694,9.59039 -0.0695,9.59039 h -9.38866 -9.388674 v -9.65653 z m 17.990254,-0.57444 c 0,-8.16404 0.0481,-9.22592 0.43784,-9.65653 0.39544,-0.43695 0.93361,-0.48382 5.55582,-0.48382 h 5.11796 v -5.95265 -5.952658 h -5.23834 c -3.72151,0 -5.33026,-0.09193 -5.55581,-0.317475 -0.24218,-0.242186 -0.31747,-5.920321 -0.31747,-23.942906 V 51.843569 l -9.19355,0.01429 -9.193547,0.01429 -17.196563,23.150365 -17.196562,23.150367 -0.07061,6.730909 -0.07061,6.73091 h 17.465591 c 17.112841,0 17.476276,0.0107 17.994715,0.52912 0.508677,0.50868 0.529125,0.88188 0.529125,9.65654 v 9.1274 h 8.466001 8.466 v -9.17271 z M 75.359199,99.411907 C 74.517165,98.569873 75.041354,97.758293 85.577645,83.59107 95.579729,70.142143 96.148981,69.432642 97.003597,69.350011 c 1.630745,-0.157676 1.584189,-0.601506 1.584189,15.102704 0,9.319159 -0.0948,14.43035 -0.273869,14.764934 -0.264137,0.493544 -0.67132,0.511733 -11.455557,0.511733 -8.344118,0 -11.262251,-0.08057 -11.499161,-0.317475 z M 97.529536,84.517038 c 0,-12.307519 -0.05524,-14.418656 -0.377258,-14.418656 -0.280558,0 -19.952626,26.027709 -21.145729,27.977484 -0.111301,0.181887 -0.128786,0.449757 -0.03886,0.595266 0.104645,0.169317 4.015278,0.264562 10.862677,0.264562 h 10.69917 z M 77.687349,97.735829 c 0,-0.123016 17.978861,-24.442476 18.563935,-25.110875 0.121001,-0.138234 0.220002,5.487026 0.220002,12.500578 v 12.751912 h -9.391968 c -5.165583,0 -9.391969,-0.06373 -9.391969,-0.141615 z m 17.99025,-11.684328 c 0,-6.298485 -0.09908,-10.924413 -0.230908,-10.780922 -0.127,0.138234 -3.714261,4.953933 -7.971694,10.701553 -4.257429,5.74762 -7.858747,10.599035 -8.002923,10.780922 -0.208546,0.263094 1.421196,0.330703 7.971694,0.330703 h 8.233831 z"
         id="path171" />
    </g>
  </g>
  <g
     inkscape:label="Warstwa 1"
     inkscape:groupmode="layer"
     id="layer1">
    <g
       id="g1291"
       transform="matrix(0.60727985,0,0,0.60727985,-4.2394895,-19.060849)">
      <path
         style="fill:#f0dbe7;stroke-width:0.264779"
         d="m 131.92493,127.29767 c -12.42753,-2.0009 -18.36179,-13.08896 -12.97795,-24.24907 0.63228,-1.31066 1.65294,-2.95458 2.26813,-3.653157 l 1.11852,-1.270149 -0.80684,-1.774807 c -1.00073,-2.201287 -1.753,-4.654929 -2.35058,-7.666768 -0.6781,-3.417631 -0.60959,-10.308191 0.14394,-14.477604 0.314,-1.737425 0.60569,-3.19374 0.64821,-3.236256 0.0425,-0.04252 1.32173,0.857457 2.84269,1.999942 3.26908,2.455588 6.58254,5.832491 7.50061,7.644209 0.70419,1.389647 1.51814,5.18266 2.03014,9.460433 l 0.31691,2.647786 h 2.73628 2.73628 l 0.16368,-1.456282 c 0.32222,-2.866909 1.17225,-7.83482 1.56507,-9.146843 0.53545,-1.788414 1.60652,-3.337182 3.77357,-5.456566 1.73083,-1.692769 6.98555,-5.851696 7.16578,-5.671468 0.31121,0.311214 1.15031,6.442105 1.28911,9.418952 0.25462,5.46055 -0.81798,11.521806 -2.79156,15.77512 l -0.7468,1.609462 1.30089,1.567882 c 3.48161,4.196134 5.06813,10.847024 3.78723,15.876494 -1.40038,5.4986 -5.8622,9.75709 -12.04993,11.50079 -2.20401,0.62108 -7.40572,0.9214 -9.66338,0.5579 z"
         id="path1305" />
      <path
         style="fill:#e9cbd7;stroke-width:0.264779"
         d="m 132.11459,127.27456 c -5.76508,-0.81028 -10.72589,-3.91995 -13.09226,-8.20686 -1.10904,-2.00913 -1.85578,-4.40808 -1.7374,-5.58151 l 0.0834,-0.82652 1.77897,2.01928 c 0.97843,1.1106 2.32612,2.49284 2.99486,3.07163 l 1.2159,1.05235 2.83026,-0.0148 2.83027,-0.0148 -3.16178,-0.99762 c -1.73898,-0.54869 -3.2085,-1.13779 -3.2656,-1.3091 -0.16361,-0.49081 0.33901,-0.3867 4.70632,0.97482 2.62257,0.81759 4.10407,1.40779 4.10407,1.63497 0,0.22245 -0.74329,0.53849 -1.98584,0.84436 -2.8815,0.70932 -2.89405,0.71618 -2.09006,1.14174 0.87572,0.46352 4.40412,1.44733 5.19082,1.44733 0.55101,0 0.58409,-0.087 0.43813,-1.15183 -0.0924,-0.67416 -0.0315,-1.38789 0.14677,-1.72106 0.27241,-0.50899 0.52685,-0.56924 2.40425,-0.56924 1.87739,0 2.13184,0.0602 2.40424,0.56924 0.18154,0.33921 0.23886,1.04923 0.14184,1.75703 l -0.16281,1.1878 1.1389,-0.1561 c 1.41403,-0.19382 5.57988,-1.4932 5.39142,-1.68166 -0.0762,-0.0761 -1.18944,-0.40262 -2.47399,-0.7255 -1.48549,-0.37339 -2.33553,-0.71636 -2.33553,-0.94234 0,-0.22689 1.48321,-0.81768 4.10406,-1.63474 4.36731,-1.36152 4.86993,-1.46563 4.70633,-0.97482 -0.0571,0.17131 -1.52663,0.76041 -3.26561,1.3091 l -3.16178,0.99762 2.91844,0.0148 c 2.89908,0.0147 2.92521,0.009 3.94182,-0.82877 3.67697,-3.03086 3.95085,-12.25069 0.53593,-18.040884 -1.24685,-2.114115 -1.13933,-2.342158 0.31335,-0.664589 2.56359,2.960443 4.34254,7.964163 4.33398,12.190273 -0.0148,7.28437 -5.02278,13.37109 -12.5948,15.30769 -2.35939,0.60343 -6.93004,0.85959 -9.32685,0.52272 z m -5.21425,-7.52634 1.32389,-0.36839 -1.98584,-0.0152 c -1.80126,-0.0139 -1.93806,0.0209 -1.47187,0.37349 0.61665,0.46641 0.49618,0.46584 2.13382,0.0101 z m 19.46123,-0.0186 c 0.61388,-0.35092 0.50812,-0.37719 -1.45628,-0.36179 l -2.11823,0.0166 1.1915,0.34518 c 1.54234,0.44682 1.60139,0.44682 2.38301,0 z m -16.5607,-5.8131 c -0.55298,-0.55297 -0.64991,-0.8996 -0.64991,-2.32409 0,-2.01291 0.46706,-2.85112 1.58867,-2.85112 1.12161,0 1.58867,0.83821 1.58867,2.85112 0,1.42449 -0.0969,1.77112 -0.64991,2.32409 -0.35745,0.35746 -0.77989,0.64992 -0.93876,0.64992 -0.15887,0 -0.58131,-0.29246 -0.93876,-0.64992 z m 9.53203,0 c -0.55298,-0.55297 -0.64991,-0.8996 -0.64991,-2.32409 0,-2.01291 0.46706,-2.85112 1.58867,-2.85112 1.12162,0 1.58867,0.83821 1.58867,2.85112 0,1.42449 -0.0969,1.77112 -0.64991,2.32409 -0.35745,0.35746 -0.77989,0.64992 -0.93876,0.64992 -0.15887,0 -0.58131,-0.29246 -0.93876,-0.64992 z M 125.30399,97.212706 c -1.39447,-0.688303 -3.1313,-4.567236 -3.8483,-8.594546 -0.60143,-3.378139 -0.19224,-11.591021 0.60195,-12.081858 0.47134,-0.291303 4.75976,3.514935 6.05514,5.374316 0.4228,0.606886 0.94486,1.779643 1.16014,2.606128 0.54168,2.07966 1.26692,8.55131 1.07444,9.587777 -0.21224,1.142886 -1.33371,2.424264 -2.64173,3.018416 -1.29271,0.587198 -1.38675,0.590712 -2.40164,0.08977 z m 18.15293,0.113338 c -1.13246,-0.451961 -2.30001,-1.494432 -2.76044,-2.464719 -0.3895,-0.820808 -0.40958,-1.286107 -0.16347,-3.788041 0.38525,-3.916512 1.00116,-7.123913 1.5856,-8.25718 0.26941,-0.52239 0.94245,-1.474776 1.49566,-2.116413 0.99717,-1.156579 4.71432,-4.261348 5.10184,-4.261348 0.22147,0 0.72501,3.052746 0.98266,5.957519 0.17964,2.025131 -0.21676,5.97203 -0.85096,8.472917 -0.22157,0.873769 -0.87958,2.581067 -1.46223,3.793995 -0.87749,1.826686 -1.21399,2.269925 -1.95991,2.581591 -1.03233,0.431335 -1.08696,0.433602 -1.96875,0.08168 z"
         id="path1303" />
      <path
         style="fill:#e1b5c3;stroke-width:0.264779"
         d="m 132.50799,127.2755 c -7.52373,-0.93449 -12.92779,-5.16873 -14.84537,-11.63178 -0.89316,-3.0103 -0.68308,-2.9918 2.44358,0.21518 l 2.87028,2.94403 3.02104,-0.0274 3.02105,-0.0274 -3.24354,-1.0482 c -1.78394,-0.57651 -3.24354,-1.15991 -3.24354,-1.29645 0,-0.13655 0.0923,-0.24826 0.20514,-0.24826 0.36728,0 8.57791,2.60488 8.74858,2.77554 0.27988,0.27989 -0.427,0.56767 -2.63063,1.07096 -1.16191,0.26538 -2.16773,0.57174 -2.23513,0.68081 -0.15303,0.2476 2.3649,1.20197 4.49935,1.70539 2.09232,0.49348 2.33127,0.48507 2.17719,-0.0766 -0.74857,-2.72876 -0.39788,-3.24354 2.20966,-3.24354 2.61384,0 2.9627,0.51854 2.20084,3.27132 -0.12241,0.44229 -0.0213,0.47324 1.01604,0.3112 1.36442,-0.21313 5.22749,-1.35522 5.76488,-1.70435 0.3914,-0.25429 0.41527,-0.24561 -3.24854,-1.1812 -1.59859,-0.40821 -1.95868,-0.58809 -1.69839,-0.84838 0.16089,-0.16089 8.38615,-2.76115 8.73418,-2.76115 0.11283,0 0.20514,0.11171 0.20514,0.24826 0,0.13654 -1.45959,0.71994 -3.24354,1.29645 l -3.24354,1.0482 3.04496,0.0262 3.04495,0.0262 0.86498,-0.81069 c 1.77313,-1.66184 2.96047,-5.17873 2.96972,-8.79625 0.007,-2.86544 -0.66342,-5.59569 -2.09508,-8.52795 l -1.29276,-2.647788 1.05072,1.177902 c 1.46872,1.646496 2.87414,4.266256 3.62766,6.762106 0.85891,2.84491 0.95731,7.72602 0.20023,9.93255 -1.56297,4.55534 -4.35286,7.63383 -8.76759,9.67456 -3.26299,1.50833 -8.17969,2.20154 -12.13252,1.71058 z m -5.34287,-7.52728 1.32389,-0.36839 -2.23503,-0.0237 c -2.01933,-0.0214 -2.18543,0.0138 -1.72106,0.36507 0.64045,0.48441 0.97597,0.48785 2.6322,0.027 z m 19.34443,-0.0101 c 0.46444,-0.35129 0.29709,-0.38706 -1.73665,-0.37118 l -2.25062,0.0176 1.1915,0.34518 c 1.60897,0.46612 2.18833,0.46786 2.79577,0.008 z m -16.45842,-5.63903 c -0.5774,-0.38554 -0.90017,-1.37732 -0.90017,-2.76599 0,-1.74174 0.52102,-2.59172 1.58867,-2.59172 1.06765,0 1.58867,0.84998 1.58867,2.59172 0,1.89363 -0.57251,2.96052 -1.58867,2.96052 -0.21844,0 -0.52827,-0.0875 -0.6885,-0.19453 z m 9.53203,0 c -0.5774,-0.38554 -0.90017,-1.37732 -0.90017,-2.76599 0,-1.74174 0.52102,-2.59172 1.58867,-2.59172 1.06765,0 1.58867,0.84998 1.58867,2.59172 0,1.89363 -0.57251,2.96052 -1.58867,2.96052 -0.21844,0 -0.52827,-0.0875 -0.6885,-0.19453 z M 124.74968,96.685547 c -0.7685,-0.768504 -1.9621,-3.291264 -2.56418,-5.4196 -1.05207,-3.719053 -1.2355,-9.411949 -0.42843,-13.296564 l 0.31453,-1.513914 1.16747,0.83841 c 1.87629,1.347454 4.77324,4.373322 5.37286,5.611968 0.75099,1.551357 1.80747,8.890117 1.631,11.329646 -0.0439,0.607189 -1.51757,2.258666 -2.44202,2.73672 -1.13964,0.58933 -2.28262,0.481947 -3.05123,-0.286666 z m 17.88425,0.06826 c -0.49136,-0.331129 -1.1771,-1.016244 -1.52386,-1.522478 -0.58986,-0.861144 -0.62014,-1.082428 -0.47011,-3.435821 0.24398,-3.827168 0.8967,-7.395643 1.6289,-8.905248 0.63799,-1.315375 3.68319,-4.506291 5.59557,-5.863323 l 0.84092,-0.596715 0.34803,1.526539 c 0.21932,0.961941 0.34099,3.191347 0.32897,6.027777 -0.0211,4.969917 -0.4268,7.129234 -1.95216,10.389036 -1.39457,2.980277 -2.84081,3.698006 -4.79626,2.380233 z"
         id="path1301" />
      <path
         style="fill:#caa8b5;stroke-width:0.264779"
         d="m 132.99025,127.24572 c -3.96067,-0.31805 -7.70591,-1.78108 -10.4961,-4.10015 -1.48936,-1.23789 -1.64037,-1.66008 -0.28853,-0.8067 1.25264,0.79076 3.64523,1.80028 5.48906,2.31603 0.88941,0.24879 2.75767,0.37032 5.69274,0.37032 2.93507,0 4.80332,-0.12153 5.69274,-0.37032 2.04013,-0.57066 4.32695,-1.57244 5.92918,-2.59738 l 1.45526,-0.93092 -1.04123,-0.35795 c -0.57268,-0.19688 -2.14482,-0.62401 -3.49364,-0.94918 -1.34882,-0.32517 -2.4524,-0.66469 -2.4524,-0.75448 0,-0.21483 8.80025,-2.93555 8.96435,-2.77145 0.21201,0.21201 0.0181,0.29126 -3.404,1.39093 l -3.30974,1.06358 3.47608,0.0274 3.47607,0.0274 0.94398,-1.39009 c 1.68255,-2.47769 2.15195,-4.31559 2.14708,-8.40672 -0.004,-3.16227 -0.0858,-3.81881 -0.71169,-5.69275 -0.38909,-1.16502 -1.13402,-2.82663 -1.6554,-3.692468 -1.2706,-2.110021 -0.22773,-1.172125 1.29839,1.167698 2.77518,4.25486 3.84517,9.42806 2.90448,14.04265 -1.30422,6.39794 -7.83123,11.81116 -14.87183,12.33406 -0.97524,0.0724 -2.13062,0.16321 -2.56751,0.20173 -0.43688,0.0385 -1.86669,-0.0161 -3.17734,-0.12132 z m 14.56282,-7.38368 c 0.47658,-0.52661 0.46316,-0.52941 -2.40816,-0.50395 l -2.88741,0.0256 1.72106,0.47834 c 2.28251,0.63439 3.0004,0.63439 3.57451,0 z m -13.39426,3.63229 c -0.23106,-0.17741 -0.55873,-0.58281 -0.72814,-0.9009 -0.40237,-0.75547 -0.39618,-2.80211 0.01,-3.20799 0.18294,-0.18294 1.05912,-0.31774 2.06528,-0.31774 1.00616,0 1.88233,0.1348 2.06527,0.31774 0.40588,0.40588 0.41207,2.45252 0.01,3.20799 -0.16942,0.31809 -0.49708,0.72349 -0.72814,0.9009 -0.54169,0.41589 -2.15199,0.41589 -2.69368,0 z m -11.62732,-2.27389 c 0,-0.15906 0.32767,-0.37237 0.72814,-0.47402 0.40048,-0.10165 1.8005,-0.44834 3.11115,-0.77041 l 2.38301,-0.58559 -3.64071,-0.029 c -2.2313,-0.0178 -3.6407,-0.13148 -3.6407,-0.29376 0,-0.16331 1.49664,-0.27529 3.90548,-0.29221 l 3.90549,-0.0274 -3.30973,-1.06358 c -3.42206,-1.09967 -3.61602,-1.17892 -3.404,-1.39093 0.16591,-0.16592 8.96435,2.55787 8.96435,2.77515 0,0.0918 -0.92342,0.38334 -2.05204,0.64779 -1.12862,0.26445 -2.73381,0.69724 -3.56709,0.96175 -2.19343,0.69626 -3.38335,0.88696 -3.38335,0.54221 z m 7.26785,-7.4633 c -0.33765,-0.3731 -0.52642,-1.07253 -0.59959,-2.22161 -0.0915,-1.43766 -0.0271,-1.75682 0.45177,-2.23564 0.72123,-0.72123 1.45539,-0.70858 2.15953,0.0372 0.47729,0.50551 0.54728,0.84416 0.46208,2.23563 -0.10562,1.72503 -0.66977,2.72897 -1.5335,2.72897 -0.24611,0 -0.66924,-0.24505 -0.94029,-0.54455 z m 9.53203,0 c -0.33638,-0.3717 -0.52467,-1.06504 -0.59321,-2.18442 -0.0852,-1.39147 -0.0152,-1.73012 0.46208,-2.23563 0.30937,-0.32766 0.79151,-0.59575 1.07142,-0.59575 0.27991,0 0.76205,0.26809 1.07142,0.59575 0.47729,0.50551 0.54728,0.84416 0.46208,2.23563 -0.10562,1.72503 -0.66977,2.72897 -1.5335,2.72897 -0.24611,0 -0.66924,-0.24505 -0.94029,-0.54455 z"
         id="path1299" />
      <path
         style="fill:#df7c97;stroke-width:0.264779"
         d="m 131.02432,127.00337 c -3.16688,-0.66299 -6.7127,-2.31377 -8.56615,-3.98804 l -1.11818,-1.01009 2.03294,1.05258 c 3.25998,1.68789 5.50658,2.17606 10.01449,2.17606 3.05843,0 4.25049,-0.11168 5.86104,-0.54912 2.11653,-0.57485 5.05695,-1.94686 6.51275,-3.03887 l 0.85593,-0.64203 -3.56991,-0.89769 c -1.96345,-0.49373 -3.5699,-0.96472 -3.5699,-1.04664 0,-0.0819 1.87661,-0.72509 4.17026,-1.42925 2.29364,-0.70417 4.3192,-1.33689 4.50124,-1.40605 0.18203,-0.0692 0.33097,-0.0182 0.33097,0.11332 0,0.13149 -1.57874,0.7326 -3.50832,1.3358 l -3.50831,1.09671 3.59769,0.0165 3.5977,0.0164 2.49221,-2.94336 c 2.72162,-3.21429 3.08147,-3.26497 2.22335,-0.31313 -1.52222,5.23624 -5.51329,9.0739 -11.3814,10.94391 -1.50049,0.47817 -2.60979,0.60661 -5.82513,0.67447 -2.18442,0.0461 -4.4989,-0.0265 -5.14327,-0.16144 z m 16.66114,-7.00894 0.62187,-0.66195 -3.1573,0.0295 -3.15731,0.0295 2.38301,0.61335 c 1.31066,0.33735 2.4516,0.62195 2.53544,0.63246 0.0838,0.0105 0.43227,-0.27877 0.77429,-0.64284 z m -13.14564,3.5863 c -0.84935,-0.35766 -1.01823,-0.80482 -0.3075,-0.81418 0.59155,-0.008 0.59421,-0.0179 0.0818,-0.31175 -0.81351,-0.46655 -1.17385,-1.05866 -1.18308,-1.94405 -0.0124,-1.18579 0.41095,-1.44305 2.37459,-1.44305 1.96363,0 2.38695,0.25726 2.37458,1.44305 -0.009,0.88539 -0.36957,1.4775 -1.18308,1.94405 -0.50535,0.28982 -0.49972,0.30407 0.12293,0.31175 0.57561,0.007 0.60639,0.0542 0.26124,0.39931 -0.50627,0.50627 -1.81654,0.72015 -2.5415,0.41487 z m -12.00833,-2.34247 c 0,-0.15082 1.4596,-0.62863 3.24354,-1.06181 l 3.24354,-0.78759 -3.7731,-0.0282 c -2.32008,-0.0173 -3.77309,-0.13015 -3.77309,-0.29297 0,-0.16422 1.53343,-0.27102 4.03787,-0.2812 l 4.03788,-0.0165 -3.50832,-1.09672 c -1.92957,-0.60318 -3.50832,-1.20429 -3.50832,-1.33578 0,-0.13149 0.14894,-0.18248 0.33098,-0.11332 0.18203,0.0692 2.20759,0.70188 4.50123,1.40605 2.29365,0.70416 4.17006,1.34544 4.16981,1.42506 -2.5e-4,0.0796 -1.75772,0.59492 -3.90549,1.14513 -2.14776,0.55021 -4.17311,1.0705 -4.50078,1.15619 -0.33461,0.0875 -0.59575,0.0356 -0.59575,-0.1184 z m 7.31712,-8.27968 c -0.53954,-0.42441 -0.69765,-0.78163 -0.69765,-1.57622 0,-1.87609 0.85243,-2.91038 2.07805,-2.52139 1.18115,0.37489 1.50812,3.11088 0.48648,4.07067 -0.75942,0.71343 -0.98991,0.71676 -1.86688,0.0269 z m 9.48429,-0.10114 c -1.03878,-1.03878 -0.74897,-3.61612 0.44939,-3.99647 1.22561,-0.38899 2.07804,0.6453 2.07804,2.52139 0,0.79459 -0.15811,1.15181 -0.69765,1.57622 -0.88674,0.6975 -1.03958,0.68906 -1.82978,-0.10114 z"
         id="path1297" />
      <path
         style="fill:#b5919c;stroke-width:0.264779"
         d="m 131.02432,127.00337 c -3.16688,-0.66299 -6.7127,-2.31377 -8.56615,-3.98804 l -1.11818,-1.01009 2.03294,1.05258 c 3.25998,1.68789 5.50658,2.17606 10.01449,2.17606 3.05959,0 4.2503,-0.11163 5.86313,-0.54965 2.17346,-0.59028 4.84593,-1.82408 6.27256,-2.89585 0.72532,-0.5449 1.06743,-0.63352 1.91965,-0.49724 1.15436,0.18459 1.43325,-0.21313 0.34158,-0.48713 l -0.69546,-0.17455 0.60922,-0.64849 c 0.33508,-0.35667 0.88634,-0.64849 1.22502,-0.64849 0.6772,0 0.84825,-0.43992 0.22409,-0.57634 -0.26271,-0.0574 0.41305,-1.03223 2.05204,-2.96018 2.67235,-3.1435 3.02803,-3.1843 2.17487,-0.24953 -1.52222,5.23625 -5.51329,9.07391 -11.3814,10.94391 -1.50049,0.47817 -2.60979,0.60661 -5.82513,0.67448 -2.18442,0.0461 -4.4989,-0.0266 -5.14327,-0.16145 z m 3.5155,-3.42264 c -1.26752,-0.53375 -0.9273,-0.80612 1.00694,-0.80612 1.69891,0 1.87971,0.0461 1.53456,0.39125 -0.50627,0.50627 -1.81654,0.72015 -2.5415,0.41487 z m -4.69121,-10.62215 c -0.53954,-0.42441 -0.69765,-0.78163 -0.69765,-1.57622 0,-1.87609 0.85243,-2.91038 2.07805,-2.52139 1.18115,0.37489 1.50812,3.11088 0.48648,4.07067 -0.75942,0.71343 -0.98991,0.71676 -1.86688,0.0269 z m 9.48429,-0.10114 c -1.03878,-1.03878 -0.74897,-3.61612 0.44939,-3.99647 1.22561,-0.38899 2.07804,0.6453 2.07804,2.52139 0,0.79459 -0.15811,1.15181 -0.69765,1.57622 -0.88674,0.6975 -1.03958,0.68906 -1.82978,-0.10114 z"
         id="path1295" />
      <path
         style="fill:#060506;stroke-width:0.264779"
         d="m 129.56314,112.6541 c -0.64441,-0.92002 -0.52962,-2.49551 0.23773,-3.26285 0.35745,-0.35745 0.77989,-0.64991 0.93876,-0.64991 0.15887,0 0.58131,0.29246 0.93876,0.64991 1.2692,1.2692 0.63981,3.85132 -0.93876,3.85132 -0.48965,0 -0.91242,-0.21146 -1.17649,-0.58847 z m 9.53203,0 c -0.6444,-0.92002 -0.52961,-2.49551 0.23773,-3.26285 0.35745,-0.35745 0.77989,-0.64991 0.93876,-0.64991 0.15887,0 0.58131,0.29246 0.93876,0.64991 1.2692,1.2692 0.63981,3.85132 -0.93876,3.85132 -0.48965,0 -0.91242,-0.21146 -1.17649,-0.58847 z"
         id="path1293" />
    </g>
    <g
       id="g227"
       transform="matrix(0.24590844,0,0,0.24579075,26.450969,-2.3707997)">
      <path
         style="fill:#5bc9e8;stroke-width:0.264562"
         d="m 90.130773,117.23135 c -1.639891,-5.37636 -2.408667,-12.16664 -2.175738,-19.217434 0.509309,-15.417028 4.359847,-25.897253 12.221105,-33.262872 5.36069,-5.022714 12.06973,-7.974017 20.96527,-9.222613 2.49272,-0.349885 4.2738,-0.404648 8.9338,-0.274689 5.01217,0.139779 9.93849,0.607833 10.28904,0.977571 0.058,0.06122 -1.82482,2.543238 -4.18413,5.515592 l -4.28967,5.404279 -3.8178,0.05609 c -12.63129,0.18559 -19.72909,6.194712 -22.08002,18.693335 -0.46911,2.493986 -0.46907,2.588993 10e-4,3.10861 0.68251,0.754167 1.29874,0.673063 3.0724,-0.404376 3.32238,-2.018239 10.06874,-4.730862 9.28741,-3.734345 -0.13344,0.170191 -2.21445,2.81472 -4.62447,5.876732 l -4.38185,5.567295 -1.54135,0.481191 c -2.01339,0.628548 -2.20277,0.809906 -2.20277,2.109471 0,0.601557 -0.10559,1.461913 -0.23464,1.911893 -0.20252,0.70616 -13.656722,18.08378 -14.316747,18.4917 -0.132983,0.0822 -0.547441,-0.85265 -0.921019,-2.07743 z"
         id="path241" />
      <path
         style="fill:#80afdd;stroke-width:0.264562"
         d="m 112.74637,138.76146 c -7.19102,-0.93831 -13.64491,-4.10901 -17.826299,-8.75781 -3.869679,-4.30223 -6.650707,-10.44411 -7.944767,-17.54593 -1.526454,-8.3772 -1.153093,-21.095247 0.868019,-29.567903 2.348294,-9.844241 7.693062,-17.994311 14.981957,-22.845509 6.53257,-4.347828 13.20592,-6.313137 23.41378,-6.895392 4.26183,-0.243094 15.18458,0.799104 16.07589,1.533886 0.25925,0.213724 0.31872,2.126071 0.26456,8.507789 l -0.0699,8.232098 -0.96368,0.08042 c -0.57975,0.04838 -2.05539,-0.279605 -3.70388,-0.823244 -3.95461,-1.304153 -6.13791,-1.598953 -10.59053,-1.429987 -4.3189,0.163894 -6.35345,0.62409 -9.59907,2.171227 -2.58519,1.232317 -5.33021,3.890908 -6.84812,6.632479 -1.37199,2.478027 -3.54513,9.106638 -2.8839,8.796608 0.10783,-0.05056 1.68422,-0.826118 3.50309,-1.723463 5.27663,-2.603242 10.43211,-3.593463 15.8161,-3.037823 6.21131,0.641021 10.64157,2.498284 14.31487,6.001108 2.37234,2.262245 4.70992,5.56527 5.7654,8.146559 1.65509,4.047697 2.4923,10.907317 1.95412,16.010927 -1.14486,10.85698 -6.38015,18.94768 -15.1009,23.3372 -1.88637,0.9495 -3.87658,1.6861 -6.21444,2.30004 -3.21817,0.84513 -3.76251,0.90956 -8.466,1.00215 -2.76468,0.0544 -5.80053,-0.002 -6.74634,-0.12543 z m 9.65653,-0.92577 c 11.10508,-1.34472 18.50074,-6.21598 22.97673,-15.13397 1.75918,-3.50498 3.08372,-9.50844 3.08193,-13.96878 -0.002,-3.94855 -0.96451,-9.292207 -2.19426,-12.176814 -1.59559,-3.742758 -5.52337,-8.365966 -8.63901,-10.168571 -4.21838,-2.440615 -7.54961,-3.272839 -13.10889,-3.274921 -5.78122,-0.0021 -9.30678,0.983681 -15.04245,4.2063 -1.1434,0.642419 -2.2616,1.168036 -2.4849,1.168036 -0.98698,0 0.51108,-6.262652 2.39555,-10.014529 3.41335,-6.795823 8.78212,-9.895191 17.79173,-10.271089 4.3142,-0.179998 7.41238,0.236924 11.2064,1.508038 1.29252,0.433031 2.54081,0.78733 2.77399,0.78733 0.37895,0 0.42396,-0.797447 0.42396,-7.51135 v -7.511351 l -0.59695,-0.149825 c -4.352,-1.092284 -15.55694,-1.425767 -20.68894,-0.615748 -8.97549,1.416663 -15.56732,4.433304 -21.061863,9.638609 -2.856722,2.706342 -5.109715,5.86394 -7.104829,9.957513 -3.447247,7.073052 -4.725909,13.177422 -4.971055,23.731976 -0.255853,11.015496 0.971267,18.241336 4.183222,24.632666 2.898653,5.76791 6.460556,9.40526 11.948845,12.20195 2.99536,1.52635 6.26531,2.4394 10.64479,2.97229 3.61028,0.43929 4.78305,0.43821 8.466,-0.008 z m -6.64488,-12.94804 c -2.71916,-0.65989 -4.96559,-2.5121 -6.34264,-5.22957 -2.24783,-4.43589 -2.83029,-7.59987 -2.86231,-15.5483 l -0.0239,-5.939026 2.33029,-0.743765 c 3.63845,-1.161289 6.70482,-1.45676 9.82548,-0.946771 5.26876,0.861037 8.30257,3.395509 9.59146,8.012782 0.55385,1.98408 0.73742,7.27997 0.34755,10.02652 -0.54699,3.85335 -2.80027,7.73459 -5.35939,9.23147 -2.40753,1.40821 -4.85839,1.77933 -7.50653,1.13666 z m 4.69854,-1.06329 c 2.53426,-0.76914 4.21862,-2.28318 5.76249,-5.17978 1.14866,-2.15511 1.59893,-4.39688 1.60347,-7.9832 0.0107,-8.44926 -2.90352,-12.34762 -9.89006,-13.230036 -2.82439,-0.356731 -5.68782,-0.04224 -8.6254,0.94733 l -1.71966,0.579291 -0.0816,4.487175 c -0.12925,7.11009 0.76281,11.82094 3.00915,15.89092 2.15767,3.90934 6.05369,5.66827 9.94158,4.4883 z"
         id="path239" />
      <path
         style="fill:#42bded;stroke-width:0.264562"
         d="m 113.54006,136.91167 c -8.38938,-1.08589 -15.013439,-4.81808 -19.038117,-10.72664 -1.472409,-2.16163 -3.515673,-6.11913 -3.398403,-6.58222 0.04454,-0.17589 3.235893,-4.31389 7.091891,-9.19555 l 7.010909,-8.87574 0.31014,4.78777 c 0.35666,5.50575 0.81103,8.25844 1.79363,10.86626 2.24153,5.94903 5.29442,8.57957 10.23617,8.82004 4.82191,0.23464 8.14483,-1.84928 10.5734,-6.63094 1.21165,-2.38566 1.61451,-4.59127 1.63093,-8.92899 0.012,-3.17159 -0.0861,-4.19711 -0.56629,-5.9197 -1.74569,-6.262533 -6.10363,-9.172688 -13.71072,-9.155772 -1.13621,0.0026 -2.89098,0.179397 -3.89951,0.393047 -1.00853,0.213648 -1.86635,0.355794 -1.90627,0.315877 -0.19706,-0.197062 8.94225,-11.435428 9.47372,-11.649578 0.33866,-0.136456 2.3421,-0.305197 4.45211,-0.374981 5.79877,-0.191781 9.84864,0.804006 14.08383,3.462941 3.32504,2.087536 7.05179,6.93703 8.24101,10.723758 1.21702,3.875258 1.35357,4.951558 1.34692,10.617028 -0.006,5.26513 -0.0311,5.51471 -0.85307,8.54516 -2.62245,9.6685 -9.96903,16.66708 -19.77644,18.83964 -3.49137,0.77341 -9.79832,1.09541 -13.09584,0.66859 z m 24.73659,-68.183754 c -1.01857,-0.350225 -2.88053,-0.839602 -4.1377,-1.0875 l -2.28577,-0.450727 4.08898,-5.158969 c 2.24894,-2.837433 4.2002,-5.272069 4.33613,-5.410303 0.15326,-0.155861 0.24714,2.230965 0.24714,6.283359 0,3.594082 -0.0893,6.518095 -0.19842,6.497806 -0.10913,-0.02029 -1.03179,-0.323438 -2.05036,-0.673666 z"
         id="path237" />
      <path
         style="fill:#149999;stroke-width:0.264562"
         d="m 105.60318,152.76034 c -6.468221,-0.70908 -14.562934,-3.06987 -20.489306,-5.97562 -2.700069,-1.32386 -3.503818,-1.87606 -5.527954,-3.79788 C 70.223379,134.09758 64.140116,122.33962 61.928691,108.85828 61.112452,103.88231 61.112379,96.444002 61.92852,91.538471 64.141573,78.236607 69.463442,67.716647 78.603242,58.576843 89.338379,47.84171 102.7155,41.958365 118.03762,41.233348 c 9.27497,-0.438876 20.26255,1.951554 28.94091,6.296313 2.81734,1.410479 3.50148,1.894726 5.67635,4.017838 9.5001,9.274012 15.34334,20.698847 17.40429,34.029283 0.69856,4.518392 0.63988,12.998792 -0.12175,17.593408 -2.09459,12.63586 -7.7098,23.64213 -16.59478,32.52711 -8.90615,8.90616 -19.72055,14.4435 -32.39483,16.58726 -3.54689,0.59993 -11.86069,0.85771 -15.34463,0.47578 z m 17.72569,-13.07121 c 9.56179,-1.16602 16.53957,-5.09466 21.51934,-12.11585 3.44356,-4.85523 5.12515,-10.21818 5.38764,-17.18245 0.3826,-10.15075 -2.07725,-17.269744 -7.89404,-22.845962 -2.22288,-2.130948 -4.25539,-3.433754 -7.10763,-4.555882 -3.61373,-1.421717 -5.74349,-1.773276 -10.71478,-1.768696 -5.41268,0.005 -7.9183,0.513608 -12.41508,2.520162 -1.59448,0.711485 -2.93504,1.257613 -2.97904,1.213619 -0.044,-0.044 0.26636,-1.104628 0.68968,-2.356963 2.17093,-6.422485 6.17235,-10.309612 12.23779,-11.888241 1.79842,-0.468069 2.9538,-0.573341 6.30281,-0.574272 4.41707,-0.0013 6.68374,0.389936 10.42963,1.799887 2.06779,0.778314 3.22384,0.854265 4.06244,0.266894 0.58733,-0.411387 0.58799,-0.421538 0.58799,-9.108512 0,-7.553306 -0.0547,-8.75132 -0.41574,-9.112403 -0.22866,-0.228657 -0.437,-0.416289 -0.46299,-0.41696 -0.026,-6.61e-4 -1.65446,-0.241708 -3.61883,-0.535639 -7.3371,-1.097858 -15.60958,-0.984005 -22.05912,0.303595 -9.98757,1.993941 -18.480375,7.292486 -23.416569,14.60928 -5.144801,7.626008 -7.502288,15.515508 -8.246365,27.597038 -0.586678,9.525905 0.582024,19.080715 3.088312,25.248735 3.097754,7.62362 7.479184,12.55948 14.136082,15.92487 5.42648,2.74336 13.4413,3.88591 20.88847,2.97775 z m -6.52312,-16.5529 c -3.11535,-0.62351 -5.28339,-2.87689 -6.79216,-7.05954 -1.03941,-2.8815 -1.5057,-6.06611 -1.68302,-11.4945 l -0.16128,-4.937508 1.82556,-0.536869 c 3.1353,-0.922045 5.74251,-1.149683 8.3313,-0.727412 5.69722,0.929305 8.14519,3.950749 8.59633,10.610159 0.3908,5.7688 -1.2625,10.53728 -4.45533,12.85015 -1.57099,1.13802 -3.84653,1.65874 -5.6614,1.29552 z"
         id="path235" />
      <path
         style="fill:#2762ae;stroke-width:0.264562"
         d="m 113.01093,139.67112 c -9.46716,-1.1865 -16.474906,-5.20941 -21.152262,-12.14281 -4.053603,-6.00878 -5.927478,-12.34848 -6.640543,-22.46629 -0.54257,-7.698639 0.419017,-18.047179 2.265359,-24.379644 2.377469,-8.154094 6.65721,-14.989368 12.153321,-19.410355 6.376825,-5.129417 13.204475,-7.751014 22.882265,-8.786052 3.93489,-0.420835 11.69707,-0.164652 16.41899,0.541893 1.96437,0.293931 3.59285,0.534969 3.61883,0.535639 0.026,6.62e-4 0.23433,0.188303 0.46299,0.41696 0.36108,0.361083 0.41574,1.559097 0.41574,9.112403 0,8.686974 -5.3e-4,8.697125 -0.58799,9.108512 -0.8386,0.587371 -1.99465,0.51142 -4.06244,-0.266894 -3.74589,-1.409951 -6.01256,-1.801117 -10.42963,-1.799887 -3.34901,0.0011 -4.50439,0.106203 -6.30281,0.574272 -6.06544,1.578629 -10.06686,5.465756 -12.23779,11.888241 -0.42332,1.252335 -0.73367,2.312966 -0.68968,2.356963 0.044,0.04399 1.38456,-0.502134 2.97904,-1.213619 4.49678,-2.006554 7.0024,-2.515175 12.41508,-2.520162 4.97129,-0.0046 7.10105,0.346979 10.71478,1.768696 2.85224,1.122128 4.88475,2.424934 7.10763,4.555882 5.81679,5.576218 8.27664,12.695212 7.89404,22.845962 -0.12806,3.3976 -0.30569,4.75617 -0.9739,7.44854 -2.0618,8.30755 -7.22965,14.79396 -14.95374,18.76916 -5.5459,2.85419 -13.65533,4.02035 -21.29728,3.06259 z m 14.94778,-1.78638 c 12.38366,-3.25206 19.90932,-12.30363 21.31534,-25.63724 0.53818,-5.10361 -0.29903,-11.96323 -1.95412,-16.010931 -1.05548,-2.581289 -3.39306,-5.884314 -5.7654,-8.146559 -3.6733,-3.502824 -8.10356,-5.360087 -14.31487,-6.001108 -5.38399,-0.55564 -10.53947,0.434581 -15.8161,3.037823 -1.81887,0.897345 -3.39526,1.672902 -3.50309,1.723463 -0.66123,0.31003 1.51191,-6.318581 2.8839,-8.796608 1.51791,-2.741571 4.26293,-5.400162 6.84812,-6.632479 3.24562,-1.547137 5.28017,-2.007333 9.59907,-2.171227 4.45262,-0.168966 6.63592,0.125834 10.59053,1.429987 1.64849,0.543639 3.12413,0.871622 3.70388,0.823244 l 0.96368,-0.08042 0.0699,-8.232098 c 0.0542,-6.381718 -0.005,-8.294065 -0.26456,-8.507789 -0.89131,-0.734782 -11.81406,-1.77698 -16.07589,-1.533886 -10.20786,0.582255 -16.88121,2.547564 -23.41378,6.895392 -7.288895,4.851198 -12.633663,13.001268 -14.981957,22.845509 -2.021112,8.472656 -2.394473,21.190707 -0.868019,29.567907 1.29406,7.10182 4.075088,13.2437 7.944767,17.54593 3.269305,3.63476 8.353609,6.62967 13.328739,7.85131 4.05074,0.99466 5.65556,1.14195 11.2439,1.03193 4.70349,-0.0926 5.24783,-0.15702 8.466,-1.00215 z m -14.02181,-0.0413 c -4.37948,-0.53289 -7.64943,-1.44594 -10.64479,-2.97229 -9.443678,-4.81225 -14.541089,-13.57942 -15.955694,-27.44265 -0.420514,-4.12106 -0.18954,-14.627203 0.404789,-18.412415 1.022396,-6.511537 2.015582,-9.839921 4.389893,-14.711527 5.433087,-11.147595 14.469122,-17.43414 28.166692,-19.596122 5.132,-0.810019 16.33694,-0.476536 20.68894,0.615748 l 0.59695,0.149825 v 7.511351 c 0,6.713903 -0.045,7.51135 -0.42396,7.51135 -0.23318,0 -1.48147,-0.354299 -2.77399,-0.78733 -3.79402,-1.271114 -6.8922,-1.688036 -11.2064,-1.508038 -9.00961,0.375898 -14.37838,3.475266 -17.79173,10.271089 -1.88447,3.751877 -3.38253,10.014529 -2.39555,10.014529 0.2233,0 1.3415,-0.525617 2.4849,-1.168036 5.73567,-3.222619 9.26123,-4.208467 15.04245,-4.2063 7.35743,0.0028 12.5623,1.943503 16.77157,6.253639 3.16332,3.239112 5.0426,6.529209 6.07131,10.629166 2.26942,9.044871 0.81607,18.933901 -3.81041,25.927121 -4.49634,6.79651 -11.50697,10.74557 -21.14897,11.91313 -3.68295,0.44597 -4.85572,0.44705 -8.466,0.008 z m 12.699,-1.60037 c 9.80741,-2.17256 17.15399,-9.17114 19.77644,-18.83964 0.82197,-3.03045 0.84688,-3.28003 0.85307,-8.54516 0.007,-5.66547 -0.1299,-6.74177 -1.34692,-10.617028 -0.71625,-2.280698 -2.56927,-5.289261 -4.82246,-7.829722 -2.57051,-2.898245 -6.69695,-5.077626 -11.41745,-6.030136 -3.06382,-0.618224 -9.00449,-0.422924 -12.01064,0.394846 -2.28298,0.621045 -6.1684,2.350434 -8.60173,3.828606 -1.77366,1.077439 -2.38989,1.158543 -3.0724,0.404376 -0.47025,-0.519617 -0.47029,-0.614624 -10e-4,-3.10861 1.56973,-8.345454 5.36391,-13.838116 11.54405,-16.71181 5.77586,-2.685711 15.88329,-2.634256 22.52577,0.114675 0.43372,0.179495 0.46298,-0.227844 0.46298,-6.445724 v -6.637327 l -0.59527,-0.127468 c -2.31786,-0.496313 -5.04294,-0.729731 -9.98735,-0.855459 -6.23941,-0.158659 -9.70724,0.167043 -14.35733,1.348456 -9.3351,2.371694 -16.835328,7.79427 -21.197456,15.32551 -4.14894,7.163165 -6.050047,14.891779 -6.420098,26.099755 -0.322219,9.75926 1.106069,18.03613 4.160809,24.11171 2.956687,5.88055 6.633796,9.61102 11.948795,12.12216 4.54826,2.1489 8.88358,2.94183 15.28278,2.79522 3.20954,-0.0735 4.79066,-0.24679 7.27547,-0.79723 z m -11.64075,-10.55831 c -4.61239,-1.45871 -7.6208,-5.91939 -8.86483,-13.14421 -0.56815,-3.29961 -0.89756,-10.44534 -0.60257,-13.071156 0.2411,-2.146023 0.15745,-2.078014 3.91159,-3.180131 6.34961,-1.864081 13.22611,-0.829258 16.52537,2.486847 2.80074,2.81505 3.80765,5.91872 3.7859,11.66954 -0.017,4.49206 -0.43635,6.64517 -1.7995,9.23924 -1.68174,3.20036 -3.4924,4.86045 -6.38779,5.85661 -1.7313,0.59565 -4.91794,0.66516 -6.56817,0.14326 z m 5.70622,-0.84933 c 3.11221,-0.92201 4.84473,-2.49031 6.5802,-5.95648 1.29812,-2.59269 1.73639,-5.44313 1.51948,-9.88256 -0.22768,-4.65995 -0.9281,-6.75117 -3.0779,-9.18966 -1.51211,-1.71517 -3.80262,-2.797749 -7.03822,-3.326522 -3.12066,-0.509989 -6.18703,-0.214518 -9.82548,0.946771 l -2.3303,0.743765 0.0239,5.939026 c 0.032,7.94843 0.61448,11.11241 2.86231,15.5483 2.20603,4.35338 6.86031,6.4885 11.28598,5.17736 z m -4.91253,-1.00089 c -2.30614,-0.72558 -3.97909,-2.15257 -5.27386,-4.49849 -2.24634,-4.06998 -3.1384,-8.78083 -3.00915,-15.89092 l 0.0816,-4.487175 1.71966,-0.579291 c 5.69036,-1.916883 11.86799,-1.253672 15.04327,1.614997 2.4405,2.204849 3.47886,5.395039 3.47219,10.667709 -0.006,4.66862 -0.94044,7.70955 -3.21868,10.47345 -2.07091,2.51237 -5.79013,3.65144 -8.815,2.69972 z m 4.65521,-0.97541 c 0.52323,-0.13313 1.43363,-0.59141 2.0231,-1.01843 3.19283,-2.31287 4.84613,-7.08135 4.45533,-12.85015 -0.27613,-4.07596 -1.16058,-6.4499 -3.03341,-8.14188 -1.55947,-1.408889 -3.00774,-2.05149 -5.56292,-2.468279 -2.58879,-0.422271 -5.196,-0.194633 -8.3313,0.727412 l -1.82556,0.536869 0.16128,4.937508 c 0.22856,6.99687 1.15685,11.43199 3.02516,14.45338 2.24449,3.62972 5.11068,4.83557 9.08832,3.82357 z"
         id="path233" />
      <path
         style="fill:#167672;stroke-width:0.264562"
         d="m 78.750088,143.08721 c -2.640112,-1.82916 -4.793237,-3.90645 -7.919332,-7.6404 C 63.869306,127.13175 59.635558,117.9773 57.677613,107.00634 56.883629,102.55741 56.815017,93.079103 57.544512,88.619251 60.437605,70.93201 70.285731,56.167918 85.36415,46.912669 c 9.9351,-6.098241 22.91147,-9.290112 34.26084,-8.427336 9.49472,0.721785 16.98638,2.909444 25.00116,7.300651 3.54797,1.94389 4.56358,2.807272 1.56243,1.328232 -8.01549,-3.950227 -19.26903,-6.301146 -28.15096,-5.880868 -15.32212,0.725017 -28.699241,6.608362 -39.434378,17.343495 -9.1398,9.139804 -14.461669,19.659764 -16.674722,32.961628 -0.816141,4.905531 -0.816068,12.343839 1.71e-4,17.319809 2.153841,13.13029 7.463554,23.69255 16.657902,33.13646 1.381226,1.41871 2.459273,2.57484 2.395656,2.56917 -0.06361,-0.006 -1.068086,-0.67018 -2.232161,-1.4767 z"
         id="path231" />
      <path
         style="fill:#104640;stroke-width:0.264562"
         d="m 73.456192,139.08054 c -9.230632,-7.973 -15.67222,-18.07296 -18.769053,-29.42857 -1.551373,-5.68864 -2.077754,-9.693192 -2.069152,-15.741469 0.01076,-7.562902 1.06317,-13.522273 3.606805,-20.423801 5.847138,-15.864769 18.674507,-28.807086 34.408827,-34.717168 14.396911,-5.407726 30.225351,-5.056703 44.336001,0.983228 3.09979,1.326837 6.76068,3.308238 9.46246,5.121418 2.74241,1.840453 6.16625,4.522875 4.16251,3.261146 -2.7289,-1.718352 -4.04549,-2.452381 -6.87863,-3.834989 -7.00465,-3.418357 -13.6805,-5.175641 -22.09097,-5.815002 -11.34937,-0.862776 -24.32574,2.329095 -34.26084,8.427336 -15.078419,9.255249 -24.926545,24.019341 -27.819638,41.706582 -0.729495,4.459852 -0.660883,13.938159 0.133101,18.387089 2.236458,12.53156 7.654539,23.12288 16.409867,32.07821 1.102515,1.1277 1.946646,2.05036 1.875849,2.05036 -0.0708,0 -1.199008,-0.92447 -2.507137,-2.05437 z"
         id="path229" />
    </g>
  </g>
</svg>
