<?xml version="1.0" encoding="UTF-8" standalone="no"?>
<svg
   xmlns:dc="http://purl.org/dc/elements/1.1/"
   xmlns:cc="http://creativecommons.org/ns#"
   xmlns:rdf="http://www.w3.org/1999/02/22-rdf-syntax-ns#"
   xmlns:svg="http://www.w3.org/2000/svg"
   xmlns="http://www.w3.org/2000/svg"
   xmlns:sodipodi="http://sodipodi.sourceforge.net/DTD/sodipodi-0.dtd"
   xmlns:inkscape="http://www.inkscape.org/namespaces/inkscape"
   width="210mm"
   height="297mm"
   viewBox="0 0 210 297"
   version="1.1"
   id="svg8"
   inkscape:version="1.0.2-2 (e86c870879, 2021-01-15)"
   sodipodi:docname="a6.svg">
  <defs
     id="defs2">
    <pattern
       id="EMFhbasepattern"
       patternUnits="userSpaceOnUse"
       width="6"
       height="6"
       x="0"
       y="0" />
    <pattern
       id="EMFhbasepattern-7"
       patternUnits="userSpaceOnUse"
       width="6"
       height="6"
       x="0"
       y="0" />
    <pattern
       id="EMFhbasepattern-3"
       patternUnits="userSpaceOnUse"
       width="6"
       height="6"
       x="0"
       y="0" />
    <pattern
       id="EMFhbasepattern-8"
       patternUnits="userSpaceOnUse"
       width="6"
       height="6"
       x="0"
       y="0" />
    <pattern
       id="EMFhbasepattern-9"
       patternUnits="userSpaceOnUse"
       width="6"
       height="6"
       x="0"
       y="0" />
    <pattern
       id="EMFhbasepattern-30"
       patternUnits="userSpaceOnUse"
       width="6"
       height="6"
       x="0"
       y="0" />
    <pattern
       id="EMFhbasepattern-4"
       patternUnits="userSpaceOnUse"
       width="6"
       height="6"
       x="0"
       y="0" />
    <pattern
       id="EMFhbasepattern-1"
       patternUnits="userSpaceOnUse"
       width="6"
       height="6"
       x="0"
       y="0" />
    <pattern
       id="EMFhbasepattern-73"
       patternUnits="userSpaceOnUse"
       width="6"
       height="6"
       x="0"
       y="0" />
    <pattern
       id="EMFhbasepattern-8-4"
       patternUnits="userSpaceOnUse"
       width="6"
       height="6"
       x="0"
       y="0" />
    <pattern
       id="EMFhbasepattern-9-4"
       patternUnits="userSpaceOnUse"
       width="6"
       height="6"
       x="0"
       y="0" />
    <pattern
       id="EMFhbasepattern-0"
       patternUnits="userSpaceOnUse"
       width="6"
       height="6"
       x="0"
       y="0" />
    <pattern
       id="EMFhbasepattern-8-44"
       patternUnits="userSpaceOnUse"
       width="6"
       height="6"
       x="0"
       y="0" />
    <pattern
       id="EMFhbasepattern-9-9"
       patternUnits="userSpaceOnUse"
       width="6"
       height="6"
       x="0"
       y="0" />
    <pattern
       id="EMFhbasepattern-1-8"
       patternUnits="userSpaceOnUse"
       width="6"
       height="6"
       x="0"
       y="0" />
    <pattern
       id="EMFhbasepattern-45"
       patternUnits="userSpaceOnUse"
       width="6"
       height="6"
       x="0"
       y="0" />
    <pattern
       id="EMFhbasepattern-8-47"
       patternUnits="userSpaceOnUse"
       width="6"
       height="6"
       x="0"
       y="0" />
    <pattern
       id="EMFhbasepattern-9-0"
       patternUnits="userSpaceOnUse"
       width="6"
       height="6"
       x="0"
       y="0" />
    <pattern
       id="EMFhbasepattern-1-80"
       patternUnits="userSpaceOnUse"
       width="6"
       height="6"
       x="0"
       y="0" />
    <pattern
       id="EMFhbasepattern-3-0"
       patternUnits="userSpaceOnUse"
       width="6"
       height="6"
       x="0"
       y="0" />
    <pattern
       id="EMFhbasepattern-85"
       patternUnits="userSpaceOnUse"
       width="6"
       height="6"
       x="0"
       y="0" />
    <pattern
       id="EMFhbasepattern-8-0"
       patternUnits="userSpaceOnUse"
       width="6"
       height="6"
       x="0"
       y="0" />
    <pattern
       id="EMFhbasepattern-9-6"
       patternUnits="userSpaceOnUse"
       width="6"
       height="6"
       x="0"
       y="0" />
    <pattern
       id="EMFhbasepattern-1-9"
       patternUnits="userSpaceOnUse"
       width="6"
       height="6"
       x="0"
       y="0" />
    <pattern
       id="EMFhbasepattern-3-8"
       patternUnits="userSpaceOnUse"
       width="6"
       height="6"
       x="0"
       y="0" />
    <pattern
       id="EMFhbasepattern-4-8"
       patternUnits="userSpaceOnUse"
       width="6"
       height="6"
       x="0"
       y="0" />
    <pattern
       id="EMFhbasepattern-35"
       patternUnits="userSpaceOnUse"
       width="6"
       height="6"
       x="0"
       y="0" />
    <pattern
       id="EMFhbasepattern-8-8"
       patternUnits="userSpaceOnUse"
       width="6"
       height="6"
       x="0"
       y="0" />
    <pattern
       id="EMFhbasepattern-9-08"
       patternUnits="userSpaceOnUse"
       width="6"
       height="6"
       x="0"
       y="0" />
    <pattern
       id="EMFhbasepattern-1-2"
       patternUnits="userSpaceOnUse"
       width="6"
       height="6"
       x="0"
       y="0" />
    <pattern
       id="EMFhbasepattern-81"
       patternUnits="userSpaceOnUse"
       width="6"
       height="6"
       x="0"
       y="0" />
    <pattern
       id="EMFhbasepattern-8-7"
       patternUnits="userSpaceOnUse"
       width="6"
       height="6"
       x="0"
       y="0" />
    <pattern
       id="EMFhbasepattern-9-1"
       patternUnits="userSpaceOnUse"
       width="6"
       height="6"
       x="0"
       y="0" />
    <pattern
       id="EMFhbasepattern-1-3"
       patternUnits="userSpaceOnUse"
       width="6"
       height="6"
       x="0"
       y="0" />
    <pattern
       id="EMFhbasepattern-3-86"
       patternUnits="userSpaceOnUse"
       width="6"
       height="6"
       x="0"
       y="0" />
    <pattern
       id="EMFhbasepattern-4-2"
       patternUnits="userSpaceOnUse"
       width="6"
       height="6"
       x="0"
       y="0" />
    <pattern
       id="EMFhbasepattern-0-0"
       patternUnits="userSpaceOnUse"
       width="6"
       height="6"
       x="0"
       y="0" />
    <pattern
       id="EMFhbasepattern-37"
       patternUnits="userSpaceOnUse"
       width="6"
       height="6"
       x="0"
       y="0" />
    <pattern
       id="EMFhbasepattern-8-6"
       patternUnits="userSpaceOnUse"
       width="6"
       height="6"
       x="0"
       y="0" />
    <pattern
       id="EMFhbasepattern-9-3"
       patternUnits="userSpaceOnUse"
       width="6"
       height="6"
       x="0"
       y="0" />
    <pattern
       id="EMFhbasepattern-1-4"
       patternUnits="userSpaceOnUse"
       width="6"
       height="6"
       x="0"
       y="0" />
    <pattern
       id="EMFhbasepattern-3-2"
       patternUnits="userSpaceOnUse"
       width="6"
       height="6"
       x="0"
       y="0" />
    <pattern
       id="EMFhbasepattern-4-25"
       patternUnits="userSpaceOnUse"
       width="6"
       height="6"
       x="0"
       y="0" />
    <pattern
       id="EMFhbasepattern-0-7"
       patternUnits="userSpaceOnUse"
       width="6"
       height="6"
       x="0"
       y="0" />
    <pattern
       id="EMFhbasepattern-48"
       patternUnits="userSpaceOnUse"
       width="6"
       height="6"
       x="0"
       y="0" />
    <pattern
       id="EMFhbasepattern-19"
       patternUnits="userSpaceOnUse"
       width="6"
       height="6"
       x="0"
       y="0" />
    <pattern
       id="EMFhbasepattern-8-3"
       patternUnits="userSpaceOnUse"
       width="6"
       height="6"
       x="0"
       y="0" />
    <pattern
       id="EMFhbasepattern-9-45"
       patternUnits="userSpaceOnUse"
       width="6"
       height="6"
       x="0"
       y="0" />
    <pattern
       id="EMFhbasepattern-1-1"
       patternUnits="userSpaceOnUse"
       width="6"
       height="6"
       x="0"
       y="0" />
    <pattern
       id="EMFhbasepattern-3-1"
       patternUnits="userSpaceOnUse"
       width="6"
       height="6"
       x="0"
       y="0" />
    <pattern
       id="EMFhbasepattern-4-0"
       patternUnits="userSpaceOnUse"
       width="6"
       height="6"
       x="0"
       y="0" />
    <pattern
       id="EMFhbasepattern-0-5"
       patternUnits="userSpaceOnUse"
       width="6"
       height="6"
       x="0"
       y="0" />
    <pattern
       id="EMFhbasepattern-48-0"
       patternUnits="userSpaceOnUse"
       width="6"
       height="6"
       x="0"
       y="0" />
    <pattern
       id="EMFhbasepattern-5"
       patternUnits="userSpaceOnUse"
       width="6"
       height="6"
       x="0"
       y="0" />
  </defs>
  <sodipodi:namedview
     id="base"
     pagecolor="#ffffff"
     bordercolor="#666666"
     borderopacity="1.0"
     inkscape:pageopacity="0.0"
     inkscape:pageshadow="2"
     inkscape:zoom="0.98994949"
     inkscape:cx="407.95419"
     inkscape:cy="383.04576"
     inkscape:document-units="mm"
     inkscape:current-layer="layer2"
     inkscape:document-rotation="0"
     showgrid="false"
     inkscape:window-width="1920"
     inkscape:window-height="1017"
     inkscape:window-x="-8"
     inkscape:window-y="-8"
     inkscape:window-maximized="1" />
  <metadata
     id="metadata5">
    <rdf:RDF>
      <cc:Work
         rdf:about="">
        <dc:format>image/svg+xml</dc:format>
        <dc:type
           rdf:resource="http://purl.org/dc/dcmitype/StillImage" />
        <dc:title></dc:title>
      </cc:Work>
    </rdf:RDF>
  </metadata>
  <g
     inkscape:groupmode="layer"
     id="layer4"
     inkscape:label="Warstwa 3"
     style="display:inline">
    <g
       id="g978"
       transform="translate(-0.23034879,-0.2545802)" />
    <g
       id="g1191"
       transform="translate(-76.311058,-75.560668)">
      <path
         style="fill:#c0ebc0;stroke-width:0.264638"
         d="m 112.14043,88.461496 c -0.0809,-0.327489 -0.59775,-2.91763 -1.14867,-5.755869 -0.70232,-3.618278 -0.9143,-5.214078 -0.70935,-5.339939 0.43953,-0.269919 5.77218,-1.236431 8.47856,-1.536692 9.88353,-1.096535 21.1087,1.210736 29.83826,6.133083 2.79647,1.576847 6.18749,3.957052 8.00493,5.618765 l 1.58783,1.451777 -22.95228,0.01215 -22.95228,0.01216 z"
         id="path1205" />
      <path
         style="fill:#ace4ac;stroke-width:0.264638"
         d="m 76.40773,121.41591 c -0.492887,-6.57419 0.915257,-13.90768 3.851959,-20.06067 1.942695,-4.070346 4.547088,-7.618663 8.449234,-11.511537 5.628328,-5.614956 10.966457,-8.91831 18.619767,-11.52233 1.82898,-0.622305 2.62436,-0.788765 2.69813,-0.564673 0.0575,0.174772 0.53311,2.580419 1.05685,5.345883 0.52373,2.765464 1.01438,5.235866 1.09033,5.489782 0.12977,0.433852 1.52811,0.465828 23.21036,0.530748 l 23.07226,0.06908 -23.42119,0.06469 -23.4212,0.06469 -17.332248,17.333767 c -9.53274,9.53357 -17.410797,17.33376 -17.506793,17.33376 -0.096,0 -0.261353,-1.15794 -0.367459,-2.57319 z"
         id="path1203" />
      <path
         style="fill:#9ce19c;stroke-width:0.264638"
         d="m 79.13485,133.18811 c -0.95592,-2.43708 -2.317912,-7.45254 -2.318614,-8.53816 -2.25e-4,-0.34873 5.951643,-6.4815 17.400332,-17.92921 L 111.61724,89.321569 h 23.46292 23.46293 l 2.03312,2.183261 c 5.03528,5.407108 8.748,12.78317 10.09024,20.0463 0.88993,4.81559 0.56467,12.78679 -0.70431,17.26085 l -0.27956,0.98562 -11.53623,-11.63729 -11.53623,-11.63729 h -2.4925 -2.4925 l -0.41141,-0.98465 c -0.49856,-1.19323 -0.2394,-1.73878 0.85169,-1.79285 0.42768,-0.0212 1.07532,-0.20454 1.43919,-0.40744 0.36388,-0.20291 0.72114,-0.37736 0.79392,-0.38767 0.87307,-0.12375 1.83101,-1.47531 1.99034,-2.80819 0.028,-0.234549 0.1327,-0.752059 0.23258,-1.150024 0.10876,-0.433322 0.0551,-0.876021 -0.1338,-1.103614 -0.2409,-0.290274 -0.2436,-0.619715 -0.0114,-1.394737 0.58341,-1.947248 0.18029,-3.317434 -1.32419,-4.500863 -0.76739,-0.603627 -2.93762,-1.21606 -3.51887,-0.993013 -0.21635,0.08302 -0.46178,0.04026 -0.54539,-0.09503 -0.18564,-0.300374 -2.62359,-0.1369 -4.01124,0.26897 -1.58533,0.463691 -2.51929,1.126268 -3.48741,2.474064 -0.92477,1.28743 -0.94413,1.401768 -0.88069,5.200552 0.009,0.509428 0.005,1.242245 -0.009,1.628475 -0.0458,1.34036 1.39765,2.57718 3.95794,3.39134 0.9124,0.29014 1.12471,0.47783 1.12471,0.99429 0,0.35015 -0.12327,0.86698 -0.27394,1.14851 -0.25984,0.48551 -0.62115,0.51188 -7.0129,0.51188 -3.70643,0 -6.73895,-0.0655 -6.73895,-0.14546 0,-0.08 0.18741,-0.50788 0.41647,-0.95083 0.22905,-0.44295 0.35996,-0.86187 0.29089,-0.93093 -0.0691,-0.0691 -0.0105,-0.54247 0.13023,-1.05201 0.18137,-0.65686 0.16563,-1.03509 -0.0541,-1.29982 -0.23106,-0.2784 -0.23549,-0.58677 -0.0174,-1.2123 0.63932,-1.833957 0.15788,-3.529598 -1.33575,-4.704485 -0.76739,-0.603628 -2.93762,-1.21606 -3.51887,-0.993013 -0.21635,0.08302 -0.46191,0.04004 -0.54569,-0.09552 -0.19134,-0.309592 -3.27213,-0.08707 -3.69896,0.267168 -0.17394,0.144354 -0.3803,0.198406 -0.45859,0.120118 -0.0783,-0.07829 -0.63372,0.113774 -1.23428,0.426806 -2.18794,1.140417 -3.68938,4.303576 -2.99215,6.303676 0.19475,0.55865 0.19042,1.07271 -0.0147,1.74088 -0.25486,0.83041 -0.21858,1.0461 0.29218,1.73693 l 0.58318,0.78879 -1.26495,-0.003 -1.26496,-0.003 -14.422751,14.59601 -14.422754,14.59601 z"
         id="path1201" />
      <path
         style="fill:#93de93;stroke-width:0.264638"
         d="m 162.55483,122.73208 -3.56893,-3.63877 3.63877,3.56893 c 2.00132,1.96291 3.63877,3.60036 3.63877,3.63877 0,0.18973 -0.3933,-0.18875 -3.70861,-3.56893 z m -60.86667,-8.86537 c 3.31531,-3.38018 3.7086,-3.75866 3.7086,-3.56893 0,0.0384 -1.63744,1.67586 -3.63876,3.63877 l -3.638772,3.56893 z m 8.88605,-8.58931 c -0.14361,-0.37716 -0.11321,-0.40756 0.14815,-0.14814 0.18086,0.17951 0.26217,0.39305 0.18069,0.47453 -0.0815,0.0815 -0.22946,-0.0654 -0.32884,-0.32639 z m 13.89736,-2.61368 c 0.0127,-0.30829 0.0754,-0.371 0.15989,-0.15989 0.0764,0.19104 0.067,0.41929 -0.0209,0.50723 -0.0879,0.0879 -0.15049,-0.0684 -0.139,-0.34734 z m 8.44221,-1.0429 c -0.18412,-0.22184 -0.2835,-0.4546 -0.22087,-0.51724 0.0626,-0.0626 0.25925,0.11887 0.43691,0.40336 0.38421,0.61521 0.25608,0.68275 -0.21604,0.11388 z m 13.52272,-3.191304 c 0.0127,-0.308288 0.0754,-0.370996 0.15988,-0.159886 0.0764,0.191035 0.067,0.419285 -0.0209,0.507222 -0.0879,0.08794 -0.15048,-0.06836 -0.13899,-0.347336 z m -9.86211,-7.171624 c 0.19104,-0.07645 0.41929,-0.06704 0.50723,0.02089 0.0879,0.08794 -0.0684,0.150483 -0.34734,0.138993 -0.30829,-0.0127 -0.371,-0.07541 -0.15989,-0.159886 z"
         id="path1199" />
      <path
         style="fill:#86d986;stroke-width:0.264638"
         d="m 85.548937,130.20809 c 2.981128,-2.98379 5.479775,-5.42507 5.552551,-5.42507 0.07277,0 -2.306786,2.44128 -5.287913,5.42507 -2.981127,2.98379 -5.479775,5.42507 -5.55255,5.42507 -0.07278,0 2.306785,-2.44128 5.287912,-5.42507 z m 67.083593,-17.39993 -6.34924,-6.41746 6.41746,6.34924 c 5.96332,5.89991 6.53677,6.48569 6.34924,6.48569 -0.0375,0 -2.92538,-2.88786 -6.41746,-6.41747 z m -45.51562,-4.43268 c 1.01105,-1.01885 1.89781,-1.85246 1.97059,-1.85246 0.0728,0 -0.6949,0.83361 -1.70595,1.85246 -1.01105,1.01886 -1.89781,1.85247 -1.97059,1.85247 -0.0728,0 0.6949,-0.83361 1.70595,-1.85247 z m 30.43334,-4.2342 c -0.09,-0.14555 -0.0375,-0.26464 0.1167,-0.26464 0.15414,0 0.28025,0.11909 0.28025,0.26464 0,0.14555 -0.0525,0.26464 -0.1167,0.26464 -0.0642,0 -0.1903,-0.11909 -0.28025,-0.26464 z m 5.61913,-0.82675 c 0.17952,-0.18086 0.39306,-0.26217 0.47453,-0.18069 0.0815,0.0815 -0.0654,0.22945 -0.32638,0.32883 -0.37716,0.14361 -0.40756,0.11322 -0.14815,-0.14814 z m -31.95059,-5.095196 c 0,-0.05495 0.20841,-0.263355 0.46312,-0.463115 0.41973,-0.329176 0.42909,-0.319815 0.0999,0.09991 -0.34572,0.440819 -0.56304,0.581006 -0.56304,0.3632 z m 6.22086,-3.072705 c -0.0927,-0.150013 0.0135,-0.194378 0.24902,-0.104006 0.45847,0.175929 0.54235,0.365612 0.16169,0.365612 -0.13696,0 -0.32178,-0.117723 -0.41071,-0.261606 z m 2.18139,0.08634 c 0.18194,-0.07341 0.47966,-0.07341 0.6616,0 0.18193,0.07341 0.0331,0.133479 -0.3308,0.133479 -0.36388,0 -0.51274,-0.06006 -0.3308,-0.133479 z m 13.56268,-1.247839 c 0,-0.05495 0.20841,-0.263356 0.46312,-0.463116 0.41973,-0.329175 0.42909,-0.319815 0.0999,0.09992 -0.34572,0.44082 -0.56304,0.581006 -0.56304,0.363201 z m 11.34567,-2.215665 c -0.32918,-0.41973 -0.31982,-0.42909 0.0999,-0.09992 0.44082,0.345714 0.58101,0.563031 0.3632,0.563031 -0.055,0 -0.26335,-0.208402 -0.46311,-0.463116 z"
         id="path1197" />
      <path
         style="fill:#77d377;stroke-width:0.264638"
         d="m 167.71185,128.15715 -1.84537,-1.91863 1.91862,1.84537 c 1.05525,1.01495 1.91863,1.87833 1.91863,1.91862 0,0.19412 -0.27791,-0.0633 -1.99188,-1.84536 z m -73.032912,-7.07906 c 2.03381,-2.03771 3.757382,-3.70493 3.830157,-3.70493 0.07277,0 -1.53171,1.66722 -3.565519,3.70493 -2.033811,2.03771 -3.757381,3.70493 -3.830156,3.70493 -0.07278,0 1.531708,-1.66722 3.565518,-3.70493 z m 15.021832,-14.48033 c 0.40226,-0.0608 0.9977,-0.0592 1.32318,0.004 0.32549,0.0628 -0.004,0.11258 -0.73139,0.11059 -0.72775,-0.002 -0.99406,-0.0534 -0.59179,-0.11421 z m 13.69102,-0.009 c -1.9e-4,-0.10916 2.05406,-0.1679 4.565,-0.13053 8.5434,0.12715 9.34221,0.21906 2.38208,0.27409 -3.82071,0.0302 -6.9469,-0.0344 -6.94708,-0.14356 z m 19.2616,0.003 c 0.76902,-0.0536 1.95989,-0.0531 2.64638,0.001 0.68648,0.0543 0.0573,0.0982 -1.39822,0.0975 -1.45551,-8e-4 -2.01718,-0.0451 -1.24816,-0.0988 z m -32.17692,-5.4943 c 0.005,-0.43666 0.0647,-0.58325 0.1318,-0.32577 0.0671,0.25749 0.0627,0.61475 -0.01,0.79392 -0.0725,0.17917 -0.12738,-0.0315 -0.12199,-0.46815 z m 13.59427,-0.2099 c 0.0994,-0.26099 0.24735,-0.40786 0.32883,-0.32638 0.0815,0.0815 1.7e-4,0.29501 -0.18069,0.47453 -0.26136,0.25941 -0.29176,0.22901 -0.14814,-0.14815 z m 22.10112,-1.664621 c 0.0127,-0.308288 0.0754,-0.370996 0.15989,-0.159886 0.0764,0.191036 0.067,0.419286 -0.0209,0.507223 -0.0879,0.08794 -0.15049,-0.06837 -0.139,-0.347337 z m -21.70029,-0.529276 c 0.0127,-0.308288 0.0754,-0.370995 0.15989,-0.159885 0.0764,0.191035 0.067,0.419285 -0.0209,0.507222 -0.0879,0.08794 -0.15049,-0.06837 -0.139,-0.347337 z m 7.96983,-1.83041 c 0.005,-0.436653 0.0647,-0.583245 0.1318,-0.325761 0.0671,0.257484 0.0627,0.614745 -0.01,0.793913 -0.0725,0.179168 -0.12737,-0.0315 -0.12198,-0.468152 z m -11.29869,-1.19087 c -0.43147,-0.185408 -0.44658,-0.230875 -0.0818,-0.246038 0.24612,-0.01023 0.5211,0.100487 0.61105,0.246038 0.18807,0.304301 0.17887,0.304301 -0.52927,0 z M 146.4365,94.45995 c 0.0127,-0.308287 0.0754,-0.370995 0.15988,-0.159885 0.0764,0.191035 0.067,0.419285 -0.0209,0.507222 -0.0879,0.08794 -0.15048,-0.06837 -0.13899,-0.347337 z m -3.04897,-2.9966 c -0.0816,-0.131977 0.09,-0.177631 0.38134,-0.101454 0.61792,0.161591 0.69603,0.341412 0.1483,0.341412 -0.20974,0 -0.44808,-0.107981 -0.52964,-0.239958 z m -3.98295,-0.550924 c -0.0927,-0.150013 0.0135,-0.194378 0.24902,-0.104006 0.45847,0.175929 0.54235,0.365612 0.16168,0.365612 -0.13696,0 -0.32177,-0.117723 -0.4107,-0.261606 z"
         id="path1195" />
      <path
         style="fill:#6fd16f;stroke-width:0.264638"
         d="m 118.23169,161.29623 c -6.4521,-0.72775 -13.3879,-2.86856 -18.656954,-5.75867 -7.55475,-4.14382 -14.40004,-10.84828 -18.500225,-18.1196 l -0.858894,-1.52317 14.36851,-14.55357 14.368513,-14.55356 h 1.2654 c 1.3696,0 1.49955,-0.19053 0.82849,-1.2147 -0.36272,-0.55358 -0.3863,-0.83169 -0.13884,-1.63797 0.19368,-0.63108 0.20767,-1.06155 0.0399,-1.22928 -0.43727,-0.43727 -0.30251,-3.012091 0.19889,-3.800336 0.25135,-0.395144 0.53124,-0.777987 0.62198,-0.850762 0.0907,-0.07278 0.30123,-0.391217 0.46778,-0.707648 0.30977,-0.588565 1.40618,-1.258081 2.81976,-1.721868 1.08175,-0.354915 3.79587,-0.497915 3.97418,-0.20939 0.0796,0.128728 0.32359,0.165386 0.5423,0.08146 0.54925,-0.210769 2.75808,0.426258 3.52844,1.017607 1.01363,0.778079 1.41019,1.783363 1.23379,3.127663 -0.15825,1.205914 -0.18301,1.898254 -0.10647,2.977174 0.0648,0.91282 -0.24159,2.75766 -0.55522,3.34369 -0.15451,0.28871 -0.28093,0.59229 -0.28093,0.67464 0,0.0823 3.08168,0.14972 6.84818,0.14972 7.62781,0 7.37805,0.0603 7.63321,-1.84209 0.13053,-0.97319 0.0903,-1.06893 -0.44907,-1.06893 -0.85764,0 -3.97609,-1.54997 -3.97609,-1.97625 0,-0.19876 -0.1309,-0.40501 -0.29089,-0.45834 -0.37576,-0.12526 -0.52082,-1.836446 -0.19038,-2.245814 0.16281,-0.2017 0.15222,-0.50287 -0.0296,-0.842674 -0.3556,-0.664439 -0.37061,-3.125152 -0.0217,-3.551933 0.14373,-0.175795 0.64985,-0.845277 1.12472,-1.487739 0.69754,-0.943736 1.18908,-1.284912 2.559,-1.776187 0.9326,-0.334441 1.78775,-0.551142 1.90034,-0.481557 0.11259,0.06959 0.28308,-2.91e-4 0.37888,-0.155287 0.12316,-0.199282 0.27368,-0.199209 0.51401,2.49e-4 0.18692,0.15513 0.52788,0.209903 0.75768,0.121719 0.22981,-0.08818 0.56907,-0.06686 0.75392,0.04738 0.18486,0.114245 0.77388,0.176109 1.30894,0.137477 0.53507,-0.03863 1.05153,0.05708 1.14771,0.212689 0.0962,0.155611 0.37623,0.287212 0.62236,0.292447 0.57998,0.01234 1.6915,0.989791 2.14042,1.882269 0.22677,0.450821 0.29375,1.111802 0.18772,1.852464 -0.0907,0.633351 -0.16315,1.389721 -0.16108,1.680822 0.0129,1.807595 -0.008,2.45443 -0.0966,3.043335 -0.055,0.36387 -0.13001,0.69137 -0.16678,0.72776 -0.0368,0.0364 -0.092,0.15547 -0.12279,0.26463 -0.19284,0.68427 -0.51019,1.1247 -0.81039,1.1247 -0.19063,0 -0.38629,0.0893 -0.43481,0.19849 -0.19002,0.42757 -1.89833,1.1247 -2.75603,1.1247 -0.85527,0 -0.90479,0.05 -0.90479,0.91378 0,0.50258 0.13821,1.2171 0.30712,1.58783 0.2984,0.65492 0.38,0.67405 2.8762,0.67405 h 2.56909 l 11.44099,11.54333 c 10.87307,10.97033 11.43314,11.58262 11.28274,12.33462 -0.087,0.43521 -0.70629,2.08963 -1.3761,3.6765 -3.47268,8.22721 -11.23825,16.4587 -20.01505,21.2159 -4.45373,2.41401 -10.00771,4.31954 -15.28875,5.24546 -3.49352,0.61251 -11.06703,0.87126 -14.42276,0.49276 z"
         id="path1193" />
    </g>
    <path
       style="fill:#f4eed7;fill-rule:evenodd;stroke:none;stroke-width:0.257637"
       id="path1216"
       sodipodi:type="arc"
       sodipodi:cx="42.656609"
       sodipodi:cy="75.23407"
       sodipodi:rx="10.022607"
       sodipodi:ry="9.4880695"
       sodipodi:start="0"
       sodipodi:end="6.2686642"
       sodipodi:open="true"
       sodipodi:arc-type="arc"
       d="m 52.679215,75.23407 a 10.022607,9.4880695 0 0 1 -9.986222,9.488007 10.022607,9.4880695 0 0 1 -10.058727,-9.419119 10.022607,9.4880695 0 0 1 9.91319,-9.556395 10.022607,9.4880695 0 0 1 10.130703,9.349734" />
  </g>
  <g
     inkscape:groupmode="layer"
     id="layer2"
     inkscape:label="Warstwa 2">
    <path
       style="fill:#ff6600;stroke-width:0.0813169"
       d="m 41.860565,85.337159 c -3.92943,-0.42082 -7.145171,-2.94545 -8.444641,-6.62977 -0.728434,-2.0653 -0.716536,-4.49024 0.03223,-6.56835 0.981737,-2.72471 3.248808,-4.991803 5.972915,-5.972993 1.558166,-0.56123 3.586556,-0.72768 5.145306,-0.42223 5.70363,1.1177 9.22508,6.730543 7.73978,12.336443 -0.24977,0.94268 -1.01541,2.51836 -1.59779,3.28823 -0.98097,1.29677 -2.10834,2.22543 -3.60287,2.96782 -1.64443,0.81686 -3.5563,1.18169 -5.24493,1.00085 z m 2.69023,-2.46948 c 1.46472,-0.34718 3.0724,-1.35159 4.05659,-2.5344 0.63245,-0.7601 1.3244,-2.14017 1.56027,-3.11195 0.23392,-0.96372 0.25053,-2.40802 0.0382,-3.32513 -0.63342,-2.73647 -2.57495,-4.851193 -5.21959,-5.685233 -3.90825,-1.23254 -8.195362,1.00767 -9.463207,4.944963 -0.958791,2.97752 0.02962,6.26906 2.468434,8.22037 1.198969,0.95929 2.401393,1.45896 4.072333,1.69226 0.47763,0.0667 1.81323,-0.0412 2.48694,-0.20088 z m -2.08035,-2.24752 c -0.29136,-0.0773 -0.62585,-0.36782 -0.74105,-0.64353 -0.0827,-0.19805 -0.11278,-0.68194 -0.11278,-1.81754 v -1.54763 l -1.56534,-1.7e-4 c -1.328436,-8e-5 -1.608008,-0.0216 -1.847191,-0.1423 -0.781397,-0.39418 -0.783782,-1.56601 -0.004,-1.98294 0.248257,-0.1327 0.477311,-0.15146 1.849951,-0.15146 h 1.56662 v -1.56662 c 0,-1.37264 0.0187,-1.60169 0.1515,-1.84995 0.41693,-0.77975 1.58875,-0.77736 1.98293,0.004 0.12066,0.23918 0.1422,0.51875 0.14231,1.84719 l 1.6e-4,1.56534 h 1.54763 c 1.72923,0 1.96284,0.0506 2.27781,0.49289 0.24893,0.34959 0.26158,0.95563 0.0266,1.27607 -0.33408,0.45565 -0.56824,0.50764 -2.28673,0.50778 l -1.56534,1.7e-4 -3.1e-4,1.60601 c -2.4e-4,1.44842 -0.0158,1.6315 -0.15875,1.86586 -0.0872,0.14293 -0.24253,0.31403 -0.34529,0.38024 -0.2165,0.13948 -0.68338,0.21906 -0.9187,0.1566 z"
       id="path852-9" />
    <path
       style="fill:#ff55dd;stroke-width:0.0470029"
       d="M 62.653231,81.867641 C 60.841142,81.694865 59.028351,81.090847 57.488338,80.14671 55.939937,79.19743 54.448321,77.705815 53.499041,76.157414 51.335765,72.628823 51.14821,68.218389 53.003798,64.51155 c 0.976283,-1.950285 2.618832,-3.738539 4.48454,-4.882351 3.528591,-2.163276 7.939024,-2.350831 11.645863,-0.495243 1.950287,0.976283 3.738541,2.618832 4.882354,4.484539 2.163277,3.528593 2.350831,7.939026 0.495243,11.645866 -0.976284,1.950283 -2.618833,3.738539 -4.48454,4.882349 -2.184143,1.339034 -4.851227,1.96147 -7.374027,1.720931 z m 7.810782,-9.234343 c 0.07299,-0.05408 0.18216,-0.170411 0.242613,-0.258515 0.09176,-0.133724 0.106786,-0.204944 0.09096,-0.431085 -0.02017,-0.288241 -0.106887,-0.447832 -0.336486,-0.619252 -0.12965,-0.0968 -0.13744,-0.09691 -6.703306,-0.09691 -6.565862,0 -6.573653,9.4e-5 -6.703302,0.09691 -0.206686,0.154312 -0.308646,0.322821 -0.334587,0.552963 -0.03123,0.277096 0.0054,0.412947 0.161382,0.598309 0.247293,0.293891 -0.187715,0.277193 6.931822,0.266082 l 6.518204,-0.01017 z m 0.03559,-4.737408 c 0.441775,-0.336973 0.410607,-0.965611 -0.06372,-1.285263 l -0.158592,-0.106875 h -6.519494 -6.519491 l -0.158591,0.106875 c -0.237555,0.160086 -0.372342,0.388193 -0.372342,0.630128 0,0.354156 0.134381,0.576899 0.446632,0.740313 0.126343,0.06612 0.814015,0.07253 6.654461,0.06201 l 6.513559,-0.01173 z"
       id="path846" />
    <g
       id="g314"
       transform="matrix(0.24576464,0,0,0.24581308,5.1803044,8.664892)">
      <path
         style="fill:#80e5ff;stroke-width:0.264562"
         d="m 54.072662,105.11335 c -3.437453,-1.39694 -6.534686,-4.06899 -8.972296,-7.740577 -2.792243,-4.20575 -3.775209,-8.022086 -3.798964,-14.749347 -0.02169,-6.144297 0.900769,-10.213355 3.317915,-14.635531 3.643039,-6.664954 9.718553,-11.230543 17.557788,-13.194216 3.305934,-0.828115 3.63938,-0.861135 8.598282,-0.851508 4.679412,0.0091 5.45408,0.07826 8.333718,0.744223 4.482827,1.036717 7.571655,2.559779 11.454265,5.647951 l 0.607206,0.482962 -4.791222,6.074794 c -2.635172,3.341136 -4.872789,6.09643 -4.972484,6.122876 -0.09969,0.02646 -0.597951,-0.806929 -1.107233,-1.851938 -2.190025,-4.493768 -5.373921,-6.419836 -10.289632,-6.224624 -2.003127,0.07955 -2.542488,0.211341 -4.098066,1.001351 -3.067136,1.557667 -5.336204,4.789888 -6.424096,9.150939 -0.585961,2.348953 -0.654318,8.82526 -0.115809,10.972034 0.764739,3.048641 2.799608,6.142221 4.828527,7.340731 0.417737,0.246763 0.728616,0.524768 0.690844,0.617788 -0.224444,0.552748 -9.111172,11.598702 -9.328362,11.594892 -0.14551,-0.003 -0.816181,-0.22881 -1.490381,-0.5028 z"
         id="path328" />
      <path
         style="fill:#9a94e9;stroke-width:0.264562"
         d="m 53.975668,137.53209 c -3.428775,-0.32965 -6.490763,-0.77318 -7.606172,-1.10175 -0.428425,-0.1262 -0.462984,-0.76701 -0.462984,-8.58455 v -8.44818 h 1.173681 c 0.670451,0 2.060021,0.34131 3.24089,0.79603 2.89928,1.11644 5.700465,1.58504 9.47496,1.58504 5.288496,0 9.176726,-0.982 12.722877,-3.21325 2.652741,-1.66911 5.551492,-5.38737 6.813166,-8.73934 0.609142,-1.61833 1.599212,-5.4983 1.441284,-5.64822 -0.04229,-0.0401 -1.684107,0.72154 -3.648483,1.69262 -6.425888,3.1766 -12.362985,3.89682 -19.543042,2.37073 -6.045052,-1.28485 -10.652278,-4.40809 -13.983588,-9.479481 -1.795787,-2.733798 -2.538475,-4.361374 -3.22375,-7.064761 -0.886454,-3.497026 -1.164083,-6.518245 -1.003975,-10.925489 0.274611,-7.559199 2.18531,-12.822535 6.731772,-18.543776 1.922779,-2.419617 5.222482,-5.030058 8.432607,-6.671152 3.19447,-1.633091 3.768319,-1.848242 7.257896,-2.72115 2.903473,-0.726298 3.283869,-0.757562 9.114861,-0.74915 5.942124,0.0086 6.162552,0.02841 9.391969,0.845182 8.866507,2.242487 15.114823,7.623656 18.813317,16.202391 2.777356,6.442134 4.070686,16.14716 3.433826,25.767187 -0.78381,11.839959 -3.161356,19.911139 -8.003752,27.170809 -3.399004,5.09576 -9.265235,9.85446 -15.331101,12.43664 -6.123111,2.60654 -16.56353,3.85744 -25.236259,3.02362 z m 14.286375,-1.31793 c 6.952358,-0.96586 11.622315,-2.71254 16.928918,-6.33183 7.081052,-4.82954 12.312712,-12.92851 14.548646,-22.52231 3.265753,-14.012481 2.390193,-29.738327 -2.170823,-38.989755 -2.140607,-4.341945 -4.239468,-7.012208 -7.489706,-9.528729 -4.521897,-3.501109 -9.066123,-5.142474 -16.238492,-5.865304 -8.227052,-0.829121 -17.336516,1.69596 -23.342664,6.470427 -4.148782,3.297988 -7.624262,8.716527 -9.10499,14.195365 -0.716154,2.649845 -0.835819,3.591399 -0.956533,7.526309 -0.22431,7.311891 0.769644,11.778788 3.631829,16.321675 2.316269,3.676412 4.898571,6.067112 8.463016,7.835092 3.90144,1.93512 6.63977,2.52183 11.762361,2.52019 5.907353,-0.002 9.183552,-0.96026 15.255415,-4.46251 1.126827,-0.64995 2.101113,-1.18173 2.165079,-1.18173 0.64562,0 0.09552,3.40443 -1.18387,7.32662 -1.281847,3.92975 -3.986012,7.62704 -7.109217,9.72012 -3.437279,2.30357 -6.749874,3.2682 -12.069286,3.51461 -4.206748,0.19487 -7.731789,-0.25848 -10.947462,-1.40792 -1.382444,-0.49415 -2.721877,-0.89849 -2.976518,-0.89854 -0.430068,-7e-5 -0.462984,0.53395 -0.462984,7.51127 v 7.51135 l 0.59695,0.14983 c 0.703911,0.17667 6.364628,0.90502 8.265893,1.06354 2.279696,0.19009 9.671543,-0.0939 12.434438,-0.47777 z m 1.322812,-41.785767 c -4.950229,-0.81063 -8.133818,-3.729032 -9.292226,-8.518198 -0.588212,-2.431824 -0.584022,-7.497921 0.0084,-10.165394 1.554236,-6.998125 6.208824,-10.846184 11.933383,-9.865609 0.926299,0.158669 2.219021,0.5556 2.872712,0.88207 3.168369,1.582359 5.6714,6.014405 6.642368,11.761446 0.496883,2.940996 0.809591,9.963625 0.550986,12.373792 -0.187599,1.748385 -0.215444,1.801072 -1.162665,2.199755 -3.136777,1.320267 -8.117992,1.894635 -11.552963,1.332138 z m 8.333719,-1.447792 c 1.09132,-0.286934 2.327465,-0.654329 2.746989,-0.816437 l 0.762774,-0.294738 -0.14502,-5.482828 c -0.201779,-7.628911 -0.95011,-11.24915 -3.103154,-15.012276 -3.69711,-6.461873 -12.192932,-6.040304 -15.467356,0.767503 -1.347599,2.801773 -1.81438,5.053446 -1.816391,8.761945 -0.0039,7.282123 2.692315,11.232705 8.493383,12.444565 2.27674,0.475617 5.918382,0.318602 8.528775,-0.367734 z"
         id="path326" />
      <path
         style="fill:#2a7fff;stroke-width:0.264562"
         d="m 58.737793,148.9142 c -7.120856,-0.87172 -14.036665,-2.89447 -20.311696,-5.94081 -3.808721,-1.84902 -5.678549,-3.43236 -9.687909,-8.20359 -8.466103,-10.07483 -12.886896,-20.89153 -14.063667,-34.41069 -0.48549,-5.57747 0.182598,-12.458603 1.837541,-18.926215 4.731185,-18.489728 18.651416,-33.806302 36.762216,-40.449844 5.913996,-2.169417 11.662119,-3.281696 18.162515,-3.5145 9.851641,-0.352824 19.475527,1.717588 28.572747,6.146932 3.34901,1.630599 3.5206,1.756577 6.53519,4.798207 3.62252,3.655004 4.74171,5.013315 7.45946,9.053224 4.69709,6.982188 7.83452,15.139557 9.31935,24.230544 0.70971,4.345174 0.64924,13.116016 -0.12171,17.655083 -2.19446,12.920199 -7.8472,23.908999 -16.87547,32.805559 -9.021225,8.88962 -19.876836,14.35506 -32.508505,16.36697 -4.201755,0.66924 -11.296456,0.85231 -15.080062,0.38913 z m 9.921094,-10.72899 c 5.131078,-0.73735 9.045116,-1.89053 12.831281,-3.78045 8.574835,-4.28025 14.278242,-10.53296 17.956952,-19.68642 1.47447,-3.66882 2.07382,-5.83873 2.90932,-10.53307 1.65792,-9.315243 1.65924,-19.076946 0.004,-27.376689 -0.82431,-4.132535 -1.64777,-6.626783 -3.187189,-9.653949 -2.322959,-4.567958 -4.300394,-7.109527 -7.510106,-9.652635 -3.203125,-2.537889 -6.823705,-4.347256 -10.569521,-5.282064 -14.229777,-3.551192 -28.545442,0.360218 -36.036135,9.846003 -5.046675,6.390825 -7.37524,14.754188 -6.570801,23.599959 0.570815,6.276812 1.586711,9.452112 4.353982,13.608878 2.879509,4.325357 6.109761,6.931357 10.894948,8.789447 3.456647,1.34222 5.356444,1.6431 10.426006,1.65124 5.610495,0.009 8.151012,-0.5053 12.402732,-2.51083 1.519248,-0.71662 2.820835,-1.24439 2.892417,-1.1728 0.07158,0.0716 -0.215399,1.17104 -0.637733,2.44325 -1.230176,3.70567 -3.759129,7.2392 -6.525759,9.11798 -3.435064,2.33271 -6.83488,3.21741 -12.364657,3.21754 -4.43511,1e-4 -6.250702,-0.29603 -9.561831,-1.55961 -1.313878,-0.50139 -2.846367,-0.91163 -3.405528,-0.91163 -1.890519,0 -1.848141,-0.22164 -1.848141,9.66612 0,8.41406 0.02397,8.84747 0.50351,9.10411 0.668838,0.35795 4.546597,1.01032 7.830209,1.31731 3.204,0.29954 12.470465,0.15232 15.212344,-0.24169 z m 1.05825,-45.669347 c -5.209662,-0.962955 -7.936875,-4.876932 -7.936875,-11.390649 0,-9.351107 4.764241,-14.891876 11.257951,-13.092888 3.179616,0.880866 5.884955,5.343112 6.841227,11.284069 0.506068,3.144016 0.787346,8.426583 0.55519,10.426845 l -0.185816,1.600997 -1.760386,0.553677 c -1.724601,0.542422 -7.122504,0.922712 -8.771291,0.617949 z"
         id="path324" />
      <path
         style="fill:#00ccff;stroke-width:0.264562"
         d="m 54.504793,135.62868 c -0.436528,-0.0509 -1.924692,-0.21874 -3.307031,-0.373 -1.38234,-0.15426 -2.721687,-0.34091 -2.976329,-0.41478 -0.424966,-0.12329 -0.462984,-0.67597 -0.462984,-6.73055 0,-3.62793 0.06906,-6.59624 0.153457,-6.59624 0.0844,0 1.126115,0.34231 2.314922,0.76067 3.004774,1.05746 5.541724,1.4349 9.701496,1.44338 4.133482,0.008 7.245862,-0.50711 10.238537,-1.69593 6.479157,-2.57379 10.735084,-8.24803 12.389586,-16.51849 0.26629,-1.33112 0.397421,-2.70325 0.296696,-3.10458 -0.273078,-1.08803 -1.261037,-1.21474 -2.771665,-0.3555 -3.391818,1.92927 -7.181305,3.68019 -8.999876,4.15838 -1.362391,0.35824 -3.282226,0.5808 -5.862028,0.67958 -3.267254,0.1251 -4.245125,0.0633 -6.593874,-0.41676 -1.516744,-0.31001 -2.79655,-0.60248 -2.844012,-0.64995 -0.08811,-0.0881 8.056071,-10.505262 8.881389,-11.360116 0.429655,-0.445031 0.51159,-0.446497 1.49762,-0.0268 3.713497,1.580652 9.335008,1.521367 14.403502,-0.151904 2.682024,-0.885422 2.645625,-0.791791 2.645625,-6.80559 0,-5.55245 -0.472448,-9.926676 -1.362063,-12.610885 -0.316734,-0.955671 -0.421718,-1.663256 -0.274769,-1.851937 1.114403,-1.4309 9.414591,-11.976065 9.506995,-12.078382 0.210229,-0.23278 2.21428,2.176218 3.770526,4.532411 3.81846,5.781244 5.500537,12.395494 5.743687,22.585246 0.27127,11.368375 -1.322165,20.542547 -4.824853,27.779067 -1.944368,4.01705 -3.82286,6.74737 -6.47031,9.40437 -7.332408,7.35885 -16.463722,10.63913 -29.313668,10.53046 -2.577789,-0.0218 -5.044048,-0.0813 -5.480576,-0.13217 z"
         id="path322" />
      <path
         style="fill:#0055d4;stroke-width:0.264562"
         d="m 31.752418,139.13057 c -2.044859,-1.35435 -4.716449,-3.9401 -7.387673,-7.1503 -7.18753,-8.63776 -11.445854,-17.76052 -13.409395,-28.72743 -0.492515,-2.75083 -0.594403,-4.314077 -0.611719,-9.385507 -0.02272,-6.653655 0.26868,-9.205378 1.706984,-14.947782 4.622895,-18.456824 18.64572,-34.03854 36.581314,-40.647986 13.396564,-4.936767 27.637159,-4.954548 41.191958,-0.05143 3.34535,1.210098 11.074533,5.10876 10.757253,5.426043 -0.0626,0.06254 -1.169167,-0.359649 -2.459158,-0.938207 C 85.851803,37.204827 72.362105,35.968214 59.266918,39.146092 38.630887,44.153945 21.788615,60.811838 16.512062,81.432895 c -2.228325,8.708419 -2.546518,16.428178 -1.039238,25.213265 2.019727,11.77185 7.634665,22.6037 16.381384,31.60153 0.954774,0.98219 1.620096,1.77977 1.478489,1.7724 -0.141607,-0.007 -0.852732,-0.40765 -1.580279,-0.88952 z"
         id="path320" />
      <path
         style="fill:#0044aa;stroke-width:0.264562"
         d="m 34.001199,140.53898 c -0.569807,-0.46608 -0.581006,-0.50171 -0.08087,-0.25726 0.319292,0.15605 0.653713,0.40215 0.743159,0.54688 0.238788,0.38637 0.07842,0.31623 -0.662285,-0.28962 z m -6.746344,-4.77217 C 11.189714,122.24851 3.3947652,101.85441 6.4875689,81.432895 8.4184627,68.683372 14.018606,57.601269 23.139573,48.480301 c 9.07779,-9.077788 19.728428,-14.508362 32.714258,-16.680426 4.003394,-0.669624 12.490731,-0.814086 16.244368,-0.276494 9.537769,1.365991 17.353268,4.234722 25.056773,9.197255 2.053899,1.323105 5.632478,4.002911 5.632478,4.217861 0,0.165853 -1.96556,-1.033048 -2.24878,-1.371653 -0.766151,-0.915965 -7.807252,-4.34104 -11.689307,-5.686147 -6.664192,-2.309101 -12.291984,-3.236857 -19.661351,-3.241225 -13.302587,-0.0079 -25.092685,3.968385 -35.762361,12.061035 -12.175308,9.23463 -20.013312,22.461453 -22.61994,38.171701 -0.731928,4.411357 -0.65478,13.887743 0.149639,18.380632 2.212771,12.35893 7.710424,23.10996 16.406831,32.08466 0.951731,0.98219 1.674087,1.78113 1.605235,1.77542 -0.06885,-0.006 -0.839504,-0.61146 -1.712561,-1.34611 z"
         id="path318" />
      <path
         style="fill:#2518f2;stroke-width:0.264562"
         d="m 53.446543,138.4269 c -3.283612,-0.30699 -7.161371,-0.95936 -7.830209,-1.31731 -0.479541,-0.25664 -0.50351,-0.69005 -0.50351,-9.10411 0,-9.88776 -0.04238,-9.66612 1.848141,-9.66612 0.559161,0 2.09165,0.41024 3.405528,0.91163 3.311129,1.26358 5.126721,1.55971 9.561831,1.55961 8.464852,-2e-4 13.155847,-2.31313 17.09628,-8.42946 0.966307,-1.49991 2.715181,-6.066 2.431869,-6.34931 -0.07158,-0.0716 -1.373169,0.45618 -2.892417,1.1728 -4.25172,2.00553 -6.792237,2.51984 -12.402732,2.51083 -5.069562,-0.008 -6.969359,-0.30902 -10.426006,-1.65124 -4.785187,-1.85809 -8.015439,-4.46409 -10.894948,-8.789447 -2.767271,-4.156766 -3.783167,-7.332066 -4.353982,-13.608878 -0.804439,-8.845771 1.524126,-17.209134 6.570801,-23.599959 7.490693,-9.485785 21.806358,-13.397195 36.036135,-9.846003 4.988553,1.244947 10.982087,4.822686 13.774468,8.222436 2.466246,3.002676 5.003586,7.555024 6.172848,11.074962 2.81656,8.478985 3.33409,21.327928 1.3158,32.667939 -0.8355,4.69434 -1.43485,6.86425 -2.90932,10.53307 -3.67871,9.15346 -9.382117,15.40617 -17.956952,19.68642 -3.786165,1.88992 -7.700203,3.0431 -12.831281,3.78045 -2.741879,0.39401 -12.008344,0.54123 -15.212344,0.24169 z m 14.947781,-1.17789 c 5.771664,-0.75907 10.743759,-2.36596 14.815897,-4.78824 7.715378,-4.58944 12.634605,-10.59847 15.994364,-19.53773 2.589135,-6.88888 3.958115,-18.131524 3.328735,-27.336897 C 102.04246,78.406967 101.04748,73.621008 99.112954,69.133834 95.41446,60.555099 89.166144,55.17393 80.299637,52.931443 77.07022,52.11467 76.849792,52.094834 70.907668,52.086261 c -5.830992,-0.0084 -6.211388,0.02285 -9.114861,0.74915 -3.489577,0.872908 -4.063426,1.088059 -7.257896,2.72115 -7.103202,3.631332 -12.090591,9.938997 -14.1845,17.939459 -1.758206,6.717792 -1.249262,16.222126 1.158805,21.640271 1.001705,2.253834 3.451514,5.762519 5.238432,7.502639 5.73698,5.5867 15.279863,7.68588 24.821426,5.46003 1.173165,-0.27367 3.444117,-1.18457 5.555813,-2.22847 1.964376,-0.97108 3.606193,-1.73276 3.648483,-1.69262 0.157928,0.14992 -0.832142,4.02989 -1.441284,5.64822 -1.261674,3.35197 -4.160425,7.07023 -6.813166,8.73934 -3.546151,2.23125 -7.434381,3.21325 -12.722877,3.21325 -3.774495,0 -6.57568,-0.4686 -9.47496,-1.58504 -1.180869,-0.45472 -2.570439,-0.79603 -3.24089,-0.79603 h -1.173681 v 8.44818 c 0,7.81754 0.03456,8.45835 0.462984,8.58455 4.460637,1.314 15.218116,1.71386 22.024828,0.81867 z m -12.566719,-0.55708 c -1.901265,-0.15852 -7.561982,-0.88687 -8.265893,-1.06354 l -0.59695,-0.14983 v -7.51135 c 0,-6.97732 0.03292,-7.51134 0.462984,-7.51127 0.254641,5e-5 1.594074,0.40439 2.976518,0.89854 5.742914,2.0528 14.392275,1.93783 19.642232,-0.26109 4.941599,-2.06977 8.760495,-6.2828 10.483733,-11.56572 1.279387,-3.92219 1.82949,-7.32662 1.18387,-7.32662 -0.06397,0 -1.038252,0.53178 -2.165079,1.18173 -6.071863,3.50225 -9.348062,4.4606 -15.255415,4.46251 -5.122591,0.002 -7.860921,-0.58507 -11.762361,-2.52019 -3.564445,-1.76798 -6.146747,-4.15868 -8.463016,-7.835092 -2.862185,-4.542887 -3.856139,-9.009784 -3.631829,-16.321675 0.120714,-3.93491 0.240379,-4.876464 0.956533,-7.526309 3.174073,-11.744389 12.679962,-19.267007 26.098154,-20.653143 5.856369,-0.604979 13.248208,0.580234 17.825867,2.858212 9.754385,4.854074 14.823397,13.763922 16.136747,28.363709 0.65786,7.31311 0.0438,15.60675 -1.714093,23.149218 -3.402829,14.60064 -13.274992,24.86639 -26.980002,28.05564 -4.198535,0.97703 -12.771199,1.62321 -16.932,1.27627 z m 11.830076,-1.30483 c 9.375273,-1.2982 15.835878,-4.33029 21.641356,-10.15671 5.147733,-5.1663 8.520899,-12.22977 10.175902,-21.30852 0.371239,-2.03649 0.806191,-5.131876 0.966561,-6.878628 0.38349,-4.176998 0.14719,-14.035589 -0.41538,-17.330003 -1.612442,-9.442484 -5.153032,-16.126436 -10.807619,-20.402703 -2.958361,-2.237251 -6.2147,-3.727291 -10.109396,-4.625873 -2.876672,-0.663705 -3.659127,-0.733417 -8.333718,-0.742492 -4.958902,-0.0096 -5.292348,0.02339 -8.598282,0.851508 -7.839235,1.963673 -13.914749,6.529262 -17.557788,13.194216 -2.417146,4.422176 -3.339612,8.491234 -3.317915,14.635531 0.02376,6.727261 1.006721,10.543597 3.798964,14.749347 3.443553,5.186767 7.714322,7.993917 13.984157,9.191697 3.18787,0.60901 8.956713,0.43419 11.997079,-0.36356 1.818303,-0.4771 5.605177,-2.22634 8.999876,-4.15725 1.510628,-0.85924 2.498587,-0.73253 2.771665,0.3555 0.100725,0.40133 -0.03041,1.77346 -0.296696,3.10458 -1.654502,8.27046 -5.910429,13.9447 -12.389586,16.51849 -2.992675,1.18882 -6.105055,1.70436 -10.238537,1.69593 -4.159772,-0.008 -6.696722,-0.38592 -9.701496,-1.44338 -1.188807,-0.41836 -2.230521,-0.76067 -2.314922,-0.76067 -0.0844,0 -0.153457,2.96831 -0.153457,6.59624 0,6.05458 0.03802,6.60726 0.462984,6.73055 0.254642,0.0739 1.593989,0.26052 2.976329,0.41478 1.382339,0.15426 2.870503,0.32211 3.307031,0.373 2.403592,0.28021 10.452256,0.13237 13.152888,-0.24158 z m 0.936718,-40.186933 c -2.135527,-0.467419 -4.666932,-1.781043 -5.995764,-3.111385 -1.297494,-1.298973 -2.696021,-3.910879 -3.226601,-6.026043 -0.538509,-2.146774 -0.470152,-8.623081 0.115809,-10.972034 1.087892,-4.361051 3.35696,-7.593272 6.424096,-9.150939 1.555578,-0.79001 2.094939,-0.921802 4.098066,-1.001351 4.745481,-0.188453 7.807929,1.564867 10.09516,5.779699 2.251765,4.14948 3.104659,8.751598 3.104659,16.752391 0,6.013799 0.0364,5.920168 -2.645625,6.80559 -3.900765,1.287766 -8.637479,1.653442 -11.9698,0.924072 z m 9.456456,-1.183481 c 1.164075,-0.281579 2.553208,-0.695773 3.086963,-0.920431 0.947221,-0.398683 0.975066,-0.45137 1.162665,-2.199755 0.258605,-2.410167 -0.0541,-9.432796 -0.550986,-12.373792 -0.970968,-5.747041 -3.473999,-10.179087 -6.642368,-11.761446 -2.557139,-1.277099 -6.160473,-1.329808 -8.694807,-0.127186 -1.829531,0.86817 -3.523554,2.688571 -4.629833,4.975238 -1.403604,2.901237 -1.920909,5.39566 -1.92752,9.294456 -0.0085,5.034516 1.017359,8.157221 3.493299,10.633161 2.92904,2.929041 8.771493,3.914435 14.702587,2.479755 z m -8.661056,-0.668351 c -5.801068,-1.21186 -8.49733,-5.162442 -8.493383,-12.444565 0.0021,-3.708499 0.468792,-5.960172 1.816391,-8.761945 3.274424,-6.807807 11.770246,-7.229376 15.467356,-0.767503 2.153044,3.763126 2.901375,7.383365 3.103154,15.012276 l 0.14502,5.482828 -0.762774,0.294738 c -3.398498,1.313201 -8.229486,1.820547 -11.275764,1.184171 z m 9.098629,-1.450421 1.760386,-0.553677 0.185816,-1.600997 c 0.232156,-2.000262 -0.04912,-7.282829 -0.55519,-10.426845 -0.956272,-5.940957 -3.661611,-10.403203 -6.841227,-11.284069 -6.49371,-1.798988 -11.257951,3.741781 -11.257951,13.092888 0,6.513717 2.727213,10.427694 7.936875,11.390649 1.648787,0.304763 7.04669,-0.07553 8.771291,-0.617949 z"
         id="path316" />
    </g>
  </g>
  <g
     inkscape:label="Warstwa 1"
     inkscape:groupmode="layer"
     id="layer1">
    <g
       id="g1291"
       transform="matrix(0.60727985,0,0,0.60727985,-4.2394895,-19.060849)">
      <path
         style="fill:#f0dbe7;stroke-width:0.264779"
         d="m 131.92493,127.29767 c -12.42753,-2.0009 -18.36179,-13.08896 -12.97795,-24.24907 0.63228,-1.31066 1.65294,-2.95458 2.26813,-3.653157 l 1.11852,-1.270149 -0.80684,-1.774807 c -1.00073,-2.201287 -1.753,-4.654929 -2.35058,-7.666768 -0.6781,-3.417631 -0.60959,-10.308191 0.14394,-14.477604 0.314,-1.737425 0.60569,-3.19374 0.64821,-3.236256 0.0425,-0.04252 1.32173,0.857457 2.84269,1.999942 3.26908,2.455588 6.58254,5.832491 7.50061,7.644209 0.70419,1.389647 1.51814,5.18266 2.03014,9.460433 l 0.31691,2.647786 h 2.73628 2.73628 l 0.16368,-1.456282 c 0.32222,-2.866909 1.17225,-7.83482 1.56507,-9.146843 0.53545,-1.788414 1.60652,-3.337182 3.77357,-5.456566 1.73083,-1.692769 6.98555,-5.851696 7.16578,-5.671468 0.31121,0.311214 1.15031,6.442105 1.28911,9.418952 0.25462,5.46055 -0.81798,11.521806 -2.79156,15.77512 l -0.7468,1.609462 1.30089,1.567882 c 3.48161,4.196134 5.06813,10.847024 3.78723,15.876494 -1.40038,5.4986 -5.8622,9.75709 -12.04993,11.50079 -2.20401,0.62108 -7.40572,0.9214 -9.66338,0.5579 z"
         id="path1305" />
      <path
         style="fill:#e9cbd7;stroke-width:0.264779"
         d="m 132.11459,127.27456 c -5.76508,-0.81028 -10.72589,-3.91995 -13.09226,-8.20686 -1.10904,-2.00913 -1.85578,-4.40808 -1.7374,-5.58151 l 0.0834,-0.82652 1.77897,2.01928 c 0.97843,1.1106 2.32612,2.49284 2.99486,3.07163 l 1.2159,1.05235 2.83026,-0.0148 2.83027,-0.0148 -3.16178,-0.99762 c -1.73898,-0.54869 -3.2085,-1.13779 -3.2656,-1.3091 -0.16361,-0.49081 0.33901,-0.3867 4.70632,0.97482 2.62257,0.81759 4.10407,1.40779 4.10407,1.63497 0,0.22245 -0.74329,0.53849 -1.98584,0.84436 -2.8815,0.70932 -2.89405,0.71618 -2.09006,1.14174 0.87572,0.46352 4.40412,1.44733 5.19082,1.44733 0.55101,0 0.58409,-0.087 0.43813,-1.15183 -0.0924,-0.67416 -0.0315,-1.38789 0.14677,-1.72106 0.27241,-0.50899 0.52685,-0.56924 2.40425,-0.56924 1.87739,0 2.13184,0.0602 2.40424,0.56924 0.18154,0.33921 0.23886,1.04923 0.14184,1.75703 l -0.16281,1.1878 1.1389,-0.1561 c 1.41403,-0.19382 5.57988,-1.4932 5.39142,-1.68166 -0.0762,-0.0761 -1.18944,-0.40262 -2.47399,-0.7255 -1.48549,-0.37339 -2.33553,-0.71636 -2.33553,-0.94234 0,-0.22689 1.48321,-0.81768 4.10406,-1.63474 4.36731,-1.36152 4.86993,-1.46563 4.70633,-0.97482 -0.0571,0.17131 -1.52663,0.76041 -3.26561,1.3091 l -3.16178,0.99762 2.91844,0.0148 c 2.89908,0.0147 2.92521,0.009 3.94182,-0.82877 3.67697,-3.03086 3.95085,-12.25069 0.53593,-18.040884 -1.24685,-2.114115 -1.13933,-2.342158 0.31335,-0.664589 2.56359,2.960443 4.34254,7.964163 4.33398,12.190273 -0.0148,7.28437 -5.02278,13.37109 -12.5948,15.30769 -2.35939,0.60343 -6.93004,0.85959 -9.32685,0.52272 z m -5.21425,-7.52634 1.32389,-0.36839 -1.98584,-0.0152 c -1.80126,-0.0139 -1.93806,0.0209 -1.47187,0.37349 0.61665,0.46641 0.49618,0.46584 2.13382,0.0101 z m 19.46123,-0.0186 c 0.61388,-0.35092 0.50812,-0.37719 -1.45628,-0.36179 l -2.11823,0.0166 1.1915,0.34518 c 1.54234,0.44682 1.60139,0.44682 2.38301,0 z m -16.5607,-5.8131 c -0.55298,-0.55297 -0.64991,-0.8996 -0.64991,-2.32409 0,-2.01291 0.46706,-2.85112 1.58867,-2.85112 1.12161,0 1.58867,0.83821 1.58867,2.85112 0,1.42449 -0.0969,1.77112 -0.64991,2.32409 -0.35745,0.35746 -0.77989,0.64992 -0.93876,0.64992 -0.15887,0 -0.58131,-0.29246 -0.93876,-0.64992 z m 9.53203,0 c -0.55298,-0.55297 -0.64991,-0.8996 -0.64991,-2.32409 0,-2.01291 0.46706,-2.85112 1.58867,-2.85112 1.12162,0 1.58867,0.83821 1.58867,2.85112 0,1.42449 -0.0969,1.77112 -0.64991,2.32409 -0.35745,0.35746 -0.77989,0.64992 -0.93876,0.64992 -0.15887,0 -0.58131,-0.29246 -0.93876,-0.64992 z M 125.30399,97.212706 c -1.39447,-0.688303 -3.1313,-4.567236 -3.8483,-8.594546 -0.60143,-3.378139 -0.19224,-11.591021 0.60195,-12.081858 0.47134,-0.291303 4.75976,3.514935 6.05514,5.374316 0.4228,0.606886 0.94486,1.779643 1.16014,2.606128 0.54168,2.07966 1.26692,8.55131 1.07444,9.587777 -0.21224,1.142886 -1.33371,2.424264 -2.64173,3.018416 -1.29271,0.587198 -1.38675,0.590712 -2.40164,0.08977 z m 18.15293,0.113338 c -1.13246,-0.451961 -2.30001,-1.494432 -2.76044,-2.464719 -0.3895,-0.820808 -0.40958,-1.286107 -0.16347,-3.788041 0.38525,-3.916512 1.00116,-7.123913 1.5856,-8.25718 0.26941,-0.52239 0.94245,-1.474776 1.49566,-2.116413 0.99717,-1.156579 4.71432,-4.261348 5.10184,-4.261348 0.22147,0 0.72501,3.052746 0.98266,5.957519 0.17964,2.025131 -0.21676,5.97203 -0.85096,8.472917 -0.22157,0.873769 -0.87958,2.581067 -1.46223,3.793995 -0.87749,1.826686 -1.21399,2.269925 -1.95991,2.581591 -1.03233,0.431335 -1.08696,0.433602 -1.96875,0.08168 z"
         id="path1303" />
      <path
         style="fill:#e1b5c3;stroke-width:0.264779"
         d="m 132.50799,127.2755 c -7.52373,-0.93449 -12.92779,-5.16873 -14.84537,-11.63178 -0.89316,-3.0103 -0.68308,-2.9918 2.44358,0.21518 l 2.87028,2.94403 3.02104,-0.0274 3.02105,-0.0274 -3.24354,-1.0482 c -1.78394,-0.57651 -3.24354,-1.15991 -3.24354,-1.29645 0,-0.13655 0.0923,-0.24826 0.20514,-0.24826 0.36728,0 8.57791,2.60488 8.74858,2.77554 0.27988,0.27989 -0.427,0.56767 -2.63063,1.07096 -1.16191,0.26538 -2.16773,0.57174 -2.23513,0.68081 -0.15303,0.2476 2.3649,1.20197 4.49935,1.70539 2.09232,0.49348 2.33127,0.48507 2.17719,-0.0766 -0.74857,-2.72876 -0.39788,-3.24354 2.20966,-3.24354 2.61384,0 2.9627,0.51854 2.20084,3.27132 -0.12241,0.44229 -0.0213,0.47324 1.01604,0.3112 1.36442,-0.21313 5.22749,-1.35522 5.76488,-1.70435 0.3914,-0.25429 0.41527,-0.24561 -3.24854,-1.1812 -1.59859,-0.40821 -1.95868,-0.58809 -1.69839,-0.84838 0.16089,-0.16089 8.38615,-2.76115 8.73418,-2.76115 0.11283,0 0.20514,0.11171 0.20514,0.24826 0,0.13654 -1.45959,0.71994 -3.24354,1.29645 l -3.24354,1.0482 3.04496,0.0262 3.04495,0.0262 0.86498,-0.81069 c 1.77313,-1.66184 2.96047,-5.17873 2.96972,-8.79625 0.007,-2.86544 -0.66342,-5.59569 -2.09508,-8.52795 l -1.29276,-2.647788 1.05072,1.177902 c 1.46872,1.646496 2.87414,4.266256 3.62766,6.762106 0.85891,2.84491 0.95731,7.72602 0.20023,9.93255 -1.56297,4.55534 -4.35286,7.63383 -8.76759,9.67456 -3.26299,1.50833 -8.17969,2.20154 -12.13252,1.71058 z m -5.34287,-7.52728 1.32389,-0.36839 -2.23503,-0.0237 c -2.01933,-0.0214 -2.18543,0.0138 -1.72106,0.36507 0.64045,0.48441 0.97597,0.48785 2.6322,0.027 z m 19.34443,-0.0101 c 0.46444,-0.35129 0.29709,-0.38706 -1.73665,-0.37118 l -2.25062,0.0176 1.1915,0.34518 c 1.60897,0.46612 2.18833,0.46786 2.79577,0.008 z m -16.45842,-5.63903 c -0.5774,-0.38554 -0.90017,-1.37732 -0.90017,-2.76599 0,-1.74174 0.52102,-2.59172 1.58867,-2.59172 1.06765,0 1.58867,0.84998 1.58867,2.59172 0,1.89363 -0.57251,2.96052 -1.58867,2.96052 -0.21844,0 -0.52827,-0.0875 -0.6885,-0.19453 z m 9.53203,0 c -0.5774,-0.38554 -0.90017,-1.37732 -0.90017,-2.76599 0,-1.74174 0.52102,-2.59172 1.58867,-2.59172 1.06765,0 1.58867,0.84998 1.58867,2.59172 0,1.89363 -0.57251,2.96052 -1.58867,2.96052 -0.21844,0 -0.52827,-0.0875 -0.6885,-0.19453 z M 124.74968,96.685547 c -0.7685,-0.768504 -1.9621,-3.291264 -2.56418,-5.4196 -1.05207,-3.719053 -1.2355,-9.411949 -0.42843,-13.296564 l 0.31453,-1.513914 1.16747,0.83841 c 1.87629,1.347454 4.77324,4.373322 5.37286,5.611968 0.75099,1.551357 1.80747,8.890117 1.631,11.329646 -0.0439,0.607189 -1.51757,2.258666 -2.44202,2.73672 -1.13964,0.58933 -2.28262,0.481947 -3.05123,-0.286666 z m 17.88425,0.06826 c -0.49136,-0.331129 -1.1771,-1.016244 -1.52386,-1.522478 -0.58986,-0.861144 -0.62014,-1.082428 -0.47011,-3.435821 0.24398,-3.827168 0.8967,-7.395643 1.6289,-8.905248 0.63799,-1.315375 3.68319,-4.506291 5.59557,-5.863323 l 0.84092,-0.596715 0.34803,1.526539 c 0.21932,0.961941 0.34099,3.191347 0.32897,6.027777 -0.0211,4.969917 -0.4268,7.129234 -1.95216,10.389036 -1.39457,2.980277 -2.84081,3.698006 -4.79626,2.380233 z"
         id="path1301" />
      <path
         style="fill:#caa8b5;stroke-width:0.264779"
         d="m 132.99025,127.24572 c -3.96067,-0.31805 -7.70591,-1.78108 -10.4961,-4.10015 -1.48936,-1.23789 -1.64037,-1.66008 -0.28853,-0.8067 1.25264,0.79076 3.64523,1.80028 5.48906,2.31603 0.88941,0.24879 2.75767,0.37032 5.69274,0.37032 2.93507,0 4.80332,-0.12153 5.69274,-0.37032 2.04013,-0.57066 4.32695,-1.57244 5.92918,-2.59738 l 1.45526,-0.93092 -1.04123,-0.35795 c -0.57268,-0.19688 -2.14482,-0.62401 -3.49364,-0.94918 -1.34882,-0.32517 -2.4524,-0.66469 -2.4524,-0.75448 0,-0.21483 8.80025,-2.93555 8.96435,-2.77145 0.21201,0.21201 0.0181,0.29126 -3.404,1.39093 l -3.30974,1.06358 3.47608,0.0274 3.47607,0.0274 0.94398,-1.39009 c 1.68255,-2.47769 2.15195,-4.31559 2.14708,-8.40672 -0.004,-3.16227 -0.0858,-3.81881 -0.71169,-5.69275 -0.38909,-1.16502 -1.13402,-2.82663 -1.6554,-3.692468 -1.2706,-2.110021 -0.22773,-1.172125 1.29839,1.167698 2.77518,4.25486 3.84517,9.42806 2.90448,14.04265 -1.30422,6.39794 -7.83123,11.81116 -14.87183,12.33406 -0.97524,0.0724 -2.13062,0.16321 -2.56751,0.20173 -0.43688,0.0385 -1.86669,-0.0161 -3.17734,-0.12132 z m 14.56282,-7.38368 c 0.47658,-0.52661 0.46316,-0.52941 -2.40816,-0.50395 l -2.88741,0.0256 1.72106,0.47834 c 2.28251,0.63439 3.0004,0.63439 3.57451,0 z m -13.39426,3.63229 c -0.23106,-0.17741 -0.55873,-0.58281 -0.72814,-0.9009 -0.40237,-0.75547 -0.39618,-2.80211 0.01,-3.20799 0.18294,-0.18294 1.05912,-0.31774 2.06528,-0.31774 1.00616,0 1.88233,0.1348 2.06527,0.31774 0.40588,0.40588 0.41207,2.45252 0.01,3.20799 -0.16942,0.31809 -0.49708,0.72349 -0.72814,0.9009 -0.54169,0.41589 -2.15199,0.41589 -2.69368,0 z m -11.62732,-2.27389 c 0,-0.15906 0.32767,-0.37237 0.72814,-0.47402 0.40048,-0.10165 1.8005,-0.44834 3.11115,-0.77041 l 2.38301,-0.58559 -3.64071,-0.029 c -2.2313,-0.0178 -3.6407,-0.13148 -3.6407,-0.29376 0,-0.16331 1.49664,-0.27529 3.90548,-0.29221 l 3.90549,-0.0274 -3.30973,-1.06358 c -3.42206,-1.09967 -3.61602,-1.17892 -3.404,-1.39093 0.16591,-0.16592 8.96435,2.55787 8.96435,2.77515 0,0.0918 -0.92342,0.38334 -2.05204,0.64779 -1.12862,0.26445 -2.73381,0.69724 -3.56709,0.96175 -2.19343,0.69626 -3.38335,0.88696 -3.38335,0.54221 z m 7.26785,-7.4633 c -0.33765,-0.3731 -0.52642,-1.07253 -0.59959,-2.22161 -0.0915,-1.43766 -0.0271,-1.75682 0.45177,-2.23564 0.72123,-0.72123 1.45539,-0.70858 2.15953,0.0372 0.47729,0.50551 0.54728,0.84416 0.46208,2.23563 -0.10562,1.72503 -0.66977,2.72897 -1.5335,2.72897 -0.24611,0 -0.66924,-0.24505 -0.94029,-0.54455 z m 9.53203,0 c -0.33638,-0.3717 -0.52467,-1.06504 -0.59321,-2.18442 -0.0852,-1.39147 -0.0152,-1.73012 0.46208,-2.23563 0.30937,-0.32766 0.79151,-0.59575 1.07142,-0.59575 0.27991,0 0.76205,0.26809 1.07142,0.59575 0.47729,0.50551 0.54728,0.84416 0.46208,2.23563 -0.10562,1.72503 -0.66977,2.72897 -1.5335,2.72897 -0.24611,0 -0.66924,-0.24505 -0.94029,-0.54455 z"
         id="path1299" />
      <path
         style="fill:#df7c97;stroke-width:0.264779"
         d="m 131.02432,127.00337 c -3.16688,-0.66299 -6.7127,-2.31377 -8.56615,-3.98804 l -1.11818,-1.01009 2.03294,1.05258 c 3.25998,1.68789 5.50658,2.17606 10.01449,2.17606 3.05843,0 4.25049,-0.11168 5.86104,-0.54912 2.11653,-0.57485 5.05695,-1.94686 6.51275,-3.03887 l 0.85593,-0.64203 -3.56991,-0.89769 c -1.96345,-0.49373 -3.5699,-0.96472 -3.5699,-1.04664 0,-0.0819 1.87661,-0.72509 4.17026,-1.42925 2.29364,-0.70417 4.3192,-1.33689 4.50124,-1.40605 0.18203,-0.0692 0.33097,-0.0182 0.33097,0.11332 0,0.13149 -1.57874,0.7326 -3.50832,1.3358 l -3.50831,1.09671 3.59769,0.0165 3.5977,0.0164 2.49221,-2.94336 c 2.72162,-3.21429 3.08147,-3.26497 2.22335,-0.31313 -1.52222,5.23624 -5.51329,9.0739 -11.3814,10.94391 -1.50049,0.47817 -2.60979,0.60661 -5.82513,0.67447 -2.18442,0.0461 -4.4989,-0.0265 -5.14327,-0.16144 z m 16.66114,-7.00894 0.62187,-0.66195 -3.1573,0.0295 -3.15731,0.0295 2.38301,0.61335 c 1.31066,0.33735 2.4516,0.62195 2.53544,0.63246 0.0838,0.0105 0.43227,-0.27877 0.77429,-0.64284 z m -13.14564,3.5863 c -0.84935,-0.35766 -1.01823,-0.80482 -0.3075,-0.81418 0.59155,-0.008 0.59421,-0.0179 0.0818,-0.31175 -0.81351,-0.46655 -1.17385,-1.05866 -1.18308,-1.94405 -0.0124,-1.18579 0.41095,-1.44305 2.37459,-1.44305 1.96363,0 2.38695,0.25726 2.37458,1.44305 -0.009,0.88539 -0.36957,1.4775 -1.18308,1.94405 -0.50535,0.28982 -0.49972,0.30407 0.12293,0.31175 0.57561,0.007 0.60639,0.0542 0.26124,0.39931 -0.50627,0.50627 -1.81654,0.72015 -2.5415,0.41487 z m -12.00833,-2.34247 c 0,-0.15082 1.4596,-0.62863 3.24354,-1.06181 l 3.24354,-0.78759 -3.7731,-0.0282 c -2.32008,-0.0173 -3.77309,-0.13015 -3.77309,-0.29297 0,-0.16422 1.53343,-0.27102 4.03787,-0.2812 l 4.03788,-0.0165 -3.50832,-1.09672 c -1.92957,-0.60318 -3.50832,-1.20429 -3.50832,-1.33578 0,-0.13149 0.14894,-0.18248 0.33098,-0.11332 0.18203,0.0692 2.20759,0.70188 4.50123,1.40605 2.29365,0.70416 4.17006,1.34544 4.16981,1.42506 -2.5e-4,0.0796 -1.75772,0.59492 -3.90549,1.14513 -2.14776,0.55021 -4.17311,1.0705 -4.50078,1.15619 -0.33461,0.0875 -0.59575,0.0356 -0.59575,-0.1184 z m 7.31712,-8.27968 c -0.53954,-0.42441 -0.69765,-0.78163 -0.69765,-1.57622 0,-1.87609 0.85243,-2.91038 2.07805,-2.52139 1.18115,0.37489 1.50812,3.11088 0.48648,4.07067 -0.75942,0.71343 -0.98991,0.71676 -1.86688,0.0269 z m 9.48429,-0.10114 c -1.03878,-1.03878 -0.74897,-3.61612 0.44939,-3.99647 1.22561,-0.38899 2.07804,0.6453 2.07804,2.52139 0,0.79459 -0.15811,1.15181 -0.69765,1.57622 -0.88674,0.6975 -1.03958,0.68906 -1.82978,-0.10114 z"
         id="path1297" />
      <path
         style="fill:#b5919c;stroke-width:0.264779"
         d="m 131.02432,127.00337 c -3.16688,-0.66299 -6.7127,-2.31377 -8.56615,-3.98804 l -1.11818,-1.01009 2.03294,1.05258 c 3.25998,1.68789 5.50658,2.17606 10.01449,2.17606 3.05959,0 4.2503,-0.11163 5.86313,-0.54965 2.17346,-0.59028 4.84593,-1.82408 6.27256,-2.89585 0.72532,-0.5449 1.06743,-0.63352 1.91965,-0.49724 1.15436,0.18459 1.43325,-0.21313 0.34158,-0.48713 l -0.69546,-0.17455 0.60922,-0.64849 c 0.33508,-0.35667 0.88634,-0.64849 1.22502,-0.64849 0.6772,0 0.84825,-0.43992 0.22409,-0.57634 -0.26271,-0.0574 0.41305,-1.03223 2.05204,-2.96018 2.67235,-3.1435 3.02803,-3.1843 2.17487,-0.24953 -1.52222,5.23625 -5.51329,9.07391 -11.3814,10.94391 -1.50049,0.47817 -2.60979,0.60661 -5.82513,0.67448 -2.18442,0.0461 -4.4989,-0.0266 -5.14327,-0.16145 z m 3.5155,-3.42264 c -1.26752,-0.53375 -0.9273,-0.80612 1.00694,-0.80612 1.69891,0 1.87971,0.0461 1.53456,0.39125 -0.50627,0.50627 -1.81654,0.72015 -2.5415,0.41487 z m -4.69121,-10.62215 c -0.53954,-0.42441 -0.69765,-0.78163 -0.69765,-1.57622 0,-1.87609 0.85243,-2.91038 2.07805,-2.52139 1.18115,0.37489 1.50812,3.11088 0.48648,4.07067 -0.75942,0.71343 -0.98991,0.71676 -1.86688,0.0269 z m 9.48429,-0.10114 c -1.03878,-1.03878 -0.74897,-3.61612 0.44939,-3.99647 1.22561,-0.38899 2.07804,0.6453 2.07804,2.52139 0,0.79459 -0.15811,1.15181 -0.69765,1.57622 -0.88674,0.6975 -1.03958,0.68906 -1.82978,-0.10114 z"
         id="path1295" />
      <path
         style="fill:#060506;stroke-width:0.264779"
         d="m 129.56314,112.6541 c -0.64441,-0.92002 -0.52962,-2.49551 0.23773,-3.26285 0.35745,-0.35745 0.77989,-0.64991 0.93876,-0.64991 0.15887,0 0.58131,0.29246 0.93876,0.64991 1.2692,1.2692 0.63981,3.85132 -0.93876,3.85132 -0.48965,0 -0.91242,-0.21146 -1.17649,-0.58847 z m 9.53203,0 c -0.6444,-0.92002 -0.52961,-2.49551 0.23773,-3.26285 0.35745,-0.35745 0.77989,-0.64991 0.93876,-0.64991 0.15887,0 0.58131,0.29246 0.93876,0.64991 1.2692,1.2692 0.63981,3.85132 -0.93876,3.85132 -0.48965,0 -0.91242,-0.21146 -1.17649,-0.58847 z"
         id="path1293" />
    </g>
    <g
       id="g256"
       transform="matrix(0.24581144,0,0,0.24580522,31.742749,-0.48183666)">
      <path
         style="fill:#afe9dd;stroke-width:0.264562"
         d="m 81.199477,105.73097 c 0.294368,-0.50928 4.319615,-7.812622 8.944993,-16.229646 7.51207,-13.670079 8.383412,-15.37865 8.16279,-16.006031 l -0.246985,-0.70235 -19.372851,-0.06786 -19.372851,-0.06786 V 66.30944 59.961657 h 28.705032 28.705035 l -0.008,3.373172 -0.008,3.373172 -17.464586,19.445344 C 89.639227,96.848288 81.529085,105.8368 81.222216,106.12782 l -0.557943,0.52912 0.535215,-0.92597 z"
         id="path270" />
      <path
         style="fill:#c597b3;stroke-width:0.264562"
         d="m 60.169531,140.19299 c 0.06717,-0.40167 8.16043,-15.31431 17.985022,-33.1392 L 96.017446,74.64488 76.806181,74.512599 57.594917,74.380318 57.524954,66.245021 57.45499,58.109724 h 30.560792 30.560788 l -0.002,8.532141 -0.002,8.53214 -17.43786,32.805755 -17.437858,32.80575 -11.824529,0.0689 -11.824528,0.0689 0.12213,-0.73029 z m 40.086089,-32.8599 17.2627,-32.513318 V 66.993873 59.167974 H 88.019605 58.520886 v 7.143187 7.143188 h 19.476186 19.476184 l -0.118137,0.618007 c -0.06498,0.339905 -8.038941,15.013203 -17.719921,32.607324 -9.680979,17.59413 -17.741497,32.25719 -17.912262,32.58459 l -0.31048,0.59527 10.790232,-0.007 10.790229,-0.007 17.262703,-32.51331 z"
         id="path268" />
      <path
         style="fill:#00d4aa;stroke-width:0.264562"
         d="m 63.103286,138.60286 c 0.06383,-0.10913 4.002113,-7.2592 8.751733,-15.88903 l 8.635671,-15.69062 18.050833,-20.108355 18.050827,-20.108356 0.0736,3.758894 0.0736,3.75889 -17.13095,32.238497 -17.130945,32.23851 h -9.745258 c -5.359891,0 -9.693028,-0.0893 -9.629191,-0.19843 z"
         id="path266" />
      <path
         style="fill:#99ff55;stroke-width:0.264562"
         d="M 80.215011,151.91122 C 73.221468,151.07855 66.064314,148.94941 59.65719,145.79558 56.384144,144.18446 56.014474,143.922 53.80007,141.63703 44.35586,131.89187 38.971024,121.35877 36.796343,108.3766 36.009294,103.67816 35.951159,95.769889 36.669929,91.180036 38.736396,77.984175 44.394371,66.693774 53.474105,57.647565 64.164711,46.996433 77.949594,41.011293 93.046292,40.466059 c 5.022365,-0.181389 8.931658,0.155547 14.189068,1.222932 3.98068,0.80818 10.05325,2.798533 12.8549,4.213345 0.90529,0.45716 1.83448,0.8312 2.06488,0.8312 1.18862,0 6.89614,5.171978 10.07253,9.127407 6.89009,8.579957 10.97229,17.974617 12.70291,29.234156 0.6884,4.478794 0.62509,12.486818 -0.13492,17.064281 -2.15388,12.97276 -7.56552,23.58207 -16.67588,32.69243 -9.13217,9.13217 -19.93558,14.64221 -32.692425,16.67406 -4.234603,0.67447 -11.284231,0.85305 -15.212344,0.38535 z m 4.011942,-10.53045 c 0.225058,-0.18189 8.283899,-15.16459 17.908537,-33.2949 l 17.49933,-32.964201 v -8.505972 c 0,-8.153224 -0.0219,-8.527916 -0.52912,-9.035098 -0.52302,-0.523014 -0.88188,-0.529125 -31.067198,-0.529125 -27.409132,0 -30.580668,0.0426 -30.953812,0.415741 -0.360477,0.360475 -0.415742,1.5316 -0.415742,8.809932 0,6.176063 0.08389,8.47808 0.317475,8.711664 0.240903,0.240903 4.803281,0.317475 18.916219,0.317475 10.229309,0 18.598744,0.04017 18.598744,0.08926 0,0.04909 -7.976559,14.580513 -17.725687,32.292044 -9.749129,17.71154 -17.725688,32.42546 -17.725688,32.6976 0,0.27214 0.187083,0.68189 0.415741,0.91054 0.365692,0.3657 1.856504,0.41574 12.383872,0.41574 9.17989,0 12.063463,-0.077 12.377329,-0.3307 z"
         id="path264" />
      <path
         style="fill:#44aa00;stroke-width:0.264562"
         d="m 53.283538,142.09543 c -2.051468,-1.38154 -4.84024,-4.10085 -7.583773,-7.39486 C 38.72273,126.32361 34.511625,117.26744 32.536504,106.39238 31.74742,102.04767 31.682537,92.025266 32.414899,87.608443 34.535688,74.818124 40.11631,63.836896 49.020692,54.932515 65.536007,38.417201 89.708635,33.183937 111.69795,41.363175 c 3.84439,1.429975 11.42521,5.34975 10.37653,5.365335 -0.18603,0.0028 -1.07893,-0.369014 -1.98422,-0.826174 -2.80165,-1.414812 -8.87422,-3.405165 -12.8549,-4.213345 -5.25741,-1.067385 -9.166703,-1.404321 -14.189068,-1.222932 -15.096698,0.545234 -28.881581,6.530374 -39.572187,17.181506 -9.079734,9.046209 -14.737709,20.33661 -16.804176,33.532471 -0.71877,4.589853 -0.660635,12.498124 0.126414,17.196564 2.127179,12.6986 7.600966,23.57807 16.40572,32.60733 1.099657,1.12769 1.881529,2.05036 1.737491,2.05036 -0.144039,0 -0.889245,-0.42249 -1.656016,-0.93886 z"
         id="path262" />
      <path
         style="fill:#002b11;stroke-width:0.264562"
         d="m 59.465752,141.29573 c -0.228658,-0.22865 -0.415741,-0.6384 -0.415741,-0.91054 0,-0.27214 7.976559,-14.98606 17.725688,-32.6976 9.749128,-17.711535 17.725687,-32.242958 17.725687,-32.292048 0,-0.04909 -8.369435,-0.08926 -18.598744,-0.08926 -14.112938,0 -18.675316,-0.07657 -18.916219,-0.317475 -0.233584,-0.233584 -0.317475,-2.535601 -0.317475,-8.711664 0,-7.278332 0.05526,-8.449457 0.415742,-8.809932 0.373144,-0.373144 3.54468,-0.415741 30.953812,-0.415741 30.185318,0 30.544178,0.0061 31.067198,0.529125 0.50718,0.507182 0.52912,0.881874 0.52912,9.035098 v 8.505972 l -17.49933,32.964205 c -9.624638,18.13031 -17.683479,33.11301 -17.908537,33.2949 -0.313866,0.25366 -3.197439,0.3307 -12.377329,0.3307 -10.527368,0 -12.01818,-0.05 -12.383872,-0.41574 z m 41.668568,-33.31597 17.43786,-32.805755 0.002,-8.53214 0.002,-8.532141 H 88.015782 57.45499 l 0.06996,8.135297 0.06996,8.135297 19.211264,0.132281 19.211265,0.132281 -17.862893,32.40891 c -9.824592,17.82489 -17.917852,32.73753 -17.985022,33.1392 l -0.12213,0.73029 11.824528,-0.0689 11.824529,-0.0689 z m -39.411384,31.28451 c 0.09972,-0.19119 2.889844,-5.27083 7.121986,-12.96797 3.01527,-5.48398 6.762526,-12.29662 10.790276,-19.61662 9.680975,-17.594124 17.654944,-32.267419 17.719921,-32.607324 l 0.118137,-0.618007 H 77.997072 58.520886 v -7.143188 -7.143187 h 29.498719 29.498715 v 7.825899 7.825899 l -17.2627,32.513318 -17.262703,32.51331 -10.790229,0.007 -10.790232,0.007 0.31048,-0.59527 z M 99.601185,106.57689 116.72464,74.352499 v -7.19542 -7.195418 H 88.019605 59.314573 v 6.347783 6.347783 l 19.372851,0.06786 19.372851,0.06786 0.247049,0.702535 c 0.221791,0.630704 -1.500096,3.876679 -16.841049,31.747498 -9.398453,17.07473 -17.404215,31.61047 -17.790579,32.30163 l -0.702485,1.25668 h 9.752261 9.752263 z m -49.439154,33.21651 -0.503989,-0.59527 0.595266,0.50399 c 0.559401,0.47362 0.715705,0.68654 0.503989,0.68654 -0.0502,0 -0.318073,-0.26787 -0.595266,-0.59526 z M 123.3387,47.239023 c -0.56981,-0.466074 -0.58101,-0.501702 -0.0809,-0.257257 0.3193,0.156057 0.65372,0.402154 0.74316,0.546881 0.23879,0.386366 0.0784,0.316235 -0.66228,-0.289624 z"
         id="path260"
         sodipodi:nodetypes="csssssssssscssscccccccccccsscccccssscccccccccccccccccccccccccsssccccscssscsscc" />
      <path
         style="fill:#338000;stroke-width:0.264562"
         d="M 46.204569,136.35408 C 36.214546,126.82568 30.381028,115.86802 28.070787,102.29166 27.22646,97.329892 27.218365,89.218118 28.052702,84.16913 30.34407,70.30292 36.709214,58.521412 46.878278,49.324094 55.411311,41.60647 65.576527,36.775818 77.437105,34.802117 c 4.459568,-0.742111 12.541093,-0.818519 16.959102,-0.160343 9.557623,1.423854 17.401793,4.456519 25.317313,9.788022 3.2043,2.158259 4.07005,3.092212 1.32577,1.430207 C 109.63226,38.951622 95.252818,36.161948 81.867265,38.260458 69.141552,40.255522 58.086361,45.866845 49.020692,54.932515 40.11631,63.836896 34.535688,74.818124 32.414899,87.608443 c -0.732362,4.416823 -0.667479,14.439227 0.121605,18.783937 2.206164,12.14719 7.586158,22.77398 15.905277,31.4168 2.540897,2.63976 1.016549,1.64832 -2.237212,-1.4551 z"
         id="path258" />
    </g>
    <g
       id="g285"
       transform="matrix(0.2460895,0,0,0.24580109,1.5057713,42.118868)">
      <path
         style="fill:#e6af7f;stroke-width:0.264562"
         d="m 85.707569,120.11546 c -6.781562,-0.70299 -12.21039,-2.356 -16.667437,-5.07504 -6.883289,-4.19918 -10.759609,-11.94583 -10.231444,-20.447089 0.188072,-3.027183 0.698276,-5.029455 1.955016,-7.672366 1.623382,-3.413951 5.936579,-7.285493 10.892848,-9.777462 l 1.690454,-0.849947 -1.425892,-0.81086 C 68.369866,73.4632 64.818196,69.990881 63.379241,67.131653 61.414126,63.226944 60.480347,57.974558 61.068374,54.133322 62.33048,45.888711 67.193301,40.231909 76.081931,36.668408 c 4.039425,-1.619426 8.277222,-2.408347 13.858639,-2.579966 14.09723,-0.433465 24.2954,3.368323 29.36411,10.946671 1.81481,2.713355 2.66405,5.47575 2.84356,9.249465 0.16917,3.556484 -0.27998,5.795963 -1.79663,8.958044 -1.85374,3.864866 -5.10616,6.997492 -10.19795,9.822332 l -1.01418,0.562648 1.71059,0.860111 c 3.08739,1.552381 5.37966,3.201651 7.67227,5.520131 2.55709,2.585948 4.0424,5.198063 5.05923,8.89734 0.85677,3.116996 0.85887,9.127459 0.004,12.302156 -1.14455,4.25191 -3.16932,7.62796 -6.42613,10.71478 -4.99969,4.73872 -12.18667,7.51018 -21.576606,8.32041 -3.919004,0.33816 -5.595629,0.31659 -9.875565,-0.12707 z m 10.100666,-0.92166 c 11.320395,-1.07351 19.382585,-5.17905 24.059325,-12.25182 2.21386,-3.34808 3.15254,-6.37616 3.33592,-10.761327 0.19395,-4.637977 -0.62962,-8.360323 -2.61125,-11.802226 -2.03918,-3.541854 -6.05186,-6.950705 -10.88214,-9.244597 -1.65042,-0.783779 -2.04383,-1.084537 -2.04383,-1.562464 0,-0.440994 0.28659,-0.720104 1.12439,-1.095018 1.9966,-0.893481 5.57812,-3.40792 7.27734,-5.109128 1.87747,-1.879669 3.44988,-4.38138 4.33846,-6.902505 0.51491,-1.460938 0.60716,-2.256993 0.61315,-5.29125 0.006,-3.234276 -0.0631,-3.775836 -0.73553,-5.734162 -0.83818,-2.440964 -2.56232,-5.052606 -4.72042,-7.150267 -1.34574,-1.308042 -4.99982,-3.619789 -6.70686,-4.243077 -5.31051,-1.939018 -7.81219,-2.482773 -13.680267,-2.97349 -10.212094,-0.853984 -20.982692,2.132007 -26.74898,7.415761 -3.944659,3.614564 -6.094033,7.936034 -6.431993,12.931969 -0.188768,2.790476 0.364778,6.186363 1.480314,9.081407 1.142815,2.965843 1.424629,3.43305 3.243841,5.377793 1.976207,2.112572 3.999817,3.702328 6.373572,5.007108 1.098935,0.604049 1.76723,1.140365 1.76723,1.418221 0,0.293715 -0.702604,0.794394 -2.050359,1.4611 -3.334554,1.649531 -5.612728,3.262047 -8.030676,5.684204 -3.814335,3.820973 -5.208402,7.689422 -4.913754,13.635366 0.45813,9.245042 5.278715,15.632822 14.672208,19.442212 5.623083,2.28036 14.114621,3.34476 21.270309,2.66619 z m -7.984166,-13.4619 c -4.771358,-1.55323 -7.286104,-4.07239 -8.609461,-8.62458 -0.624177,-2.147094 -0.412625,-6.698654 0.422969,-9.100283 0.609605,-1.752097 3.131211,-5.770434 4.315626,-6.877218 l 0.67652,-0.632177 5.102625,2.046348 c 7.86452,3.153974 11.940722,5.667776 13.203202,8.14243 0.29613,0.580463 0.71464,1.90054 0.93002,2.933506 1.22539,5.877026 -1.81953,10.672444 -7.758922,12.219464 -2.121899,0.55268 -6.426175,0.49682 -8.282579,-0.10749 z m 8.193475,-0.98815 c 2.069003,-0.58657 3.194208,-1.22115 4.616786,-2.60373 1.83224,-1.78074 2.3754,-3.180768 2.36337,-6.091648 -0.0136,-3.28053 -0.67425,-4.95556 -2.64875,-6.715406 -1.78841,-1.593979 -6.261604,-3.91797 -11.564661,-6.00827 L 84.850101,81.77396 83.95542,82.826228 c -4.24039,4.987284 -5.341835,11.448866 -2.799193,16.421368 1.372349,2.683834 4.550573,5.001164 7.726092,5.633304 0.800302,0.15932 1.6932,0.34254 1.984219,0.40717 0.850386,0.18884 3.583756,-0.1 5.151006,-0.54432 z m -2.33133,-36.872729 c -9.1455,-3.548458 -12.013397,-5.997219 -12.398119,-10.586167 -0.199612,-2.380978 0.241821,-4.030898 1.538593,-5.750721 3.299613,-4.376052 12.323855,-4.991432 16.71091,-1.139547 0.536032,0.47064 1.356142,1.630736 1.822472,2.577989 1.99748,4.057452 1.08636,9.891516 -2.35401,15.073078 -0.516431,0.777803 -1.011401,1.41105 -1.099932,1.407213 -0.08853,-0.0038 -1.987491,-0.715665 -4.219914,-1.581845 z m 4.672057,-0.858384 c 2.034059,-2.967116 2.948019,-5.828418 2.954579,-9.249764 0.009,-4.585466 -2.154071,-7.358977 -6.677865,-8.563285 -3.904162,-1.039349 -8.864288,0.303999 -10.882625,2.947333 -1.245364,1.631004 -1.574861,2.752921 -1.424333,4.849771 0.296048,4.123948 2.865804,6.357638 11.037492,9.594034 2.117786,0.838748 3.934089,1.52979 4.036232,1.535651 0.102142,0.0058 0.532574,-0.495325 0.95652,-1.11374 z"
         id="path299" />
      <path
         style="fill:#ffd42a;stroke-width:0.264562"
         d="M 80.945444,131.51037 C 73.805802,130.653 66.584839,128.53858 60.479985,125.51772 57.658756,124.12169 56.981347,123.64763 54.922969,121.62888 45.592497,112.47802 39.696673,101.30378 37.516725,88.639188 36.66872,83.712621 36.660307,74.30108 37.499561,69.43599 39.655023,56.940931 45.209084,46.180198 54.083067,37.306213 64.839969,26.549311 78.407359,20.640384 93.644444,20.076271 c 7.563026,-0.280001 14.617796,0.807738 21.951516,3.384591 5.7905,2.034612 9.45939,3.988218 12.11159,6.449162 9.67588,8.978138 16.12508,21.808697 17.93892,35.689162 0.54466,4.168081 0.40503,12.62833 -0.27331,16.559654 -2.18243,12.648284 -7.7216,23.45632 -16.5419,32.27663 -9.045,9.04499 -20.02079,14.62871 -32.805753,16.68928 -4.320224,0.6963 -11.058162,0.8686 -15.080063,0.38562 z m 15.713714,-10.47006 c 11.042812,-1.04716 19.835902,-5.46163 24.486082,-12.29294 1.68908,-2.48132 2.20769,-3.55726 2.99675,-6.21722 2.64455,-8.91483 0.56784,-17.970368 -5.43857,-23.71503 -1.99488,-1.907949 -4.64071,-3.810118 -6.59791,-4.743442 l -0.95242,-0.454177 2.0266,-1.318379 c 5.9371,-3.862308 9.0325,-8.559647 9.85214,-14.950821 0.56481,-4.404209 -0.58146,-9.335873 -3.00312,-12.920462 -2.16063,-3.198196 -4.62442,-5.296354 -8.44202,-7.189211 -3.9866,-1.976653 -6.4937,-2.78405 -10.79906,-3.477768 -11.377813,-1.833298 -22.285388,-0.196058 -30.086466,4.516017 -4.61188,2.785706 -7.973041,6.901502 -9.632448,11.79509 -0.845952,2.494714 -0.87748,2.736204 -0.87326,6.688873 0.0051,4.761564 0.456277,6.882758 2.233161,10.498758 1.298981,2.643459 4.196327,5.841289 6.978204,7.701925 l 1.902932,1.272758 -1.846488,1.044201 c -4.697151,2.656274 -8.321562,6.353884 -10.042578,10.245408 -1.465009,3.312645 -1.994714,7.776333 -1.388345,11.699232 0.857675,5.548708 2.595464,9.283468 6.031658,12.962908 6.205697,6.645 19.062725,10.13754 32.595158,8.85428 z m -8.173682,-17.13897 c -1.949654,-0.58504 -2.589178,-0.91704 -4.065297,-2.11045 -3.466795,-2.802824 -4.650183,-8.168215 -2.878262,-13.049809 0.644818,-1.776452 2.915978,-5.467142 3.502955,-5.692385 0.467911,-0.179556 8.491832,3.116086 11.20291,4.601337 1.296988,0.710549 2.937869,1.892768 3.781758,2.724674 1.25141,1.233647 1.54309,1.703671 1.81714,2.928265 0.17955,0.80231 0.28119,2.355101 0.22587,3.450649 -0.0833,1.648433 -0.23789,2.213983 -0.89685,3.279819 -1.652428,2.67274 -4.518354,4.08981 -8.589506,4.24711 -1.881512,0.0727 -2.912393,-0.0226 -4.100718,-0.37921 z m 5.820375,-37.900321 c -7.055914,-2.733166 -10.293593,-5.058832 -10.970428,-7.8802 -0.655507,-2.732455 0.183519,-5.035381 2.426509,-6.660195 3.090936,-2.239064 8.902232,-2.195255 11.898,0.08969 3.327738,2.538147 3.756238,7.607013 1.087772,12.867299 -0.696908,1.373794 -1.386156,2.522646 -1.531666,2.553007 -0.145509,0.03036 -1.455094,-0.405961 -2.910187,-0.969603 z"
         id="path297" />
      <path
         style="fill:#99ff55;stroke-width:0.264562"
         d="m 63.591996,106.81431 c -1.356972,-2.30376 -1.538393,-2.74851 -2.249789,-5.51522 -1.100625,-4.280499 -0.733145,-9.721147 0.871797,-12.907162 1.970832,-3.912359 5.356645,-6.942364 10.818522,-9.681631 1.223654,-0.613692 2.315424,-1.249595 2.426154,-1.413115 0.110733,-0.163521 0.170259,-0.707406 0.132281,-1.208636 -0.06434,-0.849134 -0.229539,-1.002591 -2.42095,-2.248781 -6.174347,-3.511168 -8.974688,-7.539698 -10.062283,-14.475458 -0.395307,-2.520944 -0.401339,-3.051956 -0.05855,-5.154185 0.489073,-2.999316 1.209633,-4.885155 2.786552,-7.292927 3.463782,-5.288801 9.436939,-8.724666 18.152178,-10.441454 1.875767,-0.369504 3.616228,-0.463297 8.201438,-0.441981 5.179123,0.02407 6.19082,0.103322 9.182764,0.719258 1.84932,0.380708 4.19287,1.021754 5.2079,1.424548 l 1.84551,0.732348 -3.69114,5.858157 -3.69116,5.858158 -0.72306,-0.720595 c -1.88825,-1.881804 -4.913552,-2.933606 -8.43794,-2.933606 -4.008476,0 -6.966597,1.027539 -9.086719,3.156381 -2.140326,2.149134 -2.922222,4.735762 -2.38834,7.900977 0.601284,3.564821 2.874992,6.101131 7.462945,8.324882 1.27244,0.616746 2.318364,1.210826 2.324274,1.32018 0.0059,0.109357 -5.744638,9.355401 -12.778998,20.546771 l -12.78974,20.347941 z"
         id="path295" />
      <path
         style="fill:#55d400;stroke-width:0.264562"
         d="m 85.046163,118.14473 c -5.630474,-0.678 -11.200507,-2.49036 -15.074432,-4.90488 -2.193459,-1.36712 -5.23425,-4.29452 -5.078703,-4.88932 0.07451,-0.28491 25.006005,-40.155261 25.437345,-40.679296 0.03122,-0.03792 1.677887,0.541654 3.659273,1.287951 2.383634,0.897806 3.815954,1.303335 4.233352,1.198574 0.691537,-0.173564 2.019052,-2.013271 3.337672,-4.625447 2.24929,-4.455817 2.30758,-10.730213 0.12951,-13.939782 l -0.64957,-0.957201 3.64352,-5.797876 c 2.00395,-3.188833 3.78321,-5.798871 3.95392,-5.800088 0.79894,-0.0057 4.59529,2.383851 6.21538,3.912159 2.34479,2.211962 3.75765,4.361049 4.58143,6.968786 2.76662,8.757878 -1.07458,16.524023 -10.65009,21.53239 -1.37797,0.720731 -1.96935,1.187192 -2.08393,1.643729 -0.29033,1.156741 0.27559,1.778148 2.66233,2.923387 7.91077,3.795852 11.91469,8.900615 12.87761,16.418182 0.57273,4.47135 -0.47002,9.679472 -2.68951,13.433032 -0.49812,0.84241 -1.85169,2.52645 -3.00793,3.74232 -3.61858,3.80516 -8.82483,6.49644 -15.22658,7.87111 -2.868032,0.61587 -4.044558,0.72176 -8.862847,0.79771 -3.055697,0.0482 -6.389184,-0.0128 -7.40775,-0.13544 z m 10.5825,-11.25218 c 3.793147,-0.79992 7.171397,-3.24414 8.532187,-6.17318 1.24422,-2.678166 1.0865,-7.562283 -0.33479,-10.367063 -1.44265,-2.846931 -5.431983,-5.335268 -14.170887,-8.839055 -2.380677,-0.95451 -4.650282,-1.735474 -5.043564,-1.735474 -0.806601,0 -2.356419,1.651492 -4.047748,4.313295 -3.119803,4.909928 -3.581862,11.267484 -1.170689,16.107737 1.510427,3.03207 5.260955,5.85033 8.69546,6.53403 0.800302,0.15932 1.6932,0.33655 1.984219,0.39386 1.21971,0.24019 3.827735,0.13027 5.555812,-0.23415 z"
         id="path293" />
      <path
         style="fill:#ffcc00;stroke-width:0.264562"
         d="M 54.224632,121.93638 C 51.19659,119.98379 45.572796,113.87451 42.337979,109.02358 37.523517,101.80381 34.525256,94.083945 33.034454,85.069028 32.217195,80.12704 32.20938,72.447637 33.016545,67.471021 35.138788,54.386215 40.572741,43.662793 49.712506,34.523027 c 9.085885,-9.085885 19.958092,-14.639152 32.555751,-16.62871 13.374185,-2.112196 26.847843,0.378832 38.683503,7.151857 1.29496,0.741053 2.30023,1.401623 2.23392,1.467935 -0.0663,0.06631 -0.93638,-0.289935 -1.93348,-0.791659 -2.87384,-1.446069 -9.1697,-3.542097 -13.21527,-4.399653 -5.15431,-1.092581 -9.165934,-1.440025 -14.392486,-1.246526 -15.237085,0.564113 -28.804475,6.47304 -39.561377,17.229942 -8.873983,8.873985 -14.428044,19.634718 -16.583506,32.129777 -0.839254,4.86509 -0.830841,14.276631 0.01716,19.203198 1.434004,8.330967 4.399315,15.861572 8.959725,22.753812 2.549042,3.85241 4.164281,5.85265 7.317218,9.06126 1.322603,1.34596 2.288032,2.44118 2.145395,2.43381 -0.142636,-0.007 -0.914129,-0.43563 -1.714431,-0.95169 z"
         id="path291" />
      <path
         style="fill:#447821;stroke-width:0.264562"
         d="m 85.443007,121.02065 c -8.829829,-0.77527 -17.008929,-4.15518 -21.379007,-8.83462 -3.436194,-3.67944 -5.173983,-7.4142 -6.031658,-12.962908 -0.606369,-3.922899 -0.07666,-8.386587 1.388345,-11.699232 1.721016,-3.891524 5.345427,-7.589134 10.042578,-10.245408 l 1.846488,-1.044201 -1.902932,-1.272758 c -2.781877,-1.860636 -5.679223,-5.058466 -6.978204,-7.701925 -1.776884,-3.616 -2.228076,-5.737194 -2.233161,-10.498758 -0.0042,-3.952669 0.02731,-4.194159 0.87326,-6.688873 1.659407,-4.893588 5.020568,-9.009384 9.632448,-11.79509 7.801078,-4.712075 18.708653,-6.349315 30.086466,-4.516017 4.30536,0.693718 6.81246,1.501115 10.79906,3.477768 3.8176,1.892857 6.28139,3.991015 8.44202,7.189211 2.42166,3.584589 3.56793,8.516253 3.00312,12.920462 -0.81964,6.391174 -3.91504,11.088513 -9.85214,14.950821 l -2.0266,1.318379 0.95242,0.454177 c 1.9572,0.933324 4.60303,2.835493 6.59791,4.743442 6.00641,5.744662 8.08312,14.8002 5.43857,23.71503 -0.78906,2.65996 -1.30767,3.7359 -2.99675,6.21722 -6.22513,9.14499 -19.47079,13.69842 -35.702233,12.27328 z m 10.140128,-0.77812 c 7.289665,-0.62901 12.440035,-2.17116 17.638695,-5.28147 3.66115,-2.19043 7.42148,-6.36432 9.14098,-10.14629 1.35418,-2.97845 1.82946,-5.551946 1.81446,-9.824648 -0.0163,-4.647834 -0.48861,-6.805659 -2.2873,-10.450219 -1.86214,-3.77314 -5.94422,-7.490008 -11.0399,-10.05219 l -1.71059,-0.860111 1.01418,-0.562648 c 1.69145,-0.938387 4.45361,-2.841372 5.71403,-3.936674 2.88338,-2.505634 5.05697,-6.134157 5.95991,-9.949296 0.65499,-2.767488 0.43368,-7.052818 -0.51721,-10.014926 -2.65601,-8.273692 -11.23867,-13.621977 -23.96207,-14.931965 -4.366964,-0.449619 -11.382998,-0.137618 -15.313733,0.680997 -5.706531,1.18844 -11.035677,3.69799 -14.400732,6.781453 -3.688842,3.380154 -5.7874,7.356028 -6.565481,12.438779 -0.588027,3.841236 0.345752,9.093622 2.310867,12.998331 1.438955,2.859228 4.990625,6.331547 8.541873,8.351043 l 1.425892,0.81086 -1.690454,0.849947 c -4.956269,2.491969 -9.269466,6.363511 -10.892848,9.777462 -1.25674,2.642911 -1.766944,4.645183 -1.955016,7.672366 -0.528165,8.501259 3.348155,16.247909 10.231444,20.447089 4.457047,2.71904 9.885875,4.37205 16.667437,5.07504 4.279937,0.44366 5.956562,0.46523 9.875566,0.12707 z m -9.346441,-1.08392 C 72.648447,117.90645 63.534557,111.972 60.699357,102.53015 c -0.943308,-3.14142 -1.173509,-7.820925 -0.52814,-10.736002 0.779954,-3.522988 1.999021,-5.730339 4.608255,-8.344116 2.417948,-2.422157 4.696122,-4.034673 8.030676,-5.684204 1.347755,-0.666706 2.050359,-1.167385 2.050359,-1.4611 0,-0.277856 -0.668295,-0.814172 -1.76723,-1.418221 -2.373755,-1.30478 -4.397365,-2.894536 -6.373572,-5.007108 -1.819212,-1.944743 -2.101026,-2.41195 -3.243841,-5.377793 -4.398269,-11.414422 0.797682,-22.017894 13.188763,-26.914541 5.131733,-2.027932 12.447714,-3.021712 18.511896,-2.514596 5.868077,0.490717 8.369757,1.034472 13.680267,2.97349 1.70704,0.623288 5.36112,2.935035 6.70686,4.243077 2.1581,2.097661 3.88224,4.709303 4.72042,7.150267 0.67246,1.958326 0.74193,2.499886 0.73553,5.734162 -0.006,3.034257 -0.0982,3.830312 -0.61315,5.29125 -0.88858,2.521125 -2.46099,5.022836 -4.33846,6.902505 -1.69922,1.701208 -5.28074,4.215647 -7.27734,5.109128 -0.8378,0.374914 -1.12439,0.654024 -1.12439,1.095018 0,0.477927 0.39341,0.778685 2.04383,1.562464 4.83028,2.293892 8.84296,5.702743 10.88214,9.244597 1.98163,3.441903 2.8052,7.164249 2.61125,11.802226 -0.1144,2.735563 -0.2812,3.74939 -0.96528,5.866917 -1.04104,3.22249 -3.16696,6.51613 -5.86995,9.09418 -6.40726,6.11111 -17.830529,9.15041 -30.131556,8.01686 z m 15.080066,-1.67615 c 6.40175,-1.37467 11.608,-4.06595 15.22658,-7.87111 1.15624,-1.21587 2.50981,-2.89991 3.00793,-3.74232 2.21949,-3.75356 3.26224,-8.961682 2.68951,-13.433032 -0.96292,-7.517567 -4.96684,-12.62233 -12.87761,-16.418182 -2.38674,-1.145239 -2.95266,-1.766646 -2.66233,-2.923387 0.11458,-0.456537 0.70596,-0.922998 2.08393,-1.643729 7.97478,-4.171122 11.98868,-10.208674 11.47334,-17.257754 -0.65592,-8.97197 -7.23889,-15.040976 -18.92536,-17.447762 -2.947166,-0.606956 -3.981351,-0.687426 -9.143399,-0.711424 -4.58521,-0.02132 -6.325671,0.07248 -8.201438,0.441981 -8.715239,1.716788 -14.688396,5.152653 -18.152178,10.441454 -1.576919,2.407772 -2.297479,4.293611 -2.786552,7.292927 -0.342794,2.102229 -0.336762,2.633241 0.05855,5.154185 1.087595,6.93576 3.887936,10.96429 10.062283,14.475458 2.191411,1.24619 2.356614,1.399647 2.42095,2.248781 0.03798,0.50123 -0.02153,1.045115 -0.132281,1.208636 -0.11073,0.16352 -1.2025,0.799423 -2.426154,1.413115 -8.64971,4.338045 -12.259925,9.353684 -12.289373,17.073512 -0.02273,5.954691 1.770132,10.595771 5.614323,14.533611 3.091593,3.16689 8.212663,5.74667 13.794281,6.94896 4.512111,0.97191 6.18945,1.11014 12.302156,1.01379 4.818289,-0.0759 5.994815,-0.18184 8.862852,-0.79771 z M 90.072851,107.1267 c -0.291019,-0.0573 -1.183917,-0.23454 -1.984219,-0.39386 -3.434505,-0.6837 -7.185033,-3.50196 -8.69546,-6.53403 -2.411173,-4.840253 -1.949114,-11.197809 1.170689,-16.107737 1.691329,-2.661803 3.241147,-4.313295 4.047748,-4.313295 0.393282,0 2.662887,0.780964 5.043564,1.735474 8.738904,3.503787 12.728237,5.992124 14.170887,8.839055 1.42129,2.80478 1.57901,7.688897 0.33479,10.367063 -1.36079,2.92904 -4.73904,5.37326 -8.532187,6.17318 -1.728077,0.36442 -4.336102,0.47434 -5.555812,0.23415 z m 6.033797,-1.28731 c 3.26985,-0.85169 6.083762,-3.02344 7.201462,-5.55802 1.17928,-2.674204 1.01625,-6.872642 -0.37256,-9.59495 -1.26248,-2.474654 -5.338682,-4.988456 -13.203202,-8.14243 l -5.102625,-2.046348 -0.67652,0.632177 c -1.184415,1.106784 -3.706021,5.125121 -4.315626,6.877218 -0.835594,2.401629 -1.047146,6.953189 -0.422969,9.100283 1.323357,4.55219 3.838103,7.07135 8.609461,8.62458 1.856404,0.60431 6.16068,0.66017 8.282579,0.10749 z m -5.24011,-0.55132 c -0.291019,-0.0646 -1.183917,-0.24785 -1.984219,-0.40717 -3.175519,-0.63214 -6.353743,-2.94947 -7.726092,-5.633304 -1.48523,-2.904584 -1.773712,-6.796042 -0.74709,-10.077849 0.624529,-1.996439 2.111034,-4.655467 3.546283,-6.343519 l 0.894681,-1.052268 3.934188,1.550736 c 8.529653,3.362124 12.492451,5.931351 13.615941,8.82771 0.82297,2.121645 0.84463,5.750136 0.0449,7.525649 -0.63665,1.413475 -2.5869,3.434315 -4.019865,4.165365 -1.962977,1.00144 -6.043052,1.78123 -7.558747,1.44465 z m 5.762783,-1.68892 c 2.021186,-0.77197 3.570309,-1.98694 4.546379,-3.56571 0.65896,-1.065836 0.8136,-1.631386 0.89685,-3.279819 0.0553,-1.095548 -0.0463,-2.648339 -0.22587,-3.450649 -0.65696,-2.935588 -4.091096,-5.372132 -12.182798,-8.643767 -2.361056,-0.954621 -4.43961,-1.679351 -4.61901,-1.610509 -0.586977,0.225243 -2.858137,3.915933 -3.502955,5.692385 -2.07666,5.72114 -0.08435,11.803949 4.694777,14.333809 2.667693,1.41216 7.437908,1.6528 10.392627,0.52426 z M 93.776726,68.90586 c -9.2987,-3.550112 -12.584712,-6.223362 -13.36956,-10.876474 -0.533882,-3.165215 0.248014,-5.751843 2.38834,-7.900977 2.120122,-2.128842 5.078243,-3.156381 9.086719,-3.156381 5.318865,0 9.148565,2.332227 10.785305,6.568079 0.72125,1.866591 0.78691,5.867549 0.14078,8.578129 -0.59821,2.509542 -2.849973,6.803982 -4.092284,7.804589 -0.640541,0.515915 -1.256392,0.389118 -4.9393,-1.016965 z m 5.229334,-0.860207 c 2.49752,-3.761541 3.52388,-7.216069 3.3167,-11.163397 -0.19803,-3.772997 -1.96052,-6.519659 -5.108272,-7.960752 -4.798722,-2.196924 -11.707227,-0.942435 -14.3878,2.612629 -1.296772,1.719823 -1.738205,3.369743 -1.538593,5.750721 0.384722,4.588948 3.252619,7.037709 12.398119,10.586167 2.232423,0.86618 4.131384,1.578009 4.219914,1.581845 0.08853,0.0038 0.583501,-0.62941 1.099932,-1.407213 z m -5.640541,-1.454927 c -6.143472,-2.43312 -9.149217,-4.393595 -10.354275,-6.753497 -0.677627,-1.327014 -0.936112,-4.202922 -0.497272,-5.532621 0.53508,-1.621316 2.034438,-3.305587 3.683898,-4.138231 3.444233,-1.738644 7.45154,-1.746174 11.015893,-0.02069 4.998747,2.41985 5.543617,10.44989 1.144508,16.86696 -0.423946,0.618415 -0.854378,1.119597 -0.95652,1.113739 -0.102143,-0.0059 -1.918446,-0.696903 -4.036232,-1.53565 z m 5.382185,-2.173111 c 3.340236,-6.584508 1.764616,-12.569957 -3.731884,-14.176703 -5.433857,-1.588433 -11.268465,0.994591 -11.851273,5.246645 -0.461619,3.367875 1.455247,6.009976 5.983581,8.247429 2.751225,1.359383 7.648028,3.323246 8.06791,3.235636 0.14551,-0.03036 0.834758,-1.179213 1.531666,-2.553007 z M 51.280697,119.79286 c -0.329081,-0.41962 -0.319724,-0.42897 0.09989,-0.0999 0.254642,0.1997 0.462984,0.40805 0.462984,0.46298 0,0.21775 -0.217256,0.0776 -0.562872,-0.36309 z M 124.14736,27.202925 c -0.46626,-0.23221 -0.90898,-0.581756 -0.98381,-0.776768 -0.21069,-0.549052 0.15936,-0.405554 1.16015,0.449873 1.03581,0.885365 1.01659,0.921007 -0.17634,0.326895 z"
         id="path289" />
      <path
         style="fill:#d4aa00;stroke-width:0.264562"
         d="M 48.933382,117.96578 C 43.275314,113.13108 38.221821,106.75542 34.601767,99.884528 31.832584,94.628594 29.977067,89.058678 28.78491,82.423403 27.98309,77.960662 27.913335,68.248054 28.650955,63.771747 32.560866,40.044139 49.740019,21.204192 72.639981,15.530089 c 5.383032,-1.333796 8.682245,-1.729812 14.390401,-1.72733 9.908678,0.0043 18.050698,1.93677 26.853098,6.373426 3.39399,1.710667 9.31447,5.531963 9.02279,5.823641 -0.0655,0.06546 -0.98328,-0.385747 -2.03961,-1.002676 -11.3588,-6.6339 -25.310873,-9.201343 -38.598403,-7.102833 -12.597659,1.989558 -23.469866,7.542825 -32.555751,16.62871 -9.139765,9.139766 -14.573718,19.863188 -16.695961,32.947994 -0.807165,4.976616 -0.79935,12.656019 0.01791,17.598007 2.108221,12.748468 7.444687,23.446912 16.132814,32.342762 1.101365,1.1277 1.886223,2.0443 1.744126,2.03688 -0.142096,-0.007 -1.032201,-0.67472 -1.978012,-1.48289 z"
         id="path287" />
    </g>
  </g>
</svg>
