<?xml version="1.0" encoding="UTF-8" standalone="no"?>
<svg
   xmlns:dc="http://purl.org/dc/elements/1.1/"
   xmlns:cc="http://creativecommons.org/ns#"
   xmlns:rdf="http://www.w3.org/1999/02/22-rdf-syntax-ns#"
   xmlns:svg="http://www.w3.org/2000/svg"
   xmlns="http://www.w3.org/2000/svg"
   xmlns:sodipodi="http://sodipodi.sourceforge.net/DTD/sodipodi-0.dtd"
   xmlns:inkscape="http://www.inkscape.org/namespaces/inkscape"
   width="210mm"
   height="297mm"
   viewBox="0 0 210 297"
   version="1.1"
   id="svg8"
   inkscape:version="1.0.2-2 (e86c870879, 2021-01-15)"
   sodipodi:docname="s2.svg">
  <defs
     id="defs2">
    <pattern
       id="EMFhbasepattern"
       patternUnits="userSpaceOnUse"
       width="6"
       height="6"
       x="0"
       y="0" />
    <pattern
       id="EMFhbasepattern-7"
       patternUnits="userSpaceOnUse"
       width="6"
       height="6"
       x="0"
       y="0" />
    <pattern
       id="EMFhbasepattern-3"
       patternUnits="userSpaceOnUse"
       width="6"
       height="6"
       x="0"
       y="0" />
    <pattern
       id="EMFhbasepattern-8"
       patternUnits="userSpaceOnUse"
       width="6"
       height="6"
       x="0"
       y="0" />
    <pattern
       id="EMFhbasepattern-9"
       patternUnits="userSpaceOnUse"
       width="6"
       height="6"
       x="0"
       y="0" />
    <pattern
       id="EMFhbasepattern-31"
       patternUnits="userSpaceOnUse"
       width="6"
       height="6"
       x="0"
       y="0" />
    <pattern
       id="EMFhbasepattern-97"
       patternUnits="userSpaceOnUse"
       width="6"
       height="6"
       x="0"
       y="0" />
    <pattern
       id="EMFhbasepattern-98"
       patternUnits="userSpaceOnUse"
       width="6"
       height="6"
       x="0"
       y="0" />
    <pattern
       id="EMFhbasepattern-8-5"
       patternUnits="userSpaceOnUse"
       width="6"
       height="6"
       x="0"
       y="0" />
    <pattern
       id="EMFhbasepattern-9-1"
       patternUnits="userSpaceOnUse"
       width="6"
       height="6"
       x="0"
       y="0" />
    <pattern
       id="EMFhbasepattern-1"
       patternUnits="userSpaceOnUse"
       width="6"
       height="6"
       x="0"
       y="0" />
    <pattern
       id="EMFhbasepattern-0"
       patternUnits="userSpaceOnUse"
       width="6"
       height="6"
       x="0"
       y="0" />
    <pattern
       id="EMFhbasepattern-8-4"
       patternUnits="userSpaceOnUse"
       width="6"
       height="6"
       x="0"
       y="0" />
  </defs>
  <sodipodi:namedview
     id="base"
     pagecolor="#ffffff"
     bordercolor="#666666"
     borderopacity="1.0"
     inkscape:pageopacity="0.0"
     inkscape:pageshadow="2"
     inkscape:zoom="0.98994949"
     inkscape:cx="407.95419"
     inkscape:cy="383.04576"
     inkscape:document-units="mm"
     inkscape:current-layer="layer2"
     inkscape:document-rotation="0"
     showgrid="false"
     inkscape:window-width="1920"
     inkscape:window-height="1017"
     inkscape:window-x="-8"
     inkscape:window-y="-8"
     inkscape:window-maximized="1" />
  <metadata
     id="metadata5">
    <rdf:RDF>
      <cc:Work
         rdf:about="">
        <dc:format>image/svg+xml</dc:format>
        <dc:type
           rdf:resource="http://purl.org/dc/dcmitype/StillImage" />
        <dc:title></dc:title>
      </cc:Work>
    </rdf:RDF>
  </metadata>
  <g
     inkscape:groupmode="layer"
     id="layer4"
     inkscape:label="Warstwa 3"
     style="display:inline">
    <g
       id="g978"
       transform="translate(-0.23034879,-0.2545802)" />
    <g
       id="g1072"
       transform="translate(-70.292455,-55.7084)"
       style="fill-rule:evenodd">
      <path
         style="fill:#eaebeb;stroke-width:0.264336;fill-rule:evenodd"
         d="m 110.18838,141.03079 c -9.84944,-1.02668 -19.844568,-5.56175 -27.035569,-12.26681 -3.860131,-3.59927 -6.433978,-7.08635 -9.183392,-12.44177 -3.163756,-6.16248 -4.09139,-10.27888 -4.091935,-18.158032 -3.15e-4,-4.562489 0.0818,-5.60169 0.647491,-8.19442 1.429984,-6.554027 3.983089,-11.863668 8.361064,-17.388337 5.571118,-7.030325 13.536197,-12.399627 22.447081,-15.131697 4.15126,-1.272772 6.42519,-1.508753 14.53849,-1.508753 8.42796,0 10.43783,0.22764 15.09089,1.70921 11.18288,3.560711 20.40273,11.002876 25.97807,20.969213 1.68982,3.020679 2.04099,3.814392 3.23643,7.314966 1.42522,4.173445 1.79673,6.716749 1.79673,12.30039 0,7.27317 -0.87952,11.27644 -3.8039,17.31402 -2.58797,5.34302 -5.43137,9.30465 -9.281,12.93091 -10.16968,9.5796 -24.0431,14.07895 -38.70045,12.55111 z"
         id="path1086" />
      <path
         style="fill:#d0f0ef;stroke-width:0.264336;fill-rule:evenodd"
         d="m 110.18838,141.03079 c -11.531663,-1.20203 -23.131708,-7.24215 -30.272282,-15.76271 -2.858431,-3.41085 -3.893179,-4.95745 -5.809161,-8.68274 -1.746812,-3.39637 -3.219436,-7.70217 -3.835123,-11.21351 -0.614167,-3.50268 -0.53704,-11.498668 0.14366,-14.893474 0.988327,-4.929017 2.914694,-9.692997 5.693205,-14.079507 5.598366,-8.838291 14.805059,-15.75455 25.224441,-18.949125 4.15126,-1.272772 6.42519,-1.508753 14.53849,-1.508753 8.42796,0 10.43783,0.22764 15.09089,1.70921 15.83958,5.04344 27.65143,17.992052 30.54694,33.486742 0.63929,3.420978 0.63734,10.784507 -0.004,14.217307 -1.57836,8.45151 -6.36776,17.26323 -12.50975,23.01591 -10.34771,9.69181 -24.13563,14.19001 -38.80755,12.66065 z m -0.67981,-22.96723 c 0.75617,-0.14341 2.09946,-0.55342 2.98509,-0.91114 l 1.61023,-0.6504 1.5453,0.65041 c 0.84992,0.35772 2.40743,0.78397 3.46114,0.94721 3.66467,0.56774 7.81853,-0.7243 10.70501,-3.32974 1.4794,-1.33537 1.95402,-2.2558 0.55707,-1.08034 -1.84116,1.54923 -5.51846,2.88152 -7.8924,2.85942 -2.41319,-0.0225 -5.40947,-0.95836 -7.23352,-2.2594 -0.72654,-0.51821 -1.1873,-0.59605 -3.73643,-0.63122 -3.64953,-0.0503 -4.63315,-0.21144 -6.55379,-1.07337 -1.91924,-0.86131 -3.4405,-2.52156 -3.88649,-4.24158 -0.41925,-1.61688 -0.51722,-3.76165 -0.20044,-4.38773 0.4737,-0.93619 -0.15363,-1.04607 -2.482822,-0.43486 -2.899238,0.76081 -5.877177,0.83033 -8.419851,0.19658 -1.853347,-0.46194 -5.457165,-2.05639 -6.806655,-3.0115 -0.884309,-0.62588 -0.785904,-0.0189 0.37574,2.31747 1.174728,2.36272 3.594504,4.86416 5.703523,5.89601 1.614503,0.7899 3.915631,1.46687 5.002555,1.47169 0.580879,0.003 0.927993,0.33613 1.950606,1.87436 2.949835,4.43718 8.272254,6.75468 13.316134,5.79813 z m 26.43523,-8.49289 c 1.56274,-0.53565 2.8789,-1.33128 4.37434,-2.64428 1.13649,-0.99785 0.91814,-1.28005 -0.99519,-1.28618 -1.52185,-0.005 -2.74178,-0.48655 -3.60613,-1.42383 -0.97999,-1.06269 -1.27841,-0.88956 -1.42213,0.82503 -0.15018,1.79164 -0.65308,4.21906 -1.01367,4.89283 -0.22556,0.42146 -0.16903,0.45673 0.4855,0.30291 0.40743,-0.0957 1.3872,-0.39567 2.17728,-0.66648 z"
         id="path1084" />
      <path
         style="fill:#dddede;stroke-width:0.264336;fill-rule:evenodd"
         d="m 109.9477,140.76646 c -7.04217,-0.74235 -15.286204,-3.79726 -21.226061,-7.86555 -7.940396,-5.43848 -14.17918,-13.60534 -16.870185,-22.08387 -1.470273,-4.63238 -1.819678,-7.04242 -1.824159,-12.58229 -0.0043,-5.268232 0.390408,-7.911387 1.874828,-12.555966 0.736887,-2.305632 2.908978,-6.814098 4.470892,-9.279935 5.486837,-8.662217 14.302307,-15.296927 24.827935,-18.686033 4.93575,-1.589243 6.45322,-1.771845 14.72442,-1.771845 8.44709,0 10.19918,0.237918 15.68675,2.130113 10.9833,3.787203 19.67299,10.911267 25.06411,20.54831 1.68982,3.020679 2.04099,3.814392 3.23643,7.314966 1.42523,4.173445 1.79673,6.716749 1.79673,12.30039 0,5.45358 -0.37216,8.1108 -1.73758,12.4062 -1.48917,4.68469 -3.67418,8.66011 -7.44259,13.54107 -6.82158,8.83551 -18.78996,15.26292 -30.89788,16.59317 -2.9243,0.32128 -8.59318,0.31704 -11.68364,-0.009 z m 0.10851,-22.55639 c 0.945,-0.20316 2.22988,-0.60112 2.85528,-0.88434 l 1.13709,-0.51496 1.58957,0.64205 c 5.22165,2.10912 10.94314,0.98399 14.72385,-2.89545 0.60208,-0.61781 1.54318,-1.76583 2.09133,-2.55116 0.88736,-1.27132 1.15277,-1.46737 2.42078,-1.78817 2.20072,-0.55675 4.34527,-1.84026 6.06207,-3.62813 1.3538,-1.40985 2.9795,-3.93927 2.94337,-4.57958 -0.006,-0.11387 -0.25613,0.26876 -0.5549,0.8503 -0.29878,0.58154 -0.84016,1.49646 -1.20308,2.03316 -0.64432,0.95285 -0.69192,0.97274 -2.02237,0.84496 -2.64846,-0.25435 -3.12026,-0.40403 -4.11977,-1.30704 -0.55414,-0.50063 -1.13124,-0.91024 -1.28243,-0.91024 -0.1512,0 -0.33224,0.68397 -0.40231,1.51994 -0.43771,5.22196 -2.18761,8.07243 -6.18922,10.08183 -1.52089,0.76371 -4.18589,1.43914 -5.62546,1.42574 -2.41319,-0.0225 -5.40947,-0.95836 -7.23352,-2.2594 -0.72654,-0.51821 -1.1873,-0.59605 -3.73643,-0.63122 -3.64953,-0.0503 -4.63315,-0.21144 -6.55379,-1.07337 -1.91924,-0.86131 -3.4405,-2.52156 -3.88649,-4.24158 -0.41925,-1.61688 -0.51722,-3.76165 -0.20044,-4.38773 0.4737,-0.93619 -0.15363,-1.04607 -2.482822,-0.43486 -2.894717,0.75962 -5.875969,0.83001 -8.419851,0.1988 -2.102228,-0.52163 -5.378327,-1.9931 -6.806655,-3.05723 -0.822692,-0.61292 -0.859092,-0.6176 -0.859092,-0.1106 0,0.29119 0.471854,1.47218 1.048564,2.62441 1.927584,3.85119 5.482085,6.53359 9.685909,7.30946 1.766917,0.3261 1.826192,0.36372 2.793705,1.77296 3.336398,4.85966 8.757392,7.12735 14.227112,5.95145 z m 34.27993,-17.91019 c -0.0844,-0.21087 -0.14702,-0.14824 -0.1597,0.1597 -0.0115,0.27865 0.051,0.43478 0.13884,0.34694 0.0878,-0.0878 0.0972,-0.31583 0.0208,-0.50664 z M 82.219766,98.834537 c -0.06702,-0.257192 -0.126263,-0.110765 -0.13165,0.325389 -0.0054,0.436155 0.04945,0.646582 0.121856,0.467619 0.07241,-0.178964 0.07682,-0.535817 0.0098,-0.793008 z m 62.383324,0 c -0.067,-0.257192 -0.12626,-0.110765 -0.13165,0.325389 -0.005,0.436155 0.0495,0.646582 0.12186,0.467619 0.0724,-0.178964 0.0768,-0.535817 0.01,-0.793008 z M 82.219766,94.605159 c -0.06702,-0.257191 -0.126263,-0.110765 -0.13165,0.325389 -0.0054,0.436155 0.04945,0.646582 0.121856,0.467619 0.07241,-0.178963 0.07682,-0.535817 0.0098,-0.793008 z m 62.383324,0 c -0.067,-0.257191 -0.12626,-0.110765 -0.13165,0.325389 -0.005,0.436155 0.0495,0.646582 0.12186,0.467619 0.0724,-0.178963 0.0768,-0.535817 0.01,-0.793008 z M 84.522117,89.435585 c 1.135775,-1.711117 2.585641,-2.996528 4.685534,-4.154061 0.780921,-0.430471 1.300905,-0.783714 1.155521,-0.784983 -0.661097,-0.0058 -3.310916,1.803766 -4.665304,3.185898 -1.475175,1.505389 -2.963806,4.087762 -3.263962,5.662093 -0.08316,0.436154 0.124965,0.07812 0.462491,-0.79562 0.337526,-0.873747 1.0691,-2.274745 1.62572,-3.113327 z m 59.362523,2.630316 c -1.04655,-2.797165 -3.73075,-5.739287 -6.5226,-7.149359 -1.45464,-0.734696 -1.33954,-0.456733 0.15114,0.364982 3.07729,1.696311 5.35323,4.353267 6.30758,7.363545 0.24677,0.778375 0.48698,1.300288 0.53381,1.159809 0.0468,-0.140481 -0.16464,-0.923019 -0.46993,-1.738977 z M 92.274101,84.065232 c -0.08784,-0.08784 -0.315826,-0.09723 -0.506644,-0.02086 -0.210869,0.08438 -0.148233,0.147018 0.159703,0.159701 0.278654,0.01147 0.434778,-0.051 0.346941,-0.138835 z m 42.822449,0 c -0.0878,-0.08784 -0.31583,-0.09723 -0.50664,-0.02086 -0.21087,0.08438 -0.14824,0.147018 0.1597,0.159701 0.27866,0.01147 0.43478,-0.051 0.34694,-0.138835 z M 93.738488,83.787211 c -0.178964,-0.07241 -0.535818,-0.07681 -0.793008,-0.0098 -0.257191,0.06702 -0.110766,0.126263 0.325389,0.13165 0.436154,0.0054 0.646583,-0.04945 0.467619,-0.121856 z m 1.382734,-0.293247 c 0.145385,-0.106813 0.738016,-0.897236 1.316959,-1.756496 3.410364,-5.06162 10.459939,-7.035879 16.145289,-4.521548 1.59381,0.70486 2.23255,0.809663 2.64051,0.433257 0.52651,-0.485779 3.2318,-1.305758 4.8782,-1.478596 4.83257,-0.507321 9.76081,1.883191 12.46583,6.046731 0.55776,0.858504 1.01412,1.446811 1.01412,1.30735 0,-0.506389 -1.61649,-2.785431 -2.77267,-3.909107 -2.18894,-2.127407 -5.14337,-3.459738 -8.31271,-3.748702 -2.07853,-0.189509 -4.15474,0.163136 -6.51147,1.105977 l -1.742,0.696911 -1.54874,-0.695034 c -2.24662,-1.008221 -5.25612,-1.392244 -7.6117,-0.971278 -3.67619,0.656972 -7.554928,3.197263 -9.219944,6.0384 -0.363743,0.620679 -0.857849,1.243223 -1.098016,1.383432 -0.240167,0.140209 -0.317715,0.256723 -0.172331,0.258917 0.145385,0.0021 0.383288,-0.0834 0.528673,-0.190214 z"
         id="path1082" />
      <path
         style="fill:#aff5f4;stroke-width:0.264336;fill-rule:evenodd"
         d="m 109.9477,140.76646 c -7.04217,-0.74235 -15.286204,-3.79726 -21.226061,-7.86555 -7.940396,-5.43848 -14.17918,-13.60534 -16.870185,-22.08387 -1.470273,-4.63238 -1.819678,-7.04242 -1.824159,-12.58229 -0.0043,-5.268232 0.390408,-7.911387 1.874828,-12.555966 0.736887,-2.305632 2.908978,-6.814098 4.470892,-9.279935 5.486837,-8.662217 14.302307,-15.296927 24.827935,-18.686033 4.93575,-1.589243 6.45322,-1.771845 14.72442,-1.771845 8.44709,0 10.19918,0.237918 15.68675,2.130113 10.9833,3.787203 19.67299,10.911267 25.06411,20.54831 1.68982,3.020679 2.04099,3.814392 3.23643,7.314966 1.42523,4.173445 1.79673,6.716749 1.79673,12.30039 0,5.45358 -0.37216,8.1108 -1.73758,12.4062 -1.48917,4.68469 -3.67418,8.66011 -7.44259,13.54107 -6.82158,8.83551 -18.78996,15.26292 -30.89788,16.59317 -2.9243,0.32128 -8.59318,0.31704 -11.68364,-0.009 z m 0.10851,-22.55639 c 0.945,-0.20316 2.22988,-0.60112 2.85528,-0.88434 l 1.13709,-0.51496 1.58957,0.64205 c 5.22165,2.10912 10.94314,0.98399 14.72385,-2.89545 0.60208,-0.61781 1.54318,-1.76583 2.09133,-2.55116 0.88736,-1.27132 1.15277,-1.46737 2.42078,-1.78817 4.35763,-1.10243 8.0269,-4.74734 9.38415,-9.32182 0.61337,-2.067298 0.56367,-5.860704 -0.10514,-8.026066 -1.25881,-4.075555 -4.61975,-7.412749 -8.72477,-8.663132 -1.58131,-0.481666 -1.77445,-0.622895 -2.35915,-1.725074 -0.80879,-1.524575 -2.99569,-3.754692 -4.6092,-4.700267 -3.90002,-2.285567 -8.10242,-2.558047 -12.47472,-0.808851 l -1.742,0.696911 -1.54874,-0.695034 c -5.92687,-2.659818 -13.278694,-0.44641 -16.826318,5.065885 -0.533572,0.829063 -1.127031,1.429566 -1.479763,1.497331 -2.89606,0.556362 -3.814295,0.82285 -5.140958,1.492001 -3.188253,1.60811 -5.683508,4.570266 -6.717493,7.974434 -0.467692,1.539776 -0.539806,2.320276 -0.444481,4.810687 0.105627,2.759505 0.183479,3.119465 1.085485,5.018835 1.906121,4.01374 5.568857,6.86359 9.827384,7.64634 1.810682,0.33282 1.859136,0.36326 2.830702,1.7784 3.336398,4.85966 8.757392,7.12735 14.227112,5.95145 z"
         id="path1080" />
      <path
         style="fill:#88f9f7;stroke-width:0.264336;fill-rule:evenodd"
         d="m 110.71705,140.76645 c -9.22734,-0.96183 -19.171832,-5.28054 -26.326512,-11.43312 -1.997319,-1.71757 -5.600784,-5.8524 -7.302541,-8.37936 -1.603772,-2.38147 -4.28058,-7.90373 -5.096666,-10.51443 -1.376086,-4.40218 -1.700226,-6.771 -1.688137,-12.336958 0.0098,-4.496722 0.08401,-5.326719 0.709322,-7.930084 0.384127,-1.599233 1.042014,-3.918783 1.461971,-5.154554 3.308696,-9.736214 11.550803,-18.958262 21.465982,-24.018168 2.957884,-1.509465 9.325161,-3.797005 11.566351,-4.155386 0.60688,-0.09704 1.04884,-0.264744 0.98214,-0.372668 -0.23585,-0.381615 2.40058,-0.530751 9.38265,-0.530751 6.98206,0 9.6185,0.149136 9.38264,0.530751 -0.0667,0.107924 0.37527,0.275624 0.98214,0.372668 1.92958,0.308552 8.21048,2.484861 10.77827,3.734632 8.05975,3.922761 15.2672,10.686081 19.49519,18.29386 2.08355,3.749112 3.77057,8.296155 4.48654,12.092625 0.62898,3.335173 0.62118,11.238623 -0.0144,14.631403 -1.50841,8.05143 -6.39748,17.04965 -12.19899,22.45199 -10.18728,9.48632 -24.18864,14.16408 -38.06591,12.71755 z m 0.8395,-22.71322 c 2.39921,-0.86486 2.47919,-0.86674 4.71561,-0.11033 2.7322,0.9241 6.21376,0.97733 8.89084,0.13595 3.07782,-0.96733 5.86506,-3.19415 7.53343,-6.01873 0.56482,-0.95625 0.86314,-1.16958 2.15832,-1.54338 4.51997,-1.30453 7.93287,-4.49091 9.47444,-8.84562 0.48618,-1.37338 0.60936,-2.280143 0.61382,-4.518417 0.009,-4.276392 -1.04452,-6.894906 -3.93552,-9.786259 -1.78112,-1.781332 -3.95023,-3.090317 -6.06426,-3.659565 -0.93786,-0.252539 -1.20745,-0.475287 -1.54078,-1.273058 -0.58325,-1.39592 -3.90201,-4.590897 -5.63572,-5.42553 -3.62063,-1.743017 -7.69048,-1.954637 -11.23428,-0.584147 -1.0177,0.393572 -2.02878,0.716781 -2.24686,0.718243 -0.21808,0.0015 -1.16969,-0.325073 -2.11469,-0.725634 -3.39006,-1.436955 -7.71287,-1.173215 -11.41687,0.696557 -1.901278,0.959763 -4.78965,3.703015 -5.375687,5.1056 -0.407514,0.975318 -0.57213,1.054239 -2.798261,1.341532 -2.092831,0.270088 -4.858582,1.797602 -6.836528,3.775785 -2.92266,2.923011 -3.974273,5.526095 -3.965731,9.816476 0.0062,3.103827 0.561633,5.192757 1.974627,7.426117 1.926447,3.04491 5.676503,5.54432 9.232483,6.15343 1.759536,0.3014 1.817229,0.33703 2.650797,1.63713 1.161044,1.81087 3.682732,4.08005 5.54115,4.98629 3.21786,1.56917 7.21632,1.83789 10.37967,0.69756 z"
         id="path1078" />
      <path
         style="fill:#73f6f4;stroke-width:0.264336;fill-rule:evenodd"
         d="m 110.45272,140.50211 c -7.17626,-0.74803 -15.374683,-3.73594 -21.440288,-7.8139 -6.040974,-4.0614 -10.658575,-9.40206 -14.372429,-16.623 -1.736928,-3.37715 -2.931298,-6.8488 -3.633433,-10.56122 -0.542859,-2.87027 -0.624859,-11.774453 -0.124338,-13.501522 l 0.312336,-1.077727 6.500996,-2.581308 c 6.461761,-2.565731 10.961155,-4.194877 11.127114,-4.028919 0.04773,0.04773 -0.574186,0.542016 -1.382041,1.098406 -5.99233,4.127075 -7.81416,11.840458 -4.384463,18.56322 0.752537,1.47509 3.195994,4.0698 4.8047,5.1021 1.372099,0.88047 4.831574,2.10898 5.938888,2.10898 0.48328,0 0.897074,0.37384 1.682366,1.51993 2.870867,4.18988 6.772862,6.26432 11.798552,6.27255 2.24954,0.004 2.96574,-0.10983 4.80718,-0.76189 l 2.16381,-0.76622 1.40473,0.61001 c 1.74558,0.75803 5.97708,1.0267 8.46409,0.53741 3.30729,-0.65067 6.49141,-2.89487 8.68972,-6.1246 0.84599,-1.2429 1.17842,-1.51888 2.01591,-1.67357 3.39541,-0.62717 7.37219,-3.87092 9.06154,-7.39126 1.65924,-3.45761 1.96487,-6.266321 1.0648,-9.785563 -1.20696,-4.719148 -4.63719,-8.434812 -9.18357,-9.947751 -1.79786,-0.59829 -2.34127,-1.037347 -1.28389,-1.037347 1.96589,0 25.27217,4.868355 25.56359,5.339875 0.10754,0.17401 0.32885,1.081928 0.49179,2.017596 1.25724,7.219624 0.92691,14.18422 -0.95961,20.23223 -0.92962,2.98028 -3.15725,7.49522 -5.1542,10.44647 -0.92404,1.36562 -2.05456,3.03627 -2.51226,3.71254 -1.03724,1.53257 -4.88312,5.19532 -7.44523,7.09072 -9.53412,7.05316 -21.77335,10.29994 -34.01636,9.02376 z M 93.865625,82.728191 c 0.181731,-0.07333 0.479109,-0.07333 0.66084,0 0.181731,0.07333 0.03304,0.133328 -0.33042,0.133328 -0.363462,0 -0.512151,-0.06 -0.33042,-0.133328 z"
         id="path1076" />
      <path
         style="fill:#5cf3ef;stroke-width:0.264336;fill-rule:evenodd"
         d="m 110.21204,140.23778 c -9.62817,-1.01494 -19.584796,-5.53907 -26.58944,-12.08181 -1.315488,-1.22874 -1.893583,-1.9398 -1.718184,-2.11338 0.145385,-0.14387 2.405458,-0.86632 5.022386,-1.60544 14.586368,-4.11975 22.389728,-5.27521 36.346218,-5.38188 7.4298,-0.0568 8.33182,-0.0135 11.49862,0.55177 6.33482,1.13076 16.48415,4.02558 16.73319,4.77269 0.067,0.20114 -0.97764,1.42775 -2.38963,2.80574 -10.20441,9.95877 -24.08169,14.6147 -38.90316,13.05231 z"
         id="path1074" />
    </g>
    <g
       id="g900"
       transform="matrix(0.91068908,0,0,0.91068908,-58.847506,-93.594656)">
      <path
         style="fill:#efe09e;stroke-width:0.264779"
         d="m 93.620495,150.34786 c 0.546106,-0.0571 1.439733,-0.0571 1.985839,0 0.546106,0.0571 0.09929,0.10386 -0.992919,0.10386 -1.092212,0 -1.539026,-0.0467 -0.99292,-0.10386 z m -10.814887,-4.63933 -0.5044,-0.59575 0.595751,0.5044 c 0.55986,0.47401 0.716291,0.6871 0.504401,0.6871 -0.05024,0 -0.318332,-0.26809 -0.595752,-0.59575 z m 23.325682,0.0662 c 0.26358,-0.29125 0.53881,-0.52955 0.61163,-0.52955 0.0728,0 -0.0833,0.2383 -0.34686,0.52955 -0.26358,0.29126 -0.53882,0.52956 -0.61163,0.52956 -0.0728,0 0.0833,-0.2383 0.34686,-0.52956 z m 4.30753,-7.4584 c 0.15387,-0.15386 0.43605,-0.22765 0.62707,-0.16398 0.1983,0.0661 0.0783,0.18612 -0.27975,0.27975 -0.44042,0.11517 -0.5438,0.0807 -0.34732,-0.11577 z m -33.763581,-1.94124 c 0.0029,-0.58251 0.05716,-0.78963 0.120495,-0.46027 0.06333,0.32936 0.06093,0.80596 -0.0053,1.05911 -0.06627,0.25315 -0.11809,-0.0163 -0.115152,-0.59884 z m 35.739771,-0.13239 c 0,-0.5097 0.0545,-0.71821 0.12109,-0.46336 0.0666,0.25485 0.0666,0.67188 0,0.92673 -0.0666,0.25485 -0.12109,0.0463 -0.12109,-0.46337 z m -34.196968,-5.97958 c 0.0127,-0.30845 0.07545,-0.37119 0.159971,-0.15997 0.07649,0.19113 0.06708,0.41951 -0.0209,0.50749 -0.08798,0.088 -0.150564,-0.0684 -0.139067,-0.34752 z m 32.567778,-0.26478 c 0.0127,-0.30845 0.0754,-0.37119 0.15996,-0.15997 0.0765,0.19114 0.0671,0.41951 -0.0209,0.50749 -0.088,0.088 -0.15056,-0.0684 -0.13906,-0.34752 z m -4.8207,-11.42961 c -0.32935,-0.41996 -0.31998,-0.42932 0.1,-0.1 0.44106,0.3459 0.58132,0.56333 0.36339,0.56333 -0.055,0 -0.26349,-0.20851 -0.46336,-0.46336 z m -22.604798,-0.33097 c 0.263584,-0.29126 0.538818,-0.52956 0.611632,-0.52956 0.07281,0 -0.08327,0.2383 -0.346853,0.52956 -0.263584,0.29125 -0.538818,0.52955 -0.611632,0.52955 -0.07281,0 0.08327,-0.2383 0.346853,-0.52955 z m 1.588672,-1.58868 c 0.263583,-0.29125 0.538818,-0.52955 0.611632,-0.52955 0.07281,0 -0.08327,0.2383 -0.346853,0.52955 -0.263584,0.29126 -0.538818,0.52956 -0.611632,0.52956 -0.07282,0 0.08327,-0.2383 0.346853,-0.52956 z m 7.761324,-3.62299 c 0.191136,-0.0765 0.419507,-0.0671 0.507493,0.0209 0.08798,0.088 -0.0684,0.15057 -0.347522,0.13907 -0.308454,-0.0127 -0.371193,-0.0754 -0.159971,-0.15997 z m 4.550883,-4.15556 c 0,-0.055 0.208513,-0.26349 0.463363,-0.46336 0.419954,-0.32935 0.42932,-0.31998 0.09997,0.1 -0.345898,0.44105 -0.563332,0.58132 -0.563332,0.36339 z m -1.811645,-0.95914 c 0,-0.36407 0.0601,-0.51301 0.133552,-0.33098 0.07345,0.18204 0.07345,0.47992 0,0.66195 -0.07345,0.18204 -0.133552,0.0331 -0.133552,-0.33097 z m -1.080016,-0.68401 c 0.01271,-0.30846 0.07545,-0.3712 0.159969,-0.15997 0.07649,0.19113 0.06708,0.41951 -0.02089,0.50749 -0.08798,0.088 -0.150564,-0.0684 -0.139067,-0.34752 z"
         id="path914" />
      <path
         style="fill:#ebd162;stroke-width:0.264779"
         d="m 104.79074,117.37721 -0.77768,-0.86053 0.86053,0.77768 c 0.80213,0.72491 0.98223,0.94339 0.77768,0.94339 -0.0456,0 -0.43281,-0.38724 -0.86053,-0.86054 z m -11.368829,-4.43504 c 0.09,-0.14563 0.216186,-0.26478 0.280405,-0.26478 0.06422,0 0.116763,0.11915 0.116763,0.26478 0,0.14563 -0.126183,0.26478 -0.280406,0.26478 -0.154223,0 -0.206766,-0.11915 -0.116762,-0.26478 z m 0.947629,-1.21357 c 0.01271,-0.30845 0.07545,-0.37119 0.159969,-0.15997 0.07649,0.19114 0.06708,0.41951 -0.02089,0.5075 -0.08798,0.088 -0.150564,-0.0684 -0.139067,-0.34753 z m -1.894396,-1.89758 -0.641905,-0.72814 0.728141,0.64191 c 0.680558,0.59996 0.849566,0.81437 0.641906,0.81437 -0.04743,0 -0.375091,-0.32766 -0.728142,-0.72814 z m 1.894396,-1.80932 c 0.01271,-0.30845 0.07545,-0.37119 0.159969,-0.15997 0.07649,0.19114 0.06708,0.41951 -0.02089,0.50749 -0.08798,0.088 -0.150564,-0.0684 -0.139067,-0.34752 z"
         id="path912" />
      <path
         style="fill:#eac629;stroke-width:0.264779"
         d="m 88.258727,147.74042 c -2.045165,-0.53712 -5.078355,-2.07257 -6.042675,-3.0589 -0.933158,-0.95446 -2.487003,-3.80538 -2.975908,-5.46007 -0.240623,-0.81438 -0.47204,-1.12531 -0.837545,-1.12531 -1.753675,0 -1.968127,-1.45748 -0.759703,-5.16318 0.427403,-1.31065 0.970692,-3.4379 1.207308,-4.72721 1.315154,-7.16623 5.936766,-12.76055 12.038172,-14.57186 0.790981,-0.23482 1.773972,-0.42694 2.184424,-0.42694 0.410455,0 0.746279,-0.0723 0.746279,-0.16068 0,-0.36203 -2.218589,-2.91301 -3.044547,-3.50069 -0.527214,-0.37512 -0.831061,-0.78214 -0.747139,-1.00083 0.250952,-0.65398 0.662044,-0.4043 2.575189,1.56405 l 1.878443,1.93265 0.03324,-2.74699 c 0.03043,-2.51453 0.311714,-3.64178 0.789515,-3.16398 0.0933,0.0933 0.149444,1.396 0.124766,2.89491 l -0.04486,2.72528 0.769063,-1.19151 c 0.422984,-0.65532 1.090001,-1.48625 1.482262,-1.84651 0.599957,-0.551 0.752041,-0.59304 0.957821,-0.26478 0.178284,0.28441 0.02969,0.59246 -0.547948,1.13595 -0.703279,0.6617 -2.276318,3.31412 -2.059179,3.47213 0.0462,0.0336 0.752986,0.20543 1.570638,0.38181 2.262682,0.48809 5.103807,1.9658 6.457497,3.35864 3.35855,3.4557 5.47911,11.12007 4.64846,16.80095 -0.62342,4.26362 -2.11506,7.41829 -4.76682,10.08137 -1.90439,1.91253 -4.514537,3.37346 -7.285657,4.07786 -1.985347,0.50467 -6.400486,0.49613 -8.351092,-0.0162 z m 8.027318,-6.71297 c 0.516954,-0.57221 1.06633,-1.49562 1.220839,-2.05203 0.382393,-1.37709 0.356744,-3.40473 -0.0471,-3.72333 -0.182035,-0.14361 -1.462902,-0.26111 -2.84637,-0.26111 -1.383469,0 -2.664336,0.1175 -2.846371,0.26111 -0.403843,0.3186 -0.429492,2.34624 -0.0471,3.72333 0.394192,1.41956 1.959415,3.0924 2.89347,3.0924 0.516641,0 1.009892,-0.3068 1.67263,-1.04037 z m -4.403677,-7.74348 c 0.767197,-0.72074 0.871567,-2.93596 0.174611,-3.70609 -0.554004,-0.61217 -2.130104,-0.63821 -2.784483,-0.046 -0.706443,0.63932 -0.67736,3.07554 0.04535,3.79825 0.693166,0.69316 1.798734,0.67327 2.564526,-0.0462 z m 7.94336,0 c 0.767192,-0.72074 0.871562,-2.93596 0.174612,-3.70609 -0.554006,-0.61217 -2.130106,-0.63821 -2.784485,-0.046 -0.706443,0.63932 -0.677359,3.07554 0.04535,3.79825 0.693167,0.69316 1.798734,0.67327 2.564527,-0.0462 z m 9.588252,4.20588 c -0.49483,-0.33347 -0.88906,-0.69891 -0.87607,-0.81209 0.013,-0.11319 0.54081,-1.44634 1.17294,-2.96257 l 1.14931,-2.75678 0.74671,2.15491 c 0.89819,2.59206 0.98366,4.30783 0.23456,4.70873 -0.78633,0.42083 -1.44346,0.3309 -2.42745,-0.3322 z"
         id="path910" />
      <path
         style="fill:#cdae25;stroke-width:0.264779"
         d="m 91.502265,148.22963 c 0.546106,-0.0571 1.439734,-0.0571 1.98584,0 0.546106,0.0571 0.09929,0.10386 -0.99292,0.10386 -1.092212,0 -1.539026,-0.0467 -0.99292,-0.10386 z m -2.498848,-0.25277 c 0.191136,-0.0765 0.419507,-0.0671 0.507493,0.0209 0.08798,0.088 -0.0684,0.15056 -0.347522,0.13907 -0.308454,-0.0127 -0.371193,-0.0754 -0.159971,-0.15997 z m 6.619466,0 c 0.191136,-0.0765 0.419507,-0.0671 0.507493,0.0209 0.08798,0.088 -0.0684,0.15056 -0.347522,0.13907 -0.308453,-0.0127 -0.371193,-0.0754 -0.159971,-0.15997 z m -11.721696,-1.3895 c -0.08378,-0.13557 -0.0511,-0.30905 0.07263,-0.38552 0.123732,-0.0765 0.224968,0.0344 0.224968,0.24648 0,0.44646 -0.08349,0.48547 -0.297601,0.13904 z m 22.627263,-1.44216 c 0,-0.055 0.20852,-0.2635 0.46337,-0.46337 0.41995,-0.32935 0.42932,-0.31998 0.1,0.1 -0.3459,0.44106 -0.56334,0.58132 -0.56334,0.3634 z m -2.64778,-1.35632 c 0.34202,-0.36407 0.68144,-0.66194 0.75425,-0.66194 0.0728,0 -0.14745,0.29787 -0.48947,0.66194 -0.34203,0.36408 -0.68145,0.66195 -0.75426,0.66195 -0.0728,0 0.14745,-0.29787 0.48948,-0.66195 z M 93.7276,141.86924 c -0.0675,-0.10922 0.331114,-0.19858 0.885815,-0.19858 0.5547,0 0.953316,0.0894 0.885814,0.19858 -0.0675,0.10922 -0.466119,0.19858 -0.885814,0.19858 -0.419696,0 -0.818312,-0.0894 -0.885815,-0.19858 z m 14.88531,-4.76602 c -0.32935,-0.41995 -0.31999,-0.42932 0.1,-0.1 0.25485,0.19987 0.46336,0.40839 0.46336,0.46337 0,0.21792 -0.21743,0.0777 -0.56333,-0.3634 z m -0.49578,-0.87615 c 0,-0.15423 0.11915,-0.20677 0.26477,-0.11677 0.14563,0.09 0.26478,0.21619 0.26478,0.28041 0,0.0642 -0.11915,0.11676 -0.26478,0.11676 -0.14562,0 -0.26477,-0.12618 -0.26477,-0.2804 z m 0.28568,-1.19794 c 0.0127,-0.30846 0.0754,-0.3712 0.15997,-0.15998 0.0765,0.19114 0.0671,0.41951 -0.0209,0.5075 -0.088,0.088 -0.15057,-0.0684 -0.13907,-0.34752 z m 0.28568,-1.699 c 0,-0.36407 0.0601,-0.51301 0.13355,-0.33098 0.0734,0.18204 0.0734,0.47992 0,0.66195 -0.0735,0.18204 -0.13355,0.0331 -0.13355,-0.33097 z m 0,-5.29557 c 0,-0.36408 0.0601,-0.51301 0.13355,-0.33098 0.0734,0.18204 0.0734,0.47991 0,0.66195 -0.0735,0.18203 -0.13355,0.0331 -0.13355,-0.33097 z"
         id="path908" />
      <path
         style="fill:#e67b21;stroke-width:0.264779"
         d="m 93.155342,140.28057 c -1.416695,-1.40167 -2.263524,-4.45753 -1.388298,-5.00981 0.468584,-0.29568 5.293778,-0.29783 5.692741,-0.003 0.856209,0.63373 0.105014,3.40443 -1.323059,4.87995 -1.044457,1.07917 -1.982366,1.12082 -2.981384,0.13239 z"
         id="path906" />
      <path
         style="fill:#bb9e20;stroke-width:0.264779"
         d="m 91.171292,149.98533 c -2.420943,-0.47264 -5.43197,-1.98174 -7.546191,-3.78208 -0.703978,-0.59946 -0.59856,-0.5745 0.926725,0.21945 2.784367,1.44933 4.498184,1.84805 7.943359,1.84805 3.475591,0 5.161039,-0.39917 8.031445,-1.90213 3.12486,-1.63619 6.01258,-5.00816 7.20766,-8.41632 l 0.46825,-1.33534 0.56861,0.541 c 0.31273,0.29756 0.78781,0.66552 1.05572,0.8177 0.46457,0.26387 0.46678,0.3379 0.0477,1.59968 -1.74461,5.25252 -6.54391,9.40717 -12.053737,10.43466 -1.686989,0.31459 -4.974205,0.30239 -6.649521,-0.0247 z m 2.337397,-8.45675 c -0.517483,-0.30196 -1.399005,-1.68956 -1.675945,-2.6381 -0.143672,-0.49209 -0.0068,-0.39129 0.533375,0.39284 0.916801,1.33084 1.411461,1.70638 2.261549,1.71697 0.664247,0.008 1.920074,-1.07004 2.61131,-2.2422 0.286006,-0.48499 0.29754,-0.47385 0.137065,0.13239 -0.256282,0.96817 -1.147646,2.35029 -1.709773,2.65114 -0.614864,0.32906 -1.581301,0.32322 -2.157581,-0.0131 z m 15.059671,-6.35494 c 0.4046,-2.2688 0.23593,-8.18548 -0.29031,-10.18404 -0.51959,-1.97329 -1.87935,-5.14153 -2.81393,-6.55647 -0.49284,-0.74615 -0.44076,-0.71999 0.4016,0.20178 2.19536,2.40232 4.02691,6.43038 4.63518,10.19398 l 0.32096,1.98584 -1.11348,2.64779 c -0.61241,1.45628 -1.16685,2.70289 -1.2321,2.77023 -0.0652,0.0673 -0.0238,-0.40925 0.0921,-1.05911 z m -18.658616,-1.59088 c -0.329782,-0.13113 -0.717021,-0.54725 -0.860531,-0.92471 -0.361913,-0.95189 -0.335001,-0.99067 0.268629,-0.38704 0.692965,0.69297 1.967278,0.68051 2.673925,-0.0261 l 0.555696,-0.5557 -0.186944,0.62189 c -0.352796,1.17361 -1.370018,1.70144 -2.450775,1.2717 z m 7.943359,0 c -0.329782,-0.13113 -0.717021,-0.54725 -0.860531,-0.92471 -0.361912,-0.95189 -0.335,-0.99067 0.268629,-0.38704 0.692965,0.69297 1.967279,0.68051 2.673925,-0.0261 l 0.555694,-0.5557 -0.18694,0.62189 c -0.352798,1.17361 -1.370019,1.70144 -2.450777,1.2717 z"
         id="path904" />
      <path
         style="fill:#070501;stroke-width:0.264779"
         d="m 89.317842,132.27101 c -0.294199,-0.29419 -0.529558,-0.88259 -0.529558,-1.32389 0,-0.4413 0.235359,-1.02969 0.529558,-1.32389 1.146009,-1.14601 3.177343,-0.29962 3.177343,1.32389 0,1.01921 -0.834243,1.85345 -1.85345,1.85345 -0.441299,0 -1.029695,-0.23536 -1.323893,-0.52956 z m 7.943359,0 c -0.294198,-0.29419 -0.529557,-0.88259 -0.529557,-1.32389 0,-0.4413 0.235359,-1.02969 0.529557,-1.32389 0.294198,-0.2942 0.882595,-0.52956 1.323893,-0.52956 0.441299,0 1.029695,0.23536 1.323893,0.52956 0.294203,0.2942 0.529553,0.88259 0.529553,1.32389 0,0.4413 -0.23535,1.0297 -0.529553,1.32389 -0.294198,0.2942 -0.882594,0.52956 -1.323893,0.52956 -0.441298,0 -1.029695,-0.23536 -1.323893,-0.52956 z"
         id="path902" />
    </g>
    <path
       style="fill:#0066ff;stroke-width:0.1002"
       d="m 48.259153,81.163802 c -1.946716,-0.249165 -4.321219,-1.197222 -5.811644,-2.320416 -4.705137,-3.545799 -6.25854,-9.849651 -3.713084,-15.068036 1.453308,-2.979395 3.88949,-5.154812 6.992166,-6.243733 2.566313,-0.900676 5.521308,-0.88563 8.093704,0.04125 3.074205,1.107675 5.780854,3.64596 7.068979,6.629291 1.862063,4.312565 1.066201,9.399888 -2.009832,12.847257 -2.348768,2.632314 -5.321589,4.036316 -8.816675,4.163935 -0.606215,0.02215 -1.417842,-2.07e-4 -1.803614,-0.04956 z m 3.657328,-3.006814 c 1.125991,-0.269572 2.709005,-1.051283 3.631119,-1.793083 3.026485,-2.434681 4.261936,-6.412322 3.121549,-10.050062 -1.017763,-3.246563 -3.627525,-5.650354 -7.003171,-6.450453 -0.987543,-0.234072 -2.878763,-0.234833 -3.896925,-0.002 -2.896965,0.663697 -5.190557,2.472596 -6.475792,5.107304 -0.749398,1.536241 -0.928729,2.322513 -0.928729,4.071955 0,1.162275 0.04202,1.607727 0.210068,2.226862 0.803912,2.961867 2.784428,5.258643 5.530235,6.413332 1.061036,0.446193 1.168973,0.478291 2.154318,0.64059 1.024906,0.168807 2.550878,0.100013 3.657328,-0.16488 z m -7.775955,-7.856326 c -0.381605,-0.166117 -0.702971,-0.600015 -0.786981,-1.062569 -0.08856,-0.48757 0.280596,-1.191189 0.747276,-1.42432 0.320464,-0.160083 0.80297,-0.175207 5.596099,-0.175345 5.80494,-2.08e-4 5.742577,-0.0069 6.138847,0.643122 0.245287,0.402255 0.245287,1.116805 0,1.51906 -0.39658,0.650333 -0.33286,0.643696 -6.138847,0.639354 -4.1786,-0.0029 -5.308645,-0.03146 -5.556394,-0.139302 z"
       id="path883" />
  </g>
  <g
     inkscape:groupmode="layer"
     id="layer2"
     inkscape:label="Warstwa 2">
    <g
       id="g169"
       transform="matrix(0.29665187,0,0,0.29667973,35.51832,1.344673)">
      <path
         style="fill:#c5b9f2;stroke-width:0.264562"
         d="m 96.647662,132.62332 c -0.09701,-0.097 -0.176376,-4.38208 -0.176376,-9.52239 v -9.34601 l -17.791828,-0.068 -17.791828,-0.068 -0.06988,-8.07775 -0.06988,-8.077743 17.65905,-23.735894 17.659047,-23.735891 h 10.652873 10.65288 V 73.92917 97.866709 l 5.48968,0.07151 5.48967,0.07151 v 7.804591 7.80459 l -5.48967,0.0715 -5.48968,0.0715 v 9.51888 9.51888 h -10.27384 c -5.65061,0 -10.35321,-0.0794 -10.450215,-0.17637 z m 19.728658,-10.2077 0.0694,-9.59039 5.48967,-0.0715 5.48967,-0.0715 v -6.86789 -6.86789 l -5.48967,-0.07151 -5.48967,-0.07151 -0.0676,-23.876765 -0.0675,-23.876766 -9.85355,0.0095 -9.853542,0.0095 -17.527266,23.584888 -17.527266,23.584889 v 7.227124 7.22712 h 17.990251 17.990249 v 9.65653 9.65653 h 9.388674 9.38866 l 0.0695,-9.59039 z M 75.967693,98.671132 c -0.08993,-0.145509 -0.07245,-0.413379 0.03886,-0.595266 1.193103,-1.949775 20.865171,-27.977484 21.145729,-27.977484 0.32202,0 0.377258,2.111137 0.377258,14.418656 V 98.935694 H 86.83037 c -6.847399,0 -10.758032,-0.09524 -10.862677,-0.264562 z m 20.503593,-13.5456 c 0,-7.013552 -0.099,-12.638812 -0.220002,-12.500578 -0.585074,0.668399 -18.563935,24.987859 -18.563935,25.110875 0,0.07789 4.226386,0.141615 9.391969,0.141615 h 9.391968 z"
         id="path183" />
      <path
         style="fill:#b0acf7;stroke-width:0.264562"
         d="m 62.668961,104.90379 0.07061,-6.730911 17.196562,-23.150367 17.196563,-23.150364 9.193544,-0.01429 9.19355,-0.01429 -0.004,10.251797 -0.004,10.251797 -8.39539,9.350525 -8.395379,9.350525 -0.132282,-10.594228 c -0.09139,-7.319463 -0.224105,-10.68597 -0.429342,-10.89103 -0.163386,-0.16324 -0.692434,-0.258369 -1.175668,-0.211391 -0.827012,0.0804 -1.496763,0.91659 -11.405131,14.239506 -10.536291,14.167223 -11.06048,14.978803 -10.218446,15.820837 0.232241,0.232241 2.364869,0.317475 7.943367,0.317475 h 7.625893 l -5.345105,5.952659 -5.345104,5.95265 h -8.819948 -8.819947 z"
         id="path181" />
      <path
         style="fill:#f05094;stroke-width:0.264562"
         d="m 86.814755,146.54778 c -6.46986,-0.73363 -14.342973,-3.04351 -20.371312,-5.9767 -2.797979,-1.3614 -3.469264,-1.82787 -5.656384,-3.93051 -9.292926,-8.93399 -15.096688,-19.96371 -17.403866,-33.07503 -0.60747,-3.45216 -0.697994,-4.691227 -0.695825,-9.524252 0.0027,-6.047629 0.461461,-9.794675 1.846235,-15.080062 5.424114,-20.702685 21.903464,-36.99376 42.677996,-42.190407 13.662901,-3.417707 27.698391,-1.897897 40.740571,4.411523 3.52048,1.703104 3.61343,1.770965 6.76287,4.937361 9.07806,9.126937 14.66744,20.350805 16.68412,33.502929 0.68868,4.491337 0.6236,12.4972 -0.13864,17.055249 -1.08115,6.465039 -2.57342,11.296519 -5.15076,16.676469 -8.31071,17.34783 -24.51569,29.44588 -43.8181,32.71297 -3.513256,0.59465 -12.114961,0.86168 -15.476905,0.48046 z m 31.203375,-13.27783 c 0.3533,-0.50441 0.41184,-1.87698 0.41184,-9.65653 v -9.06854 h 5.10606 c 3.61863,0 5.19854,-0.0925 5.42353,-0.31747 0.45381,-0.45381 0.45381,-16.372369 0,-16.826178 -0.22499,-0.224992 -1.8049,-0.317475 -5.42353,-0.317475 h -5.10606 V 73.537694 c 0,-23.193312 -0.008,-23.553989 -0.52912,-24.075187 -0.51162,-0.511623 -0.88188,-0.529125 -11.19334,-0.529125 -8.12902,0 -10.764944,0.07862 -11.087924,0.330703 -0.353321,0.275764 -24.562888,32.676559 -33.327843,44.604206 l -2.594644,3.530877 v 8.157112 c 0,7.06281 0.05577,8.21289 0.415741,8.57286 0.369602,0.3696 2.366173,0.41574 17.99025,0.41574 h 17.574509 v 9.17272 c 0,8.16404 0.04815,9.22592 0.437848,9.65653 0.410204,0.45327 1.102438,0.48381 10.964343,0.48381 h 10.52649 z M 79.472074,96.753054 c 0.144176,-0.181887 3.745494,-5.033302 8.002923,-10.780922 4.257433,-5.74762 7.844694,-10.563319 7.971694,-10.701553 0.131829,-0.143491 0.230908,4.482437 0.230908,10.780922 v 11.032256 h -8.233831 c -6.550498,0 -8.18024,-0.06761 -7.971694,-0.330703 z"
         id="path179" />
      <path
         style="fill:#665ded;stroke-width:0.264562"
         d="m 98.587786,121.87092 c 0,-7.4184 -0.06856,-9.17068 -0.37525,-9.59039 -0.354794,-0.48556 -0.851801,-0.52076 -9.117966,-0.64584 l -8.742719,-0.13228 5.289421,-5.88651 5.289422,-5.886518 h 3.554675 c 3.243637,0 3.578639,-0.04478 3.828548,-0.511733 0.150724,-0.281634 0.278224,-2.214724 0.283552,-4.29914 l 0.0097,-3.787408 8.390171,-9.33322 8.39018,-9.33322 0.0686,13.277527 c 0.0479,9.268629 0.15752,13.384661 0.36309,13.63236 0.2282,0.27496 1.47828,0.354834 5.55334,0.354834 h 5.25886 v 5.952658 5.95265 h -5.11796 c -4.62221,0 -5.16038,0.0469 -5.55582,0.48382 -0.3897,0.43061 -0.43784,1.49249 -0.43784,9.65653 v 9.17272 h -8.466 -8.466 z"
         id="path177" />
      <path
         style="fill:#d72f77;stroke-width:0.264562"
         d="m 59.82938,136.74312 c -3.295321,-2.21879 -8.500893,-7.97601 -11.948702,-13.21494 -4.444258,-6.75303 -7.335595,-14.09553 -8.857049,-22.49231 -0.807147,-4.454583 -0.883198,-14.415462 -0.144302,-18.899894 3.553707,-21.56776 17.917836,-38.99534 38.278897,-46.44267 14.196291,-5.192484 30.018036,-4.656155 43.981546,1.490896 2.74078,1.206552 7.98372,4.054041 7.80098,4.236782 -0.06,0.06002 -1.11016,-0.352609 -2.33363,-0.91696 -21.63765,-9.980807 -46.949074,-6.175964 -64.530816,9.700347 -10.151261,9.166586 -16.475946,20.881094 -18.81115,34.841792 -0.880742,5.265405 -0.830626,13.128258 0.118039,18.519377 2.22017,12.61687 7.386258,22.79333 16.150224,31.81364 1.307711,1.34596 2.266435,2.44395 2.130498,2.43997 -0.135938,-0.004 -0.961479,-0.48819 -1.834535,-1.07603 z"
         id="path175" />
      <path
         style="fill:#b72b67;stroke-width:0.264562"
         d="m 55.993224,133.95089 c -3.403398,-2.81288 -5.462016,-4.82585 -7.916203,-7.74071 C 40.796919,117.56357 36.42118,108.0722 34.527109,96.819194 33.68725,91.829448 33.681218,83.992495 34.513263,78.828944 c 3.09688,-19.218796 14.80867,-35.251256 32.094769,-43.935053 13.992312,-7.029139 30.942569,-8.082999 45.958638,-2.857418 3.13359,1.090487 9.17461,4.076202 12.19763,6.02856 2.359,1.523507 6.36467,4.462769 6.36467,4.67023 0,0.160882 -1.97843,-1.046352 -2.07137,-1.263947 -0.1511,-0.353754 -5.2314,-3.104487 -7.91783,-4.287114 C 99.694597,27.743557 74.841725,31.795879 57.501445,47.560589 47.5992,56.5631 41.106756,68.617515 38.879327,82.135976 c -0.738896,4.484432 -0.662845,14.445311 0.144302,18.899894 2.242256,12.37484 7.554807,22.72059 16.276788,31.69768 1.307711,1.34597 2.325962,2.44108 2.262779,2.43358 -0.06318,-0.007 -0.76967,-0.5548 -1.569972,-1.21624 z"
         id="path173" />
      <path
         style="fill:#3905f8;stroke-width:0.264562"
         d="m 96.115447,133.37413 c -0.3897,-0.43061 -0.437848,-1.49249 -0.437848,-9.65653 v -9.17272 H 78.10309 c -15.624077,0 -17.620648,-0.0461 -17.99025,-0.41574 -0.359969,-0.35997 -0.415741,-1.51005 -0.415741,-8.57286 v -8.157112 l 2.594644,-3.530877 C 71.056698,81.940644 95.266265,49.539849 95.619586,49.264085 95.942566,49.012 98.57849,48.933382 106.70751,48.933382 c 10.31146,0 10.68172,0.0175 11.19334,0.529125 0.5212,0.521198 0.52912,0.881875 0.52912,24.075187 v 23.546063 h 5.10606 c 3.61863,0 5.19854,0.09248 5.42353,0.317475 0.45381,0.453809 0.45381,16.372368 0,16.826178 -0.22499,0.22499 -1.8049,0.31747 -5.42353,0.31747 h -5.10606 v 9.06854 c 0,7.77955 -0.0585,9.15212 -0.41184,9.65653 l -0.41185,0.58799 h -10.52649 c -9.861905,0 -10.554139,-0.0305 -10.964343,-0.48381 z m 21.256273,-10.09332 v -9.51888 l 5.48968,-0.0715 5.48967,-0.0715 v -7.80459 -7.804594 l -5.48967,-0.07151 -5.48968,-0.07151 V 73.92917 49.991632 H 106.71884 96.065964 l -17.659047,23.735891 -17.65905,23.735894 0.06988,8.077743 0.06988,8.07775 17.791828,0.068 17.791828,0.068 v 9.34601 c 0,5.14031 0.07937,9.42538 0.176376,9.52239 0.09701,0.097 4.799611,0.17637 10.450221,0.17637 h 10.27384 z m -19.842184,-0.93133 v -9.65654 H 79.539287 61.549036 v -7.22712 -7.227121 L 79.076302,74.65381 96.603568,51.068923 l 9.853542,-0.0095 9.85355,-0.0095 0.0675,23.876766 0.0676,23.876765 5.48967,0.07151 5.48967,0.07151 v 6.867886 6.86789 l -5.48967,0.0715 -5.48967,0.0715 -0.0694,9.59039 -0.0695,9.59039 h -9.38866 -9.388674 v -9.65653 z m 17.990254,-0.57444 c 0,-8.16404 0.0481,-9.22592 0.43784,-9.65653 0.39544,-0.43695 0.93361,-0.48382 5.55582,-0.48382 h 5.11796 v -5.95265 -5.952658 h -5.23834 c -3.72151,0 -5.33026,-0.09193 -5.55581,-0.317475 -0.24218,-0.242186 -0.31747,-5.920321 -0.31747,-23.942906 V 51.843569 l -9.19355,0.01429 -9.193547,0.01429 -17.196563,23.150365 -17.196562,23.150367 -0.07061,6.730909 -0.07061,6.73091 h 17.465591 c 17.112841,0 17.476276,0.0107 17.994715,0.52912 0.508677,0.50868 0.529125,0.88188 0.529125,9.65654 v 9.1274 h 8.466001 8.466 v -9.17271 z M 75.359199,99.411907 C 74.517165,98.569873 75.041354,97.758293 85.577645,83.59107 95.579729,70.142143 96.148981,69.432642 97.003597,69.350011 c 1.630745,-0.157676 1.584189,-0.601506 1.584189,15.102704 0,9.319159 -0.0948,14.43035 -0.273869,14.764934 -0.264137,0.493544 -0.67132,0.511733 -11.455557,0.511733 -8.344118,0 -11.262251,-0.08057 -11.499161,-0.317475 z M 97.529536,84.517038 c 0,-12.307519 -0.05524,-14.418656 -0.377258,-14.418656 -0.280558,0 -19.952626,26.027709 -21.145729,27.977484 -0.111301,0.181887 -0.128786,0.449757 -0.03886,0.595266 0.104645,0.169317 4.015278,0.264562 10.862677,0.264562 h 10.69917 z M 77.687349,97.735829 c 0,-0.123016 17.978861,-24.442476 18.563935,-25.110875 0.121001,-0.138234 0.220002,5.487026 0.220002,12.500578 v 12.751912 h -9.391968 c -5.165583,0 -9.391969,-0.06373 -9.391969,-0.141615 z m 17.99025,-11.684328 c 0,-6.298485 -0.09908,-10.924413 -0.230908,-10.780922 -0.127,0.138234 -3.714261,4.953933 -7.971694,10.701553 -4.257429,5.74762 -7.858747,10.599035 -8.002923,10.780922 -0.208546,0.263094 1.421196,0.330703 7.971694,0.330703 h 8.233831 z"
         id="path171" />
    </g>
    <g
       id="g52"
       transform="matrix(0.2462634,0,0,0.24571886,-0.30765483,39.857322)">
      <path
         style="fill:#d9afd2;stroke-width:0.264562"
         d="m 67.215547,111.7776 v -5.4326 l 3.229683,-2.6292 c 10.648972,-8.669044 19.226535,-16.684748 24.188063,-22.60367 5.0369,-6.008838 7.101287,-9.869247 7.922717,-14.8155 0.47135,-2.838229 0.46673,-4.420278 -0.0196,-6.715794 -0.9392,-4.433107 -3.607521,-7.407557 -7.967736,-8.88184 -2.282608,-0.7718 -7.193624,-1.03882 -10.003693,-0.543919 -4.063881,0.715721 -10.513595,3.395723 -14.083987,5.852218 -0.611608,0.420797 -1.181677,0.765085 -1.266823,0.765085 -0.08515,0 -0.123223,-3.407049 -0.08461,-7.57122 l 0.0702,-7.571221 1.322812,-0.519894 c 2.146208,-0.843505 8.748656,-2.527992 12.169875,-3.104908 5.417655,-0.913573 9.518999,-1.173335 13.439698,-0.851214 11.147344,0.915854 17.937994,4.426332 21.875904,11.308922 0.6145,1.074 1.13059,2.222238 1.14687,2.551645 0.0207,0.41867 -7.64092,10.312842 -25.457444,32.875547 -14.017887,17.752143 -25.710909,32.511423 -25.984493,32.798403 -0.487655,0.51152 -0.49743,0.41502 -0.49743,-4.91084 z"
         id="path66" />
      <path
         style="fill:#c597b3;stroke-width:0.264562"
         d="m 65.363609,112.36406 v -7.10964 l 3.505453,-2.86592 C 82.790055,91.007244 93.116985,80.795637 97.342017,74.233505 c 1.473118,-2.287981 2.889053,-5.841918 3.365883,-8.44821 1.01882,-5.568768 -1.093953,-10.575487 -5.302981,-12.566674 -6.172487,-2.920056 -14.758556,-1.320712 -23.609793,4.397841 -2.058296,1.32981 -2.585977,1.558072 -3.439312,1.487757 l -1.007986,-0.08306 -0.06954,-9.333776 -0.06953,-9.333775 1.175227,-0.503762 c 3.14433,-1.347817 9.844725,-3.111106 15.234434,-4.009124 2.926374,-0.487584 4.599168,-0.595239 9.259688,-0.595918 5.201944,-7.68e-4 5.993351,0.0624 9.259693,0.738941 6.36892,1.319171 10.72826,3.426845 14.052,6.793935 4.17522,4.229661 6.54498,10.560274 6.57564,17.566291 0.0183,4.174172 -1.64737,10.890179 -3.71839,14.992834 -3.50019,6.933844 -11.62984,15.778999 -22.941288,24.960395 l -3.25413,2.64134 16.680678,0.0681 16.68067,0.0681 v 8.19947 8.19946 H 95.788296 65.363609 Z m 60.055691,-1.08989 v -7.14127 l -17.25911,-0.0681 c -15.190876,-0.0599 -17.268369,-0.11621 -17.336464,-0.46991 -0.04759,-0.24718 1.37655,-1.57029 3.700274,-3.43775 11.53873,-9.273121 19.22211,-17.477607 23.32829,-24.910458 1.31968,-2.388844 2.91082,-7.231287 3.47309,-10.569984 0.96395,-5.723683 -0.0201,-11.924244 -2.6614,-16.769783 -1.4857,-2.725539 -4.48197,-5.909996 -6.86965,-7.3011 -2.50081,-1.457008 -6.28613,-2.85369 -9.76409,-3.602684 -2.921385,-0.629134 -3.728362,-0.689188 -9.284412,-0.690929 -5.463126,-0.0017 -6.474985,0.07009 -9.901855,0.702663 -4.339203,0.800981 -8.870029,1.962991 -12.255255,3.143077 l -2.314921,0.80698 v 8.565115 c 0,7.54832 0.04853,8.565116 0.408791,8.565116 0.224836,0 1.266551,-0.577558 2.314922,-1.283461 6.449023,-4.342344 14.418733,-6.700755 19.984046,-5.913716 5.761793,0.814824 9.036454,3.310971 10.427814,7.94872 0.43566,1.452165 0.50382,2.282002 0.40484,4.92873 -0.1258,3.36418 -0.73796,5.761089 -2.231725,8.738383 -3.374375,6.725623 -14.418304,18.03871 -29.919735,30.648921 l -3.505454,2.85164 v 6.20052 6.20051 h 29.631 29.631004 z"
         id="path64" />
      <path
         style="fill:#ca71ad;stroke-width:0.264562"
         d="m 67.259641,117.40436 c 0.153497,-0.3784 51.935489,-65.901766 52.089709,-65.912745 0.25281,-0.01799 1.02649,3.593307 1.34081,6.258454 0.74305,6.300452 -1.69854,14.729681 -6.07732,20.980999 -4.41429,6.302032 -11.47621,13.364208 -20.881125,20.881892 -3.968663,3.17229 -4.477678,3.84567 -3.621864,4.79133 0.456654,0.5046 0.920964,0.51847 17.360199,0.51847 h 16.891 v 6.3495 6.3495 H 95.766251 c -15.727141,0 -28.555115,-0.0978 -28.50661,-0.2174 z"
         id="path62" />
      <path
         style="fill:#3a98dd;stroke-width:0.264562"
         d="m 85.734921,135.24172 c -7.280466,-0.81828 -14.397372,-2.86608 -20.846633,-5.99834 -2.810262,-1.36488 -3.562911,-1.87641 -5.527631,-3.75677 C 50.05411,116.57963 44.122805,105.35744 41.780113,92.223755 40.981492,87.746496 40.90964,78.269126 41.640713,73.836662 43.322575,63.6396 47.127774,54.723537 53.252538,46.628684 55.51441,43.63926 61.264708,37.956883 64.43764,35.575696 c 6.300678,-4.728459 13.281297,-8.099882 20.731245,-10.012547 5.769409,-1.481212 7.993954,-1.730639 15.249255,-1.709825 6.4175,0.01841 6.73986,0.04496 10.84706,0.893475 5.08243,1.049985 10.66328,2.926569 15.18875,5.107285 3.26214,1.571945 3.39881,1.673445 6.64632,4.935795 7.63568,7.670559 12.82194,16.790981 15.43381,27.14147 1.34888,5.345438 1.62033,7.759756 1.62109,14.418656 8e-4,6.655422 -0.30055,9.388879 -1.61166,14.620351 -4.59593,18.338294 -18.2047,33.685964 -35.95105,40.544774 -8.27332,3.19756 -18.696606,4.64384 -26.857539,3.72659 z m 41.262439,-15.48607 c 0.1719,-0.32119 0.27387,-3.56639 0.27387,-8.71556 0,-8.17769 -0.002,-8.20514 -0.58799,-8.61568 -0.51572,-0.36122 -2.46808,-0.41184 -15.88379,-0.41184 H 95.503648 l 2.457246,-2.031739 c 10.550576,-8.723575 17.538036,-16.375003 21.617046,-23.671134 1.36395,-2.439708 3.09792,-7.732162 3.56637,-10.885348 2.36433,-15.91458 -5.03807,-27.051355 -20.1141,-30.261291 -3.220235,-0.685643 -3.780454,-0.724873 -10.284382,-0.720178 -6.31239,0.0046 -7.190248,0.06295 -10.664224,0.709319 -5.913024,1.100184 -14.150969,3.500798 -15.307715,4.460811 -0.487161,0.404307 -0.520181,19.53102 -0.03455,20.016645 0.174611,0.174612 0.953832,0.317475 1.731604,0.317475 1.25374,0 1.630319,-0.14585 3.320259,-1.285956 6.192509,-4.177727 13.817602,-6.550509 18.78606,-5.845855 2.64876,0.375663 3.051598,0.49337 4.770233,1.393829 2.991988,1.567623 4.663015,4.620629 4.670675,8.53344 0.01,4.986138 -1.909446,9.37451 -6.775849,15.493436 -4.023122,5.058604 -14.704442,15.083613 -25.100801,23.558496 l -3.703875,3.01931 -0.07041,7.20707 c -0.04561,4.66816 0.02757,7.39014 0.207731,7.72677 0.274026,0.51202 0.735728,0.51971 31.213335,0.51971 30.313959,0 30.940699,-0.0103 31.209069,-0.51173 z"
         id="path60" />
      <path
         style="fill:#147dc9;stroke-width:0.264562"
         d="m 58.220421,125.38928 c -0.94581,-0.6655 -2.023802,-1.49491 -2.395539,-1.84314 -0.371734,-0.34822 -0.768591,-0.63313 -0.8819,-0.63313 -0.41971,0 -4.85375,-3.99037 -6.517747,-5.86558 -3.293969,-3.71208 -4.419376,-5.13087 -6.259806,-7.89167 -4.550125,-6.82558 -7.595333,-14.510054 -9.121174,-23.016942 -0.803991,-4.482419 -0.874849,-14.1955 -0.136067,-18.651656 2.139611,-12.905608 7.67071,-23.767695 16.701221,-32.798207 9.05503,-9.05503 19.995867,-14.579436 33.083044,-16.704768 3.978586,-0.646115 12.816958,-0.657852 17.021491,-0.0226 7.060496,1.066745 13.634226,3.232936 19.586906,6.454321 2.49189,1.348523 7.55755,4.652601 7.84417,5.116352 0.41927,0.678396 -0.27856,0.541037 -2.45312,-0.482865 -3.53214,-1.663128 -8.73731,-3.33052 -13.4267,-4.301034 -4.10976,-0.850554 -4.42555,-0.876611 -10.84706,-0.895033 -7.255301,-0.02081 -9.479846,0.228613 -15.249255,1.709825 -7.449948,1.912665 -14.430567,5.284088 -20.731245,10.012547 -3.172932,2.381187 -8.92323,8.063564 -11.185102,11.052988 -6.124764,8.094853 -9.929963,17.010916 -11.611825,27.207978 -0.731073,4.432464 -0.659221,13.909834 0.1394,18.387093 2.263812,12.691461 7.560685,23.045731 16.410061,32.078201 1.247399,1.27321 2.151425,2.31096 2.00895,2.30612 -0.142475,-0.005 -1.032892,-0.5533 -1.978703,-1.2188 z"
         id="path58" />
      <path
         style="fill:#8d2f68;stroke-width:0.264562"
         d="m 64.574961,119.74767 c -0.180159,-0.33663 -0.253337,-3.05861 -0.207731,-7.72677 l 0.07041,-7.20707 3.703875,-3.01931 c 7.468761,-6.088371 12.55884,-10.618509 17.886941,-15.91927 7.491005,-7.452567 11.000699,-11.974625 12.628838,-16.271588 2.654596,-7.005999 1.379286,-12.937707 -3.309804,-15.394514 -1.718635,-0.900459 -2.121473,-1.018166 -4.770233,-1.393829 -4.968458,-0.704654 -12.593551,1.668128 -18.78606,5.845855 -1.68994,1.140106 -2.066519,1.285957 -3.320259,1.285957 -0.777772,0 -1.556993,-0.142864 -1.731604,-0.317475 -0.485626,-0.485626 -0.452606,-19.612339 0.03455,-20.016646 1.156746,-0.960013 9.394691,-3.360627 15.307715,-4.460811 3.473976,-0.646372 4.351834,-0.704762 10.664224,-0.709319 6.503928,-0.0047 7.064147,0.03453 10.284387,0.720178 15.07603,3.209936 22.47843,14.346711 20.1141,30.261291 -0.46845,3.153186 -2.20242,8.44564 -3.56637,10.885348 -4.07901,7.296131 -11.06647,14.947559 -21.617051,23.671134 l -2.457246,2.031739 h 15.295807 c 13.41571,0 15.36807,0.0506 15.88379,0.41184 0.58612,0.41054 0.58799,0.43799 0.58799,8.61568 0,5.14917 -0.10197,8.39437 -0.27387,8.71556 -0.26837,0.50145 -0.89511,0.51173 -31.209069,0.51173 -30.477607,0 -30.939309,-0.008 -31.213335,-0.51971 z m 61.638019,-8.47344 v -8.19947 l -16.68067,-0.0681 -16.680676,-0.0681 3.25413,-2.64134 c 11.311446,-9.181393 19.441096,-18.026548 22.941286,-24.960392 2.07102,-4.102655 3.73666,-10.818662 3.71839,-14.992834 -0.0307,-7.006017 -2.40042,-13.33663 -6.57564,-17.566291 -3.32374,-3.36709 -7.68308,-5.474764 -14.052,-6.793935 -3.26634,-0.676544 -4.057747,-0.7397 -9.259691,-0.738941 -4.66052,6.87e-4 -6.333314,0.108334 -9.259688,0.595918 -5.389709,0.898018 -12.090104,2.661307 -15.234434,4.009124 l -1.175227,0.503762 0.06953,9.333775 0.06954,9.333776 1.007986,0.08306 c 0.853335,0.07032 1.381016,-0.157947 3.439312,-1.487757 7.319786,-4.729121 14.618263,-6.699064 20.33244,-5.48796 5.137762,1.088934 7.949542,4.061733 8.713012,9.211965 0.25493,1.71972 0.23329,2.444439 -0.13268,4.444828 -0.47683,2.606292 -1.892763,6.160229 -3.365881,8.44821 -4.225032,6.562132 -14.551962,16.773739 -28.472955,28.154992 l -3.505453,2.86592 v 7.10964 7.10963 h 30.424687 30.424682 z m -60.055684,0.9407 v -6.20052 l 3.505454,-2.85164 C 82.99707,92.315477 93.275061,82.200181 97.847638,75.424037 c 2.665482,-3.95 3.803682,-7.292528 3.966572,-11.648571 0.099,-2.646728 0.0308,-3.476565 -0.40484,-4.92873 -1.39136,-4.637749 -4.666021,-7.133896 -10.427814,-7.94872 -5.565313,-0.787039 -13.535023,1.571372 -19.984046,5.913716 -1.048371,0.705903 -2.090086,1.283461 -2.314922,1.283461 -0.360263,0 -0.408791,-1.016796 -0.408791,-8.565116 v -8.565115 l 2.314921,-0.80698 c 3.385226,-1.180086 7.916052,-2.342096 12.255255,-3.143077 3.42687,-0.632571 4.438729,-0.704376 9.901855,-0.702663 5.55605,0.0017 6.363027,0.0618 9.284412,0.690929 3.47796,0.748994 7.26328,2.145676 9.76409,3.602684 2.38768,1.391104 5.38395,4.575561 6.86965,7.3011 2.6413,4.845539 3.62535,11.0461 2.6614,16.769783 -0.56227,3.338697 -2.15341,8.18114 -3.47309,10.569984 -4.10618,7.432851 -11.78956,15.637337 -23.32829,24.910458 -2.323724,1.86746 -3.747867,3.19057 -3.700274,3.43775 0.06809,0.3537 2.145588,0.41001 17.336464,0.46991 l 17.25911,0.0681 v 7.14127 7.14127 h -29.631004 -29.631 z m 58.203754,-0.94267 v -6.3495 h -16.891 c -16.439235,0 -16.903545,-0.0139 -17.360199,-0.51847 -0.855814,-0.94566 -0.346799,-1.61904 3.621864,-4.79133 11.607275,-9.278107 19.460295,-17.657534 23.289215,-24.85033 2.46359,-4.627973 4.15545,-11.862649 3.77343,-16.135873 -0.39594,-4.428914 -1.34733,-7.75788 -3.01814,-10.560541 -3.93674,-6.60362 -10.69926,-10.013079 -21.644069,-10.912293 -3.9207,-0.322121 -8.022043,-0.06236 -13.439698,0.851214 -3.421219,0.576916 -10.023668,2.261403 -12.169875,3.104908 l -1.322813,0.519894 -0.0702,7.571221 c -0.03861,4.164171 -5.32e-4,7.57122 0.08461,7.57122 0.08515,0 0.655216,-0.344288 1.266823,-0.765085 3.570393,-2.456495 10.020107,-5.136497 14.083988,-5.852218 2.810069,-0.494901 7.721084,-0.227881 10.003693,0.543919 4.360214,1.474283 7.028531,4.448733 7.967731,8.88184 0.48632,2.295516 0.49094,3.877565 0.0196,6.715794 -0.82143,4.946253 -2.885812,8.806662 -7.922712,14.8155 -4.961528,5.918922 -13.539092,13.934626 -24.188063,22.60367 l -3.229694,2.6292 v 5.63838 5.63838 h 28.572749 28.57275 z"
         id="path56" />
      <path
         style="fill:#986128;stroke-width:0.264562"
         d="m 55.276486,123.24371 c -0.329081,-0.41961 -0.319723,-0.42897 0.09989,-0.0999 0.440695,0.34562 0.580841,0.56287 0.363096,0.56287 -0.05494,0 -0.26328,-0.20834 -0.462985,-0.46298 z M 128.26593,30.767403 c -0.54423,-0.320954 -0.99068,-0.672844 -0.99211,-0.781976 -0.005,-0.366469 0.38822,-0.189274 1.32023,0.595266 1.10116,0.926924 1.01255,0.977346 -0.32812,0.18671 z"
         id="path54" />
    </g>
  </g>
  <g
     inkscape:label="Warstwa 1"
     inkscape:groupmode="layer"
     id="layer1">
    <g
       id="g929"
       transform="matrix(0.60000949,0,0,0.6026023,30.188691,-26.836675)"
       style="display:inline">
      <path
         style="fill:#fb939c;stroke-width:0.264779"
         d="m 65.015181,154.36014 c 0.400477,-0.0607 1.055804,-0.0607 1.456282,0 0.400478,0.0607 0.07281,0.1103 -0.728141,0.1103 -0.800956,0 -1.128619,-0.0496 -0.728141,-0.1103 z m -3.574512,-0.25049 c 0.182035,-0.0734 0.479911,-0.0734 0.661946,0 0.182036,0.0735 0.0331,0.13355 -0.330973,0.13355 -0.364071,0 -0.513009,-0.0601 -0.330973,-0.13355 z m 7.943359,0 c 0.182035,-0.0734 0.479911,-0.0734 0.661947,0 0.182035,0.0735 0.0331,0.13355 -0.330974,0.13355 -0.36407,0 -0.513008,-0.0601 -0.330973,-0.13355 z m -12.113623,-2.44751 c -3.46172,-0.76237 -6.273213,-1.97986 -8.624604,-3.7348 -2.35694,-1.75907 -4.074544,-5.94166 -4.076259,-9.92622 -0.0011,-2.67371 0.892663,-5.84816 2.285729,-8.11794 l 0.594671,-0.96893 -0.540272,-1.81125 c -0.56442,-1.89221 -0.986205,-7.62566 -0.65737,-8.93584 l 0.172217,-0.68617 2.708963,1.35663 c 1.48993,0.74615 3.368373,1.81769 4.174318,2.3812 l 1.465355,1.02456 1.902538,-0.79936 c 2.554489,-1.07328 6.323465,-1.83672 9.067631,-1.83672 2.708807,0 6.505908,0.7604 8.972763,1.79686 l 1.80767,0.7595 1.241688,-0.91974 c 0.68293,-0.50586 2.516959,-1.55963 4.075621,-2.34172 l 2.833931,-1.42197 0.171794,1.91992 c 0.223155,2.49394 -0.125749,5.96222 -0.825257,8.20349 l -0.556276,1.78232 0.60208,1.92458 c 0.794158,2.53856 0.84328,6.77034 0.103782,8.9412 -0.917185,2.6925 -1.795935,4.08576 -3.870243,6.13629 -1.638447,1.61968 -2.558791,2.27691 -4.533574,3.23752 -3.946406,1.91968 -5.897544,2.33458 -11.480262,2.4412 -3.922624,0.0749 -5.164282,0.003 -7.016634,-0.40461 z m 10.044937,-5.17037 c 0.469974,-0.50027 0.582989,-0.87724 0.505767,-1.68701 -0.09937,-1.04203 -0.09855,-1.04302 1.133006,-1.35866 1.478233,-0.37886 3.277761,-1.64361 3.813983,-2.68055 0.21635,-0.41837 0.389026,-1.46295 0.389026,-2.35335 0,-1.46769 -0.07976,-1.68934 -0.957535,-2.66093 -0.526645,-0.58293 -0.819106,-1.05988 -0.649912,-1.05988 0.169193,0 0.600083,-0.29246 0.957534,-0.64991 0.535102,-0.5351 0.649913,-0.91153 0.649913,-2.13087 0,-1.26138 -0.103881,-1.57724 -0.70061,-2.13027 -1.008873,-0.93499 -3.021844,-0.9226 -3.968873,0.0244 -0.58753,0.58753 -0.662216,0.8586 -0.583718,2.11859 l 0.09002,1.44486 -2.184424,-2.6e-4 -2.184423,-4.7e-4 v -1.46893 c 0,-1.96684 -0.780721,-2.76753 -2.698487,-2.76753 -1.831161,0 -2.597086,0.78514 -2.597086,2.66223 0,1.18764 0.111826,1.47423 0.871794,2.2342 l 0.871792,0.87179 -0.871792,0.95129 c -0.785458,0.85708 -0.871794,1.11031 -0.871794,2.557 0,0.9261 0.172119,1.93856 0.406668,2.39212 0.548214,1.06013 2.249408,2.24996 3.776551,2.64136 l 1.252241,0.32094 -0.09945,1.04279 c -0.07722,0.80977 0.03579,1.18674 0.505767,1.68701 0.830158,0.88366 2.313882,0.88366 3.14404,0 z m 17.02868,1.97101 c -0.9556,-0.58264 -1.003106,-0.71949 -0.486256,-1.40077 0.315839,-0.41632 0.376047,-0.42263 0.517415,-0.0542 0.08799,0.2293 0.572983,0.58947 1.077763,0.80038 0.996719,0.41645 1.888573,0.23525 2.506466,-0.50927 0.299112,-0.36041 0.230614,-0.5579 -0.470419,-1.35633 -1.075115,-1.22449 -1.294577,-2.11656 -0.68611,-2.78891 0.258273,-0.28539 0.680772,-0.51889 0.938889,-0.51889 0.70228,0 1.566851,1.26615 1.566851,2.29463 0,1.08641 0.580278,1.40278 1.562128,0.85168 0.902572,-0.5066 0.999939,-1.18537 0.304895,-2.12547 -0.57332,-0.77545 -0.534569,-1.28562 0.09765,-1.28562 0.581453,0 1.584207,2.18638 1.378551,3.00578 -0.221726,0.88342 -1.587443,1.75791 -2.747473,1.75925 -0.473292,5.3e-4 -0.86053,0.12583 -0.86053,0.27841 0,0.15258 -0.315275,0.56961 -0.70061,0.92672 -0.897878,0.83213 -2.742792,0.88871 -3.999211,0.12265 z m 3.86581,-3.97458 c -0.152301,-0.43689 -0.384403,-0.79434 -0.515786,-0.79434 -0.309156,0 -0.301493,0.10244 0.06841,0.91427 0.428909,0.94136 0.784147,0.84613 0.44738,-0.11993 z m -1.792872,-3.06702 c 0.01271,-0.30845 0.07545,-0.37119 0.159969,-0.15997 0.07649,0.19114 0.06708,0.41951 -0.02089,0.50749 -0.08799,0.088 -0.150564,-0.0684 -0.139067,-0.34752 z m 0.295493,-1.83139 c 0.0054,-0.43688 0.06474,-0.58355 0.131871,-0.32593 0.06713,0.25762 0.06272,0.61507 -0.0098,0.79434 -0.07253,0.17926 -0.127456,-0.0315 -0.12206,-0.46841 z m 0,-2.91256 c 0.0054,-0.43689 0.06474,-0.58356 0.131871,-0.32594 0.06713,0.25763 0.06272,0.61508 -0.0098,0.79434 -0.07253,0.17926 -0.127456,-0.0315 -0.12206,-0.4684 z"
         id="path943" />
      <path
         style="fill:#de6a8a;stroke-width:0.264779"
         d="m 62.632173,152.23868 c 0.546106,-0.0571 1.439734,-0.0571 1.98584,0 0.546106,0.0571 0.09929,0.10386 -0.99292,0.10386 -1.092212,0 -1.539026,-0.0467 -0.99292,-0.10386 z m 17.938753,-5.997 c 0,-0.055 0.208513,-0.26349 0.463363,-0.46336 0.419954,-0.32935 0.42932,-0.31999 0.09997,0.1 -0.345899,0.44105 -0.563332,0.58131 -0.563332,0.36339 z m -16.606758,-4.67213 c -0.760092,-0.10939 -1.93264,-0.52158 -2.60566,-0.916 -2.603346,-1.52566 -2.404124,-3.80992 0.459004,-5.26289 1.330044,-0.67497 1.77984,-0.76231 3.92581,-0.76231 2.14597,0 2.595765,0.0873 3.925809,0.76231 1.115624,0.56615 1.626996,1.01712 1.987323,1.75258 0.470371,0.96007 0.470371,1.02047 0,1.98054 -0.912496,1.86249 -4.287852,2.93568 -7.692286,2.44577 z m 0.07013,-1.96772 c 0.409676,-0.40967 0.649912,-0.95243 0.649912,-1.46832 0,-0.51588 -0.240236,-1.05864 -0.649912,-1.46831 -0.409674,-0.40968 -0.95243,-0.64992 -1.468317,-0.64992 -0.515887,0 -1.058643,0.24024 -1.468317,0.64992 -0.409676,0.40967 -0.649912,0.95243 -0.649912,1.46831 0,0.51589 0.240236,1.05865 0.649912,1.46832 0.409674,0.40967 0.95243,0.64991 1.468317,0.64991 0.515887,0 1.058643,-0.24024 1.468317,-0.64991 z m 6.354687,0 c 1.313355,-1.31335 0.382717,-3.58655 -1.468316,-3.58655 -0.515887,0 -1.058644,0.24024 -1.468317,0.64992 -0.409676,0.40967 -0.649913,0.95243 -0.649913,1.46831 0,0.51589 0.240237,1.05865 0.649913,1.46832 0.409673,0.40967 0.95243,0.64991 1.468317,0.64991 0.515886,0 1.058643,-0.24024 1.468316,-0.64991 z m 1.709027,-5.27519 c 0,-0.055 0.208513,-0.26349 0.463363,-0.46336 0.419955,-0.32935 0.42932,-0.31999 0.09997,0.1 -0.345899,0.44105 -0.563333,0.58131 -0.563333,0.36339 z"
         id="path941" />
      <path
         style="fill:#c9757c;stroke-width:0.264779"
         d="m 60.844917,154.00898 c -4.331555,-0.67278 -10.085692,-3.3343 -11.813773,-5.46435 -0.41178,-0.50756 -0.385803,-0.49608 1.418718,0.6265 3.199737,1.99054 7.88422,3.08875 13.175231,3.08875 5.747687,0 10.234467,-1.16832 13.991266,-3.64322 3.279956,-2.16076 5.048188,-4.25564 6.331943,-7.50165 0.63393,-1.60291 0.708002,-2.13592 0.708693,-5.09973 5.3e-4,-2.74377 -0.09922,-3.59007 -0.58398,-4.94916 -0.321613,-0.90169 -0.509773,-1.83482 -0.418133,-2.07363 0.247317,-0.6445 1.53139,1.65611 2.367998,4.24262 0.775465,2.39748 0.948405,6.1251 0.392706,8.46458 -1.344027,5.65833 -6.519263,10.12699 -13.822184,11.93505 -2.021209,0.50041 -9.418997,0.73607 -11.748485,0.37424 z m 0.452223,-11.12374 c -1.038038,-0.51871 -1.812629,-1.12322 -2.160519,-1.68612 -0.780292,-1.26254 -0.66916,-1.43657 0.318208,-0.49831 1.132085,1.07579 2.824828,1.90482 4.302976,2.10743 1.06334,0.14574 1.142851,0.20204 0.728986,0.51619 -0.712181,0.54057 -1.425544,0.44234 -3.189651,-0.43919 z m 5.702713,0.43919 c -0.413865,-0.31415 -0.334355,-0.37045 0.728986,-0.51619 1.478148,-0.20261 3.170891,-1.03164 4.302976,-2.10743 0.987367,-0.93826 1.0985,-0.76423 0.318208,0.49831 -0.34789,0.5629 -1.122481,1.16741 -2.16052,1.68612 -1.764106,0.88153 -2.47747,0.97976 -3.18965,0.43919 z m -2.365292,-1.66489 c 0.191136,-0.0765 0.41951,-0.0671 0.507493,0.0209 0.08798,0.088 -0.0684,0.15056 -0.347521,0.13907 -0.308454,-0.0127 -0.371194,-0.0755 -0.159972,-0.15997 z m 1.853451,0 c 0.191135,-0.0765 0.419507,-0.0671 0.507493,0.0209 0.08798,0.088 -0.0684,0.15056 -0.347522,0.13907 -0.308454,-0.0127 -0.371193,-0.0755 -0.159971,-0.15997 z m 3.657583,-7.3809 -1.025691,-0.5887 1.170268,0.1319 c 0.993256,0.11196 1.298591,0.0239 2.018612,-0.58192 0.466587,-0.39261 0.84834,-0.63583 0.84834,-0.5405 0,0.42358 -0.587848,1.20183 -1.257161,1.66436 -0.721316,0.49847 -0.739042,0.49761 -1.754368,-0.0851 z m -11.042106,-0.36122 c -0.931102,-0.9311 -1.05818,-1.70357 -0.138048,-0.83915 0.357507,0.33586 1.125405,0.66307 1.753952,0.74737 1.087838,0.14591 1.101056,0.15938 0.489391,0.49848 -0.925023,0.51281 -1.24822,0.45038 -2.105295,-0.4067 z m 5.531072,0.5931 c 0.191136,-0.0765 0.41951,-0.0671 0.507493,0.0209 0.08798,0.088 -0.0684,0.15056 -0.347521,0.13906 -0.308454,-0.0127 -0.371194,-0.0754 -0.159972,-0.15996 z m 1.853451,0 c 0.191135,-0.0765 0.419507,-0.0671 0.507493,0.0209 0.08798,0.088 -0.0684,0.15056 -0.347522,0.13906 -0.308454,-0.0127 -0.371193,-0.0754 -0.159971,-0.15996 z m -3.524866,-1.4078 c 0.263585,-0.29126 0.512945,-0.52956 0.554139,-0.52956 0.04119,0 0.05695,0.2383 0.03501,0.52956 -0.02518,0.33409 -0.229706,0.52956 -0.55414,0.52956 -0.497476,0 -0.49862,-0.0173 -0.03501,-0.52956 z m 4.969093,-0.0281 c -0.04037,-0.53591 -0.02195,-0.53947 0.473212,-0.0914 0.634632,0.57433 0.639465,0.64897 0.042,0.64897 -0.291331,0 -0.489353,-0.21432 -0.515214,-0.55762 z"
         id="path939" />
      <path
         style="fill:#a0566a;stroke-width:0.264779"
         d="m 62.301199,133.61665 c 0,-0.15423 0.119151,-0.20677 0.264779,-0.11676 0.145628,0.09 0.264779,0.21618 0.264779,0.2804 0,0.0642 -0.119151,0.11676 -0.264779,0.11676 -0.145628,0 -0.264779,-0.12618 -0.264779,-0.2804 z m 6.487077,0.0156 c 0.09,-0.14563 0.216187,-0.26478 0.280406,-0.26478 0.06422,0 0.116762,0.11915 0.116762,0.26478 0,0.14562 -0.126183,0.26477 -0.280406,0.26477 -0.154223,0 -0.206765,-0.11915 -0.116762,-0.26477 z"
         id="path937" />
      <path
         style="fill:#623750;stroke-width:0.264779"
         d="m 62.953257,142.49138 c -3.212422,-0.92655 -4.824651,-2.58546 -4.544275,-4.67583 0.0757,-0.56436 0.31267,-1.29325 0.526603,-1.61975 0.647701,-0.98852 2.342012,-1.98757 4.15995,-2.4529 5.369611,-1.37446 10.883941,1.60762 9.938488,5.3746 -0.302584,1.20559 -2.153085,2.67522 -4.121272,3.27304 -2.409705,0.73193 -3.696032,0.75369 -5.959494,0.10084 z m 5.713473,-1.07588 c 1.864105,-0.55358 3.431279,-2.05257 3.431279,-3.28199 0,-1.9425 -3.024683,-3.7069 -6.354687,-3.7069 -3.305595,0 -6.354688,1.76556 -6.354688,3.67964 0,2.72312 5.11201,4.54644 9.278096,3.30925 z m -7.074825,-1.47851 c -1.462505,-0.70706 -1.334243,-3.02982 0.202452,-3.66634 2.35795,-0.97669 3.989269,2.62432 1.667992,3.68197 -0.783122,0.35681 -1.105655,0.35412 -1.870444,-0.0156 z m 6.354688,0 c -1.462505,-0.70706 -1.334244,-3.02982 0.202452,-3.66634 2.357949,-0.97669 3.989269,2.62432 1.667992,3.68197 -0.783123,0.35681 -1.105655,0.35412 -1.870444,-0.0156 z"
         id="path935" />
      <path
         style="fill:#44283b;stroke-width:0.264779"
         d="m 64.948986,146.79147 c -2.313273,-1.16346 -0.817067,-4.62365 1.571488,-3.63428 0.905778,0.37519 1.43604,1.57632 1.093562,2.47711 -0.440348,1.1582 -1.633202,1.67614 -2.66505,1.15717 z M 60.646333,133.7217 c 0.182035,-0.0735 0.479911,-0.0735 0.661946,0 0.182036,0.0735 0.0331,0.13355 -0.330973,0.13355 -0.36407,0 -0.513008,-0.0601 -0.330973,-0.13355 z m 9.532031,0 c 0.182035,-0.0735 0.479911,-0.0735 0.661947,0 0.182035,0.0735 0.0331,0.13355 -0.330974,0.13355 -0.36407,0 -0.513008,-0.0601 -0.330973,-0.13355 z"
         id="path933" />
      <path
         style="fill:#050304;stroke-width:0.264779"
         d="m 59.103489,132.85831 c -0.950945,-0.95095 -0.998451,-1.93819 -0.134825,-2.80181 0.75281,-0.75282 1.740413,-1.05019 2.693392,-0.81101 1.016707,0.25518 1.963037,1.32558 1.963037,2.22041 0,2.04531 -2.957853,2.95616 -4.521604,1.39241 z m 9.532031,0 c -0.950944,-0.95095 -0.998451,-1.93819 -0.134825,-2.80181 0.752811,-0.75282 1.740414,-1.05019 2.693392,-0.81101 1.016707,0.25518 1.963037,1.32558 1.963037,2.22041 0,2.04531 -2.957853,2.95616 -4.521604,1.39241 z"
         id="path931" />
    </g>
  </g>
</svg>
