<?xml version="1.0" encoding="UTF-8" standalone="no"?>
<svg
   xmlns:dc="http://purl.org/dc/elements/1.1/"
   xmlns:cc="http://creativecommons.org/ns#"
   xmlns:rdf="http://www.w3.org/1999/02/22-rdf-syntax-ns#"
   xmlns:svg="http://www.w3.org/2000/svg"
   xmlns="http://www.w3.org/2000/svg"
   xmlns:sodipodi="http://sodipodi.sourceforge.net/DTD/sodipodi-0.dtd"
   xmlns:inkscape="http://www.inkscape.org/namespaces/inkscape"
   width="210mm"
   height="297mm"
   viewBox="0 0 210 297"
   version="1.1"
   id="svg8"
   inkscape:version="1.0.2-2 (e86c870879, 2021-01-15)"
   sodipodi:docname="s3.svg">
  <defs
     id="defs2">
    <pattern
       id="EMFhbasepattern"
       patternUnits="userSpaceOnUse"
       width="6"
       height="6"
       x="0"
       y="0" />
    <pattern
       id="EMFhbasepattern-7"
       patternUnits="userSpaceOnUse"
       width="6"
       height="6"
       x="0"
       y="0" />
    <pattern
       id="EMFhbasepattern-3"
       patternUnits="userSpaceOnUse"
       width="6"
       height="6"
       x="0"
       y="0" />
    <pattern
       id="EMFhbasepattern-8"
       patternUnits="userSpaceOnUse"
       width="6"
       height="6"
       x="0"
       y="0" />
    <pattern
       id="EMFhbasepattern-9"
       patternUnits="userSpaceOnUse"
       width="6"
       height="6"
       x="0"
       y="0" />
    <pattern
       id="EMFhbasepattern-31"
       patternUnits="userSpaceOnUse"
       width="6"
       height="6"
       x="0"
       y="0" />
    <pattern
       id="EMFhbasepattern-97"
       patternUnits="userSpaceOnUse"
       width="6"
       height="6"
       x="0"
       y="0" />
    <pattern
       id="EMFhbasepattern-98"
       patternUnits="userSpaceOnUse"
       width="6"
       height="6"
       x="0"
       y="0" />
    <pattern
       id="EMFhbasepattern-8-5"
       patternUnits="userSpaceOnUse"
       width="6"
       height="6"
       x="0"
       y="0" />
    <pattern
       id="EMFhbasepattern-9-1"
       patternUnits="userSpaceOnUse"
       width="6"
       height="6"
       x="0"
       y="0" />
    <pattern
       id="EMFhbasepattern-1"
       patternUnits="userSpaceOnUse"
       width="6"
       height="6"
       x="0"
       y="0" />
    <pattern
       id="EMFhbasepattern-0"
       patternUnits="userSpaceOnUse"
       width="6"
       height="6"
       x="0"
       y="0" />
    <pattern
       id="EMFhbasepattern-8-4"
       patternUnits="userSpaceOnUse"
       width="6"
       height="6"
       x="0"
       y="0" />
    <pattern
       id="EMFhbasepattern-81"
       patternUnits="userSpaceOnUse"
       width="6"
       height="6"
       x="0"
       y="0" />
    <pattern
       id="EMFhbasepattern-8-3"
       patternUnits="userSpaceOnUse"
       width="6"
       height="6"
       x="0"
       y="0" />
    <pattern
       id="EMFhbasepattern-9-9"
       patternUnits="userSpaceOnUse"
       width="6"
       height="6"
       x="0"
       y="0" />
    <pattern
       id="EMFhbasepattern-1-0"
       patternUnits="userSpaceOnUse"
       width="6"
       height="6"
       x="0"
       y="0" />
    <pattern
       id="EMFhbasepattern-3-6"
       patternUnits="userSpaceOnUse"
       width="6"
       height="6"
       x="0"
       y="0" />
    <pattern
       id="EMFhbasepattern-4"
       patternUnits="userSpaceOnUse"
       width="6"
       height="6"
       x="0"
       y="0" />
    <pattern
       id="EMFhbasepattern-89"
       patternUnits="userSpaceOnUse"
       width="6"
       height="6"
       x="0"
       y="0" />
    <pattern
       id="EMFhbasepattern-8-1"
       patternUnits="userSpaceOnUse"
       width="6"
       height="6"
       x="0"
       y="0" />
    <pattern
       id="EMFhbasepattern-9-10"
       patternUnits="userSpaceOnUse"
       width="6"
       height="6"
       x="0"
       y="0" />
  </defs>
  <sodipodi:namedview
     id="base"
     pagecolor="#ffffff"
     bordercolor="#666666"
     borderopacity="1.0"
     inkscape:pageopacity="0.0"
     inkscape:pageshadow="2"
     inkscape:zoom="0.98994949"
     inkscape:cx="407.95419"
     inkscape:cy="383.04576"
     inkscape:document-units="mm"
     inkscape:current-layer="layer2"
     inkscape:document-rotation="0"
     showgrid="false"
     inkscape:window-width="1920"
     inkscape:window-height="1017"
     inkscape:window-x="-8"
     inkscape:window-y="-8"
     inkscape:window-maximized="1" />
  <metadata
     id="metadata5">
    <rdf:RDF>
      <cc:Work
         rdf:about="">
        <dc:format>image/svg+xml</dc:format>
        <dc:type
           rdf:resource="http://purl.org/dc/dcmitype/StillImage" />
        <dc:title></dc:title>
      </cc:Work>
    </rdf:RDF>
  </metadata>
  <g
     inkscape:groupmode="layer"
     id="layer4"
     inkscape:label="Warstwa 3"
     style="display:inline">
    <g
       id="g978"
       transform="translate(-0.23034879,-0.2545802)" />
    <g
       id="g1072"
       transform="translate(-70.292455,-55.7084)"
       style="fill-rule:evenodd">
      <path
         style="fill:#eaebeb;stroke-width:0.264336;fill-rule:evenodd"
         d="m 110.18838,141.03079 c -9.84944,-1.02668 -19.844568,-5.56175 -27.035569,-12.26681 -3.860131,-3.59927 -6.433978,-7.08635 -9.183392,-12.44177 -3.163756,-6.16248 -4.09139,-10.27888 -4.091935,-18.158032 -3.15e-4,-4.562489 0.0818,-5.60169 0.647491,-8.19442 1.429984,-6.554027 3.983089,-11.863668 8.361064,-17.388337 5.571118,-7.030325 13.536197,-12.399627 22.447081,-15.131697 4.15126,-1.272772 6.42519,-1.508753 14.53849,-1.508753 8.42796,0 10.43783,0.22764 15.09089,1.70921 11.18288,3.560711 20.40273,11.002876 25.97807,20.969213 1.68982,3.020679 2.04099,3.814392 3.23643,7.314966 1.42522,4.173445 1.79673,6.716749 1.79673,12.30039 0,7.27317 -0.87952,11.27644 -3.8039,17.31402 -2.58797,5.34302 -5.43137,9.30465 -9.281,12.93091 -10.16968,9.5796 -24.0431,14.07895 -38.70045,12.55111 z"
         id="path1086" />
      <path
         style="fill:#d0f0ef;stroke-width:0.264336;fill-rule:evenodd"
         d="m 110.18838,141.03079 c -11.531663,-1.20203 -23.131708,-7.24215 -30.272282,-15.76271 -2.858431,-3.41085 -3.893179,-4.95745 -5.809161,-8.68274 -1.746812,-3.39637 -3.219436,-7.70217 -3.835123,-11.21351 -0.614167,-3.50268 -0.53704,-11.498668 0.14366,-14.893474 0.988327,-4.929017 2.914694,-9.692997 5.693205,-14.079507 5.598366,-8.838291 14.805059,-15.75455 25.224441,-18.949125 4.15126,-1.272772 6.42519,-1.508753 14.53849,-1.508753 8.42796,0 10.43783,0.22764 15.09089,1.70921 15.83958,5.04344 27.65143,17.992052 30.54694,33.486742 0.63929,3.420978 0.63734,10.784507 -0.004,14.217307 -1.57836,8.45151 -6.36776,17.26323 -12.50975,23.01591 -10.34771,9.69181 -24.13563,14.19001 -38.80755,12.66065 z m -0.67981,-22.96723 c 0.75617,-0.14341 2.09946,-0.55342 2.98509,-0.91114 l 1.61023,-0.6504 1.5453,0.65041 c 0.84992,0.35772 2.40743,0.78397 3.46114,0.94721 3.66467,0.56774 7.81853,-0.7243 10.70501,-3.32974 1.4794,-1.33537 1.95402,-2.2558 0.55707,-1.08034 -1.84116,1.54923 -5.51846,2.88152 -7.8924,2.85942 -2.41319,-0.0225 -5.40947,-0.95836 -7.23352,-2.2594 -0.72654,-0.51821 -1.1873,-0.59605 -3.73643,-0.63122 -3.64953,-0.0503 -4.63315,-0.21144 -6.55379,-1.07337 -1.91924,-0.86131 -3.4405,-2.52156 -3.88649,-4.24158 -0.41925,-1.61688 -0.51722,-3.76165 -0.20044,-4.38773 0.4737,-0.93619 -0.15363,-1.04607 -2.482822,-0.43486 -2.899238,0.76081 -5.877177,0.83033 -8.419851,0.19658 -1.853347,-0.46194 -5.457165,-2.05639 -6.806655,-3.0115 -0.884309,-0.62588 -0.785904,-0.0189 0.37574,2.31747 1.174728,2.36272 3.594504,4.86416 5.703523,5.89601 1.614503,0.7899 3.915631,1.46687 5.002555,1.47169 0.580879,0.003 0.927993,0.33613 1.950606,1.87436 2.949835,4.43718 8.272254,6.75468 13.316134,5.79813 z m 26.43523,-8.49289 c 1.56274,-0.53565 2.8789,-1.33128 4.37434,-2.64428 1.13649,-0.99785 0.91814,-1.28005 -0.99519,-1.28618 -1.52185,-0.005 -2.74178,-0.48655 -3.60613,-1.42383 -0.97999,-1.06269 -1.27841,-0.88956 -1.42213,0.82503 -0.15018,1.79164 -0.65308,4.21906 -1.01367,4.89283 -0.22556,0.42146 -0.16903,0.45673 0.4855,0.30291 0.40743,-0.0957 1.3872,-0.39567 2.17728,-0.66648 z"
         id="path1084" />
      <path
         style="fill:#dddede;stroke-width:0.264336;fill-rule:evenodd"
         d="m 109.9477,140.76646 c -7.04217,-0.74235 -15.286204,-3.79726 -21.226061,-7.86555 -7.940396,-5.43848 -14.17918,-13.60534 -16.870185,-22.08387 -1.470273,-4.63238 -1.819678,-7.04242 -1.824159,-12.58229 -0.0043,-5.268232 0.390408,-7.911387 1.874828,-12.555966 0.736887,-2.305632 2.908978,-6.814098 4.470892,-9.279935 5.486837,-8.662217 14.302307,-15.296927 24.827935,-18.686033 4.93575,-1.589243 6.45322,-1.771845 14.72442,-1.771845 8.44709,0 10.19918,0.237918 15.68675,2.130113 10.9833,3.787203 19.67299,10.911267 25.06411,20.54831 1.68982,3.020679 2.04099,3.814392 3.23643,7.314966 1.42523,4.173445 1.79673,6.716749 1.79673,12.30039 0,5.45358 -0.37216,8.1108 -1.73758,12.4062 -1.48917,4.68469 -3.67418,8.66011 -7.44259,13.54107 -6.82158,8.83551 -18.78996,15.26292 -30.89788,16.59317 -2.9243,0.32128 -8.59318,0.31704 -11.68364,-0.009 z m 0.10851,-22.55639 c 0.945,-0.20316 2.22988,-0.60112 2.85528,-0.88434 l 1.13709,-0.51496 1.58957,0.64205 c 5.22165,2.10912 10.94314,0.98399 14.72385,-2.89545 0.60208,-0.61781 1.54318,-1.76583 2.09133,-2.55116 0.88736,-1.27132 1.15277,-1.46737 2.42078,-1.78817 2.20072,-0.55675 4.34527,-1.84026 6.06207,-3.62813 1.3538,-1.40985 2.9795,-3.93927 2.94337,-4.57958 -0.006,-0.11387 -0.25613,0.26876 -0.5549,0.8503 -0.29878,0.58154 -0.84016,1.49646 -1.20308,2.03316 -0.64432,0.95285 -0.69192,0.97274 -2.02237,0.84496 -2.64846,-0.25435 -3.12026,-0.40403 -4.11977,-1.30704 -0.55414,-0.50063 -1.13124,-0.91024 -1.28243,-0.91024 -0.1512,0 -0.33224,0.68397 -0.40231,1.51994 -0.43771,5.22196 -2.18761,8.07243 -6.18922,10.08183 -1.52089,0.76371 -4.18589,1.43914 -5.62546,1.42574 -2.41319,-0.0225 -5.40947,-0.95836 -7.23352,-2.2594 -0.72654,-0.51821 -1.1873,-0.59605 -3.73643,-0.63122 -3.64953,-0.0503 -4.63315,-0.21144 -6.55379,-1.07337 -1.91924,-0.86131 -3.4405,-2.52156 -3.88649,-4.24158 -0.41925,-1.61688 -0.51722,-3.76165 -0.20044,-4.38773 0.4737,-0.93619 -0.15363,-1.04607 -2.482822,-0.43486 -2.894717,0.75962 -5.875969,0.83001 -8.419851,0.1988 -2.102228,-0.52163 -5.378327,-1.9931 -6.806655,-3.05723 -0.822692,-0.61292 -0.859092,-0.6176 -0.859092,-0.1106 0,0.29119 0.471854,1.47218 1.048564,2.62441 1.927584,3.85119 5.482085,6.53359 9.685909,7.30946 1.766917,0.3261 1.826192,0.36372 2.793705,1.77296 3.336398,4.85966 8.757392,7.12735 14.227112,5.95145 z m 34.27993,-17.91019 c -0.0844,-0.21087 -0.14702,-0.14824 -0.1597,0.1597 -0.0115,0.27865 0.051,0.43478 0.13884,0.34694 0.0878,-0.0878 0.0972,-0.31583 0.0208,-0.50664 z M 82.219766,98.834537 c -0.06702,-0.257192 -0.126263,-0.110765 -0.13165,0.325389 -0.0054,0.436155 0.04945,0.646582 0.121856,0.467619 0.07241,-0.178964 0.07682,-0.535817 0.0098,-0.793008 z m 62.383324,0 c -0.067,-0.257192 -0.12626,-0.110765 -0.13165,0.325389 -0.005,0.436155 0.0495,0.646582 0.12186,0.467619 0.0724,-0.178964 0.0768,-0.535817 0.01,-0.793008 z M 82.219766,94.605159 c -0.06702,-0.257191 -0.126263,-0.110765 -0.13165,0.325389 -0.0054,0.436155 0.04945,0.646582 0.121856,0.467619 0.07241,-0.178963 0.07682,-0.535817 0.0098,-0.793008 z m 62.383324,0 c -0.067,-0.257191 -0.12626,-0.110765 -0.13165,0.325389 -0.005,0.436155 0.0495,0.646582 0.12186,0.467619 0.0724,-0.178963 0.0768,-0.535817 0.01,-0.793008 z M 84.522117,89.435585 c 1.135775,-1.711117 2.585641,-2.996528 4.685534,-4.154061 0.780921,-0.430471 1.300905,-0.783714 1.155521,-0.784983 -0.661097,-0.0058 -3.310916,1.803766 -4.665304,3.185898 -1.475175,1.505389 -2.963806,4.087762 -3.263962,5.662093 -0.08316,0.436154 0.124965,0.07812 0.462491,-0.79562 0.337526,-0.873747 1.0691,-2.274745 1.62572,-3.113327 z m 59.362523,2.630316 c -1.04655,-2.797165 -3.73075,-5.739287 -6.5226,-7.149359 -1.45464,-0.734696 -1.33954,-0.456733 0.15114,0.364982 3.07729,1.696311 5.35323,4.353267 6.30758,7.363545 0.24677,0.778375 0.48698,1.300288 0.53381,1.159809 0.0468,-0.140481 -0.16464,-0.923019 -0.46993,-1.738977 z M 92.274101,84.065232 c -0.08784,-0.08784 -0.315826,-0.09723 -0.506644,-0.02086 -0.210869,0.08438 -0.148233,0.147018 0.159703,0.159701 0.278654,0.01147 0.434778,-0.051 0.346941,-0.138835 z m 42.822449,0 c -0.0878,-0.08784 -0.31583,-0.09723 -0.50664,-0.02086 -0.21087,0.08438 -0.14824,0.147018 0.1597,0.159701 0.27866,0.01147 0.43478,-0.051 0.34694,-0.138835 z M 93.738488,83.787211 c -0.178964,-0.07241 -0.535818,-0.07681 -0.793008,-0.0098 -0.257191,0.06702 -0.110766,0.126263 0.325389,0.13165 0.436154,0.0054 0.646583,-0.04945 0.467619,-0.121856 z m 1.382734,-0.293247 c 0.145385,-0.106813 0.738016,-0.897236 1.316959,-1.756496 3.410364,-5.06162 10.459939,-7.035879 16.145289,-4.521548 1.59381,0.70486 2.23255,0.809663 2.64051,0.433257 0.52651,-0.485779 3.2318,-1.305758 4.8782,-1.478596 4.83257,-0.507321 9.76081,1.883191 12.46583,6.046731 0.55776,0.858504 1.01412,1.446811 1.01412,1.30735 0,-0.506389 -1.61649,-2.785431 -2.77267,-3.909107 -2.18894,-2.127407 -5.14337,-3.459738 -8.31271,-3.748702 -2.07853,-0.189509 -4.15474,0.163136 -6.51147,1.105977 l -1.742,0.696911 -1.54874,-0.695034 c -2.24662,-1.008221 -5.25612,-1.392244 -7.6117,-0.971278 -3.67619,0.656972 -7.554928,3.197263 -9.219944,6.0384 -0.363743,0.620679 -0.857849,1.243223 -1.098016,1.383432 -0.240167,0.140209 -0.317715,0.256723 -0.172331,0.258917 0.145385,0.0021 0.383288,-0.0834 0.528673,-0.190214 z"
         id="path1082" />
      <path
         style="fill:#aff5f4;stroke-width:0.264336;fill-rule:evenodd"
         d="m 109.9477,140.76646 c -7.04217,-0.74235 -15.286204,-3.79726 -21.226061,-7.86555 -7.940396,-5.43848 -14.17918,-13.60534 -16.870185,-22.08387 -1.470273,-4.63238 -1.819678,-7.04242 -1.824159,-12.58229 -0.0043,-5.268232 0.390408,-7.911387 1.874828,-12.555966 0.736887,-2.305632 2.908978,-6.814098 4.470892,-9.279935 5.486837,-8.662217 14.302307,-15.296927 24.827935,-18.686033 4.93575,-1.589243 6.45322,-1.771845 14.72442,-1.771845 8.44709,0 10.19918,0.237918 15.68675,2.130113 10.9833,3.787203 19.67299,10.911267 25.06411,20.54831 1.68982,3.020679 2.04099,3.814392 3.23643,7.314966 1.42523,4.173445 1.79673,6.716749 1.79673,12.30039 0,5.45358 -0.37216,8.1108 -1.73758,12.4062 -1.48917,4.68469 -3.67418,8.66011 -7.44259,13.54107 -6.82158,8.83551 -18.78996,15.26292 -30.89788,16.59317 -2.9243,0.32128 -8.59318,0.31704 -11.68364,-0.009 z m 0.10851,-22.55639 c 0.945,-0.20316 2.22988,-0.60112 2.85528,-0.88434 l 1.13709,-0.51496 1.58957,0.64205 c 5.22165,2.10912 10.94314,0.98399 14.72385,-2.89545 0.60208,-0.61781 1.54318,-1.76583 2.09133,-2.55116 0.88736,-1.27132 1.15277,-1.46737 2.42078,-1.78817 4.35763,-1.10243 8.0269,-4.74734 9.38415,-9.32182 0.61337,-2.067298 0.56367,-5.860704 -0.10514,-8.026066 -1.25881,-4.075555 -4.61975,-7.412749 -8.72477,-8.663132 -1.58131,-0.481666 -1.77445,-0.622895 -2.35915,-1.725074 -0.80879,-1.524575 -2.99569,-3.754692 -4.6092,-4.700267 -3.90002,-2.285567 -8.10242,-2.558047 -12.47472,-0.808851 l -1.742,0.696911 -1.54874,-0.695034 c -5.92687,-2.659818 -13.278694,-0.44641 -16.826318,5.065885 -0.533572,0.829063 -1.127031,1.429566 -1.479763,1.497331 -2.89606,0.556362 -3.814295,0.82285 -5.140958,1.492001 -3.188253,1.60811 -5.683508,4.570266 -6.717493,7.974434 -0.467692,1.539776 -0.539806,2.320276 -0.444481,4.810687 0.105627,2.759505 0.183479,3.119465 1.085485,5.018835 1.906121,4.01374 5.568857,6.86359 9.827384,7.64634 1.810682,0.33282 1.859136,0.36326 2.830702,1.7784 3.336398,4.85966 8.757392,7.12735 14.227112,5.95145 z"
         id="path1080" />
      <path
         style="fill:#88f9f7;stroke-width:0.264336;fill-rule:evenodd"
         d="m 110.71705,140.76645 c -9.22734,-0.96183 -19.171832,-5.28054 -26.326512,-11.43312 -1.997319,-1.71757 -5.600784,-5.8524 -7.302541,-8.37936 -1.603772,-2.38147 -4.28058,-7.90373 -5.096666,-10.51443 -1.376086,-4.40218 -1.700226,-6.771 -1.688137,-12.336958 0.0098,-4.496722 0.08401,-5.326719 0.709322,-7.930084 0.384127,-1.599233 1.042014,-3.918783 1.461971,-5.154554 3.308696,-9.736214 11.550803,-18.958262 21.465982,-24.018168 2.957884,-1.509465 9.325161,-3.797005 11.566351,-4.155386 0.60688,-0.09704 1.04884,-0.264744 0.98214,-0.372668 -0.23585,-0.381615 2.40058,-0.530751 9.38265,-0.530751 6.98206,0 9.6185,0.149136 9.38264,0.530751 -0.0667,0.107924 0.37527,0.275624 0.98214,0.372668 1.92958,0.308552 8.21048,2.484861 10.77827,3.734632 8.05975,3.922761 15.2672,10.686081 19.49519,18.29386 2.08355,3.749112 3.77057,8.296155 4.48654,12.092625 0.62898,3.335173 0.62118,11.238623 -0.0144,14.631403 -1.50841,8.05143 -6.39748,17.04965 -12.19899,22.45199 -10.18728,9.48632 -24.18864,14.16408 -38.06591,12.71755 z m 0.8395,-22.71322 c 2.39921,-0.86486 2.47919,-0.86674 4.71561,-0.11033 2.7322,0.9241 6.21376,0.97733 8.89084,0.13595 3.07782,-0.96733 5.86506,-3.19415 7.53343,-6.01873 0.56482,-0.95625 0.86314,-1.16958 2.15832,-1.54338 4.51997,-1.30453 7.93287,-4.49091 9.47444,-8.84562 0.48618,-1.37338 0.60936,-2.280143 0.61382,-4.518417 0.009,-4.276392 -1.04452,-6.894906 -3.93552,-9.786259 -1.78112,-1.781332 -3.95023,-3.090317 -6.06426,-3.659565 -0.93786,-0.252539 -1.20745,-0.475287 -1.54078,-1.273058 -0.58325,-1.39592 -3.90201,-4.590897 -5.63572,-5.42553 -3.62063,-1.743017 -7.69048,-1.954637 -11.23428,-0.584147 -1.0177,0.393572 -2.02878,0.716781 -2.24686,0.718243 -0.21808,0.0015 -1.16969,-0.325073 -2.11469,-0.725634 -3.39006,-1.436955 -7.71287,-1.173215 -11.41687,0.696557 -1.901278,0.959763 -4.78965,3.703015 -5.375687,5.1056 -0.407514,0.975318 -0.57213,1.054239 -2.798261,1.341532 -2.092831,0.270088 -4.858582,1.797602 -6.836528,3.775785 -2.92266,2.923011 -3.974273,5.526095 -3.965731,9.816476 0.0062,3.103827 0.561633,5.192757 1.974627,7.426117 1.926447,3.04491 5.676503,5.54432 9.232483,6.15343 1.759536,0.3014 1.817229,0.33703 2.650797,1.63713 1.161044,1.81087 3.682732,4.08005 5.54115,4.98629 3.21786,1.56917 7.21632,1.83789 10.37967,0.69756 z"
         id="path1078" />
      <path
         style="fill:#73f6f4;stroke-width:0.264336;fill-rule:evenodd"
         d="m 110.45272,140.50211 c -7.17626,-0.74803 -15.374683,-3.73594 -21.440288,-7.8139 -6.040974,-4.0614 -10.658575,-9.40206 -14.372429,-16.623 -1.736928,-3.37715 -2.931298,-6.8488 -3.633433,-10.56122 -0.542859,-2.87027 -0.624859,-11.774453 -0.124338,-13.501522 l 0.312336,-1.077727 6.500996,-2.581308 c 6.461761,-2.565731 10.961155,-4.194877 11.127114,-4.028919 0.04773,0.04773 -0.574186,0.542016 -1.382041,1.098406 -5.99233,4.127075 -7.81416,11.840458 -4.384463,18.56322 0.752537,1.47509 3.195994,4.0698 4.8047,5.1021 1.372099,0.88047 4.831574,2.10898 5.938888,2.10898 0.48328,0 0.897074,0.37384 1.682366,1.51993 2.870867,4.18988 6.772862,6.26432 11.798552,6.27255 2.24954,0.004 2.96574,-0.10983 4.80718,-0.76189 l 2.16381,-0.76622 1.40473,0.61001 c 1.74558,0.75803 5.97708,1.0267 8.46409,0.53741 3.30729,-0.65067 6.49141,-2.89487 8.68972,-6.1246 0.84599,-1.2429 1.17842,-1.51888 2.01591,-1.67357 3.39541,-0.62717 7.37219,-3.87092 9.06154,-7.39126 1.65924,-3.45761 1.96487,-6.266321 1.0648,-9.785563 -1.20696,-4.719148 -4.63719,-8.434812 -9.18357,-9.947751 -1.79786,-0.59829 -2.34127,-1.037347 -1.28389,-1.037347 1.96589,0 25.27217,4.868355 25.56359,5.339875 0.10754,0.17401 0.32885,1.081928 0.49179,2.017596 1.25724,7.219624 0.92691,14.18422 -0.95961,20.23223 -0.92962,2.98028 -3.15725,7.49522 -5.1542,10.44647 -0.92404,1.36562 -2.05456,3.03627 -2.51226,3.71254 -1.03724,1.53257 -4.88312,5.19532 -7.44523,7.09072 -9.53412,7.05316 -21.77335,10.29994 -34.01636,9.02376 z M 93.865625,82.728191 c 0.181731,-0.07333 0.479109,-0.07333 0.66084,0 0.181731,0.07333 0.03304,0.133328 -0.33042,0.133328 -0.363462,0 -0.512151,-0.06 -0.33042,-0.133328 z"
         id="path1076" />
      <path
         style="fill:#5cf3ef;stroke-width:0.264336;fill-rule:evenodd"
         d="m 110.21204,140.23778 c -9.62817,-1.01494 -19.584796,-5.53907 -26.58944,-12.08181 -1.315488,-1.22874 -1.893583,-1.9398 -1.718184,-2.11338 0.145385,-0.14387 2.405458,-0.86632 5.022386,-1.60544 14.586368,-4.11975 22.389728,-5.27521 36.346218,-5.38188 7.4298,-0.0568 8.33182,-0.0135 11.49862,0.55177 6.33482,1.13076 16.48415,4.02558 16.73319,4.77269 0.067,0.20114 -0.97764,1.42775 -2.38963,2.80574 -10.20441,9.95877 -24.08169,14.6147 -38.90316,13.05231 z"
         id="path1074" />
    </g>
    <g
       id="g900"
       transform="matrix(0.91068908,0,0,0.91068908,-58.847506,-93.594656)">
      <path
         style="fill:#efe09e;stroke-width:0.264779"
         d="m 93.620495,150.34786 c 0.546106,-0.0571 1.439733,-0.0571 1.985839,0 0.546106,0.0571 0.09929,0.10386 -0.992919,0.10386 -1.092212,0 -1.539026,-0.0467 -0.99292,-0.10386 z m -10.814887,-4.63933 -0.5044,-0.59575 0.595751,0.5044 c 0.55986,0.47401 0.716291,0.6871 0.504401,0.6871 -0.05024,0 -0.318332,-0.26809 -0.595752,-0.59575 z m 23.325682,0.0662 c 0.26358,-0.29125 0.53881,-0.52955 0.61163,-0.52955 0.0728,0 -0.0833,0.2383 -0.34686,0.52955 -0.26358,0.29126 -0.53882,0.52956 -0.61163,0.52956 -0.0728,0 0.0833,-0.2383 0.34686,-0.52956 z m 4.30753,-7.4584 c 0.15387,-0.15386 0.43605,-0.22765 0.62707,-0.16398 0.1983,0.0661 0.0783,0.18612 -0.27975,0.27975 -0.44042,0.11517 -0.5438,0.0807 -0.34732,-0.11577 z m -33.763581,-1.94124 c 0.0029,-0.58251 0.05716,-0.78963 0.120495,-0.46027 0.06333,0.32936 0.06093,0.80596 -0.0053,1.05911 -0.06627,0.25315 -0.11809,-0.0163 -0.115152,-0.59884 z m 35.739771,-0.13239 c 0,-0.5097 0.0545,-0.71821 0.12109,-0.46336 0.0666,0.25485 0.0666,0.67188 0,0.92673 -0.0666,0.25485 -0.12109,0.0463 -0.12109,-0.46337 z m -34.196968,-5.97958 c 0.0127,-0.30845 0.07545,-0.37119 0.159971,-0.15997 0.07649,0.19113 0.06708,0.41951 -0.0209,0.50749 -0.08798,0.088 -0.150564,-0.0684 -0.139067,-0.34752 z m 32.567778,-0.26478 c 0.0127,-0.30845 0.0754,-0.37119 0.15996,-0.15997 0.0765,0.19114 0.0671,0.41951 -0.0209,0.50749 -0.088,0.088 -0.15056,-0.0684 -0.13906,-0.34752 z m -4.8207,-11.42961 c -0.32935,-0.41996 -0.31998,-0.42932 0.1,-0.1 0.44106,0.3459 0.58132,0.56333 0.36339,0.56333 -0.055,0 -0.26349,-0.20851 -0.46336,-0.46336 z m -22.604798,-0.33097 c 0.263584,-0.29126 0.538818,-0.52956 0.611632,-0.52956 0.07281,0 -0.08327,0.2383 -0.346853,0.52956 -0.263584,0.29125 -0.538818,0.52955 -0.611632,0.52955 -0.07281,0 0.08327,-0.2383 0.346853,-0.52955 z m 1.588672,-1.58868 c 0.263583,-0.29125 0.538818,-0.52955 0.611632,-0.52955 0.07281,0 -0.08327,0.2383 -0.346853,0.52955 -0.263584,0.29126 -0.538818,0.52956 -0.611632,0.52956 -0.07282,0 0.08327,-0.2383 0.346853,-0.52956 z m 7.761324,-3.62299 c 0.191136,-0.0765 0.419507,-0.0671 0.507493,0.0209 0.08798,0.088 -0.0684,0.15057 -0.347522,0.13907 -0.308454,-0.0127 -0.371193,-0.0754 -0.159971,-0.15997 z m 4.550883,-4.15556 c 0,-0.055 0.208513,-0.26349 0.463363,-0.46336 0.419954,-0.32935 0.42932,-0.31998 0.09997,0.1 -0.345898,0.44105 -0.563332,0.58132 -0.563332,0.36339 z m -1.811645,-0.95914 c 0,-0.36407 0.0601,-0.51301 0.133552,-0.33098 0.07345,0.18204 0.07345,0.47992 0,0.66195 -0.07345,0.18204 -0.133552,0.0331 -0.133552,-0.33097 z m -1.080016,-0.68401 c 0.01271,-0.30846 0.07545,-0.3712 0.159969,-0.15997 0.07649,0.19113 0.06708,0.41951 -0.02089,0.50749 -0.08798,0.088 -0.150564,-0.0684 -0.139067,-0.34752 z"
         id="path914" />
      <path
         style="fill:#ebd162;stroke-width:0.264779"
         d="m 104.79074,117.37721 -0.77768,-0.86053 0.86053,0.77768 c 0.80213,0.72491 0.98223,0.94339 0.77768,0.94339 -0.0456,0 -0.43281,-0.38724 -0.86053,-0.86054 z m -11.368829,-4.43504 c 0.09,-0.14563 0.216186,-0.26478 0.280405,-0.26478 0.06422,0 0.116763,0.11915 0.116763,0.26478 0,0.14563 -0.126183,0.26478 -0.280406,0.26478 -0.154223,0 -0.206766,-0.11915 -0.116762,-0.26478 z m 0.947629,-1.21357 c 0.01271,-0.30845 0.07545,-0.37119 0.159969,-0.15997 0.07649,0.19114 0.06708,0.41951 -0.02089,0.5075 -0.08798,0.088 -0.150564,-0.0684 -0.139067,-0.34753 z m -1.894396,-1.89758 -0.641905,-0.72814 0.728141,0.64191 c 0.680558,0.59996 0.849566,0.81437 0.641906,0.81437 -0.04743,0 -0.375091,-0.32766 -0.728142,-0.72814 z m 1.894396,-1.80932 c 0.01271,-0.30845 0.07545,-0.37119 0.159969,-0.15997 0.07649,0.19114 0.06708,0.41951 -0.02089,0.50749 -0.08798,0.088 -0.150564,-0.0684 -0.139067,-0.34752 z"
         id="path912" />
      <path
         style="fill:#eac629;stroke-width:0.264779"
         d="m 88.258727,147.74042 c -2.045165,-0.53712 -5.078355,-2.07257 -6.042675,-3.0589 -0.933158,-0.95446 -2.487003,-3.80538 -2.975908,-5.46007 -0.240623,-0.81438 -0.47204,-1.12531 -0.837545,-1.12531 -1.753675,0 -1.968127,-1.45748 -0.759703,-5.16318 0.427403,-1.31065 0.970692,-3.4379 1.207308,-4.72721 1.315154,-7.16623 5.936766,-12.76055 12.038172,-14.57186 0.790981,-0.23482 1.773972,-0.42694 2.184424,-0.42694 0.410455,0 0.746279,-0.0723 0.746279,-0.16068 0,-0.36203 -2.218589,-2.91301 -3.044547,-3.50069 -0.527214,-0.37512 -0.831061,-0.78214 -0.747139,-1.00083 0.250952,-0.65398 0.662044,-0.4043 2.575189,1.56405 l 1.878443,1.93265 0.03324,-2.74699 c 0.03043,-2.51453 0.311714,-3.64178 0.789515,-3.16398 0.0933,0.0933 0.149444,1.396 0.124766,2.89491 l -0.04486,2.72528 0.769063,-1.19151 c 0.422984,-0.65532 1.090001,-1.48625 1.482262,-1.84651 0.599957,-0.551 0.752041,-0.59304 0.957821,-0.26478 0.178284,0.28441 0.02969,0.59246 -0.547948,1.13595 -0.703279,0.6617 -2.276318,3.31412 -2.059179,3.47213 0.0462,0.0336 0.752986,0.20543 1.570638,0.38181 2.262682,0.48809 5.103807,1.9658 6.457497,3.35864 3.35855,3.4557 5.47911,11.12007 4.64846,16.80095 -0.62342,4.26362 -2.11506,7.41829 -4.76682,10.08137 -1.90439,1.91253 -4.514537,3.37346 -7.285657,4.07786 -1.985347,0.50467 -6.400486,0.49613 -8.351092,-0.0162 z m 8.027318,-6.71297 c 0.516954,-0.57221 1.06633,-1.49562 1.220839,-2.05203 0.382393,-1.37709 0.356744,-3.40473 -0.0471,-3.72333 -0.182035,-0.14361 -1.462902,-0.26111 -2.84637,-0.26111 -1.383469,0 -2.664336,0.1175 -2.846371,0.26111 -0.403843,0.3186 -0.429492,2.34624 -0.0471,3.72333 0.394192,1.41956 1.959415,3.0924 2.89347,3.0924 0.516641,0 1.009892,-0.3068 1.67263,-1.04037 z m -4.403677,-7.74348 c 0.767197,-0.72074 0.871567,-2.93596 0.174611,-3.70609 -0.554004,-0.61217 -2.130104,-0.63821 -2.784483,-0.046 -0.706443,0.63932 -0.67736,3.07554 0.04535,3.79825 0.693166,0.69316 1.798734,0.67327 2.564526,-0.0462 z m 7.94336,0 c 0.767192,-0.72074 0.871562,-2.93596 0.174612,-3.70609 -0.554006,-0.61217 -2.130106,-0.63821 -2.784485,-0.046 -0.706443,0.63932 -0.677359,3.07554 0.04535,3.79825 0.693167,0.69316 1.798734,0.67327 2.564527,-0.0462 z m 9.588252,4.20588 c -0.49483,-0.33347 -0.88906,-0.69891 -0.87607,-0.81209 0.013,-0.11319 0.54081,-1.44634 1.17294,-2.96257 l 1.14931,-2.75678 0.74671,2.15491 c 0.89819,2.59206 0.98366,4.30783 0.23456,4.70873 -0.78633,0.42083 -1.44346,0.3309 -2.42745,-0.3322 z"
         id="path910" />
      <path
         style="fill:#cdae25;stroke-width:0.264779"
         d="m 91.502265,148.22963 c 0.546106,-0.0571 1.439734,-0.0571 1.98584,0 0.546106,0.0571 0.09929,0.10386 -0.99292,0.10386 -1.092212,0 -1.539026,-0.0467 -0.99292,-0.10386 z m -2.498848,-0.25277 c 0.191136,-0.0765 0.419507,-0.0671 0.507493,0.0209 0.08798,0.088 -0.0684,0.15056 -0.347522,0.13907 -0.308454,-0.0127 -0.371193,-0.0754 -0.159971,-0.15997 z m 6.619466,0 c 0.191136,-0.0765 0.419507,-0.0671 0.507493,0.0209 0.08798,0.088 -0.0684,0.15056 -0.347522,0.13907 -0.308453,-0.0127 -0.371193,-0.0754 -0.159971,-0.15997 z m -11.721696,-1.3895 c -0.08378,-0.13557 -0.0511,-0.30905 0.07263,-0.38552 0.123732,-0.0765 0.224968,0.0344 0.224968,0.24648 0,0.44646 -0.08349,0.48547 -0.297601,0.13904 z m 22.627263,-1.44216 c 0,-0.055 0.20852,-0.2635 0.46337,-0.46337 0.41995,-0.32935 0.42932,-0.31998 0.1,0.1 -0.3459,0.44106 -0.56334,0.58132 -0.56334,0.3634 z m -2.64778,-1.35632 c 0.34202,-0.36407 0.68144,-0.66194 0.75425,-0.66194 0.0728,0 -0.14745,0.29787 -0.48947,0.66194 -0.34203,0.36408 -0.68145,0.66195 -0.75426,0.66195 -0.0728,0 0.14745,-0.29787 0.48948,-0.66195 z M 93.7276,141.86924 c -0.0675,-0.10922 0.331114,-0.19858 0.885815,-0.19858 0.5547,0 0.953316,0.0894 0.885814,0.19858 -0.0675,0.10922 -0.466119,0.19858 -0.885814,0.19858 -0.419696,0 -0.818312,-0.0894 -0.885815,-0.19858 z m 14.88531,-4.76602 c -0.32935,-0.41995 -0.31999,-0.42932 0.1,-0.1 0.25485,0.19987 0.46336,0.40839 0.46336,0.46337 0,0.21792 -0.21743,0.0777 -0.56333,-0.3634 z m -0.49578,-0.87615 c 0,-0.15423 0.11915,-0.20677 0.26477,-0.11677 0.14563,0.09 0.26478,0.21619 0.26478,0.28041 0,0.0642 -0.11915,0.11676 -0.26478,0.11676 -0.14562,0 -0.26477,-0.12618 -0.26477,-0.2804 z m 0.28568,-1.19794 c 0.0127,-0.30846 0.0754,-0.3712 0.15997,-0.15998 0.0765,0.19114 0.0671,0.41951 -0.0209,0.5075 -0.088,0.088 -0.15057,-0.0684 -0.13907,-0.34752 z m 0.28568,-1.699 c 0,-0.36407 0.0601,-0.51301 0.13355,-0.33098 0.0734,0.18204 0.0734,0.47992 0,0.66195 -0.0735,0.18204 -0.13355,0.0331 -0.13355,-0.33097 z m 0,-5.29557 c 0,-0.36408 0.0601,-0.51301 0.13355,-0.33098 0.0734,0.18204 0.0734,0.47991 0,0.66195 -0.0735,0.18203 -0.13355,0.0331 -0.13355,-0.33097 z"
         id="path908" />
      <path
         style="fill:#e67b21;stroke-width:0.264779"
         d="m 93.155342,140.28057 c -1.416695,-1.40167 -2.263524,-4.45753 -1.388298,-5.00981 0.468584,-0.29568 5.293778,-0.29783 5.692741,-0.003 0.856209,0.63373 0.105014,3.40443 -1.323059,4.87995 -1.044457,1.07917 -1.982366,1.12082 -2.981384,0.13239 z"
         id="path906" />
      <path
         style="fill:#bb9e20;stroke-width:0.264779"
         d="m 91.171292,149.98533 c -2.420943,-0.47264 -5.43197,-1.98174 -7.546191,-3.78208 -0.703978,-0.59946 -0.59856,-0.5745 0.926725,0.21945 2.784367,1.44933 4.498184,1.84805 7.943359,1.84805 3.475591,0 5.161039,-0.39917 8.031445,-1.90213 3.12486,-1.63619 6.01258,-5.00816 7.20766,-8.41632 l 0.46825,-1.33534 0.56861,0.541 c 0.31273,0.29756 0.78781,0.66552 1.05572,0.8177 0.46457,0.26387 0.46678,0.3379 0.0477,1.59968 -1.74461,5.25252 -6.54391,9.40717 -12.053737,10.43466 -1.686989,0.31459 -4.974205,0.30239 -6.649521,-0.0247 z m 2.337397,-8.45675 c -0.517483,-0.30196 -1.399005,-1.68956 -1.675945,-2.6381 -0.143672,-0.49209 -0.0068,-0.39129 0.533375,0.39284 0.916801,1.33084 1.411461,1.70638 2.261549,1.71697 0.664247,0.008 1.920074,-1.07004 2.61131,-2.2422 0.286006,-0.48499 0.29754,-0.47385 0.137065,0.13239 -0.256282,0.96817 -1.147646,2.35029 -1.709773,2.65114 -0.614864,0.32906 -1.581301,0.32322 -2.157581,-0.0131 z m 15.059671,-6.35494 c 0.4046,-2.2688 0.23593,-8.18548 -0.29031,-10.18404 -0.51959,-1.97329 -1.87935,-5.14153 -2.81393,-6.55647 -0.49284,-0.74615 -0.44076,-0.71999 0.4016,0.20178 2.19536,2.40232 4.02691,6.43038 4.63518,10.19398 l 0.32096,1.98584 -1.11348,2.64779 c -0.61241,1.45628 -1.16685,2.70289 -1.2321,2.77023 -0.0652,0.0673 -0.0238,-0.40925 0.0921,-1.05911 z m -18.658616,-1.59088 c -0.329782,-0.13113 -0.717021,-0.54725 -0.860531,-0.92471 -0.361913,-0.95189 -0.335001,-0.99067 0.268629,-0.38704 0.692965,0.69297 1.967278,0.68051 2.673925,-0.0261 l 0.555696,-0.5557 -0.186944,0.62189 c -0.352796,1.17361 -1.370018,1.70144 -2.450775,1.2717 z m 7.943359,0 c -0.329782,-0.13113 -0.717021,-0.54725 -0.860531,-0.92471 -0.361912,-0.95189 -0.335,-0.99067 0.268629,-0.38704 0.692965,0.69297 1.967279,0.68051 2.673925,-0.0261 l 0.555694,-0.5557 -0.18694,0.62189 c -0.352798,1.17361 -1.370019,1.70144 -2.450777,1.2717 z"
         id="path904" />
      <path
         style="fill:#070501;stroke-width:0.264779"
         d="m 89.317842,132.27101 c -0.294199,-0.29419 -0.529558,-0.88259 -0.529558,-1.32389 0,-0.4413 0.235359,-1.02969 0.529558,-1.32389 1.146009,-1.14601 3.177343,-0.29962 3.177343,1.32389 0,1.01921 -0.834243,1.85345 -1.85345,1.85345 -0.441299,0 -1.029695,-0.23536 -1.323893,-0.52956 z m 7.943359,0 c -0.294198,-0.29419 -0.529557,-0.88259 -0.529557,-1.32389 0,-0.4413 0.235359,-1.02969 0.529557,-1.32389 0.294198,-0.2942 0.882595,-0.52956 1.323893,-0.52956 0.441299,0 1.029695,0.23536 1.323893,0.52956 0.294203,0.2942 0.529553,0.88259 0.529553,1.32389 0,0.4413 -0.23535,1.0297 -0.529553,1.32389 -0.294198,0.2942 -0.882594,0.52956 -1.323893,0.52956 -0.441298,0 -1.029695,-0.23536 -1.323893,-0.52956 z"
         id="path902" />
    </g>
    <path
       style="fill:#0066ff;stroke-width:0.1002"
       d="m 48.259153,81.163802 c -1.946716,-0.249165 -4.321219,-1.197222 -5.811644,-2.320416 -4.705137,-3.545799 -6.25854,-9.849651 -3.713084,-15.068036 1.453308,-2.979395 3.88949,-5.154812 6.992166,-6.243733 2.566313,-0.900676 5.521308,-0.88563 8.093704,0.04125 3.074205,1.107675 5.780854,3.64596 7.068979,6.629291 1.862063,4.312565 1.066201,9.399888 -2.009832,12.847257 -2.348768,2.632314 -5.321589,4.036316 -8.816675,4.163935 -0.606215,0.02215 -1.417842,-2.07e-4 -1.803614,-0.04956 z m 3.657328,-3.006814 c 1.125991,-0.269572 2.709005,-1.051283 3.631119,-1.793083 3.026485,-2.434681 4.261936,-6.412322 3.121549,-10.050062 -1.017763,-3.246563 -3.627525,-5.650354 -7.003171,-6.450453 -0.987543,-0.234072 -2.878763,-0.234833 -3.896925,-0.002 -2.896965,0.663697 -5.190557,2.472596 -6.475792,5.107304 -0.749398,1.536241 -0.928729,2.322513 -0.928729,4.071955 0,1.162275 0.04202,1.607727 0.210068,2.226862 0.803912,2.961867 2.784428,5.258643 5.530235,6.413332 1.061036,0.446193 1.168973,0.478291 2.154318,0.64059 1.024906,0.168807 2.550878,0.100013 3.657328,-0.16488 z m -7.775955,-7.856326 c -0.381605,-0.166117 -0.702971,-0.600015 -0.786981,-1.062569 -0.08856,-0.48757 0.280596,-1.191189 0.747276,-1.42432 0.320464,-0.160083 0.80297,-0.175207 5.596099,-0.175345 5.80494,-2.08e-4 5.742577,-0.0069 6.138847,0.643122 0.245287,0.402255 0.245287,1.116805 0,1.51906 -0.39658,0.650333 -0.33286,0.643696 -6.138847,0.639354 -4.1786,-0.0029 -5.308645,-0.03146 -5.556394,-0.139302 z"
       id="path883" />
  </g>
  <g
     inkscape:groupmode="layer"
     id="layer2"
     inkscape:label="Warstwa 2">
    <g
       id="g227"
       transform="matrix(0.29678605,0,0,0.29664401,26.702291,-1.3578)">
      <path
         style="fill:#5bc9e8;stroke-width:0.264562"
         d="m 90.130773,117.23135 c -1.639891,-5.37636 -2.408667,-12.16664 -2.175738,-19.217434 0.509309,-15.417028 4.359847,-25.897253 12.221105,-33.262872 5.36069,-5.022714 12.06973,-7.974017 20.96527,-9.222613 2.49272,-0.349885 4.2738,-0.404648 8.9338,-0.274689 5.01217,0.139779 9.93849,0.607833 10.28904,0.977571 0.058,0.06122 -1.82482,2.543238 -4.18413,5.515592 l -4.28967,5.404279 -3.8178,0.05609 c -12.63129,0.18559 -19.72909,6.194712 -22.08002,18.693335 -0.46911,2.493986 -0.46907,2.588993 10e-4,3.10861 0.68251,0.754167 1.29874,0.673063 3.0724,-0.404376 3.32238,-2.018239 10.06874,-4.730862 9.28741,-3.734345 -0.13344,0.170191 -2.21445,2.81472 -4.62447,5.876732 l -4.38185,5.567295 -1.54135,0.481191 c -2.01339,0.628548 -2.20277,0.809906 -2.20277,2.109471 0,0.601557 -0.10559,1.461913 -0.23464,1.911893 -0.20252,0.70616 -13.656722,18.08378 -14.316747,18.4917 -0.132983,0.0822 -0.547441,-0.85265 -0.921019,-2.07743 z"
         id="path241" />
      <path
         style="fill:#80afdd;stroke-width:0.264562"
         d="m 112.74637,138.76146 c -7.19102,-0.93831 -13.64491,-4.10901 -17.826299,-8.75781 -3.869679,-4.30223 -6.650707,-10.44411 -7.944767,-17.54593 -1.526454,-8.3772 -1.153093,-21.095247 0.868019,-29.567903 2.348294,-9.844241 7.693062,-17.994311 14.981957,-22.845509 6.53257,-4.347828 13.20592,-6.313137 23.41378,-6.895392 4.26183,-0.243094 15.18458,0.799104 16.07589,1.533886 0.25925,0.213724 0.31872,2.126071 0.26456,8.507789 l -0.0699,8.232098 -0.96368,0.08042 c -0.57975,0.04838 -2.05539,-0.279605 -3.70388,-0.823244 -3.95461,-1.304153 -6.13791,-1.598953 -10.59053,-1.429987 -4.3189,0.163894 -6.35345,0.62409 -9.59907,2.171227 -2.58519,1.232317 -5.33021,3.890908 -6.84812,6.632479 -1.37199,2.478027 -3.54513,9.106638 -2.8839,8.796608 0.10783,-0.05056 1.68422,-0.826118 3.50309,-1.723463 5.27663,-2.603242 10.43211,-3.593463 15.8161,-3.037823 6.21131,0.641021 10.64157,2.498284 14.31487,6.001108 2.37234,2.262245 4.70992,5.56527 5.7654,8.146559 1.65509,4.047697 2.4923,10.907317 1.95412,16.010927 -1.14486,10.85698 -6.38015,18.94768 -15.1009,23.3372 -1.88637,0.9495 -3.87658,1.6861 -6.21444,2.30004 -3.21817,0.84513 -3.76251,0.90956 -8.466,1.00215 -2.76468,0.0544 -5.80053,-0.002 -6.74634,-0.12543 z m 9.65653,-0.92577 c 11.10508,-1.34472 18.50074,-6.21598 22.97673,-15.13397 1.75918,-3.50498 3.08372,-9.50844 3.08193,-13.96878 -0.002,-3.94855 -0.96451,-9.292207 -2.19426,-12.176814 -1.59559,-3.742758 -5.52337,-8.365966 -8.63901,-10.168571 -4.21838,-2.440615 -7.54961,-3.272839 -13.10889,-3.274921 -5.78122,-0.0021 -9.30678,0.983681 -15.04245,4.2063 -1.1434,0.642419 -2.2616,1.168036 -2.4849,1.168036 -0.98698,0 0.51108,-6.262652 2.39555,-10.014529 3.41335,-6.795823 8.78212,-9.895191 17.79173,-10.271089 4.3142,-0.179998 7.41238,0.236924 11.2064,1.508038 1.29252,0.433031 2.54081,0.78733 2.77399,0.78733 0.37895,0 0.42396,-0.797447 0.42396,-7.51135 v -7.511351 l -0.59695,-0.149825 c -4.352,-1.092284 -15.55694,-1.425767 -20.68894,-0.615748 -8.97549,1.416663 -15.56732,4.433304 -21.061863,9.638609 -2.856722,2.706342 -5.109715,5.86394 -7.104829,9.957513 -3.447247,7.073052 -4.725909,13.177422 -4.971055,23.731976 -0.255853,11.015496 0.971267,18.241336 4.183222,24.632666 2.898653,5.76791 6.460556,9.40526 11.948845,12.20195 2.99536,1.52635 6.26531,2.4394 10.64479,2.97229 3.61028,0.43929 4.78305,0.43821 8.466,-0.008 z m -6.64488,-12.94804 c -2.71916,-0.65989 -4.96559,-2.5121 -6.34264,-5.22957 -2.24783,-4.43589 -2.83029,-7.59987 -2.86231,-15.5483 l -0.0239,-5.939026 2.33029,-0.743765 c 3.63845,-1.161289 6.70482,-1.45676 9.82548,-0.946771 5.26876,0.861037 8.30257,3.395509 9.59146,8.012782 0.55385,1.98408 0.73742,7.27997 0.34755,10.02652 -0.54699,3.85335 -2.80027,7.73459 -5.35939,9.23147 -2.40753,1.40821 -4.85839,1.77933 -7.50653,1.13666 z m 4.69854,-1.06329 c 2.53426,-0.76914 4.21862,-2.28318 5.76249,-5.17978 1.14866,-2.15511 1.59893,-4.39688 1.60347,-7.9832 0.0107,-8.44926 -2.90352,-12.34762 -9.89006,-13.230036 -2.82439,-0.356731 -5.68782,-0.04224 -8.6254,0.94733 l -1.71966,0.579291 -0.0816,4.487175 c -0.12925,7.11009 0.76281,11.82094 3.00915,15.89092 2.15767,3.90934 6.05369,5.66827 9.94158,4.4883 z"
         id="path239" />
      <path
         style="fill:#42bded;stroke-width:0.264562"
         d="m 113.54006,136.91167 c -8.38938,-1.08589 -15.013439,-4.81808 -19.038117,-10.72664 -1.472409,-2.16163 -3.515673,-6.11913 -3.398403,-6.58222 0.04454,-0.17589 3.235893,-4.31389 7.091891,-9.19555 l 7.010909,-8.87574 0.31014,4.78777 c 0.35666,5.50575 0.81103,8.25844 1.79363,10.86626 2.24153,5.94903 5.29442,8.57957 10.23617,8.82004 4.82191,0.23464 8.14483,-1.84928 10.5734,-6.63094 1.21165,-2.38566 1.61451,-4.59127 1.63093,-8.92899 0.012,-3.17159 -0.0861,-4.19711 -0.56629,-5.9197 -1.74569,-6.262533 -6.10363,-9.172688 -13.71072,-9.155772 -1.13621,0.0026 -2.89098,0.179397 -3.89951,0.393047 -1.00853,0.213648 -1.86635,0.355794 -1.90627,0.315877 -0.19706,-0.197062 8.94225,-11.435428 9.47372,-11.649578 0.33866,-0.136456 2.3421,-0.305197 4.45211,-0.374981 5.79877,-0.191781 9.84864,0.804006 14.08383,3.462941 3.32504,2.087536 7.05179,6.93703 8.24101,10.723758 1.21702,3.875258 1.35357,4.951558 1.34692,10.617028 -0.006,5.26513 -0.0311,5.51471 -0.85307,8.54516 -2.62245,9.6685 -9.96903,16.66708 -19.77644,18.83964 -3.49137,0.77341 -9.79832,1.09541 -13.09584,0.66859 z m 24.73659,-68.183754 c -1.01857,-0.350225 -2.88053,-0.839602 -4.1377,-1.0875 l -2.28577,-0.450727 4.08898,-5.158969 c 2.24894,-2.837433 4.2002,-5.272069 4.33613,-5.410303 0.15326,-0.155861 0.24714,2.230965 0.24714,6.283359 0,3.594082 -0.0893,6.518095 -0.19842,6.497806 -0.10913,-0.02029 -1.03179,-0.323438 -2.05036,-0.673666 z"
         id="path237" />
      <path
         style="fill:#149999;stroke-width:0.264562"
         d="m 105.60318,152.76034 c -6.468221,-0.70908 -14.562934,-3.06987 -20.489306,-5.97562 -2.700069,-1.32386 -3.503818,-1.87606 -5.527954,-3.79788 C 70.223379,134.09758 64.140116,122.33962 61.928691,108.85828 61.112452,103.88231 61.112379,96.444002 61.92852,91.538471 64.141573,78.236607 69.463442,67.716647 78.603242,58.576843 89.338379,47.84171 102.7155,41.958365 118.03762,41.233348 c 9.27497,-0.438876 20.26255,1.951554 28.94091,6.296313 2.81734,1.410479 3.50148,1.894726 5.67635,4.017838 9.5001,9.274012 15.34334,20.698847 17.40429,34.029283 0.69856,4.518392 0.63988,12.998792 -0.12175,17.593408 -2.09459,12.63586 -7.7098,23.64213 -16.59478,32.52711 -8.90615,8.90616 -19.72055,14.4435 -32.39483,16.58726 -3.54689,0.59993 -11.86069,0.85771 -15.34463,0.47578 z m 17.72569,-13.07121 c 9.56179,-1.16602 16.53957,-5.09466 21.51934,-12.11585 3.44356,-4.85523 5.12515,-10.21818 5.38764,-17.18245 0.3826,-10.15075 -2.07725,-17.269744 -7.89404,-22.845962 -2.22288,-2.130948 -4.25539,-3.433754 -7.10763,-4.555882 -3.61373,-1.421717 -5.74349,-1.773276 -10.71478,-1.768696 -5.41268,0.005 -7.9183,0.513608 -12.41508,2.520162 -1.59448,0.711485 -2.93504,1.257613 -2.97904,1.213619 -0.044,-0.044 0.26636,-1.104628 0.68968,-2.356963 2.17093,-6.422485 6.17235,-10.309612 12.23779,-11.888241 1.79842,-0.468069 2.9538,-0.573341 6.30281,-0.574272 4.41707,-0.0013 6.68374,0.389936 10.42963,1.799887 2.06779,0.778314 3.22384,0.854265 4.06244,0.266894 0.58733,-0.411387 0.58799,-0.421538 0.58799,-9.108512 0,-7.553306 -0.0547,-8.75132 -0.41574,-9.112403 -0.22866,-0.228657 -0.437,-0.416289 -0.46299,-0.41696 -0.026,-6.61e-4 -1.65446,-0.241708 -3.61883,-0.535639 -7.3371,-1.097858 -15.60958,-0.984005 -22.05912,0.303595 -9.98757,1.993941 -18.480375,7.292486 -23.416569,14.60928 -5.144801,7.626008 -7.502288,15.515508 -8.246365,27.597038 -0.586678,9.525905 0.582024,19.080715 3.088312,25.248735 3.097754,7.62362 7.479184,12.55948 14.136082,15.92487 5.42648,2.74336 13.4413,3.88591 20.88847,2.97775 z m -6.52312,-16.5529 c -3.11535,-0.62351 -5.28339,-2.87689 -6.79216,-7.05954 -1.03941,-2.8815 -1.5057,-6.06611 -1.68302,-11.4945 l -0.16128,-4.937508 1.82556,-0.536869 c 3.1353,-0.922045 5.74251,-1.149683 8.3313,-0.727412 5.69722,0.929305 8.14519,3.950749 8.59633,10.610159 0.3908,5.7688 -1.2625,10.53728 -4.45533,12.85015 -1.57099,1.13802 -3.84653,1.65874 -5.6614,1.29552 z"
         id="path235" />
      <path
         style="fill:#2762ae;stroke-width:0.264562"
         d="m 113.01093,139.67112 c -9.46716,-1.1865 -16.474906,-5.20941 -21.152262,-12.14281 -4.053603,-6.00878 -5.927478,-12.34848 -6.640543,-22.46629 -0.54257,-7.698639 0.419017,-18.047179 2.265359,-24.379644 2.377469,-8.154094 6.65721,-14.989368 12.153321,-19.410355 6.376825,-5.129417 13.204475,-7.751014 22.882265,-8.786052 3.93489,-0.420835 11.69707,-0.164652 16.41899,0.541893 1.96437,0.293931 3.59285,0.534969 3.61883,0.535639 0.026,6.62e-4 0.23433,0.188303 0.46299,0.41696 0.36108,0.361083 0.41574,1.559097 0.41574,9.112403 0,8.686974 -5.3e-4,8.697125 -0.58799,9.108512 -0.8386,0.587371 -1.99465,0.51142 -4.06244,-0.266894 -3.74589,-1.409951 -6.01256,-1.801117 -10.42963,-1.799887 -3.34901,0.0011 -4.50439,0.106203 -6.30281,0.574272 -6.06544,1.578629 -10.06686,5.465756 -12.23779,11.888241 -0.42332,1.252335 -0.73367,2.312966 -0.68968,2.356963 0.044,0.04399 1.38456,-0.502134 2.97904,-1.213619 4.49678,-2.006554 7.0024,-2.515175 12.41508,-2.520162 4.97129,-0.0046 7.10105,0.346979 10.71478,1.768696 2.85224,1.122128 4.88475,2.424934 7.10763,4.555882 5.81679,5.576218 8.27664,12.695212 7.89404,22.845962 -0.12806,3.3976 -0.30569,4.75617 -0.9739,7.44854 -2.0618,8.30755 -7.22965,14.79396 -14.95374,18.76916 -5.5459,2.85419 -13.65533,4.02035 -21.29728,3.06259 z m 14.94778,-1.78638 c 12.38366,-3.25206 19.90932,-12.30363 21.31534,-25.63724 0.53818,-5.10361 -0.29903,-11.96323 -1.95412,-16.010931 -1.05548,-2.581289 -3.39306,-5.884314 -5.7654,-8.146559 -3.6733,-3.502824 -8.10356,-5.360087 -14.31487,-6.001108 -5.38399,-0.55564 -10.53947,0.434581 -15.8161,3.037823 -1.81887,0.897345 -3.39526,1.672902 -3.50309,1.723463 -0.66123,0.31003 1.51191,-6.318581 2.8839,-8.796608 1.51791,-2.741571 4.26293,-5.400162 6.84812,-6.632479 3.24562,-1.547137 5.28017,-2.007333 9.59907,-2.171227 4.45262,-0.168966 6.63592,0.125834 10.59053,1.429987 1.64849,0.543639 3.12413,0.871622 3.70388,0.823244 l 0.96368,-0.08042 0.0699,-8.232098 c 0.0542,-6.381718 -0.005,-8.294065 -0.26456,-8.507789 -0.89131,-0.734782 -11.81406,-1.77698 -16.07589,-1.533886 -10.20786,0.582255 -16.88121,2.547564 -23.41378,6.895392 -7.288895,4.851198 -12.633663,13.001268 -14.981957,22.845509 -2.021112,8.472656 -2.394473,21.190707 -0.868019,29.567907 1.29406,7.10182 4.075088,13.2437 7.944767,17.54593 3.269305,3.63476 8.353609,6.62967 13.328739,7.85131 4.05074,0.99466 5.65556,1.14195 11.2439,1.03193 4.70349,-0.0926 5.24783,-0.15702 8.466,-1.00215 z m -14.02181,-0.0413 c -4.37948,-0.53289 -7.64943,-1.44594 -10.64479,-2.97229 -9.443678,-4.81225 -14.541089,-13.57942 -15.955694,-27.44265 -0.420514,-4.12106 -0.18954,-14.627203 0.404789,-18.412415 1.022396,-6.511537 2.015582,-9.839921 4.389893,-14.711527 5.433087,-11.147595 14.469122,-17.43414 28.166692,-19.596122 5.132,-0.810019 16.33694,-0.476536 20.68894,0.615748 l 0.59695,0.149825 v 7.511351 c 0,6.713903 -0.045,7.51135 -0.42396,7.51135 -0.23318,0 -1.48147,-0.354299 -2.77399,-0.78733 -3.79402,-1.271114 -6.8922,-1.688036 -11.2064,-1.508038 -9.00961,0.375898 -14.37838,3.475266 -17.79173,10.271089 -1.88447,3.751877 -3.38253,10.014529 -2.39555,10.014529 0.2233,0 1.3415,-0.525617 2.4849,-1.168036 5.73567,-3.222619 9.26123,-4.208467 15.04245,-4.2063 7.35743,0.0028 12.5623,1.943503 16.77157,6.253639 3.16332,3.239112 5.0426,6.529209 6.07131,10.629166 2.26942,9.044871 0.81607,18.933901 -3.81041,25.927121 -4.49634,6.79651 -11.50697,10.74557 -21.14897,11.91313 -3.68295,0.44597 -4.85572,0.44705 -8.466,0.008 z m 12.699,-1.60037 c 9.80741,-2.17256 17.15399,-9.17114 19.77644,-18.83964 0.82197,-3.03045 0.84688,-3.28003 0.85307,-8.54516 0.007,-5.66547 -0.1299,-6.74177 -1.34692,-10.617028 -0.71625,-2.280698 -2.56927,-5.289261 -4.82246,-7.829722 -2.57051,-2.898245 -6.69695,-5.077626 -11.41745,-6.030136 -3.06382,-0.618224 -9.00449,-0.422924 -12.01064,0.394846 -2.28298,0.621045 -6.1684,2.350434 -8.60173,3.828606 -1.77366,1.077439 -2.38989,1.158543 -3.0724,0.404376 -0.47025,-0.519617 -0.47029,-0.614624 -10e-4,-3.10861 1.56973,-8.345454 5.36391,-13.838116 11.54405,-16.71181 5.77586,-2.685711 15.88329,-2.634256 22.52577,0.114675 0.43372,0.179495 0.46298,-0.227844 0.46298,-6.445724 v -6.637327 l -0.59527,-0.127468 c -2.31786,-0.496313 -5.04294,-0.729731 -9.98735,-0.855459 -6.23941,-0.158659 -9.70724,0.167043 -14.35733,1.348456 -9.3351,2.371694 -16.835328,7.79427 -21.197456,15.32551 -4.14894,7.163165 -6.050047,14.891779 -6.420098,26.099755 -0.322219,9.75926 1.106069,18.03613 4.160809,24.11171 2.956687,5.88055 6.633796,9.61102 11.948795,12.12216 4.54826,2.1489 8.88358,2.94183 15.28278,2.79522 3.20954,-0.0735 4.79066,-0.24679 7.27547,-0.79723 z m -11.64075,-10.55831 c -4.61239,-1.45871 -7.6208,-5.91939 -8.86483,-13.14421 -0.56815,-3.29961 -0.89756,-10.44534 -0.60257,-13.071156 0.2411,-2.146023 0.15745,-2.078014 3.91159,-3.180131 6.34961,-1.864081 13.22611,-0.829258 16.52537,2.486847 2.80074,2.81505 3.80765,5.91872 3.7859,11.66954 -0.017,4.49206 -0.43635,6.64517 -1.7995,9.23924 -1.68174,3.20036 -3.4924,4.86045 -6.38779,5.85661 -1.7313,0.59565 -4.91794,0.66516 -6.56817,0.14326 z m 5.70622,-0.84933 c 3.11221,-0.92201 4.84473,-2.49031 6.5802,-5.95648 1.29812,-2.59269 1.73639,-5.44313 1.51948,-9.88256 -0.22768,-4.65995 -0.9281,-6.75117 -3.0779,-9.18966 -1.51211,-1.71517 -3.80262,-2.797749 -7.03822,-3.326522 -3.12066,-0.509989 -6.18703,-0.214518 -9.82548,0.946771 l -2.3303,0.743765 0.0239,5.939026 c 0.032,7.94843 0.61448,11.11241 2.86231,15.5483 2.20603,4.35338 6.86031,6.4885 11.28598,5.17736 z m -4.91253,-1.00089 c -2.30614,-0.72558 -3.97909,-2.15257 -5.27386,-4.49849 -2.24634,-4.06998 -3.1384,-8.78083 -3.00915,-15.89092 l 0.0816,-4.487175 1.71966,-0.579291 c 5.69036,-1.916883 11.86799,-1.253672 15.04327,1.614997 2.4405,2.204849 3.47886,5.395039 3.47219,10.667709 -0.006,4.66862 -0.94044,7.70955 -3.21868,10.47345 -2.07091,2.51237 -5.79013,3.65144 -8.815,2.69972 z m 4.65521,-0.97541 c 0.52323,-0.13313 1.43363,-0.59141 2.0231,-1.01843 3.19283,-2.31287 4.84613,-7.08135 4.45533,-12.85015 -0.27613,-4.07596 -1.16058,-6.4499 -3.03341,-8.14188 -1.55947,-1.408889 -3.00774,-2.05149 -5.56292,-2.468279 -2.58879,-0.422271 -5.196,-0.194633 -8.3313,0.727412 l -1.82556,0.536869 0.16128,4.937508 c 0.22856,6.99687 1.15685,11.43199 3.02516,14.45338 2.24449,3.62972 5.11068,4.83557 9.08832,3.82357 z"
         id="path233" />
      <path
         style="fill:#167672;stroke-width:0.264562"
         d="m 78.750088,143.08721 c -2.640112,-1.82916 -4.793237,-3.90645 -7.919332,-7.6404 C 63.869306,127.13175 59.635558,117.9773 57.677613,107.00634 56.883629,102.55741 56.815017,93.079103 57.544512,88.619251 60.437605,70.93201 70.285731,56.167918 85.36415,46.912669 c 9.9351,-6.098241 22.91147,-9.290112 34.26084,-8.427336 9.49472,0.721785 16.98638,2.909444 25.00116,7.300651 3.54797,1.94389 4.56358,2.807272 1.56243,1.328232 -8.01549,-3.950227 -19.26903,-6.301146 -28.15096,-5.880868 -15.32212,0.725017 -28.699241,6.608362 -39.434378,17.343495 -9.1398,9.139804 -14.461669,19.659764 -16.674722,32.961628 -0.816141,4.905531 -0.816068,12.343839 1.71e-4,17.319809 2.153841,13.13029 7.463554,23.69255 16.657902,33.13646 1.381226,1.41871 2.459273,2.57484 2.395656,2.56917 -0.06361,-0.006 -1.068086,-0.67018 -2.232161,-1.4767 z"
         id="path231" />
      <path
         style="fill:#104640;stroke-width:0.264562"
         d="m 73.456192,139.08054 c -9.230632,-7.973 -15.67222,-18.07296 -18.769053,-29.42857 -1.551373,-5.68864 -2.077754,-9.693192 -2.069152,-15.741469 0.01076,-7.562902 1.06317,-13.522273 3.606805,-20.423801 5.847138,-15.864769 18.674507,-28.807086 34.408827,-34.717168 14.396911,-5.407726 30.225351,-5.056703 44.336001,0.983228 3.09979,1.326837 6.76068,3.308238 9.46246,5.121418 2.74241,1.840453 6.16625,4.522875 4.16251,3.261146 -2.7289,-1.718352 -4.04549,-2.452381 -6.87863,-3.834989 -7.00465,-3.418357 -13.6805,-5.175641 -22.09097,-5.815002 -11.34937,-0.862776 -24.32574,2.329095 -34.26084,8.427336 -15.078419,9.255249 -24.926545,24.019341 -27.819638,41.706582 -0.729495,4.459852 -0.660883,13.938159 0.133101,18.387089 2.236458,12.53156 7.654539,23.12288 16.409867,32.07821 1.102515,1.1277 1.946646,2.05036 1.875849,2.05036 -0.0708,0 -1.199008,-0.92447 -2.507137,-2.05437 z"
         id="path229" />
    </g>
    <g
       id="g140"
       transform="matrix(0.24589849,0,0,0.24583016,2.0111466,41.473121)">
      <path
         style="fill:#f05320;stroke-width:0.264562"
         d="m 59.80053,101.36469 c 0,-3.887184 0.06133,-7.067603 0.136289,-7.067603 0.07496,0 0.792193,0.37017 1.593855,0.822599 0.801658,0.452428 2.584108,1.329958 3.961,1.950066 l 2.503436,1.127468 -3.733122,4.73014 c -2.053217,2.60157 -3.896998,4.90446 -4.09729,5.11753 -0.309761,0.32952 -0.364168,-0.66849 -0.364168,-6.6802 z M 77.79078,71.321792 v -5.778733 l 4.486824,-0.169402 c 2.467754,-0.09317 5.414319,-0.357173 6.547922,-0.586673 4.157557,-0.8417 6.856515,-2.688434 8.239172,-5.637565 0.625817,-1.334834 0.700125,-1.804697 0.696569,-4.404426 -0.0036,-2.643506 -0.06932,-3.034749 -0.71697,-4.26947 -1.308618,-2.494832 -3.907932,-4.216631 -7.482954,-4.956748 -7.267106,-1.504466 -14.763056,-0.215888 -23.08061,3.967634 l -4.299141,2.162359 v -7.462874 -7.462875 l 2.976329,-0.968429 c 9.090494,-2.957838 17.493346,-4.169314 25.242537,-3.639329 7.176933,0.490847 10.985632,1.384451 15.657752,3.673651 1.99046,0.975265 2.94574,1.655919 4.60966,3.284433 1.28849,1.261082 2.04374,2.197903 1.95608,2.42635 -0.0785,0.204669 -6.40704,8.298585 -14.063323,17.986478 L 84.640102,77.100524 H 81.215441 77.79078 Z"
         id="path154" />
      <path
         style="fill:#1ccd43;stroke-width:0.264562"
         d="m 77.129374,132.0086 c -7.214022,-0.79904 -14.728856,-2.96781 -20.991905,-6.05825 -2.912378,-1.43708 -3.557784,-1.88599 -5.570051,-3.8742 -9.229431,-9.1191 -15.132953,-20.21454 -17.24372,-32.408907 -1.167319,-6.743865 -1.228177,-12.277753 -0.20948,-19.0485 3.22542,-21.43769 17.938564,-39.328222 38.424368,-46.722332 3.915959,-1.413419 7.23571,-2.220749 11.940288,-2.903756 3.443469,-0.49992 4.703395,-0.557114 9.52425,-0.432345 5.001493,0.129444 6.004547,0.236796 10.053376,1.075956 5.12556,1.062324 10.95593,3.046786 15.12641,5.148523 7.8365,3.949246 16.81705,16.144211 20.68771,28.092485 0.97889,3.021727 1.67751,6.01117 2.31851,9.921094 0.65775,4.012133 0.65328,12.832554 -0.009,16.932 -2.13003,13.192809 -7.55735,23.962422 -16.67666,33.092032 -9.25481,9.26526 -20.14745,14.79111 -33.088129,16.78564 -4.332272,0.66772 -10.35077,0.83647 -14.286375,0.40056 z m 18.524058,-15.57009 c 3.425116,-0.64744 5.392148,-1.22068 8.064468,-2.35019 9.77447,-4.13134 15.22601,-11.07667 16.5729,-21.114046 1.26287,-9.411313 -2.12616,-16.754968 -9.71068,-21.041997 -0.92085,-0.520492 -2.18677,-1.083423 -2.81315,-1.250954 -0.62638,-0.167532 -1.13888,-0.374163 -1.13888,-0.459183 0,-0.08502 0.62503,-0.465556 1.38896,-0.845645 3.29822,-1.641012 6.51535,-5.115673 8.3829,-9.053934 2.43049,-5.125399 2.68696,-10.645281 0.76717,-16.51151 -2.30837,-7.053586 -9.26783,-11.928173 -19.79335,-13.863783 -2.597564,-0.477684 -4.103129,-0.563162 -10.191021,-0.578591 -6.315321,-0.01601 -7.557122,0.05289 -10.714782,0.594443 -5.328201,0.913813 -13.812736,3.245664 -16.204453,4.453558 l -0.727547,0.367434 v 9.596825 c 0,7.111448 0.08222,9.679046 0.317475,9.9143 0.596959,0.596959 3.138947,0.3782 4.44465,-0.382499 7.870616,-4.585395 15.444874,-6.65361 21.896545,-5.979031 3.389694,0.354421 5.557664,1.095646 6.990339,2.389981 1.349229,1.218948 1.802366,2.359972 1.802366,4.538456 0,3.575877 -1.972906,5.856768 -5.98866,6.92354 -1.669987,0.443624 -3.170816,0.580651 -7.606347,0.694466 -4.924487,0.126363 -5.579496,0.19544 -6.018796,0.634741 -0.457358,0.457357 -0.492947,1.026497 -0.492947,7.883473 0,4.064791 0.10968,7.679006 0.243734,8.031591 l 0.243731,0.641067 6.304191,0.190993 c 8.390655,0.254204 11.051903,0.786729 13.260555,2.653477 1.536127,1.29833 2.013276,2.577135 2.026826,5.432095 0.01601,3.369359 -0.410354,4.722411 -2.055108,6.522034 -2.200173,2.407342 -4.594006,3.325924 -9.899429,3.7987 -2.35927,0.21024 -3.828552,0.208472 -5.423531,-0.0065 -5.131962,-0.691747 -10.820085,-2.614505 -16.087556,-5.438085 -2.264568,-1.213911 -2.89483,-1.436829 -4.062354,-1.436829 -2.440415,0 -2.293847,-0.691711 -2.214328,10.450223 l 0.06986,9.78881 2.509555,1.00418 c 5.381564,2.15338 11.433439,3.53421 18.655445,4.2565 2.644022,0.26444 15.156058,-0.0615 17.201246,-0.4481 z"
         id="path152" />
      <path
         style="fill:#e61c24;stroke-width:0.264562"
         d="m 80.436405,114.11184 c -6.387748,-0.38344 -12.132789,-1.52803 -17.924109,-3.57105 -2.208079,-0.77895 -2.711766,-1.05425 -2.711766,-1.48214 0,-0.3836 5.077187,-7.13133 8.094956,-10.758436 0.04466,-0.05368 0.950021,0.214131 2.011919,0.595125 1.061896,0.380997 3.240303,1.017174 4.840906,1.413731 2.647496,0.65593 3.363928,0.72154 7.936875,0.72684 5.782416,0.007 7.945299,-0.36263 10.962198,-1.871921 2.136278,-1.068737 4.276549,-3.23208 5.207614,-5.263746 0.814712,-1.77778 1.259522,-4.832975 1.035153,-7.109985 -0.596086,-6.049322 -4.432419,-8.948445 -12.737136,-9.625477 L 84.742221,76.968243 98.347776,59.771681 c 7.483054,-9.45811 13.771214,-17.423862 13.973684,-17.701674 0.54837,-0.752442 1.01428,-0.218171 1.95264,2.239144 2.66422,6.976867 1.15259,14.442234 -3.97009,19.606811 -2.07842,2.095425 -4.75794,3.718413 -7.37979,4.469948 -1.74446,0.500033 -1.88756,0.675756 -1.79815,2.207978 l 0.0785,1.344956 1.85194,0.476435 c 4.23738,1.090121 5.45098,1.558503 7.37842,2.847655 5.53443,3.701653 8.05363,9.83245 7.07025,17.206388 -1.22332,9.173238 -6.43908,15.543318 -15.77148,19.261958 -3.274938,1.30495 -6.824938,2.03509 -11.640754,2.39421 -4.044676,0.30161 -4.413341,0.30109 -9.656531,-0.0137 z"
         id="path150" />
      <path
         style="fill:#19ad39;stroke-width:0.264562"
         d="M 49.710309,122.2244 C 46.547221,120.10245 41.047321,114.06264 37.77058,109.11259 33.268694,102.31175 30.28233,94.639365 28.811568,86.095649 27.999889,81.380579 27.926078,72.491936 28.661079,67.973118 30.770435,55.004706 36.382696,43.907614 45.384688,34.90562 64.408029,15.882279 93.86011,12.13842 117.16911,25.780604 c 1.79883,1.052809 1.60704,1.320479 -0.26292,0.366953 -2.91221,-1.484991 -9.32212,-3.572908 -13.84969,-4.511291 -4.048829,-0.83916 -5.051883,-0.946512 -10.053376,-1.075956 -4.820855,-0.124769 -6.080781,-0.06758 -9.52425,0.432345 -2.182641,0.316874 -5.115181,0.866351 -6.516757,1.221058 -18.904988,4.784437 -34.509041,18.958211 -41.056692,37.293405 -2.743288,7.681948 -3.975417,16.394197 -3.367417,23.810625 1.230482,15.009509 6.814547,27.244927 17.43974,38.212757 0.995551,1.02765 1.736588,1.86846 1.646753,1.86846 -0.08984,0 -0.951221,-0.52855 -1.914192,-1.17456 z"
         id="path148" />
      <path
         style="fill:#00ae2b;stroke-width:0.264562"
         d="m 80.304124,116.08245 c -3.168895,-0.25267 -7.116234,-0.72054 -8.862844,-1.0505 -3.67808,-0.69484 -9.222911,-2.32669 -12.236016,-3.60108 l -1.256672,-0.5315 v -9.22711 -9.227111 h 1.410015 c 1.191487,0 1.837279,0.222394 4.16686,1.434969 3.901619,2.030837 7.573342,3.448583 11.51808,4.447422 3.226988,0.817099 3.648322,0.861458 7.906202,0.832393 4.889797,-0.03338 7.228284,-0.455827 9.834825,-1.776661 1.596391,-0.808953 3.644399,-2.962116 4.390647,-4.616089 0.852072,-1.888511 0.965042,-6.001143 0.222752,-8.109076 -0.665449,-1.88972 -1.446872,-2.754641 -3.456346,-3.82568 C 91.319713,79.43496 89.706535,79.180753 82.486764,79.027341 L 75.938842,78.888208 V 71.289814 63.69142 l 5.002893,-0.173974 c 5.797536,-0.201607 8.500412,-0.644752 10.789801,-1.76902 2.814842,-1.382313 4.10456,-3.564734 4.138734,-7.003433 0.01677,-1.688385 -0.0953,-2.338187 -0.554105,-3.212463 -1.171176,-2.231767 -3.711085,-3.741687 -7.263902,-4.318232 -2.148378,-0.348635 -6.742963,-0.346024 -8.938671,0.0051 -4.387586,0.701593 -10.245942,2.95566 -15.061807,5.795196 -1.086169,0.640427 -1.660646,0.813189 -2.500034,0.751832 l -1.089815,-0.07966 -0.06967,-9.109612 c -0.05438,-7.110249 0.0037,-9.157042 0.264563,-9.325726 0.183828,-0.118864 1.77336,-0.687753 3.532293,-1.264198 11.471454,-3.759474 21.833605,-4.778933 32.388844,-3.186509 7.758094,1.17043 13.765074,4.202047 17.270594,8.716154 1.50797,1.941826 1.80131,2.515199 2.71509,5.307047 0.66237,2.023734 0.73783,2.632686 0.75401,6.084938 0.0211,4.497129 -0.30926,6.017109 -2.09865,9.656531 -2.18946,4.453119 -5.85512,7.647645 -10.77387,9.389146 l -1.25698,0.445039 2.71207,0.725481 c 5.01097,1.340435 8.51028,3.912802 11.28254,8.293849 1.37999,2.180818 2.14901,4.999938 2.32655,8.528704 0.40351,8.020514 -2.06486,14.63275 -7.34139,19.66605 -5.04242,4.80998 -11.81141,7.5549 -20.6199,8.36167 -2.790764,0.2556 -8.678282,0.3117 -11.243906,0.10714 z m 14.550937,-1.52015 c 11.683429,-2.02052 19.968579,-8.45624 22.563529,-17.526814 1.90607,-6.662631 1.62236,-11.817216 -0.90629,-16.466103 -2.45747,-4.518005 -6.12143,-7.205121 -11.81501,-8.665014 -2.85473,-0.731984 -2.85672,-0.733058 -2.7779,-1.503604 0.0698,-0.682725 0.24562,-0.823086 1.53395,-1.224753 4.83336,-1.506911 8.75563,-4.872056 10.96127,-9.404331 1.63692,-3.363616 2.11225,-5.771484 1.9282,-9.76759 -0.12845,-2.788668 -0.26337,-3.504839 -1.05867,-5.619521 -2.48301,-6.602258 -8.85559,-10.887445 -18.709423,-12.580994 -4.838313,-0.831547 -14.224298,-0.818962 -19.313062,0.0259 -4.100803,0.680832 -10.535773,2.302586 -13.624969,3.43379 l -2.1165,0.775022 -0.06986,8.361245 c -0.06316,7.559664 -0.02877,8.361246 0.358709,8.361246 0.235712,0 1.354052,-0.520455 2.4852,-1.156566 7.420928,-4.173236 14.168721,-5.98537 20.984759,-5.635496 6.085681,0.312382 9.285032,1.785508 10.964576,5.04859 0.593538,1.153146 0.690865,1.669731 0.677393,3.59541 -0.01979,2.829054 -0.699868,4.737309 -2.273708,6.379858 -2.225299,2.322452 -4.769538,3.040892 -12.292775,3.471232 l -5.357391,0.306448 v 6.521114 6.521111 l 5.886516,0.166788 c 7.88482,0.223405 10.170142,0.706025 12.916415,2.727714 1.277358,0.940337 1.750708,1.497641 2.286465,2.691987 1.302704,2.904076 1.038268,8.745507 -0.497679,10.993855 -2.505216,3.667177 -5.635297,5.17925 -11.948288,5.771946 -7.214323,0.67732 -13.91263,-0.907139 -22.690187,-5.367282 -1.687078,-0.857257 -3.26618,-1.558646 -3.509117,-1.558646 -0.404863,0 -0.435883,0.710345 -0.371898,8.516348 l 0.06981,8.51635 1.587375,0.62199 c 5.363325,2.10157 11.595742,3.45997 19.0485,4.15176 2.553499,0.23702 12.81759,-0.0917 15.080062,-0.48299 z"
         id="path146" />
      <path
         style="fill:#146a27;stroke-width:0.264562"
         d="m 44.700047,118.4588 c -5.417682,-4.48409 -11.296714,-11.89723 -14.504374,-18.28924 -4.459426,-8.886446 -6.458947,-17.267058 -6.45084,-27.037473 0.0048,-5.739559 0.50528,-9.704499 1.892543,-14.992111 C 31.064,37.456164 47.378104,21.289511 68.134249,16.027193 c 5.358621,-1.358574 8.412024,-1.72811 14.418656,-1.745006 10.115068,-0.02845 18.067645,1.847125 27.117655,6.395574 3.24936,1.633095 9.60712,5.764362 9.31719,6.054295 -0.0609,0.06085 -0.81301,-0.317837 -1.67145,-0.841536 -9.12517,-5.566888 -21.356439,-8.694082 -32.219489,-8.237629 -15.353356,0.645133 -29.058775,6.599382 -39.712123,17.252729 -9.001992,9.001994 -14.614253,20.099086 -16.723609,33.067498 -0.735001,4.518818 -0.66119,13.407461 0.150489,18.122531 2.108457,12.248109 7.384835,22.823081 15.605652,31.277011 1.926749,1.98138 2.081229,2.57463 0.282827,1.08614 z m 33.752139,-1.57219 c -7.222006,-0.72229 -13.273881,-2.10312 -18.655445,-4.2565 l -2.509555,-1.00418 -0.06986,-9.78881 c -0.07952,-11.141932 -0.226087,-10.450221 2.214328,-10.450221 1.167524,0 1.797786,0.222918 4.062354,1.436821 5.267471,2.82358 10.955594,4.746338 16.087556,5.438085 1.594979,0.214988 3.064261,0.216756 5.423531,0.0065 5.305423,-0.472776 7.699256,-1.391358 9.899429,-3.7987 1.644754,-1.799623 2.071104,-3.152675 2.055108,-6.522034 -0.01355,-2.85496 -0.490699,-4.133765 -2.026826,-5.432095 -2.208652,-1.866748 -4.8699,-2.399273 -13.260555,-2.653477 L 75.36806,79.671006 75.124329,79.029939 c -0.134054,-0.352577 -0.243734,-3.966792 -0.243734,-8.031583 0,-6.856976 0.03559,-7.426116 0.492947,-7.883473 0.4393,-0.439301 1.094309,-0.508378 6.018796,-0.634741 4.435531,-0.113815 5.93636,-0.250842 7.606347,-0.694466 4.015754,-1.066772 5.98866,-3.347663 5.98866,-6.92354 0,-2.178484 -0.453137,-3.319508 -1.802366,-4.538456 -1.432675,-1.294335 -3.600645,-2.03556 -6.990339,-2.389981 -6.451671,-0.674579 -14.025929,1.393636 -21.896545,5.979031 -1.305703,0.760699 -3.847691,0.979458 -4.44465,0.382499 -0.235254,-0.235254 -0.317475,-2.802852 -0.317475,-9.9143 v -9.596825 l 0.727547,-0.367434 c 2.391717,-1.207894 10.876252,-3.539745 16.204453,-4.453558 3.15766,-0.541555 4.399461,-0.610448 10.714782,-0.594443 6.087892,0.01543 7.593457,0.100907 10.191021,0.578591 10.525517,1.93561 17.484977,6.810197 19.793347,13.863783 1.91979,5.866229 1.66332,11.386111 -0.76717,16.51151 -1.86755,3.938261 -5.08468,7.412922 -8.3829,9.053934 -0.76393,0.380089 -1.38896,0.760628 -1.38896,0.845645 0,0.08502 0.5125,0.291651 1.13888,0.459183 1.42401,0.380864 4.06588,1.861877 5.84113,3.274498 6.64443,5.287168 8.70778,14.747454 5.39084,24.716598 -3.0467,9.156929 -11.38988,15.506159 -23.345505,17.766089 -2.045188,0.38659 -14.557224,0.71254 -17.201246,0.4481 z m 13.095844,-0.9113 c 11.30704,-1.03561 19.79876,-5.5515 24.41211,-12.98234 4.30826,-6.939429 4.87189,-17.807093 1.22263,-23.574087 -2.77226,-4.381047 -6.27157,-6.953414 -11.28254,-8.293849 l -2.71207,-0.725481 1.25698,-0.445039 c 4.91875,-1.741501 8.58441,-4.936027 10.77387,-9.389146 1.78939,-3.639422 2.11973,-5.159402 2.09865,-9.656531 -0.0162,-3.452252 -0.0916,-4.061204 -0.75401,-6.084938 -0.91378,-2.791848 -1.20712,-3.365221 -2.71509,-5.307047 -3.50552,-4.514107 -9.5125,-7.545724 -17.270594,-8.716154 -10.555239,-1.592424 -20.91739,-0.572965 -32.388844,3.186509 -1.758933,0.576445 -3.348465,1.145334 -3.532293,1.264198 -0.260877,0.168684 -0.318943,2.215477 -0.264563,9.325726 l 0.06967,9.109612 1.089815,0.07966 c 0.839388,0.06136 1.413865,-0.111405 2.500034,-0.751832 4.815865,-2.839536 10.674221,-5.093603 15.061807,-5.795196 2.195708,-0.351104 6.790293,-0.353715 8.938671,-0.0051 3.552817,0.576545 6.092726,2.086465 7.263902,4.318232 0.458801,0.874276 0.57088,1.524078 0.554105,3.212463 -0.03417,3.438699 -1.323892,5.62112 -4.138734,7.003433 -2.289389,1.124268 -4.992265,1.567413 -10.789801,1.76902 l -5.002893,0.173974 v 7.598394 7.598394 l 6.547922,0.139133 c 7.219771,0.153412 8.832949,0.407619 11.454863,1.805086 2.009474,1.071039 2.790897,1.93596 3.456346,3.82568 0.74229,2.107933 0.62932,6.220565 -0.222752,8.109076 -0.746248,1.653973 -2.794256,3.807136 -4.390647,4.616089 -2.606541,1.320834 -4.945028,1.743282 -9.834825,1.776661 -4.25788,0.02907 -4.679214,-0.01529 -7.906202,-0.832393 -3.944738,-0.998839 -7.616461,-2.416585 -11.51808,-4.447422 -2.329581,-1.212575 -2.975373,-1.434969 -4.16686,-1.434969 h -1.410015 v 9.227114 9.22711 l 1.256672,0.5315 c 3.013105,1.27439 8.557936,2.90624 12.236016,3.60108 1.74661,0.32996 5.693949,0.79783 8.862844,1.0505 2.565624,0.20456 8.453142,0.14846 11.243906,-0.10714 z m -11.773031,-0.93002 c -7.452758,-0.69179 -13.685175,-2.05019 -19.0485,-4.15176 l -1.587375,-0.62199 -0.06981,-8.51635 c -0.06399,-7.806008 -0.03296,-8.516353 0.371898,-8.516353 0.242937,0 1.822039,0.701389 3.509117,1.558646 8.777557,4.460143 15.475864,6.044607 22.690187,5.367287 6.312991,-0.592701 9.443072,-2.104774 11.948288,-5.771951 1.535947,-2.248348 1.800383,-8.089779 0.497679,-10.993855 -0.535757,-1.194346 -1.009107,-1.75165 -2.286465,-2.691987 -2.746268,-2.021689 -5.03159,-2.504309 -12.91641,-2.727714 L 76.997092,77.812475 V 71.291364 64.77025 l 5.357391,-0.306448 c 7.523237,-0.43034 10.067476,-1.14878 12.292775,-3.471232 1.57384,-1.642549 2.253919,-3.550804 2.273708,-6.379858 0.01347,-1.925679 -0.08386,-2.442264 -0.677393,-3.59541 -1.679544,-3.263082 -4.878895,-4.736208 -10.964576,-5.04859 -6.816038,-0.349874 -13.563831,1.46226 -20.984759,5.635496 -1.131148,0.636111 -2.249488,1.156566 -2.4852,1.156566 -0.387481,0 -0.421868,-0.801582 -0.358709,-8.361246 l 0.06986,-8.361244 2.1165,-0.775023 c 3.089196,-1.131204 9.524166,-2.752958 13.624969,-3.43379 5.088764,-0.844857 14.474749,-0.857442 19.313062,-0.0259 9.85383,1.693549 16.22641,5.978736 18.70942,12.580994 0.7953,2.114682 0.93022,2.830853 1.05867,5.619522 0.18405,3.996105 -0.29128,6.403973 -1.9282,9.767589 -2.20564,4.532276 -6.12791,7.897421 -10.96127,9.404332 -1.28833,0.401666 -1.46413,0.542027 -1.53395,1.224752 -0.0788,0.770546 -0.0768,0.77162 2.7779,1.503604 5.69358,1.459893 9.35754,4.147009 11.81501,8.665015 2.52865,4.648886 2.81236,9.803471 0.90629,16.466102 -2.59495,9.070569 -10.8801,15.506289 -22.563526,17.526809 -2.262472,0.39127 -12.526563,0.72001 -15.080062,0.48299 z m 10.317937,-0.9198 c 6.941903,-0.51766 11.702434,-1.91128 16.715304,-4.89331 4.50347,-2.67899 8.09043,-7.15743 9.61188,-12.000733 2.95599,-9.409921 0.76439,-17.454108 -5.9852,-21.968513 -1.92744,-1.289152 -3.14104,-1.757534 -7.37842,-2.847655 l -1.85194,-0.476435 -0.0785,-1.344956 c -0.0894,-1.532222 0.0537,-1.707945 1.79815,-2.207978 2.62185,-0.751535 5.30137,-2.374523 7.37979,-4.469948 4.06963,-4.102914 5.84516,-9.428182 5.07446,-15.219611 -0.78778,-5.919851 -3.9444,-10.247746 -9.46257,-12.973715 -4.46416,-2.205288 -8.402152,-3.120881 -15.515442,-3.607375 -7.749191,-0.529985 -16.152043,0.681491 -25.242537,3.639329 l -2.976329,0.968429 v 7.462875 7.462874 l 4.299141,-2.162359 c 8.317554,-4.183522 15.813504,-5.4721 23.08061,-3.967634 3.575022,0.740117 6.174336,2.461916 7.482954,4.956748 0.647652,1.234721 0.713354,1.625964 0.71697,4.26947 0.0035,2.599729 -0.07075,3.069592 -0.696569,4.404426 -1.382657,2.949131 -4.081615,4.795865 -8.239172,5.637565 -1.133603,0.2295 -4.080168,0.493502 -6.547922,0.586673 l -4.486824,0.169402 v 5.745025 5.745022 l 6.018797,0.143327 c 4.178667,0.0995 6.525156,0.270835 7.675029,0.560396 3.761616,0.947247 6.706117,3.154302 7.679644,5.756285 1.12743,3.013314 0.9921,7.567463 -0.309252,10.407129 -0.931065,2.031666 -3.071336,4.195009 -5.207614,5.263746 -3.015455,1.508571 -5.179928,1.878431 -10.962198,1.873221 -4.776874,-0.004 -5.194803,-0.0469 -8.409455,-0.85639 -3.766698,-0.948534 -8.052317,-2.611473 -11.801474,-4.5793 -1.366883,-0.717438 -2.527651,-1.304433 -2.579485,-1.304433 -0.05183,0 -0.09424,3.43959 -0.09424,7.643533 v 7.64353 l 2.711766,0.95664 c 5.79132,2.04302 11.536361,3.18761 17.924109,3.57105 5.24319,0.31474 5.611855,0.31526 9.656531,0.0136 z"
         id="path144" />
      <path
         style="fill:#482d18;stroke-width:0.264562"
         d="m 47.067782,120.29035 c -0.329081,-0.41961 -0.319723,-0.42897 0.09989,-0.0999 0.254641,0.19971 0.462984,0.40805 0.462984,0.46299 0,0.21774 -0.217256,0.0776 -0.562873,-0.3631 z M 119.32709,27.362774 c -0.7357,-0.40278 -0.81208,-0.509225 -0.37171,-0.518035 0.30485,-0.0061 0.76975,0.227017 1.03312,0.518035 0.58381,0.645108 0.51692,0.645108 -0.66141,0 z"
         id="path142" />
    </g>
  </g>
  <g
     inkscape:label="Warstwa 1"
     inkscape:groupmode="layer"
     id="layer1">
    <g
       id="g929"
       transform="matrix(0.60000949,0,0,0.6026023,30.188691,-26.836675)"
       style="display:inline">
      <path
         style="fill:#fb939c;stroke-width:0.264779"
         d="m 65.015181,154.36014 c 0.400477,-0.0607 1.055804,-0.0607 1.456282,0 0.400478,0.0607 0.07281,0.1103 -0.728141,0.1103 -0.800956,0 -1.128619,-0.0496 -0.728141,-0.1103 z m -3.574512,-0.25049 c 0.182035,-0.0734 0.479911,-0.0734 0.661946,0 0.182036,0.0735 0.0331,0.13355 -0.330973,0.13355 -0.364071,0 -0.513009,-0.0601 -0.330973,-0.13355 z m 7.943359,0 c 0.182035,-0.0734 0.479911,-0.0734 0.661947,0 0.182035,0.0735 0.0331,0.13355 -0.330974,0.13355 -0.36407,0 -0.513008,-0.0601 -0.330973,-0.13355 z m -12.113623,-2.44751 c -3.46172,-0.76237 -6.273213,-1.97986 -8.624604,-3.7348 -2.35694,-1.75907 -4.074544,-5.94166 -4.076259,-9.92622 -0.0011,-2.67371 0.892663,-5.84816 2.285729,-8.11794 l 0.594671,-0.96893 -0.540272,-1.81125 c -0.56442,-1.89221 -0.986205,-7.62566 -0.65737,-8.93584 l 0.172217,-0.68617 2.708963,1.35663 c 1.48993,0.74615 3.368373,1.81769 4.174318,2.3812 l 1.465355,1.02456 1.902538,-0.79936 c 2.554489,-1.07328 6.323465,-1.83672 9.067631,-1.83672 2.708807,0 6.505908,0.7604 8.972763,1.79686 l 1.80767,0.7595 1.241688,-0.91974 c 0.68293,-0.50586 2.516959,-1.55963 4.075621,-2.34172 l 2.833931,-1.42197 0.171794,1.91992 c 0.223155,2.49394 -0.125749,5.96222 -0.825257,8.20349 l -0.556276,1.78232 0.60208,1.92458 c 0.794158,2.53856 0.84328,6.77034 0.103782,8.9412 -0.917185,2.6925 -1.795935,4.08576 -3.870243,6.13629 -1.638447,1.61968 -2.558791,2.27691 -4.533574,3.23752 -3.946406,1.91968 -5.897544,2.33458 -11.480262,2.4412 -3.922624,0.0749 -5.164282,0.003 -7.016634,-0.40461 z m 10.044937,-5.17037 c 0.469974,-0.50027 0.582989,-0.87724 0.505767,-1.68701 -0.09937,-1.04203 -0.09855,-1.04302 1.133006,-1.35866 1.478233,-0.37886 3.277761,-1.64361 3.813983,-2.68055 0.21635,-0.41837 0.389026,-1.46295 0.389026,-2.35335 0,-1.46769 -0.07976,-1.68934 -0.957535,-2.66093 -0.526645,-0.58293 -0.819106,-1.05988 -0.649912,-1.05988 0.169193,0 0.600083,-0.29246 0.957534,-0.64991 0.535102,-0.5351 0.649913,-0.91153 0.649913,-2.13087 0,-1.26138 -0.103881,-1.57724 -0.70061,-2.13027 -1.008873,-0.93499 -3.021844,-0.9226 -3.968873,0.0244 -0.58753,0.58753 -0.662216,0.8586 -0.583718,2.11859 l 0.09002,1.44486 -2.184424,-2.6e-4 -2.184423,-4.7e-4 v -1.46893 c 0,-1.96684 -0.780721,-2.76753 -2.698487,-2.76753 -1.831161,0 -2.597086,0.78514 -2.597086,2.66223 0,1.18764 0.111826,1.47423 0.871794,2.2342 l 0.871792,0.87179 -0.871792,0.95129 c -0.785458,0.85708 -0.871794,1.11031 -0.871794,2.557 0,0.9261 0.172119,1.93856 0.406668,2.39212 0.548214,1.06013 2.249408,2.24996 3.776551,2.64136 l 1.252241,0.32094 -0.09945,1.04279 c -0.07722,0.80977 0.03579,1.18674 0.505767,1.68701 0.830158,0.88366 2.313882,0.88366 3.14404,0 z m 17.02868,1.97101 c -0.9556,-0.58264 -1.003106,-0.71949 -0.486256,-1.40077 0.315839,-0.41632 0.376047,-0.42263 0.517415,-0.0542 0.08799,0.2293 0.572983,0.58947 1.077763,0.80038 0.996719,0.41645 1.888573,0.23525 2.506466,-0.50927 0.299112,-0.36041 0.230614,-0.5579 -0.470419,-1.35633 -1.075115,-1.22449 -1.294577,-2.11656 -0.68611,-2.78891 0.258273,-0.28539 0.680772,-0.51889 0.938889,-0.51889 0.70228,0 1.566851,1.26615 1.566851,2.29463 0,1.08641 0.580278,1.40278 1.562128,0.85168 0.902572,-0.5066 0.999939,-1.18537 0.304895,-2.12547 -0.57332,-0.77545 -0.534569,-1.28562 0.09765,-1.28562 0.581453,0 1.584207,2.18638 1.378551,3.00578 -0.221726,0.88342 -1.587443,1.75791 -2.747473,1.75925 -0.473292,5.3e-4 -0.86053,0.12583 -0.86053,0.27841 0,0.15258 -0.315275,0.56961 -0.70061,0.92672 -0.897878,0.83213 -2.742792,0.88871 -3.999211,0.12265 z m 3.86581,-3.97458 c -0.152301,-0.43689 -0.384403,-0.79434 -0.515786,-0.79434 -0.309156,0 -0.301493,0.10244 0.06841,0.91427 0.428909,0.94136 0.784147,0.84613 0.44738,-0.11993 z m -1.792872,-3.06702 c 0.01271,-0.30845 0.07545,-0.37119 0.159969,-0.15997 0.07649,0.19114 0.06708,0.41951 -0.02089,0.50749 -0.08799,0.088 -0.150564,-0.0684 -0.139067,-0.34752 z m 0.295493,-1.83139 c 0.0054,-0.43688 0.06474,-0.58355 0.131871,-0.32593 0.06713,0.25762 0.06272,0.61507 -0.0098,0.79434 -0.07253,0.17926 -0.127456,-0.0315 -0.12206,-0.46841 z m 0,-2.91256 c 0.0054,-0.43689 0.06474,-0.58356 0.131871,-0.32594 0.06713,0.25763 0.06272,0.61508 -0.0098,0.79434 -0.07253,0.17926 -0.127456,-0.0315 -0.12206,-0.4684 z"
         id="path943" />
      <path
         style="fill:#de6a8a;stroke-width:0.264779"
         d="m 62.632173,152.23868 c 0.546106,-0.0571 1.439734,-0.0571 1.98584,0 0.546106,0.0571 0.09929,0.10386 -0.99292,0.10386 -1.092212,0 -1.539026,-0.0467 -0.99292,-0.10386 z m 17.938753,-5.997 c 0,-0.055 0.208513,-0.26349 0.463363,-0.46336 0.419954,-0.32935 0.42932,-0.31999 0.09997,0.1 -0.345899,0.44105 -0.563332,0.58131 -0.563332,0.36339 z m -16.606758,-4.67213 c -0.760092,-0.10939 -1.93264,-0.52158 -2.60566,-0.916 -2.603346,-1.52566 -2.404124,-3.80992 0.459004,-5.26289 1.330044,-0.67497 1.77984,-0.76231 3.92581,-0.76231 2.14597,0 2.595765,0.0873 3.925809,0.76231 1.115624,0.56615 1.626996,1.01712 1.987323,1.75258 0.470371,0.96007 0.470371,1.02047 0,1.98054 -0.912496,1.86249 -4.287852,2.93568 -7.692286,2.44577 z m 0.07013,-1.96772 c 0.409676,-0.40967 0.649912,-0.95243 0.649912,-1.46832 0,-0.51588 -0.240236,-1.05864 -0.649912,-1.46831 -0.409674,-0.40968 -0.95243,-0.64992 -1.468317,-0.64992 -0.515887,0 -1.058643,0.24024 -1.468317,0.64992 -0.409676,0.40967 -0.649912,0.95243 -0.649912,1.46831 0,0.51589 0.240236,1.05865 0.649912,1.46832 0.409674,0.40967 0.95243,0.64991 1.468317,0.64991 0.515887,0 1.058643,-0.24024 1.468317,-0.64991 z m 6.354687,0 c 1.313355,-1.31335 0.382717,-3.58655 -1.468316,-3.58655 -0.515887,0 -1.058644,0.24024 -1.468317,0.64992 -0.409676,0.40967 -0.649913,0.95243 -0.649913,1.46831 0,0.51589 0.240237,1.05865 0.649913,1.46832 0.409673,0.40967 0.95243,0.64991 1.468317,0.64991 0.515886,0 1.058643,-0.24024 1.468316,-0.64991 z m 1.709027,-5.27519 c 0,-0.055 0.208513,-0.26349 0.463363,-0.46336 0.419955,-0.32935 0.42932,-0.31999 0.09997,0.1 -0.345899,0.44105 -0.563333,0.58131 -0.563333,0.36339 z"
         id="path941" />
      <path
         style="fill:#c9757c;stroke-width:0.264779"
         d="m 60.844917,154.00898 c -4.331555,-0.67278 -10.085692,-3.3343 -11.813773,-5.46435 -0.41178,-0.50756 -0.385803,-0.49608 1.418718,0.6265 3.199737,1.99054 7.88422,3.08875 13.175231,3.08875 5.747687,0 10.234467,-1.16832 13.991266,-3.64322 3.279956,-2.16076 5.048188,-4.25564 6.331943,-7.50165 0.63393,-1.60291 0.708002,-2.13592 0.708693,-5.09973 5.3e-4,-2.74377 -0.09922,-3.59007 -0.58398,-4.94916 -0.321613,-0.90169 -0.509773,-1.83482 -0.418133,-2.07363 0.247317,-0.6445 1.53139,1.65611 2.367998,4.24262 0.775465,2.39748 0.948405,6.1251 0.392706,8.46458 -1.344027,5.65833 -6.519263,10.12699 -13.822184,11.93505 -2.021209,0.50041 -9.418997,0.73607 -11.748485,0.37424 z m 0.452223,-11.12374 c -1.038038,-0.51871 -1.812629,-1.12322 -2.160519,-1.68612 -0.780292,-1.26254 -0.66916,-1.43657 0.318208,-0.49831 1.132085,1.07579 2.824828,1.90482 4.302976,2.10743 1.06334,0.14574 1.142851,0.20204 0.728986,0.51619 -0.712181,0.54057 -1.425544,0.44234 -3.189651,-0.43919 z m 5.702713,0.43919 c -0.413865,-0.31415 -0.334355,-0.37045 0.728986,-0.51619 1.478148,-0.20261 3.170891,-1.03164 4.302976,-2.10743 0.987367,-0.93826 1.0985,-0.76423 0.318208,0.49831 -0.34789,0.5629 -1.122481,1.16741 -2.16052,1.68612 -1.764106,0.88153 -2.47747,0.97976 -3.18965,0.43919 z m -2.365292,-1.66489 c 0.191136,-0.0765 0.41951,-0.0671 0.507493,0.0209 0.08798,0.088 -0.0684,0.15056 -0.347521,0.13907 -0.308454,-0.0127 -0.371194,-0.0755 -0.159972,-0.15997 z m 1.853451,0 c 0.191135,-0.0765 0.419507,-0.0671 0.507493,0.0209 0.08798,0.088 -0.0684,0.15056 -0.347522,0.13907 -0.308454,-0.0127 -0.371193,-0.0755 -0.159971,-0.15997 z m 3.657583,-7.3809 -1.025691,-0.5887 1.170268,0.1319 c 0.993256,0.11196 1.298591,0.0239 2.018612,-0.58192 0.466587,-0.39261 0.84834,-0.63583 0.84834,-0.5405 0,0.42358 -0.587848,1.20183 -1.257161,1.66436 -0.721316,0.49847 -0.739042,0.49761 -1.754368,-0.0851 z m -11.042106,-0.36122 c -0.931102,-0.9311 -1.05818,-1.70357 -0.138048,-0.83915 0.357507,0.33586 1.125405,0.66307 1.753952,0.74737 1.087838,0.14591 1.101056,0.15938 0.489391,0.49848 -0.925023,0.51281 -1.24822,0.45038 -2.105295,-0.4067 z m 5.531072,0.5931 c 0.191136,-0.0765 0.41951,-0.0671 0.507493,0.0209 0.08798,0.088 -0.0684,0.15056 -0.347521,0.13906 -0.308454,-0.0127 -0.371194,-0.0754 -0.159972,-0.15996 z m 1.853451,0 c 0.191135,-0.0765 0.419507,-0.0671 0.507493,0.0209 0.08798,0.088 -0.0684,0.15056 -0.347522,0.13906 -0.308454,-0.0127 -0.371193,-0.0754 -0.159971,-0.15996 z m -3.524866,-1.4078 c 0.263585,-0.29126 0.512945,-0.52956 0.554139,-0.52956 0.04119,0 0.05695,0.2383 0.03501,0.52956 -0.02518,0.33409 -0.229706,0.52956 -0.55414,0.52956 -0.497476,0 -0.49862,-0.0173 -0.03501,-0.52956 z m 4.969093,-0.0281 c -0.04037,-0.53591 -0.02195,-0.53947 0.473212,-0.0914 0.634632,0.57433 0.639465,0.64897 0.042,0.64897 -0.291331,0 -0.489353,-0.21432 -0.515214,-0.55762 z"
         id="path939" />
      <path
         style="fill:#a0566a;stroke-width:0.264779"
         d="m 62.301199,133.61665 c 0,-0.15423 0.119151,-0.20677 0.264779,-0.11676 0.145628,0.09 0.264779,0.21618 0.264779,0.2804 0,0.0642 -0.119151,0.11676 -0.264779,0.11676 -0.145628,0 -0.264779,-0.12618 -0.264779,-0.2804 z m 6.487077,0.0156 c 0.09,-0.14563 0.216187,-0.26478 0.280406,-0.26478 0.06422,0 0.116762,0.11915 0.116762,0.26478 0,0.14562 -0.126183,0.26477 -0.280406,0.26477 -0.154223,0 -0.206765,-0.11915 -0.116762,-0.26477 z"
         id="path937" />
      <path
         style="fill:#623750;stroke-width:0.264779"
         d="m 62.953257,142.49138 c -3.212422,-0.92655 -4.824651,-2.58546 -4.544275,-4.67583 0.0757,-0.56436 0.31267,-1.29325 0.526603,-1.61975 0.647701,-0.98852 2.342012,-1.98757 4.15995,-2.4529 5.369611,-1.37446 10.883941,1.60762 9.938488,5.3746 -0.302584,1.20559 -2.153085,2.67522 -4.121272,3.27304 -2.409705,0.73193 -3.696032,0.75369 -5.959494,0.10084 z m 5.713473,-1.07588 c 1.864105,-0.55358 3.431279,-2.05257 3.431279,-3.28199 0,-1.9425 -3.024683,-3.7069 -6.354687,-3.7069 -3.305595,0 -6.354688,1.76556 -6.354688,3.67964 0,2.72312 5.11201,4.54644 9.278096,3.30925 z m -7.074825,-1.47851 c -1.462505,-0.70706 -1.334243,-3.02982 0.202452,-3.66634 2.35795,-0.97669 3.989269,2.62432 1.667992,3.68197 -0.783122,0.35681 -1.105655,0.35412 -1.870444,-0.0156 z m 6.354688,0 c -1.462505,-0.70706 -1.334244,-3.02982 0.202452,-3.66634 2.357949,-0.97669 3.989269,2.62432 1.667992,3.68197 -0.783123,0.35681 -1.105655,0.35412 -1.870444,-0.0156 z"
         id="path935" />
      <path
         style="fill:#44283b;stroke-width:0.264779"
         d="m 64.948986,146.79147 c -2.313273,-1.16346 -0.817067,-4.62365 1.571488,-3.63428 0.905778,0.37519 1.43604,1.57632 1.093562,2.47711 -0.440348,1.1582 -1.633202,1.67614 -2.66505,1.15717 z M 60.646333,133.7217 c 0.182035,-0.0735 0.479911,-0.0735 0.661946,0 0.182036,0.0735 0.0331,0.13355 -0.330973,0.13355 -0.36407,0 -0.513008,-0.0601 -0.330973,-0.13355 z m 9.532031,0 c 0.182035,-0.0735 0.479911,-0.0735 0.661947,0 0.182035,0.0735 0.0331,0.13355 -0.330974,0.13355 -0.36407,0 -0.513008,-0.0601 -0.330973,-0.13355 z"
         id="path933" />
      <path
         style="fill:#050304;stroke-width:0.264779"
         d="m 59.103489,132.85831 c -0.950945,-0.95095 -0.998451,-1.93819 -0.134825,-2.80181 0.75281,-0.75282 1.740413,-1.05019 2.693392,-0.81101 1.016707,0.25518 1.963037,1.32558 1.963037,2.22041 0,2.04531 -2.957853,2.95616 -4.521604,1.39241 z m 9.532031,0 c -0.950944,-0.95095 -0.998451,-1.93819 -0.134825,-2.80181 0.752811,-0.75282 1.740414,-1.05019 2.693392,-0.81101 1.016707,0.25518 1.963037,1.32558 1.963037,2.22041 0,2.04531 -2.957853,2.95616 -4.521604,1.39241 z"
         id="path931" />
    </g>
  </g>
</svg>
