<?xml version="1.0" encoding="UTF-8" standalone="no"?>
<svg
   xmlns:dc="http://purl.org/dc/elements/1.1/"
   xmlns:cc="http://creativecommons.org/ns#"
   xmlns:rdf="http://www.w3.org/1999/02/22-rdf-syntax-ns#"
   xmlns:svg="http://www.w3.org/2000/svg"
   xmlns="http://www.w3.org/2000/svg"
   xmlns:sodipodi="http://sodipodi.sourceforge.net/DTD/sodipodi-0.dtd"
   xmlns:inkscape="http://www.inkscape.org/namespaces/inkscape"
   width="210mm"
   height="297mm"
   viewBox="0 0 210 297"
   version="1.1"
   id="svg8"
   inkscape:version="1.0.2-2 (e86c870879, 2021-01-15)"
   sodipodi:docname="s4.svg">
  <defs
     id="defs2">
    <pattern
       id="EMFhbasepattern"
       patternUnits="userSpaceOnUse"
       width="6"
       height="6"
       x="0"
       y="0" />
    <pattern
       id="EMFhbasepattern-7"
       patternUnits="userSpaceOnUse"
       width="6"
       height="6"
       x="0"
       y="0" />
    <pattern
       id="EMFhbasepattern-3"
       patternUnits="userSpaceOnUse"
       width="6"
       height="6"
       x="0"
       y="0" />
    <pattern
       id="EMFhbasepattern-8"
       patternUnits="userSpaceOnUse"
       width="6"
       height="6"
       x="0"
       y="0" />
    <pattern
       id="EMFhbasepattern-9"
       patternUnits="userSpaceOnUse"
       width="6"
       height="6"
       x="0"
       y="0" />
    <pattern
       id="EMFhbasepattern-31"
       patternUnits="userSpaceOnUse"
       width="6"
       height="6"
       x="0"
       y="0" />
    <pattern
       id="EMFhbasepattern-97"
       patternUnits="userSpaceOnUse"
       width="6"
       height="6"
       x="0"
       y="0" />
    <pattern
       id="EMFhbasepattern-98"
       patternUnits="userSpaceOnUse"
       width="6"
       height="6"
       x="0"
       y="0" />
    <pattern
       id="EMFhbasepattern-8-5"
       patternUnits="userSpaceOnUse"
       width="6"
       height="6"
       x="0"
       y="0" />
    <pattern
       id="EMFhbasepattern-9-1"
       patternUnits="userSpaceOnUse"
       width="6"
       height="6"
       x="0"
       y="0" />
    <pattern
       id="EMFhbasepattern-1"
       patternUnits="userSpaceOnUse"
       width="6"
       height="6"
       x="0"
       y="0" />
    <pattern
       id="EMFhbasepattern-0"
       patternUnits="userSpaceOnUse"
       width="6"
       height="6"
       x="0"
       y="0" />
    <pattern
       id="EMFhbasepattern-8-4"
       patternUnits="userSpaceOnUse"
       width="6"
       height="6"
       x="0"
       y="0" />
    <pattern
       id="EMFhbasepattern-81"
       patternUnits="userSpaceOnUse"
       width="6"
       height="6"
       x="0"
       y="0" />
    <pattern
       id="EMFhbasepattern-8-3"
       patternUnits="userSpaceOnUse"
       width="6"
       height="6"
       x="0"
       y="0" />
    <pattern
       id="EMFhbasepattern-9-9"
       patternUnits="userSpaceOnUse"
       width="6"
       height="6"
       x="0"
       y="0" />
    <pattern
       id="EMFhbasepattern-1-0"
       patternUnits="userSpaceOnUse"
       width="6"
       height="6"
       x="0"
       y="0" />
    <pattern
       id="EMFhbasepattern-3-6"
       patternUnits="userSpaceOnUse"
       width="6"
       height="6"
       x="0"
       y="0" />
    <pattern
       id="EMFhbasepattern-4"
       patternUnits="userSpaceOnUse"
       width="6"
       height="6"
       x="0"
       y="0" />
    <pattern
       id="EMFhbasepattern-89"
       patternUnits="userSpaceOnUse"
       width="6"
       height="6"
       x="0"
       y="0" />
    <pattern
       id="EMFhbasepattern-8-1"
       patternUnits="userSpaceOnUse"
       width="6"
       height="6"
       x="0"
       y="0" />
    <pattern
       id="EMFhbasepattern-9-10"
       patternUnits="userSpaceOnUse"
       width="6"
       height="6"
       x="0"
       y="0" />
    <pattern
       id="EMFhbasepattern-00"
       patternUnits="userSpaceOnUse"
       width="6"
       height="6"
       x="0"
       y="0" />
    <pattern
       id="EMFhbasepattern-8-50"
       patternUnits="userSpaceOnUse"
       width="6"
       height="6"
       x="0"
       y="0" />
    <pattern
       id="EMFhbasepattern-9-2"
       patternUnits="userSpaceOnUse"
       width="6"
       height="6"
       x="0"
       y="0" />
    <pattern
       id="EMFhbasepattern-1-5"
       patternUnits="userSpaceOnUse"
       width="6"
       height="6"
       x="0"
       y="0" />
    <pattern
       id="EMFhbasepattern-3-4"
       patternUnits="userSpaceOnUse"
       width="6"
       height="6"
       x="0"
       y="0" />
    <pattern
       id="EMFhbasepattern-4-2"
       patternUnits="userSpaceOnUse"
       width="6"
       height="6"
       x="0"
       y="0" />
    <pattern
       id="EMFhbasepattern-0-7"
       patternUnits="userSpaceOnUse"
       width="6"
       height="6"
       x="0"
       y="0" />
    <pattern
       id="EMFhbasepattern-88"
       patternUnits="userSpaceOnUse"
       width="6"
       height="6"
       x="0"
       y="0" />
    <pattern
       id="EMFhbasepattern-8-45"
       patternUnits="userSpaceOnUse"
       width="6"
       height="6"
       x="0"
       y="0" />
    <pattern
       id="EMFhbasepattern-9-5"
       patternUnits="userSpaceOnUse"
       width="6"
       height="6"
       x="0"
       y="0" />
    <pattern
       id="EMFhbasepattern-43"
       patternUnits="userSpaceOnUse"
       width="6"
       height="6"
       x="0"
       y="0" />
    <pattern
       id="EMFhbasepattern-8-32"
       patternUnits="userSpaceOnUse"
       width="6"
       height="6"
       x="0"
       y="0" />
    <pattern
       id="EMFhbasepattern-9-8"
       patternUnits="userSpaceOnUse"
       width="6"
       height="6"
       x="0"
       y="0" />
    <pattern
       id="EMFhbasepattern-1-1"
       patternUnits="userSpaceOnUse"
       width="6"
       height="6"
       x="0"
       y="0" />
    <pattern
       id="EMFhbasepattern-3-0"
       patternUnits="userSpaceOnUse"
       width="6"
       height="6"
       x="0"
       y="0" />
  </defs>
  <sodipodi:namedview
     id="base"
     pagecolor="#ffffff"
     bordercolor="#666666"
     borderopacity="1.0"
     inkscape:pageopacity="0.0"
     inkscape:pageshadow="2"
     inkscape:zoom="0.98994949"
     inkscape:cx="407.95419"
     inkscape:cy="383.04576"
     inkscape:document-units="mm"
     inkscape:current-layer="layer2"
     inkscape:document-rotation="0"
     showgrid="false"
     inkscape:window-width="1920"
     inkscape:window-height="1017"
     inkscape:window-x="-8"
     inkscape:window-y="-8"
     inkscape:window-maximized="1" />
  <metadata
     id="metadata5">
    <rdf:RDF>
      <cc:Work
         rdf:about="">
        <dc:format>image/svg+xml</dc:format>
        <dc:type
           rdf:resource="http://purl.org/dc/dcmitype/StillImage" />
        <dc:title></dc:title>
      </cc:Work>
    </rdf:RDF>
  </metadata>
  <g
     inkscape:groupmode="layer"
     id="layer4"
     inkscape:label="Warstwa 3"
     style="display:inline">
    <g
       id="g978"
       transform="translate(-0.23034879,-0.2545802)" />
    <g
       id="g1072"
       transform="translate(-70.292455,-55.7084)"
       style="fill-rule:evenodd">
      <path
         style="fill:#eaebeb;stroke-width:0.264336;fill-rule:evenodd"
         d="m 110.18838,141.03079 c -9.84944,-1.02668 -19.844568,-5.56175 -27.035569,-12.26681 -3.860131,-3.59927 -6.433978,-7.08635 -9.183392,-12.44177 -3.163756,-6.16248 -4.09139,-10.27888 -4.091935,-18.158032 -3.15e-4,-4.562489 0.0818,-5.60169 0.647491,-8.19442 1.429984,-6.554027 3.983089,-11.863668 8.361064,-17.388337 5.571118,-7.030325 13.536197,-12.399627 22.447081,-15.131697 4.15126,-1.272772 6.42519,-1.508753 14.53849,-1.508753 8.42796,0 10.43783,0.22764 15.09089,1.70921 11.18288,3.560711 20.40273,11.002876 25.97807,20.969213 1.68982,3.020679 2.04099,3.814392 3.23643,7.314966 1.42522,4.173445 1.79673,6.716749 1.79673,12.30039 0,7.27317 -0.87952,11.27644 -3.8039,17.31402 -2.58797,5.34302 -5.43137,9.30465 -9.281,12.93091 -10.16968,9.5796 -24.0431,14.07895 -38.70045,12.55111 z"
         id="path1086" />
      <path
         style="fill:#d0f0ef;stroke-width:0.264336;fill-rule:evenodd"
         d="m 110.18838,141.03079 c -11.531663,-1.20203 -23.131708,-7.24215 -30.272282,-15.76271 -2.858431,-3.41085 -3.893179,-4.95745 -5.809161,-8.68274 -1.746812,-3.39637 -3.219436,-7.70217 -3.835123,-11.21351 -0.614167,-3.50268 -0.53704,-11.498668 0.14366,-14.893474 0.988327,-4.929017 2.914694,-9.692997 5.693205,-14.079507 5.598366,-8.838291 14.805059,-15.75455 25.224441,-18.949125 4.15126,-1.272772 6.42519,-1.508753 14.53849,-1.508753 8.42796,0 10.43783,0.22764 15.09089,1.70921 15.83958,5.04344 27.65143,17.992052 30.54694,33.486742 0.63929,3.420978 0.63734,10.784507 -0.004,14.217307 -1.57836,8.45151 -6.36776,17.26323 -12.50975,23.01591 -10.34771,9.69181 -24.13563,14.19001 -38.80755,12.66065 z m -0.67981,-22.96723 c 0.75617,-0.14341 2.09946,-0.55342 2.98509,-0.91114 l 1.61023,-0.6504 1.5453,0.65041 c 0.84992,0.35772 2.40743,0.78397 3.46114,0.94721 3.66467,0.56774 7.81853,-0.7243 10.70501,-3.32974 1.4794,-1.33537 1.95402,-2.2558 0.55707,-1.08034 -1.84116,1.54923 -5.51846,2.88152 -7.8924,2.85942 -2.41319,-0.0225 -5.40947,-0.95836 -7.23352,-2.2594 -0.72654,-0.51821 -1.1873,-0.59605 -3.73643,-0.63122 -3.64953,-0.0503 -4.63315,-0.21144 -6.55379,-1.07337 -1.91924,-0.86131 -3.4405,-2.52156 -3.88649,-4.24158 -0.41925,-1.61688 -0.51722,-3.76165 -0.20044,-4.38773 0.4737,-0.93619 -0.15363,-1.04607 -2.482822,-0.43486 -2.899238,0.76081 -5.877177,0.83033 -8.419851,0.19658 -1.853347,-0.46194 -5.457165,-2.05639 -6.806655,-3.0115 -0.884309,-0.62588 -0.785904,-0.0189 0.37574,2.31747 1.174728,2.36272 3.594504,4.86416 5.703523,5.89601 1.614503,0.7899 3.915631,1.46687 5.002555,1.47169 0.580879,0.003 0.927993,0.33613 1.950606,1.87436 2.949835,4.43718 8.272254,6.75468 13.316134,5.79813 z m 26.43523,-8.49289 c 1.56274,-0.53565 2.8789,-1.33128 4.37434,-2.64428 1.13649,-0.99785 0.91814,-1.28005 -0.99519,-1.28618 -1.52185,-0.005 -2.74178,-0.48655 -3.60613,-1.42383 -0.97999,-1.06269 -1.27841,-0.88956 -1.42213,0.82503 -0.15018,1.79164 -0.65308,4.21906 -1.01367,4.89283 -0.22556,0.42146 -0.16903,0.45673 0.4855,0.30291 0.40743,-0.0957 1.3872,-0.39567 2.17728,-0.66648 z"
         id="path1084" />
      <path
         style="fill:#dddede;stroke-width:0.264336;fill-rule:evenodd"
         d="m 109.9477,140.76646 c -7.04217,-0.74235 -15.286204,-3.79726 -21.226061,-7.86555 -7.940396,-5.43848 -14.17918,-13.60534 -16.870185,-22.08387 -1.470273,-4.63238 -1.819678,-7.04242 -1.824159,-12.58229 -0.0043,-5.268232 0.390408,-7.911387 1.874828,-12.555966 0.736887,-2.305632 2.908978,-6.814098 4.470892,-9.279935 5.486837,-8.662217 14.302307,-15.296927 24.827935,-18.686033 4.93575,-1.589243 6.45322,-1.771845 14.72442,-1.771845 8.44709,0 10.19918,0.237918 15.68675,2.130113 10.9833,3.787203 19.67299,10.911267 25.06411,20.54831 1.68982,3.020679 2.04099,3.814392 3.23643,7.314966 1.42523,4.173445 1.79673,6.716749 1.79673,12.30039 0,5.45358 -0.37216,8.1108 -1.73758,12.4062 -1.48917,4.68469 -3.67418,8.66011 -7.44259,13.54107 -6.82158,8.83551 -18.78996,15.26292 -30.89788,16.59317 -2.9243,0.32128 -8.59318,0.31704 -11.68364,-0.009 z m 0.10851,-22.55639 c 0.945,-0.20316 2.22988,-0.60112 2.85528,-0.88434 l 1.13709,-0.51496 1.58957,0.64205 c 5.22165,2.10912 10.94314,0.98399 14.72385,-2.89545 0.60208,-0.61781 1.54318,-1.76583 2.09133,-2.55116 0.88736,-1.27132 1.15277,-1.46737 2.42078,-1.78817 2.20072,-0.55675 4.34527,-1.84026 6.06207,-3.62813 1.3538,-1.40985 2.9795,-3.93927 2.94337,-4.57958 -0.006,-0.11387 -0.25613,0.26876 -0.5549,0.8503 -0.29878,0.58154 -0.84016,1.49646 -1.20308,2.03316 -0.64432,0.95285 -0.69192,0.97274 -2.02237,0.84496 -2.64846,-0.25435 -3.12026,-0.40403 -4.11977,-1.30704 -0.55414,-0.50063 -1.13124,-0.91024 -1.28243,-0.91024 -0.1512,0 -0.33224,0.68397 -0.40231,1.51994 -0.43771,5.22196 -2.18761,8.07243 -6.18922,10.08183 -1.52089,0.76371 -4.18589,1.43914 -5.62546,1.42574 -2.41319,-0.0225 -5.40947,-0.95836 -7.23352,-2.2594 -0.72654,-0.51821 -1.1873,-0.59605 -3.73643,-0.63122 -3.64953,-0.0503 -4.63315,-0.21144 -6.55379,-1.07337 -1.91924,-0.86131 -3.4405,-2.52156 -3.88649,-4.24158 -0.41925,-1.61688 -0.51722,-3.76165 -0.20044,-4.38773 0.4737,-0.93619 -0.15363,-1.04607 -2.482822,-0.43486 -2.894717,0.75962 -5.875969,0.83001 -8.419851,0.1988 -2.102228,-0.52163 -5.378327,-1.9931 -6.806655,-3.05723 -0.822692,-0.61292 -0.859092,-0.6176 -0.859092,-0.1106 0,0.29119 0.471854,1.47218 1.048564,2.62441 1.927584,3.85119 5.482085,6.53359 9.685909,7.30946 1.766917,0.3261 1.826192,0.36372 2.793705,1.77296 3.336398,4.85966 8.757392,7.12735 14.227112,5.95145 z m 34.27993,-17.91019 c -0.0844,-0.21087 -0.14702,-0.14824 -0.1597,0.1597 -0.0115,0.27865 0.051,0.43478 0.13884,0.34694 0.0878,-0.0878 0.0972,-0.31583 0.0208,-0.50664 z M 82.219766,98.834537 c -0.06702,-0.257192 -0.126263,-0.110765 -0.13165,0.325389 -0.0054,0.436155 0.04945,0.646582 0.121856,0.467619 0.07241,-0.178964 0.07682,-0.535817 0.0098,-0.793008 z m 62.383324,0 c -0.067,-0.257192 -0.12626,-0.110765 -0.13165,0.325389 -0.005,0.436155 0.0495,0.646582 0.12186,0.467619 0.0724,-0.178964 0.0768,-0.535817 0.01,-0.793008 z M 82.219766,94.605159 c -0.06702,-0.257191 -0.126263,-0.110765 -0.13165,0.325389 -0.0054,0.436155 0.04945,0.646582 0.121856,0.467619 0.07241,-0.178963 0.07682,-0.535817 0.0098,-0.793008 z m 62.383324,0 c -0.067,-0.257191 -0.12626,-0.110765 -0.13165,0.325389 -0.005,0.436155 0.0495,0.646582 0.12186,0.467619 0.0724,-0.178963 0.0768,-0.535817 0.01,-0.793008 z M 84.522117,89.435585 c 1.135775,-1.711117 2.585641,-2.996528 4.685534,-4.154061 0.780921,-0.430471 1.300905,-0.783714 1.155521,-0.784983 -0.661097,-0.0058 -3.310916,1.803766 -4.665304,3.185898 -1.475175,1.505389 -2.963806,4.087762 -3.263962,5.662093 -0.08316,0.436154 0.124965,0.07812 0.462491,-0.79562 0.337526,-0.873747 1.0691,-2.274745 1.62572,-3.113327 z m 59.362523,2.630316 c -1.04655,-2.797165 -3.73075,-5.739287 -6.5226,-7.149359 -1.45464,-0.734696 -1.33954,-0.456733 0.15114,0.364982 3.07729,1.696311 5.35323,4.353267 6.30758,7.363545 0.24677,0.778375 0.48698,1.300288 0.53381,1.159809 0.0468,-0.140481 -0.16464,-0.923019 -0.46993,-1.738977 z M 92.274101,84.065232 c -0.08784,-0.08784 -0.315826,-0.09723 -0.506644,-0.02086 -0.210869,0.08438 -0.148233,0.147018 0.159703,0.159701 0.278654,0.01147 0.434778,-0.051 0.346941,-0.138835 z m 42.822449,0 c -0.0878,-0.08784 -0.31583,-0.09723 -0.50664,-0.02086 -0.21087,0.08438 -0.14824,0.147018 0.1597,0.159701 0.27866,0.01147 0.43478,-0.051 0.34694,-0.138835 z M 93.738488,83.787211 c -0.178964,-0.07241 -0.535818,-0.07681 -0.793008,-0.0098 -0.257191,0.06702 -0.110766,0.126263 0.325389,0.13165 0.436154,0.0054 0.646583,-0.04945 0.467619,-0.121856 z m 1.382734,-0.293247 c 0.145385,-0.106813 0.738016,-0.897236 1.316959,-1.756496 3.410364,-5.06162 10.459939,-7.035879 16.145289,-4.521548 1.59381,0.70486 2.23255,0.809663 2.64051,0.433257 0.52651,-0.485779 3.2318,-1.305758 4.8782,-1.478596 4.83257,-0.507321 9.76081,1.883191 12.46583,6.046731 0.55776,0.858504 1.01412,1.446811 1.01412,1.30735 0,-0.506389 -1.61649,-2.785431 -2.77267,-3.909107 -2.18894,-2.127407 -5.14337,-3.459738 -8.31271,-3.748702 -2.07853,-0.189509 -4.15474,0.163136 -6.51147,1.105977 l -1.742,0.696911 -1.54874,-0.695034 c -2.24662,-1.008221 -5.25612,-1.392244 -7.6117,-0.971278 -3.67619,0.656972 -7.554928,3.197263 -9.219944,6.0384 -0.363743,0.620679 -0.857849,1.243223 -1.098016,1.383432 -0.240167,0.140209 -0.317715,0.256723 -0.172331,0.258917 0.145385,0.0021 0.383288,-0.0834 0.528673,-0.190214 z"
         id="path1082" />
      <path
         style="fill:#aff5f4;stroke-width:0.264336;fill-rule:evenodd"
         d="m 109.9477,140.76646 c -7.04217,-0.74235 -15.286204,-3.79726 -21.226061,-7.86555 -7.940396,-5.43848 -14.17918,-13.60534 -16.870185,-22.08387 -1.470273,-4.63238 -1.819678,-7.04242 -1.824159,-12.58229 -0.0043,-5.268232 0.390408,-7.911387 1.874828,-12.555966 0.736887,-2.305632 2.908978,-6.814098 4.470892,-9.279935 5.486837,-8.662217 14.302307,-15.296927 24.827935,-18.686033 4.93575,-1.589243 6.45322,-1.771845 14.72442,-1.771845 8.44709,0 10.19918,0.237918 15.68675,2.130113 10.9833,3.787203 19.67299,10.911267 25.06411,20.54831 1.68982,3.020679 2.04099,3.814392 3.23643,7.314966 1.42523,4.173445 1.79673,6.716749 1.79673,12.30039 0,5.45358 -0.37216,8.1108 -1.73758,12.4062 -1.48917,4.68469 -3.67418,8.66011 -7.44259,13.54107 -6.82158,8.83551 -18.78996,15.26292 -30.89788,16.59317 -2.9243,0.32128 -8.59318,0.31704 -11.68364,-0.009 z m 0.10851,-22.55639 c 0.945,-0.20316 2.22988,-0.60112 2.85528,-0.88434 l 1.13709,-0.51496 1.58957,0.64205 c 5.22165,2.10912 10.94314,0.98399 14.72385,-2.89545 0.60208,-0.61781 1.54318,-1.76583 2.09133,-2.55116 0.88736,-1.27132 1.15277,-1.46737 2.42078,-1.78817 4.35763,-1.10243 8.0269,-4.74734 9.38415,-9.32182 0.61337,-2.067298 0.56367,-5.860704 -0.10514,-8.026066 -1.25881,-4.075555 -4.61975,-7.412749 -8.72477,-8.663132 -1.58131,-0.481666 -1.77445,-0.622895 -2.35915,-1.725074 -0.80879,-1.524575 -2.99569,-3.754692 -4.6092,-4.700267 -3.90002,-2.285567 -8.10242,-2.558047 -12.47472,-0.808851 l -1.742,0.696911 -1.54874,-0.695034 c -5.92687,-2.659818 -13.278694,-0.44641 -16.826318,5.065885 -0.533572,0.829063 -1.127031,1.429566 -1.479763,1.497331 -2.89606,0.556362 -3.814295,0.82285 -5.140958,1.492001 -3.188253,1.60811 -5.683508,4.570266 -6.717493,7.974434 -0.467692,1.539776 -0.539806,2.320276 -0.444481,4.810687 0.105627,2.759505 0.183479,3.119465 1.085485,5.018835 1.906121,4.01374 5.568857,6.86359 9.827384,7.64634 1.810682,0.33282 1.859136,0.36326 2.830702,1.7784 3.336398,4.85966 8.757392,7.12735 14.227112,5.95145 z"
         id="path1080" />
      <path
         style="fill:#88f9f7;stroke-width:0.264336;fill-rule:evenodd"
         d="m 110.71705,140.76645 c -9.22734,-0.96183 -19.171832,-5.28054 -26.326512,-11.43312 -1.997319,-1.71757 -5.600784,-5.8524 -7.302541,-8.37936 -1.603772,-2.38147 -4.28058,-7.90373 -5.096666,-10.51443 -1.376086,-4.40218 -1.700226,-6.771 -1.688137,-12.336958 0.0098,-4.496722 0.08401,-5.326719 0.709322,-7.930084 0.384127,-1.599233 1.042014,-3.918783 1.461971,-5.154554 3.308696,-9.736214 11.550803,-18.958262 21.465982,-24.018168 2.957884,-1.509465 9.325161,-3.797005 11.566351,-4.155386 0.60688,-0.09704 1.04884,-0.264744 0.98214,-0.372668 -0.23585,-0.381615 2.40058,-0.530751 9.38265,-0.530751 6.98206,0 9.6185,0.149136 9.38264,0.530751 -0.0667,0.107924 0.37527,0.275624 0.98214,0.372668 1.92958,0.308552 8.21048,2.484861 10.77827,3.734632 8.05975,3.922761 15.2672,10.686081 19.49519,18.29386 2.08355,3.749112 3.77057,8.296155 4.48654,12.092625 0.62898,3.335173 0.62118,11.238623 -0.0144,14.631403 -1.50841,8.05143 -6.39748,17.04965 -12.19899,22.45199 -10.18728,9.48632 -24.18864,14.16408 -38.06591,12.71755 z m 0.8395,-22.71322 c 2.39921,-0.86486 2.47919,-0.86674 4.71561,-0.11033 2.7322,0.9241 6.21376,0.97733 8.89084,0.13595 3.07782,-0.96733 5.86506,-3.19415 7.53343,-6.01873 0.56482,-0.95625 0.86314,-1.16958 2.15832,-1.54338 4.51997,-1.30453 7.93287,-4.49091 9.47444,-8.84562 0.48618,-1.37338 0.60936,-2.280143 0.61382,-4.518417 0.009,-4.276392 -1.04452,-6.894906 -3.93552,-9.786259 -1.78112,-1.781332 -3.95023,-3.090317 -6.06426,-3.659565 -0.93786,-0.252539 -1.20745,-0.475287 -1.54078,-1.273058 -0.58325,-1.39592 -3.90201,-4.590897 -5.63572,-5.42553 -3.62063,-1.743017 -7.69048,-1.954637 -11.23428,-0.584147 -1.0177,0.393572 -2.02878,0.716781 -2.24686,0.718243 -0.21808,0.0015 -1.16969,-0.325073 -2.11469,-0.725634 -3.39006,-1.436955 -7.71287,-1.173215 -11.41687,0.696557 -1.901278,0.959763 -4.78965,3.703015 -5.375687,5.1056 -0.407514,0.975318 -0.57213,1.054239 -2.798261,1.341532 -2.092831,0.270088 -4.858582,1.797602 -6.836528,3.775785 -2.92266,2.923011 -3.974273,5.526095 -3.965731,9.816476 0.0062,3.103827 0.561633,5.192757 1.974627,7.426117 1.926447,3.04491 5.676503,5.54432 9.232483,6.15343 1.759536,0.3014 1.817229,0.33703 2.650797,1.63713 1.161044,1.81087 3.682732,4.08005 5.54115,4.98629 3.21786,1.56917 7.21632,1.83789 10.37967,0.69756 z"
         id="path1078" />
      <path
         style="fill:#73f6f4;stroke-width:0.264336;fill-rule:evenodd"
         d="m 110.45272,140.50211 c -7.17626,-0.74803 -15.374683,-3.73594 -21.440288,-7.8139 -6.040974,-4.0614 -10.658575,-9.40206 -14.372429,-16.623 -1.736928,-3.37715 -2.931298,-6.8488 -3.633433,-10.56122 -0.542859,-2.87027 -0.624859,-11.774453 -0.124338,-13.501522 l 0.312336,-1.077727 6.500996,-2.581308 c 6.461761,-2.565731 10.961155,-4.194877 11.127114,-4.028919 0.04773,0.04773 -0.574186,0.542016 -1.382041,1.098406 -5.99233,4.127075 -7.81416,11.840458 -4.384463,18.56322 0.752537,1.47509 3.195994,4.0698 4.8047,5.1021 1.372099,0.88047 4.831574,2.10898 5.938888,2.10898 0.48328,0 0.897074,0.37384 1.682366,1.51993 2.870867,4.18988 6.772862,6.26432 11.798552,6.27255 2.24954,0.004 2.96574,-0.10983 4.80718,-0.76189 l 2.16381,-0.76622 1.40473,0.61001 c 1.74558,0.75803 5.97708,1.0267 8.46409,0.53741 3.30729,-0.65067 6.49141,-2.89487 8.68972,-6.1246 0.84599,-1.2429 1.17842,-1.51888 2.01591,-1.67357 3.39541,-0.62717 7.37219,-3.87092 9.06154,-7.39126 1.65924,-3.45761 1.96487,-6.266321 1.0648,-9.785563 -1.20696,-4.719148 -4.63719,-8.434812 -9.18357,-9.947751 -1.79786,-0.59829 -2.34127,-1.037347 -1.28389,-1.037347 1.96589,0 25.27217,4.868355 25.56359,5.339875 0.10754,0.17401 0.32885,1.081928 0.49179,2.017596 1.25724,7.219624 0.92691,14.18422 -0.95961,20.23223 -0.92962,2.98028 -3.15725,7.49522 -5.1542,10.44647 -0.92404,1.36562 -2.05456,3.03627 -2.51226,3.71254 -1.03724,1.53257 -4.88312,5.19532 -7.44523,7.09072 -9.53412,7.05316 -21.77335,10.29994 -34.01636,9.02376 z M 93.865625,82.728191 c 0.181731,-0.07333 0.479109,-0.07333 0.66084,0 0.181731,0.07333 0.03304,0.133328 -0.33042,0.133328 -0.363462,0 -0.512151,-0.06 -0.33042,-0.133328 z"
         id="path1076" />
      <path
         style="fill:#5cf3ef;stroke-width:0.264336;fill-rule:evenodd"
         d="m 110.21204,140.23778 c -9.62817,-1.01494 -19.584796,-5.53907 -26.58944,-12.08181 -1.315488,-1.22874 -1.893583,-1.9398 -1.718184,-2.11338 0.145385,-0.14387 2.405458,-0.86632 5.022386,-1.60544 14.586368,-4.11975 22.389728,-5.27521 36.346218,-5.38188 7.4298,-0.0568 8.33182,-0.0135 11.49862,0.55177 6.33482,1.13076 16.48415,4.02558 16.73319,4.77269 0.067,0.20114 -0.97764,1.42775 -2.38963,2.80574 -10.20441,9.95877 -24.08169,14.6147 -38.90316,13.05231 z"
         id="path1074" />
    </g>
    <g
       id="g900"
       transform="matrix(0.91068908,0,0,0.91068908,-58.847506,-93.594656)">
      <path
         style="fill:#efe09e;stroke-width:0.264779"
         d="m 93.620495,150.34786 c 0.546106,-0.0571 1.439733,-0.0571 1.985839,0 0.546106,0.0571 0.09929,0.10386 -0.992919,0.10386 -1.092212,0 -1.539026,-0.0467 -0.99292,-0.10386 z m -10.814887,-4.63933 -0.5044,-0.59575 0.595751,0.5044 c 0.55986,0.47401 0.716291,0.6871 0.504401,0.6871 -0.05024,0 -0.318332,-0.26809 -0.595752,-0.59575 z m 23.325682,0.0662 c 0.26358,-0.29125 0.53881,-0.52955 0.61163,-0.52955 0.0728,0 -0.0833,0.2383 -0.34686,0.52955 -0.26358,0.29126 -0.53882,0.52956 -0.61163,0.52956 -0.0728,0 0.0833,-0.2383 0.34686,-0.52956 z m 4.30753,-7.4584 c 0.15387,-0.15386 0.43605,-0.22765 0.62707,-0.16398 0.1983,0.0661 0.0783,0.18612 -0.27975,0.27975 -0.44042,0.11517 -0.5438,0.0807 -0.34732,-0.11577 z m -33.763581,-1.94124 c 0.0029,-0.58251 0.05716,-0.78963 0.120495,-0.46027 0.06333,0.32936 0.06093,0.80596 -0.0053,1.05911 -0.06627,0.25315 -0.11809,-0.0163 -0.115152,-0.59884 z m 35.739771,-0.13239 c 0,-0.5097 0.0545,-0.71821 0.12109,-0.46336 0.0666,0.25485 0.0666,0.67188 0,0.92673 -0.0666,0.25485 -0.12109,0.0463 -0.12109,-0.46337 z m -34.196968,-5.97958 c 0.0127,-0.30845 0.07545,-0.37119 0.159971,-0.15997 0.07649,0.19113 0.06708,0.41951 -0.0209,0.50749 -0.08798,0.088 -0.150564,-0.0684 -0.139067,-0.34752 z m 32.567778,-0.26478 c 0.0127,-0.30845 0.0754,-0.37119 0.15996,-0.15997 0.0765,0.19114 0.0671,0.41951 -0.0209,0.50749 -0.088,0.088 -0.15056,-0.0684 -0.13906,-0.34752 z m -4.8207,-11.42961 c -0.32935,-0.41996 -0.31998,-0.42932 0.1,-0.1 0.44106,0.3459 0.58132,0.56333 0.36339,0.56333 -0.055,0 -0.26349,-0.20851 -0.46336,-0.46336 z m -22.604798,-0.33097 c 0.263584,-0.29126 0.538818,-0.52956 0.611632,-0.52956 0.07281,0 -0.08327,0.2383 -0.346853,0.52956 -0.263584,0.29125 -0.538818,0.52955 -0.611632,0.52955 -0.07281,0 0.08327,-0.2383 0.346853,-0.52955 z m 1.588672,-1.58868 c 0.263583,-0.29125 0.538818,-0.52955 0.611632,-0.52955 0.07281,0 -0.08327,0.2383 -0.346853,0.52955 -0.263584,0.29126 -0.538818,0.52956 -0.611632,0.52956 -0.07282,0 0.08327,-0.2383 0.346853,-0.52956 z m 7.761324,-3.62299 c 0.191136,-0.0765 0.419507,-0.0671 0.507493,0.0209 0.08798,0.088 -0.0684,0.15057 -0.347522,0.13907 -0.308454,-0.0127 -0.371193,-0.0754 -0.159971,-0.15997 z m 4.550883,-4.15556 c 0,-0.055 0.208513,-0.26349 0.463363,-0.46336 0.419954,-0.32935 0.42932,-0.31998 0.09997,0.1 -0.345898,0.44105 -0.563332,0.58132 -0.563332,0.36339 z m -1.811645,-0.95914 c 0,-0.36407 0.0601,-0.51301 0.133552,-0.33098 0.07345,0.18204 0.07345,0.47992 0,0.66195 -0.07345,0.18204 -0.133552,0.0331 -0.133552,-0.33097 z m -1.080016,-0.68401 c 0.01271,-0.30846 0.07545,-0.3712 0.159969,-0.15997 0.07649,0.19113 0.06708,0.41951 -0.02089,0.50749 -0.08798,0.088 -0.150564,-0.0684 -0.139067,-0.34752 z"
         id="path914" />
      <path
         style="fill:#ebd162;stroke-width:0.264779"
         d="m 104.79074,117.37721 -0.77768,-0.86053 0.86053,0.77768 c 0.80213,0.72491 0.98223,0.94339 0.77768,0.94339 -0.0456,0 -0.43281,-0.38724 -0.86053,-0.86054 z m -11.368829,-4.43504 c 0.09,-0.14563 0.216186,-0.26478 0.280405,-0.26478 0.06422,0 0.116763,0.11915 0.116763,0.26478 0,0.14563 -0.126183,0.26478 -0.280406,0.26478 -0.154223,0 -0.206766,-0.11915 -0.116762,-0.26478 z m 0.947629,-1.21357 c 0.01271,-0.30845 0.07545,-0.37119 0.159969,-0.15997 0.07649,0.19114 0.06708,0.41951 -0.02089,0.5075 -0.08798,0.088 -0.150564,-0.0684 -0.139067,-0.34753 z m -1.894396,-1.89758 -0.641905,-0.72814 0.728141,0.64191 c 0.680558,0.59996 0.849566,0.81437 0.641906,0.81437 -0.04743,0 -0.375091,-0.32766 -0.728142,-0.72814 z m 1.894396,-1.80932 c 0.01271,-0.30845 0.07545,-0.37119 0.159969,-0.15997 0.07649,0.19114 0.06708,0.41951 -0.02089,0.50749 -0.08798,0.088 -0.150564,-0.0684 -0.139067,-0.34752 z"
         id="path912" />
      <path
         style="fill:#eac629;stroke-width:0.264779"
         d="m 88.258727,147.74042 c -2.045165,-0.53712 -5.078355,-2.07257 -6.042675,-3.0589 -0.933158,-0.95446 -2.487003,-3.80538 -2.975908,-5.46007 -0.240623,-0.81438 -0.47204,-1.12531 -0.837545,-1.12531 -1.753675,0 -1.968127,-1.45748 -0.759703,-5.16318 0.427403,-1.31065 0.970692,-3.4379 1.207308,-4.72721 1.315154,-7.16623 5.936766,-12.76055 12.038172,-14.57186 0.790981,-0.23482 1.773972,-0.42694 2.184424,-0.42694 0.410455,0 0.746279,-0.0723 0.746279,-0.16068 0,-0.36203 -2.218589,-2.91301 -3.044547,-3.50069 -0.527214,-0.37512 -0.831061,-0.78214 -0.747139,-1.00083 0.250952,-0.65398 0.662044,-0.4043 2.575189,1.56405 l 1.878443,1.93265 0.03324,-2.74699 c 0.03043,-2.51453 0.311714,-3.64178 0.789515,-3.16398 0.0933,0.0933 0.149444,1.396 0.124766,2.89491 l -0.04486,2.72528 0.769063,-1.19151 c 0.422984,-0.65532 1.090001,-1.48625 1.482262,-1.84651 0.599957,-0.551 0.752041,-0.59304 0.957821,-0.26478 0.178284,0.28441 0.02969,0.59246 -0.547948,1.13595 -0.703279,0.6617 -2.276318,3.31412 -2.059179,3.47213 0.0462,0.0336 0.752986,0.20543 1.570638,0.38181 2.262682,0.48809 5.103807,1.9658 6.457497,3.35864 3.35855,3.4557 5.47911,11.12007 4.64846,16.80095 -0.62342,4.26362 -2.11506,7.41829 -4.76682,10.08137 -1.90439,1.91253 -4.514537,3.37346 -7.285657,4.07786 -1.985347,0.50467 -6.400486,0.49613 -8.351092,-0.0162 z m 8.027318,-6.71297 c 0.516954,-0.57221 1.06633,-1.49562 1.220839,-2.05203 0.382393,-1.37709 0.356744,-3.40473 -0.0471,-3.72333 -0.182035,-0.14361 -1.462902,-0.26111 -2.84637,-0.26111 -1.383469,0 -2.664336,0.1175 -2.846371,0.26111 -0.403843,0.3186 -0.429492,2.34624 -0.0471,3.72333 0.394192,1.41956 1.959415,3.0924 2.89347,3.0924 0.516641,0 1.009892,-0.3068 1.67263,-1.04037 z m -4.403677,-7.74348 c 0.767197,-0.72074 0.871567,-2.93596 0.174611,-3.70609 -0.554004,-0.61217 -2.130104,-0.63821 -2.784483,-0.046 -0.706443,0.63932 -0.67736,3.07554 0.04535,3.79825 0.693166,0.69316 1.798734,0.67327 2.564526,-0.0462 z m 7.94336,0 c 0.767192,-0.72074 0.871562,-2.93596 0.174612,-3.70609 -0.554006,-0.61217 -2.130106,-0.63821 -2.784485,-0.046 -0.706443,0.63932 -0.677359,3.07554 0.04535,3.79825 0.693167,0.69316 1.798734,0.67327 2.564527,-0.0462 z m 9.588252,4.20588 c -0.49483,-0.33347 -0.88906,-0.69891 -0.87607,-0.81209 0.013,-0.11319 0.54081,-1.44634 1.17294,-2.96257 l 1.14931,-2.75678 0.74671,2.15491 c 0.89819,2.59206 0.98366,4.30783 0.23456,4.70873 -0.78633,0.42083 -1.44346,0.3309 -2.42745,-0.3322 z"
         id="path910" />
      <path
         style="fill:#cdae25;stroke-width:0.264779"
         d="m 91.502265,148.22963 c 0.546106,-0.0571 1.439734,-0.0571 1.98584,0 0.546106,0.0571 0.09929,0.10386 -0.99292,0.10386 -1.092212,0 -1.539026,-0.0467 -0.99292,-0.10386 z m -2.498848,-0.25277 c 0.191136,-0.0765 0.419507,-0.0671 0.507493,0.0209 0.08798,0.088 -0.0684,0.15056 -0.347522,0.13907 -0.308454,-0.0127 -0.371193,-0.0754 -0.159971,-0.15997 z m 6.619466,0 c 0.191136,-0.0765 0.419507,-0.0671 0.507493,0.0209 0.08798,0.088 -0.0684,0.15056 -0.347522,0.13907 -0.308453,-0.0127 -0.371193,-0.0754 -0.159971,-0.15997 z m -11.721696,-1.3895 c -0.08378,-0.13557 -0.0511,-0.30905 0.07263,-0.38552 0.123732,-0.0765 0.224968,0.0344 0.224968,0.24648 0,0.44646 -0.08349,0.48547 -0.297601,0.13904 z m 22.627263,-1.44216 c 0,-0.055 0.20852,-0.2635 0.46337,-0.46337 0.41995,-0.32935 0.42932,-0.31998 0.1,0.1 -0.3459,0.44106 -0.56334,0.58132 -0.56334,0.3634 z m -2.64778,-1.35632 c 0.34202,-0.36407 0.68144,-0.66194 0.75425,-0.66194 0.0728,0 -0.14745,0.29787 -0.48947,0.66194 -0.34203,0.36408 -0.68145,0.66195 -0.75426,0.66195 -0.0728,0 0.14745,-0.29787 0.48948,-0.66195 z M 93.7276,141.86924 c -0.0675,-0.10922 0.331114,-0.19858 0.885815,-0.19858 0.5547,0 0.953316,0.0894 0.885814,0.19858 -0.0675,0.10922 -0.466119,0.19858 -0.885814,0.19858 -0.419696,0 -0.818312,-0.0894 -0.885815,-0.19858 z m 14.88531,-4.76602 c -0.32935,-0.41995 -0.31999,-0.42932 0.1,-0.1 0.25485,0.19987 0.46336,0.40839 0.46336,0.46337 0,0.21792 -0.21743,0.0777 -0.56333,-0.3634 z m -0.49578,-0.87615 c 0,-0.15423 0.11915,-0.20677 0.26477,-0.11677 0.14563,0.09 0.26478,0.21619 0.26478,0.28041 0,0.0642 -0.11915,0.11676 -0.26478,0.11676 -0.14562,0 -0.26477,-0.12618 -0.26477,-0.2804 z m 0.28568,-1.19794 c 0.0127,-0.30846 0.0754,-0.3712 0.15997,-0.15998 0.0765,0.19114 0.0671,0.41951 -0.0209,0.5075 -0.088,0.088 -0.15057,-0.0684 -0.13907,-0.34752 z m 0.28568,-1.699 c 0,-0.36407 0.0601,-0.51301 0.13355,-0.33098 0.0734,0.18204 0.0734,0.47992 0,0.66195 -0.0735,0.18204 -0.13355,0.0331 -0.13355,-0.33097 z m 0,-5.29557 c 0,-0.36408 0.0601,-0.51301 0.13355,-0.33098 0.0734,0.18204 0.0734,0.47991 0,0.66195 -0.0735,0.18203 -0.13355,0.0331 -0.13355,-0.33097 z"
         id="path908" />
      <path
         style="fill:#e67b21;stroke-width:0.264779"
         d="m 93.155342,140.28057 c -1.416695,-1.40167 -2.263524,-4.45753 -1.388298,-5.00981 0.468584,-0.29568 5.293778,-0.29783 5.692741,-0.003 0.856209,0.63373 0.105014,3.40443 -1.323059,4.87995 -1.044457,1.07917 -1.982366,1.12082 -2.981384,0.13239 z"
         id="path906" />
      <path
         style="fill:#bb9e20;stroke-width:0.264779"
         d="m 91.171292,149.98533 c -2.420943,-0.47264 -5.43197,-1.98174 -7.546191,-3.78208 -0.703978,-0.59946 -0.59856,-0.5745 0.926725,0.21945 2.784367,1.44933 4.498184,1.84805 7.943359,1.84805 3.475591,0 5.161039,-0.39917 8.031445,-1.90213 3.12486,-1.63619 6.01258,-5.00816 7.20766,-8.41632 l 0.46825,-1.33534 0.56861,0.541 c 0.31273,0.29756 0.78781,0.66552 1.05572,0.8177 0.46457,0.26387 0.46678,0.3379 0.0477,1.59968 -1.74461,5.25252 -6.54391,9.40717 -12.053737,10.43466 -1.686989,0.31459 -4.974205,0.30239 -6.649521,-0.0247 z m 2.337397,-8.45675 c -0.517483,-0.30196 -1.399005,-1.68956 -1.675945,-2.6381 -0.143672,-0.49209 -0.0068,-0.39129 0.533375,0.39284 0.916801,1.33084 1.411461,1.70638 2.261549,1.71697 0.664247,0.008 1.920074,-1.07004 2.61131,-2.2422 0.286006,-0.48499 0.29754,-0.47385 0.137065,0.13239 -0.256282,0.96817 -1.147646,2.35029 -1.709773,2.65114 -0.614864,0.32906 -1.581301,0.32322 -2.157581,-0.0131 z m 15.059671,-6.35494 c 0.4046,-2.2688 0.23593,-8.18548 -0.29031,-10.18404 -0.51959,-1.97329 -1.87935,-5.14153 -2.81393,-6.55647 -0.49284,-0.74615 -0.44076,-0.71999 0.4016,0.20178 2.19536,2.40232 4.02691,6.43038 4.63518,10.19398 l 0.32096,1.98584 -1.11348,2.64779 c -0.61241,1.45628 -1.16685,2.70289 -1.2321,2.77023 -0.0652,0.0673 -0.0238,-0.40925 0.0921,-1.05911 z m -18.658616,-1.59088 c -0.329782,-0.13113 -0.717021,-0.54725 -0.860531,-0.92471 -0.361913,-0.95189 -0.335001,-0.99067 0.268629,-0.38704 0.692965,0.69297 1.967278,0.68051 2.673925,-0.0261 l 0.555696,-0.5557 -0.186944,0.62189 c -0.352796,1.17361 -1.370018,1.70144 -2.450775,1.2717 z m 7.943359,0 c -0.329782,-0.13113 -0.717021,-0.54725 -0.860531,-0.92471 -0.361912,-0.95189 -0.335,-0.99067 0.268629,-0.38704 0.692965,0.69297 1.967279,0.68051 2.673925,-0.0261 l 0.555694,-0.5557 -0.18694,0.62189 c -0.352798,1.17361 -1.370019,1.70144 -2.450777,1.2717 z"
         id="path904" />
      <path
         style="fill:#070501;stroke-width:0.264779"
         d="m 89.317842,132.27101 c -0.294199,-0.29419 -0.529558,-0.88259 -0.529558,-1.32389 0,-0.4413 0.235359,-1.02969 0.529558,-1.32389 1.146009,-1.14601 3.177343,-0.29962 3.177343,1.32389 0,1.01921 -0.834243,1.85345 -1.85345,1.85345 -0.441299,0 -1.029695,-0.23536 -1.323893,-0.52956 z m 7.943359,0 c -0.294198,-0.29419 -0.529557,-0.88259 -0.529557,-1.32389 0,-0.4413 0.235359,-1.02969 0.529557,-1.32389 0.294198,-0.2942 0.882595,-0.52956 1.323893,-0.52956 0.441299,0 1.029695,0.23536 1.323893,0.52956 0.294203,0.2942 0.529553,0.88259 0.529553,1.32389 0,0.4413 -0.23535,1.0297 -0.529553,1.32389 -0.294198,0.2942 -0.882594,0.52956 -1.323893,0.52956 -0.441298,0 -1.029695,-0.23536 -1.323893,-0.52956 z"
         id="path902" />
    </g>
    <path
       style="fill:#0066ff;stroke-width:0.1002"
       d="m 48.259153,81.163802 c -1.946716,-0.249165 -4.321219,-1.197222 -5.811644,-2.320416 -4.705137,-3.545799 -6.25854,-9.849651 -3.713084,-15.068036 1.453308,-2.979395 3.88949,-5.154812 6.992166,-6.243733 2.566313,-0.900676 5.521308,-0.88563 8.093704,0.04125 3.074205,1.107675 5.780854,3.64596 7.068979,6.629291 1.862063,4.312565 1.066201,9.399888 -2.009832,12.847257 -2.348768,2.632314 -5.321589,4.036316 -8.816675,4.163935 -0.606215,0.02215 -1.417842,-2.07e-4 -1.803614,-0.04956 z m 3.657328,-3.006814 c 1.125991,-0.269572 2.709005,-1.051283 3.631119,-1.793083 3.026485,-2.434681 4.261936,-6.412322 3.121549,-10.050062 -1.017763,-3.246563 -3.627525,-5.650354 -7.003171,-6.450453 -0.987543,-0.234072 -2.878763,-0.234833 -3.896925,-0.002 -2.896965,0.663697 -5.190557,2.472596 -6.475792,5.107304 -0.749398,1.536241 -0.928729,2.322513 -0.928729,4.071955 0,1.162275 0.04202,1.607727 0.210068,2.226862 0.803912,2.961867 2.784428,5.258643 5.530235,6.413332 1.061036,0.446193 1.168973,0.478291 2.154318,0.64059 1.024906,0.168807 2.550878,0.100013 3.657328,-0.16488 z m -7.775955,-7.856326 c -0.381605,-0.166117 -0.702971,-0.600015 -0.786981,-1.062569 -0.08856,-0.48757 0.280596,-1.191189 0.747276,-1.42432 0.320464,-0.160083 0.80297,-0.175207 5.596099,-0.175345 5.80494,-2.08e-4 5.742577,-0.0069 6.138847,0.643122 0.245287,0.402255 0.245287,1.116805 0,1.51906 -0.39658,0.650333 -0.33286,0.643696 -6.138847,0.639354 -4.1786,-0.0029 -5.308645,-0.03146 -5.556394,-0.139302 z"
       id="path883" />
  </g>
  <g
     inkscape:groupmode="layer"
     id="layer2"
     inkscape:label="Warstwa 2">
    <g
       id="g256"
       transform="matrix(0.29666898,0,0,0.29666147,36.573988,-0.7125708)">
      <path
         style="fill:#afe9dd;stroke-width:0.264562"
         d="m 81.199477,105.73097 c 0.294368,-0.50928 4.319615,-7.812622 8.944993,-16.229646 7.51207,-13.670079 8.383412,-15.37865 8.16279,-16.006031 l -0.246985,-0.70235 -19.372851,-0.06786 -19.372851,-0.06786 V 66.30944 59.961657 h 28.705032 28.705035 l -0.008,3.373172 -0.008,3.373172 -17.464586,19.445344 C 89.639227,96.848288 81.529085,105.8368 81.222216,106.12782 l -0.557943,0.52912 0.535215,-0.92597 z"
         id="path270" />
      <path
         style="fill:#c597b3;stroke-width:0.264562"
         d="m 60.169531,140.19299 c 0.06717,-0.40167 8.16043,-15.31431 17.985022,-33.1392 L 96.017446,74.64488 76.806181,74.512599 57.594917,74.380318 57.524954,66.245021 57.45499,58.109724 h 30.560792 30.560788 l -0.002,8.532141 -0.002,8.53214 -17.43786,32.805755 -17.437858,32.80575 -11.824529,0.0689 -11.824528,0.0689 0.12213,-0.73029 z m 40.086089,-32.8599 17.2627,-32.513318 V 66.993873 59.167974 H 88.019605 58.520886 v 7.143187 7.143188 h 19.476186 19.476184 l -0.118137,0.618007 c -0.06498,0.339905 -8.038941,15.013203 -17.719921,32.607324 -9.680979,17.59413 -17.741497,32.25719 -17.912262,32.58459 l -0.31048,0.59527 10.790232,-0.007 10.790229,-0.007 17.262703,-32.51331 z"
         id="path268" />
      <path
         style="fill:#00d4aa;stroke-width:0.264562"
         d="m 63.103286,138.60286 c 0.06383,-0.10913 4.002113,-7.2592 8.751733,-15.88903 l 8.635671,-15.69062 18.050833,-20.108355 18.050827,-20.108356 0.0736,3.758894 0.0736,3.75889 -17.13095,32.238497 -17.130945,32.23851 h -9.745258 c -5.359891,0 -9.693028,-0.0893 -9.629191,-0.19843 z"
         id="path266" />
      <path
         style="fill:#99ff55;stroke-width:0.264562"
         d="M 80.215011,151.91122 C 73.221468,151.07855 66.064314,148.94941 59.65719,145.79558 56.384144,144.18446 56.014474,143.922 53.80007,141.63703 44.35586,131.89187 38.971024,121.35877 36.796343,108.3766 36.009294,103.67816 35.951159,95.769889 36.669929,91.180036 38.736396,77.984175 44.394371,66.693774 53.474105,57.647565 64.164711,46.996433 77.949594,41.011293 93.046292,40.466059 c 5.022365,-0.181389 8.931658,0.155547 14.189068,1.222932 3.98068,0.80818 10.05325,2.798533 12.8549,4.213345 0.90529,0.45716 1.83448,0.8312 2.06488,0.8312 1.18862,0 6.89614,5.171978 10.07253,9.127407 6.89009,8.579957 10.97229,17.974617 12.70291,29.234156 0.6884,4.478794 0.62509,12.486818 -0.13492,17.064281 -2.15388,12.97276 -7.56552,23.58207 -16.67588,32.69243 -9.13217,9.13217 -19.93558,14.64221 -32.692425,16.67406 -4.234603,0.67447 -11.284231,0.85305 -15.212344,0.38535 z m 4.011942,-10.53045 c 0.225058,-0.18189 8.283899,-15.16459 17.908537,-33.2949 l 17.49933,-32.964201 v -8.505972 c 0,-8.153224 -0.0219,-8.527916 -0.52912,-9.035098 -0.52302,-0.523014 -0.88188,-0.529125 -31.067198,-0.529125 -27.409132,0 -30.580668,0.0426 -30.953812,0.415741 -0.360477,0.360475 -0.415742,1.5316 -0.415742,8.809932 0,6.176063 0.08389,8.47808 0.317475,8.711664 0.240903,0.240903 4.803281,0.317475 18.916219,0.317475 10.229309,0 18.598744,0.04017 18.598744,0.08926 0,0.04909 -7.976559,14.580513 -17.725687,32.292044 -9.749129,17.71154 -17.725688,32.42546 -17.725688,32.6976 0,0.27214 0.187083,0.68189 0.415741,0.91054 0.365692,0.3657 1.856504,0.41574 12.383872,0.41574 9.17989,0 12.063463,-0.077 12.377329,-0.3307 z"
         id="path264" />
      <path
         style="fill:#44aa00;stroke-width:0.264562"
         d="m 53.283538,142.09543 c -2.051468,-1.38154 -4.84024,-4.10085 -7.583773,-7.39486 C 38.72273,126.32361 34.511625,117.26744 32.536504,106.39238 31.74742,102.04767 31.682537,92.025266 32.414899,87.608443 34.535688,74.818124 40.11631,63.836896 49.020692,54.932515 65.536007,38.417201 89.708635,33.183937 111.69795,41.363175 c 3.84439,1.429975 11.42521,5.34975 10.37653,5.365335 -0.18603,0.0028 -1.07893,-0.369014 -1.98422,-0.826174 -2.80165,-1.414812 -8.87422,-3.405165 -12.8549,-4.213345 -5.25741,-1.067385 -9.166703,-1.404321 -14.189068,-1.222932 -15.096698,0.545234 -28.881581,6.530374 -39.572187,17.181506 -9.079734,9.046209 -14.737709,20.33661 -16.804176,33.532471 -0.71877,4.589853 -0.660635,12.498124 0.126414,17.196564 2.127179,12.6986 7.600966,23.57807 16.40572,32.60733 1.099657,1.12769 1.881529,2.05036 1.737491,2.05036 -0.144039,0 -0.889245,-0.42249 -1.656016,-0.93886 z"
         id="path262" />
      <path
         style="fill:#002b11;stroke-width:0.264562"
         d="m 59.465752,141.29573 c -0.228658,-0.22865 -0.415741,-0.6384 -0.415741,-0.91054 0,-0.27214 7.976559,-14.98606 17.725688,-32.6976 9.749128,-17.711535 17.725687,-32.242958 17.725687,-32.292048 0,-0.04909 -8.369435,-0.08926 -18.598744,-0.08926 -14.112938,0 -18.675316,-0.07657 -18.916219,-0.317475 -0.233584,-0.233584 -0.317475,-2.535601 -0.317475,-8.711664 0,-7.278332 0.05526,-8.449457 0.415742,-8.809932 0.373144,-0.373144 3.54468,-0.415741 30.953812,-0.415741 30.185318,0 30.544178,0.0061 31.067198,0.529125 0.50718,0.507182 0.52912,0.881874 0.52912,9.035098 v 8.505972 l -17.49933,32.964205 c -9.624638,18.13031 -17.683479,33.11301 -17.908537,33.2949 -0.313866,0.25366 -3.197439,0.3307 -12.377329,0.3307 -10.527368,0 -12.01818,-0.05 -12.383872,-0.41574 z m 41.668568,-33.31597 17.43786,-32.805755 0.002,-8.53214 0.002,-8.532141 H 88.015782 57.45499 l 0.06996,8.135297 0.06996,8.135297 19.211264,0.132281 19.211265,0.132281 -17.862893,32.40891 c -9.824592,17.82489 -17.917852,32.73753 -17.985022,33.1392 l -0.12213,0.73029 11.824528,-0.0689 11.824529,-0.0689 z m -39.411384,31.28451 c 0.09972,-0.19119 2.889844,-5.27083 7.121986,-12.96797 3.01527,-5.48398 6.762526,-12.29662 10.790276,-19.61662 9.680975,-17.594124 17.654944,-32.267419 17.719921,-32.607324 l 0.118137,-0.618007 H 77.997072 58.520886 v -7.143188 -7.143187 h 29.498719 29.498715 v 7.825899 7.825899 l -17.2627,32.513318 -17.262703,32.51331 -10.790229,0.007 -10.790232,0.007 0.31048,-0.59527 z M 99.601185,106.57689 116.72464,74.352499 v -7.19542 -7.195418 H 88.019605 59.314573 v 6.347783 6.347783 l 19.372851,0.06786 19.372851,0.06786 0.247049,0.702535 c 0.221791,0.630704 -1.500096,3.876679 -16.841049,31.747498 -9.398453,17.07473 -17.404215,31.61047 -17.790579,32.30163 l -0.702485,1.25668 h 9.752261 9.752263 z m -49.439154,33.21651 -0.503989,-0.59527 0.595266,0.50399 c 0.559401,0.47362 0.715705,0.68654 0.503989,0.68654 -0.0502,0 -0.318073,-0.26787 -0.595266,-0.59526 z M 123.3387,47.239023 c -0.56981,-0.466074 -0.58101,-0.501702 -0.0809,-0.257257 0.3193,0.156057 0.65372,0.402154 0.74316,0.546881 0.23879,0.386366 0.0784,0.316235 -0.66228,-0.289624 z"
         id="path260"
         sodipodi:nodetypes="csssssssssscssscccccccccccsscccccssscccccccccccccccccccccccccsssccccscssscsscc" />
      <path
         style="fill:#338000;stroke-width:0.264562"
         d="M 46.204569,136.35408 C 36.214546,126.82568 30.381028,115.86802 28.070787,102.29166 27.22646,97.329892 27.218365,89.218118 28.052702,84.16913 30.34407,70.30292 36.709214,58.521412 46.878278,49.324094 55.411311,41.60647 65.576527,36.775818 77.437105,34.802117 c 4.459568,-0.742111 12.541093,-0.818519 16.959102,-0.160343 9.557623,1.423854 17.401793,4.456519 25.317313,9.788022 3.2043,2.158259 4.07005,3.092212 1.32577,1.430207 C 109.63226,38.951622 95.252818,36.161948 81.867265,38.260458 69.141552,40.255522 58.086361,45.866845 49.020692,54.932515 40.11631,63.836896 34.535688,74.818124 32.414899,87.608443 c -0.732362,4.416823 -0.667479,14.439227 0.121605,18.783937 2.206164,12.14719 7.586158,22.77398 15.905277,31.4168 2.540897,2.63976 1.016549,1.64832 -2.237212,-1.4551 z"
         id="path258" />
    </g>
    <g
       id="g198"
       transform="matrix(0.24609244,0,0,0.24577538,-2.5544443,37.317457)">
      <path
         style="fill:#a5a0f7;stroke-width:0.264562"
         d="m 99.749682,146.77806 c -9.270267,-1.05634 -20.755999,-5.12015 -25.143017,-8.89593 -1.02164,-0.8793 -3.103511,-3.05906 -4.626383,-4.8439 C 62.569568,124.35266 58.221614,115.1704 56.197413,103.93075 55.391352,99.454992 55.320423,90.044922 56.057822,85.411377 58.076066,72.729473 63.792616,61.473183 72.778379,52.487418 83.344072,41.921726 96.969503,35.96457 112.21044,35.247383 c 9.19452,-0.432663 19.78277,1.861239 28.75482,6.22962 3.04957,1.484799 3.41552,1.750887 6.28086,4.566847 9.37971,9.218085 15.32623,21.308366 17.07344,34.713185 0.5436,4.170552 0.40318,12.633502 -0.27476,16.559654 -2.20472,12.768271 -7.63229,23.379381 -16.50413,32.266251 -9.06549,9.08083 -19.85098,14.63788 -32.44636,16.71745 -3.64902,0.60248 -11.97485,0.86166 -15.344628,0.47767 z m 13.095848,-13.07523 c 4.90447,-0.52508 8.2518,-1.42512 11.89774,-3.19911 4.6883,-2.28116 7.3824,-4.31641 10.21504,-7.71687 1.50203,-1.80314 3.89356,-5.80117 4.55343,-7.61219 0.70569,-1.9368 1.61074,-6.05102 1.90197,-8.64614 0.67752,-6.03718 -0.67209,-13.374174 -3.22742,-17.545549 -2.43274,-3.971255 -5.15292,-6.508494 -9.19391,-8.575606 -5.34802,-2.735693 -10.73753,-3.813102 -18.9909,-3.796432 l -5.35739,0.01082 v -5.26172 -5.26172 h 16.74085 c 14.72359,0 16.81171,-0.04963 17.32884,-0.411844 0.58662,-0.410881 0.588,-0.431501 0.588,-8.809931 0,-6.179096 -0.0839,-8.481972 -0.31748,-8.715562 -0.46067,-0.460669 -55.785317,-0.460669 -56.245986,0 -0.24221,0.242209 -0.317475,5.947648 -0.317475,24.06588 0,23.208581 0.01164,23.754628 0.511732,24.022275 0.836198,0.447518 2.362403,0.319888 6.391227,-0.534477 5.811494,-1.232401 10.904522,-1.66617 15.301162,-1.303187 4.1709,0.344349 6.44834,0.843711 8.49611,1.862906 3.7975,1.890053 5.45868,5.312207 4.76448,9.815197 -0.91152,5.91261 -4.95069,8.66592 -13.39446,9.13033 -3.63163,0.19974 -6.29998,-0.16816 -10.234836,-1.41113 -3.456295,-1.09179 -6.317607,-2.34369 -9.409078,-4.1167 -1.943215,-1.11447 -2.386777,-1.26376 -3.755013,-1.26376 -2.470857,0 -2.3752,-0.41673 -2.3752,10.3475 0,8.34405 0.04177,9.22227 0.462985,9.73418 0.946742,1.15057 10.016035,3.85113 15.675328,4.66763 6.291664,0.90773 12.676354,1.09413 17.990254,0.52521 z"
         id="path212" />
      <path
         style="fill:#9dd3ae;stroke-width:0.264562"
         d="m 81.627151,118.63731 v -7.25214 l 3.817507,1.89474 c 2.099629,1.04211 3.825899,1.9799 3.836156,2.08398 0.02105,0.21359 -7.367446,10.52555 -7.541533,10.52555 -0.06167,0 -0.11213,-3.26346 -0.11213,-7.25213 z M 85.066463,72.050971 V 50.489127 h 25.561687 25.56168 l -0.64207,0.859828 c -0.35314,0.472906 -2.41438,3.330181 -4.58054,6.3495 l -3.93847,5.489672 h -12.23169 c -10.76695,0 -12.28146,0.04978 -12.64742,0.415741 -0.35805,0.358049 -0.41574,1.438488 -0.41574,7.785697 0,6.453901 0.0535,7.423457 0.43043,7.800384 0.37921,0.379211 1.03243,0.411458 5.48967,0.271007 2.78259,-0.08768 5.602,-0.06453 6.26537,0.05145 l 1.20612,0.210875 -4.27452,5.922396 -4.27454,5.922395 -4.33934,-0.04406 c -4.789752,-0.04863 -9.134644,0.39941 -13.932157,1.436665 -1.658931,0.358672 -3.066239,0.65213 -3.127353,0.65213 -0.06111,0 -0.111117,-9.702829 -0.111117,-21.561843 z"
         id="path210" />
      <path
         style="fill:#80cecf;stroke-width:0.264562"
         d="m 98.42687,132.74753 c -5.281737,-0.5374 -11.930703,-2.09219 -16.574052,-3.87566 l -1.945323,-0.74718 v -9.3852 -9.38521 l 1.094796,-0.0799 c 0.917358,-0.067 1.512835,0.1556 3.674117,1.37319 7.381723,4.15858 15.004795,6.13514 21.029502,5.45265 6.18565,-0.70072 9.21237,-2.10507 11.40304,-5.29084 1.38975,-2.02104 1.91851,-4.13079 1.76828,-7.05537 -0.15918,-3.09841 -0.846,-4.665355 -2.86376,-6.533439 -2.5954,-2.402886 -6.34435,-3.521842 -12.71673,-3.795583 -4.242733,-0.182257 -8.042845,0.172524 -13.53838,1.263948 -2.148509,0.426699 -4.500454,0.775816 -5.226546,0.775816 H 83.21165 l 0.06758,-23.347641 0.06758,-23.34764 h 27.5145 27.5145 v 8.069156 8.069156 l -17.39499,0.06804 -17.39498,0.06804 1.4e-4,6.281457 1.4e-4,6.281457 6.28322,0.0057 c 8.83332,0.008 13.10793,0.818972 18.45309,3.500837 6.80688,3.415258 10.59028,8.77389 11.9256,16.890852 0.61792,3.756124 0.4005,9.033334 -0.53847,13.069774 -1.89667,8.15334 -7.29918,14.81269 -14.95872,18.4387 -5.77687,2.73476 -8.70325,3.30525 -17.46113,3.40404 -3.56498,0.0402 -7.553253,-0.0359 -8.862837,-0.16915 z m 15.1372,-1.05963 c 7.78086,-0.91386 15.36862,-4.79215 19.75354,-10.0965 3.94794,-4.77575 5.90531,-10.20966 6.17289,-17.13672 0.17686,-4.578504 -0.28665,-7.871897 -1.5985,-11.357889 -1.76448,-4.68882 -5.1947,-8.539983 -9.60897,-10.78815 -5.69833,-2.902134 -9.11832,-3.575824 -18.61225,-3.66635 l -7.01091,-0.06685 -0.0706,-6.933632 c -0.0498,-4.893388 0.0181,-7.040498 0.23082,-7.296814 0.24984,-0.30104 3.23833,-0.363184 17.46558,-0.363184 h 17.16417 V 56.838627 49.695439 H 110.86131 84.272776 v 22.522428 22.522428 l 0.859828,-0.15997 c 0.472906,-0.08798 2.583929,-0.517685 4.691167,-0.954896 9.777619,-2.02866 19.634389,-1.584526 24.694939,1.112721 1.96894,1.049432 4.1252,3.409178 4.81492,5.26929 0.69431,1.87252 0.7223,6.54467 0.052,8.68544 -1.34867,4.30743 -5.02414,7.05779 -10.78708,8.07198 -2.58793,0.45544 -7.81408,0.51347 -10.303982,0.11441 -3.315915,-0.53143 -8.35364,-2.32565 -12.631486,-4.4988 -2.273862,-1.15512 -4.290748,-2.10022 -4.481966,-2.10022 -0.280045,0 -0.347673,1.6698 -0.347673,8.58431 v 8.5843 l 3.240891,1.05258 c 9.946092,3.2303 19.930746,4.30917 29.489716,3.18646 z"
         id="path208" />
      <path
         style="fill:#93cd96;stroke-width:0.264562"
         d="m 74.748526,138.32388 c -0.363773,-0.28455 -0.53104,-0.52001 -0.371708,-0.52324 0.159336,-0.003 0.505182,0.23222 0.768552,0.52324 0.603245,0.66658 0.455328,0.66658 -0.396844,0 z m 26.456254,-7.31308 c -3.348979,-0.2034 -9.333811,-1.19809 -12.516337,-2.08024 -4.792994,-1.32854 -6.929011,-2.11047 -6.929011,-2.53651 0,-0.20478 1.726271,-2.78472 3.836156,-5.73319 2.632863,-3.67931 3.960636,-5.32361 4.233,-5.24211 0.218265,0.0653 1.89989,0.59409 3.736948,1.17507 3.985227,1.26035 7.751164,1.76792 11.277804,1.52003 8.04654,-0.56562 12.40947,-2.83359 14.81511,-7.70132 1.04273,-2.10991 1.52621,-5.65912 1.12436,-8.25378 -0.92037,-5.942675 -5.43135,-9.391789 -13.67444,-10.455542 -0.50758,-0.0655 -0.0779,-0.769134 3.51886,-5.762706 2.25337,-3.128452 4.25688,-5.849712 4.45224,-6.047245 0.2991,-0.302438 0.78789,-0.287228 3.0952,0.09631 10.44113,1.735607 17.23775,7.092005 19.53437,15.39499 1.85574,6.709063 0.98887,15.288043 -2.14216,21.199933 -1.84377,3.48131 -4.31233,6.33072 -7.39239,8.53285 -5.88032,4.20422 -11.14933,5.75379 -20.09109,5.90859 -2.83743,0.0491 -5.93281,0.0423 -6.87862,-0.0151 z m 26.09767,-68.153376 c 0.52308,-0.857323 8.87711,-12.368297 8.97622,-12.368297 0.0621,0 0.11292,2.857275 0.11292,6.3495 v 6.3495 h -4.64546 c -3.6476,0 -4.60211,-0.07104 -4.44368,-0.330703 z m 14.38039,-21.09886 c -0.23845,-0.154097 -0.27108,-0.258077 -0.0818,-0.260511 0.1733,-0.0022 0.38867,0.115002 0.4786,0.260511 0.203,0.328461 0.11141,0.328461 -0.39684,0 z"
         id="path206" />
      <path
         style="fill:#5e56db;stroke-width:0.264562"
         d="m 72.712932,137.02343 c -2.1625,-1.42302 -4.049343,-2.9542 -4.049343,-3.28607 0,-0.18501 -0.429059,-0.74665 -0.953463,-1.2481 -1.770411,-1.69291 -4.766595,-5.39304 -6.629603,-8.1872 -4.8558,-7.28277 -7.681911,-14.43027 -9.257782,-23.41378 -0.892554,-5.088142 -0.999059,-12.743811 -0.244758,-17.593403 2.069492,-13.305295 7.677079,-24.498935 16.849728,-33.634755 6.03808,-6.013836 13.212414,-10.660497 20.824983,-13.487889 14.766656,-5.484501 30.909966,-4.975265 45.154676,1.424391 2.46013,1.10525 7.07076,3.661155 6.90443,3.827476 -0.0726,0.07259 -0.94147,-0.249523 -1.93083,-0.715816 -7.80129,-3.676785 -18.66863,-5.860971 -27.17053,-5.460901 -15.240937,0.717187 -28.866368,6.674343 -39.432061,17.240035 -8.985763,8.985765 -14.702313,20.242055 -16.720557,32.923959 -0.737399,4.633545 -0.66647,14.043615 0.139591,18.519373 2.255535,12.52416 7.268525,22.28971 16.531088,32.20337 1.69079,1.80964 1.687285,2.00985 -0.01558,0.88931 z M 142.47653,41.999488 c -0.56981,-0.466073 -0.58101,-0.501702 -0.0809,-0.257257 0.31929,0.156058 0.65371,0.402154 0.74316,0.546881 0.23879,0.386367 0.0784,0.316235 -0.66228,-0.289624 z"
         id="path204" />
      <path
         style="fill:#4439e6;stroke-width:0.264562"
         d="M 65.401605,131.16204 C 55.877103,122.13618 49.820914,110.85591 47.443665,97.713533 46.66434,93.405114 46.590268,83.309775 47.306813,79.061877 49.323401,67.106922 54.309652,56.746144 62.209924,48.095156 76.564322,32.376746 98.346456,25.659311 119.19834,30.52039 c 5.46943,1.275057 10.88807,3.402531 15.80795,6.206546 2.98502,1.701267 7.06358,4.468216 6.87066,4.66114 -0.0623,0.06231 -1.25344,-0.53241 -2.64697,-1.321594 -9.15311,-5.183612 -18.70805,-7.663124 -29.42692,-7.636304 -15.638946,0.03913 -30.205741,6.105185 -41.375349,17.229944 -9.172649,9.13582 -14.780236,20.32946 -16.849728,33.634755 -0.754301,4.849592 -0.647796,12.505261 0.244758,17.593403 1.575871,8.98351 4.401982,16.13101 9.257782,23.41378 1.863008,2.79416 4.859192,6.49429 6.629603,8.1872 0.935047,0.89412 1.176286,1.33705 0.728206,1.33705 -0.123892,0 -1.490419,-1.19892 -3.036727,-2.66427 z"
         id="path202" />
      <path
         style="fill:#0ea1a1;stroke-width:0.264562"
         d="m 100.80793,133.81481 c -1.600601,-0.10903 -4.279296,-0.39577 -5.952654,-0.63719 -5.659293,-0.8165 -14.728586,-3.51706 -15.675328,-4.66763 -0.421213,-0.51191 -0.462985,-1.39013 -0.462985,-9.73418 0,-10.76423 -0.09566,-10.3475 2.3752,-10.3475 1.368236,0 1.811798,0.14929 3.755013,1.26376 4.586011,2.63016 10.349174,4.75851 14.547334,5.37236 2.53289,0.37036 7.17018,0.18202 9.82303,-0.39896 3.72838,-0.81652 6.51167,-2.78126 7.83787,-5.5328 0.79447,-1.64833 1.18727,-4.65708 0.85457,-6.54585 -0.36222,-2.05636 -0.92269,-3.182613 -2.23869,-4.498616 -2.19266,-2.192662 -5.20168,-3.194203 -11.04633,-3.676736 -4.39664,-0.362983 -9.489668,0.07079 -15.301162,1.303187 -4.028824,0.854365 -5.555029,0.981995 -6.391227,0.534477 -0.5001,-0.267647 -0.511732,-0.813694 -0.511732,-24.022275 0,-18.118232 0.07527,-23.823671 0.317475,-24.06588 0.460669,-0.460669 55.785316,-0.460669 56.245986,0 0.23359,0.23359 0.31748,2.536466 0.31748,8.715562 0,8.37843 -0.001,8.39905 -0.588,8.809931 -0.51713,0.362218 -2.60525,0.411844 -17.32884,0.411844 h -16.74085 v 5.26172 5.26172 l 5.35739,-0.01082 c 8.25337,-0.01667 13.64288,1.060739 18.9909,3.796432 6.07208,3.106083 9.83279,7.854303 11.61749,14.668086 1.3114,5.006768 1.25088,11.314198 -0.16111,16.792178 -0.85349,3.31123 -0.99682,3.67851 -2.55374,6.54409 -2.95571,5.44009 -6.86201,9.03163 -13.15175,12.092 -6.14475,2.98982 -13.57095,4.01712 -23.93534,3.31109 z m 15.77649,-1.54166 c 12.01048,-2.43554 20.5898,-10.30035 23.12514,-21.19921 1.73237,-7.44707 0.88627,-15.922224 -2.12617,-21.297282 -2.11694,-3.777238 -5.11807,-6.584701 -9.26096,-8.66334 -5.34516,-2.681864 -9.61977,-3.492822 -18.45309,-3.500836 l -6.28322,-0.0057 -1.4e-4,-6.281457 -1.4e-4,-6.281457 17.39498,-0.06804 17.39499,-0.06804 v -8.069156 -8.069156 h -27.5145 -27.514503 l -0.06758,23.34764 -0.06758,23.347641 h 1.320164 c 0.726092,0 3.078037,-0.349117 5.226546,-0.775816 9.518049,-1.890305 17.597833,-1.736356 23.031343,0.43883 2.21528,0.886834 4.53022,3.002625 5.35895,4.897919 0.8321,1.90301 1.01818,5.4415 0.40475,7.69676 -0.85368,3.13848 -3.41221,5.91108 -6.48135,7.02362 -7.99401,2.89779 -17.501653,1.4754 -27.395645,-4.0985 -2.161282,-1.21759 -2.756759,-1.44015 -3.674117,-1.37319 l -1.094796,0.0799 v 9.38521 9.3852 l 1.945323,0.74718 c 4.643349,1.78347 11.292315,3.33826 16.574052,3.87566 1.309584,0.13325 5.297863,0.20936 8.862843,0.16915 5.38845,-0.0608 6.95626,-0.16933 9.29471,-0.64353 z m -14.58596,-0.311 c -6.832357,-0.47149 -11.487964,-1.37038 -17.924106,-3.46071 l -3.240891,-1.05258 v -8.5843 c 0,-6.91451 0.06763,-8.58431 0.347673,-8.58431 0.191218,0 2.208104,0.9451 4.481966,2.10022 4.277846,2.17315 9.315571,3.96737 12.631487,4.4988 2.489901,0.39906 7.716051,0.34103 10.303981,-0.11441 5.76294,-1.01419 9.43841,-3.76455 10.78708,-8.07198 0.67028,-2.14077 0.64229,-6.81292 -0.052,-8.68544 -0.68972,-1.860112 -2.84598,-4.219858 -4.81492,-5.26929 -5.06055,-2.697247 -14.91732,-3.141381 -24.694939,-1.112721 -2.107238,0.437211 -4.218261,0.866913 -4.691167,0.954896 l -0.859828,0.15997 V 72.217867 49.695439 h 26.588534 26.58853 v 7.143188 7.143187 h -17.16417 c -14.22725,0 -17.21574,0.06214 -17.46558,0.363184 -0.21273,0.256316 -0.28064,2.403426 -0.23082,7.296814 l 0.0706,6.933632 7.01091,0.06685 c 9.49393,0.09053 12.91392,0.764216 18.61225,3.66635 4.41427,2.248167 7.84449,6.09933 9.60897,10.78815 1.31185,3.485992 1.77536,6.779385 1.5985,11.357886 -0.43754,11.32701 -5.62481,19.37293 -15.62725,24.23926 -5.70511,2.77561 -13.06386,3.87555 -21.86479,3.26821 z m 13.87148,-1.55961 c 4.85239,-0.9863 8.45792,-2.53499 12.30455,-5.2852 3.08006,-2.20213 5.54862,-5.05154 7.39239,-8.53285 3.13103,-5.91189 3.9979,-14.49087 2.14216,-21.199932 -1.85199,-6.695511 -6.76732,-11.600484 -14.14873,-14.118936 -4.04133,-1.378852 -7.10863,-1.75606 -14.49438,-1.78249 -5.75777,-0.02061 -6.86122,-0.08632 -7.073,-0.421255 -0.14233,-0.225087 -0.25268,-3.566141 -0.25498,-7.719555 -0.003,-6.307893 0.0536,-7.380329 0.41169,-7.738454 0.36928,-0.369276 2.30605,-0.415741 17.32885,-0.415741 h 16.9131 v -6.3495 -6.3495 H 110.72903 85.066463 v 21.561844 c 0,11.859014 0.05,21.561843 0.111117,21.561843 0.06111,0 1.478708,-0.295682 3.150214,-0.657072 5.330104,-1.152403 9.544947,-1.541931 14.861196,-1.373442 5.27428,0.167158 7.66701,0.575709 10.6697,1.821812 3.76202,1.561225 6.30873,4.781208 6.92412,8.754638 0.40185,2.59466 -0.0816,6.14387 -1.12436,8.25378 -2.00146,4.04989 -5.36186,6.26821 -11.06457,7.30414 -2.40962,0.43772 -8.803402,0.44772 -10.96056,0.0171 -3.315368,-0.66175 -8.528178,-2.55122 -12.240117,-4.43662 l -3.773978,-1.91692 0.0701,7.69315 0.0701,7.69316 1.851938,0.63501 c 5.430764,1.86216 12.41328,3.29459 17.593407,3.60921 4.17204,0.25339 12.02932,-0.0725 14.66516,-0.60827 z"
         id="path200" />
    </g>
  </g>
  <g
     inkscape:label="Warstwa 1"
     inkscape:groupmode="layer"
     id="layer1">
    <g
       id="g929"
       transform="matrix(0.60000949,0,0,0.6026023,30.188691,-26.836675)"
       style="display:inline">
      <path
         style="fill:#fb939c;stroke-width:0.264779"
         d="m 65.015181,154.36014 c 0.400477,-0.0607 1.055804,-0.0607 1.456282,0 0.400478,0.0607 0.07281,0.1103 -0.728141,0.1103 -0.800956,0 -1.128619,-0.0496 -0.728141,-0.1103 z m -3.574512,-0.25049 c 0.182035,-0.0734 0.479911,-0.0734 0.661946,0 0.182036,0.0735 0.0331,0.13355 -0.330973,0.13355 -0.364071,0 -0.513009,-0.0601 -0.330973,-0.13355 z m 7.943359,0 c 0.182035,-0.0734 0.479911,-0.0734 0.661947,0 0.182035,0.0735 0.0331,0.13355 -0.330974,0.13355 -0.36407,0 -0.513008,-0.0601 -0.330973,-0.13355 z m -12.113623,-2.44751 c -3.46172,-0.76237 -6.273213,-1.97986 -8.624604,-3.7348 -2.35694,-1.75907 -4.074544,-5.94166 -4.076259,-9.92622 -0.0011,-2.67371 0.892663,-5.84816 2.285729,-8.11794 l 0.594671,-0.96893 -0.540272,-1.81125 c -0.56442,-1.89221 -0.986205,-7.62566 -0.65737,-8.93584 l 0.172217,-0.68617 2.708963,1.35663 c 1.48993,0.74615 3.368373,1.81769 4.174318,2.3812 l 1.465355,1.02456 1.902538,-0.79936 c 2.554489,-1.07328 6.323465,-1.83672 9.067631,-1.83672 2.708807,0 6.505908,0.7604 8.972763,1.79686 l 1.80767,0.7595 1.241688,-0.91974 c 0.68293,-0.50586 2.516959,-1.55963 4.075621,-2.34172 l 2.833931,-1.42197 0.171794,1.91992 c 0.223155,2.49394 -0.125749,5.96222 -0.825257,8.20349 l -0.556276,1.78232 0.60208,1.92458 c 0.794158,2.53856 0.84328,6.77034 0.103782,8.9412 -0.917185,2.6925 -1.795935,4.08576 -3.870243,6.13629 -1.638447,1.61968 -2.558791,2.27691 -4.533574,3.23752 -3.946406,1.91968 -5.897544,2.33458 -11.480262,2.4412 -3.922624,0.0749 -5.164282,0.003 -7.016634,-0.40461 z m 10.044937,-5.17037 c 0.469974,-0.50027 0.582989,-0.87724 0.505767,-1.68701 -0.09937,-1.04203 -0.09855,-1.04302 1.133006,-1.35866 1.478233,-0.37886 3.277761,-1.64361 3.813983,-2.68055 0.21635,-0.41837 0.389026,-1.46295 0.389026,-2.35335 0,-1.46769 -0.07976,-1.68934 -0.957535,-2.66093 -0.526645,-0.58293 -0.819106,-1.05988 -0.649912,-1.05988 0.169193,0 0.600083,-0.29246 0.957534,-0.64991 0.535102,-0.5351 0.649913,-0.91153 0.649913,-2.13087 0,-1.26138 -0.103881,-1.57724 -0.70061,-2.13027 -1.008873,-0.93499 -3.021844,-0.9226 -3.968873,0.0244 -0.58753,0.58753 -0.662216,0.8586 -0.583718,2.11859 l 0.09002,1.44486 -2.184424,-2.6e-4 -2.184423,-4.7e-4 v -1.46893 c 0,-1.96684 -0.780721,-2.76753 -2.698487,-2.76753 -1.831161,0 -2.597086,0.78514 -2.597086,2.66223 0,1.18764 0.111826,1.47423 0.871794,2.2342 l 0.871792,0.87179 -0.871792,0.95129 c -0.785458,0.85708 -0.871794,1.11031 -0.871794,2.557 0,0.9261 0.172119,1.93856 0.406668,2.39212 0.548214,1.06013 2.249408,2.24996 3.776551,2.64136 l 1.252241,0.32094 -0.09945,1.04279 c -0.07722,0.80977 0.03579,1.18674 0.505767,1.68701 0.830158,0.88366 2.313882,0.88366 3.14404,0 z m 17.02868,1.97101 c -0.9556,-0.58264 -1.003106,-0.71949 -0.486256,-1.40077 0.315839,-0.41632 0.376047,-0.42263 0.517415,-0.0542 0.08799,0.2293 0.572983,0.58947 1.077763,0.80038 0.996719,0.41645 1.888573,0.23525 2.506466,-0.50927 0.299112,-0.36041 0.230614,-0.5579 -0.470419,-1.35633 -1.075115,-1.22449 -1.294577,-2.11656 -0.68611,-2.78891 0.258273,-0.28539 0.680772,-0.51889 0.938889,-0.51889 0.70228,0 1.566851,1.26615 1.566851,2.29463 0,1.08641 0.580278,1.40278 1.562128,0.85168 0.902572,-0.5066 0.999939,-1.18537 0.304895,-2.12547 -0.57332,-0.77545 -0.534569,-1.28562 0.09765,-1.28562 0.581453,0 1.584207,2.18638 1.378551,3.00578 -0.221726,0.88342 -1.587443,1.75791 -2.747473,1.75925 -0.473292,5.3e-4 -0.86053,0.12583 -0.86053,0.27841 0,0.15258 -0.315275,0.56961 -0.70061,0.92672 -0.897878,0.83213 -2.742792,0.88871 -3.999211,0.12265 z m 3.86581,-3.97458 c -0.152301,-0.43689 -0.384403,-0.79434 -0.515786,-0.79434 -0.309156,0 -0.301493,0.10244 0.06841,0.91427 0.428909,0.94136 0.784147,0.84613 0.44738,-0.11993 z m -1.792872,-3.06702 c 0.01271,-0.30845 0.07545,-0.37119 0.159969,-0.15997 0.07649,0.19114 0.06708,0.41951 -0.02089,0.50749 -0.08799,0.088 -0.150564,-0.0684 -0.139067,-0.34752 z m 0.295493,-1.83139 c 0.0054,-0.43688 0.06474,-0.58355 0.131871,-0.32593 0.06713,0.25762 0.06272,0.61507 -0.0098,0.79434 -0.07253,0.17926 -0.127456,-0.0315 -0.12206,-0.46841 z m 0,-2.91256 c 0.0054,-0.43689 0.06474,-0.58356 0.131871,-0.32594 0.06713,0.25763 0.06272,0.61508 -0.0098,0.79434 -0.07253,0.17926 -0.127456,-0.0315 -0.12206,-0.4684 z"
         id="path943" />
      <path
         style="fill:#de6a8a;stroke-width:0.264779"
         d="m 62.632173,152.23868 c 0.546106,-0.0571 1.439734,-0.0571 1.98584,0 0.546106,0.0571 0.09929,0.10386 -0.99292,0.10386 -1.092212,0 -1.539026,-0.0467 -0.99292,-0.10386 z m 17.938753,-5.997 c 0,-0.055 0.208513,-0.26349 0.463363,-0.46336 0.419954,-0.32935 0.42932,-0.31999 0.09997,0.1 -0.345899,0.44105 -0.563332,0.58131 -0.563332,0.36339 z m -16.606758,-4.67213 c -0.760092,-0.10939 -1.93264,-0.52158 -2.60566,-0.916 -2.603346,-1.52566 -2.404124,-3.80992 0.459004,-5.26289 1.330044,-0.67497 1.77984,-0.76231 3.92581,-0.76231 2.14597,0 2.595765,0.0873 3.925809,0.76231 1.115624,0.56615 1.626996,1.01712 1.987323,1.75258 0.470371,0.96007 0.470371,1.02047 0,1.98054 -0.912496,1.86249 -4.287852,2.93568 -7.692286,2.44577 z m 0.07013,-1.96772 c 0.409676,-0.40967 0.649912,-0.95243 0.649912,-1.46832 0,-0.51588 -0.240236,-1.05864 -0.649912,-1.46831 -0.409674,-0.40968 -0.95243,-0.64992 -1.468317,-0.64992 -0.515887,0 -1.058643,0.24024 -1.468317,0.64992 -0.409676,0.40967 -0.649912,0.95243 -0.649912,1.46831 0,0.51589 0.240236,1.05865 0.649912,1.46832 0.409674,0.40967 0.95243,0.64991 1.468317,0.64991 0.515887,0 1.058643,-0.24024 1.468317,-0.64991 z m 6.354687,0 c 1.313355,-1.31335 0.382717,-3.58655 -1.468316,-3.58655 -0.515887,0 -1.058644,0.24024 -1.468317,0.64992 -0.409676,0.40967 -0.649913,0.95243 -0.649913,1.46831 0,0.51589 0.240237,1.05865 0.649913,1.46832 0.409673,0.40967 0.95243,0.64991 1.468317,0.64991 0.515886,0 1.058643,-0.24024 1.468316,-0.64991 z m 1.709027,-5.27519 c 0,-0.055 0.208513,-0.26349 0.463363,-0.46336 0.419955,-0.32935 0.42932,-0.31999 0.09997,0.1 -0.345899,0.44105 -0.563333,0.58131 -0.563333,0.36339 z"
         id="path941" />
      <path
         style="fill:#c9757c;stroke-width:0.264779"
         d="m 60.844917,154.00898 c -4.331555,-0.67278 -10.085692,-3.3343 -11.813773,-5.46435 -0.41178,-0.50756 -0.385803,-0.49608 1.418718,0.6265 3.199737,1.99054 7.88422,3.08875 13.175231,3.08875 5.747687,0 10.234467,-1.16832 13.991266,-3.64322 3.279956,-2.16076 5.048188,-4.25564 6.331943,-7.50165 0.63393,-1.60291 0.708002,-2.13592 0.708693,-5.09973 5.3e-4,-2.74377 -0.09922,-3.59007 -0.58398,-4.94916 -0.321613,-0.90169 -0.509773,-1.83482 -0.418133,-2.07363 0.247317,-0.6445 1.53139,1.65611 2.367998,4.24262 0.775465,2.39748 0.948405,6.1251 0.392706,8.46458 -1.344027,5.65833 -6.519263,10.12699 -13.822184,11.93505 -2.021209,0.50041 -9.418997,0.73607 -11.748485,0.37424 z m 0.452223,-11.12374 c -1.038038,-0.51871 -1.812629,-1.12322 -2.160519,-1.68612 -0.780292,-1.26254 -0.66916,-1.43657 0.318208,-0.49831 1.132085,1.07579 2.824828,1.90482 4.302976,2.10743 1.06334,0.14574 1.142851,0.20204 0.728986,0.51619 -0.712181,0.54057 -1.425544,0.44234 -3.189651,-0.43919 z m 5.702713,0.43919 c -0.413865,-0.31415 -0.334355,-0.37045 0.728986,-0.51619 1.478148,-0.20261 3.170891,-1.03164 4.302976,-2.10743 0.987367,-0.93826 1.0985,-0.76423 0.318208,0.49831 -0.34789,0.5629 -1.122481,1.16741 -2.16052,1.68612 -1.764106,0.88153 -2.47747,0.97976 -3.18965,0.43919 z m -2.365292,-1.66489 c 0.191136,-0.0765 0.41951,-0.0671 0.507493,0.0209 0.08798,0.088 -0.0684,0.15056 -0.347521,0.13907 -0.308454,-0.0127 -0.371194,-0.0755 -0.159972,-0.15997 z m 1.853451,0 c 0.191135,-0.0765 0.419507,-0.0671 0.507493,0.0209 0.08798,0.088 -0.0684,0.15056 -0.347522,0.13907 -0.308454,-0.0127 -0.371193,-0.0755 -0.159971,-0.15997 z m 3.657583,-7.3809 -1.025691,-0.5887 1.170268,0.1319 c 0.993256,0.11196 1.298591,0.0239 2.018612,-0.58192 0.466587,-0.39261 0.84834,-0.63583 0.84834,-0.5405 0,0.42358 -0.587848,1.20183 -1.257161,1.66436 -0.721316,0.49847 -0.739042,0.49761 -1.754368,-0.0851 z m -11.042106,-0.36122 c -0.931102,-0.9311 -1.05818,-1.70357 -0.138048,-0.83915 0.357507,0.33586 1.125405,0.66307 1.753952,0.74737 1.087838,0.14591 1.101056,0.15938 0.489391,0.49848 -0.925023,0.51281 -1.24822,0.45038 -2.105295,-0.4067 z m 5.531072,0.5931 c 0.191136,-0.0765 0.41951,-0.0671 0.507493,0.0209 0.08798,0.088 -0.0684,0.15056 -0.347521,0.13906 -0.308454,-0.0127 -0.371194,-0.0754 -0.159972,-0.15996 z m 1.853451,0 c 0.191135,-0.0765 0.419507,-0.0671 0.507493,0.0209 0.08798,0.088 -0.0684,0.15056 -0.347522,0.13906 -0.308454,-0.0127 -0.371193,-0.0754 -0.159971,-0.15996 z m -3.524866,-1.4078 c 0.263585,-0.29126 0.512945,-0.52956 0.554139,-0.52956 0.04119,0 0.05695,0.2383 0.03501,0.52956 -0.02518,0.33409 -0.229706,0.52956 -0.55414,0.52956 -0.497476,0 -0.49862,-0.0173 -0.03501,-0.52956 z m 4.969093,-0.0281 c -0.04037,-0.53591 -0.02195,-0.53947 0.473212,-0.0914 0.634632,0.57433 0.639465,0.64897 0.042,0.64897 -0.291331,0 -0.489353,-0.21432 -0.515214,-0.55762 z"
         id="path939" />
      <path
         style="fill:#a0566a;stroke-width:0.264779"
         d="m 62.301199,133.61665 c 0,-0.15423 0.119151,-0.20677 0.264779,-0.11676 0.145628,0.09 0.264779,0.21618 0.264779,0.2804 0,0.0642 -0.119151,0.11676 -0.264779,0.11676 -0.145628,0 -0.264779,-0.12618 -0.264779,-0.2804 z m 6.487077,0.0156 c 0.09,-0.14563 0.216187,-0.26478 0.280406,-0.26478 0.06422,0 0.116762,0.11915 0.116762,0.26478 0,0.14562 -0.126183,0.26477 -0.280406,0.26477 -0.154223,0 -0.206765,-0.11915 -0.116762,-0.26477 z"
         id="path937" />
      <path
         style="fill:#623750;stroke-width:0.264779"
         d="m 62.953257,142.49138 c -3.212422,-0.92655 -4.824651,-2.58546 -4.544275,-4.67583 0.0757,-0.56436 0.31267,-1.29325 0.526603,-1.61975 0.647701,-0.98852 2.342012,-1.98757 4.15995,-2.4529 5.369611,-1.37446 10.883941,1.60762 9.938488,5.3746 -0.302584,1.20559 -2.153085,2.67522 -4.121272,3.27304 -2.409705,0.73193 -3.696032,0.75369 -5.959494,0.10084 z m 5.713473,-1.07588 c 1.864105,-0.55358 3.431279,-2.05257 3.431279,-3.28199 0,-1.9425 -3.024683,-3.7069 -6.354687,-3.7069 -3.305595,0 -6.354688,1.76556 -6.354688,3.67964 0,2.72312 5.11201,4.54644 9.278096,3.30925 z m -7.074825,-1.47851 c -1.462505,-0.70706 -1.334243,-3.02982 0.202452,-3.66634 2.35795,-0.97669 3.989269,2.62432 1.667992,3.68197 -0.783122,0.35681 -1.105655,0.35412 -1.870444,-0.0156 z m 6.354688,0 c -1.462505,-0.70706 -1.334244,-3.02982 0.202452,-3.66634 2.357949,-0.97669 3.989269,2.62432 1.667992,3.68197 -0.783123,0.35681 -1.105655,0.35412 -1.870444,-0.0156 z"
         id="path935" />
      <path
         style="fill:#44283b;stroke-width:0.264779"
         d="m 64.948986,146.79147 c -2.313273,-1.16346 -0.817067,-4.62365 1.571488,-3.63428 0.905778,0.37519 1.43604,1.57632 1.093562,2.47711 -0.440348,1.1582 -1.633202,1.67614 -2.66505,1.15717 z M 60.646333,133.7217 c 0.182035,-0.0735 0.479911,-0.0735 0.661946,0 0.182036,0.0735 0.0331,0.13355 -0.330973,0.13355 -0.36407,0 -0.513008,-0.0601 -0.330973,-0.13355 z m 9.532031,0 c 0.182035,-0.0735 0.479911,-0.0735 0.661947,0 0.182035,0.0735 0.0331,0.13355 -0.330974,0.13355 -0.36407,0 -0.513008,-0.0601 -0.330973,-0.13355 z"
         id="path933" />
      <path
         style="fill:#050304;stroke-width:0.264779"
         d="m 59.103489,132.85831 c -0.950945,-0.95095 -0.998451,-1.93819 -0.134825,-2.80181 0.75281,-0.75282 1.740413,-1.05019 2.693392,-0.81101 1.016707,0.25518 1.963037,1.32558 1.963037,2.22041 0,2.04531 -2.957853,2.95616 -4.521604,1.39241 z m 9.532031,0 c -0.950944,-0.95095 -0.998451,-1.93819 -0.134825,-2.80181 0.752811,-0.75282 1.740414,-1.05019 2.693392,-0.81101 1.016707,0.25518 1.963037,1.32558 1.963037,2.22041 0,2.04531 -2.957853,2.95616 -4.521604,1.39241 z"
         id="path931" />
    </g>
  </g>
</svg>
