<?xml version="1.0" encoding="UTF-8" standalone="no"?>
<svg
   xmlns:dc="http://purl.org/dc/elements/1.1/"
   xmlns:cc="http://creativecommons.org/ns#"
   xmlns:rdf="http://www.w3.org/1999/02/22-rdf-syntax-ns#"
   xmlns:svg="http://www.w3.org/2000/svg"
   xmlns="http://www.w3.org/2000/svg"
   xmlns:sodipodi="http://sodipodi.sourceforge.net/DTD/sodipodi-0.dtd"
   xmlns:inkscape="http://www.inkscape.org/namespaces/inkscape"
   width="210mm"
   height="297mm"
   viewBox="0 0 210 297"
   version="1.1"
   id="svg8"
   inkscape:version="1.0.2-2 (e86c870879, 2021-01-15)"
   sodipodi:docname="s5.svg">
  <defs
     id="defs2">
    <pattern
       id="EMFhbasepattern"
       patternUnits="userSpaceOnUse"
       width="6"
       height="6"
       x="0"
       y="0" />
    <pattern
       id="EMFhbasepattern-7"
       patternUnits="userSpaceOnUse"
       width="6"
       height="6"
       x="0"
       y="0" />
    <pattern
       id="EMFhbasepattern-3"
       patternUnits="userSpaceOnUse"
       width="6"
       height="6"
       x="0"
       y="0" />
    <pattern
       id="EMFhbasepattern-8"
       patternUnits="userSpaceOnUse"
       width="6"
       height="6"
       x="0"
       y="0" />
    <pattern
       id="EMFhbasepattern-9"
       patternUnits="userSpaceOnUse"
       width="6"
       height="6"
       x="0"
       y="0" />
    <pattern
       id="EMFhbasepattern-31"
       patternUnits="userSpaceOnUse"
       width="6"
       height="6"
       x="0"
       y="0" />
    <pattern
       id="EMFhbasepattern-97"
       patternUnits="userSpaceOnUse"
       width="6"
       height="6"
       x="0"
       y="0" />
    <pattern
       id="EMFhbasepattern-98"
       patternUnits="userSpaceOnUse"
       width="6"
       height="6"
       x="0"
       y="0" />
    <pattern
       id="EMFhbasepattern-8-5"
       patternUnits="userSpaceOnUse"
       width="6"
       height="6"
       x="0"
       y="0" />
    <pattern
       id="EMFhbasepattern-9-1"
       patternUnits="userSpaceOnUse"
       width="6"
       height="6"
       x="0"
       y="0" />
    <pattern
       id="EMFhbasepattern-1"
       patternUnits="userSpaceOnUse"
       width="6"
       height="6"
       x="0"
       y="0" />
    <pattern
       id="EMFhbasepattern-0"
       patternUnits="userSpaceOnUse"
       width="6"
       height="6"
       x="0"
       y="0" />
    <pattern
       id="EMFhbasepattern-8-4"
       patternUnits="userSpaceOnUse"
       width="6"
       height="6"
       x="0"
       y="0" />
    <pattern
       id="EMFhbasepattern-81"
       patternUnits="userSpaceOnUse"
       width="6"
       height="6"
       x="0"
       y="0" />
    <pattern
       id="EMFhbasepattern-8-3"
       patternUnits="userSpaceOnUse"
       width="6"
       height="6"
       x="0"
       y="0" />
    <pattern
       id="EMFhbasepattern-9-9"
       patternUnits="userSpaceOnUse"
       width="6"
       height="6"
       x="0"
       y="0" />
    <pattern
       id="EMFhbasepattern-1-0"
       patternUnits="userSpaceOnUse"
       width="6"
       height="6"
       x="0"
       y="0" />
    <pattern
       id="EMFhbasepattern-3-6"
       patternUnits="userSpaceOnUse"
       width="6"
       height="6"
       x="0"
       y="0" />
    <pattern
       id="EMFhbasepattern-4"
       patternUnits="userSpaceOnUse"
       width="6"
       height="6"
       x="0"
       y="0" />
    <pattern
       id="EMFhbasepattern-89"
       patternUnits="userSpaceOnUse"
       width="6"
       height="6"
       x="0"
       y="0" />
    <pattern
       id="EMFhbasepattern-8-1"
       patternUnits="userSpaceOnUse"
       width="6"
       height="6"
       x="0"
       y="0" />
    <pattern
       id="EMFhbasepattern-9-10"
       patternUnits="userSpaceOnUse"
       width="6"
       height="6"
       x="0"
       y="0" />
    <pattern
       id="EMFhbasepattern-00"
       patternUnits="userSpaceOnUse"
       width="6"
       height="6"
       x="0"
       y="0" />
    <pattern
       id="EMFhbasepattern-8-50"
       patternUnits="userSpaceOnUse"
       width="6"
       height="6"
       x="0"
       y="0" />
    <pattern
       id="EMFhbasepattern-9-2"
       patternUnits="userSpaceOnUse"
       width="6"
       height="6"
       x="0"
       y="0" />
    <pattern
       id="EMFhbasepattern-1-5"
       patternUnits="userSpaceOnUse"
       width="6"
       height="6"
       x="0"
       y="0" />
    <pattern
       id="EMFhbasepattern-3-4"
       patternUnits="userSpaceOnUse"
       width="6"
       height="6"
       x="0"
       y="0" />
    <pattern
       id="EMFhbasepattern-4-2"
       patternUnits="userSpaceOnUse"
       width="6"
       height="6"
       x="0"
       y="0" />
    <pattern
       id="EMFhbasepattern-0-7"
       patternUnits="userSpaceOnUse"
       width="6"
       height="6"
       x="0"
       y="0" />
    <pattern
       id="EMFhbasepattern-88"
       patternUnits="userSpaceOnUse"
       width="6"
       height="6"
       x="0"
       y="0" />
    <pattern
       id="EMFhbasepattern-8-45"
       patternUnits="userSpaceOnUse"
       width="6"
       height="6"
       x="0"
       y="0" />
    <pattern
       id="EMFhbasepattern-9-5"
       patternUnits="userSpaceOnUse"
       width="6"
       height="6"
       x="0"
       y="0" />
    <pattern
       id="EMFhbasepattern-43"
       patternUnits="userSpaceOnUse"
       width="6"
       height="6"
       x="0"
       y="0" />
    <pattern
       id="EMFhbasepattern-8-32"
       patternUnits="userSpaceOnUse"
       width="6"
       height="6"
       x="0"
       y="0" />
    <pattern
       id="EMFhbasepattern-9-8"
       patternUnits="userSpaceOnUse"
       width="6"
       height="6"
       x="0"
       y="0" />
    <pattern
       id="EMFhbasepattern-1-1"
       patternUnits="userSpaceOnUse"
       width="6"
       height="6"
       x="0"
       y="0" />
    <pattern
       id="EMFhbasepattern-3-0"
       patternUnits="userSpaceOnUse"
       width="6"
       height="6"
       x="0"
       y="0" />
    <pattern
       id="EMFhbasepattern-2"
       patternUnits="userSpaceOnUse"
       width="6"
       height="6"
       x="0"
       y="0" />
    <pattern
       id="EMFhbasepattern-8-7"
       patternUnits="userSpaceOnUse"
       width="6"
       height="6"
       x="0"
       y="0" />
    <pattern
       id="EMFhbasepattern-9-7"
       patternUnits="userSpaceOnUse"
       width="6"
       height="6"
       x="0"
       y="0" />
    <pattern
       id="EMFhbasepattern-1-53"
       patternUnits="userSpaceOnUse"
       width="6"
       height="6"
       x="0"
       y="0" />
    <pattern
       id="EMFhbasepattern-3-7"
       patternUnits="userSpaceOnUse"
       width="6"
       height="6"
       x="0"
       y="0" />
    <pattern
       id="EMFhbasepattern-4-0"
       patternUnits="userSpaceOnUse"
       width="6"
       height="6"
       x="0"
       y="0" />
    <pattern
       id="EMFhbasepattern-0-9"
       patternUnits="userSpaceOnUse"
       width="6"
       height="6"
       x="0"
       y="0" />
    <pattern
       id="EMFhbasepattern-48"
       patternUnits="userSpaceOnUse"
       width="6"
       height="6"
       x="0"
       y="0" />
    <pattern
       id="EMFhbasepattern-71"
       patternUnits="userSpaceOnUse"
       width="6"
       height="6"
       x="0"
       y="0" />
  </defs>
  <sodipodi:namedview
     id="base"
     pagecolor="#ffffff"
     bordercolor="#666666"
     borderopacity="1.0"
     inkscape:pageopacity="0.0"
     inkscape:pageshadow="2"
     inkscape:zoom="0.98994949"
     inkscape:cx="407.95419"
     inkscape:cy="383.04576"
     inkscape:document-units="mm"
     inkscape:current-layer="layer2"
     inkscape:document-rotation="0"
     showgrid="false"
     inkscape:window-width="1920"
     inkscape:window-height="1017"
     inkscape:window-x="-8"
     inkscape:window-y="-8"
     inkscape:window-maximized="1" />
  <metadata
     id="metadata5">
    <rdf:RDF>
      <cc:Work
         rdf:about="">
        <dc:format>image/svg+xml</dc:format>
        <dc:type
           rdf:resource="http://purl.org/dc/dcmitype/StillImage" />
        <dc:title></dc:title>
      </cc:Work>
    </rdf:RDF>
  </metadata>
  <g
     inkscape:groupmode="layer"
     id="layer4"
     inkscape:label="Warstwa 3"
     style="display:inline">
    <g
       id="g978"
       transform="translate(-0.23034879,-0.2545802)" />
    <g
       id="g1072"
       transform="translate(-70.292455,-55.7084)"
       style="fill-rule:evenodd">
      <path
         style="fill:#eaebeb;stroke-width:0.264336;fill-rule:evenodd"
         d="m 110.18838,141.03079 c -9.84944,-1.02668 -19.844568,-5.56175 -27.035569,-12.26681 -3.860131,-3.59927 -6.433978,-7.08635 -9.183392,-12.44177 -3.163756,-6.16248 -4.09139,-10.27888 -4.091935,-18.158032 -3.15e-4,-4.562489 0.0818,-5.60169 0.647491,-8.19442 1.429984,-6.554027 3.983089,-11.863668 8.361064,-17.388337 5.571118,-7.030325 13.536197,-12.399627 22.447081,-15.131697 4.15126,-1.272772 6.42519,-1.508753 14.53849,-1.508753 8.42796,0 10.43783,0.22764 15.09089,1.70921 11.18288,3.560711 20.40273,11.002876 25.97807,20.969213 1.68982,3.020679 2.04099,3.814392 3.23643,7.314966 1.42522,4.173445 1.79673,6.716749 1.79673,12.30039 0,7.27317 -0.87952,11.27644 -3.8039,17.31402 -2.58797,5.34302 -5.43137,9.30465 -9.281,12.93091 -10.16968,9.5796 -24.0431,14.07895 -38.70045,12.55111 z"
         id="path1086" />
      <path
         style="fill:#d0f0ef;stroke-width:0.264336;fill-rule:evenodd"
         d="m 110.18838,141.03079 c -11.531663,-1.20203 -23.131708,-7.24215 -30.272282,-15.76271 -2.858431,-3.41085 -3.893179,-4.95745 -5.809161,-8.68274 -1.746812,-3.39637 -3.219436,-7.70217 -3.835123,-11.21351 -0.614167,-3.50268 -0.53704,-11.498668 0.14366,-14.893474 0.988327,-4.929017 2.914694,-9.692997 5.693205,-14.079507 5.598366,-8.838291 14.805059,-15.75455 25.224441,-18.949125 4.15126,-1.272772 6.42519,-1.508753 14.53849,-1.508753 8.42796,0 10.43783,0.22764 15.09089,1.70921 15.83958,5.04344 27.65143,17.992052 30.54694,33.486742 0.63929,3.420978 0.63734,10.784507 -0.004,14.217307 -1.57836,8.45151 -6.36776,17.26323 -12.50975,23.01591 -10.34771,9.69181 -24.13563,14.19001 -38.80755,12.66065 z m -0.67981,-22.96723 c 0.75617,-0.14341 2.09946,-0.55342 2.98509,-0.91114 l 1.61023,-0.6504 1.5453,0.65041 c 0.84992,0.35772 2.40743,0.78397 3.46114,0.94721 3.66467,0.56774 7.81853,-0.7243 10.70501,-3.32974 1.4794,-1.33537 1.95402,-2.2558 0.55707,-1.08034 -1.84116,1.54923 -5.51846,2.88152 -7.8924,2.85942 -2.41319,-0.0225 -5.40947,-0.95836 -7.23352,-2.2594 -0.72654,-0.51821 -1.1873,-0.59605 -3.73643,-0.63122 -3.64953,-0.0503 -4.63315,-0.21144 -6.55379,-1.07337 -1.91924,-0.86131 -3.4405,-2.52156 -3.88649,-4.24158 -0.41925,-1.61688 -0.51722,-3.76165 -0.20044,-4.38773 0.4737,-0.93619 -0.15363,-1.04607 -2.482822,-0.43486 -2.899238,0.76081 -5.877177,0.83033 -8.419851,0.19658 -1.853347,-0.46194 -5.457165,-2.05639 -6.806655,-3.0115 -0.884309,-0.62588 -0.785904,-0.0189 0.37574,2.31747 1.174728,2.36272 3.594504,4.86416 5.703523,5.89601 1.614503,0.7899 3.915631,1.46687 5.002555,1.47169 0.580879,0.003 0.927993,0.33613 1.950606,1.87436 2.949835,4.43718 8.272254,6.75468 13.316134,5.79813 z m 26.43523,-8.49289 c 1.56274,-0.53565 2.8789,-1.33128 4.37434,-2.64428 1.13649,-0.99785 0.91814,-1.28005 -0.99519,-1.28618 -1.52185,-0.005 -2.74178,-0.48655 -3.60613,-1.42383 -0.97999,-1.06269 -1.27841,-0.88956 -1.42213,0.82503 -0.15018,1.79164 -0.65308,4.21906 -1.01367,4.89283 -0.22556,0.42146 -0.16903,0.45673 0.4855,0.30291 0.40743,-0.0957 1.3872,-0.39567 2.17728,-0.66648 z"
         id="path1084" />
      <path
         style="fill:#dddede;stroke-width:0.264336;fill-rule:evenodd"
         d="m 109.9477,140.76646 c -7.04217,-0.74235 -15.286204,-3.79726 -21.226061,-7.86555 -7.940396,-5.43848 -14.17918,-13.60534 -16.870185,-22.08387 -1.470273,-4.63238 -1.819678,-7.04242 -1.824159,-12.58229 -0.0043,-5.268232 0.390408,-7.911387 1.874828,-12.555966 0.736887,-2.305632 2.908978,-6.814098 4.470892,-9.279935 5.486837,-8.662217 14.302307,-15.296927 24.827935,-18.686033 4.93575,-1.589243 6.45322,-1.771845 14.72442,-1.771845 8.44709,0 10.19918,0.237918 15.68675,2.130113 10.9833,3.787203 19.67299,10.911267 25.06411,20.54831 1.68982,3.020679 2.04099,3.814392 3.23643,7.314966 1.42523,4.173445 1.79673,6.716749 1.79673,12.30039 0,5.45358 -0.37216,8.1108 -1.73758,12.4062 -1.48917,4.68469 -3.67418,8.66011 -7.44259,13.54107 -6.82158,8.83551 -18.78996,15.26292 -30.89788,16.59317 -2.9243,0.32128 -8.59318,0.31704 -11.68364,-0.009 z m 0.10851,-22.55639 c 0.945,-0.20316 2.22988,-0.60112 2.85528,-0.88434 l 1.13709,-0.51496 1.58957,0.64205 c 5.22165,2.10912 10.94314,0.98399 14.72385,-2.89545 0.60208,-0.61781 1.54318,-1.76583 2.09133,-2.55116 0.88736,-1.27132 1.15277,-1.46737 2.42078,-1.78817 2.20072,-0.55675 4.34527,-1.84026 6.06207,-3.62813 1.3538,-1.40985 2.9795,-3.93927 2.94337,-4.57958 -0.006,-0.11387 -0.25613,0.26876 -0.5549,0.8503 -0.29878,0.58154 -0.84016,1.49646 -1.20308,2.03316 -0.64432,0.95285 -0.69192,0.97274 -2.02237,0.84496 -2.64846,-0.25435 -3.12026,-0.40403 -4.11977,-1.30704 -0.55414,-0.50063 -1.13124,-0.91024 -1.28243,-0.91024 -0.1512,0 -0.33224,0.68397 -0.40231,1.51994 -0.43771,5.22196 -2.18761,8.07243 -6.18922,10.08183 -1.52089,0.76371 -4.18589,1.43914 -5.62546,1.42574 -2.41319,-0.0225 -5.40947,-0.95836 -7.23352,-2.2594 -0.72654,-0.51821 -1.1873,-0.59605 -3.73643,-0.63122 -3.64953,-0.0503 -4.63315,-0.21144 -6.55379,-1.07337 -1.91924,-0.86131 -3.4405,-2.52156 -3.88649,-4.24158 -0.41925,-1.61688 -0.51722,-3.76165 -0.20044,-4.38773 0.4737,-0.93619 -0.15363,-1.04607 -2.482822,-0.43486 -2.894717,0.75962 -5.875969,0.83001 -8.419851,0.1988 -2.102228,-0.52163 -5.378327,-1.9931 -6.806655,-3.05723 -0.822692,-0.61292 -0.859092,-0.6176 -0.859092,-0.1106 0,0.29119 0.471854,1.47218 1.048564,2.62441 1.927584,3.85119 5.482085,6.53359 9.685909,7.30946 1.766917,0.3261 1.826192,0.36372 2.793705,1.77296 3.336398,4.85966 8.757392,7.12735 14.227112,5.95145 z m 34.27993,-17.91019 c -0.0844,-0.21087 -0.14702,-0.14824 -0.1597,0.1597 -0.0115,0.27865 0.051,0.43478 0.13884,0.34694 0.0878,-0.0878 0.0972,-0.31583 0.0208,-0.50664 z M 82.219766,98.834537 c -0.06702,-0.257192 -0.126263,-0.110765 -0.13165,0.325389 -0.0054,0.436155 0.04945,0.646582 0.121856,0.467619 0.07241,-0.178964 0.07682,-0.535817 0.0098,-0.793008 z m 62.383324,0 c -0.067,-0.257192 -0.12626,-0.110765 -0.13165,0.325389 -0.005,0.436155 0.0495,0.646582 0.12186,0.467619 0.0724,-0.178964 0.0768,-0.535817 0.01,-0.793008 z M 82.219766,94.605159 c -0.06702,-0.257191 -0.126263,-0.110765 -0.13165,0.325389 -0.0054,0.436155 0.04945,0.646582 0.121856,0.467619 0.07241,-0.178963 0.07682,-0.535817 0.0098,-0.793008 z m 62.383324,0 c -0.067,-0.257191 -0.12626,-0.110765 -0.13165,0.325389 -0.005,0.436155 0.0495,0.646582 0.12186,0.467619 0.0724,-0.178963 0.0768,-0.535817 0.01,-0.793008 z M 84.522117,89.435585 c 1.135775,-1.711117 2.585641,-2.996528 4.685534,-4.154061 0.780921,-0.430471 1.300905,-0.783714 1.155521,-0.784983 -0.661097,-0.0058 -3.310916,1.803766 -4.665304,3.185898 -1.475175,1.505389 -2.963806,4.087762 -3.263962,5.662093 -0.08316,0.436154 0.124965,0.07812 0.462491,-0.79562 0.337526,-0.873747 1.0691,-2.274745 1.62572,-3.113327 z m 59.362523,2.630316 c -1.04655,-2.797165 -3.73075,-5.739287 -6.5226,-7.149359 -1.45464,-0.734696 -1.33954,-0.456733 0.15114,0.364982 3.07729,1.696311 5.35323,4.353267 6.30758,7.363545 0.24677,0.778375 0.48698,1.300288 0.53381,1.159809 0.0468,-0.140481 -0.16464,-0.923019 -0.46993,-1.738977 z M 92.274101,84.065232 c -0.08784,-0.08784 -0.315826,-0.09723 -0.506644,-0.02086 -0.210869,0.08438 -0.148233,0.147018 0.159703,0.159701 0.278654,0.01147 0.434778,-0.051 0.346941,-0.138835 z m 42.822449,0 c -0.0878,-0.08784 -0.31583,-0.09723 -0.50664,-0.02086 -0.21087,0.08438 -0.14824,0.147018 0.1597,0.159701 0.27866,0.01147 0.43478,-0.051 0.34694,-0.138835 z M 93.738488,83.787211 c -0.178964,-0.07241 -0.535818,-0.07681 -0.793008,-0.0098 -0.257191,0.06702 -0.110766,0.126263 0.325389,0.13165 0.436154,0.0054 0.646583,-0.04945 0.467619,-0.121856 z m 1.382734,-0.293247 c 0.145385,-0.106813 0.738016,-0.897236 1.316959,-1.756496 3.410364,-5.06162 10.459939,-7.035879 16.145289,-4.521548 1.59381,0.70486 2.23255,0.809663 2.64051,0.433257 0.52651,-0.485779 3.2318,-1.305758 4.8782,-1.478596 4.83257,-0.507321 9.76081,1.883191 12.46583,6.046731 0.55776,0.858504 1.01412,1.446811 1.01412,1.30735 0,-0.506389 -1.61649,-2.785431 -2.77267,-3.909107 -2.18894,-2.127407 -5.14337,-3.459738 -8.31271,-3.748702 -2.07853,-0.189509 -4.15474,0.163136 -6.51147,1.105977 l -1.742,0.696911 -1.54874,-0.695034 c -2.24662,-1.008221 -5.25612,-1.392244 -7.6117,-0.971278 -3.67619,0.656972 -7.554928,3.197263 -9.219944,6.0384 -0.363743,0.620679 -0.857849,1.243223 -1.098016,1.383432 -0.240167,0.140209 -0.317715,0.256723 -0.172331,0.258917 0.145385,0.0021 0.383288,-0.0834 0.528673,-0.190214 z"
         id="path1082" />
      <path
         style="fill:#aff5f4;stroke-width:0.264336;fill-rule:evenodd"
         d="m 109.9477,140.76646 c -7.04217,-0.74235 -15.286204,-3.79726 -21.226061,-7.86555 -7.940396,-5.43848 -14.17918,-13.60534 -16.870185,-22.08387 -1.470273,-4.63238 -1.819678,-7.04242 -1.824159,-12.58229 -0.0043,-5.268232 0.390408,-7.911387 1.874828,-12.555966 0.736887,-2.305632 2.908978,-6.814098 4.470892,-9.279935 5.486837,-8.662217 14.302307,-15.296927 24.827935,-18.686033 4.93575,-1.589243 6.45322,-1.771845 14.72442,-1.771845 8.44709,0 10.19918,0.237918 15.68675,2.130113 10.9833,3.787203 19.67299,10.911267 25.06411,20.54831 1.68982,3.020679 2.04099,3.814392 3.23643,7.314966 1.42523,4.173445 1.79673,6.716749 1.79673,12.30039 0,5.45358 -0.37216,8.1108 -1.73758,12.4062 -1.48917,4.68469 -3.67418,8.66011 -7.44259,13.54107 -6.82158,8.83551 -18.78996,15.26292 -30.89788,16.59317 -2.9243,0.32128 -8.59318,0.31704 -11.68364,-0.009 z m 0.10851,-22.55639 c 0.945,-0.20316 2.22988,-0.60112 2.85528,-0.88434 l 1.13709,-0.51496 1.58957,0.64205 c 5.22165,2.10912 10.94314,0.98399 14.72385,-2.89545 0.60208,-0.61781 1.54318,-1.76583 2.09133,-2.55116 0.88736,-1.27132 1.15277,-1.46737 2.42078,-1.78817 4.35763,-1.10243 8.0269,-4.74734 9.38415,-9.32182 0.61337,-2.067298 0.56367,-5.860704 -0.10514,-8.026066 -1.25881,-4.075555 -4.61975,-7.412749 -8.72477,-8.663132 -1.58131,-0.481666 -1.77445,-0.622895 -2.35915,-1.725074 -0.80879,-1.524575 -2.99569,-3.754692 -4.6092,-4.700267 -3.90002,-2.285567 -8.10242,-2.558047 -12.47472,-0.808851 l -1.742,0.696911 -1.54874,-0.695034 c -5.92687,-2.659818 -13.278694,-0.44641 -16.826318,5.065885 -0.533572,0.829063 -1.127031,1.429566 -1.479763,1.497331 -2.89606,0.556362 -3.814295,0.82285 -5.140958,1.492001 -3.188253,1.60811 -5.683508,4.570266 -6.717493,7.974434 -0.467692,1.539776 -0.539806,2.320276 -0.444481,4.810687 0.105627,2.759505 0.183479,3.119465 1.085485,5.018835 1.906121,4.01374 5.568857,6.86359 9.827384,7.64634 1.810682,0.33282 1.859136,0.36326 2.830702,1.7784 3.336398,4.85966 8.757392,7.12735 14.227112,5.95145 z"
         id="path1080" />
      <path
         style="fill:#88f9f7;stroke-width:0.264336;fill-rule:evenodd"
         d="m 110.71705,140.76645 c -9.22734,-0.96183 -19.171832,-5.28054 -26.326512,-11.43312 -1.997319,-1.71757 -5.600784,-5.8524 -7.302541,-8.37936 -1.603772,-2.38147 -4.28058,-7.90373 -5.096666,-10.51443 -1.376086,-4.40218 -1.700226,-6.771 -1.688137,-12.336958 0.0098,-4.496722 0.08401,-5.326719 0.709322,-7.930084 0.384127,-1.599233 1.042014,-3.918783 1.461971,-5.154554 3.308696,-9.736214 11.550803,-18.958262 21.465982,-24.018168 2.957884,-1.509465 9.325161,-3.797005 11.566351,-4.155386 0.60688,-0.09704 1.04884,-0.264744 0.98214,-0.372668 -0.23585,-0.381615 2.40058,-0.530751 9.38265,-0.530751 6.98206,0 9.6185,0.149136 9.38264,0.530751 -0.0667,0.107924 0.37527,0.275624 0.98214,0.372668 1.92958,0.308552 8.21048,2.484861 10.77827,3.734632 8.05975,3.922761 15.2672,10.686081 19.49519,18.29386 2.08355,3.749112 3.77057,8.296155 4.48654,12.092625 0.62898,3.335173 0.62118,11.238623 -0.0144,14.631403 -1.50841,8.05143 -6.39748,17.04965 -12.19899,22.45199 -10.18728,9.48632 -24.18864,14.16408 -38.06591,12.71755 z m 0.8395,-22.71322 c 2.39921,-0.86486 2.47919,-0.86674 4.71561,-0.11033 2.7322,0.9241 6.21376,0.97733 8.89084,0.13595 3.07782,-0.96733 5.86506,-3.19415 7.53343,-6.01873 0.56482,-0.95625 0.86314,-1.16958 2.15832,-1.54338 4.51997,-1.30453 7.93287,-4.49091 9.47444,-8.84562 0.48618,-1.37338 0.60936,-2.280143 0.61382,-4.518417 0.009,-4.276392 -1.04452,-6.894906 -3.93552,-9.786259 -1.78112,-1.781332 -3.95023,-3.090317 -6.06426,-3.659565 -0.93786,-0.252539 -1.20745,-0.475287 -1.54078,-1.273058 -0.58325,-1.39592 -3.90201,-4.590897 -5.63572,-5.42553 -3.62063,-1.743017 -7.69048,-1.954637 -11.23428,-0.584147 -1.0177,0.393572 -2.02878,0.716781 -2.24686,0.718243 -0.21808,0.0015 -1.16969,-0.325073 -2.11469,-0.725634 -3.39006,-1.436955 -7.71287,-1.173215 -11.41687,0.696557 -1.901278,0.959763 -4.78965,3.703015 -5.375687,5.1056 -0.407514,0.975318 -0.57213,1.054239 -2.798261,1.341532 -2.092831,0.270088 -4.858582,1.797602 -6.836528,3.775785 -2.92266,2.923011 -3.974273,5.526095 -3.965731,9.816476 0.0062,3.103827 0.561633,5.192757 1.974627,7.426117 1.926447,3.04491 5.676503,5.54432 9.232483,6.15343 1.759536,0.3014 1.817229,0.33703 2.650797,1.63713 1.161044,1.81087 3.682732,4.08005 5.54115,4.98629 3.21786,1.56917 7.21632,1.83789 10.37967,0.69756 z"
         id="path1078" />
      <path
         style="fill:#73f6f4;stroke-width:0.264336;fill-rule:evenodd"
         d="m 110.45272,140.50211 c -7.17626,-0.74803 -15.374683,-3.73594 -21.440288,-7.8139 -6.040974,-4.0614 -10.658575,-9.40206 -14.372429,-16.623 -1.736928,-3.37715 -2.931298,-6.8488 -3.633433,-10.56122 -0.542859,-2.87027 -0.624859,-11.774453 -0.124338,-13.501522 l 0.312336,-1.077727 6.500996,-2.581308 c 6.461761,-2.565731 10.961155,-4.194877 11.127114,-4.028919 0.04773,0.04773 -0.574186,0.542016 -1.382041,1.098406 -5.99233,4.127075 -7.81416,11.840458 -4.384463,18.56322 0.752537,1.47509 3.195994,4.0698 4.8047,5.1021 1.372099,0.88047 4.831574,2.10898 5.938888,2.10898 0.48328,0 0.897074,0.37384 1.682366,1.51993 2.870867,4.18988 6.772862,6.26432 11.798552,6.27255 2.24954,0.004 2.96574,-0.10983 4.80718,-0.76189 l 2.16381,-0.76622 1.40473,0.61001 c 1.74558,0.75803 5.97708,1.0267 8.46409,0.53741 3.30729,-0.65067 6.49141,-2.89487 8.68972,-6.1246 0.84599,-1.2429 1.17842,-1.51888 2.01591,-1.67357 3.39541,-0.62717 7.37219,-3.87092 9.06154,-7.39126 1.65924,-3.45761 1.96487,-6.266321 1.0648,-9.785563 -1.20696,-4.719148 -4.63719,-8.434812 -9.18357,-9.947751 -1.79786,-0.59829 -2.34127,-1.037347 -1.28389,-1.037347 1.96589,0 25.27217,4.868355 25.56359,5.339875 0.10754,0.17401 0.32885,1.081928 0.49179,2.017596 1.25724,7.219624 0.92691,14.18422 -0.95961,20.23223 -0.92962,2.98028 -3.15725,7.49522 -5.1542,10.44647 -0.92404,1.36562 -2.05456,3.03627 -2.51226,3.71254 -1.03724,1.53257 -4.88312,5.19532 -7.44523,7.09072 -9.53412,7.05316 -21.77335,10.29994 -34.01636,9.02376 z M 93.865625,82.728191 c 0.181731,-0.07333 0.479109,-0.07333 0.66084,0 0.181731,0.07333 0.03304,0.133328 -0.33042,0.133328 -0.363462,0 -0.512151,-0.06 -0.33042,-0.133328 z"
         id="path1076" />
      <path
         style="fill:#5cf3ef;stroke-width:0.264336;fill-rule:evenodd"
         d="m 110.21204,140.23778 c -9.62817,-1.01494 -19.584796,-5.53907 -26.58944,-12.08181 -1.315488,-1.22874 -1.893583,-1.9398 -1.718184,-2.11338 0.145385,-0.14387 2.405458,-0.86632 5.022386,-1.60544 14.586368,-4.11975 22.389728,-5.27521 36.346218,-5.38188 7.4298,-0.0568 8.33182,-0.0135 11.49862,0.55177 6.33482,1.13076 16.48415,4.02558 16.73319,4.77269 0.067,0.20114 -0.97764,1.42775 -2.38963,2.80574 -10.20441,9.95877 -24.08169,14.6147 -38.90316,13.05231 z"
         id="path1074" />
    </g>
    <g
       id="g900"
       transform="matrix(0.91068908,0,0,0.91068908,-58.847506,-93.594656)">
      <path
         style="fill:#efe09e;stroke-width:0.264779"
         d="m 93.620495,150.34786 c 0.546106,-0.0571 1.439733,-0.0571 1.985839,0 0.546106,0.0571 0.09929,0.10386 -0.992919,0.10386 -1.092212,0 -1.539026,-0.0467 -0.99292,-0.10386 z m -10.814887,-4.63933 -0.5044,-0.59575 0.595751,0.5044 c 0.55986,0.47401 0.716291,0.6871 0.504401,0.6871 -0.05024,0 -0.318332,-0.26809 -0.595752,-0.59575 z m 23.325682,0.0662 c 0.26358,-0.29125 0.53881,-0.52955 0.61163,-0.52955 0.0728,0 -0.0833,0.2383 -0.34686,0.52955 -0.26358,0.29126 -0.53882,0.52956 -0.61163,0.52956 -0.0728,0 0.0833,-0.2383 0.34686,-0.52956 z m 4.30753,-7.4584 c 0.15387,-0.15386 0.43605,-0.22765 0.62707,-0.16398 0.1983,0.0661 0.0783,0.18612 -0.27975,0.27975 -0.44042,0.11517 -0.5438,0.0807 -0.34732,-0.11577 z m -33.763581,-1.94124 c 0.0029,-0.58251 0.05716,-0.78963 0.120495,-0.46027 0.06333,0.32936 0.06093,0.80596 -0.0053,1.05911 -0.06627,0.25315 -0.11809,-0.0163 -0.115152,-0.59884 z m 35.739771,-0.13239 c 0,-0.5097 0.0545,-0.71821 0.12109,-0.46336 0.0666,0.25485 0.0666,0.67188 0,0.92673 -0.0666,0.25485 -0.12109,0.0463 -0.12109,-0.46337 z m -34.196968,-5.97958 c 0.0127,-0.30845 0.07545,-0.37119 0.159971,-0.15997 0.07649,0.19113 0.06708,0.41951 -0.0209,0.50749 -0.08798,0.088 -0.150564,-0.0684 -0.139067,-0.34752 z m 32.567778,-0.26478 c 0.0127,-0.30845 0.0754,-0.37119 0.15996,-0.15997 0.0765,0.19114 0.0671,0.41951 -0.0209,0.50749 -0.088,0.088 -0.15056,-0.0684 -0.13906,-0.34752 z m -4.8207,-11.42961 c -0.32935,-0.41996 -0.31998,-0.42932 0.1,-0.1 0.44106,0.3459 0.58132,0.56333 0.36339,0.56333 -0.055,0 -0.26349,-0.20851 -0.46336,-0.46336 z m -22.604798,-0.33097 c 0.263584,-0.29126 0.538818,-0.52956 0.611632,-0.52956 0.07281,0 -0.08327,0.2383 -0.346853,0.52956 -0.263584,0.29125 -0.538818,0.52955 -0.611632,0.52955 -0.07281,0 0.08327,-0.2383 0.346853,-0.52955 z m 1.588672,-1.58868 c 0.263583,-0.29125 0.538818,-0.52955 0.611632,-0.52955 0.07281,0 -0.08327,0.2383 -0.346853,0.52955 -0.263584,0.29126 -0.538818,0.52956 -0.611632,0.52956 -0.07282,0 0.08327,-0.2383 0.346853,-0.52956 z m 7.761324,-3.62299 c 0.191136,-0.0765 0.419507,-0.0671 0.507493,0.0209 0.08798,0.088 -0.0684,0.15057 -0.347522,0.13907 -0.308454,-0.0127 -0.371193,-0.0754 -0.159971,-0.15997 z m 4.550883,-4.15556 c 0,-0.055 0.208513,-0.26349 0.463363,-0.46336 0.419954,-0.32935 0.42932,-0.31998 0.09997,0.1 -0.345898,0.44105 -0.563332,0.58132 -0.563332,0.36339 z m -1.811645,-0.95914 c 0,-0.36407 0.0601,-0.51301 0.133552,-0.33098 0.07345,0.18204 0.07345,0.47992 0,0.66195 -0.07345,0.18204 -0.133552,0.0331 -0.133552,-0.33097 z m -1.080016,-0.68401 c 0.01271,-0.30846 0.07545,-0.3712 0.159969,-0.15997 0.07649,0.19113 0.06708,0.41951 -0.02089,0.50749 -0.08798,0.088 -0.150564,-0.0684 -0.139067,-0.34752 z"
         id="path914" />
      <path
         style="fill:#ebd162;stroke-width:0.264779"
         d="m 104.79074,117.37721 -0.77768,-0.86053 0.86053,0.77768 c 0.80213,0.72491 0.98223,0.94339 0.77768,0.94339 -0.0456,0 -0.43281,-0.38724 -0.86053,-0.86054 z m -11.368829,-4.43504 c 0.09,-0.14563 0.216186,-0.26478 0.280405,-0.26478 0.06422,0 0.116763,0.11915 0.116763,0.26478 0,0.14563 -0.126183,0.26478 -0.280406,0.26478 -0.154223,0 -0.206766,-0.11915 -0.116762,-0.26478 z m 0.947629,-1.21357 c 0.01271,-0.30845 0.07545,-0.37119 0.159969,-0.15997 0.07649,0.19114 0.06708,0.41951 -0.02089,0.5075 -0.08798,0.088 -0.150564,-0.0684 -0.139067,-0.34753 z m -1.894396,-1.89758 -0.641905,-0.72814 0.728141,0.64191 c 0.680558,0.59996 0.849566,0.81437 0.641906,0.81437 -0.04743,0 -0.375091,-0.32766 -0.728142,-0.72814 z m 1.894396,-1.80932 c 0.01271,-0.30845 0.07545,-0.37119 0.159969,-0.15997 0.07649,0.19114 0.06708,0.41951 -0.02089,0.50749 -0.08798,0.088 -0.150564,-0.0684 -0.139067,-0.34752 z"
         id="path912" />
      <path
         style="fill:#eac629;stroke-width:0.264779"
         d="m 88.258727,147.74042 c -2.045165,-0.53712 -5.078355,-2.07257 -6.042675,-3.0589 -0.933158,-0.95446 -2.487003,-3.80538 -2.975908,-5.46007 -0.240623,-0.81438 -0.47204,-1.12531 -0.837545,-1.12531 -1.753675,0 -1.968127,-1.45748 -0.759703,-5.16318 0.427403,-1.31065 0.970692,-3.4379 1.207308,-4.72721 1.315154,-7.16623 5.936766,-12.76055 12.038172,-14.57186 0.790981,-0.23482 1.773972,-0.42694 2.184424,-0.42694 0.410455,0 0.746279,-0.0723 0.746279,-0.16068 0,-0.36203 -2.218589,-2.91301 -3.044547,-3.50069 -0.527214,-0.37512 -0.831061,-0.78214 -0.747139,-1.00083 0.250952,-0.65398 0.662044,-0.4043 2.575189,1.56405 l 1.878443,1.93265 0.03324,-2.74699 c 0.03043,-2.51453 0.311714,-3.64178 0.789515,-3.16398 0.0933,0.0933 0.149444,1.396 0.124766,2.89491 l -0.04486,2.72528 0.769063,-1.19151 c 0.422984,-0.65532 1.090001,-1.48625 1.482262,-1.84651 0.599957,-0.551 0.752041,-0.59304 0.957821,-0.26478 0.178284,0.28441 0.02969,0.59246 -0.547948,1.13595 -0.703279,0.6617 -2.276318,3.31412 -2.059179,3.47213 0.0462,0.0336 0.752986,0.20543 1.570638,0.38181 2.262682,0.48809 5.103807,1.9658 6.457497,3.35864 3.35855,3.4557 5.47911,11.12007 4.64846,16.80095 -0.62342,4.26362 -2.11506,7.41829 -4.76682,10.08137 -1.90439,1.91253 -4.514537,3.37346 -7.285657,4.07786 -1.985347,0.50467 -6.400486,0.49613 -8.351092,-0.0162 z m 8.027318,-6.71297 c 0.516954,-0.57221 1.06633,-1.49562 1.220839,-2.05203 0.382393,-1.37709 0.356744,-3.40473 -0.0471,-3.72333 -0.182035,-0.14361 -1.462902,-0.26111 -2.84637,-0.26111 -1.383469,0 -2.664336,0.1175 -2.846371,0.26111 -0.403843,0.3186 -0.429492,2.34624 -0.0471,3.72333 0.394192,1.41956 1.959415,3.0924 2.89347,3.0924 0.516641,0 1.009892,-0.3068 1.67263,-1.04037 z m -4.403677,-7.74348 c 0.767197,-0.72074 0.871567,-2.93596 0.174611,-3.70609 -0.554004,-0.61217 -2.130104,-0.63821 -2.784483,-0.046 -0.706443,0.63932 -0.67736,3.07554 0.04535,3.79825 0.693166,0.69316 1.798734,0.67327 2.564526,-0.0462 z m 7.94336,0 c 0.767192,-0.72074 0.871562,-2.93596 0.174612,-3.70609 -0.554006,-0.61217 -2.130106,-0.63821 -2.784485,-0.046 -0.706443,0.63932 -0.677359,3.07554 0.04535,3.79825 0.693167,0.69316 1.798734,0.67327 2.564527,-0.0462 z m 9.588252,4.20588 c -0.49483,-0.33347 -0.88906,-0.69891 -0.87607,-0.81209 0.013,-0.11319 0.54081,-1.44634 1.17294,-2.96257 l 1.14931,-2.75678 0.74671,2.15491 c 0.89819,2.59206 0.98366,4.30783 0.23456,4.70873 -0.78633,0.42083 -1.44346,0.3309 -2.42745,-0.3322 z"
         id="path910" />
      <path
         style="fill:#cdae25;stroke-width:0.264779"
         d="m 91.502265,148.22963 c 0.546106,-0.0571 1.439734,-0.0571 1.98584,0 0.546106,0.0571 0.09929,0.10386 -0.99292,0.10386 -1.092212,0 -1.539026,-0.0467 -0.99292,-0.10386 z m -2.498848,-0.25277 c 0.191136,-0.0765 0.419507,-0.0671 0.507493,0.0209 0.08798,0.088 -0.0684,0.15056 -0.347522,0.13907 -0.308454,-0.0127 -0.371193,-0.0754 -0.159971,-0.15997 z m 6.619466,0 c 0.191136,-0.0765 0.419507,-0.0671 0.507493,0.0209 0.08798,0.088 -0.0684,0.15056 -0.347522,0.13907 -0.308453,-0.0127 -0.371193,-0.0754 -0.159971,-0.15997 z m -11.721696,-1.3895 c -0.08378,-0.13557 -0.0511,-0.30905 0.07263,-0.38552 0.123732,-0.0765 0.224968,0.0344 0.224968,0.24648 0,0.44646 -0.08349,0.48547 -0.297601,0.13904 z m 22.627263,-1.44216 c 0,-0.055 0.20852,-0.2635 0.46337,-0.46337 0.41995,-0.32935 0.42932,-0.31998 0.1,0.1 -0.3459,0.44106 -0.56334,0.58132 -0.56334,0.3634 z m -2.64778,-1.35632 c 0.34202,-0.36407 0.68144,-0.66194 0.75425,-0.66194 0.0728,0 -0.14745,0.29787 -0.48947,0.66194 -0.34203,0.36408 -0.68145,0.66195 -0.75426,0.66195 -0.0728,0 0.14745,-0.29787 0.48948,-0.66195 z M 93.7276,141.86924 c -0.0675,-0.10922 0.331114,-0.19858 0.885815,-0.19858 0.5547,0 0.953316,0.0894 0.885814,0.19858 -0.0675,0.10922 -0.466119,0.19858 -0.885814,0.19858 -0.419696,0 -0.818312,-0.0894 -0.885815,-0.19858 z m 14.88531,-4.76602 c -0.32935,-0.41995 -0.31999,-0.42932 0.1,-0.1 0.25485,0.19987 0.46336,0.40839 0.46336,0.46337 0,0.21792 -0.21743,0.0777 -0.56333,-0.3634 z m -0.49578,-0.87615 c 0,-0.15423 0.11915,-0.20677 0.26477,-0.11677 0.14563,0.09 0.26478,0.21619 0.26478,0.28041 0,0.0642 -0.11915,0.11676 -0.26478,0.11676 -0.14562,0 -0.26477,-0.12618 -0.26477,-0.2804 z m 0.28568,-1.19794 c 0.0127,-0.30846 0.0754,-0.3712 0.15997,-0.15998 0.0765,0.19114 0.0671,0.41951 -0.0209,0.5075 -0.088,0.088 -0.15057,-0.0684 -0.13907,-0.34752 z m 0.28568,-1.699 c 0,-0.36407 0.0601,-0.51301 0.13355,-0.33098 0.0734,0.18204 0.0734,0.47992 0,0.66195 -0.0735,0.18204 -0.13355,0.0331 -0.13355,-0.33097 z m 0,-5.29557 c 0,-0.36408 0.0601,-0.51301 0.13355,-0.33098 0.0734,0.18204 0.0734,0.47991 0,0.66195 -0.0735,0.18203 -0.13355,0.0331 -0.13355,-0.33097 z"
         id="path908" />
      <path
         style="fill:#e67b21;stroke-width:0.264779"
         d="m 93.155342,140.28057 c -1.416695,-1.40167 -2.263524,-4.45753 -1.388298,-5.00981 0.468584,-0.29568 5.293778,-0.29783 5.692741,-0.003 0.856209,0.63373 0.105014,3.40443 -1.323059,4.87995 -1.044457,1.07917 -1.982366,1.12082 -2.981384,0.13239 z"
         id="path906" />
      <path
         style="fill:#bb9e20;stroke-width:0.264779"
         d="m 91.171292,149.98533 c -2.420943,-0.47264 -5.43197,-1.98174 -7.546191,-3.78208 -0.703978,-0.59946 -0.59856,-0.5745 0.926725,0.21945 2.784367,1.44933 4.498184,1.84805 7.943359,1.84805 3.475591,0 5.161039,-0.39917 8.031445,-1.90213 3.12486,-1.63619 6.01258,-5.00816 7.20766,-8.41632 l 0.46825,-1.33534 0.56861,0.541 c 0.31273,0.29756 0.78781,0.66552 1.05572,0.8177 0.46457,0.26387 0.46678,0.3379 0.0477,1.59968 -1.74461,5.25252 -6.54391,9.40717 -12.053737,10.43466 -1.686989,0.31459 -4.974205,0.30239 -6.649521,-0.0247 z m 2.337397,-8.45675 c -0.517483,-0.30196 -1.399005,-1.68956 -1.675945,-2.6381 -0.143672,-0.49209 -0.0068,-0.39129 0.533375,0.39284 0.916801,1.33084 1.411461,1.70638 2.261549,1.71697 0.664247,0.008 1.920074,-1.07004 2.61131,-2.2422 0.286006,-0.48499 0.29754,-0.47385 0.137065,0.13239 -0.256282,0.96817 -1.147646,2.35029 -1.709773,2.65114 -0.614864,0.32906 -1.581301,0.32322 -2.157581,-0.0131 z m 15.059671,-6.35494 c 0.4046,-2.2688 0.23593,-8.18548 -0.29031,-10.18404 -0.51959,-1.97329 -1.87935,-5.14153 -2.81393,-6.55647 -0.49284,-0.74615 -0.44076,-0.71999 0.4016,0.20178 2.19536,2.40232 4.02691,6.43038 4.63518,10.19398 l 0.32096,1.98584 -1.11348,2.64779 c -0.61241,1.45628 -1.16685,2.70289 -1.2321,2.77023 -0.0652,0.0673 -0.0238,-0.40925 0.0921,-1.05911 z m -18.658616,-1.59088 c -0.329782,-0.13113 -0.717021,-0.54725 -0.860531,-0.92471 -0.361913,-0.95189 -0.335001,-0.99067 0.268629,-0.38704 0.692965,0.69297 1.967278,0.68051 2.673925,-0.0261 l 0.555696,-0.5557 -0.186944,0.62189 c -0.352796,1.17361 -1.370018,1.70144 -2.450775,1.2717 z m 7.943359,0 c -0.329782,-0.13113 -0.717021,-0.54725 -0.860531,-0.92471 -0.361912,-0.95189 -0.335,-0.99067 0.268629,-0.38704 0.692965,0.69297 1.967279,0.68051 2.673925,-0.0261 l 0.555694,-0.5557 -0.18694,0.62189 c -0.352798,1.17361 -1.370019,1.70144 -2.450777,1.2717 z"
         id="path904" />
      <path
         style="fill:#070501;stroke-width:0.264779"
         d="m 89.317842,132.27101 c -0.294199,-0.29419 -0.529558,-0.88259 -0.529558,-1.32389 0,-0.4413 0.235359,-1.02969 0.529558,-1.32389 1.146009,-1.14601 3.177343,-0.29962 3.177343,1.32389 0,1.01921 -0.834243,1.85345 -1.85345,1.85345 -0.441299,0 -1.029695,-0.23536 -1.323893,-0.52956 z m 7.943359,0 c -0.294198,-0.29419 -0.529557,-0.88259 -0.529557,-1.32389 0,-0.4413 0.235359,-1.02969 0.529557,-1.32389 0.294198,-0.2942 0.882595,-0.52956 1.323893,-0.52956 0.441299,0 1.029695,0.23536 1.323893,0.52956 0.294203,0.2942 0.529553,0.88259 0.529553,1.32389 0,0.4413 -0.23535,1.0297 -0.529553,1.32389 -0.294198,0.2942 -0.882594,0.52956 -1.323893,0.52956 -0.441298,0 -1.029695,-0.23536 -1.323893,-0.52956 z"
         id="path902" />
    </g>
    <path
       style="fill:#0066ff;stroke-width:0.1002"
       d="m 48.259153,81.163802 c -1.946716,-0.249165 -4.321219,-1.197222 -5.811644,-2.320416 -4.705137,-3.545799 -6.25854,-9.849651 -3.713084,-15.068036 1.453308,-2.979395 3.88949,-5.154812 6.992166,-6.243733 2.566313,-0.900676 5.521308,-0.88563 8.093704,0.04125 3.074205,1.107675 5.780854,3.64596 7.068979,6.629291 1.862063,4.312565 1.066201,9.399888 -2.009832,12.847257 -2.348768,2.632314 -5.321589,4.036316 -8.816675,4.163935 -0.606215,0.02215 -1.417842,-2.07e-4 -1.803614,-0.04956 z m 3.657328,-3.006814 c 1.125991,-0.269572 2.709005,-1.051283 3.631119,-1.793083 3.026485,-2.434681 4.261936,-6.412322 3.121549,-10.050062 -1.017763,-3.246563 -3.627525,-5.650354 -7.003171,-6.450453 -0.987543,-0.234072 -2.878763,-0.234833 -3.896925,-0.002 -2.896965,0.663697 -5.190557,2.472596 -6.475792,5.107304 -0.749398,1.536241 -0.928729,2.322513 -0.928729,4.071955 0,1.162275 0.04202,1.607727 0.210068,2.226862 0.803912,2.961867 2.784428,5.258643 5.530235,6.413332 1.061036,0.446193 1.168973,0.478291 2.154318,0.64059 1.024906,0.168807 2.550878,0.100013 3.657328,-0.16488 z m -7.775955,-7.856326 c -0.381605,-0.166117 -0.702971,-0.600015 -0.786981,-1.062569 -0.08856,-0.48757 0.280596,-1.191189 0.747276,-1.42432 0.320464,-0.160083 0.80297,-0.175207 5.596099,-0.175345 5.80494,-2.08e-4 5.742577,-0.0069 6.138847,0.643122 0.245287,0.402255 0.245287,1.116805 0,1.51906 -0.39658,0.650333 -0.33286,0.643696 -6.138847,0.639354 -4.1786,-0.0029 -5.308645,-0.03146 -5.556394,-0.139302 z"
       id="path883" />
  </g>
  <g
     inkscape:groupmode="layer"
     id="layer2"
     inkscape:label="Warstwa 2">
    <g
       id="g285"
       transform="matrix(0.29700456,0,0,0.29665649,37.223583,1.8610335)">
      <path
         style="fill:#e6af7f;stroke-width:0.264562"
         d="m 85.707569,120.11546 c -6.781562,-0.70299 -12.21039,-2.356 -16.667437,-5.07504 -6.883289,-4.19918 -10.759609,-11.94583 -10.231444,-20.447089 0.188072,-3.027183 0.698276,-5.029455 1.955016,-7.672366 1.623382,-3.413951 5.936579,-7.285493 10.892848,-9.777462 l 1.690454,-0.849947 -1.425892,-0.81086 C 68.369866,73.4632 64.818196,69.990881 63.379241,67.131653 61.414126,63.226944 60.480347,57.974558 61.068374,54.133322 62.33048,45.888711 67.193301,40.231909 76.081931,36.668408 c 4.039425,-1.619426 8.277222,-2.408347 13.858639,-2.579966 14.09723,-0.433465 24.2954,3.368323 29.36411,10.946671 1.81481,2.713355 2.66405,5.47575 2.84356,9.249465 0.16917,3.556484 -0.27998,5.795963 -1.79663,8.958044 -1.85374,3.864866 -5.10616,6.997492 -10.19795,9.822332 l -1.01418,0.562648 1.71059,0.860111 c 3.08739,1.552381 5.37966,3.201651 7.67227,5.520131 2.55709,2.585948 4.0424,5.198063 5.05923,8.89734 0.85677,3.116996 0.85887,9.127459 0.004,12.302156 -1.14455,4.25191 -3.16932,7.62796 -6.42613,10.71478 -4.99969,4.73872 -12.18667,7.51018 -21.576606,8.32041 -3.919004,0.33816 -5.595629,0.31659 -9.875565,-0.12707 z m 10.100666,-0.92166 c 11.320395,-1.07351 19.382585,-5.17905 24.059325,-12.25182 2.21386,-3.34808 3.15254,-6.37616 3.33592,-10.761327 0.19395,-4.637977 -0.62962,-8.360323 -2.61125,-11.802226 -2.03918,-3.541854 -6.05186,-6.950705 -10.88214,-9.244597 -1.65042,-0.783779 -2.04383,-1.084537 -2.04383,-1.562464 0,-0.440994 0.28659,-0.720104 1.12439,-1.095018 1.9966,-0.893481 5.57812,-3.40792 7.27734,-5.109128 1.87747,-1.879669 3.44988,-4.38138 4.33846,-6.902505 0.51491,-1.460938 0.60716,-2.256993 0.61315,-5.29125 0.006,-3.234276 -0.0631,-3.775836 -0.73553,-5.734162 -0.83818,-2.440964 -2.56232,-5.052606 -4.72042,-7.150267 -1.34574,-1.308042 -4.99982,-3.619789 -6.70686,-4.243077 -5.31051,-1.939018 -7.81219,-2.482773 -13.680267,-2.97349 -10.212094,-0.853984 -20.982692,2.132007 -26.74898,7.415761 -3.944659,3.614564 -6.094033,7.936034 -6.431993,12.931969 -0.188768,2.790476 0.364778,6.186363 1.480314,9.081407 1.142815,2.965843 1.424629,3.43305 3.243841,5.377793 1.976207,2.112572 3.999817,3.702328 6.373572,5.007108 1.098935,0.604049 1.76723,1.140365 1.76723,1.418221 0,0.293715 -0.702604,0.794394 -2.050359,1.4611 -3.334554,1.649531 -5.612728,3.262047 -8.030676,5.684204 -3.814335,3.820973 -5.208402,7.689422 -4.913754,13.635366 0.45813,9.245042 5.278715,15.632822 14.672208,19.442212 5.623083,2.28036 14.114621,3.34476 21.270309,2.66619 z m -7.984166,-13.4619 c -4.771358,-1.55323 -7.286104,-4.07239 -8.609461,-8.62458 -0.624177,-2.147094 -0.412625,-6.698654 0.422969,-9.100283 0.609605,-1.752097 3.131211,-5.770434 4.315626,-6.877218 l 0.67652,-0.632177 5.102625,2.046348 c 7.86452,3.153974 11.940722,5.667776 13.203202,8.14243 0.29613,0.580463 0.71464,1.90054 0.93002,2.933506 1.22539,5.877026 -1.81953,10.672444 -7.758922,12.219464 -2.121899,0.55268 -6.426175,0.49682 -8.282579,-0.10749 z m 8.193475,-0.98815 c 2.069003,-0.58657 3.194208,-1.22115 4.616786,-2.60373 1.83224,-1.78074 2.3754,-3.180768 2.36337,-6.091648 -0.0136,-3.28053 -0.67425,-4.95556 -2.64875,-6.715406 -1.78841,-1.593979 -6.261604,-3.91797 -11.564661,-6.00827 L 84.850101,81.77396 83.95542,82.826228 c -4.24039,4.987284 -5.341835,11.448866 -2.799193,16.421368 1.372349,2.683834 4.550573,5.001164 7.726092,5.633304 0.800302,0.15932 1.6932,0.34254 1.984219,0.40717 0.850386,0.18884 3.583756,-0.1 5.151006,-0.54432 z m -2.33133,-36.872729 c -9.1455,-3.548458 -12.013397,-5.997219 -12.398119,-10.586167 -0.199612,-2.380978 0.241821,-4.030898 1.538593,-5.750721 3.299613,-4.376052 12.323855,-4.991432 16.71091,-1.139547 0.536032,0.47064 1.356142,1.630736 1.822472,2.577989 1.99748,4.057452 1.08636,9.891516 -2.35401,15.073078 -0.516431,0.777803 -1.011401,1.41105 -1.099932,1.407213 -0.08853,-0.0038 -1.987491,-0.715665 -4.219914,-1.581845 z m 4.672057,-0.858384 c 2.034059,-2.967116 2.948019,-5.828418 2.954579,-9.249764 0.009,-4.585466 -2.154071,-7.358977 -6.677865,-8.563285 -3.904162,-1.039349 -8.864288,0.303999 -10.882625,2.947333 -1.245364,1.631004 -1.574861,2.752921 -1.424333,4.849771 0.296048,4.123948 2.865804,6.357638 11.037492,9.594034 2.117786,0.838748 3.934089,1.52979 4.036232,1.535651 0.102142,0.0058 0.532574,-0.495325 0.95652,-1.11374 z"
         id="path299" />
      <path
         style="fill:#ffd42a;stroke-width:0.264562"
         d="M 80.945444,131.51037 C 73.805802,130.653 66.584839,128.53858 60.479985,125.51772 57.658756,124.12169 56.981347,123.64763 54.922969,121.62888 45.592497,112.47802 39.696673,101.30378 37.516725,88.639188 36.66872,83.712621 36.660307,74.30108 37.499561,69.43599 39.655023,56.940931 45.209084,46.180198 54.083067,37.306213 64.839969,26.549311 78.407359,20.640384 93.644444,20.076271 c 7.563026,-0.280001 14.617796,0.807738 21.951516,3.384591 5.7905,2.034612 9.45939,3.988218 12.11159,6.449162 9.67588,8.978138 16.12508,21.808697 17.93892,35.689162 0.54466,4.168081 0.40503,12.62833 -0.27331,16.559654 -2.18243,12.648284 -7.7216,23.45632 -16.5419,32.27663 -9.045,9.04499 -20.02079,14.62871 -32.805753,16.68928 -4.320224,0.6963 -11.058162,0.8686 -15.080063,0.38562 z m 15.713714,-10.47006 c 11.042812,-1.04716 19.835902,-5.46163 24.486082,-12.29294 1.68908,-2.48132 2.20769,-3.55726 2.99675,-6.21722 2.64455,-8.91483 0.56784,-17.970368 -5.43857,-23.71503 -1.99488,-1.907949 -4.64071,-3.810118 -6.59791,-4.743442 l -0.95242,-0.454177 2.0266,-1.318379 c 5.9371,-3.862308 9.0325,-8.559647 9.85214,-14.950821 0.56481,-4.404209 -0.58146,-9.335873 -3.00312,-12.920462 -2.16063,-3.198196 -4.62442,-5.296354 -8.44202,-7.189211 -3.9866,-1.976653 -6.4937,-2.78405 -10.79906,-3.477768 -11.377813,-1.833298 -22.285388,-0.196058 -30.086466,4.516017 -4.61188,2.785706 -7.973041,6.901502 -9.632448,11.79509 -0.845952,2.494714 -0.87748,2.736204 -0.87326,6.688873 0.0051,4.761564 0.456277,6.882758 2.233161,10.498758 1.298981,2.643459 4.196327,5.841289 6.978204,7.701925 l 1.902932,1.272758 -1.846488,1.044201 c -4.697151,2.656274 -8.321562,6.353884 -10.042578,10.245408 -1.465009,3.312645 -1.994714,7.776333 -1.388345,11.699232 0.857675,5.548708 2.595464,9.283468 6.031658,12.962908 6.205697,6.645 19.062725,10.13754 32.595158,8.85428 z m -8.173682,-17.13897 c -1.949654,-0.58504 -2.589178,-0.91704 -4.065297,-2.11045 -3.466795,-2.802824 -4.650183,-8.168215 -2.878262,-13.049809 0.644818,-1.776452 2.915978,-5.467142 3.502955,-5.692385 0.467911,-0.179556 8.491832,3.116086 11.20291,4.601337 1.296988,0.710549 2.937869,1.892768 3.781758,2.724674 1.25141,1.233647 1.54309,1.703671 1.81714,2.928265 0.17955,0.80231 0.28119,2.355101 0.22587,3.450649 -0.0833,1.648433 -0.23789,2.213983 -0.89685,3.279819 -1.652428,2.67274 -4.518354,4.08981 -8.589506,4.24711 -1.881512,0.0727 -2.912393,-0.0226 -4.100718,-0.37921 z m 5.820375,-37.900321 c -7.055914,-2.733166 -10.293593,-5.058832 -10.970428,-7.8802 -0.655507,-2.732455 0.183519,-5.035381 2.426509,-6.660195 3.090936,-2.239064 8.902232,-2.195255 11.898,0.08969 3.327738,2.538147 3.756238,7.607013 1.087772,12.867299 -0.696908,1.373794 -1.386156,2.522646 -1.531666,2.553007 -0.145509,0.03036 -1.455094,-0.405961 -2.910187,-0.969603 z"
         id="path297" />
      <path
         style="fill:#99ff55;stroke-width:0.264562"
         d="m 63.591996,106.81431 c -1.356972,-2.30376 -1.538393,-2.74851 -2.249789,-5.51522 -1.100625,-4.280499 -0.733145,-9.721147 0.871797,-12.907162 1.970832,-3.912359 5.356645,-6.942364 10.818522,-9.681631 1.223654,-0.613692 2.315424,-1.249595 2.426154,-1.413115 0.110733,-0.163521 0.170259,-0.707406 0.132281,-1.208636 -0.06434,-0.849134 -0.229539,-1.002591 -2.42095,-2.248781 -6.174347,-3.511168 -8.974688,-7.539698 -10.062283,-14.475458 -0.395307,-2.520944 -0.401339,-3.051956 -0.05855,-5.154185 0.489073,-2.999316 1.209633,-4.885155 2.786552,-7.292927 3.463782,-5.288801 9.436939,-8.724666 18.152178,-10.441454 1.875767,-0.369504 3.616228,-0.463297 8.201438,-0.441981 5.179123,0.02407 6.19082,0.103322 9.182764,0.719258 1.84932,0.380708 4.19287,1.021754 5.2079,1.424548 l 1.84551,0.732348 -3.69114,5.858157 -3.69116,5.858158 -0.72306,-0.720595 c -1.88825,-1.881804 -4.913552,-2.933606 -8.43794,-2.933606 -4.008476,0 -6.966597,1.027539 -9.086719,3.156381 -2.140326,2.149134 -2.922222,4.735762 -2.38834,7.900977 0.601284,3.564821 2.874992,6.101131 7.462945,8.324882 1.27244,0.616746 2.318364,1.210826 2.324274,1.32018 0.0059,0.109357 -5.744638,9.355401 -12.778998,20.546771 l -12.78974,20.347941 z"
         id="path295" />
      <path
         style="fill:#55d400;stroke-width:0.264562"
         d="m 85.046163,118.14473 c -5.630474,-0.678 -11.200507,-2.49036 -15.074432,-4.90488 -2.193459,-1.36712 -5.23425,-4.29452 -5.078703,-4.88932 0.07451,-0.28491 25.006005,-40.155261 25.437345,-40.679296 0.03122,-0.03792 1.677887,0.541654 3.659273,1.287951 2.383634,0.897806 3.815954,1.303335 4.233352,1.198574 0.691537,-0.173564 2.019052,-2.013271 3.337672,-4.625447 2.24929,-4.455817 2.30758,-10.730213 0.12951,-13.939782 l -0.64957,-0.957201 3.64352,-5.797876 c 2.00395,-3.188833 3.78321,-5.798871 3.95392,-5.800088 0.79894,-0.0057 4.59529,2.383851 6.21538,3.912159 2.34479,2.211962 3.75765,4.361049 4.58143,6.968786 2.76662,8.757878 -1.07458,16.524023 -10.65009,21.53239 -1.37797,0.720731 -1.96935,1.187192 -2.08393,1.643729 -0.29033,1.156741 0.27559,1.778148 2.66233,2.923387 7.91077,3.795852 11.91469,8.900615 12.87761,16.418182 0.57273,4.47135 -0.47002,9.679472 -2.68951,13.433032 -0.49812,0.84241 -1.85169,2.52645 -3.00793,3.74232 -3.61858,3.80516 -8.82483,6.49644 -15.22658,7.87111 -2.868032,0.61587 -4.044558,0.72176 -8.862847,0.79771 -3.055697,0.0482 -6.389184,-0.0128 -7.40775,-0.13544 z m 10.5825,-11.25218 c 3.793147,-0.79992 7.171397,-3.24414 8.532187,-6.17318 1.24422,-2.678166 1.0865,-7.562283 -0.33479,-10.367063 -1.44265,-2.846931 -5.431983,-5.335268 -14.170887,-8.839055 -2.380677,-0.95451 -4.650282,-1.735474 -5.043564,-1.735474 -0.806601,0 -2.356419,1.651492 -4.047748,4.313295 -3.119803,4.909928 -3.581862,11.267484 -1.170689,16.107737 1.510427,3.03207 5.260955,5.85033 8.69546,6.53403 0.800302,0.15932 1.6932,0.33655 1.984219,0.39386 1.21971,0.24019 3.827735,0.13027 5.555812,-0.23415 z"
         id="path293" />
      <path
         style="fill:#ffcc00;stroke-width:0.264562"
         d="M 54.224632,121.93638 C 51.19659,119.98379 45.572796,113.87451 42.337979,109.02358 37.523517,101.80381 34.525256,94.083945 33.034454,85.069028 32.217195,80.12704 32.20938,72.447637 33.016545,67.471021 35.138788,54.386215 40.572741,43.662793 49.712506,34.523027 c 9.085885,-9.085885 19.958092,-14.639152 32.555751,-16.62871 13.374185,-2.112196 26.847843,0.378832 38.683503,7.151857 1.29496,0.741053 2.30023,1.401623 2.23392,1.467935 -0.0663,0.06631 -0.93638,-0.289935 -1.93348,-0.791659 -2.87384,-1.446069 -9.1697,-3.542097 -13.21527,-4.399653 -5.15431,-1.092581 -9.165934,-1.440025 -14.392486,-1.246526 -15.237085,0.564113 -28.804475,6.47304 -39.561377,17.229942 -8.873983,8.873985 -14.428044,19.634718 -16.583506,32.129777 -0.839254,4.86509 -0.830841,14.276631 0.01716,19.203198 1.434004,8.330967 4.399315,15.861572 8.959725,22.753812 2.549042,3.85241 4.164281,5.85265 7.317218,9.06126 1.322603,1.34596 2.288032,2.44118 2.145395,2.43381 -0.142636,-0.007 -0.914129,-0.43563 -1.714431,-0.95169 z"
         id="path291" />
      <path
         style="fill:#447821;stroke-width:0.264562"
         d="m 85.443007,121.02065 c -8.829829,-0.77527 -17.008929,-4.15518 -21.379007,-8.83462 -3.436194,-3.67944 -5.173983,-7.4142 -6.031658,-12.962908 -0.606369,-3.922899 -0.07666,-8.386587 1.388345,-11.699232 1.721016,-3.891524 5.345427,-7.589134 10.042578,-10.245408 l 1.846488,-1.044201 -1.902932,-1.272758 c -2.781877,-1.860636 -5.679223,-5.058466 -6.978204,-7.701925 -1.776884,-3.616 -2.228076,-5.737194 -2.233161,-10.498758 -0.0042,-3.952669 0.02731,-4.194159 0.87326,-6.688873 1.659407,-4.893588 5.020568,-9.009384 9.632448,-11.79509 7.801078,-4.712075 18.708653,-6.349315 30.086466,-4.516017 4.30536,0.693718 6.81246,1.501115 10.79906,3.477768 3.8176,1.892857 6.28139,3.991015 8.44202,7.189211 2.42166,3.584589 3.56793,8.516253 3.00312,12.920462 -0.81964,6.391174 -3.91504,11.088513 -9.85214,14.950821 l -2.0266,1.318379 0.95242,0.454177 c 1.9572,0.933324 4.60303,2.835493 6.59791,4.743442 6.00641,5.744662 8.08312,14.8002 5.43857,23.71503 -0.78906,2.65996 -1.30767,3.7359 -2.99675,6.21722 -6.22513,9.14499 -19.47079,13.69842 -35.702233,12.27328 z m 10.140128,-0.77812 c 7.289665,-0.62901 12.440035,-2.17116 17.638695,-5.28147 3.66115,-2.19043 7.42148,-6.36432 9.14098,-10.14629 1.35418,-2.97845 1.82946,-5.551946 1.81446,-9.824648 -0.0163,-4.647834 -0.48861,-6.805659 -2.2873,-10.450219 -1.86214,-3.77314 -5.94422,-7.490008 -11.0399,-10.05219 l -1.71059,-0.860111 1.01418,-0.562648 c 1.69145,-0.938387 4.45361,-2.841372 5.71403,-3.936674 2.88338,-2.505634 5.05697,-6.134157 5.95991,-9.949296 0.65499,-2.767488 0.43368,-7.052818 -0.51721,-10.014926 -2.65601,-8.273692 -11.23867,-13.621977 -23.96207,-14.931965 -4.366964,-0.449619 -11.382998,-0.137618 -15.313733,0.680997 -5.706531,1.18844 -11.035677,3.69799 -14.400732,6.781453 -3.688842,3.380154 -5.7874,7.356028 -6.565481,12.438779 -0.588027,3.841236 0.345752,9.093622 2.310867,12.998331 1.438955,2.859228 4.990625,6.331547 8.541873,8.351043 l 1.425892,0.81086 -1.690454,0.849947 c -4.956269,2.491969 -9.269466,6.363511 -10.892848,9.777462 -1.25674,2.642911 -1.766944,4.645183 -1.955016,7.672366 -0.528165,8.501259 3.348155,16.247909 10.231444,20.447089 4.457047,2.71904 9.885875,4.37205 16.667437,5.07504 4.279937,0.44366 5.956562,0.46523 9.875566,0.12707 z m -9.346441,-1.08392 C 72.648447,117.90645 63.534557,111.972 60.699357,102.53015 c -0.943308,-3.14142 -1.173509,-7.820925 -0.52814,-10.736002 0.779954,-3.522988 1.999021,-5.730339 4.608255,-8.344116 2.417948,-2.422157 4.696122,-4.034673 8.030676,-5.684204 1.347755,-0.666706 2.050359,-1.167385 2.050359,-1.4611 0,-0.277856 -0.668295,-0.814172 -1.76723,-1.418221 -2.373755,-1.30478 -4.397365,-2.894536 -6.373572,-5.007108 -1.819212,-1.944743 -2.101026,-2.41195 -3.243841,-5.377793 -4.398269,-11.414422 0.797682,-22.017894 13.188763,-26.914541 5.131733,-2.027932 12.447714,-3.021712 18.511896,-2.514596 5.868077,0.490717 8.369757,1.034472 13.680267,2.97349 1.70704,0.623288 5.36112,2.935035 6.70686,4.243077 2.1581,2.097661 3.88224,4.709303 4.72042,7.150267 0.67246,1.958326 0.74193,2.499886 0.73553,5.734162 -0.006,3.034257 -0.0982,3.830312 -0.61315,5.29125 -0.88858,2.521125 -2.46099,5.022836 -4.33846,6.902505 -1.69922,1.701208 -5.28074,4.215647 -7.27734,5.109128 -0.8378,0.374914 -1.12439,0.654024 -1.12439,1.095018 0,0.477927 0.39341,0.778685 2.04383,1.562464 4.83028,2.293892 8.84296,5.702743 10.88214,9.244597 1.98163,3.441903 2.8052,7.164249 2.61125,11.802226 -0.1144,2.735563 -0.2812,3.74939 -0.96528,5.866917 -1.04104,3.22249 -3.16696,6.51613 -5.86995,9.09418 -6.40726,6.11111 -17.830529,9.15041 -30.131556,8.01686 z m 15.080066,-1.67615 c 6.40175,-1.37467 11.608,-4.06595 15.22658,-7.87111 1.15624,-1.21587 2.50981,-2.89991 3.00793,-3.74232 2.21949,-3.75356 3.26224,-8.961682 2.68951,-13.433032 -0.96292,-7.517567 -4.96684,-12.62233 -12.87761,-16.418182 -2.38674,-1.145239 -2.95266,-1.766646 -2.66233,-2.923387 0.11458,-0.456537 0.70596,-0.922998 2.08393,-1.643729 7.97478,-4.171122 11.98868,-10.208674 11.47334,-17.257754 -0.65592,-8.97197 -7.23889,-15.040976 -18.92536,-17.447762 -2.947166,-0.606956 -3.981351,-0.687426 -9.143399,-0.711424 -4.58521,-0.02132 -6.325671,0.07248 -8.201438,0.441981 -8.715239,1.716788 -14.688396,5.152653 -18.152178,10.441454 -1.576919,2.407772 -2.297479,4.293611 -2.786552,7.292927 -0.342794,2.102229 -0.336762,2.633241 0.05855,5.154185 1.087595,6.93576 3.887936,10.96429 10.062283,14.475458 2.191411,1.24619 2.356614,1.399647 2.42095,2.248781 0.03798,0.50123 -0.02153,1.045115 -0.132281,1.208636 -0.11073,0.16352 -1.2025,0.799423 -2.426154,1.413115 -8.64971,4.338045 -12.259925,9.353684 -12.289373,17.073512 -0.02273,5.954691 1.770132,10.595771 5.614323,14.533611 3.091593,3.16689 8.212663,5.74667 13.794281,6.94896 4.512111,0.97191 6.18945,1.11014 12.302156,1.01379 4.818289,-0.0759 5.994815,-0.18184 8.862852,-0.79771 z M 90.072851,107.1267 c -0.291019,-0.0573 -1.183917,-0.23454 -1.984219,-0.39386 -3.434505,-0.6837 -7.185033,-3.50196 -8.69546,-6.53403 -2.411173,-4.840253 -1.949114,-11.197809 1.170689,-16.107737 1.691329,-2.661803 3.241147,-4.313295 4.047748,-4.313295 0.393282,0 2.662887,0.780964 5.043564,1.735474 8.738904,3.503787 12.728237,5.992124 14.170887,8.839055 1.42129,2.80478 1.57901,7.688897 0.33479,10.367063 -1.36079,2.92904 -4.73904,5.37326 -8.532187,6.17318 -1.728077,0.36442 -4.336102,0.47434 -5.555812,0.23415 z m 6.033797,-1.28731 c 3.26985,-0.85169 6.083762,-3.02344 7.201462,-5.55802 1.17928,-2.674204 1.01625,-6.872642 -0.37256,-9.59495 -1.26248,-2.474654 -5.338682,-4.988456 -13.203202,-8.14243 l -5.102625,-2.046348 -0.67652,0.632177 c -1.184415,1.106784 -3.706021,5.125121 -4.315626,6.877218 -0.835594,2.401629 -1.047146,6.953189 -0.422969,9.100283 1.323357,4.55219 3.838103,7.07135 8.609461,8.62458 1.856404,0.60431 6.16068,0.66017 8.282579,0.10749 z m -5.24011,-0.55132 c -0.291019,-0.0646 -1.183917,-0.24785 -1.984219,-0.40717 -3.175519,-0.63214 -6.353743,-2.94947 -7.726092,-5.633304 -1.48523,-2.904584 -1.773712,-6.796042 -0.74709,-10.077849 0.624529,-1.996439 2.111034,-4.655467 3.546283,-6.343519 l 0.894681,-1.052268 3.934188,1.550736 c 8.529653,3.362124 12.492451,5.931351 13.615941,8.82771 0.82297,2.121645 0.84463,5.750136 0.0449,7.525649 -0.63665,1.413475 -2.5869,3.434315 -4.019865,4.165365 -1.962977,1.00144 -6.043052,1.78123 -7.558747,1.44465 z m 5.762783,-1.68892 c 2.021186,-0.77197 3.570309,-1.98694 4.546379,-3.56571 0.65896,-1.065836 0.8136,-1.631386 0.89685,-3.279819 0.0553,-1.095548 -0.0463,-2.648339 -0.22587,-3.450649 -0.65696,-2.935588 -4.091096,-5.372132 -12.182798,-8.643767 -2.361056,-0.954621 -4.43961,-1.679351 -4.61901,-1.610509 -0.586977,0.225243 -2.858137,3.915933 -3.502955,5.692385 -2.07666,5.72114 -0.08435,11.803949 4.694777,14.333809 2.667693,1.41216 7.437908,1.6528 10.392627,0.52426 z M 93.776726,68.90586 c -9.2987,-3.550112 -12.584712,-6.223362 -13.36956,-10.876474 -0.533882,-3.165215 0.248014,-5.751843 2.38834,-7.900977 2.120122,-2.128842 5.078243,-3.156381 9.086719,-3.156381 5.318865,0 9.148565,2.332227 10.785305,6.568079 0.72125,1.866591 0.78691,5.867549 0.14078,8.578129 -0.59821,2.509542 -2.849973,6.803982 -4.092284,7.804589 -0.640541,0.515915 -1.256392,0.389118 -4.9393,-1.016965 z m 5.229334,-0.860207 c 2.49752,-3.761541 3.52388,-7.216069 3.3167,-11.163397 -0.19803,-3.772997 -1.96052,-6.519659 -5.108272,-7.960752 -4.798722,-2.196924 -11.707227,-0.942435 -14.3878,2.612629 -1.296772,1.719823 -1.738205,3.369743 -1.538593,5.750721 0.384722,4.588948 3.252619,7.037709 12.398119,10.586167 2.232423,0.86618 4.131384,1.578009 4.219914,1.581845 0.08853,0.0038 0.583501,-0.62941 1.099932,-1.407213 z m -5.640541,-1.454927 c -6.143472,-2.43312 -9.149217,-4.393595 -10.354275,-6.753497 -0.677627,-1.327014 -0.936112,-4.202922 -0.497272,-5.532621 0.53508,-1.621316 2.034438,-3.305587 3.683898,-4.138231 3.444233,-1.738644 7.45154,-1.746174 11.015893,-0.02069 4.998747,2.41985 5.543617,10.44989 1.144508,16.86696 -0.423946,0.618415 -0.854378,1.119597 -0.95652,1.113739 -0.102143,-0.0059 -1.918446,-0.696903 -4.036232,-1.53565 z m 5.382185,-2.173111 c 3.340236,-6.584508 1.764616,-12.569957 -3.731884,-14.176703 -5.433857,-1.588433 -11.268465,0.994591 -11.851273,5.246645 -0.461619,3.367875 1.455247,6.009976 5.983581,8.247429 2.751225,1.359383 7.648028,3.323246 8.06791,3.235636 0.14551,-0.03036 0.834758,-1.179213 1.531666,-2.553007 z M 51.280697,119.79286 c -0.329081,-0.41962 -0.319724,-0.42897 0.09989,-0.0999 0.254642,0.1997 0.462984,0.40805 0.462984,0.46298 0,0.21775 -0.217256,0.0776 -0.562872,-0.36309 z M 124.14736,27.202925 c -0.46626,-0.23221 -0.90898,-0.581756 -0.98381,-0.776768 -0.21069,-0.549052 0.15936,-0.405554 1.16015,0.449873 1.03581,0.885365 1.01659,0.921007 -0.17634,0.326895 z"
         id="path289" />
      <path
         style="fill:#d4aa00;stroke-width:0.264562"
         d="M 48.933382,117.96578 C 43.275314,113.13108 38.221821,106.75542 34.601767,99.884528 31.832584,94.628594 29.977067,89.058678 28.78491,82.423403 27.98309,77.960662 27.913335,68.248054 28.650955,63.771747 32.560866,40.044139 49.740019,21.204192 72.639981,15.530089 c 5.383032,-1.333796 8.682245,-1.729812 14.390401,-1.72733 9.908678,0.0043 18.050698,1.93677 26.853098,6.373426 3.39399,1.710667 9.31447,5.531963 9.02279,5.823641 -0.0655,0.06546 -0.98328,-0.385747 -2.03961,-1.002676 -11.3588,-6.6339 -25.310873,-9.201343 -38.598403,-7.102833 -12.597659,1.989558 -23.469866,7.542825 -32.555751,16.62871 -9.139765,9.139766 -14.573718,19.863188 -16.695961,32.947994 -0.807165,4.976616 -0.79935,12.656019 0.01791,17.598007 2.108221,12.748468 7.444687,23.446912 16.132814,32.342762 1.101365,1.1277 1.886223,2.0443 1.744126,2.03688 -0.142096,-0.007 -1.032201,-0.67472 -1.978012,-1.48289 z"
         id="path287" />
    </g>
    <g
       id="g23"
       transform="matrix(0.24582041,0,0,0.24572547,-4.0658057,25.741519)">
      <path
         style="fill:#80afdd;stroke-width:0.264562"
         d="m 83.723706,179.31039 v -7.67355 h 8.598282 8.598282 v -21.02905 -21.02905 l -8.532142,-0.0698 -8.53214,-0.0698 v -7.14319 -7.14319 l 3.412115,-0.18971 c 5.724815,-0.31829 9.375061,-1.19673 11.424566,-2.74933 2.401041,-1.81892 3.450861,-3.5637 4.083691,-6.78699 l 0.29932,-1.5246 9.30637,0.0695 9.30638,0.0695 0.0671,33.79414 0.0671,33.79415 8.39885,0.0699 8.39886,0.0699 v 7.54003 7.54003 l -27.44836,0.0674 -27.448364,0.0674 z m 53.970754,0.002 v -6.61035 l -8.39986,-0.0699 -8.39986,-0.0698 -0.0671,-33.79786 -0.0671,-33.79786 h -8.41207 -8.41206 l -0.31837,1.52124 c -0.51992,2.4843 -1.40245,4.04029 -3.22919,5.69339 -2.564076,2.32036 -6.219242,3.41226 -12.630475,3.77308 l -3.240891,0.18239 v 6.18437 6.18437 l 8.664422,0.0697 8.664424,0.0698 v 21.95869 21.95868 l -8.664424,0.0698 -8.664422,0.0697 v 6.61045 6.61045 h 26.588536 26.58853 v -6.61035 z"
         id="path37" />
      <path
         style="fill:#52c8ec;stroke-width:0.264562"
         d="m 85.575644,179.22097 v -5.73219 h 2.649175 2.649176 l -0.373502,0.85983 c -0.833533,1.91886 -4.727014,10.39177 -4.822357,10.49431 -0.05637,0.0606 -0.102492,-2.46925 -0.102492,-5.62195 z m 17.196566,-41.52131 v -9.42106 l -0.588,-0.41185 c -0.50074,-0.35073 -1.77653,-0.41184 -8.598278,-0.41184 h -8.010288 v -5.13572 -5.13571 l 0.992109,-0.14465 c 0.545661,-0.0796 2.004061,-0.2206 3.240891,-0.31343 4.151763,-0.3116 7.834161,-1.32733 9.856533,-2.71876 2.504283,-1.72299 4.371713,-4.49463 4.821313,-7.15579 l 0.18416,-1.09007 h 7.64906 7.64906 v 1.92993 1.92993 l -8.48821,18.63981 c -4.66851,10.25189 -8.53774,18.68941 -8.59828,18.75004 -0.0605,0.0606 -0.11007,-4.12925 -0.11007,-9.31083 z"
         id="path35" />
      <path
         style="fill:#42bded;stroke-width:0.264562"
         d="m 86.13518,183.93187 c 0.291382,-0.65872 1.469637,-3.24812 2.618346,-5.75424 l 2.088563,-4.55657 5.613746,-0.0715 c 3.597215,-0.0458 5.739945,-0.17627 5.965055,-0.3631 0.28325,-0.23507 0.35048,-2.75844 0.34699,-13.02431 l -0.004,-12.73274 8.53648,-18.76373 8.53647,-18.76373 0.0672,31.43692 c 0.0485,22.69732 0.14948,31.53604 0.3631,31.79344 0.23624,0.28464 1.91576,0.3565 8.33263,0.3565 h 8.03677 v 5.82038 5.82037 H 111.1208 85.605397 Z"
         id="path33" />
      <path
         style="fill:#00b3b3;stroke-width:0.264562"
         d="m 103.96274,202.74833 c -6.99359,-0.7437 -14.523973,-2.90042 -20.791332,-5.95471 -3.917363,-1.90905 -5.968223,-3.64351 -9.917776,-8.38768 -7.197362,-8.64541 -11.472163,-17.98531 -13.366233,-29.20353 -0.792211,-4.69212 -0.852449,-12.59056 -0.13115,-17.19657 2.091446,-13.35536 7.671606,-24.4771 16.880868,-33.645 8.918391,-8.878345 19.632969,-14.334358 32.484593,-16.541611 2.2035,-0.37845 4.14553,-0.472627 9.39197,-0.455458 6.34977,0.02078 6.7832,0.05565 10.84706,0.87272 4.96878,0.999009 10.55373,2.862225 15.10429,5.039003 2.69618,1.289731 3.58024,1.873717 5.36931,3.546836 9.92593,9.28262 16.19166,21.37571 18.18546,35.09858 0.68589,4.72079 0.62996,12.17269 -0.12634,16.83398 -2.11244,13.01963 -7.57969,23.79747 -16.69615,32.91393 -4.95038,4.95039 -9.38083,8.12415 -15.85583,11.35835 -9.18006,4.58535 -21.29239,6.79374 -31.37874,5.72116 z m 35.26618,-15.29065 c 0.45348,-0.45348 0.45348,-15.84357 0,-16.29705 -0.23318,-0.23318 -2.48101,-0.31747 -8.466,-0.31747 h -8.14853 v -33.54653 c 0,-25.73899 -0.0739,-33.62041 -0.31747,-33.864 -0.37629,-0.37629 -19.15989,-0.45676 -19.74706,-0.0846 -0.19505,0.12362 -0.51438,1.06316 -0.70963,2.08786 -0.43239,2.26928 -1.07416,3.57863 -2.447844,4.99412 -2.12522,2.18989 -5.123057,3.08729 -12.126717,3.63013 -3.050247,0.23643 -4.16497,0.41728 -4.347129,0.70528 -0.134739,0.21303 -0.246805,3.59239 -0.249033,7.50969 -0.0036,6.25982 0.04897,7.18094 0.433798,7.60617 0.406151,0.44879 1.028576,0.48381 8.598281,0.48381 h 8.160433 v 20.23904 20.23903 h -8.324411 c -7.959332,0 -8.33642,0.0224 -8.598282,0.51173 -0.370787,0.69282 -0.370787,15.21571 0,15.90853 0.268105,0.50096 0.860151,0.51174 28.122994,0.51174 21.30768,0 27.9237,-0.0746 28.1666,-0.31748 z"
         id="path31" />
      <path
         style="fill:#2762ae;stroke-width:0.264562"
         d="m 82.939326,187.26342 c -0.370787,-0.69282 -0.370787,-15.21571 0,-15.90853 0.261862,-0.48929 0.63895,-0.51173 8.598282,-0.51173 h 8.324411 v -20.23903 -20.23904 h -8.160433 c -7.569705,0 -8.19213,-0.035 -8.598281,-0.48381 -0.384825,-0.42523 -0.437359,-1.34635 -0.433798,-7.60617 0.0021,-3.9173 0.114294,-7.29666 0.249033,-7.50969 0.182159,-0.288 1.296882,-0.46885 4.347129,-0.70528 7.00366,-0.54284 10.001497,-1.44024 12.126717,-3.63013 1.373684,-1.41549 2.015454,-2.72484 2.447844,-4.99412 0.19525,-1.0247 0.51458,-1.96424 0.70963,-2.08786 0.58717,-0.37216 19.37077,-0.29169 19.74706,0.0846 0.24359,0.24359 0.31747,8.12501 0.31747,33.864 v 33.54653 h 8.14853 c 5.98499,0 8.23282,0.0843 8.466,0.31747 0.45348,0.45348 0.45348,15.84357 0,16.29705 -0.2429,0.2429 -6.85892,0.31748 -28.1666,0.31748 -27.262843,0 -27.854889,-0.0108 -28.122994,-0.51174 z m 55.681104,-7.95426 v -7.54003 l -8.39886,-0.0699 -8.39885,-0.0699 -0.0671,-33.79415 -0.0671,-33.79414 -9.30638,-0.0695 -9.30637,-0.0695 -0.29932,1.5246 c -0.63283,3.22329 -1.68265,4.96807 -4.083691,6.78699 -2.049505,1.5526 -5.699751,2.43104 -11.424566,2.74933 l -3.412115,0.18971 v 7.14319 7.14319 l 8.53214,0.0698 8.532142,0.0698 v 21.02905 21.02905 h -8.598282 -8.598282 v 7.67355 7.67354 l 27.448364,-0.0674 27.44836,-0.0674 z m -54.103036,0.004 v -6.61044 l 8.664422,-0.0698 8.664424,-0.0698 v -21.95868 -21.95869 l -8.664424,-0.0698 -8.664422,-0.0697 v -6.18437 -6.18437 l 3.240891,-0.18239 c 6.411233,-0.36082 10.066399,-1.45272 12.630475,-3.77307 1.82674,-1.65311 2.70927,-3.2091 3.22919,-5.6934 l 0.31837,-1.52123 h 8.41206 8.41207 l 0.0671,33.79785 0.0671,33.79786 8.39986,0.0699 8.39986,0.0699 v 6.61034 6.61035 H 111.10593 84.517394 Z m 52.118816,-0.004 v -5.82038 h -8.01625 c -5.8821,0 -8.10076,-0.0845 -8.33372,-0.31747 -0.24358,-0.24359 -0.31747,-8.12501 -0.31747,-33.864 v -33.54653 h -7.64906 -7.64906 l -0.18416,1.09007 c -0.4496,2.66116 -2.31703,5.4328 -4.821313,7.15579 -2.022372,1.39143 -5.70477,2.40716 -9.856533,2.71876 -1.23683,0.0928 -2.69523,0.23387 -3.240891,0.31343 l -0.992109,0.14465 v 5.13571 5.13572 h 8.010288 c 6.821748,0 8.097538,0.0611 8.598278,0.41184 l 0.588,0.41185 v 22.28761 c 0,16.98207 -0.0756,22.3632 -0.31748,22.6051 -0.2334,0.2334 -2.510403,0.31747 -8.59828,0.31747 h -8.280806 v 5.82038 5.82037 h 25.530286 25.53028 z"
         id="path29" />
      <path
         style="fill:#00827e;stroke-width:0.264562"
         d="m 77.139738,193.35195 c -2.815916,-1.87402 -5.250685,-4.14591 -8.055405,-7.51653 -7.267725,-8.73409 -11.618696,-18.03203 -13.453343,-28.74951 -0.766037,-4.47497 -0.934373,-12.11298 -0.367503,-16.67499 1.68096,-13.5279 7.413065,-25.28651 16.969244,-34.81004 18.727969,-18.663992 47.030749,-22.626146 70.356129,-9.849281 3.51142,1.923436 4.08015,2.512197 1.09087,1.129279 -4.11387,-1.90318 -9.70533,-3.716779 -14.31899,-4.644387 -4.06386,-0.817067 -4.49729,-0.851939 -10.84706,-0.87272 -5.24644,-0.01717 -7.18847,0.07701 -9.39197,0.455458 -12.851624,2.207253 -23.566202,7.663266 -32.484593,16.541611 -9.209262,9.1679 -14.789422,20.28964 -16.880868,33.645 -0.721299,4.60601 -0.661061,12.50445 0.13115,17.19657 1.892675,11.20995 6.174183,20.56875 13.350529,29.18244 1.357211,1.62905 3.264138,3.70598 4.237614,4.61542 0.973479,0.90943 1.735842,1.65321 1.694142,1.65284 -0.0417,-2.6e-4 -0.955177,-0.58589 -2.029946,-1.30116 z"
         id="path27" />
      <path
         style="fill:#005a53;stroke-width:0.264562"
         d="m 74.165709,191.28061 c -0.329081,-0.41961 -0.319724,-0.42897 0.09989,-0.0999 0.254642,0.19971 0.462984,0.40805 0.462984,0.46299 0,0.21774 -0.217256,0.0776 -0.562872,-0.3631 z m -2.215034,-1.68719 C 60.791347,180.2032 53.711919,167.78757 51.151982,153.11747 c -0.777291,-4.45438 -0.839635,-12.93805 -0.128317,-17.46113 2.069395,-13.15872 7.688213,-24.39902 16.698824,-33.40557 9.001571,-8.997512 20.409882,-14.757151 33.197781,-16.760346 4.12647,-0.646401 12.97823,-0.659423 16.99044,-0.02499 6.68241,1.056653 11.78986,2.656343 17.62918,5.521578 3.52956,1.731883 8.90702,5.101473 10.75285,6.737886 l 0.79369,0.703641 -0.79369,-0.488994 c -2.91479,-1.795808 -4.02405,-2.412745 -6.61406,-3.67852 -14.2746,-6.976188 -31.43212,-7.829215 -46.166161,-2.295262 -8.438787,3.169522 -14.991193,7.368004 -21.279788,13.635117 -9.556179,9.52353 -15.288284,21.28214 -16.969244,34.81004 -0.56687,4.56201 -0.398534,12.20002 0.367503,16.67499 2.066838,12.07388 7.697555,23.06939 16.42701,32.0782 0.951732,0.98219 1.674088,1.78112 1.605236,1.77541 -0.06885,-0.006 -0.839505,-0.61146 -1.712561,-1.3461 z"
         id="path25" />
    </g>
  </g>
  <g
     inkscape:label="Warstwa 1"
     inkscape:groupmode="layer"
     id="layer1">
    <g
       id="g929"
       transform="matrix(0.60000949,0,0,0.6026023,30.188691,-26.836675)"
       style="display:inline">
      <path
         style="fill:#fb939c;stroke-width:0.264779"
         d="m 65.015181,154.36014 c 0.400477,-0.0607 1.055804,-0.0607 1.456282,0 0.400478,0.0607 0.07281,0.1103 -0.728141,0.1103 -0.800956,0 -1.128619,-0.0496 -0.728141,-0.1103 z m -3.574512,-0.25049 c 0.182035,-0.0734 0.479911,-0.0734 0.661946,0 0.182036,0.0735 0.0331,0.13355 -0.330973,0.13355 -0.364071,0 -0.513009,-0.0601 -0.330973,-0.13355 z m 7.943359,0 c 0.182035,-0.0734 0.479911,-0.0734 0.661947,0 0.182035,0.0735 0.0331,0.13355 -0.330974,0.13355 -0.36407,0 -0.513008,-0.0601 -0.330973,-0.13355 z m -12.113623,-2.44751 c -3.46172,-0.76237 -6.273213,-1.97986 -8.624604,-3.7348 -2.35694,-1.75907 -4.074544,-5.94166 -4.076259,-9.92622 -0.0011,-2.67371 0.892663,-5.84816 2.285729,-8.11794 l 0.594671,-0.96893 -0.540272,-1.81125 c -0.56442,-1.89221 -0.986205,-7.62566 -0.65737,-8.93584 l 0.172217,-0.68617 2.708963,1.35663 c 1.48993,0.74615 3.368373,1.81769 4.174318,2.3812 l 1.465355,1.02456 1.902538,-0.79936 c 2.554489,-1.07328 6.323465,-1.83672 9.067631,-1.83672 2.708807,0 6.505908,0.7604 8.972763,1.79686 l 1.80767,0.7595 1.241688,-0.91974 c 0.68293,-0.50586 2.516959,-1.55963 4.075621,-2.34172 l 2.833931,-1.42197 0.171794,1.91992 c 0.223155,2.49394 -0.125749,5.96222 -0.825257,8.20349 l -0.556276,1.78232 0.60208,1.92458 c 0.794158,2.53856 0.84328,6.77034 0.103782,8.9412 -0.917185,2.6925 -1.795935,4.08576 -3.870243,6.13629 -1.638447,1.61968 -2.558791,2.27691 -4.533574,3.23752 -3.946406,1.91968 -5.897544,2.33458 -11.480262,2.4412 -3.922624,0.0749 -5.164282,0.003 -7.016634,-0.40461 z m 10.044937,-5.17037 c 0.469974,-0.50027 0.582989,-0.87724 0.505767,-1.68701 -0.09937,-1.04203 -0.09855,-1.04302 1.133006,-1.35866 1.478233,-0.37886 3.277761,-1.64361 3.813983,-2.68055 0.21635,-0.41837 0.389026,-1.46295 0.389026,-2.35335 0,-1.46769 -0.07976,-1.68934 -0.957535,-2.66093 -0.526645,-0.58293 -0.819106,-1.05988 -0.649912,-1.05988 0.169193,0 0.600083,-0.29246 0.957534,-0.64991 0.535102,-0.5351 0.649913,-0.91153 0.649913,-2.13087 0,-1.26138 -0.103881,-1.57724 -0.70061,-2.13027 -1.008873,-0.93499 -3.021844,-0.9226 -3.968873,0.0244 -0.58753,0.58753 -0.662216,0.8586 -0.583718,2.11859 l 0.09002,1.44486 -2.184424,-2.6e-4 -2.184423,-4.7e-4 v -1.46893 c 0,-1.96684 -0.780721,-2.76753 -2.698487,-2.76753 -1.831161,0 -2.597086,0.78514 -2.597086,2.66223 0,1.18764 0.111826,1.47423 0.871794,2.2342 l 0.871792,0.87179 -0.871792,0.95129 c -0.785458,0.85708 -0.871794,1.11031 -0.871794,2.557 0,0.9261 0.172119,1.93856 0.406668,2.39212 0.548214,1.06013 2.249408,2.24996 3.776551,2.64136 l 1.252241,0.32094 -0.09945,1.04279 c -0.07722,0.80977 0.03579,1.18674 0.505767,1.68701 0.830158,0.88366 2.313882,0.88366 3.14404,0 z m 17.02868,1.97101 c -0.9556,-0.58264 -1.003106,-0.71949 -0.486256,-1.40077 0.315839,-0.41632 0.376047,-0.42263 0.517415,-0.0542 0.08799,0.2293 0.572983,0.58947 1.077763,0.80038 0.996719,0.41645 1.888573,0.23525 2.506466,-0.50927 0.299112,-0.36041 0.230614,-0.5579 -0.470419,-1.35633 -1.075115,-1.22449 -1.294577,-2.11656 -0.68611,-2.78891 0.258273,-0.28539 0.680772,-0.51889 0.938889,-0.51889 0.70228,0 1.566851,1.26615 1.566851,2.29463 0,1.08641 0.580278,1.40278 1.562128,0.85168 0.902572,-0.5066 0.999939,-1.18537 0.304895,-2.12547 -0.57332,-0.77545 -0.534569,-1.28562 0.09765,-1.28562 0.581453,0 1.584207,2.18638 1.378551,3.00578 -0.221726,0.88342 -1.587443,1.75791 -2.747473,1.75925 -0.473292,5.3e-4 -0.86053,0.12583 -0.86053,0.27841 0,0.15258 -0.315275,0.56961 -0.70061,0.92672 -0.897878,0.83213 -2.742792,0.88871 -3.999211,0.12265 z m 3.86581,-3.97458 c -0.152301,-0.43689 -0.384403,-0.79434 -0.515786,-0.79434 -0.309156,0 -0.301493,0.10244 0.06841,0.91427 0.428909,0.94136 0.784147,0.84613 0.44738,-0.11993 z m -1.792872,-3.06702 c 0.01271,-0.30845 0.07545,-0.37119 0.159969,-0.15997 0.07649,0.19114 0.06708,0.41951 -0.02089,0.50749 -0.08799,0.088 -0.150564,-0.0684 -0.139067,-0.34752 z m 0.295493,-1.83139 c 0.0054,-0.43688 0.06474,-0.58355 0.131871,-0.32593 0.06713,0.25762 0.06272,0.61507 -0.0098,0.79434 -0.07253,0.17926 -0.127456,-0.0315 -0.12206,-0.46841 z m 0,-2.91256 c 0.0054,-0.43689 0.06474,-0.58356 0.131871,-0.32594 0.06713,0.25763 0.06272,0.61508 -0.0098,0.79434 -0.07253,0.17926 -0.127456,-0.0315 -0.12206,-0.4684 z"
         id="path943" />
      <path
         style="fill:#de6a8a;stroke-width:0.264779"
         d="m 62.632173,152.23868 c 0.546106,-0.0571 1.439734,-0.0571 1.98584,0 0.546106,0.0571 0.09929,0.10386 -0.99292,0.10386 -1.092212,0 -1.539026,-0.0467 -0.99292,-0.10386 z m 17.938753,-5.997 c 0,-0.055 0.208513,-0.26349 0.463363,-0.46336 0.419954,-0.32935 0.42932,-0.31999 0.09997,0.1 -0.345899,0.44105 -0.563332,0.58131 -0.563332,0.36339 z m -16.606758,-4.67213 c -0.760092,-0.10939 -1.93264,-0.52158 -2.60566,-0.916 -2.603346,-1.52566 -2.404124,-3.80992 0.459004,-5.26289 1.330044,-0.67497 1.77984,-0.76231 3.92581,-0.76231 2.14597,0 2.595765,0.0873 3.925809,0.76231 1.115624,0.56615 1.626996,1.01712 1.987323,1.75258 0.470371,0.96007 0.470371,1.02047 0,1.98054 -0.912496,1.86249 -4.287852,2.93568 -7.692286,2.44577 z m 0.07013,-1.96772 c 0.409676,-0.40967 0.649912,-0.95243 0.649912,-1.46832 0,-0.51588 -0.240236,-1.05864 -0.649912,-1.46831 -0.409674,-0.40968 -0.95243,-0.64992 -1.468317,-0.64992 -0.515887,0 -1.058643,0.24024 -1.468317,0.64992 -0.409676,0.40967 -0.649912,0.95243 -0.649912,1.46831 0,0.51589 0.240236,1.05865 0.649912,1.46832 0.409674,0.40967 0.95243,0.64991 1.468317,0.64991 0.515887,0 1.058643,-0.24024 1.468317,-0.64991 z m 6.354687,0 c 1.313355,-1.31335 0.382717,-3.58655 -1.468316,-3.58655 -0.515887,0 -1.058644,0.24024 -1.468317,0.64992 -0.409676,0.40967 -0.649913,0.95243 -0.649913,1.46831 0,0.51589 0.240237,1.05865 0.649913,1.46832 0.409673,0.40967 0.95243,0.64991 1.468317,0.64991 0.515886,0 1.058643,-0.24024 1.468316,-0.64991 z m 1.709027,-5.27519 c 0,-0.055 0.208513,-0.26349 0.463363,-0.46336 0.419955,-0.32935 0.42932,-0.31999 0.09997,0.1 -0.345899,0.44105 -0.563333,0.58131 -0.563333,0.36339 z"
         id="path941" />
      <path
         style="fill:#c9757c;stroke-width:0.264779"
         d="m 60.844917,154.00898 c -4.331555,-0.67278 -10.085692,-3.3343 -11.813773,-5.46435 -0.41178,-0.50756 -0.385803,-0.49608 1.418718,0.6265 3.199737,1.99054 7.88422,3.08875 13.175231,3.08875 5.747687,0 10.234467,-1.16832 13.991266,-3.64322 3.279956,-2.16076 5.048188,-4.25564 6.331943,-7.50165 0.63393,-1.60291 0.708002,-2.13592 0.708693,-5.09973 5.3e-4,-2.74377 -0.09922,-3.59007 -0.58398,-4.94916 -0.321613,-0.90169 -0.509773,-1.83482 -0.418133,-2.07363 0.247317,-0.6445 1.53139,1.65611 2.367998,4.24262 0.775465,2.39748 0.948405,6.1251 0.392706,8.46458 -1.344027,5.65833 -6.519263,10.12699 -13.822184,11.93505 -2.021209,0.50041 -9.418997,0.73607 -11.748485,0.37424 z m 0.452223,-11.12374 c -1.038038,-0.51871 -1.812629,-1.12322 -2.160519,-1.68612 -0.780292,-1.26254 -0.66916,-1.43657 0.318208,-0.49831 1.132085,1.07579 2.824828,1.90482 4.302976,2.10743 1.06334,0.14574 1.142851,0.20204 0.728986,0.51619 -0.712181,0.54057 -1.425544,0.44234 -3.189651,-0.43919 z m 5.702713,0.43919 c -0.413865,-0.31415 -0.334355,-0.37045 0.728986,-0.51619 1.478148,-0.20261 3.170891,-1.03164 4.302976,-2.10743 0.987367,-0.93826 1.0985,-0.76423 0.318208,0.49831 -0.34789,0.5629 -1.122481,1.16741 -2.16052,1.68612 -1.764106,0.88153 -2.47747,0.97976 -3.18965,0.43919 z m -2.365292,-1.66489 c 0.191136,-0.0765 0.41951,-0.0671 0.507493,0.0209 0.08798,0.088 -0.0684,0.15056 -0.347521,0.13907 -0.308454,-0.0127 -0.371194,-0.0755 -0.159972,-0.15997 z m 1.853451,0 c 0.191135,-0.0765 0.419507,-0.0671 0.507493,0.0209 0.08798,0.088 -0.0684,0.15056 -0.347522,0.13907 -0.308454,-0.0127 -0.371193,-0.0755 -0.159971,-0.15997 z m 3.657583,-7.3809 -1.025691,-0.5887 1.170268,0.1319 c 0.993256,0.11196 1.298591,0.0239 2.018612,-0.58192 0.466587,-0.39261 0.84834,-0.63583 0.84834,-0.5405 0,0.42358 -0.587848,1.20183 -1.257161,1.66436 -0.721316,0.49847 -0.739042,0.49761 -1.754368,-0.0851 z m -11.042106,-0.36122 c -0.931102,-0.9311 -1.05818,-1.70357 -0.138048,-0.83915 0.357507,0.33586 1.125405,0.66307 1.753952,0.74737 1.087838,0.14591 1.101056,0.15938 0.489391,0.49848 -0.925023,0.51281 -1.24822,0.45038 -2.105295,-0.4067 z m 5.531072,0.5931 c 0.191136,-0.0765 0.41951,-0.0671 0.507493,0.0209 0.08798,0.088 -0.0684,0.15056 -0.347521,0.13906 -0.308454,-0.0127 -0.371194,-0.0754 -0.159972,-0.15996 z m 1.853451,0 c 0.191135,-0.0765 0.419507,-0.0671 0.507493,0.0209 0.08798,0.088 -0.0684,0.15056 -0.347522,0.13906 -0.308454,-0.0127 -0.371193,-0.0754 -0.159971,-0.15996 z m -3.524866,-1.4078 c 0.263585,-0.29126 0.512945,-0.52956 0.554139,-0.52956 0.04119,0 0.05695,0.2383 0.03501,0.52956 -0.02518,0.33409 -0.229706,0.52956 -0.55414,0.52956 -0.497476,0 -0.49862,-0.0173 -0.03501,-0.52956 z m 4.969093,-0.0281 c -0.04037,-0.53591 -0.02195,-0.53947 0.473212,-0.0914 0.634632,0.57433 0.639465,0.64897 0.042,0.64897 -0.291331,0 -0.489353,-0.21432 -0.515214,-0.55762 z"
         id="path939" />
      <path
         style="fill:#a0566a;stroke-width:0.264779"
         d="m 62.301199,133.61665 c 0,-0.15423 0.119151,-0.20677 0.264779,-0.11676 0.145628,0.09 0.264779,0.21618 0.264779,0.2804 0,0.0642 -0.119151,0.11676 -0.264779,0.11676 -0.145628,0 -0.264779,-0.12618 -0.264779,-0.2804 z m 6.487077,0.0156 c 0.09,-0.14563 0.216187,-0.26478 0.280406,-0.26478 0.06422,0 0.116762,0.11915 0.116762,0.26478 0,0.14562 -0.126183,0.26477 -0.280406,0.26477 -0.154223,0 -0.206765,-0.11915 -0.116762,-0.26477 z"
         id="path937" />
      <path
         style="fill:#623750;stroke-width:0.264779"
         d="m 62.953257,142.49138 c -3.212422,-0.92655 -4.824651,-2.58546 -4.544275,-4.67583 0.0757,-0.56436 0.31267,-1.29325 0.526603,-1.61975 0.647701,-0.98852 2.342012,-1.98757 4.15995,-2.4529 5.369611,-1.37446 10.883941,1.60762 9.938488,5.3746 -0.302584,1.20559 -2.153085,2.67522 -4.121272,3.27304 -2.409705,0.73193 -3.696032,0.75369 -5.959494,0.10084 z m 5.713473,-1.07588 c 1.864105,-0.55358 3.431279,-2.05257 3.431279,-3.28199 0,-1.9425 -3.024683,-3.7069 -6.354687,-3.7069 -3.305595,0 -6.354688,1.76556 -6.354688,3.67964 0,2.72312 5.11201,4.54644 9.278096,3.30925 z m -7.074825,-1.47851 c -1.462505,-0.70706 -1.334243,-3.02982 0.202452,-3.66634 2.35795,-0.97669 3.989269,2.62432 1.667992,3.68197 -0.783122,0.35681 -1.105655,0.35412 -1.870444,-0.0156 z m 6.354688,0 c -1.462505,-0.70706 -1.334244,-3.02982 0.202452,-3.66634 2.357949,-0.97669 3.989269,2.62432 1.667992,3.68197 -0.783123,0.35681 -1.105655,0.35412 -1.870444,-0.0156 z"
         id="path935" />
      <path
         style="fill:#44283b;stroke-width:0.264779"
         d="m 64.948986,146.79147 c -2.313273,-1.16346 -0.817067,-4.62365 1.571488,-3.63428 0.905778,0.37519 1.43604,1.57632 1.093562,2.47711 -0.440348,1.1582 -1.633202,1.67614 -2.66505,1.15717 z M 60.646333,133.7217 c 0.182035,-0.0735 0.479911,-0.0735 0.661946,0 0.182036,0.0735 0.0331,0.13355 -0.330973,0.13355 -0.36407,0 -0.513008,-0.0601 -0.330973,-0.13355 z m 9.532031,0 c 0.182035,-0.0735 0.479911,-0.0735 0.661947,0 0.182035,0.0735 0.0331,0.13355 -0.330974,0.13355 -0.36407,0 -0.513008,-0.0601 -0.330973,-0.13355 z"
         id="path933" />
      <path
         style="fill:#050304;stroke-width:0.264779"
         d="m 59.103489,132.85831 c -0.950945,-0.95095 -0.998451,-1.93819 -0.134825,-2.80181 0.75281,-0.75282 1.740413,-1.05019 2.693392,-0.81101 1.016707,0.25518 1.963037,1.32558 1.963037,2.22041 0,2.04531 -2.957853,2.95616 -4.521604,1.39241 z m 9.532031,0 c -0.950944,-0.95095 -0.998451,-1.93819 -0.134825,-2.80181 0.752811,-0.75282 1.740414,-1.05019 2.693392,-0.81101 1.016707,0.25518 1.963037,1.32558 1.963037,2.22041 0,2.04531 -2.957853,2.95616 -4.521604,1.39241 z"
         id="path931" />
    </g>
  </g>
</svg>
