<?xml version="1.0" encoding="UTF-8" standalone="no"?>
<svg
   xmlns:dc="http://purl.org/dc/elements/1.1/"
   xmlns:cc="http://creativecommons.org/ns#"
   xmlns:rdf="http://www.w3.org/1999/02/22-rdf-syntax-ns#"
   xmlns:svg="http://www.w3.org/2000/svg"
   xmlns="http://www.w3.org/2000/svg"
   xmlns:sodipodi="http://sodipodi.sourceforge.net/DTD/sodipodi-0.dtd"
   xmlns:inkscape="http://www.inkscape.org/namespaces/inkscape"
   width="210mm"
   height="297mm"
   viewBox="0 0 210 297"
   version="1.1"
   id="svg8"
   inkscape:version="1.0.1 (3bc2e813f5, 2020-09-07)"
   sodipodi:docname="subbtn.svg">
  <defs
     id="defs2">
    <pattern
       id="EMFhbasepattern"
       patternUnits="userSpaceOnUse"
       width="6"
       height="6"
       x="0"
       y="0" />
    <pattern
       id="EMFhbasepattern-7"
       patternUnits="userSpaceOnUse"
       width="6"
       height="6"
       x="0"
       y="0" />
    <pattern
       id="EMFhbasepattern-3"
       patternUnits="userSpaceOnUse"
       width="6"
       height="6"
       x="0"
       y="0" />
    <pattern
       id="EMFhbasepattern-8"
       patternUnits="userSpaceOnUse"
       width="6"
       height="6"
       x="0"
       y="0" />
    <pattern
       id="EMFhbasepattern-9"
       patternUnits="userSpaceOnUse"
       width="6"
       height="6"
       x="0"
       y="0" />
    <pattern
       id="EMFhbasepattern-31"
       patternUnits="userSpaceOnUse"
       width="6"
       height="6"
       x="0"
       y="0" />
    <pattern
       id="EMFhbasepattern-97"
       patternUnits="userSpaceOnUse"
       width="6"
       height="6"
       x="0"
       y="0" />
  </defs>
  <sodipodi:namedview
     id="base"
     pagecolor="#ffffff"
     bordercolor="#666666"
     borderopacity="1.0"
     inkscape:pageopacity="0.0"
     inkscape:pageshadow="2"
     inkscape:zoom="0.98994949"
     inkscape:cx="407.95419"
     inkscape:cy="383.04576"
     inkscape:document-units="mm"
     inkscape:current-layer="layer4"
     inkscape:document-rotation="0"
     showgrid="false"
     inkscape:window-width="1465"
     inkscape:window-height="1040"
     inkscape:window-x="78"
     inkscape:window-y="0"
     inkscape:window-maximized="0" />
  <metadata
     id="metadata5">
    <rdf:RDF>
      <cc:Work
         rdf:about="">
        <dc:format>image/svg+xml</dc:format>
        <dc:type
           rdf:resource="http://purl.org/dc/dcmitype/StillImage" />
        <dc:title />
      </cc:Work>
    </rdf:RDF>
  </metadata>
  <g
     inkscape:groupmode="layer"
     id="layer4"
     inkscape:label="Warstwa 3"
     style="display:inline">
    <g
       id="g978"
       transform="translate(-0.23034879,-0.2545802)" />
    <g
       id="g1072"
       transform="translate(-70.292455,-55.7084)"
       style="fill-rule:evenodd">
      <path
         style="fill:#eaebeb;stroke-width:0.264336;fill-rule:evenodd"
         d="m 110.18838,141.03079 c -9.84944,-1.02668 -19.844568,-5.56175 -27.035569,-12.26681 -3.860131,-3.59927 -6.433978,-7.08635 -9.183392,-12.44177 -3.163756,-6.16248 -4.09139,-10.27888 -4.091935,-18.158032 -3.15e-4,-4.562489 0.0818,-5.60169 0.647491,-8.19442 1.429984,-6.554027 3.983089,-11.863668 8.361064,-17.388337 5.571118,-7.030325 13.536197,-12.399627 22.447081,-15.131697 4.15126,-1.272772 6.42519,-1.508753 14.53849,-1.508753 8.42796,0 10.43783,0.22764 15.09089,1.70921 11.18288,3.560711 20.40273,11.002876 25.97807,20.969213 1.68982,3.020679 2.04099,3.814392 3.23643,7.314966 1.42522,4.173445 1.79673,6.716749 1.79673,12.30039 0,7.27317 -0.87952,11.27644 -3.8039,17.31402 -2.58797,5.34302 -5.43137,9.30465 -9.281,12.93091 -10.16968,9.5796 -24.0431,14.07895 -38.70045,12.55111 z"
         id="path1086" />
      <path
         style="fill:#d0f0ef;stroke-width:0.264336;fill-rule:evenodd"
         d="m 110.18838,141.03079 c -11.531663,-1.20203 -23.131708,-7.24215 -30.272282,-15.76271 -2.858431,-3.41085 -3.893179,-4.95745 -5.809161,-8.68274 -1.746812,-3.39637 -3.219436,-7.70217 -3.835123,-11.21351 -0.614167,-3.50268 -0.53704,-11.498668 0.14366,-14.893474 0.988327,-4.929017 2.914694,-9.692997 5.693205,-14.079507 5.598366,-8.838291 14.805059,-15.75455 25.224441,-18.949125 4.15126,-1.272772 6.42519,-1.508753 14.53849,-1.508753 8.42796,0 10.43783,0.22764 15.09089,1.70921 15.83958,5.04344 27.65143,17.992052 30.54694,33.486742 0.63929,3.420978 0.63734,10.784507 -0.004,14.217307 -1.57836,8.45151 -6.36776,17.26323 -12.50975,23.01591 -10.34771,9.69181 -24.13563,14.19001 -38.80755,12.66065 z m -0.67981,-22.96723 c 0.75617,-0.14341 2.09946,-0.55342 2.98509,-0.91114 l 1.61023,-0.6504 1.5453,0.65041 c 0.84992,0.35772 2.40743,0.78397 3.46114,0.94721 3.66467,0.56774 7.81853,-0.7243 10.70501,-3.32974 1.4794,-1.33537 1.95402,-2.2558 0.55707,-1.08034 -1.84116,1.54923 -5.51846,2.88152 -7.8924,2.85942 -2.41319,-0.0225 -5.40947,-0.95836 -7.23352,-2.2594 -0.72654,-0.51821 -1.1873,-0.59605 -3.73643,-0.63122 -3.64953,-0.0503 -4.63315,-0.21144 -6.55379,-1.07337 -1.91924,-0.86131 -3.4405,-2.52156 -3.88649,-4.24158 -0.41925,-1.61688 -0.51722,-3.76165 -0.20044,-4.38773 0.4737,-0.93619 -0.15363,-1.04607 -2.482822,-0.43486 -2.899238,0.76081 -5.877177,0.83033 -8.419851,0.19658 -1.853347,-0.46194 -5.457165,-2.05639 -6.806655,-3.0115 -0.884309,-0.62588 -0.785904,-0.0189 0.37574,2.31747 1.174728,2.36272 3.594504,4.86416 5.703523,5.89601 1.614503,0.7899 3.915631,1.46687 5.002555,1.47169 0.580879,0.003 0.927993,0.33613 1.950606,1.87436 2.949835,4.43718 8.272254,6.75468 13.316134,5.79813 z m 26.43523,-8.49289 c 1.56274,-0.53565 2.8789,-1.33128 4.37434,-2.64428 1.13649,-0.99785 0.91814,-1.28005 -0.99519,-1.28618 -1.52185,-0.005 -2.74178,-0.48655 -3.60613,-1.42383 -0.97999,-1.06269 -1.27841,-0.88956 -1.42213,0.82503 -0.15018,1.79164 -0.65308,4.21906 -1.01367,4.89283 -0.22556,0.42146 -0.16903,0.45673 0.4855,0.30291 0.40743,-0.0957 1.3872,-0.39567 2.17728,-0.66648 z"
         id="path1084" />
      <path
         style="fill:#dddede;stroke-width:0.264336;fill-rule:evenodd"
         d="m 109.9477,140.76646 c -7.04217,-0.74235 -15.286204,-3.79726 -21.226061,-7.86555 -7.940396,-5.43848 -14.17918,-13.60534 -16.870185,-22.08387 -1.470273,-4.63238 -1.819678,-7.04242 -1.824159,-12.58229 -0.0043,-5.268232 0.390408,-7.911387 1.874828,-12.555966 0.736887,-2.305632 2.908978,-6.814098 4.470892,-9.279935 5.486837,-8.662217 14.302307,-15.296927 24.827935,-18.686033 4.93575,-1.589243 6.45322,-1.771845 14.72442,-1.771845 8.44709,0 10.19918,0.237918 15.68675,2.130113 10.9833,3.787203 19.67299,10.911267 25.06411,20.54831 1.68982,3.020679 2.04099,3.814392 3.23643,7.314966 1.42523,4.173445 1.79673,6.716749 1.79673,12.30039 0,5.45358 -0.37216,8.1108 -1.73758,12.4062 -1.48917,4.68469 -3.67418,8.66011 -7.44259,13.54107 -6.82158,8.83551 -18.78996,15.26292 -30.89788,16.59317 -2.9243,0.32128 -8.59318,0.31704 -11.68364,-0.009 z m 0.10851,-22.55639 c 0.945,-0.20316 2.22988,-0.60112 2.85528,-0.88434 l 1.13709,-0.51496 1.58957,0.64205 c 5.22165,2.10912 10.94314,0.98399 14.72385,-2.89545 0.60208,-0.61781 1.54318,-1.76583 2.09133,-2.55116 0.88736,-1.27132 1.15277,-1.46737 2.42078,-1.78817 2.20072,-0.55675 4.34527,-1.84026 6.06207,-3.62813 1.3538,-1.40985 2.9795,-3.93927 2.94337,-4.57958 -0.006,-0.11387 -0.25613,0.26876 -0.5549,0.8503 -0.29878,0.58154 -0.84016,1.49646 -1.20308,2.03316 -0.64432,0.95285 -0.69192,0.97274 -2.02237,0.84496 -2.64846,-0.25435 -3.12026,-0.40403 -4.11977,-1.30704 -0.55414,-0.50063 -1.13124,-0.91024 -1.28243,-0.91024 -0.1512,0 -0.33224,0.68397 -0.40231,1.51994 -0.43771,5.22196 -2.18761,8.07243 -6.18922,10.08183 -1.52089,0.76371 -4.18589,1.43914 -5.62546,1.42574 -2.41319,-0.0225 -5.40947,-0.95836 -7.23352,-2.2594 -0.72654,-0.51821 -1.1873,-0.59605 -3.73643,-0.63122 -3.64953,-0.0503 -4.63315,-0.21144 -6.55379,-1.07337 -1.91924,-0.86131 -3.4405,-2.52156 -3.88649,-4.24158 -0.41925,-1.61688 -0.51722,-3.76165 -0.20044,-4.38773 0.4737,-0.93619 -0.15363,-1.04607 -2.482822,-0.43486 -2.894717,0.75962 -5.875969,0.83001 -8.419851,0.1988 -2.102228,-0.52163 -5.378327,-1.9931 -6.806655,-3.05723 -0.822692,-0.61292 -0.859092,-0.6176 -0.859092,-0.1106 0,0.29119 0.471854,1.47218 1.048564,2.62441 1.927584,3.85119 5.482085,6.53359 9.685909,7.30946 1.766917,0.3261 1.826192,0.36372 2.793705,1.77296 3.336398,4.85966 8.757392,7.12735 14.227112,5.95145 z m 34.27993,-17.91019 c -0.0844,-0.21087 -0.14702,-0.14824 -0.1597,0.1597 -0.0115,0.27865 0.051,0.43478 0.13884,0.34694 0.0878,-0.0878 0.0972,-0.31583 0.0208,-0.50664 z M 82.219766,98.834537 c -0.06702,-0.257192 -0.126263,-0.110765 -0.13165,0.325389 -0.0054,0.436155 0.04945,0.646582 0.121856,0.467619 0.07241,-0.178964 0.07682,-0.535817 0.0098,-0.793008 z m 62.383324,0 c -0.067,-0.257192 -0.12626,-0.110765 -0.13165,0.325389 -0.005,0.436155 0.0495,0.646582 0.12186,0.467619 0.0724,-0.178964 0.0768,-0.535817 0.01,-0.793008 z M 82.219766,94.605159 c -0.06702,-0.257191 -0.126263,-0.110765 -0.13165,0.325389 -0.0054,0.436155 0.04945,0.646582 0.121856,0.467619 0.07241,-0.178963 0.07682,-0.535817 0.0098,-0.793008 z m 62.383324,0 c -0.067,-0.257191 -0.12626,-0.110765 -0.13165,0.325389 -0.005,0.436155 0.0495,0.646582 0.12186,0.467619 0.0724,-0.178963 0.0768,-0.535817 0.01,-0.793008 z M 84.522117,89.435585 c 1.135775,-1.711117 2.585641,-2.996528 4.685534,-4.154061 0.780921,-0.430471 1.300905,-0.783714 1.155521,-0.784983 -0.661097,-0.0058 -3.310916,1.803766 -4.665304,3.185898 -1.475175,1.505389 -2.963806,4.087762 -3.263962,5.662093 -0.08316,0.436154 0.124965,0.07812 0.462491,-0.79562 0.337526,-0.873747 1.0691,-2.274745 1.62572,-3.113327 z m 59.362523,2.630316 c -1.04655,-2.797165 -3.73075,-5.739287 -6.5226,-7.149359 -1.45464,-0.734696 -1.33954,-0.456733 0.15114,0.364982 3.07729,1.696311 5.35323,4.353267 6.30758,7.363545 0.24677,0.778375 0.48698,1.300288 0.53381,1.159809 0.0468,-0.140481 -0.16464,-0.923019 -0.46993,-1.738977 z M 92.274101,84.065232 c -0.08784,-0.08784 -0.315826,-0.09723 -0.506644,-0.02086 -0.210869,0.08438 -0.148233,0.147018 0.159703,0.159701 0.278654,0.01147 0.434778,-0.051 0.346941,-0.138835 z m 42.822449,0 c -0.0878,-0.08784 -0.31583,-0.09723 -0.50664,-0.02086 -0.21087,0.08438 -0.14824,0.147018 0.1597,0.159701 0.27866,0.01147 0.43478,-0.051 0.34694,-0.138835 z M 93.738488,83.787211 c -0.178964,-0.07241 -0.535818,-0.07681 -0.793008,-0.0098 -0.257191,0.06702 -0.110766,0.126263 0.325389,0.13165 0.436154,0.0054 0.646583,-0.04945 0.467619,-0.121856 z m 1.382734,-0.293247 c 0.145385,-0.106813 0.738016,-0.897236 1.316959,-1.756496 3.410364,-5.06162 10.459939,-7.035879 16.145289,-4.521548 1.59381,0.70486 2.23255,0.809663 2.64051,0.433257 0.52651,-0.485779 3.2318,-1.305758 4.8782,-1.478596 4.83257,-0.507321 9.76081,1.883191 12.46583,6.046731 0.55776,0.858504 1.01412,1.446811 1.01412,1.30735 0,-0.506389 -1.61649,-2.785431 -2.77267,-3.909107 -2.18894,-2.127407 -5.14337,-3.459738 -8.31271,-3.748702 -2.07853,-0.189509 -4.15474,0.163136 -6.51147,1.105977 l -1.742,0.696911 -1.54874,-0.695034 c -2.24662,-1.008221 -5.25612,-1.392244 -7.6117,-0.971278 -3.67619,0.656972 -7.554928,3.197263 -9.219944,6.0384 -0.363743,0.620679 -0.857849,1.243223 -1.098016,1.383432 -0.240167,0.140209 -0.317715,0.256723 -0.172331,0.258917 0.145385,0.0021 0.383288,-0.0834 0.528673,-0.190214 z"
         id="path1082" />
      <path
         style="fill:#aff5f4;stroke-width:0.264336;fill-rule:evenodd"
         d="m 109.9477,140.76646 c -7.04217,-0.74235 -15.286204,-3.79726 -21.226061,-7.86555 -7.940396,-5.43848 -14.17918,-13.60534 -16.870185,-22.08387 -1.470273,-4.63238 -1.819678,-7.04242 -1.824159,-12.58229 -0.0043,-5.268232 0.390408,-7.911387 1.874828,-12.555966 0.736887,-2.305632 2.908978,-6.814098 4.470892,-9.279935 5.486837,-8.662217 14.302307,-15.296927 24.827935,-18.686033 4.93575,-1.589243 6.45322,-1.771845 14.72442,-1.771845 8.44709,0 10.19918,0.237918 15.68675,2.130113 10.9833,3.787203 19.67299,10.911267 25.06411,20.54831 1.68982,3.020679 2.04099,3.814392 3.23643,7.314966 1.42523,4.173445 1.79673,6.716749 1.79673,12.30039 0,5.45358 -0.37216,8.1108 -1.73758,12.4062 -1.48917,4.68469 -3.67418,8.66011 -7.44259,13.54107 -6.82158,8.83551 -18.78996,15.26292 -30.89788,16.59317 -2.9243,0.32128 -8.59318,0.31704 -11.68364,-0.009 z m 0.10851,-22.55639 c 0.945,-0.20316 2.22988,-0.60112 2.85528,-0.88434 l 1.13709,-0.51496 1.58957,0.64205 c 5.22165,2.10912 10.94314,0.98399 14.72385,-2.89545 0.60208,-0.61781 1.54318,-1.76583 2.09133,-2.55116 0.88736,-1.27132 1.15277,-1.46737 2.42078,-1.78817 4.35763,-1.10243 8.0269,-4.74734 9.38415,-9.32182 0.61337,-2.067298 0.56367,-5.860704 -0.10514,-8.026066 -1.25881,-4.075555 -4.61975,-7.412749 -8.72477,-8.663132 -1.58131,-0.481666 -1.77445,-0.622895 -2.35915,-1.725074 -0.80879,-1.524575 -2.99569,-3.754692 -4.6092,-4.700267 -3.90002,-2.285567 -8.10242,-2.558047 -12.47472,-0.808851 l -1.742,0.696911 -1.54874,-0.695034 c -5.92687,-2.659818 -13.278694,-0.44641 -16.826318,5.065885 -0.533572,0.829063 -1.127031,1.429566 -1.479763,1.497331 -2.89606,0.556362 -3.814295,0.82285 -5.140958,1.492001 -3.188253,1.60811 -5.683508,4.570266 -6.717493,7.974434 -0.467692,1.539776 -0.539806,2.320276 -0.444481,4.810687 0.105627,2.759505 0.183479,3.119465 1.085485,5.018835 1.906121,4.01374 5.568857,6.86359 9.827384,7.64634 1.810682,0.33282 1.859136,0.36326 2.830702,1.7784 3.336398,4.85966 8.757392,7.12735 14.227112,5.95145 z"
         id="path1080" />
      <path
         style="fill:#88f9f7;stroke-width:0.264336;fill-rule:evenodd"
         d="m 110.71705,140.76645 c -9.22734,-0.96183 -19.171832,-5.28054 -26.326512,-11.43312 -1.997319,-1.71757 -5.600784,-5.8524 -7.302541,-8.37936 -1.603772,-2.38147 -4.28058,-7.90373 -5.096666,-10.51443 -1.376086,-4.40218 -1.700226,-6.771 -1.688137,-12.336958 0.0098,-4.496722 0.08401,-5.326719 0.709322,-7.930084 0.384127,-1.599233 1.042014,-3.918783 1.461971,-5.154554 3.308696,-9.736214 11.550803,-18.958262 21.465982,-24.018168 2.957884,-1.509465 9.325161,-3.797005 11.566351,-4.155386 0.60688,-0.09704 1.04884,-0.264744 0.98214,-0.372668 -0.23585,-0.381615 2.40058,-0.530751 9.38265,-0.530751 6.98206,0 9.6185,0.149136 9.38264,0.530751 -0.0667,0.107924 0.37527,0.275624 0.98214,0.372668 1.92958,0.308552 8.21048,2.484861 10.77827,3.734632 8.05975,3.922761 15.2672,10.686081 19.49519,18.29386 2.08355,3.749112 3.77057,8.296155 4.48654,12.092625 0.62898,3.335173 0.62118,11.238623 -0.0144,14.631403 -1.50841,8.05143 -6.39748,17.04965 -12.19899,22.45199 -10.18728,9.48632 -24.18864,14.16408 -38.06591,12.71755 z m 0.8395,-22.71322 c 2.39921,-0.86486 2.47919,-0.86674 4.71561,-0.11033 2.7322,0.9241 6.21376,0.97733 8.89084,0.13595 3.07782,-0.96733 5.86506,-3.19415 7.53343,-6.01873 0.56482,-0.95625 0.86314,-1.16958 2.15832,-1.54338 4.51997,-1.30453 7.93287,-4.49091 9.47444,-8.84562 0.48618,-1.37338 0.60936,-2.280143 0.61382,-4.518417 0.009,-4.276392 -1.04452,-6.894906 -3.93552,-9.786259 -1.78112,-1.781332 -3.95023,-3.090317 -6.06426,-3.659565 -0.93786,-0.252539 -1.20745,-0.475287 -1.54078,-1.273058 -0.58325,-1.39592 -3.90201,-4.590897 -5.63572,-5.42553 -3.62063,-1.743017 -7.69048,-1.954637 -11.23428,-0.584147 -1.0177,0.393572 -2.02878,0.716781 -2.24686,0.718243 -0.21808,0.0015 -1.16969,-0.325073 -2.11469,-0.725634 -3.39006,-1.436955 -7.71287,-1.173215 -11.41687,0.696557 -1.901278,0.959763 -4.78965,3.703015 -5.375687,5.1056 -0.407514,0.975318 -0.57213,1.054239 -2.798261,1.341532 -2.092831,0.270088 -4.858582,1.797602 -6.836528,3.775785 -2.92266,2.923011 -3.974273,5.526095 -3.965731,9.816476 0.0062,3.103827 0.561633,5.192757 1.974627,7.426117 1.926447,3.04491 5.676503,5.54432 9.232483,6.15343 1.759536,0.3014 1.817229,0.33703 2.650797,1.63713 1.161044,1.81087 3.682732,4.08005 5.54115,4.98629 3.21786,1.56917 7.21632,1.83789 10.37967,0.69756 z"
         id="path1078" />
      <path
         style="fill:#73f6f4;stroke-width:0.264336;fill-rule:evenodd"
         d="m 110.45272,140.50211 c -7.17626,-0.74803 -15.374683,-3.73594 -21.440288,-7.8139 -6.040974,-4.0614 -10.658575,-9.40206 -14.372429,-16.623 -1.736928,-3.37715 -2.931298,-6.8488 -3.633433,-10.56122 -0.542859,-2.87027 -0.624859,-11.774453 -0.124338,-13.501522 l 0.312336,-1.077727 6.500996,-2.581308 c 6.461761,-2.565731 10.961155,-4.194877 11.127114,-4.028919 0.04773,0.04773 -0.574186,0.542016 -1.382041,1.098406 -5.99233,4.127075 -7.81416,11.840458 -4.384463,18.56322 0.752537,1.47509 3.195994,4.0698 4.8047,5.1021 1.372099,0.88047 4.831574,2.10898 5.938888,2.10898 0.48328,0 0.897074,0.37384 1.682366,1.51993 2.870867,4.18988 6.772862,6.26432 11.798552,6.27255 2.24954,0.004 2.96574,-0.10983 4.80718,-0.76189 l 2.16381,-0.76622 1.40473,0.61001 c 1.74558,0.75803 5.97708,1.0267 8.46409,0.53741 3.30729,-0.65067 6.49141,-2.89487 8.68972,-6.1246 0.84599,-1.2429 1.17842,-1.51888 2.01591,-1.67357 3.39541,-0.62717 7.37219,-3.87092 9.06154,-7.39126 1.65924,-3.45761 1.96487,-6.266321 1.0648,-9.785563 -1.20696,-4.719148 -4.63719,-8.434812 -9.18357,-9.947751 -1.79786,-0.59829 -2.34127,-1.037347 -1.28389,-1.037347 1.96589,0 25.27217,4.868355 25.56359,5.339875 0.10754,0.17401 0.32885,1.081928 0.49179,2.017596 1.25724,7.219624 0.92691,14.18422 -0.95961,20.23223 -0.92962,2.98028 -3.15725,7.49522 -5.1542,10.44647 -0.92404,1.36562 -2.05456,3.03627 -2.51226,3.71254 -1.03724,1.53257 -4.88312,5.19532 -7.44523,7.09072 -9.53412,7.05316 -21.77335,10.29994 -34.01636,9.02376 z M 93.865625,82.728191 c 0.181731,-0.07333 0.479109,-0.07333 0.66084,0 0.181731,0.07333 0.03304,0.133328 -0.33042,0.133328 -0.363462,0 -0.512151,-0.06 -0.33042,-0.133328 z"
         id="path1076" />
      <path
         style="fill:#5cf3ef;stroke-width:0.264336;fill-rule:evenodd"
         d="m 110.21204,140.23778 c -9.62817,-1.01494 -19.584796,-5.53907 -26.58944,-12.08181 -1.315488,-1.22874 -1.893583,-1.9398 -1.718184,-2.11338 0.145385,-0.14387 2.405458,-0.86632 5.022386,-1.60544 14.586368,-4.11975 22.389728,-5.27521 36.346218,-5.38188 7.4298,-0.0568 8.33182,-0.0135 11.49862,0.55177 6.33482,1.13076 16.48415,4.02558 16.73319,4.77269 0.067,0.20114 -0.97764,1.42775 -2.38963,2.80574 -10.20441,9.95877 -24.08169,14.6147 -38.90316,13.05231 z"
         id="path1074" />
    </g>
    <g
       id="g900"
       transform="matrix(0.91068908,0,0,0.91068908,-58.847506,-93.594656)">
      <path
         style="fill:#efe09e;stroke-width:0.264779"
         d="m 93.620495,150.34786 c 0.546106,-0.0571 1.439733,-0.0571 1.985839,0 0.546106,0.0571 0.09929,0.10386 -0.992919,0.10386 -1.092212,0 -1.539026,-0.0467 -0.99292,-0.10386 z m -10.814887,-4.63933 -0.5044,-0.59575 0.595751,0.5044 c 0.55986,0.47401 0.716291,0.6871 0.504401,0.6871 -0.05024,0 -0.318332,-0.26809 -0.595752,-0.59575 z m 23.325682,0.0662 c 0.26358,-0.29125 0.53881,-0.52955 0.61163,-0.52955 0.0728,0 -0.0833,0.2383 -0.34686,0.52955 -0.26358,0.29126 -0.53882,0.52956 -0.61163,0.52956 -0.0728,0 0.0833,-0.2383 0.34686,-0.52956 z m 4.30753,-7.4584 c 0.15387,-0.15386 0.43605,-0.22765 0.62707,-0.16398 0.1983,0.0661 0.0783,0.18612 -0.27975,0.27975 -0.44042,0.11517 -0.5438,0.0807 -0.34732,-0.11577 z m -33.763581,-1.94124 c 0.0029,-0.58251 0.05716,-0.78963 0.120495,-0.46027 0.06333,0.32936 0.06093,0.80596 -0.0053,1.05911 -0.06627,0.25315 -0.11809,-0.0163 -0.115152,-0.59884 z m 35.739771,-0.13239 c 0,-0.5097 0.0545,-0.71821 0.12109,-0.46336 0.0666,0.25485 0.0666,0.67188 0,0.92673 -0.0666,0.25485 -0.12109,0.0463 -0.12109,-0.46337 z m -34.196968,-5.97958 c 0.0127,-0.30845 0.07545,-0.37119 0.159971,-0.15997 0.07649,0.19113 0.06708,0.41951 -0.0209,0.50749 -0.08798,0.088 -0.150564,-0.0684 -0.139067,-0.34752 z m 32.567778,-0.26478 c 0.0127,-0.30845 0.0754,-0.37119 0.15996,-0.15997 0.0765,0.19114 0.0671,0.41951 -0.0209,0.50749 -0.088,0.088 -0.15056,-0.0684 -0.13906,-0.34752 z m -4.8207,-11.42961 c -0.32935,-0.41996 -0.31998,-0.42932 0.1,-0.1 0.44106,0.3459 0.58132,0.56333 0.36339,0.56333 -0.055,0 -0.26349,-0.20851 -0.46336,-0.46336 z m -22.604798,-0.33097 c 0.263584,-0.29126 0.538818,-0.52956 0.611632,-0.52956 0.07281,0 -0.08327,0.2383 -0.346853,0.52956 -0.263584,0.29125 -0.538818,0.52955 -0.611632,0.52955 -0.07281,0 0.08327,-0.2383 0.346853,-0.52955 z m 1.588672,-1.58868 c 0.263583,-0.29125 0.538818,-0.52955 0.611632,-0.52955 0.07281,0 -0.08327,0.2383 -0.346853,0.52955 -0.263584,0.29126 -0.538818,0.52956 -0.611632,0.52956 -0.07282,0 0.08327,-0.2383 0.346853,-0.52956 z m 7.761324,-3.62299 c 0.191136,-0.0765 0.419507,-0.0671 0.507493,0.0209 0.08798,0.088 -0.0684,0.15057 -0.347522,0.13907 -0.308454,-0.0127 -0.371193,-0.0754 -0.159971,-0.15997 z m 4.550883,-4.15556 c 0,-0.055 0.208513,-0.26349 0.463363,-0.46336 0.419954,-0.32935 0.42932,-0.31998 0.09997,0.1 -0.345898,0.44105 -0.563332,0.58132 -0.563332,0.36339 z m -1.811645,-0.95914 c 0,-0.36407 0.0601,-0.51301 0.133552,-0.33098 0.07345,0.18204 0.07345,0.47992 0,0.66195 -0.07345,0.18204 -0.133552,0.0331 -0.133552,-0.33097 z m -1.080016,-0.68401 c 0.01271,-0.30846 0.07545,-0.3712 0.159969,-0.15997 0.07649,0.19113 0.06708,0.41951 -0.02089,0.50749 -0.08798,0.088 -0.150564,-0.0684 -0.139067,-0.34752 z"
         id="path914" />
      <path
         style="fill:#ebd162;stroke-width:0.264779"
         d="m 104.79074,117.37721 -0.77768,-0.86053 0.86053,0.77768 c 0.80213,0.72491 0.98223,0.94339 0.77768,0.94339 -0.0456,0 -0.43281,-0.38724 -0.86053,-0.86054 z m -11.368829,-4.43504 c 0.09,-0.14563 0.216186,-0.26478 0.280405,-0.26478 0.06422,0 0.116763,0.11915 0.116763,0.26478 0,0.14563 -0.126183,0.26478 -0.280406,0.26478 -0.154223,0 -0.206766,-0.11915 -0.116762,-0.26478 z m 0.947629,-1.21357 c 0.01271,-0.30845 0.07545,-0.37119 0.159969,-0.15997 0.07649,0.19114 0.06708,0.41951 -0.02089,0.5075 -0.08798,0.088 -0.150564,-0.0684 -0.139067,-0.34753 z m -1.894396,-1.89758 -0.641905,-0.72814 0.728141,0.64191 c 0.680558,0.59996 0.849566,0.81437 0.641906,0.81437 -0.04743,0 -0.375091,-0.32766 -0.728142,-0.72814 z m 1.894396,-1.80932 c 0.01271,-0.30845 0.07545,-0.37119 0.159969,-0.15997 0.07649,0.19114 0.06708,0.41951 -0.02089,0.50749 -0.08798,0.088 -0.150564,-0.0684 -0.139067,-0.34752 z"
         id="path912" />
      <path
         style="fill:#eac629;stroke-width:0.264779"
         d="m 88.258727,147.74042 c -2.045165,-0.53712 -5.078355,-2.07257 -6.042675,-3.0589 -0.933158,-0.95446 -2.487003,-3.80538 -2.975908,-5.46007 -0.240623,-0.81438 -0.47204,-1.12531 -0.837545,-1.12531 -1.753675,0 -1.968127,-1.45748 -0.759703,-5.16318 0.427403,-1.31065 0.970692,-3.4379 1.207308,-4.72721 1.315154,-7.16623 5.936766,-12.76055 12.038172,-14.57186 0.790981,-0.23482 1.773972,-0.42694 2.184424,-0.42694 0.410455,0 0.746279,-0.0723 0.746279,-0.16068 0,-0.36203 -2.218589,-2.91301 -3.044547,-3.50069 -0.527214,-0.37512 -0.831061,-0.78214 -0.747139,-1.00083 0.250952,-0.65398 0.662044,-0.4043 2.575189,1.56405 l 1.878443,1.93265 0.03324,-2.74699 c 0.03043,-2.51453 0.311714,-3.64178 0.789515,-3.16398 0.0933,0.0933 0.149444,1.396 0.124766,2.89491 l -0.04486,2.72528 0.769063,-1.19151 c 0.422984,-0.65532 1.090001,-1.48625 1.482262,-1.84651 0.599957,-0.551 0.752041,-0.59304 0.957821,-0.26478 0.178284,0.28441 0.02969,0.59246 -0.547948,1.13595 -0.703279,0.6617 -2.276318,3.31412 -2.059179,3.47213 0.0462,0.0336 0.752986,0.20543 1.570638,0.38181 2.262682,0.48809 5.103807,1.9658 6.457497,3.35864 3.35855,3.4557 5.47911,11.12007 4.64846,16.80095 -0.62342,4.26362 -2.11506,7.41829 -4.76682,10.08137 -1.90439,1.91253 -4.514537,3.37346 -7.285657,4.07786 -1.985347,0.50467 -6.400486,0.49613 -8.351092,-0.0162 z m 8.027318,-6.71297 c 0.516954,-0.57221 1.06633,-1.49562 1.220839,-2.05203 0.382393,-1.37709 0.356744,-3.40473 -0.0471,-3.72333 -0.182035,-0.14361 -1.462902,-0.26111 -2.84637,-0.26111 -1.383469,0 -2.664336,0.1175 -2.846371,0.26111 -0.403843,0.3186 -0.429492,2.34624 -0.0471,3.72333 0.394192,1.41956 1.959415,3.0924 2.89347,3.0924 0.516641,0 1.009892,-0.3068 1.67263,-1.04037 z m -4.403677,-7.74348 c 0.767197,-0.72074 0.871567,-2.93596 0.174611,-3.70609 -0.554004,-0.61217 -2.130104,-0.63821 -2.784483,-0.046 -0.706443,0.63932 -0.67736,3.07554 0.04535,3.79825 0.693166,0.69316 1.798734,0.67327 2.564526,-0.0462 z m 7.94336,0 c 0.767192,-0.72074 0.871562,-2.93596 0.174612,-3.70609 -0.554006,-0.61217 -2.130106,-0.63821 -2.784485,-0.046 -0.706443,0.63932 -0.677359,3.07554 0.04535,3.79825 0.693167,0.69316 1.798734,0.67327 2.564527,-0.0462 z m 9.588252,4.20588 c -0.49483,-0.33347 -0.88906,-0.69891 -0.87607,-0.81209 0.013,-0.11319 0.54081,-1.44634 1.17294,-2.96257 l 1.14931,-2.75678 0.74671,2.15491 c 0.89819,2.59206 0.98366,4.30783 0.23456,4.70873 -0.78633,0.42083 -1.44346,0.3309 -2.42745,-0.3322 z"
         id="path910" />
      <path
         style="fill:#cdae25;stroke-width:0.264779"
         d="m 91.502265,148.22963 c 0.546106,-0.0571 1.439734,-0.0571 1.98584,0 0.546106,0.0571 0.09929,0.10386 -0.99292,0.10386 -1.092212,0 -1.539026,-0.0467 -0.99292,-0.10386 z m -2.498848,-0.25277 c 0.191136,-0.0765 0.419507,-0.0671 0.507493,0.0209 0.08798,0.088 -0.0684,0.15056 -0.347522,0.13907 -0.308454,-0.0127 -0.371193,-0.0754 -0.159971,-0.15997 z m 6.619466,0 c 0.191136,-0.0765 0.419507,-0.0671 0.507493,0.0209 0.08798,0.088 -0.0684,0.15056 -0.347522,0.13907 -0.308453,-0.0127 -0.371193,-0.0754 -0.159971,-0.15997 z m -11.721696,-1.3895 c -0.08378,-0.13557 -0.0511,-0.30905 0.07263,-0.38552 0.123732,-0.0765 0.224968,0.0344 0.224968,0.24648 0,0.44646 -0.08349,0.48547 -0.297601,0.13904 z m 22.627263,-1.44216 c 0,-0.055 0.20852,-0.2635 0.46337,-0.46337 0.41995,-0.32935 0.42932,-0.31998 0.1,0.1 -0.3459,0.44106 -0.56334,0.58132 -0.56334,0.3634 z m -2.64778,-1.35632 c 0.34202,-0.36407 0.68144,-0.66194 0.75425,-0.66194 0.0728,0 -0.14745,0.29787 -0.48947,0.66194 -0.34203,0.36408 -0.68145,0.66195 -0.75426,0.66195 -0.0728,0 0.14745,-0.29787 0.48948,-0.66195 z M 93.7276,141.86924 c -0.0675,-0.10922 0.331114,-0.19858 0.885815,-0.19858 0.5547,0 0.953316,0.0894 0.885814,0.19858 -0.0675,0.10922 -0.466119,0.19858 -0.885814,0.19858 -0.419696,0 -0.818312,-0.0894 -0.885815,-0.19858 z m 14.88531,-4.76602 c -0.32935,-0.41995 -0.31999,-0.42932 0.1,-0.1 0.25485,0.19987 0.46336,0.40839 0.46336,0.46337 0,0.21792 -0.21743,0.0777 -0.56333,-0.3634 z m -0.49578,-0.87615 c 0,-0.15423 0.11915,-0.20677 0.26477,-0.11677 0.14563,0.09 0.26478,0.21619 0.26478,0.28041 0,0.0642 -0.11915,0.11676 -0.26478,0.11676 -0.14562,0 -0.26477,-0.12618 -0.26477,-0.2804 z m 0.28568,-1.19794 c 0.0127,-0.30846 0.0754,-0.3712 0.15997,-0.15998 0.0765,0.19114 0.0671,0.41951 -0.0209,0.5075 -0.088,0.088 -0.15057,-0.0684 -0.13907,-0.34752 z m 0.28568,-1.699 c 0,-0.36407 0.0601,-0.51301 0.13355,-0.33098 0.0734,0.18204 0.0734,0.47992 0,0.66195 -0.0735,0.18204 -0.13355,0.0331 -0.13355,-0.33097 z m 0,-5.29557 c 0,-0.36408 0.0601,-0.51301 0.13355,-0.33098 0.0734,0.18204 0.0734,0.47991 0,0.66195 -0.0735,0.18203 -0.13355,0.0331 -0.13355,-0.33097 z"
         id="path908" />
      <path
         style="fill:#e67b21;stroke-width:0.264779"
         d="m 93.155342,140.28057 c -1.416695,-1.40167 -2.263524,-4.45753 -1.388298,-5.00981 0.468584,-0.29568 5.293778,-0.29783 5.692741,-0.003 0.856209,0.63373 0.105014,3.40443 -1.323059,4.87995 -1.044457,1.07917 -1.982366,1.12082 -2.981384,0.13239 z"
         id="path906" />
      <path
         style="fill:#bb9e20;stroke-width:0.264779"
         d="m 91.171292,149.98533 c -2.420943,-0.47264 -5.43197,-1.98174 -7.546191,-3.78208 -0.703978,-0.59946 -0.59856,-0.5745 0.926725,0.21945 2.784367,1.44933 4.498184,1.84805 7.943359,1.84805 3.475591,0 5.161039,-0.39917 8.031445,-1.90213 3.12486,-1.63619 6.01258,-5.00816 7.20766,-8.41632 l 0.46825,-1.33534 0.56861,0.541 c 0.31273,0.29756 0.78781,0.66552 1.05572,0.8177 0.46457,0.26387 0.46678,0.3379 0.0477,1.59968 -1.74461,5.25252 -6.54391,9.40717 -12.053737,10.43466 -1.686989,0.31459 -4.974205,0.30239 -6.649521,-0.0247 z m 2.337397,-8.45675 c -0.517483,-0.30196 -1.399005,-1.68956 -1.675945,-2.6381 -0.143672,-0.49209 -0.0068,-0.39129 0.533375,0.39284 0.916801,1.33084 1.411461,1.70638 2.261549,1.71697 0.664247,0.008 1.920074,-1.07004 2.61131,-2.2422 0.286006,-0.48499 0.29754,-0.47385 0.137065,0.13239 -0.256282,0.96817 -1.147646,2.35029 -1.709773,2.65114 -0.614864,0.32906 -1.581301,0.32322 -2.157581,-0.0131 z m 15.059671,-6.35494 c 0.4046,-2.2688 0.23593,-8.18548 -0.29031,-10.18404 -0.51959,-1.97329 -1.87935,-5.14153 -2.81393,-6.55647 -0.49284,-0.74615 -0.44076,-0.71999 0.4016,0.20178 2.19536,2.40232 4.02691,6.43038 4.63518,10.19398 l 0.32096,1.98584 -1.11348,2.64779 c -0.61241,1.45628 -1.16685,2.70289 -1.2321,2.77023 -0.0652,0.0673 -0.0238,-0.40925 0.0921,-1.05911 z m -18.658616,-1.59088 c -0.329782,-0.13113 -0.717021,-0.54725 -0.860531,-0.92471 -0.361913,-0.95189 -0.335001,-0.99067 0.268629,-0.38704 0.692965,0.69297 1.967278,0.68051 2.673925,-0.0261 l 0.555696,-0.5557 -0.186944,0.62189 c -0.352796,1.17361 -1.370018,1.70144 -2.450775,1.2717 z m 7.943359,0 c -0.329782,-0.13113 -0.717021,-0.54725 -0.860531,-0.92471 -0.361912,-0.95189 -0.335,-0.99067 0.268629,-0.38704 0.692965,0.69297 1.967279,0.68051 2.673925,-0.0261 l 0.555694,-0.5557 -0.18694,0.62189 c -0.352798,1.17361 -1.370019,1.70144 -2.450777,1.2717 z"
         id="path904" />
      <path
         style="fill:#070501;stroke-width:0.264779"
         d="m 89.317842,132.27101 c -0.294199,-0.29419 -0.529558,-0.88259 -0.529558,-1.32389 0,-0.4413 0.235359,-1.02969 0.529558,-1.32389 1.146009,-1.14601 3.177343,-0.29962 3.177343,1.32389 0,1.01921 -0.834243,1.85345 -1.85345,1.85345 -0.441299,0 -1.029695,-0.23536 -1.323893,-0.52956 z m 7.943359,0 c -0.294198,-0.29419 -0.529557,-0.88259 -0.529557,-1.32389 0,-0.4413 0.235359,-1.02969 0.529557,-1.32389 0.294198,-0.2942 0.882595,-0.52956 1.323893,-0.52956 0.441299,0 1.029695,0.23536 1.323893,0.52956 0.294203,0.2942 0.529553,0.88259 0.529553,1.32389 0,0.4413 -0.23535,1.0297 -0.529553,1.32389 -0.294198,0.2942 -0.882594,0.52956 -1.323893,0.52956 -0.441298,0 -1.029695,-0.23536 -1.323893,-0.52956 z"
         id="path902" />
    </g>
    <path
       style="fill:#000000;stroke-width:0.1002"
       d="m 48.259153,81.163802 c -1.946716,-0.249165 -4.321219,-1.197222 -5.811644,-2.320416 -4.705137,-3.545799 -6.25854,-9.849651 -3.713084,-15.068036 1.453308,-2.979395 3.88949,-5.154812 6.992166,-6.243733 2.566313,-0.900676 5.521308,-0.88563 8.093704,0.04125 3.074205,1.107675 5.780854,3.64596 7.068979,6.629291 1.862063,4.312565 1.066201,9.399888 -2.009832,12.847257 -2.348768,2.632314 -5.321589,4.036316 -8.816675,4.163935 -0.606215,0.02215 -1.417842,-2.07e-4 -1.803614,-0.04956 z m 3.657328,-3.006814 c 1.125991,-0.269572 2.709005,-1.051283 3.631119,-1.793083 3.026485,-2.434681 4.261936,-6.412322 3.121549,-10.050062 -1.017763,-3.246563 -3.627525,-5.650354 -7.003171,-6.450453 -0.987543,-0.234072 -2.878763,-0.234833 -3.896925,-0.002 -2.896965,0.663697 -5.190557,2.472596 -6.475792,5.107304 -0.749398,1.536241 -0.928729,2.322513 -0.928729,4.071955 0,1.162275 0.04202,1.607727 0.210068,2.226862 0.803912,2.961867 2.784428,5.258643 5.530235,6.413332 1.061036,0.446193 1.168973,0.478291 2.154318,0.64059 1.024906,0.168807 2.550878,0.100013 3.657328,-0.16488 z m -7.775955,-7.856326 c -0.381605,-0.166117 -0.702971,-0.600015 -0.786981,-1.062569 -0.08856,-0.48757 0.280596,-1.191189 0.747276,-1.42432 0.320464,-0.160083 0.80297,-0.175207 5.596099,-0.175345 5.80494,-2.08e-4 5.742577,-0.0069 6.138847,0.643122 0.245287,0.402255 0.245287,1.116805 0,1.51906 -0.39658,0.650333 -0.33286,0.643696 -6.138847,0.639354 -4.1786,-0.0029 -5.308645,-0.03146 -5.556394,-0.139302 z"
       id="path883" />
  </g>
  <g
     inkscape:groupmode="layer"
     id="layer2"
     inkscape:label="Warstwa 2">
    <g
       id="g23"
       transform="matrix(0.25467462,0,0,0.25467462,-6.6339669,21.042899)">
      <path
         style="fill:#80afdd;stroke-width:0.264562"
         d="m 83.723706,179.31039 v -7.67355 h 8.598282 8.598282 v -21.02905 -21.02905 l -8.532142,-0.0698 -8.53214,-0.0698 v -7.14319 -7.14319 l 3.412115,-0.18971 c 5.724815,-0.31829 9.375061,-1.19673 11.424566,-2.74933 2.401041,-1.81892 3.450861,-3.5637 4.083691,-6.78699 l 0.29932,-1.5246 9.30637,0.0695 9.30638,0.0695 0.0671,33.79414 0.0671,33.79415 8.39885,0.0699 8.39886,0.0699 v 7.54003 7.54003 l -27.44836,0.0674 -27.448364,0.0674 z m 53.970754,0.002 v -6.61035 l -8.39986,-0.0699 -8.39986,-0.0698 -0.0671,-33.79786 -0.0671,-33.79786 h -8.41207 -8.41206 l -0.31837,1.52124 c -0.51992,2.4843 -1.40245,4.04029 -3.22919,5.69339 -2.564076,2.32036 -6.219242,3.41226 -12.630475,3.77308 l -3.240891,0.18239 v 6.18437 6.18437 l 8.664422,0.0697 8.664424,0.0698 v 21.95869 21.95868 l -8.664424,0.0698 -8.664422,0.0697 v 6.61045 6.61045 h 26.588536 26.58853 v -6.61035 z"
         id="path37" />
      <path
         style="fill:#52c8ec;stroke-width:0.264562"
         d="m 85.575644,179.22097 v -5.73219 h 2.649175 2.649176 l -0.373502,0.85983 c -0.833533,1.91886 -4.727014,10.39177 -4.822357,10.49431 -0.05637,0.0606 -0.102492,-2.46925 -0.102492,-5.62195 z m 17.196566,-41.52131 v -9.42106 l -0.588,-0.41185 c -0.50074,-0.35073 -1.77653,-0.41184 -8.598278,-0.41184 h -8.010288 v -5.13572 -5.13571 l 0.992109,-0.14465 c 0.545661,-0.0796 2.004061,-0.2206 3.240891,-0.31343 4.151763,-0.3116 7.834161,-1.32733 9.856533,-2.71876 2.504283,-1.72299 4.371713,-4.49463 4.821313,-7.15579 l 0.18416,-1.09007 h 7.64906 7.64906 v 1.92993 1.92993 l -8.48821,18.63981 c -4.66851,10.25189 -8.53774,18.68941 -8.59828,18.75004 -0.0605,0.0606 -0.11007,-4.12925 -0.11007,-9.31083 z"
         id="path35" />
      <path
         style="fill:#42bded;stroke-width:0.264562"
         d="m 86.13518,183.93187 c 0.291382,-0.65872 1.469637,-3.24812 2.618346,-5.75424 l 2.088563,-4.55657 5.613746,-0.0715 c 3.597215,-0.0458 5.739945,-0.17627 5.965055,-0.3631 0.28325,-0.23507 0.35048,-2.75844 0.34699,-13.02431 l -0.004,-12.73274 8.53648,-18.76373 8.53647,-18.76373 0.0672,31.43692 c 0.0485,22.69732 0.14948,31.53604 0.3631,31.79344 0.23624,0.28464 1.91576,0.3565 8.33263,0.3565 h 8.03677 v 5.82038 5.82037 H 111.1208 85.605397 Z"
         id="path33" />
      <path
         style="fill:#00b3b3;stroke-width:0.264562"
         d="m 103.96274,202.74833 c -6.99359,-0.7437 -14.523973,-2.90042 -20.791332,-5.95471 -3.917363,-1.90905 -5.968223,-3.64351 -9.917776,-8.38768 -7.197362,-8.64541 -11.472163,-17.98531 -13.366233,-29.20353 -0.792211,-4.69212 -0.852449,-12.59056 -0.13115,-17.19657 2.091446,-13.35536 7.671606,-24.4771 16.880868,-33.645 8.918391,-8.878345 19.632969,-14.334358 32.484593,-16.541611 2.2035,-0.37845 4.14553,-0.472627 9.39197,-0.455458 6.34977,0.02078 6.7832,0.05565 10.84706,0.87272 4.96878,0.999009 10.55373,2.862225 15.10429,5.039003 2.69618,1.289731 3.58024,1.873717 5.36931,3.546836 9.92593,9.28262 16.19166,21.37571 18.18546,35.09858 0.68589,4.72079 0.62996,12.17269 -0.12634,16.83398 -2.11244,13.01963 -7.57969,23.79747 -16.69615,32.91393 -4.95038,4.95039 -9.38083,8.12415 -15.85583,11.35835 -9.18006,4.58535 -21.29239,6.79374 -31.37874,5.72116 z m 35.26618,-15.29065 c 0.45348,-0.45348 0.45348,-15.84357 0,-16.29705 -0.23318,-0.23318 -2.48101,-0.31747 -8.466,-0.31747 h -8.14853 v -33.54653 c 0,-25.73899 -0.0739,-33.62041 -0.31747,-33.864 -0.37629,-0.37629 -19.15989,-0.45676 -19.74706,-0.0846 -0.19505,0.12362 -0.51438,1.06316 -0.70963,2.08786 -0.43239,2.26928 -1.07416,3.57863 -2.447844,4.99412 -2.12522,2.18989 -5.123057,3.08729 -12.126717,3.63013 -3.050247,0.23643 -4.16497,0.41728 -4.347129,0.70528 -0.134739,0.21303 -0.246805,3.59239 -0.249033,7.50969 -0.0036,6.25982 0.04897,7.18094 0.433798,7.60617 0.406151,0.44879 1.028576,0.48381 8.598281,0.48381 h 8.160433 v 20.23904 20.23903 h -8.324411 c -7.959332,0 -8.33642,0.0224 -8.598282,0.51173 -0.370787,0.69282 -0.370787,15.21571 0,15.90853 0.268105,0.50096 0.860151,0.51174 28.122994,0.51174 21.30768,0 27.9237,-0.0746 28.1666,-0.31748 z"
         id="path31" />
      <path
         style="fill:#2762ae;stroke-width:0.264562"
         d="m 82.939326,187.26342 c -0.370787,-0.69282 -0.370787,-15.21571 0,-15.90853 0.261862,-0.48929 0.63895,-0.51173 8.598282,-0.51173 h 8.324411 v -20.23903 -20.23904 h -8.160433 c -7.569705,0 -8.19213,-0.035 -8.598281,-0.48381 -0.384825,-0.42523 -0.437359,-1.34635 -0.433798,-7.60617 0.0021,-3.9173 0.114294,-7.29666 0.249033,-7.50969 0.182159,-0.288 1.296882,-0.46885 4.347129,-0.70528 7.00366,-0.54284 10.001497,-1.44024 12.126717,-3.63013 1.373684,-1.41549 2.015454,-2.72484 2.447844,-4.99412 0.19525,-1.0247 0.51458,-1.96424 0.70963,-2.08786 0.58717,-0.37216 19.37077,-0.29169 19.74706,0.0846 0.24359,0.24359 0.31747,8.12501 0.31747,33.864 v 33.54653 h 8.14853 c 5.98499,0 8.23282,0.0843 8.466,0.31747 0.45348,0.45348 0.45348,15.84357 0,16.29705 -0.2429,0.2429 -6.85892,0.31748 -28.1666,0.31748 -27.262843,0 -27.854889,-0.0108 -28.122994,-0.51174 z m 55.681104,-7.95426 v -7.54003 l -8.39886,-0.0699 -8.39885,-0.0699 -0.0671,-33.79415 -0.0671,-33.79414 -9.30638,-0.0695 -9.30637,-0.0695 -0.29932,1.5246 c -0.63283,3.22329 -1.68265,4.96807 -4.083691,6.78699 -2.049505,1.5526 -5.699751,2.43104 -11.424566,2.74933 l -3.412115,0.18971 v 7.14319 7.14319 l 8.53214,0.0698 8.532142,0.0698 v 21.02905 21.02905 h -8.598282 -8.598282 v 7.67355 7.67354 l 27.448364,-0.0674 27.44836,-0.0674 z m -54.103036,0.004 v -6.61044 l 8.664422,-0.0698 8.664424,-0.0698 v -21.95868 -21.95869 l -8.664424,-0.0698 -8.664422,-0.0697 v -6.18437 -6.18437 l 3.240891,-0.18239 c 6.411233,-0.36082 10.066399,-1.45272 12.630475,-3.77307 1.82674,-1.65311 2.70927,-3.2091 3.22919,-5.6934 l 0.31837,-1.52123 h 8.41206 8.41207 l 0.0671,33.79785 0.0671,33.79786 8.39986,0.0699 8.39986,0.0699 v 6.61034 6.61035 H 111.10593 84.517394 Z m 52.118816,-0.004 v -5.82038 h -8.01625 c -5.8821,0 -8.10076,-0.0845 -8.33372,-0.31747 -0.24358,-0.24359 -0.31747,-8.12501 -0.31747,-33.864 v -33.54653 h -7.64906 -7.64906 l -0.18416,1.09007 c -0.4496,2.66116 -2.31703,5.4328 -4.821313,7.15579 -2.022372,1.39143 -5.70477,2.40716 -9.856533,2.71876 -1.23683,0.0928 -2.69523,0.23387 -3.240891,0.31343 l -0.992109,0.14465 v 5.13571 5.13572 h 8.010288 c 6.821748,0 8.097538,0.0611 8.598278,0.41184 l 0.588,0.41185 v 22.28761 c 0,16.98207 -0.0756,22.3632 -0.31748,22.6051 -0.2334,0.2334 -2.510403,0.31747 -8.59828,0.31747 h -8.280806 v 5.82038 5.82037 h 25.530286 25.53028 z"
         id="path29" />
      <path
         style="fill:#00827e;stroke-width:0.264562"
         d="m 77.139738,193.35195 c -2.815916,-1.87402 -5.250685,-4.14591 -8.055405,-7.51653 -7.267725,-8.73409 -11.618696,-18.03203 -13.453343,-28.74951 -0.766037,-4.47497 -0.934373,-12.11298 -0.367503,-16.67499 1.68096,-13.5279 7.413065,-25.28651 16.969244,-34.81004 18.727969,-18.663992 47.030749,-22.626146 70.356129,-9.849281 3.51142,1.923436 4.08015,2.512197 1.09087,1.129279 -4.11387,-1.90318 -9.70533,-3.716779 -14.31899,-4.644387 -4.06386,-0.817067 -4.49729,-0.851939 -10.84706,-0.87272 -5.24644,-0.01717 -7.18847,0.07701 -9.39197,0.455458 -12.851624,2.207253 -23.566202,7.663266 -32.484593,16.541611 -9.209262,9.1679 -14.789422,20.28964 -16.880868,33.645 -0.721299,4.60601 -0.661061,12.50445 0.13115,17.19657 1.892675,11.20995 6.174183,20.56875 13.350529,29.18244 1.357211,1.62905 3.264138,3.70598 4.237614,4.61542 0.973479,0.90943 1.735842,1.65321 1.694142,1.65284 -0.0417,-2.6e-4 -0.955177,-0.58589 -2.029946,-1.30116 z"
         id="path27" />
      <path
         style="fill:#005a53;stroke-width:0.264562"
         d="m 74.165709,191.28061 c -0.329081,-0.41961 -0.319724,-0.42897 0.09989,-0.0999 0.254642,0.19971 0.462984,0.40805 0.462984,0.46299 0,0.21774 -0.217256,0.0776 -0.562872,-0.3631 z m -2.215034,-1.68719 C 60.791347,180.2032 53.711919,167.78757 51.151982,153.11747 c -0.777291,-4.45438 -0.839635,-12.93805 -0.128317,-17.46113 2.069395,-13.15872 7.688213,-24.39902 16.698824,-33.40557 9.001571,-8.997512 20.409882,-14.757151 33.197781,-16.760346 4.12647,-0.646401 12.97823,-0.659423 16.99044,-0.02499 6.68241,1.056653 11.78986,2.656343 17.62918,5.521578 3.52956,1.731883 8.90702,5.101473 10.75285,6.737886 l 0.79369,0.703641 -0.79369,-0.488994 c -2.91479,-1.795808 -4.02405,-2.412745 -6.61406,-3.67852 -14.2746,-6.976188 -31.43212,-7.829215 -46.166161,-2.295262 -8.438787,3.169522 -14.991193,7.368004 -21.279788,13.635117 -9.556179,9.52353 -15.288284,21.28214 -16.969244,34.81004 -0.56687,4.56201 -0.398534,12.20002 0.367503,16.67499 2.066838,12.07388 7.697555,23.06939 16.42701,32.0782 0.951732,0.98219 1.674088,1.78112 1.605236,1.77541 -0.06885,-0.006 -0.839505,-0.61146 -1.712561,-1.3461 z"
         id="path25" />
    </g>
    <g
       id="g314"
       transform="matrix(0.29784572,0,0,0.29784572,44.373546,0.00186876)">
      <path
         style="fill:#b0acf7;stroke-width:0.264562"
         d="m 54.072662,105.11335 c -3.437453,-1.39694 -6.534686,-4.06899 -8.972296,-7.740577 -2.792243,-4.20575 -3.775209,-8.022086 -3.798964,-14.749347 -0.02169,-6.144297 0.900769,-10.213355 3.317915,-14.635531 3.643039,-6.664954 9.718553,-11.230543 17.557788,-13.194216 3.305934,-0.828115 3.63938,-0.861135 8.598282,-0.851508 4.679412,0.0091 5.45408,0.07826 8.333718,0.744223 4.482827,1.036717 7.571655,2.559779 11.454265,5.647951 l 0.607206,0.482962 -4.791222,6.074794 c -2.635172,3.341136 -4.872789,6.09643 -4.972484,6.122876 -0.09969,0.02646 -0.597951,-0.806929 -1.107233,-1.851938 -2.190025,-4.493768 -5.373921,-6.419836 -10.289632,-6.224624 -2.003127,0.07955 -2.542488,0.211341 -4.098066,1.001351 -3.067136,1.557667 -5.336204,4.789888 -6.424096,9.150939 -0.585961,2.348953 -0.654318,8.82526 -0.115809,10.972034 0.764739,3.048641 2.799608,6.142221 4.828527,7.340731 0.417737,0.246763 0.728616,0.524768 0.690844,0.617788 -0.224444,0.552748 -9.111172,11.598702 -9.328362,11.594892 -0.14551,-0.003 -0.816181,-0.22881 -1.490381,-0.5028 z"
         id="path328" />
      <path
         style="fill:#9a94e9;stroke-width:0.264562"
         d="m 53.975668,137.53209 c -3.428775,-0.32965 -6.490763,-0.77318 -7.606172,-1.10175 -0.428425,-0.1262 -0.462984,-0.76701 -0.462984,-8.58455 v -8.44818 h 1.173681 c 0.670451,0 2.060021,0.34131 3.24089,0.79603 2.89928,1.11644 5.700465,1.58504 9.47496,1.58504 5.288496,0 9.176726,-0.982 12.722877,-3.21325 2.652741,-1.66911 5.551492,-5.38737 6.813166,-8.73934 0.609142,-1.61833 1.599212,-5.4983 1.441284,-5.64822 -0.04229,-0.0401 -1.684107,0.72154 -3.648483,1.69262 -6.425888,3.1766 -12.362985,3.89682 -19.543042,2.37073 -6.045052,-1.28485 -10.652278,-4.40809 -13.983588,-9.479481 -1.795787,-2.733798 -2.538475,-4.361374 -3.22375,-7.064761 -0.886454,-3.497026 -1.164083,-6.518245 -1.003975,-10.925489 0.274611,-7.559199 2.18531,-12.822535 6.731772,-18.543776 1.922779,-2.419617 5.222482,-5.030058 8.432607,-6.671152 3.19447,-1.633091 3.768319,-1.848242 7.257896,-2.72115 2.903473,-0.726298 3.283869,-0.757562 9.114861,-0.74915 5.942124,0.0086 6.162552,0.02841 9.391969,0.845182 8.866507,2.242487 15.114823,7.623656 18.813317,16.202391 2.777356,6.442134 4.070686,16.14716 3.433826,25.767187 -0.78381,11.839959 -3.161356,19.911139 -8.003752,27.170809 -3.399004,5.09576 -9.265235,9.85446 -15.331101,12.43664 -6.123111,2.60654 -16.56353,3.85744 -25.236259,3.02362 z m 14.286375,-1.31793 c 6.952358,-0.96586 11.622315,-2.71254 16.928918,-6.33183 7.081052,-4.82954 12.312712,-12.92851 14.548646,-22.52231 3.265753,-14.012481 2.390193,-29.738327 -2.170823,-38.989755 -2.140607,-4.341945 -4.239468,-7.012208 -7.489706,-9.528729 -4.521897,-3.501109 -9.066123,-5.142474 -16.238492,-5.865304 -8.227052,-0.829121 -17.336516,1.69596 -23.342664,6.470427 -4.148782,3.297988 -7.624262,8.716527 -9.10499,14.195365 -0.716154,2.649845 -0.835819,3.591399 -0.956533,7.526309 -0.22431,7.311891 0.769644,11.778788 3.631829,16.321675 2.316269,3.676412 4.898571,6.067112 8.463016,7.835092 3.90144,1.93512 6.63977,2.52183 11.762361,2.52019 5.907353,-0.002 9.183552,-0.96026 15.255415,-4.46251 1.126827,-0.64995 2.101113,-1.18173 2.165079,-1.18173 0.64562,0 0.09552,3.40443 -1.18387,7.32662 -1.281847,3.92975 -3.986012,7.62704 -7.109217,9.72012 -3.437279,2.30357 -6.749874,3.2682 -12.069286,3.51461 -4.206748,0.19487 -7.731789,-0.25848 -10.947462,-1.40792 -1.382444,-0.49415 -2.721877,-0.89849 -2.976518,-0.89854 -0.430068,-7e-5 -0.462984,0.53395 -0.462984,7.51127 v 7.51135 l 0.59695,0.14983 c 0.703911,0.17667 6.364628,0.90502 8.265893,1.06354 2.279696,0.19009 9.671543,-0.0939 12.434438,-0.47777 z m 1.322812,-41.785767 c -4.950229,-0.81063 -8.133818,-3.729032 -9.292226,-8.518198 -0.588212,-2.431824 -0.584022,-7.497921 0.0084,-10.165394 1.554236,-6.998125 6.208824,-10.846184 11.933383,-9.865609 0.926299,0.158669 2.219021,0.5556 2.872712,0.88207 3.168369,1.582359 5.6714,6.014405 6.642368,11.761446 0.496883,2.940996 0.809591,9.963625 0.550986,12.373792 -0.187599,1.748385 -0.215444,1.801072 -1.162665,2.199755 -3.136777,1.320267 -8.117992,1.894635 -11.552963,1.332138 z m 8.333719,-1.447792 c 1.09132,-0.286934 2.327465,-0.654329 2.746989,-0.816437 l 0.762774,-0.294738 -0.14502,-5.482828 c -0.201779,-7.628911 -0.95011,-11.24915 -3.103154,-15.012276 -3.69711,-6.461873 -12.192932,-6.040304 -15.467356,0.767503 -1.347599,2.801773 -1.81438,5.053446 -1.816391,8.761945 -0.0039,7.282123 2.692315,11.232705 8.493383,12.444565 2.27674,0.475617 5.918382,0.318602 8.528775,-0.367734 z"
         id="path326" />
      <path
         style="fill:#f05094;stroke-width:0.264562"
         d="m 58.737793,148.9142 c -7.120856,-0.87172 -14.036665,-2.89447 -20.311696,-5.94081 -3.808721,-1.84902 -5.678549,-3.43236 -9.687909,-8.20359 -8.466103,-10.07483 -12.886896,-20.89153 -14.063667,-34.41069 -0.48549,-5.57747 0.182598,-12.458603 1.837541,-18.926215 4.731185,-18.489728 18.651416,-33.806302 36.762216,-40.449844 5.913996,-2.169417 11.662119,-3.281696 18.162515,-3.5145 9.851641,-0.352824 19.475527,1.717588 28.572747,6.146932 3.34901,1.630599 3.5206,1.756577 6.53519,4.798207 3.62252,3.655004 4.74171,5.013315 7.45946,9.053224 4.69709,6.982188 7.83452,15.139557 9.31935,24.230544 0.70971,4.345174 0.64924,13.116016 -0.12171,17.655083 -2.19446,12.920199 -7.8472,23.908999 -16.87547,32.805559 -9.021225,8.88962 -19.876836,14.35506 -32.508505,16.36697 -4.201755,0.66924 -11.296456,0.85231 -15.080062,0.38913 z m 9.921094,-10.72899 c 5.131078,-0.73735 9.045116,-1.89053 12.831281,-3.78045 8.574835,-4.28025 14.278242,-10.53296 17.956952,-19.68642 1.47447,-3.66882 2.07382,-5.83873 2.90932,-10.53307 1.65792,-9.315243 1.65924,-19.076946 0.004,-27.376689 -0.82431,-4.132535 -1.64777,-6.626783 -3.187189,-9.653949 -2.322959,-4.567958 -4.300394,-7.109527 -7.510106,-9.652635 -3.203125,-2.537889 -6.823705,-4.347256 -10.569521,-5.282064 -14.229777,-3.551192 -28.545442,0.360218 -36.036135,9.846003 -5.046675,6.390825 -7.37524,14.754188 -6.570801,23.599959 0.570815,6.276812 1.586711,9.452112 4.353982,13.608878 2.879509,4.325357 6.109761,6.931357 10.894948,8.789447 3.456647,1.34222 5.356444,1.6431 10.426006,1.65124 5.610495,0.009 8.151012,-0.5053 12.402732,-2.51083 1.519248,-0.71662 2.820835,-1.24439 2.892417,-1.1728 0.07158,0.0716 -0.215399,1.17104 -0.637733,2.44325 -1.230176,3.70567 -3.759129,7.2392 -6.525759,9.11798 -3.435064,2.33271 -6.83488,3.21741 -12.364657,3.21754 -4.43511,1e-4 -6.250702,-0.29603 -9.561831,-1.55961 -1.313878,-0.50139 -2.846367,-0.91163 -3.405528,-0.91163 -1.890519,0 -1.848141,-0.22164 -1.848141,9.66612 0,8.41406 0.02397,8.84747 0.50351,9.10411 0.668838,0.35795 4.546597,1.01032 7.830209,1.31731 3.204,0.29954 12.470465,0.15232 15.212344,-0.24169 z m 1.05825,-45.669347 c -5.209662,-0.962955 -7.936875,-4.876932 -7.936875,-11.390649 0,-9.351107 4.764241,-14.891876 11.257951,-13.092888 3.179616,0.880866 5.884955,5.343112 6.841227,11.284069 0.506068,3.144016 0.787346,8.426583 0.55519,10.426845 l -0.185816,1.600997 -1.760386,0.553677 c -1.724601,0.542422 -7.122504,0.922712 -8.771291,0.617949 z"
         id="path324" />
      <path
         style="fill:#665ded;stroke-width:0.264562"
         d="m 54.504793,135.62868 c -0.436528,-0.0509 -1.924692,-0.21874 -3.307031,-0.373 -1.38234,-0.15426 -2.721687,-0.34091 -2.976329,-0.41478 -0.424966,-0.12329 -0.462984,-0.67597 -0.462984,-6.73055 0,-3.62793 0.06906,-6.59624 0.153457,-6.59624 0.0844,0 1.126115,0.34231 2.314922,0.76067 3.004774,1.05746 5.541724,1.4349 9.701496,1.44338 4.133482,0.008 7.245862,-0.50711 10.238537,-1.69593 6.479157,-2.57379 10.735084,-8.24803 12.389586,-16.51849 0.26629,-1.33112 0.397421,-2.70325 0.296696,-3.10458 -0.273078,-1.08803 -1.261037,-1.21474 -2.771665,-0.3555 -3.391818,1.92927 -7.181305,3.68019 -8.999876,4.15838 -1.362391,0.35824 -3.282226,0.5808 -5.862028,0.67958 -3.267254,0.1251 -4.245125,0.0633 -6.593874,-0.41676 -1.516744,-0.31001 -2.79655,-0.60248 -2.844012,-0.64995 -0.08811,-0.0881 8.056071,-10.505262 8.881389,-11.360116 0.429655,-0.445031 0.51159,-0.446497 1.49762,-0.0268 3.713497,1.580652 9.335008,1.521367 14.403502,-0.151904 2.682024,-0.885422 2.645625,-0.791791 2.645625,-6.80559 0,-5.55245 -0.472448,-9.926676 -1.362063,-12.610885 -0.316734,-0.955671 -0.421718,-1.663256 -0.274769,-1.851937 1.114403,-1.4309 9.414591,-11.976065 9.506995,-12.078382 0.210229,-0.23278 2.21428,2.176218 3.770526,4.532411 3.81846,5.781244 5.500537,12.395494 5.743687,22.585246 0.27127,11.368375 -1.322165,20.542547 -4.824853,27.779067 -1.944368,4.01705 -3.82286,6.74737 -6.47031,9.40437 -7.332408,7.35885 -16.463722,10.63913 -29.313668,10.53046 -2.577789,-0.0218 -5.044048,-0.0813 -5.480576,-0.13217 z"
         id="path322" />
      <path
         style="fill:#d72f77;stroke-width:0.264562"
         d="m 31.752418,139.13057 c -2.044859,-1.35435 -4.716449,-3.9401 -7.387673,-7.1503 -7.18753,-8.63776 -11.445854,-17.76052 -13.409395,-28.72743 -0.492515,-2.75083 -0.594403,-4.314077 -0.611719,-9.385507 -0.02272,-6.653655 0.26868,-9.205378 1.706984,-14.947782 4.622895,-18.456824 18.64572,-34.03854 36.581314,-40.647986 13.396564,-4.936767 27.637159,-4.954548 41.191958,-0.05143 3.34535,1.210098 11.074533,5.10876 10.757253,5.426043 -0.0626,0.06254 -1.169167,-0.359649 -2.459158,-0.938207 C 85.851803,37.204827 72.362105,35.968214 59.266918,39.146092 38.630887,44.153945 21.788615,60.811838 16.512062,81.432895 c -2.228325,8.708419 -2.546518,16.428178 -1.039238,25.213265 2.019727,11.77185 7.634665,22.6037 16.381384,31.60153 0.954774,0.98219 1.620096,1.77977 1.478489,1.7724 -0.141607,-0.007 -0.852732,-0.40765 -1.580279,-0.88952 z"
         id="path320" />
      <path
         style="fill:#b72b67;stroke-width:0.264562"
         d="m 34.001199,140.53898 c -0.569807,-0.46608 -0.581006,-0.50171 -0.08087,-0.25726 0.319292,0.15605 0.653713,0.40215 0.743159,0.54688 0.238788,0.38637 0.07842,0.31623 -0.662285,-0.28962 z m -6.746344,-4.77217 C 11.189714,122.24851 3.3947652,101.85441 6.4875689,81.432895 8.4184627,68.683372 14.018606,57.601269 23.139573,48.480301 c 9.07779,-9.077788 19.728428,-14.508362 32.714258,-16.680426 4.003394,-0.669624 12.490731,-0.814086 16.244368,-0.276494 9.537769,1.365991 17.353268,4.234722 25.056773,9.197255 2.053899,1.323105 5.632478,4.002911 5.632478,4.217861 0,0.165853 -1.96556,-1.033048 -2.24878,-1.371653 -0.766151,-0.915965 -7.807252,-4.34104 -11.689307,-5.686147 -6.664192,-2.309101 -12.291984,-3.236857 -19.661351,-3.241225 -13.302587,-0.0079 -25.092685,3.968385 -35.762361,12.061035 -12.175308,9.23463 -20.013312,22.461453 -22.61994,38.171701 -0.731928,4.411357 -0.65478,13.887743 0.149639,18.380632 2.212771,12.35893 7.710424,23.10996 16.406831,32.08466 0.951731,0.98219 1.674087,1.78113 1.605235,1.77542 -0.06885,-0.006 -0.839504,-0.61146 -1.712561,-1.34611 z"
         id="path318" />
      <path
         style="fill:#2518f2;stroke-width:0.264562"
         d="m 53.446543,138.4269 c -3.283612,-0.30699 -7.161371,-0.95936 -7.830209,-1.31731 -0.479541,-0.25664 -0.50351,-0.69005 -0.50351,-9.10411 0,-9.88776 -0.04238,-9.66612 1.848141,-9.66612 0.559161,0 2.09165,0.41024 3.405528,0.91163 3.311129,1.26358 5.126721,1.55971 9.561831,1.55961 8.464852,-2e-4 13.155847,-2.31313 17.09628,-8.42946 0.966307,-1.49991 2.715181,-6.066 2.431869,-6.34931 -0.07158,-0.0716 -1.373169,0.45618 -2.892417,1.1728 -4.25172,2.00553 -6.792237,2.51984 -12.402732,2.51083 -5.069562,-0.008 -6.969359,-0.30902 -10.426006,-1.65124 -4.785187,-1.85809 -8.015439,-4.46409 -10.894948,-8.789447 -2.767271,-4.156766 -3.783167,-7.332066 -4.353982,-13.608878 -0.804439,-8.845771 1.524126,-17.209134 6.570801,-23.599959 7.490693,-9.485785 21.806358,-13.397195 36.036135,-9.846003 4.988553,1.244947 10.982087,4.822686 13.774468,8.222436 2.466246,3.002676 5.003586,7.555024 6.172848,11.074962 2.81656,8.478985 3.33409,21.327928 1.3158,32.667939 -0.8355,4.69434 -1.43485,6.86425 -2.90932,10.53307 -3.67871,9.15346 -9.382117,15.40617 -17.956952,19.68642 -3.786165,1.88992 -7.700203,3.0431 -12.831281,3.78045 -2.741879,0.39401 -12.008344,0.54123 -15.212344,0.24169 z m 14.947781,-1.17789 c 5.771664,-0.75907 10.743759,-2.36596 14.815897,-4.78824 7.715378,-4.58944 12.634605,-10.59847 15.994364,-19.53773 2.589135,-6.88888 3.958115,-18.131524 3.328735,-27.336897 C 102.04246,78.406967 101.04748,73.621008 99.112954,69.133834 95.41446,60.555099 89.166144,55.17393 80.299637,52.931443 77.07022,52.11467 76.849792,52.094834 70.907668,52.086261 c -5.830992,-0.0084 -6.211388,0.02285 -9.114861,0.74915 -3.489577,0.872908 -4.063426,1.088059 -7.257896,2.72115 -7.103202,3.631332 -12.090591,9.938997 -14.1845,17.939459 -1.758206,6.717792 -1.249262,16.222126 1.158805,21.640271 1.001705,2.253834 3.451514,5.762519 5.238432,7.502639 5.73698,5.5867 15.279863,7.68588 24.821426,5.46003 1.173165,-0.27367 3.444117,-1.18457 5.555813,-2.22847 1.964376,-0.97108 3.606193,-1.73276 3.648483,-1.69262 0.157928,0.14992 -0.832142,4.02989 -1.441284,5.64822 -1.261674,3.35197 -4.160425,7.07023 -6.813166,8.73934 -3.546151,2.23125 -7.434381,3.21325 -12.722877,3.21325 -3.774495,0 -6.57568,-0.4686 -9.47496,-1.58504 -1.180869,-0.45472 -2.570439,-0.79603 -3.24089,-0.79603 h -1.173681 v 8.44818 c 0,7.81754 0.03456,8.45835 0.462984,8.58455 4.460637,1.314 15.218116,1.71386 22.024828,0.81867 z m -12.566719,-0.55708 c -1.901265,-0.15852 -7.561982,-0.88687 -8.265893,-1.06354 l -0.59695,-0.14983 v -7.51135 c 0,-6.97732 0.03292,-7.51134 0.462984,-7.51127 0.254641,5e-5 1.594074,0.40439 2.976518,0.89854 5.742914,2.0528 14.392275,1.93783 19.642232,-0.26109 4.941599,-2.06977 8.760495,-6.2828 10.483733,-11.56572 1.279387,-3.92219 1.82949,-7.32662 1.18387,-7.32662 -0.06397,0 -1.038252,0.53178 -2.165079,1.18173 -6.071863,3.50225 -9.348062,4.4606 -15.255415,4.46251 -5.122591,0.002 -7.860921,-0.58507 -11.762361,-2.52019 -3.564445,-1.76798 -6.146747,-4.15868 -8.463016,-7.835092 -2.862185,-4.542887 -3.856139,-9.009784 -3.631829,-16.321675 0.120714,-3.93491 0.240379,-4.876464 0.956533,-7.526309 3.174073,-11.744389 12.679962,-19.267007 26.098154,-20.653143 5.856369,-0.604979 13.248208,0.580234 17.825867,2.858212 9.754385,4.854074 14.823397,13.763922 16.136747,28.363709 0.65786,7.31311 0.0438,15.60675 -1.714093,23.149218 -3.402829,14.60064 -13.274992,24.86639 -26.980002,28.05564 -4.198535,0.97703 -12.771199,1.62321 -16.932,1.27627 z m 11.830076,-1.30483 c 9.375273,-1.2982 15.835878,-4.33029 21.641356,-10.15671 5.147733,-5.1663 8.520899,-12.22977 10.175902,-21.30852 0.371239,-2.03649 0.806191,-5.131876 0.966561,-6.878628 0.38349,-4.176998 0.14719,-14.035589 -0.41538,-17.330003 -1.612442,-9.442484 -5.153032,-16.126436 -10.807619,-20.402703 -2.958361,-2.237251 -6.2147,-3.727291 -10.109396,-4.625873 -2.876672,-0.663705 -3.659127,-0.733417 -8.333718,-0.742492 -4.958902,-0.0096 -5.292348,0.02339 -8.598282,0.851508 -7.839235,1.963673 -13.914749,6.529262 -17.557788,13.194216 -2.417146,4.422176 -3.339612,8.491234 -3.317915,14.635531 0.02376,6.727261 1.006721,10.543597 3.798964,14.749347 3.443553,5.186767 7.714322,7.993917 13.984157,9.191697 3.18787,0.60901 8.956713,0.43419 11.997079,-0.36356 1.818303,-0.4771 5.605177,-2.22634 8.999876,-4.15725 1.510628,-0.85924 2.498587,-0.73253 2.771665,0.3555 0.100725,0.40133 -0.03041,1.77346 -0.296696,3.10458 -1.654502,8.27046 -5.910429,13.9447 -12.389586,16.51849 -2.992675,1.18882 -6.105055,1.70436 -10.238537,1.69593 -4.159772,-0.008 -6.696722,-0.38592 -9.701496,-1.44338 -1.188807,-0.41836 -2.230521,-0.76067 -2.314922,-0.76067 -0.0844,0 -0.153457,2.96831 -0.153457,6.59624 0,6.05458 0.03802,6.60726 0.462984,6.73055 0.254642,0.0739 1.593989,0.26052 2.976329,0.41478 1.382339,0.15426 2.870503,0.32211 3.307031,0.373 2.403592,0.28021 10.452256,0.13237 13.152888,-0.24158 z m 0.936718,-40.186933 c -2.135527,-0.467419 -4.666932,-1.781043 -5.995764,-3.111385 -1.297494,-1.298973 -2.696021,-3.910879 -3.226601,-6.026043 -0.538509,-2.146774 -0.470152,-8.623081 0.115809,-10.972034 1.087892,-4.361051 3.35696,-7.593272 6.424096,-9.150939 1.555578,-0.79001 2.094939,-0.921802 4.098066,-1.001351 4.745481,-0.188453 7.807929,1.564867 10.09516,5.779699 2.251765,4.14948 3.104659,8.751598 3.104659,16.752391 0,6.013799 0.0364,5.920168 -2.645625,6.80559 -3.900765,1.287766 -8.637479,1.653442 -11.9698,0.924072 z m 9.456456,-1.183481 c 1.164075,-0.281579 2.553208,-0.695773 3.086963,-0.920431 0.947221,-0.398683 0.975066,-0.45137 1.162665,-2.199755 0.258605,-2.410167 -0.0541,-9.432796 -0.550986,-12.373792 -0.970968,-5.747041 -3.473999,-10.179087 -6.642368,-11.761446 -2.557139,-1.277099 -6.160473,-1.329808 -8.694807,-0.127186 -1.829531,0.86817 -3.523554,2.688571 -4.629833,4.975238 -1.403604,2.901237 -1.920909,5.39566 -1.92752,9.294456 -0.0085,5.034516 1.017359,8.157221 3.493299,10.633161 2.92904,2.929041 8.771493,3.914435 14.702587,2.479755 z m -8.661056,-0.668351 c -5.801068,-1.21186 -8.49733,-5.162442 -8.493383,-12.444565 0.0021,-3.708499 0.468792,-5.960172 1.816391,-8.761945 3.274424,-6.807807 11.770246,-7.229376 15.467356,-0.767503 2.153044,3.763126 2.901375,7.383365 3.103154,15.012276 l 0.14502,5.482828 -0.762774,0.294738 c -3.398498,1.313201 -8.229486,1.820547 -11.275764,1.184171 z m 9.098629,-1.450421 1.760386,-0.553677 0.185816,-1.600997 c 0.232156,-2.000262 -0.04912,-7.282829 -0.55519,-10.426845 -0.956272,-5.940957 -3.661611,-10.403203 -6.841227,-11.284069 -6.49371,-1.798988 -11.257951,3.741781 -11.257951,13.092888 0,6.513717 2.727213,10.427694 7.936875,11.390649 1.648787,0.304763 7.04669,-0.07553 8.771291,-0.617949 z"
         id="path316" />
    </g>
  </g>
  <g
     inkscape:label="Warstwa 1"
     inkscape:groupmode="layer"
     id="layer1">
    <g
       id="g929"
       transform="matrix(0.60000949,0,0,0.6026023,23.963679,-33.376799)"
       style="display:inline">
      <path
         style="fill:#fb939c;stroke-width:0.264779"
         d="m 65.015181,154.36014 c 0.400477,-0.0607 1.055804,-0.0607 1.456282,0 0.400478,0.0607 0.07281,0.1103 -0.728141,0.1103 -0.800956,0 -1.128619,-0.0496 -0.728141,-0.1103 z m -3.574512,-0.25049 c 0.182035,-0.0734 0.479911,-0.0734 0.661946,0 0.182036,0.0735 0.0331,0.13355 -0.330973,0.13355 -0.364071,0 -0.513009,-0.0601 -0.330973,-0.13355 z m 7.943359,0 c 0.182035,-0.0734 0.479911,-0.0734 0.661947,0 0.182035,0.0735 0.0331,0.13355 -0.330974,0.13355 -0.36407,0 -0.513008,-0.0601 -0.330973,-0.13355 z m -12.113623,-2.44751 c -3.46172,-0.76237 -6.273213,-1.97986 -8.624604,-3.7348 -2.35694,-1.75907 -4.074544,-5.94166 -4.076259,-9.92622 -0.0011,-2.67371 0.892663,-5.84816 2.285729,-8.11794 l 0.594671,-0.96893 -0.540272,-1.81125 c -0.56442,-1.89221 -0.986205,-7.62566 -0.65737,-8.93584 l 0.172217,-0.68617 2.708963,1.35663 c 1.48993,0.74615 3.368373,1.81769 4.174318,2.3812 l 1.465355,1.02456 1.902538,-0.79936 c 2.554489,-1.07328 6.323465,-1.83672 9.067631,-1.83672 2.708807,0 6.505908,0.7604 8.972763,1.79686 l 1.80767,0.7595 1.241688,-0.91974 c 0.68293,-0.50586 2.516959,-1.55963 4.075621,-2.34172 l 2.833931,-1.42197 0.171794,1.91992 c 0.223155,2.49394 -0.125749,5.96222 -0.825257,8.20349 l -0.556276,1.78232 0.60208,1.92458 c 0.794158,2.53856 0.84328,6.77034 0.103782,8.9412 -0.917185,2.6925 -1.795935,4.08576 -3.870243,6.13629 -1.638447,1.61968 -2.558791,2.27691 -4.533574,3.23752 -3.946406,1.91968 -5.897544,2.33458 -11.480262,2.4412 -3.922624,0.0749 -5.164282,0.003 -7.016634,-0.40461 z m 10.044937,-5.17037 c 0.469974,-0.50027 0.582989,-0.87724 0.505767,-1.68701 -0.09937,-1.04203 -0.09855,-1.04302 1.133006,-1.35866 1.478233,-0.37886 3.277761,-1.64361 3.813983,-2.68055 0.21635,-0.41837 0.389026,-1.46295 0.389026,-2.35335 0,-1.46769 -0.07976,-1.68934 -0.957535,-2.66093 -0.526645,-0.58293 -0.819106,-1.05988 -0.649912,-1.05988 0.169193,0 0.600083,-0.29246 0.957534,-0.64991 0.535102,-0.5351 0.649913,-0.91153 0.649913,-2.13087 0,-1.26138 -0.103881,-1.57724 -0.70061,-2.13027 -1.008873,-0.93499 -3.021844,-0.9226 -3.968873,0.0244 -0.58753,0.58753 -0.662216,0.8586 -0.583718,2.11859 l 0.09002,1.44486 -2.184424,-2.6e-4 -2.184423,-4.7e-4 v -1.46893 c 0,-1.96684 -0.780721,-2.76753 -2.698487,-2.76753 -1.831161,0 -2.597086,0.78514 -2.597086,2.66223 0,1.18764 0.111826,1.47423 0.871794,2.2342 l 0.871792,0.87179 -0.871792,0.95129 c -0.785458,0.85708 -0.871794,1.11031 -0.871794,2.557 0,0.9261 0.172119,1.93856 0.406668,2.39212 0.548214,1.06013 2.249408,2.24996 3.776551,2.64136 l 1.252241,0.32094 -0.09945,1.04279 c -0.07722,0.80977 0.03579,1.18674 0.505767,1.68701 0.830158,0.88366 2.313882,0.88366 3.14404,0 z m 17.02868,1.97101 c -0.9556,-0.58264 -1.003106,-0.71949 -0.486256,-1.40077 0.315839,-0.41632 0.376047,-0.42263 0.517415,-0.0542 0.08799,0.2293 0.572983,0.58947 1.077763,0.80038 0.996719,0.41645 1.888573,0.23525 2.506466,-0.50927 0.299112,-0.36041 0.230614,-0.5579 -0.470419,-1.35633 -1.075115,-1.22449 -1.294577,-2.11656 -0.68611,-2.78891 0.258273,-0.28539 0.680772,-0.51889 0.938889,-0.51889 0.70228,0 1.566851,1.26615 1.566851,2.29463 0,1.08641 0.580278,1.40278 1.562128,0.85168 0.902572,-0.5066 0.999939,-1.18537 0.304895,-2.12547 -0.57332,-0.77545 -0.534569,-1.28562 0.09765,-1.28562 0.581453,0 1.584207,2.18638 1.378551,3.00578 -0.221726,0.88342 -1.587443,1.75791 -2.747473,1.75925 -0.473292,5.3e-4 -0.86053,0.12583 -0.86053,0.27841 0,0.15258 -0.315275,0.56961 -0.70061,0.92672 -0.897878,0.83213 -2.742792,0.88871 -3.999211,0.12265 z m 3.86581,-3.97458 c -0.152301,-0.43689 -0.384403,-0.79434 -0.515786,-0.79434 -0.309156,0 -0.301493,0.10244 0.06841,0.91427 0.428909,0.94136 0.784147,0.84613 0.44738,-0.11993 z m -1.792872,-3.06702 c 0.01271,-0.30845 0.07545,-0.37119 0.159969,-0.15997 0.07649,0.19114 0.06708,0.41951 -0.02089,0.50749 -0.08799,0.088 -0.150564,-0.0684 -0.139067,-0.34752 z m 0.295493,-1.83139 c 0.0054,-0.43688 0.06474,-0.58355 0.131871,-0.32593 0.06713,0.25762 0.06272,0.61507 -0.0098,0.79434 -0.07253,0.17926 -0.127456,-0.0315 -0.12206,-0.46841 z m 0,-2.91256 c 0.0054,-0.43689 0.06474,-0.58356 0.131871,-0.32594 0.06713,0.25763 0.06272,0.61508 -0.0098,0.79434 -0.07253,0.17926 -0.127456,-0.0315 -0.12206,-0.4684 z"
         id="path943" />
      <path
         style="fill:#de6a8a;stroke-width:0.264779"
         d="m 62.632173,152.23868 c 0.546106,-0.0571 1.439734,-0.0571 1.98584,0 0.546106,0.0571 0.09929,0.10386 -0.99292,0.10386 -1.092212,0 -1.539026,-0.0467 -0.99292,-0.10386 z m 17.938753,-5.997 c 0,-0.055 0.208513,-0.26349 0.463363,-0.46336 0.419954,-0.32935 0.42932,-0.31999 0.09997,0.1 -0.345899,0.44105 -0.563332,0.58131 -0.563332,0.36339 z m -16.606758,-4.67213 c -0.760092,-0.10939 -1.93264,-0.52158 -2.60566,-0.916 -2.603346,-1.52566 -2.404124,-3.80992 0.459004,-5.26289 1.330044,-0.67497 1.77984,-0.76231 3.92581,-0.76231 2.14597,0 2.595765,0.0873 3.925809,0.76231 1.115624,0.56615 1.626996,1.01712 1.987323,1.75258 0.470371,0.96007 0.470371,1.02047 0,1.98054 -0.912496,1.86249 -4.287852,2.93568 -7.692286,2.44577 z m 0.07013,-1.96772 c 0.409676,-0.40967 0.649912,-0.95243 0.649912,-1.46832 0,-0.51588 -0.240236,-1.05864 -0.649912,-1.46831 -0.409674,-0.40968 -0.95243,-0.64992 -1.468317,-0.64992 -0.515887,0 -1.058643,0.24024 -1.468317,0.64992 -0.409676,0.40967 -0.649912,0.95243 -0.649912,1.46831 0,0.51589 0.240236,1.05865 0.649912,1.46832 0.409674,0.40967 0.95243,0.64991 1.468317,0.64991 0.515887,0 1.058643,-0.24024 1.468317,-0.64991 z m 6.354687,0 c 1.313355,-1.31335 0.382717,-3.58655 -1.468316,-3.58655 -0.515887,0 -1.058644,0.24024 -1.468317,0.64992 -0.409676,0.40967 -0.649913,0.95243 -0.649913,1.46831 0,0.51589 0.240237,1.05865 0.649913,1.46832 0.409673,0.40967 0.95243,0.64991 1.468317,0.64991 0.515886,0 1.058643,-0.24024 1.468316,-0.64991 z m 1.709027,-5.27519 c 0,-0.055 0.208513,-0.26349 0.463363,-0.46336 0.419955,-0.32935 0.42932,-0.31999 0.09997,0.1 -0.345899,0.44105 -0.563333,0.58131 -0.563333,0.36339 z"
         id="path941" />
      <path
         style="fill:#c9757c;stroke-width:0.264779"
         d="m 60.844917,154.00898 c -4.331555,-0.67278 -10.085692,-3.3343 -11.813773,-5.46435 -0.41178,-0.50756 -0.385803,-0.49608 1.418718,0.6265 3.199737,1.99054 7.88422,3.08875 13.175231,3.08875 5.747687,0 10.234467,-1.16832 13.991266,-3.64322 3.279956,-2.16076 5.048188,-4.25564 6.331943,-7.50165 0.63393,-1.60291 0.708002,-2.13592 0.708693,-5.09973 5.3e-4,-2.74377 -0.09922,-3.59007 -0.58398,-4.94916 -0.321613,-0.90169 -0.509773,-1.83482 -0.418133,-2.07363 0.247317,-0.6445 1.53139,1.65611 2.367998,4.24262 0.775465,2.39748 0.948405,6.1251 0.392706,8.46458 -1.344027,5.65833 -6.519263,10.12699 -13.822184,11.93505 -2.021209,0.50041 -9.418997,0.73607 -11.748485,0.37424 z m 0.452223,-11.12374 c -1.038038,-0.51871 -1.812629,-1.12322 -2.160519,-1.68612 -0.780292,-1.26254 -0.66916,-1.43657 0.318208,-0.49831 1.132085,1.07579 2.824828,1.90482 4.302976,2.10743 1.06334,0.14574 1.142851,0.20204 0.728986,0.51619 -0.712181,0.54057 -1.425544,0.44234 -3.189651,-0.43919 z m 5.702713,0.43919 c -0.413865,-0.31415 -0.334355,-0.37045 0.728986,-0.51619 1.478148,-0.20261 3.170891,-1.03164 4.302976,-2.10743 0.987367,-0.93826 1.0985,-0.76423 0.318208,0.49831 -0.34789,0.5629 -1.122481,1.16741 -2.16052,1.68612 -1.764106,0.88153 -2.47747,0.97976 -3.18965,0.43919 z m -2.365292,-1.66489 c 0.191136,-0.0765 0.41951,-0.0671 0.507493,0.0209 0.08798,0.088 -0.0684,0.15056 -0.347521,0.13907 -0.308454,-0.0127 -0.371194,-0.0755 -0.159972,-0.15997 z m 1.853451,0 c 0.191135,-0.0765 0.419507,-0.0671 0.507493,0.0209 0.08798,0.088 -0.0684,0.15056 -0.347522,0.13907 -0.308454,-0.0127 -0.371193,-0.0755 -0.159971,-0.15997 z m 3.657583,-7.3809 -1.025691,-0.5887 1.170268,0.1319 c 0.993256,0.11196 1.298591,0.0239 2.018612,-0.58192 0.466587,-0.39261 0.84834,-0.63583 0.84834,-0.5405 0,0.42358 -0.587848,1.20183 -1.257161,1.66436 -0.721316,0.49847 -0.739042,0.49761 -1.754368,-0.0851 z m -11.042106,-0.36122 c -0.931102,-0.9311 -1.05818,-1.70357 -0.138048,-0.83915 0.357507,0.33586 1.125405,0.66307 1.753952,0.74737 1.087838,0.14591 1.101056,0.15938 0.489391,0.49848 -0.925023,0.51281 -1.24822,0.45038 -2.105295,-0.4067 z m 5.531072,0.5931 c 0.191136,-0.0765 0.41951,-0.0671 0.507493,0.0209 0.08798,0.088 -0.0684,0.15056 -0.347521,0.13906 -0.308454,-0.0127 -0.371194,-0.0754 -0.159972,-0.15996 z m 1.853451,0 c 0.191135,-0.0765 0.419507,-0.0671 0.507493,0.0209 0.08798,0.088 -0.0684,0.15056 -0.347522,0.13906 -0.308454,-0.0127 -0.371193,-0.0754 -0.159971,-0.15996 z m -3.524866,-1.4078 c 0.263585,-0.29126 0.512945,-0.52956 0.554139,-0.52956 0.04119,0 0.05695,0.2383 0.03501,0.52956 -0.02518,0.33409 -0.229706,0.52956 -0.55414,0.52956 -0.497476,0 -0.49862,-0.0173 -0.03501,-0.52956 z m 4.969093,-0.0281 c -0.04037,-0.53591 -0.02195,-0.53947 0.473212,-0.0914 0.634632,0.57433 0.639465,0.64897 0.042,0.64897 -0.291331,0 -0.489353,-0.21432 -0.515214,-0.55762 z"
         id="path939" />
      <path
         style="fill:#a0566a;stroke-width:0.264779"
         d="m 62.301199,133.61665 c 0,-0.15423 0.119151,-0.20677 0.264779,-0.11676 0.145628,0.09 0.264779,0.21618 0.264779,0.2804 0,0.0642 -0.119151,0.11676 -0.264779,0.11676 -0.145628,0 -0.264779,-0.12618 -0.264779,-0.2804 z m 6.487077,0.0156 c 0.09,-0.14563 0.216187,-0.26478 0.280406,-0.26478 0.06422,0 0.116762,0.11915 0.116762,0.26478 0,0.14562 -0.126183,0.26477 -0.280406,0.26477 -0.154223,0 -0.206765,-0.11915 -0.116762,-0.26477 z"
         id="path937" />
      <path
         style="fill:#623750;stroke-width:0.264779"
         d="m 62.953257,142.49138 c -3.212422,-0.92655 -4.824651,-2.58546 -4.544275,-4.67583 0.0757,-0.56436 0.31267,-1.29325 0.526603,-1.61975 0.647701,-0.98852 2.342012,-1.98757 4.15995,-2.4529 5.369611,-1.37446 10.883941,1.60762 9.938488,5.3746 -0.302584,1.20559 -2.153085,2.67522 -4.121272,3.27304 -2.409705,0.73193 -3.696032,0.75369 -5.959494,0.10084 z m 5.713473,-1.07588 c 1.864105,-0.55358 3.431279,-2.05257 3.431279,-3.28199 0,-1.9425 -3.024683,-3.7069 -6.354687,-3.7069 -3.305595,0 -6.354688,1.76556 -6.354688,3.67964 0,2.72312 5.11201,4.54644 9.278096,3.30925 z m -7.074825,-1.47851 c -1.462505,-0.70706 -1.334243,-3.02982 0.202452,-3.66634 2.35795,-0.97669 3.989269,2.62432 1.667992,3.68197 -0.783122,0.35681 -1.105655,0.35412 -1.870444,-0.0156 z m 6.354688,0 c -1.462505,-0.70706 -1.334244,-3.02982 0.202452,-3.66634 2.357949,-0.97669 3.989269,2.62432 1.667992,3.68197 -0.783123,0.35681 -1.105655,0.35412 -1.870444,-0.0156 z"
         id="path935" />
      <path
         style="fill:#44283b;stroke-width:0.264779"
         d="m 64.948986,146.79147 c -2.313273,-1.16346 -0.817067,-4.62365 1.571488,-3.63428 0.905778,0.37519 1.43604,1.57632 1.093562,2.47711 -0.440348,1.1582 -1.633202,1.67614 -2.66505,1.15717 z M 60.646333,133.7217 c 0.182035,-0.0735 0.479911,-0.0735 0.661946,0 0.182036,0.0735 0.0331,0.13355 -0.330973,0.13355 -0.36407,0 -0.513008,-0.0601 -0.330973,-0.13355 z m 9.532031,0 c 0.182035,-0.0735 0.479911,-0.0735 0.661947,0 0.182035,0.0735 0.0331,0.13355 -0.330974,0.13355 -0.36407,0 -0.513008,-0.0601 -0.330973,-0.13355 z"
         id="path933" />
      <path
         style="fill:#050304;stroke-width:0.264779"
         d="m 59.103489,132.85831 c -0.950945,-0.95095 -0.998451,-1.93819 -0.134825,-2.80181 0.75281,-0.75282 1.740413,-1.05019 2.693392,-0.81101 1.016707,0.25518 1.963037,1.32558 1.963037,2.22041 0,2.04531 -2.957853,2.95616 -4.521604,1.39241 z m 9.532031,0 c -0.950944,-0.95095 -0.998451,-1.93819 -0.134825,-2.80181 0.752811,-0.75282 1.740414,-1.05019 2.693392,-0.81101 1.016707,0.25518 1.963037,1.32558 1.963037,2.22041 0,2.04531 -2.957853,2.95616 -4.521604,1.39241 z"
         id="path931" />
    </g>
  </g>
</svg>
